<svg width="404" height="405" viewBox="0 0 404 405" fill="none" xmlns="http://www.w3.org/2000/svg">
<path d="M265.32 86.9505H138.68V0.311523H265.32V86.9505ZM139.68 85.9505H264.32V1.31152H139.68V85.9505Z" fill="#EBEBEB"/>
<path d="M148.582 5.89307C148.582 7.28507 147.453 8.41307 146.061 8.41307C144.669 8.41307 143.541 7.28507 143.541 5.89307C143.541 4.50107 144.669 3.37207 146.061 3.37207C147.454 3.37207 148.582 4.50107 148.582 5.89307Z" fill="#A6A6A6"/>
<path d="M158.875 5.89307C158.875 7.28507 157.747 8.41307 156.355 8.41307C154.963 8.41307 153.834 7.28507 153.834 5.89307C153.834 4.50107 154.962 3.37207 156.355 3.37207C157.748 3.37207 158.875 4.50107 158.875 5.89307Z" fill="#EBEBEB"/>
<path d="M169.167 5.89307C169.167 7.28507 168.039 8.41307 166.646 8.41307C165.254 8.41307 164.125 7.28507 164.125 5.89307C164.125 4.50107 165.254 3.37207 166.646 3.37207C168.039 3.37207 169.167 4.50107 169.167 5.89307Z" fill="#004761"/>
<path d="M264.819 10.3301H139.18V11.3301H264.819V10.3301Z" fill="#EBEBEB"/>
<path d="M147.968 350.061H61.3291V268.68H147.968V350.061ZM62.3291 349.061H146.968V269.68H62.3291V349.061Z" fill="#EBEBEB"/>
<path d="M71.2305 274.261C71.2305 275.653 70.1025 276.782 68.7095 276.782C67.3175 276.782 66.1885 275.654 66.1885 274.261C66.1885 272.869 67.3175 271.74 68.7095 271.74C70.1025 271.74 71.2305 272.868 71.2305 274.261Z" fill="#A6A6A6"/>
<path d="M81.5234 274.261C81.5234 275.653 80.3954 276.782 79.0034 276.782C77.6114 276.782 76.4824 275.654 76.4824 274.261C76.4824 272.869 77.6104 271.74 79.0034 271.74C80.3964 271.74 81.5234 272.868 81.5234 274.261Z" fill="#EBEBEB"/>
<path d="M91.8154 274.261C91.8154 275.653 90.6874 276.782 89.2944 276.782C87.9024 276.782 86.7734 275.654 86.7734 274.261C86.7734 272.869 87.9014 271.74 89.2944 271.74C90.6874 271.74 91.8154 272.868 91.8154 274.261Z" fill="#004761"/>
<path d="M147.468 278.698H61.8291V279.698H147.468V278.698Z" fill="#EBEBEB"/>
<path d="M147.468 296.289H61.8291V297.289H147.468V296.289Z" fill="#EBEBEB"/>
<path d="M147.468 313.88H61.8291V314.88H147.468V313.88Z" fill="#EBEBEB"/>
<path d="M147.468 331.47H61.8291V332.47H147.468V331.47Z" fill="#EBEBEB"/>
<path d="M138.863 286.792H70.4326V289.943H138.863V286.792Z" fill="#EBEBEB"/>
<path d="M138.863 304.251H70.4326V307.402H138.863V304.251Z" fill="#EBEBEB"/>
<path d="M138.863 321.709H70.4326V324.86H138.863V321.709Z" fill="#EBEBEB"/>
<path d="M138.863 339.168H70.4326V342.319H138.863V339.168Z" fill="#EBEBEB"/>
<path d="M403.046 283.51L389.689 283.79L383.11 283.902C380.922 283.949 378.746 283.939 376.564 283.957L377.009 283.51L377.063 294.701L376.564 294.202L389.804 294.265C394.217 294.27 398.631 294.376 403.044 294.428L402.771 294.702C402.79 292.871 402.857 291.028 402.902 289.165L403.046 283.51ZM403.046 283.51L403.188 289.047C403.233 290.914 403.299 292.802 403.318 294.701L403.322 294.971L403.046 294.974C398.633 295.025 394.218 295.133 389.805 295.138L376.565 295.201L376.063 295.203L376.066 294.701L376.12 283.51L376.122 283.062L376.566 283.065C378.798 283.083 381.035 283.073 383.261 283.12L389.922 283.232L403.046 283.51Z" fill="#EBEBEB"/>
<path d="M269.215 193.585H242.734V204.775H269.215V193.585Z" fill="#EBEBEB"/>
<path d="M254.443 179.475L241.087 179.754L234.508 179.866C232.32 179.913 230.144 179.903 227.962 179.921L228.408 179.475L228.462 190.665L227.963 190.166L241.203 190.229C245.616 190.234 250.03 190.341 254.443 190.393L254.17 190.666C254.189 188.835 254.256 186.993 254.301 185.13L254.443 179.475ZM254.443 179.475L254.585 185.011C254.63 186.878 254.697 188.766 254.716 190.665L254.719 190.935L254.443 190.938C250.03 190.989 245.616 191.097 241.203 191.102L227.963 191.165L227.461 191.167L227.463 190.665L227.517 179.475L227.519 179.026L227.963 179.03C230.195 179.048 232.432 179.038 234.658 179.085L241.319 179.197L254.443 179.475Z" fill="#EBEBEB"/>
<path d="M283.986 179.475L270.63 179.754L264.051 179.866C261.863 179.913 259.687 179.903 257.505 179.921L257.951 179.475L258.005 190.665L257.506 190.166L270.746 190.229C275.159 190.234 279.573 190.341 283.986 190.393L283.713 190.666C283.732 188.835 283.799 186.993 283.844 185.13L283.986 179.475ZM283.986 179.475L284.128 185.011C284.173 186.878 284.24 188.766 284.259 190.665L284.262 190.935L283.986 190.938C279.573 190.989 275.159 191.097 270.746 191.102L257.506 191.165L257.004 191.167L257.006 190.665L257.06 179.475L257.062 179.026L257.506 179.03C259.738 179.048 261.975 179.038 264.201 179.085L270.862 179.197L283.986 179.475Z" fill="#EBEBEB"/>
<path d="M15.7272 15.944L29.0832 15.665L35.6622 15.553C37.8502 15.506 40.0262 15.516 42.2082 15.498L41.7622 15.944L41.7082 4.75396L42.2072 5.25295L28.9672 5.18995C24.5542 5.18495 20.1402 5.07796 15.7272 5.02596L16.0002 4.75396C15.9812 6.58496 15.9142 8.42696 15.8692 10.29L15.7272 15.944ZM15.7272 15.944L15.5852 10.408C15.5402 8.54096 15.4732 6.65296 15.4542 4.75396L15.4512 4.48396L15.7272 4.48095C20.1402 4.42995 24.5542 4.32196 28.9672 4.31696L42.2072 4.25396L42.7092 4.25195L42.7072 4.75396L42.6532 15.944L42.6512 16.393L42.2072 16.389C39.9752 16.371 37.7382 16.381 35.5122 16.334L28.8512 16.222L15.7272 15.944Z" fill="#EBEBEB"/>
<path d="M0.955528 30.0537L27.4365 30.0537V18.8637L0.955528 18.8637V30.0537Z" fill="#EBEBEB"/>
<path d="M376.564 15.9557L389.92 15.6767L396.499 15.5647C398.687 15.5177 400.863 15.5277 403.045 15.5097L402.599 15.9557L402.545 4.76567L403.044 5.26467L389.804 5.20167C385.391 5.19667 380.977 5.08867 376.564 5.03767L376.837 4.76467C376.818 6.59567 376.751 8.43767 376.706 10.3007L376.564 15.9557ZM376.564 15.9557L376.422 10.4197C376.377 8.55267 376.31 6.66467 376.291 4.76567L376.288 4.49567L376.564 4.49267C380.977 4.44167 385.391 4.33367 389.804 4.32867L403.044 4.26567L403.546 4.26367L403.544 4.76567L403.49 15.9557L403.488 16.4047L403.044 16.4007C400.812 16.3827 398.575 16.3927 396.349 16.3457L389.688 16.2337L376.564 15.9557Z" fill="#EBEBEB"/>
<path d="M198.582 344.473H172.101V355.663H198.582V344.473Z" fill="#EBEBEB"/>
<path d="M27.4361 287.69L14.0801 287.969L7.5011 288.081C5.3131 288.128 3.1371 288.118 0.955105 288.136L1.4011 287.69L1.4551 298.88L0.956104 298.381L14.1961 298.444C18.6091 298.449 23.0231 298.556 27.4361 298.608L27.1631 298.881C27.1821 297.05 27.2491 295.208 27.2941 293.345L27.4361 287.69ZM27.4361 287.69L27.5781 293.226C27.6231 295.093 27.6901 296.981 27.7091 298.88L27.7121 299.15L27.4361 299.153C23.0231 299.204 18.6091 299.312 14.1961 299.317L0.956104 299.38L0.454102 299.382L0.456104 298.88L0.510101 287.69L0.512104 287.241L0.956104 287.245C3.1881 287.263 5.4251 287.253 7.6511 287.3L14.3121 287.412L27.4361 287.69Z" fill="#EBEBEB"/>
<path d="M183.809 330.363L170.453 330.642L163.874 330.754C161.686 330.801 159.51 330.791 157.328 330.809L157.774 330.363L157.828 341.553L157.329 341.054L170.569 341.117C174.982 341.122 179.396 341.229 183.809 341.281L183.536 341.554C183.555 339.723 183.622 337.881 183.667 336.018L183.809 330.363ZM183.809 330.363L183.951 335.899C183.996 337.766 184.063 339.654 184.082 341.553L184.085 341.823L183.809 341.826C179.396 341.877 174.982 341.985 170.569 341.99L157.329 342.053L156.827 342.055L156.829 341.553L156.883 330.363L156.885 329.914L157.329 329.917C159.561 329.935 161.798 329.925 164.024 329.972L170.685 330.084L183.809 330.363Z" fill="#EBEBEB"/>
<path d="M267.387 253.524V404.536H358.676V253.524H267.387ZM350.387 348.805H275.676V309.493H350.387V348.805ZM350.387 300.133H275.676V260.821H350.387V300.133Z" fill="#DBDBDB"/>
<path d="M399.956 253.525H358.678V404.533H399.956V253.525Z" fill="#EBEBEB"/>
<path d="M293.431 260.817H275.677V300.127H293.431V260.817Z" fill="#EBEBEB"/>
<path d="M350.388 357.577H276.143V395.057H350.388V357.577Z" stroke="#EBEBEB" stroke-width="0.5" stroke-miterlimit="10"/>
<path d="M320.639 368.12H305.892V373.51H320.639V368.12Z" fill="#EBEBEB"/>
<path d="M293.431 309.497H275.677V348.807H293.431V309.497Z" fill="#EBEBEB"/>
<path d="M340.168 348.805V312.563H327.677V348.805H340.168Z" fill="#A6A6A6"/>
<path d="M340.168 342.985V335.166H327.677V342.985H340.168Z" fill="#DBDBDB"/>
<path d="M340.168 328.874V324.235H327.677V328.874H340.168Z" fill="#DBDBDB"/>
<path d="M329.026 269.802H297.461V300.134H329.026V269.802Z" fill="#EBEBEB"/>
<path d="M341.021 269.802H329.025V300.134H341.021V269.802Z" fill="#C7C7C7"/>
<path d="M297.461 284.968H329.026L304.375 285.748L297.461 284.968Z" fill="#C7C7C7"/>
<path d="M329.026 296.47H297.461L322.113 297.25L329.026 296.47Z" fill="#C7C7C7"/>
<path d="M297.461 276.49H317.455L299.682 277.127L297.461 276.49Z" fill="#C7C7C7"/>
<path d="M329.025 292.004H309.031L326.805 292.641L329.025 292.004Z" fill="#C7C7C7"/>
<path d="M305.032 273.112H327.583L323.825 273.495L305.032 273.112Z" fill="#C7C7C7"/>
<path d="M300.528 288.22H323.08L319.321 288.602L300.528 288.22Z" fill="#C7C7C7"/>
<path d="M314.397 279.378H329.025L331.639 280.397L314.397 279.378Z" fill="#EBEBEB"/>
<path d="M293.431 279.378H308.06L310.673 280.397L293.431 279.378Z" fill="#EBEBEB"/>
<path d="M312.202 293.01H297.574L294.96 294.029L312.202 293.01Z" fill="#EBEBEB"/>
<path d="M329.025 289.548H340.772L343.386 290.568L329.025 289.548Z" fill="#C7C7C7"/>
<path d="M333.127 284.968H342.236L341.022 284.134L333.127 284.968Z" fill="#C7C7C7"/>
<path d="M350.388 310.142H340.168V348.806H350.388V310.142Z" fill="#EBEBEB"/>
<path d="M345.278 317.769C344.103 317.769 343.15 316.816 343.15 315.641C343.15 314.466 344.103 313.513 345.278 313.513C346.453 313.513 347.406 314.466 347.406 315.641C347.406 316.816 346.453 317.769 345.278 317.769Z" fill="white"/>
<path d="M345.279 316.858C344.607 316.858 344.062 316.313 344.062 315.641C344.062 314.969 344.607 314.425 345.279 314.425C345.951 314.425 346.495 314.969 346.495 315.641C346.496 316.313 345.951 316.858 345.279 316.858Z" fill="#A6A6A6"/>
<path d="M350.389 342.717V333.309H340.169V342.717H350.389Z" fill="white"/>
<path d="M327.677 340.824H289.014V348.861H327.677V340.824Z" fill="#C7C7C7"/>
<path d="M320.051 344.843C320.051 343.668 321.004 342.715 322.179 342.715C323.354 342.715 324.307 343.668 324.307 344.843C324.307 346.018 323.354 346.971 322.179 346.971C321.003 346.971 320.051 346.018 320.051 344.843Z" fill="white"/>
<path d="M320.962 344.843C320.962 344.171 321.507 343.626 322.178 343.626C322.85 343.626 323.394 344.171 323.394 344.843C323.394 345.515 322.849 346.059 322.178 346.059C321.507 346.059 320.962 345.515 320.962 344.843Z" fill="#A6A6A6"/>
<path d="M295.104 348.862H304.511V340.825H295.104V348.862Z" fill="white"/>
<path d="M60.6139 318.695C48.8819 334.585 36.6479 353.025 33.6689 372.952C33.6329 373.254 34.1159 373.352 34.1859 373.053C35.5479 367.588 37.2709 362.28 39.3749 357.099C47.0879 354.976 54.6589 353.232 58.7099 345.577C62.8419 337.707 62.3159 327.446 61.5309 318.873C61.4749 318.413 60.8519 318.39 60.6139 318.695Z" fill="#004761"/>
<path d="M39.4907 356.949C44.7617 345.122 51.5277 333.246 60.1277 323.52C60.1857 323.455 60.2758 323.549 60.2218 323.615C54.5908 330.542 50.3128 338.086 46.1338 345.761C50.0188 341.817 54.2758 338.284 57.9558 334.102C58.0278 334.021 58.1417 334.139 58.0737 334.22C54.4197 338.604 50.4287 343.369 45.6697 346.614C44.3907 348.969 43.1048 351.332 41.7998 353.693C42.1198 353.515 42.4498 353.355 42.7778 353.193C42.8358 353.165 42.8868 353.25 42.8288 353.28C42.4658 353.464 42.1068 353.657 41.7318 353.816C41.1138 354.934 40.5017 356.052 39.8657 357.168C39.7237 357.417 39.3787 357.199 39.4907 356.949Z" fill="#263238"/>
<path d="M43.4119 352.823C46.5559 351.02 49.5889 349.083 52.4179 346.811C52.4949 346.749 52.6059 346.856 52.5279 346.921C49.7489 349.273 46.7859 351.38 43.5409 353.044C43.3949 353.119 43.2679 352.905 43.4119 352.823Z" fill="#263238"/>
<path d="M32.3107 369.99C32.3347 370.232 32.7447 370.227 32.7397 369.97C32.8007 363.408 32.7457 356.816 32.8447 350.224C34.5257 346.832 38.1337 344.954 40.6427 342.235C42.4517 340.273 43.9997 338.06 45.3227 335.718C48.4257 330.166 50.1057 323.924 50.7517 317.616C51.4447 310.597 48.7807 287.435 45.8217 288.239C44.2867 288.656 39.3217 300.128 38.0047 303.921C35.8477 310.16 34.3297 316.626 33.3347 323.15C30.9377 338.594 31.1377 354.45 32.3107 369.99Z" fill="#004761"/>
<path d="M32.2633 341.682C32.2733 341.674 32.2833 341.665 32.2933 341.656C32.6523 333.353 34.5233 324.968 36.2743 316.915C38.1603 308.24 40.3653 300.071 44.8303 292.333C44.9133 292.189 45.1263 292.316 45.0523 292.462C42.0143 298.448 39.8423 304.804 38.1793 311.331C38.4783 310.863 38.8413 310.42 39.1523 309.978C39.2743 309.804 39.5623 309.966 39.4413 310.147C39.0043 310.801 38.6083 311.563 38.0463 312.117C38.0273 312.135 38.0083 312.138 37.9883 312.144C36.4513 318.345 35.3483 324.688 34.4043 331.015C34.4753 330.935 34.5433 330.848 34.6143 330.771C34.6623 330.719 34.7443 330.785 34.7113 330.845C34.5943 331.055 34.4633 331.263 34.3353 331.472C33.8593 334.684 33.4193 337.889 32.9753 341.066C38.6933 336.179 43.5763 330.418 46.3313 323.32C46.3443 323.287 46.3973 323.301 46.3853 323.335C43.6873 330.698 39.4333 337.243 32.8843 341.709C32.7643 342.565 32.6453 343.421 32.5233 344.273C32.4983 344.45 32.2163 344.403 32.2173 344.231C32.2203 343.475 32.2563 342.716 32.2863 341.958C32.2033 341.887 32.1653 341.765 32.2633 341.682Z" fill="#263238"/>
<path d="M34.9571 329.652C39.3271 323.131 43.4081 316.797 46.6061 309.588C46.6411 309.508 46.7801 309.565 46.7491 309.648C44.0541 316.811 40.2811 324.068 35.1761 329.821C35.0721 329.938 34.8691 329.784 34.9571 329.652Z" fill="#263238"/>
<path d="M40.764 307.977C42.574 304.774 44.483 301.657 46.187 298.391C46.235 298.3 46.36 298.38 46.322 298.47C44.892 301.808 43.184 305.198 41.044 308.14C40.924 308.305 40.66 308.162 40.764 307.977Z" fill="#263238"/>
<path d="M40.0575 309.37C40.0935 309.37 40.0935 309.426 40.0575 309.426C40.0225 309.426 40.0225 309.37 40.0575 309.37Z" fill="#263238"/>
<path d="M27.8691 351.014C27.7571 355.362 27.2881 359.711 26.3361 363.942C26.4031 364.409 26.4711 364.876 26.5391 365.357C27.9091 360.646 28.6261 355.819 28.8521 350.946C28.9271 350.811 28.9581 350.665 28.8721 350.5C28.8721 350.5 28.8721 350.5 28.8711 350.486C29.1191 343.979 28.5151 337.399 27.4221 330.96C25.3901 318.9 20.9501 307.326 12.5401 298.288C12.2741 298.009 11.7411 298.154 11.6111 298.479C8.21709 307.109 9.40109 317.406 12.2921 326.015C13.8651 330.652 16.1111 335.106 18.9621 339.093C21.8471 343.152 25.5251 346.583 27.8691 351.014Z" fill="#004761"/>
<path d="M13.5348 302.327C21.5058 315.263 27.0518 330.601 27.7298 345.883C27.7418 346.153 27.2858 346.225 27.2478 345.948C27.0588 344.575 26.8498 343.214 26.6288 341.859C26.6248 341.855 26.6198 341.858 26.6158 341.854C23.3178 338.695 19.9328 335.363 17.5718 331.416C17.5308 331.347 17.6308 331.265 17.6858 331.328C20.5548 334.607 23.2318 337.966 26.4708 340.89C25.8998 337.511 25.2238 334.186 24.4228 330.91C24.2088 330.666 24.0018 330.415 23.7918 330.169C23.6538 330.007 23.8838 329.77 24.0278 329.932C24.0908 330.003 24.1558 330.074 24.2198 330.144C23.0908 325.645 21.7118 321.241 20.0528 316.913C18.0238 314.492 15.7548 312.401 14.2768 309.485C14.2408 309.414 14.3368 309.359 14.3828 309.423C15.5708 311.09 16.7208 312.768 18.0688 314.315C18.6058 314.931 19.1948 315.508 19.7528 316.109C17.9388 311.489 15.7868 306.959 13.2268 302.506C13.1118 302.307 13.4148 302.132 13.5348 302.327Z" fill="#263238"/>
<path d="M15.1461 318.285C17.7231 321.752 20.6591 325.061 23.0531 328.644C23.1221 328.747 22.9721 328.852 22.8871 328.772C19.8091 325.885 17.2051 321.943 14.9731 318.386C14.9021 318.274 15.0711 318.184 15.1461 318.285Z" fill="#263238"/>
<path d="M23.414 329.447L23.524 329.557C23.6 329.633 23.482 329.752 23.406 329.675L23.296 329.565C23.22 329.49 23.338 329.371 23.414 329.447Z" fill="#263238"/>
<path d="M1.04652 327.196C1.68652 333.852 5.18852 341.802 9.45752 346.93C11.3495 349.198 13.6445 350.934 16.2785 352.253C19.2325 353.714 22.3255 355.398 25.3815 356.597C26.8105 360.244 27.9035 364.064 28.6045 368.046C28.7035 367.713 28.8015 367.365 28.8995 367.032C26.9375 350.181 16.0335 335.778 2.08652 326.533C1.58552 326.199 0.991523 326.627 1.04652 327.196Z" fill="#004761"/>
<path d="M5.8654 332.175C5.7674 332.089 5.8994 331.912 6.0074 331.991C13.3984 337.466 20.0594 345.45 23.7794 353.894C23.8814 354.124 23.5644 354.327 23.4334 354.096C22.7854 352.96 22.1234 351.855 21.4514 350.77C21.4474 350.769 21.4454 350.772 21.4414 350.772C18.2584 350.173 15.2434 347.932 12.8794 345.805C12.8154 345.747 12.9094 345.654 12.9734 345.711C14.2074 346.798 15.5314 347.793 17.0014 348.54C18.2994 349.199 19.6964 349.614 21.0474 350.142C19.8674 348.269 18.6374 346.474 17.3544 344.732C13.9284 343.565 10.6664 341.461 7.7864 339.353C7.6964 339.287 7.7754 339.138 7.8764 339.199C10.8114 340.966 13.7054 342.52 16.7694 343.953C14.8394 341.396 12.7504 338.975 10.4914 336.633C9.4094 336.062 8.3124 335.487 7.2634 334.876C7.1784 334.826 7.2344 334.68 7.3324 334.713C8.1674 334.991 9.0184 335.429 9.8094 335.93C8.5504 334.658 7.2544 333.401 5.8654 332.175Z" fill="#263238"/>
<path d="M6.16259 337.994C6.35559 338.116 6.52959 338.227 6.69959 338.377C6.75159 338.422 6.68559 338.488 6.63259 338.465C6.42859 338.376 6.26059 338.268 6.07359 338.148C5.97559 338.086 6.06559 337.932 6.16259 337.994Z" fill="#263238"/>
<path d="M50.6673 404.539H12.4473L15.5333 369.733L16.2103 362.057H46.9043L47.5823 369.733L50.6673 404.539Z" fill="#455A64"/>
<path d="M47.5822 369.733H15.5332L16.2102 362.057H46.9042L47.5822 369.733Z" fill="#263238"/>
<path d="M48.7328 356.69H14.3818V364.286H48.7328V356.69Z" fill="#455A64"/>
<path d="M1.04395 404.039L51.2829 403.795L101.522 403.707L202 403.54L302.478 403.706L352.717 403.794L402.956 404.039L352.717 404.283L302.478 404.371L202 404.538L101.522 404.37L51.2829 404.282L1.04395 404.039Z" fill="#263238"/>
<path d="M403.045 22.3594H0.993164V273.271H403.045V22.3594Z" fill="white"/>
<path d="M403.045 273.271L0.993164 273.632H0.632164V273.27L0.493164 22.3594V21.8594H0.993164L403.045 22.0564H403.349V22.3594L403.045 273.271ZM403.045 273.271L402.742 22.3594L403.045 22.6624L0.993164 22.8594L1.49316 22.3594L1.35416 273.271L0.993164 272.91L403.045 273.271Z" fill="#DBDBDB"/>
<path d="M403.045 22.3594H0.955078V31.4354H403.045V22.3594Z" fill="#455A64"/>
<path d="M8.61716 26.897C8.61716 27.76 7.91816 28.46 7.05516 28.46C6.19216 28.46 5.49316 27.76 5.49316 26.897C5.49316 26.034 6.19316 25.335 7.05516 25.335C7.91716 25.335 8.61716 26.034 8.61716 26.897Z" fill="#C7C7C7"/>
<path d="M14.9971 26.897C14.9971 27.76 14.2971 28.46 13.4341 28.46C12.5711 28.46 11.8721 27.76 11.8721 26.897C11.8721 26.034 12.5711 25.335 13.4341 25.335C14.2981 25.335 14.9971 26.034 14.9971 26.897Z" fill="white"/>
<path d="M21.377 26.897C21.377 27.76 20.678 28.46 19.814 28.46C18.951 28.46 18.252 27.76 18.252 26.897C18.252 26.034 18.952 25.335 19.814 25.335C20.678 25.335 21.377 26.034 21.377 26.897Z" fill="#004761"/>
<path d="M403.045 31.4355H0.955078V46.9426H403.045V31.4355Z" fill="#EBEBEB"/>
<path d="M375.165 34.6006H49.7832V43.8006H375.165V34.6006Z" fill="white"/>
<path d="M375.26 43.8938H49.6904V34.5068H375.26V43.8938ZM49.8774 43.7058H375.072V34.6938H49.8774V43.7058Z" fill="#C7C7C7"/>
<path d="M56.9016 41.1807L56.2476 41.6747L55.2466 40.3537L55.0376 40.0757L54.8226 39.7907L54.8086 39.7767C54.8986 39.7417 54.9826 39.6867 55.0586 39.6307C55.0726 39.6167 55.0936 39.6027 55.1076 39.5887C55.2326 39.4847 55.3366 39.3597 55.4206 39.2207L55.4276 39.2347L55.6566 39.5337L55.8716 39.8117L56.9016 41.1807Z" fill="#EBEBEB"/>
<path d="M55.8727 39.8107L55.6577 39.5327C55.7337 39.4287 55.7967 39.3177 55.8387 39.1987L55.5887 38.8647L55.5747 38.8438C55.5607 38.9138 55.5327 38.9827 55.5047 39.0527C55.4837 39.1087 55.4557 39.1637 55.4217 39.2197C55.3377 39.3587 55.2337 39.4837 55.1087 39.5877C55.1367 39.5667 55.1717 39.5387 55.1987 39.5117L55.2057 39.5257L55.4147 39.7967L55.6307 40.0747L56.4167 41.1107L56.3197 41.1867L55.5407 40.1577L55.3317 39.8797L55.1237 39.6017L55.1087 39.5877C55.0947 39.6017 55.0747 39.6157 55.0607 39.6297C54.9847 39.6857 54.9007 39.7407 54.8107 39.7757C54.7827 39.7967 54.7547 39.8037 54.7277 39.8177C54.6377 39.8527 54.5537 39.8737 54.4707 39.8937L54.4777 39.9077L54.7067 40.2067C54.8177 40.1787 54.9287 40.1307 55.0407 40.0747L55.2497 40.3527L56.2507 41.6737L56.9047 41.1797L55.8727 39.8107Z" fill="#EBEBEB"/>
<path d="M55.6159 37.4187C55.0179 36.6397 53.8989 36.4937 53.1199 37.0917C52.3409 37.6897 52.1879 38.8087 52.7929 39.5877C53.2519 40.1927 54.0169 40.4147 54.7049 40.2067C54.8159 40.1787 54.9269 40.1307 55.0389 40.0747C55.1229 40.0327 55.2059 39.9777 55.2819 39.9217C55.3029 39.9077 55.3169 39.8937 55.3309 39.8797C55.3589 39.8517 55.3869 39.8307 55.4149 39.7967C55.5049 39.7207 55.5889 39.6297 55.6579 39.5327C55.7339 39.4287 55.7969 39.3177 55.8389 39.1987C56.0809 38.6287 56.0189 37.9477 55.6159 37.4187ZM55.5039 39.0527C55.4829 39.1087 55.4549 39.1637 55.4209 39.2197C55.3369 39.3587 55.2329 39.4837 55.1079 39.5877C55.0939 39.6017 55.0729 39.6157 55.0589 39.6297C54.9829 39.6857 54.8989 39.7407 54.8089 39.7757C54.7809 39.7967 54.7529 39.8037 54.7259 39.8177C54.6359 39.8527 54.5519 39.8737 54.4689 39.8937C54.3789 39.9077 54.2879 39.9147 54.2049 39.9147C53.7739 39.9147 53.3569 39.7197 53.0789 39.3657C52.6059 38.7467 52.7239 37.8567 53.3429 37.3837C53.9619 36.9107 54.8519 37.0287 55.3239 37.6477C55.5879 37.9887 55.6719 38.4337 55.5739 38.8437C55.5599 38.9137 55.5319 38.9827 55.5039 39.0527Z" fill="#EBEBEB"/>
<path d="M55.8379 39.1987C56.0809 38.6287 56.0189 37.9477 55.6159 37.4187C55.0179 36.6397 53.8989 36.4937 53.1199 37.0917C52.3409 37.6897 52.1879 38.8087 52.7929 39.5877C53.2519 40.1927 54.0169 40.4147 54.7049 40.2067C54.8159 40.1787 54.9269 40.1307 55.0389 40.0747L55.2479 40.3527C55.3309 40.3107 55.4219 40.2557 55.4979 40.1927C55.5119 40.1787 55.5259 40.1717 55.5399 40.1577C55.5679 40.1367 55.6029 40.1087 55.6299 40.0747C55.7199 39.9987 55.8039 39.9077 55.8729 39.8107L55.6579 39.5327C55.7339 39.4277 55.7959 39.3167 55.8379 39.1987ZM55.3719 39.3377C55.3229 39.4077 55.2679 39.4697 55.2049 39.5257C55.1769 39.5537 55.1489 39.5817 55.1219 39.6017C55.1079 39.6157 55.0869 39.6297 55.0729 39.6437C55.0099 39.6927 54.9409 39.7337 54.8709 39.7687C54.8569 39.7757 54.8359 39.7827 54.8219 39.7897C54.7109 39.8527 54.5929 39.8937 54.4739 39.9077C53.9529 40.0187 53.4029 39.8247 53.0629 39.3797C52.8339 39.0737 52.7289 38.6987 52.7779 38.3157C52.8339 37.9397 53.0279 37.5997 53.3269 37.3697C53.5909 37.1677 53.8969 37.0707 54.2029 37.0707C54.6269 37.0707 55.0579 37.2657 55.3359 37.6337C55.6139 37.9947 55.6979 38.4467 55.5859 38.8647C55.5509 38.9967 55.5029 39.1147 55.4259 39.2327C55.4139 39.2687 55.3929 39.3027 55.3719 39.3377Z" fill="#EBEBEB"/>
<path d="M16.7651 42.3486L13.4141 39.2646L16.7591 36.0566L17.2781 36.5986L14.5091 39.2536L17.2731 41.7966L16.7651 42.3486Z" fill="white"/>
<path d="M24.8509 36.0518L28.2019 39.1358L24.8569 42.3438L24.3369 41.8018L27.1059 39.1468L24.3429 36.6038L24.8509 36.0518Z" fill="white"/>
<path d="M388.483 42.9696C388.098 43.2086 387.67 43.3916 387.205 43.5046C386.003 43.7986 384.797 43.5726 383.823 42.9676C382.87 42.3786 382.137 41.4276 381.849 40.2526C381.269 37.8736 382.724 35.4756 385.103 34.8956C387.48 34.3136 389.878 35.7706 390.46 38.1496C390.926 40.0636 390.072 41.9896 388.483 42.9696Z" fill="#DBDBDB"/>
<path d="M387.502 38.6937C387.502 39.4387 386.898 40.0417 386.153 40.0417C385.408 40.0417 384.805 39.4377 384.805 38.6937C384.805 37.9487 385.409 37.3447 386.153 37.3447C386.898 37.3447 387.502 37.9487 387.502 38.6937Z" fill="white"/>
<path d="M388.483 42.414V42.97C388.098 43.209 387.67 43.392 387.205 43.505C386.003 43.799 384.797 43.573 383.823 42.968V42.414C383.823 41.13 384.866 40.084 386.153 40.084C387.44 40.083 388.483 41.13 388.483 42.414Z" fill="white"/>
<path d="M38.1969 43.2034C35.7929 43.2034 33.8369 41.2474 33.8369 38.8434C33.8369 36.4394 35.7929 34.4834 38.1969 34.4834C40.3799 34.4834 42.2389 36.1134 42.5199 38.2754L41.7329 38.3774C41.5029 36.6094 39.9829 35.2774 38.1969 35.2774C36.2309 35.2774 34.6309 36.8774 34.6309 38.8434C34.6309 40.8094 36.2309 42.4084 38.1969 42.4084C39.2049 42.4084 40.1699 41.9794 40.8449 41.2304L41.4349 41.7624C40.6099 42.6784 39.4289 43.2034 38.1969 43.2034Z" fill="white"/>
<path d="M39.7861 37.243L40.0521 36.848L42.0001 38.162L43.1691 36.123L43.5831 36.36L42.1591 38.844L39.7861 37.243Z" fill="white"/>
<path d="M403.044 62.3271H395.913V273.271H403.044V62.3271Z" fill="#DBDBDB"/>
<path d="M399.475 147.115C398.458 147.115 397.633 146.291 397.633 145.273V65.6008C397.633 64.5838 398.458 63.7588 399.475 63.7588C400.492 63.7588 401.317 64.5838 401.317 65.6008V145.273C401.317 146.291 400.492 147.115 399.475 147.115Z" fill="#A6A6A6"/>
<path d="M395.913 62.3271H0.993164V273.271H395.913V62.3271Z" fill="white"/>
<path d="M395.913 273.271L0.993141 273.653H0.611141V273.27L0.494141 62.3261V61.8271H0.993141L395.913 62.0331H396.206V62.3261L395.913 273.271ZM395.913 273.271L395.62 62.3271L395.913 62.6201L0.993141 62.8261L1.49214 62.3271L1.37514 273.271L0.993141 272.889L395.913 273.271Z" fill="#DBDBDB"/>
<path d="M395.913 62.3271H0.993164V100.06H395.913V62.3271Z" fill="#EBEBEB"/>
<path d="M225.199 48.7109H155.306L152.128 62.3269H228.377L225.199 48.7109Z" fill="#EBEBEB"/>
<path d="M217.36 53.1496L216.894 53.6162L221.187 57.911L221.654 57.4444L217.36 53.1496Z" fill="#DBDBDB"/>
<path d="M221.651 53.6034L221.185 53.1367L216.89 57.4309L217.357 57.8976L221.651 53.6034Z" fill="#DBDBDB"/>
<path d="M210.394 54.5791H170.111V56.4601H210.394V54.5791Z" fill="#DBDBDB"/>
<path d="M277.085 191.587H126.953V212.071H277.085V191.587Z" fill="white" stroke="#C7C7C7" stroke-miterlimit="10"/>
<path d="M277.086 191.587H256.602V212.071H277.086V191.587Z" fill="#004761"/>
<path d="M273.336 207.57L271.444 209.003L267.939 204.375L266.657 202.682C266.914 202.582 267.161 202.443 267.392 202.266C267.836 201.927 268.161 201.488 268.364 201.006L269.726 202.801L273.336 207.57Z" fill="white"/>
<path d="M269.612 196.673C267.876 194.41 264.633 193.983 262.371 195.718C260.108 197.453 259.681 200.696 261.416 202.959C262.975 204.994 265.75 205.544 267.939 204.375C268.187 204.241 268.426 204.09 268.654 203.913C269.076 203.588 269.435 203.212 269.726 202.802C271.002 201.005 271.022 198.517 269.612 196.673ZM267.392 202.267C267.161 202.444 266.913 202.583 266.657 202.683C265.403 203.185 263.924 202.82 263.063 201.697C262.026 200.343 262.279 198.403 263.633 197.365C264.987 196.328 266.924 196.584 267.964 197.938C268.659 198.847 268.773 200.021 268.363 201.007C268.161 201.489 267.836 201.928 267.392 202.267Z" fill="white"/>
<path d="M132.335 195.613H131.236V208.044H132.335V195.613Z" fill="#263238"/>
<path d="M161.632 220.056H126.953V231.045H161.632V220.056Z" fill="#C7C7C7"/>
<path d="M219.358 220.056H184.679V231.045H219.358V220.056Z" fill="#004761"/>
<path d="M277.516 220.056H242.837V231.045H277.516V220.056Z" fill="#C7C7C7"/>
<path d="M249.902 169.402H154.135V176.054H249.902V169.402Z" fill="#37474F"/>
<path d="M238.046 52.4834H237.386V58.5564H238.046V52.4834Z" fill="#C7C7C7"/>
<path d="M240.753 55.8495V55.1895H234.68V55.8495H240.753Z" fill="#C7C7C7"/>
<path d="M395.913 62.3271H0.993164V273.271H395.913V62.3271Z" fill="white"/>
<path d="M395.913 273.271L0.993141 273.653H0.611141V273.27L0.494141 62.3261V61.8271H0.993141L395.913 62.0331H396.206V62.3261L395.913 273.271ZM395.913 273.271L395.62 62.3271L395.913 62.6201L0.993141 62.8261L1.49214 62.3271L1.37514 273.271L0.993141 272.889L395.913 273.271Z" fill="#DBDBDB"/>
<path d="M395.913 62.3271H0.993164V100.06H395.913V62.3271Z" fill="#EBEBEB"/>
<path d="M74.0642 48.7109H4.17016L0.993164 62.3269H77.2412L74.0642 48.7109Z" fill="#EBEBEB"/>
<path d="M66.2216 53.1437L65.7549 53.6104L70.0485 57.9052L70.5152 57.4386L66.2216 53.1437Z" fill="#DBDBDB"/>
<path d="M70.5165 53.6034L70.0498 53.1367L65.7556 57.4309L66.2223 57.8976L70.5165 53.6034Z" fill="#DBDBDB"/>
<path d="M59.2586 54.5791H18.9756V56.4601H59.2586V54.5791Z" fill="#DBDBDB"/>
<path d="M277.085 191.587H126.953V212.071H277.085V191.587Z" fill="white" stroke="#C7C7C7" stroke-miterlimit="10"/>
<path d="M277.086 191.587H256.602V212.071H277.086V191.587Z" fill="#004761"/>
<path d="M273.336 207.57L271.444 209.003L267.939 204.375L266.657 202.682C266.914 202.582 267.161 202.443 267.392 202.266C267.836 201.927 268.161 201.488 268.364 201.006L269.726 202.801L273.336 207.57Z" fill="white"/>
<path d="M269.612 196.673C267.876 194.41 264.633 193.983 262.371 195.718C260.108 197.453 259.681 200.696 261.416 202.959C262.975 204.994 265.75 205.544 267.939 204.375C268.187 204.241 268.426 204.09 268.654 203.913C269.076 203.588 269.435 203.212 269.726 202.802C271.002 201.005 271.022 198.517 269.612 196.673ZM267.392 202.267C267.161 202.444 266.913 202.583 266.657 202.683C265.403 203.185 263.924 202.82 263.063 201.697C262.026 200.343 262.279 198.403 263.633 197.365C264.987 196.328 266.924 196.584 267.964 197.938C268.659 198.847 268.773 200.021 268.363 201.007C268.161 201.489 267.836 201.928 267.392 202.267Z" fill="white"/>
<path d="M132.335 195.613H131.236V208.044H132.335V195.613Z" fill="#263238"/>
<path d="M161.632 220.056H126.953V231.045H161.632V220.056Z" fill="#C7C7C7"/>
<path d="M219.358 220.056H184.679V231.045H219.358V220.056Z" fill="#004761"/>
<path d="M277.516 220.056H242.837V231.045H277.516V220.056Z" fill="#C7C7C7"/>
<path d="M249.902 169.402H154.135V176.054H249.902V169.402Z" fill="#37474F"/>
<path d="M395.913 62.3271H0.993164V273.271H395.913V62.3271Z" fill="white"/>
<path d="M395.913 273.271L0.993141 273.653H0.611141V273.27L0.494141 62.3261V61.8271H0.993141L395.913 62.0331H396.206V62.3261L395.913 273.271ZM395.913 273.271L395.62 62.3271L395.913 62.6201L0.993141 62.8261L1.49214 62.3271L1.37514 273.271L0.993141 272.889L395.913 273.271Z" fill="#DBDBDB"/>
<path d="M395.913 62.3271H0.993164V89.0301H395.913V62.3271Z" fill="#004761"/>
<path d="M149.266 48.7109H79.3723L76.1953 62.3269H152.443L149.266 48.7109Z" fill="#004761"/>
<g opacity="0.2">
<path d="M141.425 53.1467L140.958 53.6133L145.252 57.9081L145.718 57.4415L141.425 53.1467Z" fill="black"/>
<path d="M145.718 53.6034L145.251 53.1367L140.957 57.4309L141.423 57.8976L145.718 53.6034Z" fill="black"/>
</g>
<path opacity="0.1" d="M134.461 54.5791H94.1777V56.4601H134.461V54.5791Z" fill="black"/>
<path d="M22.3117 205.605L146.136 205.605V110.602L22.3117 110.602L22.3117 205.605Z" fill="#004761"/>
<path opacity="0.6" d="M34.6366 131.378C33.1356 139.297 39.9486 146.11 47.8666 144.608C52.2906 143.769 55.8586 140.201 56.6966 135.778C58.1976 127.86 51.3846 121.047 43.4666 122.548C39.0426 123.387 35.4746 126.955 34.6366 131.378Z" fill="white"/>
<path d="M63.1611 185.137H146.135L104.648 134.007L63.1611 185.137Z" fill="#004761"/>
<path opacity="0.2" d="M63.1611 185.137H146.135L104.648 134.007L63.1611 185.137Z" fill="black"/>
<path d="M22.3115 185.183H95.8935L59.1025 151.887L22.3115 185.183Z" fill="#004761"/>
<path opacity="0.1" d="M22.3115 185.183H95.8935L59.1025 151.887L22.3115 185.183Z" fill="black"/>
<path d="M146.136 185.137H22.3115V205.606H146.136V185.137Z" fill="#004761"/>
<path opacity="0.1" d="M146.136 185.137H22.3115V205.606H146.136V185.137Z" fill="black"/>
<path d="M263.31 110.602H161.779V115.132H263.31V110.602Z" fill="#A6A6A6"/>
<path d="M377.527 121.112H161.779V125.643H377.527V121.112Z" fill="#EBEBEB"/>
<path d="M377.527 131.079H161.779V135.61H377.527V131.079Z" fill="#EBEBEB"/>
<path d="M377.527 141.048H161.779V145.579H377.527V141.048Z" fill="#EBEBEB"/>
<path d="M377.527 151.015H161.779V155.546H377.527V151.015Z" fill="#EBEBEB"/>
<path d="M377.527 169.495H161.779V174.026H377.527V169.495Z" fill="#EBEBEB"/>
<path d="M377.527 179.464H161.779V183.995H377.527V179.464Z" fill="#EBEBEB"/>
<path d="M377.527 189.431H161.779V193.962H377.527V189.431Z" fill="#EBEBEB"/>
<path d="M377.527 199.397H161.779V203.928H377.527V199.397Z" fill="#EBEBEB"/>
<path d="M377.527 209.364H161.779V213.895H377.527V209.364Z" fill="#EBEBEB"/>
<path d="M377.528 229.3H22.3115V233.831H377.528V229.3Z" fill="#EBEBEB"/>
<path d="M307.193 239.267H22.3115V243.798H307.193V239.267Z" fill="#EBEBEB"/>
<path opacity="0.6" d="M379.236 72.8232H22.3115V78.9272H379.236V72.8232Z" fill="white"/>
<path d="M343.251 222.508L347.449 232.644L343.257 234.379L339.036 224.175L332.108 229.55V200.996L352.096 221.189L343.251 222.508Z" fill="#263238"/>
<path d="M332.354 197.199C331.96 196.568 331.871 195.937 331.854 195.306C331.869 194.675 331.957 194.044 332.354 193.413C332.75 194.044 332.839 194.675 332.854 195.306C332.837 195.937 332.748 196.568 332.354 197.199Z" fill="#263238"/>
<path d="M329.091 198.551C328.366 198.384 327.857 198 327.399 197.565C326.963 197.108 326.579 196.599 326.413 195.873C327.14 196.039 327.649 196.423 328.105 196.859C328.54 197.316 328.924 197.825 329.091 198.551Z" fill="#263238"/>
<path d="M327.74 201.812C327.109 202.206 326.478 202.295 325.847 202.312C325.216 202.298 324.585 202.21 323.953 201.812C324.584 201.417 325.215 201.327 325.847 201.312C326.478 201.33 327.109 201.417 327.74 201.812Z" fill="#263238"/>
<path d="M329.091 205.073C328.923 205.798 328.54 206.307 328.105 206.765C327.648 207.201 327.139 207.585 326.413 207.751C326.579 207.024 326.963 206.515 327.399 206.059C327.857 205.624 328.366 205.241 329.091 205.073Z" fill="#263238"/>
<path d="M336.965 201.812C337.596 201.419 338.227 201.33 338.858 201.312C339.489 201.327 340.12 201.415 340.752 201.812C340.121 202.208 339.49 202.298 338.858 202.312C338.227 202.295 337.596 202.206 336.965 201.812Z" fill="#263238"/>
<path d="M335.614 198.551C335.781 197.826 336.165 197.317 336.6 196.859C337.057 196.423 337.566 196.039 338.292 195.873C338.126 196.6 337.742 197.109 337.306 197.565C336.848 197.999 336.339 198.383 335.614 198.551Z" fill="#263238"/>
<path d="M231.137 142.852C231.137 142.852 208.873 254.658 207.307 262.912C206.945 264.792 208.231 364.868 208.231 364.868H166.859C166.859 364.868 162.874 277.449 164.871 260.961C166.868 244.464 192.077 142.852 192.077 142.852H231.137Z" fill="#D3766A"/>
<path opacity="0.1" d="M231.139 142.855C231.139 142.855 220.306 197.269 213.212 232.98L192.072 142.855H231.139Z" fill="black"/>
<path d="M178.042 198.758L222.031 204.044L231.136 142.852H192.076L178.042 198.758Z" fill="#263238"/>
<path d="M220.386 195.6C215.685 194.662 210.915 194.081 206.152 193.54C201.439 193.005 196.724 192.494 192.005 192.012C189.304 191.736 186.593 191.464 183.884 191.321C183.704 191.311 183.686 191.544 183.859 191.576C188.567 192.45 193.347 193.004 198.094 193.629C202.798 194.248 207.506 194.835 212.223 195.341C214.931 195.631 217.63 195.86 220.351 195.967C220.61 195.977 220.635 195.649 220.386 195.6Z" fill="#37474F"/>
<path d="M225.051 146.42C221.778 158.135 218.661 169.892 215.693 181.689C215.276 183.344 214.879 185.004 214.476 186.663C214.065 188.354 213.609 190.072 213.377 191.799C213.363 191.902 213.495 191.934 213.532 191.838C214.641 188.992 215.305 185.924 216.101 182.979C216.892 180.054 217.644 177.119 218.401 174.185C219.915 168.317 221.423 162.449 222.849 156.559C223.662 153.199 224.472 149.839 225.268 146.475C225.302 146.334 225.089 146.281 225.051 146.42Z" fill="#37474F"/>
<path d="M136.25 402.786C138.536 403.545 203.777 403.355 206.262 401.778C207.201 401.189 207.729 391.677 208.039 380.178C208.109 377.692 208.159 375.137 208.199 372.522C208.249 369.438 208.289 366.313 208.309 363.279C208.389 349.654 207.896 337.656 207.896 337.656H165.727L165.747 363.279L165.757 372.522L165.977 380.178C165.977 380.178 141.032 391.427 138.497 393.454C135.97 395.469 133.974 402.038 136.25 402.786Z" fill="#D3766A"/>
<path d="M136.25 402.786C138.536 403.545 203.777 403.355 206.262 401.778C207.201 401.189 207.729 391.677 208.039 380.178C208.109 377.692 208.159 375.137 208.199 372.522C208.249 369.438 208.289 366.313 208.309 363.279H165.746L165.756 372.522L165.976 380.178C165.976 380.178 141.031 391.427 138.496 393.454C135.97 395.469 133.974 402.038 136.25 402.786Z" fill="#DBDBDB"/>
<path d="M136.053 402.884C137.54 403.373 165.33 403.473 185.563 403.054C190.245 402.954 194.527 402.824 197.98 402.675C202.741 402.456 205.935 402.196 206.455 401.866C207.603 401.127 208.152 387.173 208.411 372.449H165.729L165.948 380.145C165.948 380.145 140.864 391.454 138.308 393.491C135.774 395.528 133.767 402.116 136.053 402.884Z" fill="#004761"/>
<path d="M136.987 400.258C147.984 399.956 192.365 399.776 203.258 400.313C203.347 400.317 203.347 400.378 203.258 400.382C192.365 400.919 147.983 400.739 136.987 400.438C136.756 400.431 136.755 400.264 136.987 400.258Z" fill="#263238"/>
<path d="M164.388 377.708C168.714 376.888 174.008 377.537 177.324 380.611C177.452 380.73 177.281 380.911 177.141 380.867C172.868 379.534 168.878 378.682 164.407 378.255C164.092 378.225 164.078 377.767 164.388 377.708Z" fill="#263238"/>
<path d="M161.27 379.599C165.595 378.779 170.89 379.428 174.206 382.501C174.335 382.62 174.164 382.801 174.023 382.757C169.75 381.424 165.76 380.571 161.289 380.145C160.973 380.116 160.96 379.658 161.27 379.599Z" fill="#263238"/>
<path d="M158.151 381.492C162.476 380.672 167.771 381.321 171.087 384.394C171.216 384.513 171.044 384.694 170.904 384.65C166.631 383.317 162.641 382.464 158.17 382.038C157.855 382.008 157.842 381.551 158.151 381.492Z" fill="#263238"/>
<path d="M155.033 383.383C159.358 382.563 164.653 383.212 167.969 386.286C168.098 386.405 167.927 386.586 167.786 386.542C163.512 385.209 159.523 384.357 155.052 383.93C154.737 383.9 154.724 383.442 155.033 383.383Z" fill="#263238"/>
<path d="M158.323 373.882C161.391 376.254 165.378 377.214 168.955 378.527C169.326 378.663 169.62 378.314 169.632 377.985C169.703 377.972 169.763 377.918 169.733 377.829C168.544 374.218 165.972 370.385 163.04 367.935C161.229 366.422 158.059 365.378 156.366 367.725C154.764 369.944 156.532 372.497 158.323 373.882ZM157.212 370.403C156.436 365.657 161.54 368.136 162.831 369.303C163.66 370.054 164.414 370.919 165.132 371.774C166.636 373.567 167.857 375.54 169.168 377.466C167.45 376.713 165.683 376.114 163.94 375.426C161.861 374.606 157.64 373.019 157.212 370.403Z" fill="#263238"/>
<path d="M184.163 371.192C183.109 368.497 179.778 368.717 177.647 369.729C174.196 371.369 170.749 374.439 168.696 377.639C168.646 377.718 168.69 377.785 168.755 377.816C168.684 378.138 168.882 378.55 169.275 378.51C173.067 378.131 177.167 378.197 180.73 376.666C182.81 375.772 185.16 373.741 184.163 371.192ZM174.906 376.76C173.046 376.991 171.185 377.13 169.334 377.43C171.084 375.892 172.759 374.286 174.663 372.925C175.572 372.276 176.518 371.626 177.508 371.106C179.049 370.297 184.611 369.171 182.674 373.573C181.607 376.001 177.124 376.484 174.906 376.76Z" fill="#263238"/>
<path opacity="0.1" d="M181.768 403.132C183.051 403.111 184.322 403.078 185.563 403.057C190.251 402.952 194.529 402.827 197.977 402.669C202.739 402.459 205.934 402.196 206.46 401.87C207.332 401.302 207.858 393.144 208.173 382.812L181.768 403.132Z" fill="black"/>
<path d="M220.72 359.698L263.278 359.174C263.278 359.174 253.488 214.066 249.849 183.866C249.849 183.866 256.749 167.515 243.835 142.815H192.037C192.037 142.815 195.509 166.319 201.451 181.222C201.451 181.222 205.301 182.256 212.292 186.11L220.72 359.698Z" fill="#D3766A"/>
<path d="M213.051 204.368H253.742L250.652 183.866C250.652 183.866 256.832 163.062 244.751 142.815H192.036C192.036 142.815 194.221 164.863 200.686 181.444L207.306 184.381L213.051 204.368Z" fill="#263238"/>
<path d="M207.307 184.383C207.257 184.125 206.726 184.128 206.774 184.396C208.916 196.483 212.301 202.335 212.543 202.888C212.574 202.96 212.672 202.963 212.698 202.884C212.885 202.311 208.276 189.404 207.307 184.383Z" fill="#37474F"/>
<path d="M199.486 180.627C204.154 182.233 208.66 184.515 212.968 186.906C213.137 187 213.025 187.262 212.842 187.183C208.3 185.233 203.669 183.367 199.241 181.169C198.894 180.996 199.128 180.503 199.486 180.627Z" fill="#37474F"/>
<path d="M198.043 149.463C198.055 149.306 198.331 149.271 198.33 149.441C198.293 154.833 198.637 159.577 199.091 164.616C199.302 166.956 201.184 179.884 205.241 178.942C205.92 178.784 206.267 178.116 206.374 177.092C206.502 175.861 206.039 174.351 205.835 173.127C205.385 170.421 205.023 167.705 204.791 164.971C204.357 159.868 204.336 154.764 204.956 149.677C204.976 149.51 205.218 149.523 205.217 149.692C205.211 156.757 205.396 163.808 206.452 170.805C206.96 174.168 208.653 179.23 205.137 179.748C201.554 180.275 199.237 171.795 198.8 169.475C197.58 163.001 197.531 156.012 198.043 149.463Z" fill="#37474F"/>
<path d="M205.133 179.288C205.5 180.156 205.794 181.06 206.045 181.968C206.24 182.673 206.505 183.435 206.424 184.171C206.408 184.314 206.219 184.327 206.143 184.231C205.667 183.628 205.466 182.803 205.2 182.088C204.891 181.259 204.565 180.436 204.28 179.599C204.092 179.043 204.907 178.753 205.133 179.288Z" fill="#37474F"/>
<path d="M242.885 165.28C239.054 164.897 235.108 164.946 231.555 163.232C227.937 161.487 225.647 158.07 223.801 154.63C222.643 152.472 221.841 150.254 221.255 147.882C221.229 147.776 221.063 147.805 221.067 147.912C221.148 150.083 221.805 152.282 222.632 154.277C223.447 156.244 224.437 158.18 225.676 159.916C226.847 161.556 228.28 163.04 230.053 164.027C231.818 165.009 233.803 165.55 235.803 165.763C238.139 166.011 240.562 165.995 242.895 165.721C243.183 165.687 243.166 165.308 242.885 165.28Z" fill="#37474F"/>
<path d="M248.165 188.187C247.752 186.313 247.123 184.389 247.02 182.466C246.917 180.546 247.933 178.888 248.512 177.116C250.763 170.23 249.851 162.693 247.396 155.997C245.989 152.16 244.102 148.526 242.102 144.969C242.051 144.878 241.919 144.962 241.966 145.053C245.324 151.604 248.29 158.603 248.944 166.009C249.258 169.571 249.006 173.197 247.963 176.628C247.469 178.253 246.532 179.825 246.392 181.538C246.245 183.334 246.836 185.151 247.232 186.882C247.722 189.025 249.225 195.499 249.884 197.675C249.941 197.862 250.269 197.825 250.237 197.618C249.936 195.684 248.602 190.17 248.165 188.187Z" fill="#37474F"/>
<path d="M251.09 199.059C246.309 198.704 241.504 198.712 236.711 198.758C231.968 198.804 227.226 198.875 222.483 198.975C219.769 199.032 217.045 199.094 214.338 199.284C214.158 199.297 214.168 199.53 214.345 199.54C219.124 199.83 223.936 199.795 228.724 199.834C233.468 199.872 238.213 199.878 242.956 199.802C245.679 199.758 248.386 199.655 251.099 199.428C251.359 199.406 251.343 199.078 251.09 199.059Z" fill="#37474F"/>
<path d="M192.346 404.28C194.65 404.981 259.866 403.141 262.311 401.502C263.234 400.889 263.522 391.367 263.541 379.863C263.548 377.377 263.533 374.821 263.507 372.205C263.479 369.12 263.44 365.996 263.383 362.962C263.118 349.339 261.779 336.208 261.779 336.208L220.167 338.424L220.835 364.039L221.079 373.279L221.492 380.927C221.492 380.927 196.84 392.804 194.357 394.894C191.881 396.973 190.052 403.59 192.346 404.28Z" fill="#D3766A"/>
<path d="M192.346 404.28C194.65 404.981 259.867 403.141 262.312 401.502C263.235 400.889 263.522 391.367 263.541 379.863C263.548 377.377 263.533 374.821 263.507 372.205C263.479 369.12 263.44 365.996 263.383 362.962L220.834 364.038L221.079 373.278L221.492 380.926C221.492 380.926 196.839 392.803 194.356 394.893C191.881 396.973 190.052 403.59 192.346 404.28Z" fill="#DBDBDB"/>
<path d="M192.151 404.384C193.65 404.835 221.433 404.233 241.649 403.302C246.326 403.084 250.604 402.846 254.053 402.609C258.807 402.269 261.994 401.929 262.504 401.587C263.633 400.82 263.829 386.856 263.716 372.131L221.047 373.21L221.461 380.898C221.461 380.898 196.671 392.838 194.168 394.938C191.686 397.037 189.847 403.674 192.151 404.384Z" fill="#004761"/>
<path d="M193.019 401.734C204.004 401.154 248.367 399.852 259.271 400.114C259.36 400.116 259.361 400.177 259.273 400.183C248.397 400.996 204.025 401.938 193.024 401.914C192.792 401.914 192.787 401.746 193.019 401.734Z" fill="#263238"/>
<path d="M219.84 378.499C224.143 377.569 229.453 378.085 232.845 381.073C232.976 381.189 232.81 381.374 232.668 381.333C228.362 380.108 224.352 379.357 219.872 379.044C219.558 379.023 219.533 378.566 219.84 378.499Z" fill="#263238"/>
<path d="M216.771 380.469C221.074 379.539 226.384 380.055 229.776 383.044C229.908 383.16 229.741 383.345 229.599 383.304C225.293 382.079 221.283 381.328 216.803 381.015C216.488 380.993 216.463 380.535 216.771 380.469Z" fill="#263238"/>
<path d="M213.702 382.439C218.005 381.51 223.316 382.025 226.708 385.013C226.84 385.129 226.672 385.314 226.53 385.274C222.224 384.049 218.214 383.298 213.734 382.985C213.419 382.963 213.394 382.506 213.702 382.439Z" fill="#263238"/>
<path d="M210.632 384.409C214.935 383.48 220.245 383.995 223.637 386.984C223.769 387.1 223.602 387.285 223.461 387.245C219.155 386.02 215.145 385.269 210.665 384.956C210.349 384.933 210.324 384.475 210.632 384.409Z" fill="#263238"/>
<path d="M213.681 374.827C216.807 377.12 220.818 377.979 224.427 379.201C224.801 379.328 225.087 378.971 225.09 378.642C225.161 378.627 225.219 378.571 225.187 378.483C223.907 374.903 221.239 371.136 218.246 368.761C216.397 367.295 213.202 366.331 211.568 368.72C210.024 370.98 211.856 373.488 213.681 374.827ZM212.482 371.377C211.586 366.652 216.752 369.001 218.071 370.136C218.919 370.865 219.695 371.711 220.434 372.548C221.983 374.303 223.254 376.244 224.613 378.137C222.877 377.428 221.095 376.874 219.335 376.23C217.236 375.462 212.976 373.982 212.482 371.377Z" fill="#263238"/>
<path d="M239.444 371.486C238.322 368.818 234.999 369.122 232.893 370.188C229.484 371.915 226.116 375.071 224.145 378.322C224.097 378.402 224.142 378.468 224.209 378.497C224.146 378.821 224.354 379.227 224.747 379.178C228.528 378.704 232.629 378.665 236.152 377.045C238.208 376.099 240.506 374.009 239.444 371.486ZM230.332 377.286C228.478 377.565 226.622 377.75 224.779 378.097C226.49 376.515 228.123 374.868 229.993 373.459C230.885 372.787 231.814 372.114 232.791 371.569C234.311 370.721 239.843 369.455 238.018 373.905C237.011 376.358 232.542 376.954 230.332 377.286Z" fill="#263238"/>
<path d="M220.647 49.2576C220.647 49.2576 212.742 41.0016 202.753 44.3246C190.3 48.4676 190.594 82.5146 189.257 88.7956C187.92 95.0756 182.567 96.7896 188.804 102.373C195.04 107.955 203.721 109.668 212.546 109.307C221.371 108.947 227.975 105.081 229.255 101.151C230.038 98.7446 228.108 96.4496 227.726 92.4606C227.502 90.1126 232.612 50.4896 220.647 49.2576Z" fill="#263238"/>
<path d="M229.849 96.3073C229.727 93.6103 228.989 91.0503 229.004 88.3173C229.019 85.6423 229.38 70.0013 229.598 67.3383C230.154 60.5213 229.427 49.9973 220.626 49.4603C220.454 49.4493 220.431 49.6983 220.601 49.7263C231.44 51.5243 229.029 66.8493 228.412 82.0453C228.274 85.4483 228.436 89.9403 228.986 93.3113C229.756 98.0323 229.215 102.151 225.469 105.5C225.387 105.574 225.494 105.705 225.579 105.633C228.366 103.293 230.015 99.9873 229.849 96.3073Z" fill="#263238"/>
<path d="M218.925 49.0015C214.43 45.2915 209.083 42.1495 203.033 43.9365C197.795 45.4835 194.381 50.2315 192.65 55.0975C190.233 61.8885 190.559 82.3165 187.89 89.0395C186.948 91.4135 184.699 93.8885 184.807 96.5835C184.904 98.9825 186.771 99.8025 188.864 100.339C188.975 100.367 189.041 100.206 188.928 100.173C183.851 98.6745 185.398 95.2005 187.12 91.8695C188.33 89.5295 189.17 87.0995 189.768 84.5415C190.957 79.4565 191.229 61.1995 192.802 56.1985C194.331 51.3405 197.233 46.5185 202.267 44.5575C208.57 42.1015 213.992 45.4155 218.86 49.0925C218.918 49.1345 218.98 49.0465 218.925 49.0015Z" fill="#263238"/>
<path d="M219.632 48.9508C221.68 50.4858 227.847 49.5878 230.13 46.3128C233.273 41.8028 227.476 34.4098 221.922 37.1288C216.358 39.8528 218.051 47.7658 219.632 48.9508Z" fill="#263238"/>
<path d="M228.761 38.4512C229.977 39.8152 230.96 41.4092 231.358 43.1042C231.539 43.9492 231.538 44.8192 231.239 45.5882C230.95 46.3562 230.412 47.0252 229.726 47.5352C229.06 48.0692 228.25 48.4542 227.436 48.8032C226.626 49.1672 225.767 49.3872 224.9 49.5572C223.164 49.8462 221.307 49.7182 219.632 48.9522C221.136 50.0322 223.109 50.4502 224.99 50.2512C225.933 50.1552 226.865 49.9292 227.749 49.5902C228.621 49.2352 229.493 48.8442 230.269 48.2362C231.037 47.6422 231.707 46.8312 232.027 45.8652C232.347 44.9002 232.308 43.8552 232.023 42.9352C231.454 41.0772 230.209 39.5742 228.761 38.4512Z" fill="#263238"/>
<path d="M192.907 133.387L191.767 143.935L244.871 142.973C244.871 142.973 241.394 103.714 225.725 89.2005C217.888 81.9415 209.464 83.2005 204.502 89.1065C203.246 90.6005 188.524 110.665 187.461 119.031C186.542 126.411 192.907 133.387 192.907 133.387Z" fill="#455A64"/>
<path d="M205.178 93.3857C205.194 93.7067 204.946 93.9807 204.625 93.9967C204.304 94.0127 204.03 93.7647 204.014 93.4437C203.998 93.1227 204.246 92.8487 204.567 92.8327C204.888 92.8167 205.162 93.0647 205.178 93.3857ZM211.724 92.4787C211.403 92.4947 211.155 92.7677 211.171 93.0897C211.187 93.4117 211.46 93.6587 211.782 93.6427C212.103 93.6267 212.351 93.3537 212.335 93.0317C212.319 92.7097 212.046 92.4627 211.724 92.4787ZM218.881 92.1237C218.56 92.1397 218.312 92.4127 218.328 92.7347C218.344 93.0557 218.617 93.3037 218.939 93.2877C219.26 93.2717 219.508 92.9987 219.492 92.6767C219.476 92.3547 219.203 92.1077 218.881 92.1237ZM226.038 91.7687C225.716 91.7847 225.469 92.0577 225.485 92.3797C225.501 92.7007 225.774 92.9487 226.096 92.9327C226.417 92.9167 226.665 92.6437 226.649 92.3217C226.633 92.0007 226.36 91.7527 226.038 91.7687ZM207.886 87.4187C207.565 87.4347 207.317 87.7077 207.333 88.0297C207.349 88.3507 207.622 88.5987 207.944 88.5827C208.265 88.5667 208.513 88.2937 208.497 87.9717C208.481 87.6507 208.207 87.4027 207.886 87.4187ZM215.043 87.0637C214.722 87.0797 214.474 87.3527 214.49 87.6747C214.506 87.9957 214.779 88.2437 215.101 88.2277C215.422 88.2117 215.67 87.9387 215.654 87.6167C215.638 87.2957 215.365 87.0477 215.043 87.0637ZM222.2 86.7097C221.879 86.7257 221.631 86.9987 221.647 87.3207C221.663 87.6417 221.936 87.8897 222.258 87.8737C222.579 87.8577 222.827 87.5847 222.811 87.2627C222.795 86.9407 222.521 86.6937 222.2 86.7097ZM197.941 103.895C197.62 103.911 197.372 104.184 197.388 104.506C197.404 104.827 197.677 105.075 197.999 105.059C198.321 105.043 198.568 104.77 198.552 104.448C198.535 104.126 198.262 103.879 197.941 103.895ZM205.098 103.54C204.777 103.556 204.529 103.829 204.545 104.151C204.561 104.472 204.834 104.72 205.156 104.704C205.477 104.688 205.725 104.415 205.709 104.093C205.692 103.771 205.419 103.524 205.098 103.54ZM212.255 103.185C211.934 103.201 211.686 103.474 211.702 103.796C211.718 104.117 211.991 104.365 212.313 104.349C212.634 104.333 212.882 104.06 212.866 103.738C212.85 103.417 212.576 103.169 212.255 103.185ZM219.412 102.83C219.091 102.846 218.843 103.119 218.859 103.441C218.875 103.762 219.148 104.01 219.47 103.994C219.791 103.978 220.039 103.705 220.023 103.383C220.007 103.062 219.733 102.814 219.412 102.83ZM226.569 102.476C226.248 102.492 226 102.765 226.016 103.087C226.032 103.408 226.305 103.656 226.627 103.64C226.948 103.624 227.196 103.351 227.18 103.029C227.164 102.707 226.89 102.46 226.569 102.476ZM233.726 102.121C233.405 102.137 233.157 102.41 233.173 102.732C233.189 103.053 233.462 103.301 233.784 103.285C234.105 103.269 234.353 102.996 234.337 102.674C234.321 102.352 234.047 102.105 233.726 102.121ZM201.259 98.4797C200.938 98.4957 200.69 98.7687 200.706 99.0907C200.722 99.4117 200.995 99.6597 201.317 99.6437C201.638 99.6277 201.886 99.3547 201.87 99.0327C201.854 98.7117 201.581 98.4637 201.259 98.4797ZM208.417 98.1257C208.096 98.1417 207.848 98.4147 207.864 98.7367C207.88 99.0577 208.153 99.3057 208.475 99.2897C208.796 99.2737 209.044 99.0007 209.028 98.6787C209.012 98.3567 208.738 98.1097 208.417 98.1257ZM215.574 97.7707C215.253 97.7867 215.005 98.0597 215.021 98.3817C215.037 98.7027 215.31 98.9507 215.632 98.9347C215.953 98.9187 216.201 98.6457 216.185 98.3237C216.168 98.0027 215.895 97.7547 215.574 97.7707ZM222.731 97.4157C222.41 97.4317 222.162 97.7047 222.178 98.0267C222.194 98.3477 222.467 98.5957 222.789 98.5797C223.111 98.5637 223.358 98.2907 223.342 97.9687C223.326 97.6477 223.052 97.3997 222.731 97.4157ZM229.888 97.0607C229.567 97.0767 229.319 97.3497 229.335 97.6717C229.351 97.9927 229.624 98.2407 229.946 98.2247C230.267 98.2087 230.515 97.9357 230.499 97.6137C230.483 97.2927 230.209 97.0447 229.888 97.0607ZM191.314 114.956C190.993 114.972 190.745 115.245 190.761 115.567C190.777 115.888 191.05 116.136 191.372 116.12C191.693 116.104 191.941 115.831 191.925 115.509C191.909 115.188 191.636 114.94 191.314 114.956ZM198.471 114.601C198.15 114.617 197.902 114.89 197.918 115.212C197.934 115.533 198.207 115.781 198.529 115.765C198.85 115.749 199.098 115.476 199.082 115.154C199.066 114.833 198.793 114.585 198.471 114.601ZM205.628 114.246C205.307 114.262 205.059 114.535 205.075 114.857C205.091 115.178 205.364 115.426 205.686 115.41C206.007 115.394 206.255 115.121 206.239 114.799C206.223 114.478 205.95 114.23 205.628 114.246ZM212.785 113.892C212.464 113.908 212.216 114.181 212.232 114.503C212.248 114.824 212.521 115.072 212.843 115.056C213.164 115.04 213.412 114.767 213.396 114.445C213.38 114.123 213.107 113.876 212.785 113.892ZM219.943 113.537C219.622 113.553 219.374 113.826 219.39 114.148C219.406 114.469 219.679 114.717 220.001 114.701C220.322 114.685 220.57 114.412 220.554 114.09C220.537 113.768 220.264 113.521 219.943 113.537ZM227.1 113.182C226.779 113.198 226.531 113.471 226.547 113.793C226.563 114.114 226.836 114.362 227.158 114.346C227.479 114.33 227.727 114.057 227.711 113.735C227.694 113.414 227.421 113.166 227.1 113.182ZM234.257 112.827C233.936 112.843 233.688 113.116 233.704 113.438C233.72 113.759 233.993 114.007 234.315 113.991C234.636 113.975 234.884 113.702 234.868 113.38C234.852 113.059 234.578 112.811 234.257 112.827ZM194.633 109.542C194.312 109.558 194.064 109.831 194.08 110.153C194.096 110.474 194.369 110.722 194.691 110.706C195.012 110.69 195.26 110.417 195.244 110.095C195.228 109.773 194.955 109.526 194.633 109.542ZM201.79 109.187C201.469 109.203 201.221 109.476 201.237 109.798C201.253 110.119 201.526 110.367 201.848 110.351C202.169 110.335 202.417 110.062 202.401 109.74C202.385 109.419 202.112 109.171 201.79 109.187ZM208.947 108.832C208.626 108.848 208.378 109.121 208.394 109.443C208.41 109.764 208.683 110.012 209.005 109.996C209.326 109.98 209.574 109.707 209.558 109.385C209.542 109.064 209.269 108.816 208.947 108.832ZM216.104 108.477C215.782 108.493 215.535 108.766 215.551 109.088C215.567 109.409 215.84 109.657 216.162 109.641C216.483 109.625 216.731 109.352 216.715 109.03C216.699 108.709 216.426 108.461 216.104 108.477ZM223.262 108.123C222.941 108.139 222.693 108.412 222.709 108.734C222.725 109.055 222.998 109.303 223.32 109.287C223.641 109.271 223.889 108.998 223.873 108.676C223.856 108.354 223.583 108.107 223.262 108.123ZM230.419 107.768C230.097 107.784 229.85 108.057 229.866 108.379C229.882 108.7 230.155 108.948 230.477 108.932C230.798 108.916 231.046 108.643 231.03 108.321C231.013 107.999 230.74 107.752 230.419 107.768ZM237.033 107.907C237.024 107.939 237.026 107.981 237.028 108.023C237.036 108.191 237.107 108.335 237.227 108.434C237.166 108.258 237.094 108.083 237.033 107.907ZM191.845 125.662C191.524 125.678 191.276 125.951 191.292 126.273C191.308 126.594 191.581 126.842 191.903 126.826C192.224 126.81 192.472 126.537 192.456 126.215C192.44 125.894 192.166 125.646 191.845 125.662ZM199.002 125.308C198.68 125.324 198.433 125.597 198.449 125.919C198.465 126.24 198.738 126.488 199.06 126.472C199.381 126.456 199.629 126.183 199.613 125.861C199.597 125.539 199.323 125.292 199.002 125.308ZM206.159 124.953C205.838 124.969 205.59 125.242 205.606 125.564C205.622 125.885 205.895 126.133 206.217 126.117C206.538 126.101 206.786 125.828 206.77 125.506C206.754 125.184 206.48 124.937 206.159 124.953ZM213.316 124.598C212.995 124.614 212.747 124.887 212.763 125.209C212.779 125.53 213.052 125.778 213.374 125.762C213.695 125.746 213.943 125.473 213.927 125.151C213.911 124.83 213.638 124.582 213.316 124.598ZM220.473 124.243C220.152 124.259 219.904 124.532 219.92 124.854C219.936 125.175 220.209 125.423 220.531 125.407C220.852 125.391 221.1 125.118 221.084 124.796C221.068 124.475 220.795 124.227 220.473 124.243ZM227.63 123.889C227.309 123.905 227.061 124.178 227.077 124.5C227.093 124.822 227.366 125.069 227.688 125.053C228.009 125.037 228.257 124.764 228.241 124.442C228.225 124.12 227.952 123.873 227.63 123.889ZM234.787 123.534C234.466 123.55 234.218 123.823 234.234 124.145C234.25 124.466 234.523 124.714 234.845 124.698C235.167 124.682 235.414 124.409 235.398 124.087C235.382 123.766 235.109 123.518 234.787 123.534ZM241.596 123.32C241.465 123.432 241.378 123.605 241.388 123.793C241.401 124.045 241.579 124.257 241.825 124.319C241.745 123.997 241.676 123.663 241.596 123.32ZM188.007 120.603C187.686 120.619 187.438 120.892 187.454 121.214C187.47 121.535 187.743 121.783 188.065 121.767C188.387 121.751 188.634 121.478 188.618 121.156C188.602 120.835 188.328 120.587 188.007 120.603ZM195.164 120.248C194.843 120.264 194.595 120.537 194.611 120.859C194.627 121.181 194.9 121.428 195.222 121.412C195.543 121.396 195.791 121.123 195.775 120.801C195.759 120.48 195.485 120.232 195.164 120.248ZM202.321 119.893C202 119.909 201.752 120.182 201.768 120.504C201.784 120.825 202.057 121.073 202.379 121.057C202.7 121.041 202.948 120.768 202.932 120.446C202.916 120.125 202.642 119.877 202.321 119.893ZM209.478 119.539C209.157 119.555 208.909 119.828 208.925 120.15C208.941 120.471 209.214 120.719 209.536 120.703C209.857 120.687 210.105 120.414 210.089 120.092C210.073 119.77 209.799 119.523 209.478 119.539ZM216.635 119.184C216.314 119.2 216.066 119.473 216.082 119.795C216.098 120.116 216.371 120.364 216.693 120.348C217.014 120.332 217.262 120.059 217.246 119.737C217.23 119.415 216.956 119.168 216.635 119.184ZM223.792 118.829C223.471 118.845 223.223 119.118 223.239 119.44C223.255 119.761 223.528 120.009 223.85 119.993C224.171 119.977 224.419 119.704 224.403 119.382C224.387 119.061 224.114 118.813 223.792 118.829ZM230.949 118.474C230.628 118.49 230.38 118.763 230.396 119.085C230.412 119.406 230.685 119.654 231.007 119.638C231.328 119.622 231.576 119.349 231.56 119.027C231.544 118.706 231.271 118.458 230.949 118.474ZM238.106 118.12C237.785 118.136 237.537 118.409 237.553 118.731C237.569 119.053 237.842 119.3 238.164 119.284C238.485 119.268 238.733 118.995 238.717 118.673C238.701 118.351 238.428 118.104 238.106 118.12ZM192.578 136.39L192.456 137.533C192.76 137.507 192.999 137.232 192.983 136.917C192.972 136.676 192.804 136.474 192.578 136.39ZM199.533 136.014C199.212 136.03 198.964 136.303 198.98 136.625C198.996 136.946 199.269 137.194 199.591 137.178C199.912 137.162 200.16 136.889 200.144 136.567C200.127 136.246 199.854 135.998 199.533 136.014ZM206.69 135.659C206.369 135.675 206.121 135.948 206.137 136.27C206.153 136.591 206.426 136.839 206.748 136.823C207.069 136.807 207.317 136.534 207.301 136.212C207.284 135.891 207.011 135.643 206.69 135.659ZM213.847 135.305C213.526 135.321 213.278 135.594 213.294 135.916C213.31 136.237 213.583 136.485 213.905 136.469C214.226 136.453 214.474 136.18 214.458 135.858C214.442 135.536 214.168 135.289 213.847 135.305ZM221.004 134.95C220.683 134.966 220.435 135.239 220.451 135.561C220.467 135.882 220.741 136.13 221.062 136.114C221.383 136.098 221.631 135.825 221.615 135.503C221.599 135.182 221.325 134.934 221.004 134.95ZM228.161 134.595C227.84 134.611 227.592 134.884 227.608 135.206C227.624 135.528 227.897 135.775 228.219 135.759C228.54 135.743 228.788 135.47 228.772 135.148C228.756 134.827 228.482 134.579 228.161 134.595ZM235.318 134.24C234.997 134.256 234.749 134.529 234.765 134.851C234.781 135.172 235.054 135.42 235.376 135.404C235.697 135.388 235.945 135.115 235.929 134.793C235.913 134.472 235.639 134.225 235.318 134.24ZM242.475 133.886C242.154 133.902 241.906 134.175 241.922 134.497C241.938 134.818 242.211 135.066 242.533 135.05C242.854 135.034 243.102 134.761 243.086 134.439C243.07 134.117 242.796 133.87 242.475 133.886ZM195.694 130.955C195.373 130.971 195.125 131.244 195.141 131.566C195.157 131.888 195.43 132.135 195.752 132.119C196.073 132.103 196.321 131.83 196.305 131.508C196.289 131.186 196.016 130.939 195.694 130.955ZM202.852 130.6C202.531 130.616 202.283 130.889 202.299 131.211C202.315 131.532 202.588 131.78 202.91 131.764C203.231 131.748 203.479 131.475 203.463 131.153C203.446 130.831 203.173 130.584 202.852 130.6ZM210.009 130.245C209.688 130.261 209.44 130.534 209.456 130.856C209.472 131.177 209.745 131.425 210.067 131.409C210.388 131.393 210.636 131.12 210.62 130.798C210.603 130.477 210.33 130.229 210.009 130.245ZM217.166 129.89C216.845 129.906 216.597 130.179 216.613 130.501C216.629 130.822 216.902 131.07 217.224 131.054C217.545 131.038 217.793 130.765 217.777 130.443C217.761 130.122 217.487 129.874 217.166 129.89ZM224.323 129.536C224.002 129.552 223.754 129.825 223.77 130.147C223.786 130.468 224.059 130.716 224.381 130.7C224.702 130.684 224.95 130.411 224.934 130.089C224.918 129.767 224.644 129.52 224.323 129.536ZM231.48 129.181C231.159 129.197 230.911 129.47 230.927 129.792C230.943 130.113 231.216 130.361 231.538 130.345C231.859 130.329 232.107 130.056 232.091 129.734C232.075 129.413 231.801 129.165 231.48 129.181ZM238.637 128.826C238.316 128.842 238.068 129.115 238.084 129.437C238.1 129.758 238.373 130.006 238.695 129.99C239.016 129.974 239.264 129.701 239.248 129.379C239.232 129.058 238.958 128.81 238.637 128.826ZM196.225 141.661C195.904 141.677 195.656 141.95 195.672 142.272C195.688 142.593 195.961 142.841 196.283 142.825C196.604 142.809 196.852 142.536 196.836 142.214C196.82 141.893 196.547 141.645 196.225 141.661ZM203.382 141.306C203.061 141.322 202.813 141.595 202.829 141.917C202.845 142.238 203.118 142.486 203.44 142.47C203.761 142.454 204.009 142.181 203.993 141.859C203.977 141.538 203.704 141.29 203.382 141.306ZM210.539 140.952C210.218 140.968 209.97 141.241 209.986 141.563C210.002 141.884 210.275 142.132 210.597 142.116C210.918 142.1 211.166 141.827 211.15 141.505C211.134 141.183 210.861 140.936 210.539 140.952ZM217.697 140.597C217.376 140.613 217.128 140.886 217.144 141.208C217.16 141.529 217.433 141.777 217.755 141.761C218.076 141.745 218.324 141.472 218.308 141.15C218.291 140.829 218.018 140.581 217.697 140.597ZM224.854 140.242C224.533 140.258 224.285 140.531 224.301 140.853C224.317 141.174 224.59 141.422 224.912 141.406C225.234 141.39 225.481 141.117 225.465 140.795C225.448 140.474 225.175 140.226 224.854 140.242ZM232.011 139.887C231.69 139.903 231.442 140.176 231.458 140.498C231.474 140.819 231.747 141.067 232.069 141.051C232.39 141.035 232.638 140.762 232.622 140.44C232.605 140.119 232.332 139.871 232.011 139.887ZM239.168 139.533C238.847 139.549 238.599 139.822 238.615 140.144C238.631 140.465 238.904 140.713 239.226 140.697C239.547 140.681 239.795 140.408 239.779 140.086C239.762 139.764 239.489 139.517 239.168 139.533Z" fill="white"/>
<path d="M201.663 129.039C204.508 129.215 207.366 129.488 210.158 130.083C211.547 130.379 212.912 130.737 214.278 131.126C214.959 131.32 215.641 131.49 216.329 131.657C217.034 131.829 217.79 131.985 218.519 131.978C218.585 131.977 218.587 132.075 218.522 132.08C217.814 132.128 217.137 132.173 216.427 132.127C215.752 132.083 215.078 131.967 214.416 131.832C213.005 131.545 211.608 131.193 210.199 130.891C207.358 130.283 204.518 129.676 201.638 129.274C201.505 129.256 201.528 129.03 201.663 129.039Z" fill="#263238"/>
<path d="M194.741 131.843C197.061 131.511 199.433 131.284 201.777 131.217C202.956 131.183 204.128 131.218 205.306 131.283C205.868 131.314 206.43 131.356 206.99 131.404C207.607 131.457 208.218 131.593 208.835 131.637C208.899 131.642 208.904 131.742 208.838 131.739C208.254 131.715 207.664 131.787 207.08 131.797C206.493 131.807 205.906 131.812 205.319 131.822C204.143 131.842 202.97 131.874 201.794 131.882C199.441 131.898 197.098 131.938 194.746 132.036C194.619 132.042 194.621 131.86 194.741 131.843Z" fill="#263238"/>
<path d="M217.163 85.1059C216.982 86.1689 212.401 93.2759 207.599 93.3469C206.035 93.3669 205.544 84.8359 205.544 84.8359L205.363 84.2149L202.847 75.5129L212.802 68.2249L214.246 67.2529C214.246 67.2529 214.777 69.6789 215.409 72.7069C215.439 72.8469 215.469 72.9879 215.499 73.1379C215.539 73.3079 215.579 73.4679 215.609 73.6289C215.709 74.0799 215.81 74.5409 215.9 75.0029C215.97 75.3539 216.04 75.6939 216.1 76.0649C216.17 76.4359 216.23 76.7969 216.3 77.1679C216.912 80.8349 217.233 84.6549 217.163 85.1059Z" fill="#D3766A"/>
<path d="M215.408 72.705C213.313 79.883 207.879 83.091 205.363 84.214L202.847 75.512L212.802 68.224L214.246 67.252C214.246 67.252 214.777 69.678 215.408 72.705Z" fill="#263238"/>
<path d="M190.817 60.7024C186.918 76.1144 195.708 80.1904 199.032 81.0274C202.05 81.7874 212.421 83.9924 217.893 69.0654C223.364 54.1394 217.432 47.4544 210.622 45.3504C203.811 43.2474 194.717 45.2904 190.817 60.7024Z" fill="#D3766A"/>
<path d="M194.089 57.2983C194.461 57.3483 194.813 57.3323 195.186 57.3433C195.607 57.3563 195.941 57.4093 196.314 57.1753C196.514 57.0503 196.586 56.7113 196.483 56.5053C196.242 56.0273 195.73 55.8833 195.224 55.8473C194.674 55.8083 194.241 55.9193 193.791 56.2353C193.355 56.5433 193.598 57.2323 194.089 57.2983Z" fill="#263238"/>
<path d="M204.118 60.5484C203.767 60.4144 203.466 60.2324 203.132 60.0644C202.756 59.8744 202.437 59.7624 202.221 59.3794C202.105 59.1744 202.203 58.8414 202.392 58.7104C202.832 58.4044 203.35 58.5224 203.812 58.7324C204.314 58.9604 204.642 59.2644 204.886 59.7564C205.123 60.2344 204.581 60.7244 204.118 60.5484Z" fill="#263238"/>
<path d="M195.228 61.3749C195.229 61.3329 195.134 61.4059 195.126 61.4499C194.918 62.5129 194.5 63.6949 193.466 63.8269C193.434 63.8309 193.425 63.8849 193.461 63.8879C194.663 63.9899 195.201 62.4149 195.228 61.3749Z" fill="#263238"/>
<path d="M194.538 60.0578C192.87 59.5398 191.958 62.9128 193.503 63.3928C195.023 63.8638 195.936 60.4908 194.538 60.0578Z" fill="#263238"/>
<path d="M193.775 60.0891C193.46 60.1961 193.108 60.4491 192.784 60.3841C192.408 60.3081 192.234 59.8701 192.093 59.4561C192.078 59.4131 192.044 59.4341 192.031 59.4791C191.839 60.1191 191.871 60.8481 192.457 61.1391C192.991 61.4051 193.556 60.9641 193.883 60.3631C193.944 60.2521 193.902 60.0461 193.775 60.0891Z" fill="#263238"/>
<path d="M200.949 63.1681C200.971 63.1321 201.011 63.2451 200.995 63.2861C200.595 64.2921 200.307 65.5121 201.106 66.1831C201.131 66.2041 201.109 66.2541 201.077 66.2371C200.01 65.6731 200.409 64.0571 200.949 63.1681Z" fill="#263238"/>
<path d="M202.242 62.4334C203.925 62.9004 202.867 66.2304 201.309 65.7984C199.775 65.3724 200.832 62.0414 202.242 62.4334Z" fill="#263238"/>
<path d="M202.867 62.8722C203.074 63.1322 203.233 63.5362 203.541 63.6562C203.898 63.7962 204.281 63.5212 204.624 63.2492C204.66 63.2212 204.677 63.2572 204.664 63.3022C204.48 63.9442 204.059 64.5402 203.408 64.4682C202.815 64.4032 202.579 63.7262 202.628 63.0442C202.637 62.9182 202.783 62.7672 202.867 62.8722Z" fill="#263238"/>
<path d="M199.339 71.4208C199.037 71.6218 198.718 71.9158 198.326 71.8758C197.95 71.8368 197.548 71.5868 197.234 71.3908C197.203 71.3718 197.162 71.4008 197.178 71.4368C197.376 71.8978 197.909 72.2628 198.418 72.2708C198.915 72.2778 199.233 71.9068 199.433 71.4888C199.46 71.4298 199.383 71.3918 199.339 71.4208Z" fill="#263238"/>
<path d="M195.896 66.5288C195.896 66.5288 195.288 68.0438 195.103 68.7828C195.086 68.8518 195.257 68.9298 195.504 69.0068C195.515 69.0138 195.521 69.0198 195.533 69.0148C196.788 69.5448 198.217 69.4218 199.277 68.5538C199.346 68.4938 199.271 68.3948 199.192 68.4238C198.038 68.8968 196.914 68.8128 195.751 68.5418C195.75 68.3238 196.879 65.9828 196.764 65.9448C196.368 65.8088 195.503 65.8858 194.989 65.9058C196.165 62.7148 197.842 59.7378 198.965 56.5418C199.003 56.4268 198.844 56.3498 198.783 56.4458C196.804 59.4418 195.371 63.0838 194.072 66.3488C193.906 66.7558 195.568 66.5808 195.896 66.5288Z" fill="#263238"/>
<path d="M195.642 68.5081C195.642 68.5081 195.995 69.7101 196.829 70.4041C197.136 70.6611 197.498 70.8511 197.936 70.8911C198.834 70.9771 199.131 70.2321 199.217 69.5341C199.289 68.9601 199.212 68.4141 199.212 68.4141C199.212 68.4141 197.604 69.0951 195.642 68.5081Z" fill="#263238"/>
<path d="M196.828 70.404C197.135 70.661 197.497 70.851 197.935 70.891C198.833 70.977 199.13 70.2321 199.216 69.5341C198.305 69.3021 197.216 69.578 196.828 70.404Z" fill="#FF99BA"/>
<path d="M216.708 71.3364C213.717 68.7944 214.536 65.1634 214.536 65.1634C210.77 62.1914 209.363 58.2554 209.215 57.8544C209.233 58.2024 209.36 60.7134 209.465 61.9904C200.121 57.4944 199.109 49.1414 199.109 49.1414C195.058 51.4644 193.87 53.3304 193.133 54.2214C193.133 54.2214 194.692 48.1644 198.888 44.9604C204.023 41.0364 217.213 43.1634 221.408 51.2234C225.919 59.9134 216.708 71.3364 216.708 71.3364Z" fill="#263238"/>
<path d="M202.424 58.3419C203.753 59.6469 205.336 60.7139 206.971 61.5589C206.985 61.5659 206.994 61.5449 206.981 61.5379C204.42 60.0039 202.324 57.8789 200.937 55.2199C200.351 54.0959 199.905 52.9129 199.615 51.6789C199.311 50.3889 199.081 48.8878 199.321 47.5738C199.339 47.4738 199.184 47.4458 199.165 47.5458C198.912 48.9358 198.693 50.2199 198.899 51.6349C199.095 52.9779 199.54 54.2999 200.205 55.4829C200.8 56.5399 201.559 57.4919 202.424 58.3419Z" fill="#263238"/>
<path d="M215.145 69.6292C215.145 69.6292 219.366 65.2882 221.39 66.8722C223.414 68.4552 219.683 75.1352 216.916 75.6822C214.149 76.2292 213.592 73.6772 213.592 73.6772L215.145 69.6292Z" fill="#D3766A"/>
<path d="M220.273 68.7602C220.316 68.7632 220.314 68.8232 220.276 68.8322C218.326 69.2752 217.087 70.8151 216.126 72.4641C216.78 71.8751 217.581 71.6252 218.383 72.4202C218.425 72.4622 218.367 72.5292 218.317 72.5102C217.594 72.2272 217.032 72.2702 216.428 72.7872C216 73.1542 215.668 73.6512 215.331 74.1002C215.219 74.2492 214.938 74.1142 215.031 73.9352C215.038 73.9222 215.046 73.9092 215.053 73.8952C215.387 71.5562 217.731 68.5872 220.273 68.7602Z" fill="#263238"/>
<path d="M220.333 115.069C215.038 114.412 212.149 105.346 213.681 99.3785C215.213 93.4105 218.568 88.2565 223.545 89.4375C228.522 90.6195 229.282 98.4135 229.351 102.996C229.421 107.579 228.522 116.086 220.333 115.069Z" fill="#D3766A"/>
<path d="M221.473 101.89C212.929 113.988 194.146 135.797 181.43 136.516C172.72 137.008 145.488 115.885 139.689 110.632C137.284 108.454 158.317 88.8988 161.003 90.9538C164.701 93.7848 180.936 109.881 183.53 109.907C186.124 109.933 202.244 100.844 212.548 93.6398C225.546 84.5518 228.706 91.6498 221.473 101.89Z" fill="#D3766A"/>
<path d="M220.618 105.513C220.337 105.485 220.047 105.56 219.778 105.638C219.476 105.725 219.226 105.881 218.969 106.059C218.443 106.424 218.029 106.909 217.573 107.353C217.534 107.391 217.584 107.446 217.627 107.415C218.113 107.07 218.613 106.739 219.114 106.414C219.356 106.257 219.608 106.121 219.851 105.966C220.1 105.807 220.367 105.716 220.633 105.595C220.673 105.577 220.66 105.517 220.618 105.513Z" fill="#263238"/>
<path d="M220.433 104.113C217.25 106.656 215.788 109.115 214.92 110.322C214.847 110.424 214.98 110.515 215.065 110.425C216.037 109.411 220.095 104.94 220.497 104.281C220.55 104.194 220.51 104.051 220.433 104.113Z" fill="#263238"/>
<path d="M130.283 56.5212C127.611 58.7172 136.67 68.8402 136.67 68.8402C136.67 68.8402 134.407 68.0742 132.335 69.0642C129.963 70.1972 130.7 74.4142 130.7 74.4142C130.7 74.4142 128.249 74.1132 126.166 75.3792C124.005 76.6922 124.141 81.0532 124.141 81.0532C124.141 81.0532 121.703 82.0272 120.688 84.4122C118.952 88.4892 122.827 94.0392 125.254 97.5922C127.681 101.145 137.895 108.949 139.691 110.633L162.628 95.2492C162.628 95.2492 156.275 76.2202 152.828 72.4482C149.923 69.2692 134.368 53.1642 130.283 56.5212Z" fill="#D3766A"/>
<path d="M136.792 68.8322C140.69 71.4702 143.95 75.0352 147.058 78.5102C147.127 78.5872 147.005 78.6952 146.937 78.6162C143.886 75.1242 139.829 72.3642 136.645 69.0002C136.557 68.9082 136.687 68.7612 136.792 68.8322Z" fill="#263238"/>
<path d="M131.05 74.2849C131.914 74.9079 132.57 75.8149 133.234 76.6359C133.949 77.5199 134.647 78.4169 135.333 79.3249C136.705 81.1419 138.036 82.9899 139.311 84.8759C139.368 84.9589 139.254 85.0669 139.19 84.9819C137.82 83.1739 136.422 81.3859 134.977 79.6369C134.254 78.7619 133.523 77.8919 132.786 77.0279C132.101 76.2239 131.311 75.4329 130.817 74.4909C130.743 74.3519 130.919 74.1909 131.05 74.2849Z" fill="#263238"/>
<path d="M124.201 81.1265C124.974 81.6375 125.518 82.6075 126.054 83.3485C126.662 84.1895 127.274 85.0265 127.891 85.8605C129.125 87.5285 130.36 89.1955 131.652 90.8185C131.716 90.8995 131.596 91.0065 131.53 90.9245C130.209 89.2815 128.867 87.6565 127.561 86.0015C126.92 85.1885 126.283 84.3735 125.65 83.5535C125.112 82.8565 124.361 82.0465 124.114 81.1845C124.101 81.1365 124.163 81.1015 124.201 81.1265Z" fill="#263238"/>
</svg>
