<svg width="1831" height="1830" viewBox="0 0 1831 1830" fill="none" xmlns="http://www.w3.org/2000/svg">
<path d="M915.091 1830C1420.43 1830 1830.09 1420.34 1830.09 915C1830.09 409.659 1420.43 0 915.091 0C409.75 0 0.0908203 409.659 0.0908203 915C0.0908203 1420.34 409.75 1830 915.091 1830Z" fill="#D8EEF6"/>
<path d="M1675.42 1071.04H1654.19C1652.29 1060.68 1649.58 1050.61 1646.14 1040.89L1664.51 1030.28L1628.58 968.033L1610.17 978.669C1603.41 970.754 1596.04 963.382 1588.13 956.621L1598.76 938.198L1536.54 902.258L1525.93 920.639C1516.21 917.191 1506.15 914.479 1495.8 912.577V891.338H1423.95V912.577C1413.6 914.479 1403.54 917.191 1393.82 920.639L1383.22 902.258L1320.99 938.198L1331.62 956.621C1323.71 963.381 1316.34 970.754 1309.58 978.669L1291.17 968.033L1255.24 1030.28L1273.62 1040.89C1270.17 1050.61 1267.46 1060.68 1265.56 1071.04H1244.33V1142.91H1265.56C1267.46 1153.27 1270.17 1163.34 1273.62 1173.06L1255.24 1183.67L1291.17 1245.92L1309.58 1235.28C1316.34 1243.2 1323.71 1250.57 1331.62 1257.33L1320.99 1275.75L1383.22 1311.69L1393.82 1293.31C1403.54 1296.76 1413.6 1299.47 1423.95 1301.37V1322.61H1495.8V1301.37C1506.15 1299.47 1516.21 1296.76 1525.93 1293.31L1536.54 1311.69L1598.76 1275.75L1588.13 1257.33C1596.04 1250.57 1603.41 1243.2 1610.17 1235.28L1628.58 1245.92L1664.51 1183.67L1646.13 1173.06C1649.58 1163.34 1652.29 1153.27 1654.19 1142.91H1675.42V1071.04H1675.42ZM1577.36 1110.82C1575.4 1172.4 1525.27 1222.55 1463.72 1224.51C1395.76 1226.68 1340.22 1171.12 1342.39 1103.13C1344.35 1041.55 1394.48 991.403 1456.03 989.437C1523.99 987.267 1579.53 1042.83 1577.36 1110.82Z" fill="#F7F1EB"/>
<path d="M1502.42 1318.2H1430.57C1429.35 1318.2 1428.36 1317.21 1428.36 1316V1296.59C1419.26 1294.82 1410.22 1292.4 1401.43 1289.38L1391.74 1306.18C1391.45 1306.68 1390.97 1307.05 1390.4 1307.21C1389.84 1307.36 1389.23 1307.28 1388.73 1306.98L1326.5 1271.04C1325.45 1270.44 1325.09 1269.09 1325.7 1268.03L1335.42 1251.19C1328.43 1245.1 1321.81 1238.49 1315.72 1231.49L1298.89 1241.21C1298.38 1241.5 1297.78 1241.58 1297.21 1241.43C1296.65 1241.28 1296.17 1240.91 1295.87 1240.41L1259.95 1178.16C1259.34 1177.1 1259.71 1175.75 1260.76 1175.15L1277.55 1165.45C1274.53 1156.66 1272.11 1147.61 1270.35 1138.51H1250.94C1249.73 1138.51 1248.74 1137.52 1248.74 1136.3V1064.42C1248.74 1063.2 1249.73 1062.22 1250.94 1062.22H1270.35C1272.11 1053.11 1274.53 1044.07 1277.55 1035.28L1260.76 1025.58C1259.7 1024.97 1259.34 1023.62 1259.95 1022.57L1295.88 960.315C1296.17 959.809 1296.65 959.439 1297.21 959.288C1297.78 959.134 1298.38 959.216 1298.89 959.51L1315.72 969.231C1321.81 962.231 1328.42 955.616 1335.42 949.528L1325.7 932.687C1325.09 931.632 1325.45 930.284 1326.5 929.676L1388.73 893.736C1389.23 893.442 1389.84 893.364 1390.4 893.516C1390.97 893.667 1391.45 894.036 1391.74 894.542L1401.43 911.343C1410.22 908.318 1419.26 905.898 1428.36 904.135V884.724C1428.36 883.506 1429.35 882.52 1430.57 882.52H1502.41C1503.63 882.52 1504.62 883.506 1504.62 884.724V904.135C1513.72 905.897 1522.77 908.317 1531.55 911.343L1541.24 894.542C1541.53 894.036 1542.02 893.667 1542.58 893.516C1543.15 893.362 1543.75 893.443 1544.25 893.736L1606.48 929.676C1607.53 930.284 1607.89 931.632 1607.28 932.687L1597.56 949.528C1604.56 955.618 1611.17 962.235 1617.26 969.231L1634.09 959.51C1634.6 959.216 1635.2 959.136 1635.77 959.288C1636.33 959.439 1636.81 959.809 1637.11 960.315L1673.03 1022.57C1673.64 1023.62 1673.28 1024.97 1672.22 1025.58L1655.43 1035.28C1658.46 1044.07 1660.87 1053.12 1662.63 1062.22H1682.04C1683.25 1062.22 1684.24 1063.2 1684.24 1064.42V1136.3C1684.24 1137.52 1683.25 1138.51 1682.04 1138.51H1662.63C1660.87 1147.61 1658.46 1156.65 1655.43 1165.45L1672.22 1175.15C1673.28 1175.75 1673.64 1177.1 1673.03 1178.16L1637.11 1240.41C1636.81 1240.91 1636.33 1241.28 1635.77 1241.43C1635.2 1241.58 1634.6 1241.5 1634.09 1241.21L1617.26 1231.49C1611.17 1238.49 1604.56 1245.1 1597.56 1251.19L1607.28 1268.03C1607.89 1269.09 1607.53 1270.44 1606.48 1271.04L1544.25 1306.98C1543.75 1307.28 1543.15 1307.36 1542.58 1307.21C1542.02 1307.05 1541.53 1306.68 1541.24 1306.18L1531.55 1289.38C1522.77 1292.4 1513.72 1294.82 1504.62 1296.59V1316C1504.62 1317.21 1503.63 1318.2 1502.42 1318.2ZM1432.77 1313.79H1500.21V1294.76C1500.21 1293.69 1500.97 1292.78 1502.02 1292.59C1512.1 1290.74 1522.13 1288.05 1531.81 1284.62C1532.81 1284.26 1533.92 1284.67 1534.45 1285.59L1543.96 1302.06L1602.36 1268.33L1592.83 1251.82C1592.3 1250.9 1592.5 1249.73 1593.31 1249.04C1601.11 1242.37 1608.44 1235.04 1615.1 1227.23C1615.79 1226.43 1616.97 1226.22 1617.88 1226.76L1634.39 1236.29L1668.11 1177.86L1651.65 1168.35C1650.73 1167.82 1650.31 1166.71 1650.67 1165.7C1654.11 1156.01 1656.79 1145.98 1658.64 1135.9C1658.83 1134.85 1659.74 1134.09 1660.81 1134.09H1679.83V1066.63H1660.81C1659.74 1066.63 1658.83 1065.87 1658.64 1064.82C1656.79 1054.74 1654.11 1044.71 1650.67 1035.01C1650.32 1034.01 1650.73 1032.9 1651.65 1032.37L1668.11 1022.86L1634.39 964.428L1617.88 973.962C1616.97 974.497 1615.8 974.293 1615.11 973.484C1608.44 965.682 1601.11 958.346 1593.31 951.681C1592.5 950.991 1592.3 949.822 1592.83 948.901L1602.36 932.39L1543.96 898.656L1534.45 915.127C1533.92 916.047 1532.81 916.46 1531.81 916.103C1522.13 912.668 1512.1 909.984 1502.02 908.13C1500.97 907.938 1500.21 907.027 1500.21 905.963V886.928H1432.77V905.963C1432.77 907.027 1432.01 907.939 1430.97 908.13C1420.88 909.984 1410.86 912.668 1401.17 916.103C1400.18 916.461 1399.06 916.047 1398.53 915.127L1389.02 898.656L1330.62 932.388L1340.15 948.902C1340.68 949.822 1340.48 950.992 1339.67 951.682C1331.88 958.344 1324.54 965.679 1317.88 973.485C1317.19 974.292 1316.02 974.497 1315.1 973.963L1298.59 964.429L1264.87 1022.86L1281.34 1032.37C1282.26 1032.9 1282.67 1034.01 1282.31 1035.01C1278.88 1044.71 1276.19 1054.74 1274.34 1064.82C1274.15 1065.87 1273.24 1066.63 1272.17 1066.63H1253.15V1134.1H1272.17C1273.24 1134.1 1274.15 1134.86 1274.34 1135.9C1276.2 1145.99 1278.88 1156.01 1282.31 1165.71C1282.67 1166.71 1282.26 1167.82 1281.34 1168.35L1264.87 1177.86L1298.59 1236.29L1315.1 1226.76C1316.02 1226.22 1317.19 1226.43 1317.88 1227.23C1324.54 1235.04 1331.88 1242.38 1339.67 1249.04C1340.48 1249.73 1340.68 1250.9 1340.15 1251.82L1330.62 1268.33L1389.02 1302.07L1398.53 1285.59C1399.06 1284.67 1400.17 1284.26 1401.17 1284.62C1410.86 1288.05 1420.88 1290.74 1430.97 1292.59C1432.01 1292.78 1432.77 1293.7 1432.77 1294.76V1313.79ZM1466.43 1220.17C1434.44 1220.17 1404.54 1207.8 1381.83 1185.09C1358.17 1161.43 1345.73 1129.95 1346.8 1096.44C1348.81 1033.5 1399.66 982.629 1462.57 980.619C1496.01 979.56 1527.5 991.981 1551.15 1015.63C1574.81 1039.29 1587.25 1070.77 1586.18 1104.28C1584.17 1167.22 1533.32 1218.09 1470.41 1220.1C1469.08 1220.14 1467.75 1220.17 1466.43 1220.17ZM1466.55 984.965C1465.27 984.965 1463.99 984.985 1462.71 985.026C1402.12 986.962 1353.14 1035.96 1351.21 1096.58C1350.18 1128.86 1362.16 1159.19 1384.95 1181.98C1407.72 1204.75 1438.03 1216.73 1470.27 1215.69C1530.86 1213.76 1579.84 1164.76 1581.77 1104.14C1582.8 1071.86 1570.82 1041.53 1548.03 1018.74C1526.16 996.877 1497.35 984.965 1466.55 984.965Z" fill="#004761"/>
<path d="M1459.88 1262.61C1372 1262.61 1300.5 1191.09 1300.5 1103.17C1300.5 1064.76 1314.35 1027.65 1339.49 998.682C1364.39 970.003 1398.66 951.118 1436.01 945.508C1437.21 945.326 1438.34 946.154 1438.52 947.361C1438.7 948.565 1437.87 949.688 1436.66 949.868C1361.55 961.153 1304.91 1027.06 1304.91 1103.17C1304.91 1188.66 1374.43 1258.2 1459.87 1258.2C1530.48 1258.2 1592.16 1210.52 1609.88 1142.24C1610.18 1141.06 1611.39 1140.35 1612.57 1140.66C1613.74 1140.97 1614.45 1142.17 1614.15 1143.35C1595.93 1213.57 1532.49 1262.61 1459.88 1262.61Z" fill="#F2E6DC"/>
<path d="M957.869 902.495C957.814 902.495 957.759 902.493 957.704 902.489L867.947 895.838C866.733 895.749 865.821 894.691 865.911 893.477L869.155 849.699C869.244 848.484 870.303 847.557 871.516 847.663C872.73 847.752 873.642 848.809 873.552 850.024L870.472 891.603L958.03 898.092C959.244 898.181 960.156 899.239 960.066 900.453C959.981 901.612 959.013 902.495 957.869 902.495Z" fill="#004761"/>
<path d="M885.131 666.195C885.076 666.195 885.021 666.193 884.966 666.189C883.752 666.1 882.84 665.043 882.93 663.828L931.932 2.58615C931.975 2.00315 932.247 1.46016 932.691 1.07916C933.134 0.698158 933.715 0.506136 934.293 0.550136L1260.73 24.7422C1261.94 24.8312 1262.86 25.8891 1262.77 27.1031L1252.51 165.493C1252.42 166.708 1251.34 167.622 1250.15 167.529C1248.94 167.44 1248.02 166.382 1248.11 165.168L1258.21 28.9762L936.167 5.11114L887.327 664.154C887.242 665.312 886.274 666.195 885.131 666.195Z" fill="#004761"/>
<path d="M1214.76 71.2357L973.014 53.3223L960.85 217.475L1202.6 235.388L1214.76 71.2357Z" fill="#004761"/>
<path d="M1188.76 423.581C1188.7 423.581 1188.65 423.579 1188.59 423.575L946.856 405.661C946.273 405.618 945.73 405.346 945.349 404.902C944.967 404.459 944.776 403.882 944.82 403.3L956.985 239.154C957.074 237.938 958.15 237.027 959.346 237.118L1201.08 255.032C1201.67 255.075 1202.21 255.347 1202.59 255.791C1202.97 256.233 1203.16 256.81 1203.12 257.393L1190.96 421.539C1190.87 422.698 1189.9 423.581 1188.76 423.581ZM949.381 401.426L1186.72 419.014L1198.56 259.266L961.22 241.678L949.381 401.426Z" fill="#076E94"/>
<path d="M1187.19 443.251L945.445 425.338L933.282 589.489L1175.03 607.403L1187.19 443.251Z" fill="white"/>
<path d="M959.582 835.348C959.174 835.348 958.762 835.235 958.393 834.998L877.351 782.972C876.326 782.314 876.029 780.95 876.687 779.926L912.96 723.423C913.617 722.397 914.981 722.1 916.006 722.759C917.031 723.417 917.328 724.781 916.67 725.805L881.589 780.453L960.775 831.289C961.8 831.947 962.097 833.311 961.439 834.335C961.018 834.991 960.308 835.348 959.582 835.348Z" fill="#004761"/>
<path d="M1154 960.157C1153.58 960.157 1153.17 960.037 1152.81 959.807L1139.47 951.242C1138.44 950.584 1138.14 949.22 1138.8 948.196C1139.46 947.17 1140.83 946.874 1141.85 947.532L1153.34 954.905L1171.92 925.962C1172.57 924.936 1173.94 924.639 1174.96 925.298C1175.99 925.956 1176.28 927.32 1175.63 928.344L1155.86 959.143C1155.54 959.635 1155.04 959.982 1154.47 960.107C1154.31 960.14 1154.16 960.157 1154 960.157Z" fill="#004761"/>
<path d="M972.302 637.266C971.894 637.266 971.482 637.153 971.113 636.916C970.088 636.258 969.792 634.894 970.45 633.87L1359.29 28.1694C1359.61 27.6764 1360.11 27.3304 1360.68 27.2054C1361.24 27.0774 1361.85 27.1884 1362.34 27.5044L1637.79 204.339C1638.82 204.997 1639.12 206.361 1638.46 207.385L1563.02 324.897C1562.36 325.924 1561 326.219 1559.97 325.561C1558.95 324.903 1558.65 323.539 1559.31 322.515L1633.56 206.858L1361.81 32.4054L974.159 636.25C973.739 636.909 973.028 637.266 972.302 637.266Z" fill="#004761"/>
<path d="M1575.16 223.211L1371.18 92.2656L1282.26 230.774L1486.24 361.719L1575.16 223.211Z" fill="#004761"/>
<path d="M1474.41 380.163L1270.43 249.218L1181.51 387.726L1385.49 518.671L1474.41 380.163Z" fill="#1F6781"/>
<path d="M1373.65 537.115L1169.67 406.17L1080.76 544.678L1284.74 675.623L1373.65 537.115Z" fill="#004761"/>
<path d="M1653.53 334.165L896.92 809.119L1070.95 1086.36L1827.56 611.4L1653.53 334.165Z" fill="white"/>
<path d="M1671.52 711.561C1670.79 711.561 1670.07 711.196 1669.65 710.529C1669.01 709.498 1669.32 708.137 1670.35 707.489L1824.52 610.707L1652.84 337.205L1585.43 379.522C1584.4 380.169 1583.03 379.859 1582.39 378.827C1581.74 377.796 1582.05 376.435 1583.08 375.787L1652.36 332.299C1652.85 331.988 1653.45 331.885 1654.02 332.018C1654.59 332.148 1655.09 332.499 1655.4 332.994L1829.43 610.231C1830.08 611.262 1829.77 612.623 1828.73 613.271L1672.69 711.225C1672.33 711.452 1671.92 711.561 1671.52 711.561Z" fill="#004761"/>
<path d="M1764.74 600.841L1635.86 395.527L1496.44 483.044L1625.33 688.357L1764.74 600.841Z" fill="#004761"/>
<path d="M1606.77 699.999L1477.88 494.686L1338.47 582.201L1467.35 787.515L1606.77 699.999Z" fill="#004761"/>
<path d="M1448.79 799.157L1319.91 593.844L1180.49 681.36L1309.38 886.674L1448.79 799.157Z" fill="#004761"/>
<path d="M867.586 322.302H845.209C843.205 311.39 840.348 300.779 836.716 290.533L856.081 279.348L818.218 213.74L798.81 224.951C791.688 216.61 783.92 208.839 775.582 201.713L786.787 182.296L721.206 144.417L710.026 163.79C699.785 160.156 689.178 157.298 678.271 155.293V132.908H602.545V155.293C591.638 157.298 581.031 160.156 570.789 163.79L559.609 144.417L494.028 182.296L505.233 201.713C496.895 208.838 489.127 216.609 482.005 224.951L462.597 213.74L424.734 279.348L444.098 290.533C440.466 300.778 437.608 311.39 435.605 322.302H413.229V398.059H435.605C437.609 408.971 440.466 419.582 444.098 429.828L424.734 441.013L462.596 506.621L482.005 495.411C489.127 503.752 496.895 511.523 505.233 518.649L494.028 538.066L559.609 575.945L570.789 556.572C581.03 560.206 591.637 563.065 602.545 565.069V587.454H678.271V565.069C689.178 563.064 699.785 560.206 710.026 556.572L721.206 575.945L786.786 538.066L775.581 518.649C783.919 511.524 791.688 503.753 798.81 495.411L818.218 506.621L856.081 441.013L836.717 429.828C840.349 419.582 843.208 408.971 845.211 398.059H867.586L867.586 322.302ZM764.237 364.237C762.167 429.133 709.332 481.989 644.464 484.061C572.833 486.349 514.294 427.785 516.58 356.125C518.65 291.229 571.484 238.373 636.353 236.301C707.983 234.013 766.523 292.576 764.237 364.237Z" fill="#F7F1EB"/>
<path d="M633.907 534.607C541.352 534.607 466.052 459.276 466.052 366.682C466.052 326.226 480.636 287.142 507.119 256.633C533.338 226.428 569.439 206.538 608.772 200.629C609.964 200.445 611.099 201.276 611.279 202.482C611.46 203.686 610.631 204.808 609.426 204.989C530.203 216.892 470.461 286.405 470.461 366.683C470.461 456.846 543.782 530.198 633.906 530.198C708.374 530.198 773.433 479.903 792.119 407.889C792.424 406.71 793.626 406.001 794.806 406.309C795.985 406.615 796.692 407.818 796.386 408.996C777.198 482.953 710.383 534.607 633.907 534.607Z" fill="#F2E6DC"/>
<path d="M148.901 1381.91L1461.19 1381.91L1461.19 386.833L148.901 386.833L148.901 1381.91Z" fill="#076E94"/>
<path d="M1420.02 1260.92L1420.02 428.021L190.073 428.021L190.073 1260.92L1420.02 1260.92Z" fill="white"/>
<path d="M829.788 1316.65C829.839 1303 818.82 1291.9 805.178 1291.85C791.535 1291.8 780.435 1302.82 780.384 1316.47C780.334 1330.12 791.352 1341.22 804.995 1341.27C818.638 1341.32 829.738 1330.3 829.788 1316.65Z" fill="white"/>
<path d="M148.902 1408.88C148.902 1465.84 195.053 1512.01 251.984 1512.01H1627.51C1684.44 1512.01 1730.59 1465.84 1730.59 1408.88H148.902Z" fill="#076E94"/>
<path d="M494.32 1503.53C448.043 1503.53 410.396 1465.87 410.396 1419.57C410.396 1418.35 411.383 1417.37 412.601 1417.37C413.819 1417.37 414.805 1418.35 414.805 1419.57C414.805 1463.44 450.475 1499.12 494.32 1499.12C495.538 1499.12 496.526 1500.11 496.526 1501.33C496.525 1502.54 495.538 1503.53 494.32 1503.53Z" fill="#F2E6DC"/>
<path d="M975.341 1433.26C975.341 1457.46 994.952 1477.08 1019.14 1477.08H1173.35C1197.54 1477.08 1217.15 1457.46 1217.15 1433.26H975.341Z" fill="#F2E6DC"/>
<path d="M1325.22 517.455H630.748V541.85H1325.22V517.455Z" fill="#076E94"/>
<path d="M1325.22 564.059H919.1V833.39H1325.22V564.059Z" fill="#076E94"/>
<path d="M900.089 564.407H630.431V834.178H900.089V564.407Z" fill="#1F6781"/>
<path d="M680.921 772.396C738.805 771.736 796.689 771.076 854.572 770.416C827.956 685.217 811.493 663.773 800.88 665.069C785.549 666.941 781.534 716.382 760.453 718.033C747.781 719.025 742.51 701.686 729.727 701.201C718.734 700.782 702.496 712.845 680.921 772.396Z" fill="white"/>
<path d="M757.738 651.01C757.757 638.622 747.733 628.564 735.35 628.546C722.966 628.527 712.913 638.555 712.894 650.943C712.875 663.331 722.899 673.389 735.282 673.408C747.666 673.426 757.719 663.399 757.738 651.01Z" fill="white"/>
<path d="M1325.22 861.635H630.748V902.79H1325.22V861.635Z" fill="#076E94"/>
<path d="M1325.22 927.374H630.748V1198.99H1325.22V927.374Z" fill="#076E94"/>
<path d="M547.735 517.455H262.862V539.249H547.735V517.455Z" fill="#F2E6DC"/>
<path d="M547.735 574.849H262.862V596.643H547.735V574.849Z" fill="#F2E6DC"/>
<path d="M547.735 635.773H262.862V657.567H547.735V635.773Z" fill="#F2E6DC"/>
<path d="M547.735 693.278H262.862V715.072H547.735V693.278Z" fill="#F2E6DC"/>
<path d="M547.735 750.672H262.862V772.466H547.735V750.672Z" fill="#F2E6DC"/>
<path d="M547.735 811.595H262.862V833.389H547.735V811.595Z" fill="#F2E6DC"/>
<path d="M548.507 860.62H260.14V1198.8H548.507V860.62Z" fill="#076E94"/>
<path d="M631.646 1553.59L570.775 1690.87L811.945 1819.5C811.945 1819.5 835.529 1599.16 631.646 1553.59Z" fill="white"/>
<path d="M674.746 1661.47L764.207 1743.16L833.141 1702.46L759.577 1600.57L674.746 1661.47Z" fill="#BC8271"/>
<path d="M682.261 1825.83H1029.44C1029.44 1825.83 950.25 1714.25 811.945 1662.85L718.257 1709.81C718.257 1709.81 694.499 1768.97 682.261 1825.83Z" fill="#076E94"/>
<path d="M812.818 1727.93C812.318 1727.93 811.817 1727.76 811.405 1727.42C810.47 1726.64 810.347 1725.25 811.128 1724.31L846.905 1681.53C847.688 1680.6 849.079 1680.48 850.011 1681.26C850.946 1682.04 851.069 1683.43 850.288 1684.36L814.511 1727.14C814.074 1727.66 813.448 1727.93 812.818 1727.93Z" fill="#363E44"/>
<path d="M842.331 1741.44C841.831 1741.44 841.33 1741.27 840.917 1740.93C839.983 1740.15 839.859 1738.76 840.64 1737.82L876.417 1695.04C877.2 1694.11 878.592 1693.99 879.523 1694.77C880.457 1695.55 880.581 1696.94 879.8 1697.87L844.023 1740.65C843.587 1741.17 842.962 1741.44 842.331 1741.44Z" fill="#363E44"/>
<path d="M605.331 1329.55L611.385 1563.08C612.17 1562.99 751.03 1639.87 750.06 1633.26C749.418 1628.88 758.052 1438.5 763.98 1309.88C764.788 1292.35 762.416 1275.33 757.392 1259.38L661.55 1275.61L605.331 1329.55Z" fill="#1F6781"/>
<mask id="mask0_1791_7992" style="mask-type:luminance" maskUnits="userSpaceOnUse" x="12" y="1142" width="749" height="297">
<path d="M760.963 1142.41H12.1143V1438.68H760.963V1142.41Z" fill="white"/>
</mask>
<g mask="url(#mask0_1791_7992)">
<path d="M644.164 1160.08C435.63 1124.27 232.673 1193.47 33.8992 1341.45C33.8992 1341.45 19.8912 1434.61 129.454 1460.23C239.017 1485.84 604.474 1296.48 604.474 1296.48L605.331 1329.55L757.392 1259.38C741.505 1208.96 698.837 1169.47 644.164 1160.08Z" fill="#1F6781"/>
</g>
<path d="M386.633 1366.14L682.318 1688.26L785.93 1606.6L621.213 1338.03C621.213 1338.03 567.721 1260.45 496.416 1296.48C425.111 1332.5 386.633 1366.14 386.633 1366.14Z" fill="#1F6781"/>
<path d="M429.113 1381.2C428.28 1381.2 427.482 1380.72 427.111 1379.91C426.601 1378.81 427.083 1377.5 428.189 1376.99L642.702 1277.96C643.807 1277.45 645.119 1277.94 645.627 1279.04C646.137 1280.15 645.655 1281.46 644.549 1281.97L430.036 1380.99C429.737 1381.13 429.423 1381.2 429.113 1381.2Z" fill="#363E44"/>
<path d="M747.652 1546.39C746.909 1546.39 746.185 1546.01 745.769 1545.33L613.205 1328.61C612.57 1327.57 612.896 1326.21 613.935 1325.57C614.977 1324.94 616.333 1325.27 616.967 1326.3L749.531 1543.03C750.166 1544.07 749.84 1545.43 748.801 1546.06C748.441 1546.28 748.044 1546.39 747.652 1546.39Z" fill="#363E44"/>
<path d="M305.993 760.45C305.993 760.45 279.345 764.252 259.904 745.564C240.463 726.876 190.44 715.554 149.669 746.742C68.563 808.783 71.966 700.114 0 738.449V765.243C7.72 762.374 19.932 762.485 35.118 778.411C57.548 801.934 71.844 798.071 75.862 796.223C76.615 795.833 77.028 795.588 77.028 795.588C77.028 795.588 76.631 795.869 75.862 796.223C70.492 799.001 47.601 809.222 29.928 792.038C18.617 781.04 7.908 780.772 0 783.165V892.616C0 892.616 15.559 934.483 64.734 916.75C113.909 899.017 126.536 841.189 177.255 863.395C227.973 885.601 217.184 890.217 264.621 867.494C312.056 844.77 305.993 760.45 305.993 760.45Z" fill="#363E44"/>
<path d="M310.462 904.775C291.073 908.771 261.865 861.923 261.865 861.923L259.951 801.464C271.162 775.967 300.916 764.387 326.409 775.6C351.902 786.813 363.48 816.572 352.269 842.069C352.269 842.069 330.21 900.705 310.462 904.775Z" fill="#BC8271"/>
<path d="M208.861 917.661L263.502 988.523L267.921 935.151L316.113 825.547L260.18 800.945L208.861 917.661Z" fill="#BC8271"/>
<path d="M341.627 851.875C341.627 851.875 348.609 871.136 346.345 874.416C343.643 878.33 328.074 874.594 328.074 874.594C328.074 874.594 341.957 852.059 341.627 851.875Z" fill="#BC8271"/>
<path d="M300.84 831.578C300.84 831.578 310.395 830.82 319.711 834.918C321.693 835.79 310.979 850.008 309.493 848.282C302.956 840.695 300.84 831.578 300.84 831.578Z" fill="white"/>
<mask id="mask1_1791_7992" style="mask-type:luminance" maskUnits="userSpaceOnUse" x="300" y="831" width="40" height="29">
<path d="M300.84 831.578C300.84 831.578 314.894 830.463 325.529 838.247C336.164 846.031 339.354 859.766 339.354 859.766C339.354 859.766 325.3 860.881 314.664 853.097C304.028 845.313 300.84 831.578 300.84 831.578Z" fill="white"/>
</mask>
<g mask="url(#mask1_1791_7992)">
<path d="M320.284 834.684C329.155 831.232 339.144 835.626 342.596 844.498C346.048 853.37 341.655 863.361 332.784 866.813C323.913 870.265 313.924 865.872 310.472 857C307.021 848.127 311.414 838.136 320.284 834.684Z" fill="#363E44"/>
</g>
<path d="M316.006 880.368C312.905 880.368 309.962 878.82 308.235 876.19C306.312 873.261 306.225 869.408 308.012 866.374C308.631 865.327 309.982 864.978 311.032 865.594C312.08 866.213 312.43 867.564 311.812 868.614C310.87 870.211 310.913 872.236 311.921 873.772C312.969 875.365 314.877 876.206 316.773 875.899C317.97 875.712 319.105 876.529 319.295 877.732C319.486 878.935 318.664 880.064 317.462 880.254C316.975 880.33 316.488 880.368 316.006 880.368Z" fill="#363E44"/>
<path d="M295.153 903.326C294.731 903.326 294.305 903.205 293.928 902.952C277.068 891.65 260.349 865.015 259.644 863.887C259 862.853 259.316 861.494 260.348 860.849C261.38 860.205 262.74 860.522 263.386 861.553C263.553 861.822 280.312 888.518 296.382 899.29C297.394 899.968 297.664 901.338 296.986 902.349C296.561 902.984 295.864 903.326 295.153 903.326Z" fill="#363E44"/>
<path d="M238.209 823.178C231.7 808.595 250.301 779.852 271.118 769.004C297.957 755.017 318.478 751.435 341.706 764.847C376.779 785.099 369.548 833.804 369.548 833.804C369.548 833.804 333.231 818.573 320.858 813.778C303.461 807.037 294.148 864.038 274.17 831.522C271.972 827.944 244.386 897.908 214.178 879.438C172.809 854.142 245.116 838.655 238.209 823.178Z" fill="#363E44"/>
<path d="M278.516 848.831C288.044 848.742 295.696 840.945 295.608 831.416C295.519 821.886 287.723 814.232 278.195 814.321C268.667 814.41 261.015 822.207 261.104 831.736C261.192 841.266 268.988 848.92 278.516 848.831Z" fill="#BC8271"/>
<path d="M79.8014 924.261C74.2254 924.261 68.5054 922.962 63.1244 920.389C53.6014 915.836 46.5084 907.946 43.6654 898.741C43.3054 897.578 43.9584 896.343 45.1224 895.984C46.2784 895.627 47.5194 896.276 47.8794 897.441C50.3614 905.473 56.6104 912.387 65.0264 916.411C73.4394 920.432 82.7424 920.954 90.5514 917.845C101.617 913.434 109.42 903.323 116.965 893.546C117.791 892.477 118.613 891.411 119.437 890.356C127.625 879.872 138.967 867.687 154.117 866.516C162.137 865.888 169.718 868.536 177.05 871.086C183.251 873.244 189.108 875.282 195.225 875.533C203.314 875.851 211.562 872.323 217.831 865.816C224.103 859.306 227.337 850.937 226.704 842.853C226.609 841.639 227.517 840.578 228.73 840.482C229.973 840.389 231.005 841.295 231.101 842.508C231.832 851.848 228.153 861.459 221.007 868.875C213.863 876.287 204.389 880.32 195.044 879.938C188.275 879.661 181.831 877.419 175.601 875.251C168.377 872.737 161.554 870.368 154.457 870.912C141.025 871.95 130.543 883.298 122.912 893.07C122.094 894.118 121.277 895.176 120.456 896.239C112.549 906.486 104.371 917.083 92.1834 921.939C88.2934 923.491 84.0904 924.261 79.8014 924.261Z" fill="#363E44"/>
<path d="M107.427 759.761C91.913 759.761 76.322 750.584 69.748 736.405C69.236 735.3 69.716 733.99 70.821 733.478C71.921 732.966 73.236 733.445 73.748 734.551C80.899 749.975 100.026 758.761 116.386 754.134C122.824 752.313 128.524 748.828 134.561 745.138C137.279 743.476 140.09 741.758 142.957 740.219C171.941 724.666 210.402 727.8 236.485 747.843C237.451 748.585 237.632 749.97 236.89 750.936C236.147 751.903 234.762 752.081 233.798 751.34C209.045 732.319 172.549 729.341 145.041 744.105C142.284 745.584 139.527 747.27 136.86 748.9C130.835 752.582 124.606 756.39 117.585 758.376C114.269 759.314 110.85 759.761 107.427 759.761Z" fill="#363E44"/>
<path d="M686.56 1154.96H509.362C497.341 1154.96 487.596 1145.21 487.596 1133.19H686.56V1154.96Z" fill="#363E44"/>
<path d="M687.878 1154.34L741.547 985.442C745.188 973.984 738.852 961.743 727.396 958.101L667.134 1147.75L687.878 1154.34Z" fill="#363E44"/>
<path d="M667.75 1126.3C667.528 1126.3 667.303 1126.26 667.081 1126.19C665.92 1125.83 665.279 1124.59 665.647 1123.43L718.392 957.434C718.761 956.273 720.004 955.634 721.161 956C722.322 956.369 722.963 957.608 722.595 958.769L669.85 1124.76C669.552 1125.7 668.684 1126.3 667.75 1126.3Z" fill="#F2E6DC"/>
<path d="M582.669 1089.97C570.941 1085.53 525.144 1059.32 504.523 1072.7C483.754 1086.17 475.6 1112.2 476.165 1136.87C476.236 1136.94 476.314 1137.02 476.384 1137.09C479.405 1143.23 484.87 1151.94 494.611 1157.75C505.716 1164.38 511.741 1160.89 524.553 1166.07C546.179 1174.81 550.104 1193.95 557.581 1190.44C562.713 1188.03 560.911 1176.77 556.584 1166.94C552.142 1156.84 544.998 1152.17 546.103 1150.74C547.316 1149.16 553.957 1154.84 562.866 1161.15C567.005 1164.08 573.392 1179.09 580.892 1176.83C586.872 1175.02 584.156 1157.76 574.175 1146.2C567.113 1138.03 556.72 1136.43 557.404 1134.58C557.917 1133.2 564.087 1134.3 569.12 1136.83C577.425 1141 584.125 1156.28 590.987 1154.07C597.71 1151.89 595.072 1136.86 586.568 1125.65C579.398 1116.2 567.722 1114.97 568.559 1112.67C569.147 1111.05 574.489 1110.52 585.505 1112.76C594.7 1114.63 611.367 1124.18 614.772 1114.89C617.637 1107.08 600.371 1096.65 582.669 1089.97Z" fill="#BC8271"/>
<path d="M280.891 1105.44C254.88 1114.89 237.578 1140.17 239.358 1167.67C240.525 1185.7 249.925 1204.06 278.469 1214.45C347.969 1239.75 498.672 1137.02 498.672 1137.02L516.202 1069.06C436.94 1067.46 352.488 1079.42 280.891 1105.44Z" fill="#BC8271"/>
<path d="M8.55859 1356.64L333.494 1212.01L284.456 993.642L294.893 945.325L166.778 897.082L145.379 942.41C145.379 942.41 39.4186 1040.75 8.55859 1356.64Z" fill="#004761"/>
<path d="M164.834 983.271L235.365 1015.68L203.564 1124.35C203.564 1124.35 311.154 1085.93 393.558 1068.93L405.561 1218.46L122.989 1283.18C64.3819 1298.49 9.12988 1248.89 18.6629 1189.34C27.6989 1132.9 53.6629 1050.35 116.998 991.01C129.859 978.96 148.797 975.901 164.834 983.271Z" fill="#004761"/>
<path d="M101.281 1288.2C76.0744 1288.2 51.9824 1277.16 35.1594 1257.01C34.3784 1256.08 34.5034 1254.69 35.4384 1253.91C36.3724 1253.13 37.7634 1253.25 38.5444 1254.19C59.1694 1278.88 91.3114 1289.18 122.432 1281.05L188.1 1266.01C189.287 1265.73 190.47 1266.48 190.741 1267.66C191.013 1268.85 190.272 1270.03 189.084 1270.31L123.481 1285.33C116.088 1287.26 108.636 1288.2 101.281 1288.2Z" fill="#363E44"/>
<path d="M200.232 1127.88L216.433 1072.52C216.776 1071.35 218.005 1070.69 219.168 1071.02C220.337 1071.36 221.007 1072.59 220.665 1073.76L206.885 1120.84C219.151 1116.55 257.661 1103.3 301.858 1090.26C303.029 1089.91 304.252 1090.58 304.597 1091.75C304.941 1092.92 304.274 1094.14 303.107 1094.49C249.771 1110.23 204.751 1126.26 204.304 1126.42L200.232 1127.88Z" fill="#363E44"/>
<path d="M223.713 1057.71C223.485 1057.71 223.252 1057.67 223.023 1057.59C221.867 1057.21 221.237 1055.97 221.618 1054.81C235.734 1011.96 183.143 992.317 180.898 991.502C179.754 991.088 179.162 989.824 179.576 988.678C179.992 987.532 181.262 986.944 182.399 987.356C182.989 987.57 241.266 1009.26 225.807 1056.19C225.501 1057.12 224.639 1057.71 223.713 1057.71Z" fill="#363E44"/>
<path d="M539.824 1820.32H3.45401C2.23601 1820.32 1.24902 1819.34 1.24902 1818.12V1438.68C1.24902 1437.46 2.23601 1436.48 3.45401 1436.48H539.824C541.042 1436.48 542.029 1437.46 542.029 1438.68V1818.12C542.029 1819.34 541.041 1820.32 539.824 1820.32ZM5.65903 1815.91H537.619V1440.89H5.65903V1815.91Z" fill="#84524D"/>
<path d="M340.431 1593.36H346.542C347.089 1596.34 347.87 1599.24 348.861 1602.03L343.573 1605.09L353.913 1623L359.213 1619.94C361.158 1622.22 363.279 1624.34 365.557 1626.29L362.497 1631.59L380.407 1641.93L383.46 1636.64C386.257 1637.63 389.154 1638.41 392.132 1638.96V1645.07H412.813V1638.96C415.792 1638.41 418.688 1637.63 421.485 1636.64L424.538 1641.93L442.448 1631.59L439.388 1626.29C441.665 1624.34 443.786 1622.22 445.731 1619.94L451.031 1623L461.371 1605.09L456.083 1602.03C457.075 1599.24 457.855 1596.34 458.402 1593.36H464.513V1572.68H458.402C457.855 1569.7 457.074 1566.8 456.083 1564L461.371 1560.95L451.031 1543.04L445.731 1546.1C443.786 1543.82 441.665 1541.7 439.388 1539.75L442.448 1534.45L424.538 1524.11L421.485 1529.4C418.688 1528.41 415.791 1527.62 412.813 1527.08V1520.97H392.132V1527.08C389.153 1527.62 386.257 1528.41 383.46 1529.4L380.407 1524.11L362.497 1534.45L365.557 1539.75C363.28 1541.7 361.159 1543.82 359.213 1546.1L353.913 1543.04L343.573 1560.95L348.861 1564C347.869 1566.8 347.089 1569.7 346.542 1572.68H340.431V1593.36ZM403.594 1548.76C421.538 1549.33 436.152 1563.95 436.725 1581.9C437.357 1601.71 421.164 1617.91 401.35 1617.28C383.406 1616.7 368.792 1602.09 368.219 1584.14C367.587 1564.32 383.78 1548.13 403.594 1548.76Z" fill="#004761"/>
<path d="M402.472 1630.47C380.857 1630.47 361.971 1615.87 356.548 1594.97C356.242 1593.8 356.95 1592.59 358.127 1592.29C359.311 1591.97 360.509 1592.69 360.815 1593.87C365.735 1612.82 382.865 1626.06 402.472 1626.06C426.201 1626.06 445.506 1606.75 445.506 1583.02C445.506 1561.89 429.777 1543.59 408.92 1540.46C407.715 1540.28 406.886 1539.15 407.067 1537.95C407.248 1536.74 408.384 1535.91 409.574 1536.1C432.573 1539.55 449.915 1559.72 449.915 1583.02C449.916 1609.18 428.633 1630.47 402.472 1630.47Z" fill="#F2E6DC"/>
<path d="M54.8379 1667.12H68.0969C69.2849 1673.59 70.9779 1679.88 73.1299 1685.95L61.6549 1692.57L84.0909 1731.44L95.5919 1724.8C99.8129 1729.74 104.415 1734.34 109.356 1738.57L102.716 1750.07L141.577 1772.51L148.202 1761.03C154.271 1763.18 160.556 1764.88 167.02 1766.07V1779.33H211.893V1766.07C218.356 1764.88 224.642 1763.18 230.71 1761.03L237.335 1772.51L276.197 1750.07L269.557 1738.57C274.498 1734.34 279.101 1729.74 283.321 1724.8L294.822 1731.44L317.258 1692.57L305.783 1685.95C307.935 1679.88 309.629 1673.59 310.816 1667.12H324.075V1622.24H310.816C309.629 1615.78 307.935 1609.49 305.783 1603.42L317.258 1596.8L294.822 1557.93L283.321 1564.57C279.1 1559.63 274.498 1555.02 269.557 1550.8L276.197 1539.3L237.335 1516.86L230.71 1528.34C224.641 1526.18 218.356 1524.49 211.893 1523.3V1510.04H167.02V1523.3C160.557 1524.49 154.271 1526.18 148.202 1528.34L141.577 1516.86L102.715 1539.3L109.355 1550.8C104.414 1555.02 99.8109 1559.63 95.5909 1564.57L84.0899 1557.93L61.6539 1596.8L73.1289 1603.42C70.9769 1609.49 69.2839 1615.78 68.0959 1622.24H54.8369V1667.12H54.8379ZM191.892 1570.35C230.827 1571.59 262.538 1603.31 263.78 1642.25C265.152 1685.25 230.016 1720.39 187.023 1719.02C148.088 1717.78 116.377 1686.06 115.135 1647.12C113.763 1604.12 148.899 1568.98 191.892 1570.35Z" fill="#076E94"/>
<path d="M189.458 1745.07C143.732 1745.07 103.782 1714.19 92.3066 1669.98C92.0006 1668.8 92.7086 1667.6 93.8856 1667.29C95.0656 1666.98 96.2696 1667.69 96.5736 1668.87C107.545 1711.14 145.74 1740.66 189.457 1740.66C242.367 1740.66 285.413 1697.6 285.413 1644.68C285.413 1597.57 250.34 1556.77 203.83 1549.78C202.625 1549.6 201.796 1548.48 201.977 1547.27C202.158 1546.07 203.293 1545.23 204.484 1545.42C253.134 1552.73 289.822 1595.4 289.822 1644.68C289.823 1700.04 244.8 1745.07 189.458 1745.07Z" fill="#F2E6DC"/>
<path d="M362.132 558.312C362.132 514.555 325.815 479.28 281.68 480.985C242.337 482.504 209.992 514.011 207.518 553.305C205.603 583.716 221.272 610.631 245.327 624.902L246.714 649.128C247.868 669.289 264.553 685.047 284.748 685.047C304.942 685.047 321.628 669.289 322.782 649.128L324.169 624.902C346.891 611.42 362.132 586.652 362.132 558.312Z" fill="#004761"/>
<path d="M284.745 707.478C268.95 707.478 256.146 694.674 256.146 678.878V670.505H313.345V678.878C313.345 694.674 300.54 707.478 284.745 707.478Z" fill="#076E94"/>
<path d="M304.095 663.699C304.006 663.699 303.915 663.694 303.825 663.683C302.616 663.535 301.756 662.435 301.903 661.227L313.709 564.629L300.693 572.006C299.927 572.44 298.975 572.376 298.272 571.843L285.621 562.229L272.943 572.369C272.327 572.862 271.493 572.99 270.758 572.698L255.803 566.807L269.822 661.091C270.001 662.296 269.17 663.416 267.965 663.596C266.764 663.766 265.639 662.945 265.46 661.739L250.88 563.682C250.765 562.904 251.073 562.122 251.69 561.632C252.306 561.141 253.137 561.017 253.87 561.307L271.187 568.128L284.21 557.711C284.998 557.079 286.117 557.066 286.921 557.677L299.784 567.452L315.342 558.635C316.066 558.225 316.961 558.256 317.653 558.719C318.345 559.182 318.719 559.995 318.618 560.821L306.281 661.76C306.144 662.88 305.193 663.699 304.095 663.699Z" fill="white"/>
<path d="M1374.83 1646.92L1371.67 1635.26C1366.41 1615.87 1350.96 1600.93 1331.41 1596.31L1212.02 1568.14C1212.02 1568.14 1231.13 1677.38 1326.69 1670.48C1326.69 1670.48 1364.4 1663.19 1374.83 1646.92Z" fill="#1F6781"/>
<path d="M1250.02 1686.62V1704.12C1250.02 1771.45 1304.6 1826.03 1371.92 1826.03C1439.24 1826.03 1493.82 1771.45 1493.82 1704.12V1686.62H1250.02Z" fill="#B77250"/>
<path d="M1099.99 1401.64C1099.99 1401.64 1078.59 1539.96 1162.52 1556.52C1235.1 1570.85 1286.26 1522.81 1285.67 1520.42C1285.67 1520.39 1285.66 1520.37 1285.65 1520.34C1281.46 1503.24 1270.06 1488.79 1254.4 1480.76L1099.99 1401.64Z" fill="#1F6781"/>
<path d="M1330.09 1491.55L1329.88 1472.44C1329.54 1440.69 1346.62 1411.29 1374.38 1395.86L1543.93 1301.61C1543.93 1301.61 1561.87 1476.08 1413.47 1506.69C1413.47 1506.69 1352.96 1511.83 1330.09 1491.55Z" fill="#1F6781"/>
<path d="M1382.99 1601.15L1383.26 1598.49C1385.64 1574.88 1402.22 1555.12 1425.06 1548.67L1525.2 1520.41C1525.2 1520.41 1534.02 1581.69 1464.6 1604.23C1419.38 1618.92 1382.99 1601.15 1382.99 1601.15Z" fill="#1F6781"/>
<path d="M1374.83 1684.09C1374.76 1684.09 1374.68 1684.08 1374.61 1684.08C1373.4 1683.95 1372.51 1682.87 1372.63 1681.66L1379.73 1611.46C1381.66 1592.34 1395.5 1576.38 1414.16 1571.77L1483.24 1554.69C1484.41 1554.39 1485.61 1555.11 1485.91 1556.3C1486.2 1557.48 1485.48 1558.67 1484.3 1558.97L1415.22 1576.05C1398.36 1580.22 1385.86 1594.63 1384.12 1611.91L1377.02 1682.1C1376.91 1683.24 1375.95 1684.09 1374.83 1684.09Z" fill="#004761"/>
<path d="M1341.72 1684.09C1340.56 1684.09 1339.59 1683.19 1339.52 1682.02L1328.47 1501.18C1326.69 1472.13 1343.44 1444.85 1370.15 1433.3L1464.29 1392.55C1465.41 1392.07 1466.71 1392.58 1467.19 1393.7C1467.67 1394.82 1467.16 1396.12 1466.04 1396.6L1371.9 1437.34C1346.89 1448.17 1331.21 1473.71 1332.87 1500.91L1343.92 1681.75C1344 1682.96 1343.07 1684.01 1341.86 1684.08C1341.81 1684.09 1341.76 1684.09 1341.72 1684.09Z" fill="#004761"/>
<path d="M1313.06 1684.09C1312.01 1684.09 1311.08 1683.33 1310.89 1682.25L1284.65 1529.23C1282.1 1514.38 1272.4 1501.78 1258.69 1495.53L1133.46 1438.36C1132.35 1437.86 1131.86 1436.55 1132.37 1435.44C1132.87 1434.33 1134.18 1433.84 1135.29 1434.35L1260.52 1491.51C1275.56 1498.38 1286.2 1512.2 1288.99 1528.48L1315.24 1681.51C1315.45 1682.71 1314.64 1683.85 1313.44 1684.05C1313.31 1684.08 1313.19 1684.09 1313.06 1684.09Z" fill="#004761"/>
<path d="M1402.93 1678.01C1406.13 1657.54 1417.96 1639.43 1435.42 1628.26L1454.27 1616.2L1455.17 1627.06C1457.57 1656.13 1433.36 1680.46 1404.28 1678.13C1403.83 1678.09 1403.38 1678.05 1402.93 1678.01Z" fill="#1F6781"/>
</svg>
