<svg width="500" height="500" viewBox="0 0 500 500" fill="none" xmlns="http://www.w3.org/2000/svg">
<path d="M250.169 483.003C380.291 483.003 485.777 422.101 485.777 346.974C485.777 271.847 380.291 210.945 250.169 210.945C120.046 210.945 14.5605 271.847 14.5605 346.974C14.5605 422.101 120.046 483.003 250.169 483.003Z" fill="#F0F0F0"/>
<path d="M71.2391 395.411L30.5991 371.947C28.3081 370.624 28.3081 368.479 30.5991 367.156L266.988 230.677C269.279 229.354 272.994 229.354 275.286 230.677L315.928 254.14C318.219 255.463 318.219 257.608 315.928 258.93L79.5371 395.411C77.2451 396.734 73.5311 396.734 71.2391 395.411Z" fill="#E0E0E0"/>
<path d="M245.93 405.119L148.326 348.768L270.302 278.477L367.79 334.763L245.93 405.119Z" fill="#E0E0E0"/>
<path d="M380.689 430.247C406.173 430.247 426.832 418.319 426.832 403.606C426.832 388.893 406.173 376.965 380.689 376.965C355.205 376.965 334.546 388.893 334.546 403.606C334.546 418.319 355.205 430.247 380.689 430.247Z" fill="#E0E0E0"/>
<path d="M442.6 371.528C447.602 374.416 447.602 379.098 442.6 381.985C437.598 384.873 429.489 384.873 424.487 381.985C419.485 379.097 419.485 374.415 424.487 371.527C429.489 368.64 437.599 368.64 442.6 371.528Z" fill="#E0E0E0"/>
<path d="M217.32 353.593L252.257 333.392C255.858 331.313 257.658 328.588 257.659 325.863C257.659 323.138 257.674 321.003 257.674 321.003L221.425 300.563C219.504 299.454 217.947 296.757 217.947 294.539V251.464L156.924 286.726L156.922 329.8C156.922 332.018 158.479 334.715 160.4 335.824L191.236 353.592C198.44 357.752 210.118 357.752 217.32 353.593Z" fill="#004761"/>
<g opacity="0.6">
<path d="M217.32 353.593L252.257 333.392C255.858 331.313 257.658 328.588 257.659 325.863C257.659 323.138 257.674 321.003 257.674 321.003L221.425 300.563C219.504 299.454 217.947 296.757 217.947 294.539V251.464L156.924 286.726L156.922 329.8C156.922 332.018 158.479 334.715 160.4 335.824L191.236 353.592C198.44 357.752 210.118 357.752 217.32 353.593Z" fill="black"/>
</g>
<path opacity="0.3" d="M171.575 337.429V342.268L160.391 335.823C158.483 334.719 156.917 332.028 156.917 329.799V286.729L168.543 280.022C168.784 282.974 169.045 286.026 169.286 288.998L161.134 293.717V327.37C161.134 329.599 162.68 332.289 164.608 333.394L171.575 337.429Z" fill="black"/>
<path d="M161.133 327.377C161.133 329.595 162.69 332.292 164.611 333.401L191.233 348.736C198.436 352.894 210.115 352.896 217.318 348.739L252.273 328.54C259.477 324.383 259.478 317.642 252.275 313.483L225.636 298.138C223.715 297.029 222.158 294.332 222.158 292.114L222.157 258.457L161.133 293.719V327.377Z" fill="#004761"/>
<path opacity="0.3" d="M161.133 327.377C161.133 329.595 162.69 332.292 164.611 333.401L191.233 348.736C198.436 352.894 210.115 352.896 217.318 348.739L252.273 328.54C259.477 324.383 259.478 317.642 252.275 313.483L225.636 298.138C223.715 297.029 222.158 294.332 222.158 292.114L222.157 258.457L161.133 293.719V327.377Z" fill="black"/>
<path opacity="0.5" d="M232.719 302.232V302.227L225.635 298.137C223.714 297.028 222.157 294.331 222.157 292.113V258.456L161.132 293.718V327.377C161.132 329.595 162.689 332.292 164.61 333.401L171.571 337.42L232.719 302.232Z" fill="black"/>
<path d="M257.668 321.007C257.668 321.007 257.668 323.135 257.668 325.866C257.668 328.597 255.861 331.307 252.267 333.396L217.324 353.585C213.87 355.593 209.393 356.597 204.875 356.677V351.838C209.393 351.778 213.87 350.734 217.324 348.746L252.267 328.536C255.861 326.469 257.668 323.738 257.668 321.007Z" fill="#004761"/>
<path opacity="0.5" d="M257.668 321.007C257.668 321.007 257.668 323.135 257.668 325.866C257.668 328.597 255.861 331.307 252.267 333.396L217.324 353.585C213.87 355.593 209.393 356.597 204.875 356.677V351.838C209.393 351.778 213.87 350.734 217.324 348.746L252.267 328.536C255.861 326.469 257.668 323.738 257.668 321.007Z" fill="black"/>
<path d="M63.1512 369.212C65.4032 370.512 69.1762 370.442 71.5772 369.056C101.578 351.735 277.577 250.124 307.574 232.806C309.975 231.42 311.92 228.049 311.92 225.277V34.363C311.92 31.591 310.094 28.289 307.842 26.989C305.59 25.689 301.818 25.758 299.417 27.145L63.4232 163.395C61.0222 164.781 59.0762 168.152 59.0762 170.925L59.0732 361.838C59.0732 364.61 60.8992 367.912 63.1512 369.212Z" fill="#004761"/>
<path d="M71.5784 369.051L307.574 232.802C309.975 231.416 311.921 228.045 311.921 225.272V34.3581C311.921 31.5861 309.975 30.4621 307.574 31.8481L71.5814 168.098C69.1804 169.484 67.2344 172.855 67.2344 175.628L67.2314 366.541C67.2314 369.313 69.1774 370.437 71.5784 369.051Z" fill="#004761"/>
<path opacity="0.5" d="M71.5784 369.051L307.574 232.802C309.975 231.416 311.921 228.045 311.921 225.272V34.3581C311.921 31.5861 309.975 30.4621 307.574 31.8481L71.5814 168.098C69.1804 169.484 67.2344 172.855 67.2344 175.628L67.2314 366.541C67.2314 369.313 69.1774 370.437 71.5784 369.051Z" fill="black"/>
<path d="M70.9383 374.013C68.5293 375.077 65.1963 375.037 63.1473 373.852C60.8983 372.547 59.0713 369.254 59.0713 366.463V349.08L67.2233 353.799V371.182C67.2243 373.712 68.8303 374.857 70.9383 374.013Z" fill="#004761"/>
<path opacity="0.5" d="M70.9383 374.013C68.5293 375.077 65.1963 375.037 63.1473 373.852C60.8983 372.547 59.0713 369.254 59.0713 366.463V349.08L67.2233 353.799V371.182C67.2243 373.712 68.8303 374.857 70.9383 374.013Z" fill="black"/>
<path d="M67.2246 353.799L67.2316 371.176C67.2316 373.948 69.1786 375.072 71.5786 373.686L307.575 237.437C309.976 236.051 311.922 232.68 311.922 229.907V212.493L67.2246 353.799Z" fill="#004761"/>
<path opacity="0.3" d="M67.2314 353.762V371.175C67.2314 373.947 69.1784 375.071 71.5784 373.685L307.574 237.436C309.975 236.05 311.921 232.679 311.921 229.906V212.492L67.2314 353.762Z" fill="black"/>
<path d="M75.3857 331.99L75.3877 178.335C75.3877 176.672 76.5557 174.649 77.9957 173.817L301.152 44.978C302.593 44.146 303.761 44.821 303.761 46.484L303.768 200.143C303.768 201.806 302.6 203.829 301.16 204.661L77.9937 333.496C76.5537 334.328 75.3857 333.654 75.3857 331.99Z" fill="#004761"/>
<path d="M75.3857 331.99L75.3877 178.335C75.3877 176.672 76.5557 174.649 77.9957 173.817L301.152 44.978C302.593 44.146 303.761 44.821 303.761 46.484L303.768 200.143C303.768 201.806 302.6 203.829 301.16 204.661L77.9937 333.496C76.5537 334.328 75.3857 333.654 75.3857 331.99Z" fill="#263238"/>
<path opacity="0.7" d="M68.5093 171.327C67.7263 172.692 67.2443 174.238 67.2243 175.624V353.799L59.0723 349.08L59.0773 170.925C59.0773 169.54 59.5743 167.994 60.3573 166.629L68.5093 171.327Z" fill="black"/>
<path opacity="0.3" d="M311.877 33.644C311.569 31.403 309.759 30.591 307.569 31.845L71.5805 168.102C70.3875 168.791 69.3085 169.963 68.5065 171.33L60.3535 166.622C61.1455 165.275 62.2245 164.083 63.4275 163.394L299.418 27.146C301.824 25.758 305.586 25.686 307.848 26.992C309.903 28.174 311.6 31.043 311.877 33.644Z" fill="black"/>
<path d="M93.6072 207.749C92.4862 207.101 91.5762 205.457 91.5762 204.076L91.5732 187.175C91.5732 185.794 92.5452 184.115 93.7412 183.425L315.87 55.165C317.066 54.475 318.944 54.44 320.066 55.088C321.188 55.736 322.097 57.38 322.093 58.759L322.095 75.662C322.099 77.044 321.129 78.721 319.934 79.411L97.8022 207.67C96.6062 208.36 94.7292 208.396 93.6072 207.749Z" fill="#004761"/>
<path opacity="0.4" d="M322.072 58.408C321.922 57.288 321.012 56.878 319.932 57.508L97.8019 185.766C97.2119 186.116 96.6719 186.706 96.2719 187.386L92.2119 185.036C92.6119 184.356 93.1419 183.774 93.7419 183.424L315.872 55.167C317.062 54.477 318.942 54.437 320.062 55.087C321.092 55.688 321.942 57.107 322.072 58.408Z" fill="white"/>
<path d="M97.8023 345.244C97.7723 345.254 97.2523 345.646 96.1013 345.76C95.2103 345.848 94.2813 345.713 93.6113 345.323C92.4813 344.673 91.5813 343.033 91.5813 341.653L91.5713 212.817L95.6413 215.167V343.993C95.6413 344.973 96.1333 345.54 96.8433 345.54C96.9443 345.539 97.3313 345.508 97.8023 345.244Z" fill="#F0F0F0"/>
<path opacity="0.1" d="M96.2713 187.387C95.8813 188.057 95.6413 188.827 95.6413 189.517V215.167L91.5713 212.817L91.5733 187.175C91.5733 187.085 91.5773 187.004 91.5843 186.914C91.6013 186.711 91.6273 186.557 91.6683 186.377C91.7783 185.927 91.9633 185.449 92.2113 185.037L96.2713 187.387Z" fill="black"/>
<path d="M322.093 58.757L322.095 70.327L162.793 162.316C161.603 163.006 160.633 162.446 160.633 161.066V156.686C160.633 155.306 159.663 154.746 158.463 155.436L105.933 185.766C104.733 186.456 103.763 188.136 103.763 189.516V193.896C103.763 195.276 102.793 196.956 101.603 197.646L95.6426 201.086V189.516C95.6426 188.136 96.6126 186.456 97.8026 185.766L319.933 57.507C321.123 56.818 322.093 57.377 322.093 58.757Z" fill="#004761"/>
<path d="M96.8406 345.039C96.2106 345.039 96.1426 344.307 96.1426 343.993V201.375L101.853 198.08C102.55 197.676 103.116 195.875 104.24 191.863C104.832 189.749 105.728 186.553 106.192 186.195L157.766 156.417C158.206 156.647 159.176 158.353 159.763 159.386C161.024 161.605 161.779 162.86 162.633 162.86C162.779 162.86 162.918 162.823 163.045 162.749L321.596 71.194V213.234C321.596 214.438 320.721 215.957 319.686 216.552L97.5526 344.811C97.2946 344.96 97.0496 345.039 96.8406 345.039Z" fill="#FAFAFA"/>
<path d="M321.095 72.06V84.408V213.234C321.095 214.263 320.319 215.611 319.434 216.12L97.3006 344.379C97.0516 344.524 96.8956 344.539 96.8396 344.539C96.6436 344.539 96.6416 344.015 96.6416 343.992V201.664L102.104 198.512C102.968 198.011 103.508 196.328 104.721 191.998C105.262 190.068 106.073 187.173 106.511 186.588L157.698 157.033C158.14 157.543 158.866 158.821 159.327 159.633C160.719 162.082 161.498 163.36 162.631 163.36C162.863 163.36 163.092 163.298 163.292 163.182L321.095 72.06ZM322.095 70.328L162.793 162.317C162.742 162.346 162.688 162.361 162.632 162.361C161.422 162.361 158.965 155.901 157.747 155.901C157.69 155.901 157.636 155.915 157.585 155.945L105.934 185.768C104.734 186.458 102.794 196.958 101.604 197.648L95.6436 201.088V343.994C95.6436 344.973 96.1326 345.541 96.8416 345.541C97.1316 345.541 97.4586 345.446 97.8046 345.246L319.935 216.988C321.135 216.298 322.096 214.616 322.096 213.236V84.408V70.328H322.095Z" fill="#E0E0E0"/>
<path d="M133.639 263.568L163.242 246.476C164.039 246.016 164.685 246.389 164.685 247.309V297.156C164.685 298.076 164.039 299.195 163.242 299.656L133.639 316.747C132.842 317.207 132.196 316.834 132.196 315.914V266.068C132.195 265.147 132.842 264.028 133.639 263.568Z" fill="#F0F0F0"/>
<path d="M139.053 266.694L157.827 255.855C158.624 255.395 159.27 255.722 159.27 256.585C159.27 257.448 158.624 258.521 157.827 258.982L139.052 269.821C138.255 270.281 137.609 269.954 137.609 269.091C137.61 268.227 138.256 267.154 139.053 266.694Z" fill="#E0E0E0"/>
<path d="M137.609 274.78V275.907C137.609 276.459 137.997 276.683 138.475 276.407L139.452 275.843C139.93 275.567 140.318 274.896 140.318 274.343V273.216C140.318 272.664 139.93 272.44 139.452 272.716L138.476 273.28C137.997 273.556 137.609 274.228 137.609 274.78Z" fill="#004761"/>
<path d="M143.025 272.217C143.025 273.08 143.671 273.407 144.468 272.947L157.827 265.234C158.624 264.774 159.27 263.701 159.27 262.838C159.27 261.975 158.624 261.648 157.827 262.108L144.468 269.821C143.671 270.28 143.025 271.353 143.025 272.217Z" fill="#E0E0E0"/>
<path d="M137.609 281.039V282.166C137.609 282.718 137.997 282.942 138.475 282.666L139.452 282.102C139.93 281.826 140.318 281.154 140.318 280.602V279.475C140.318 278.923 139.93 278.699 139.452 278.975L138.476 279.539C137.997 279.816 137.609 280.487 137.609 281.039Z" fill="#004761"/>
<path d="M143.025 278.476C143.025 279.339 143.671 279.666 144.468 279.206L157.827 271.493C158.624 271.033 159.27 269.96 159.27 269.097C159.27 268.234 158.624 267.907 157.827 268.367L144.468 276.08C143.671 276.54 143.025 277.613 143.025 278.476Z" fill="#E0E0E0"/>
<path d="M137.609 287.288V288.415C137.609 288.967 137.997 289.191 138.475 288.915L139.452 288.351C139.93 288.075 140.318 287.404 140.318 286.851V285.724C140.318 285.172 139.93 284.948 139.452 285.224L138.476 285.788C137.997 286.064 137.609 286.736 137.609 287.288Z" fill="#004761"/>
<path d="M143.025 284.725C143.025 285.588 143.671 285.915 144.468 285.455L157.827 277.742C158.624 277.282 159.27 276.209 159.27 275.346C159.27 274.483 158.624 274.156 157.827 274.616L144.468 282.329C143.671 282.788 143.025 283.861 143.025 284.725Z" fill="#E0E0E0"/>
<path d="M137.609 293.534V294.661C137.609 295.213 137.997 295.437 138.475 295.161L139.452 294.597C139.93 294.321 140.318 293.65 140.318 293.097V291.97C140.318 291.418 139.93 291.194 139.452 291.47L138.476 292.034C137.997 292.31 137.609 292.982 137.609 293.534Z" fill="#004761"/>
<path d="M143.025 290.97C143.025 291.833 143.671 292.16 144.468 291.7L157.827 283.987C158.624 283.527 159.27 282.454 159.27 281.591C159.27 280.728 158.624 280.401 157.827 280.861L144.468 288.573C143.671 289.034 143.025 290.107 143.025 290.97Z" fill="#E0E0E0"/>
<path d="M138.939 301.147L157.713 290.308C158.51 289.848 159.156 290.175 159.156 291.038C159.156 291.901 158.51 292.974 157.713 293.435L138.938 304.274C138.141 304.734 137.495 304.407 137.495 303.544C137.495 302.68 138.142 301.607 138.939 301.147Z" fill="#E0E0E0"/>
<path d="M137.495 309.233V310.36C137.495 310.912 137.883 311.136 138.361 310.86L139.338 310.296C139.816 310.02 140.204 309.348 140.204 308.796V307.669C140.204 307.117 139.816 306.893 139.338 307.169L138.362 307.733C137.882 308.01 137.495 308.681 137.495 309.233Z" fill="#004761"/>
<path d="M142.91 306.67C142.91 307.533 143.556 307.86 144.353 307.4L157.712 299.687C158.509 299.227 159.155 298.154 159.155 297.291C159.155 296.428 158.509 296.101 157.712 296.561L144.353 304.273C143.556 304.734 142.91 305.807 142.91 306.67Z" fill="#E0E0E0"/>
<path d="M311.942 66.013C313.447 65.144 314.666 65.849 314.666 67.586C314.666 69.323 313.446 71.436 311.942 72.305C310.437 73.174 309.218 72.47 309.218 70.732C309.218 68.995 310.438 66.882 311.942 66.013Z" fill="white"/>
<path d="M302.133 71.669C303.638 70.8 304.857 71.505 304.857 73.242C304.857 74.979 303.637 77.092 302.133 77.961C300.628 78.83 299.409 78.125 299.409 76.388C299.409 74.65 300.628 72.537 302.133 71.669Z" fill="white"/>
<path d="M292.325 77.324C293.83 76.455 295.049 77.16 295.049 78.897C295.049 80.634 293.829 82.747 292.325 83.616C290.82 84.485 289.601 83.78 289.601 82.043C289.601 80.305 290.821 78.192 292.325 77.324Z" fill="white"/>
<path d="M322.095 70.328V84.408L95.6426 215.167V201.087L100.094 198.509C101.284 197.819 101.684 196.77 102.254 194.759L103.763 189.517C104.239 187.697 104.733 186.457 105.933 185.767L157.584 155.944C158.784 155.254 159.72 155.178 160.633 156.687L162.485 160.048C163.164 161.222 163.504 161.912 164.694 161.222L322.095 70.328Z" fill="#E6E6E6"/>
<path d="M95.6423 201.087V215.167L91.5723 212.816V198.747L95.6423 201.087Z" fill="#E0E0E0"/>
<path opacity="0.5" d="M105.573 202.102L102.174 204.064L103.47 201.572C103.584 201.353 103.595 201.081 103.496 200.963C103.397 200.844 103.224 200.928 103.111 201.146L101.267 204.693C101.265 204.697 101.264 204.702 101.262 204.707C101.242 204.748 101.226 204.793 101.213 204.838C101.208 204.853 101.201 204.866 101.198 204.881C101.183 204.942 101.174 205.004 101.174 205.064C101.174 205.125 101.183 205.176 101.198 205.22C101.202 205.231 101.209 205.236 101.213 205.246C101.227 205.276 101.242 205.303 101.262 205.32C101.264 205.322 101.265 205.326 101.267 205.328L103.111 206.745C103.163 206.785 103.227 206.782 103.291 206.745C103.367 206.701 103.443 206.609 103.497 206.482C103.597 206.249 103.585 205.99 103.471 205.903L102.175 204.907L105.574 202.945C105.725 202.858 105.847 202.599 105.847 202.366C105.847 202.133 105.724 202.014 105.573 202.102Z" fill="#455A64"/>
<path opacity="0.5" d="M108.412 200.462L111.811 198.5L110.515 197.504C110.401 197.417 110.389 197.157 110.489 196.925C110.588 196.692 110.761 196.576 110.874 196.662L112.718 198.08C112.72 198.082 112.721 198.086 112.723 198.088C112.743 198.105 112.759 198.132 112.772 198.162C112.777 198.171 112.783 198.177 112.787 198.188C112.802 198.231 112.811 198.283 112.811 198.344C112.811 198.405 112.802 198.467 112.787 198.527C112.783 198.542 112.776 198.556 112.772 198.57C112.758 198.616 112.743 198.66 112.723 198.701C112.721 198.705 112.72 198.71 112.718 198.715L110.874 202.262C110.822 202.362 110.758 202.433 110.694 202.47C110.618 202.514 110.542 202.509 110.488 202.445C110.388 202.327 110.4 202.055 110.514 201.836L111.81 199.344L108.411 201.306C108.26 201.393 108.138 201.275 108.138 201.043C108.138 200.809 108.261 200.55 108.412 200.462Z" fill="#455A64"/>
<path opacity="0.5" d="M119.562 190.675C119.541 190.47 119.363 190.496 119.272 190.718L118.806 191.856C118.012 191.77 117.05 192.545 116.401 193.92C115.559 195.702 115.559 197.811 116.401 198.621C116.822 199.026 117.375 199.031 117.928 198.711C118.481 198.392 119.033 197.749 119.454 196.858C119.561 196.632 119.561 196.365 119.454 196.263C119.347 196.16 119.174 196.26 119.067 196.486C118.438 197.815 117.416 198.407 116.787 197.802C116.158 197.197 116.158 195.622 116.787 194.292C117.234 193.345 117.878 192.785 118.439 192.751L118.088 193.609C117.997 193.832 118.08 194.039 118.223 193.946L119.609 193.041C119.706 192.978 119.778 192.801 119.764 192.661L119.562 190.675Z" fill="#455A64"/>
<path opacity="0.5" d="M156.092 162.371L157.331 159.748C157.477 159.438 157.477 159.073 157.331 158.932C157.184 158.791 156.947 158.928 156.801 159.238L155.562 161.861L154.323 160.669C154.177 160.528 153.939 160.665 153.793 160.975C153.647 161.285 153.647 161.65 153.793 161.791L155.032 162.983L153.793 165.606C153.647 165.916 153.647 166.281 153.793 166.422C153.866 166.492 153.962 166.493 154.058 166.438C154.154 166.383 154.25 166.271 154.323 166.116L155.562 163.493L156.801 164.685C156.874 164.755 156.97 164.756 157.066 164.701C157.162 164.646 157.258 164.534 157.331 164.379C157.477 164.069 157.477 163.704 157.331 163.563L156.092 162.371Z" fill="#455A64"/>
<path d="M124.072 193.899V189.518C124.072 188.137 125.041 186.458 126.237 185.768L307.746 81.012C308.942 80.322 309.911 80.881 309.911 82.262V86.643C309.911 88.024 308.942 89.703 307.746 90.393L126.237 195.149C125.041 195.84 124.072 195.28 124.072 193.899Z" fill="#FAFAFA"/>
<path d="M306.483 83.327L307.052 84.535C307.088 84.611 307.157 84.638 307.237 84.608L308.509 84.12C308.711 84.043 308.791 84.327 308.645 84.601L307.725 86.328C307.667 86.437 307.64 86.561 307.654 86.659L307.871 88.222C307.906 88.47 307.694 88.797 307.514 88.774L306.377 88.633C306.305 88.624 306.22 88.674 306.148 88.765L305.011 90.219C304.83 90.45 304.619 90.367 304.654 90.079L304.871 88.265C304.885 88.151 304.858 88.057 304.8 88.015L303.88 87.35C303.734 87.245 303.815 86.867 304.017 86.711L305.288 85.731C305.368 85.669 305.438 85.562 305.474 85.444L306.043 83.579C306.132 83.286 306.393 83.135 306.483 83.327Z" stroke="#E0E0E0" stroke-width="0.75" stroke-miterlimit="10"/>
<g opacity="0.5">
<path d="M312.463 80.478C312.203 80.478 311.951 80.344 311.813 80.103C311.606 79.744 311.729 79.286 312.087 79.079L318.18 75.561C318.54 75.354 318.997 75.477 319.205 75.835C319.412 76.194 319.289 76.652 318.93 76.86L312.837 80.378C312.718 80.445 312.59 80.478 312.463 80.478Z" fill="#455A64"/>
<path d="M312.463 83.997C312.203 83.997 311.951 83.863 311.813 83.622C311.606 83.263 311.729 82.805 312.087 82.598L318.18 79.08C318.54 78.871 318.997 78.996 319.205 79.354C319.412 79.713 319.289 80.171 318.93 80.378L312.837 83.896C312.718 83.964 312.59 83.997 312.463 83.997Z" fill="#455A64"/>
<path d="M312.463 87.516C312.203 87.516 311.951 87.382 311.813 87.141C311.606 86.782 311.729 86.324 312.087 86.117L318.18 82.599C318.54 82.39 318.997 82.515 319.205 82.873C319.412 83.232 319.289 83.69 318.93 83.897L312.837 87.415C312.718 87.483 312.59 87.516 312.463 87.516Z" fill="#455A64"/>
</g>
<path d="M95.6418 215.167L95.6328 229.227L322.068 98.495L322.094 84.408L95.6418 215.167Z" fill="#455A64"/>
<path d="M121.007 206.2V208.919C121.007 209.475 121.401 209.702 121.882 209.424L155.904 189.768V185.028L121.882 204.684C121.401 204.962 121.007 205.645 121.007 206.2Z" fill="#FAFAFA"/>
<path d="M160.503 182.373C160.986 182.094 161.378 182.32 161.378 182.878V185.597C161.378 186.155 160.986 186.834 160.503 187.113L155.905 189.768V185.028L160.503 182.373Z" fill="#004761"/>
<path d="M160.163 186.101L159.65 185.941C159.703 185.723 159.732 185.499 159.732 185.28C159.732 184.755 159.562 184.356 159.265 184.185C159.044 184.058 158.778 184.07 158.517 184.221C157.942 184.553 157.492 185.489 157.492 186.354C157.492 186.879 157.662 187.278 157.96 187.449C158.061 187.507 158.171 187.536 158.285 187.536C158.422 187.536 158.565 187.495 158.707 187.413C159.052 187.213 159.351 186.794 159.535 186.304L160.049 186.464C160.068 186.47 160.087 186.473 160.106 186.473C160.187 186.473 160.262 186.421 160.288 186.339C160.319 186.239 160.263 186.133 160.163 186.101ZM158.517 187.084C158.375 187.166 158.251 187.179 158.15 187.12C157.979 187.021 157.873 186.728 157.873 186.354C157.873 185.638 158.255 184.812 158.708 184.55C158.792 184.502 158.869 184.478 158.938 184.478C158.987 184.478 159.033 184.49 159.075 184.514C159.246 184.613 159.352 184.906 159.352 185.28C159.352 185.997 158.969 186.823 158.517 187.084Z" fill="#FAFAFA"/>
<path d="M115.072 208.631L112.747 209.973C112.269 210.249 111.881 210.921 111.881 211.473V214.163C111.881 214.715 112.269 214.939 112.747 214.663L115.072 213.321C115.55 213.045 115.938 212.373 115.938 211.821V209.13C115.938 208.578 115.55 208.355 115.072 208.631Z" fill="#FAFAFA"/>
<path d="M195.699 160.933C193.985 161.923 192.596 164.329 192.596 166.309C192.596 168.288 193.986 169.091 195.7 168.101C197.414 167.111 198.805 164.705 198.803 162.725C198.801 160.746 197.412 159.943 195.699 160.933Z" fill="#004761"/>
<path d="M195.337 164.09C195.238 164.09 195.145 164.066 195.062 164.018C194.869 163.907 194.763 163.686 194.763 163.397C194.763 162.868 195.122 162.246 195.58 161.982C195.829 161.838 196.073 161.819 196.267 161.93C196.46 162.042 196.566 162.262 196.566 162.551C196.566 163.08 196.207 163.702 195.749 163.966C195.607 164.048 195.467 164.09 195.337 164.09Z" fill="white"/>
<path d="M196.924 164.296C196.619 164.119 196.231 164.149 195.832 164.38L195.381 164.639C194.598 165.092 193.985 166.155 193.985 167.059V167.378C194.427 167.624 195.031 167.582 195.699 167.197C196.366 166.813 196.971 166.156 197.413 165.402V165.325C197.412 164.849 197.235 164.475 196.924 164.296Z" fill="white"/>
<path d="M202.798 158.526L224.053 146.254C224.914 145.757 225.612 146.134 225.612 147.096C225.612 148.058 224.914 149.241 224.053 149.738L202.799 162.01C201.938 162.507 201.24 162.13 201.24 161.168C201.24 160.206 201.937 159.023 202.798 158.526Z" fill="#E0E0E0"/>
<path d="M235.242 139.823L248.426 132.137C249.287 131.64 249.985 132.017 249.985 132.979C249.985 133.941 249.287 135.124 248.427 135.621L235.243 143.307C234.382 143.804 233.684 143.427 233.684 142.465C233.684 141.503 234.381 140.32 235.242 139.823Z" fill="#E0E0E0"/>
<path d="M259.641 125.804L268.736 120.521C269.597 120.024 270.295 120.401 270.295 121.363C270.295 122.325 269.598 123.508 268.737 124.005L259.642 129.288C258.781 129.785 258.083 129.408 258.083 128.446C258.083 127.483 258.78 126.301 259.641 125.804Z" fill="#E0E0E0"/>
<path d="M229.676 147.53C229.469 147.53 229.301 147.362 229.301 147.155V142.465C229.301 142.258 229.469 142.09 229.676 142.09C229.883 142.09 230.051 142.258 230.051 142.465V147.155C230.051 147.362 229.883 147.53 229.676 147.53Z" fill="#263238"/>
<path d="M254.048 133.459C253.841 133.459 253.673 133.291 253.673 133.084V128.394C253.673 128.187 253.841 128.019 254.048 128.019C254.255 128.019 254.423 128.187 254.423 128.394V133.084C254.423 133.291 254.255 133.459 254.048 133.459Z" fill="#263238"/>
<path d="M274.357 121.733C274.15 121.733 273.982 121.565 273.982 121.358V116.668C273.982 116.461 274.15 116.293 274.357 116.293C274.564 116.293 274.732 116.461 274.732 116.668V121.358C274.732 121.565 274.564 121.733 274.357 121.733Z" fill="#263238"/>
<path d="M282.171 114.499V113.637C282.171 112.653 281.573 112.201 280.835 112.627C280.097 113.053 279.499 114.196 279.499 115.18V115.951C279.499 116.436 279.331 116.987 279.049 117.456L279.047 117.459C278.98 117.58 278.938 117.722 278.938 117.853C278.938 118.101 279.089 118.215 279.275 118.107L282.396 116.305C282.582 116.198 282.733 115.91 282.733 115.662C282.733 115.538 282.695 115.448 282.634 115.402C282.632 115.401 282.631 115.4 282.629 115.399C282.353 115.274 282.171 114.963 282.171 114.499Z" fill="#004761"/>
<path d="M281.475 117.103C281.475 117.575 281.188 118.124 280.833 118.329C280.479 118.533 280.191 118.316 280.191 117.844L281.475 117.103Z" fill="#004761"/>
<path d="M287.879 110.719C287.767 110.719 287.663 110.692 287.568 110.638C287.35 110.512 287.231 110.263 287.231 109.937C287.231 109.34 287.636 108.638 288.153 108.34C288.434 108.177 288.709 108.157 288.928 108.282C289.146 108.408 289.266 108.657 289.266 108.983C289.266 109.58 288.861 110.282 288.344 110.58C288.184 110.672 288.026 110.719 287.879 110.719Z" fill="#004761"/>
<path d="M289.672 110.952C289.328 110.753 288.89 110.786 288.439 111.047L287.93 111.339C287.047 111.85 286.354 113.05 286.354 114.07V114.43C286.853 114.707 287.534 114.66 288.288 114.225C289.041 113.792 289.723 113.051 290.222 112.199V112.112C290.222 111.576 290.023 111.154 289.672 110.952Z" fill="#004761"/>
<path d="M290.356 108.404C290.244 108.404 290.14 108.377 290.045 108.323C289.827 108.197 289.708 107.948 289.708 107.622C289.708 107.025 290.113 106.323 290.63 106.025C290.911 105.862 291.186 105.842 291.405 105.967C291.623 106.093 291.743 106.342 291.743 106.668C291.743 107.265 291.338 107.967 290.821 108.265C290.661 108.357 290.503 108.404 290.356 108.404Z" fill="#004761"/>
<path d="M292.151 108.638C291.801 108.438 291.371 108.468 290.911 108.728L290.411 109.028C289.861 109.338 289.391 109.918 289.121 110.548C289.521 110.358 289.911 110.348 290.211 110.528C290.561 110.728 290.761 111.148 290.761 111.688V111.768V111.908C291.521 111.478 292.201 110.738 292.701 109.888V109.798C292.701 109.258 292.501 108.838 292.151 108.638Z" fill="#004761"/>
<path d="M298.326 102.237C296.921 103.048 295.783 105.026 295.783 106.656C295.783 107.356 296.002 107.864 296.353 108.167L296.034 109.675C295.993 109.868 296.122 109.947 296.244 109.805L297.388 108.467C297.679 108.433 297.994 108.33 298.326 108.139C299.73 107.328 300.869 105.35 300.869 103.72C300.869 102.09 299.73 101.427 298.326 102.237Z" fill="#004761"/>
<path d="M310.556 95.1169C310.779 94.9879 310.989 94.914 311.186 94.896C311.384 94.877 311.555 94.91 311.701 94.995C311.846 95.08 311.96 95.2129 312.043 95.3949C312.127 95.5769 312.169 95.805 312.169 96.081C312.169 96.301 312.146 96.508 312.098 96.702C312.05 96.895 311.989 97.08 311.917 97.257C311.843 97.435 311.762 97.602 311.674 97.76C311.587 97.918 311.503 98.0729 311.421 98.2239C311.339 98.3749 311.265 98.527 311.201 98.678C311.135 98.829 311.089 98.9789 311.066 99.1279C311.054 99.2019 311.035 99.2719 311.009 99.3359C310.983 99.3999 310.948 99.444 310.905 99.469L310.176 99.8899C310.131 99.9159 310.093 99.913 310.062 99.883C310.03 99.852 310.014 99.8029 310.014 99.7359C310.014 99.5339 310.041 99.337 310.094 99.147C310.148 98.956 310.215 98.773 310.294 98.595C310.374 98.417 310.461 98.246 310.555 98.082C310.648 97.917 310.735 97.7619 310.814 97.6139C310.894 97.4669 310.961 97.326 311.015 97.19C311.068 97.054 311.095 96.926 311.095 96.803C311.095 96.625 311.051 96.5109 310.963 96.4599C310.876 96.4089 310.741 96.4369 310.557 96.5429C310.378 96.6469 310.25 96.7619 310.172 96.8899C310.094 97.0169 310.037 97.141 310.002 97.259C309.966 97.378 309.935 97.4859 309.909 97.5839C309.883 97.6819 309.832 97.7519 309.757 97.7959L309.027 98.217C308.992 98.238 308.961 98.2369 308.935 98.2149C308.909 98.1929 308.896 98.1519 308.896 98.0899C308.9 97.8729 308.94 97.625 309.015 97.345C309.092 97.065 309.199 96.7849 309.34 96.5039C309.483 96.2229 309.655 95.9589 309.857 95.7139C310.061 95.4669 310.293 95.2689 310.556 95.1169ZM311.076 101.098C311.076 101.165 311.06 101.233 311.028 101.3C310.997 101.367 310.958 101.414 310.915 101.439L310.161 101.874C310.117 101.899 310.08 101.896 310.049 101.866C310.017 101.836 310.001 101.787 310.001 101.719V100.79C310.001 100.723 310.017 100.655 310.049 100.587C310.08 100.52 310.117 100.474 310.161 100.448L310.915 100.013C310.958 99.988 310.997 99.99 311.028 100.021C311.061 100.052 311.076 100.101 311.076 100.168V101.098Z" fill="#004761"/>
<path d="M132.192 215.324V257.216C132.192 258.597 133.161 259.156 134.357 258.466L283.378 172.409C284.574 171.719 285.543 170.04 285.543 168.659V126.766C285.543 125.385 284.574 124.826 283.378 125.516L134.358 211.574C133.162 212.264 132.192 213.943 132.192 215.324Z" fill="#004761"/>
<path opacity="0.7" d="M132.192 215.324V257.216C132.192 258.597 133.161 259.156 134.357 258.466L283.378 172.409C284.574 171.719 285.543 170.04 285.543 168.659V126.766C285.543 125.385 284.574 124.826 283.378 125.516L134.358 211.574C133.162 212.264 132.192 213.943 132.192 215.324Z" fill="white"/>
<path d="M144.376 221.424C139.89 224.016 136.252 230.315 136.252 235.497C136.253 240.678 139.89 242.778 144.377 240.188C148.864 237.597 152.505 231.297 152.501 226.115C152.497 220.934 148.859 218.834 144.376 221.424Z" fill="#004761"/>
<path d="M143.428 229.688C143.168 229.688 142.926 229.626 142.707 229.5C142.202 229.208 141.924 228.631 141.924 227.875C141.924 226.491 142.863 224.863 144.063 224.17C144.715 223.792 145.353 223.743 145.861 224.035C146.366 224.327 146.644 224.904 146.644 225.661C146.644 227.045 145.705 228.673 144.506 229.366C144.135 229.579 143.768 229.688 143.428 229.688Z" fill="white"/>
<path d="M147.586 230.227C146.788 229.765 145.773 229.843 144.726 230.447L143.546 231.126C141.497 232.312 139.891 235.095 139.891 237.46V238.295C141.048 238.938 142.628 238.828 144.377 237.82C146.122 236.815 147.706 235.096 148.863 233.121V232.919C148.863 231.675 148.4 230.696 147.586 230.227Z" fill="white"/>
<path d="M158.123 219.715L175.33 209.78C176.191 209.283 176.889 209.596 176.889 210.478C176.889 211.36 176.191 212.479 175.33 212.976L158.122 222.914C157.261 223.411 156.563 223.098 156.563 222.214C156.564 221.331 157.262 220.212 158.123 219.715Z" fill="#455A64"/>
<path d="M157.48 226.367L167.597 220.525C168.103 220.233 168.514 220.417 168.514 220.936C168.514 221.455 168.104 222.113 167.598 222.405L157.48 228.248C156.974 228.54 156.563 228.356 156.564 227.837C156.564 227.317 156.974 226.659 157.48 226.367Z" fill="#455A64"/>
<path d="M134.357 258.524L283.378 172.467C284.574 171.777 285.543 170.098 285.543 168.717V161.854L132.192 250.391V257.273C132.192 258.655 133.161 259.215 134.357 258.524Z" fill="#F5F5F5"/>
<path d="M172.812 234.293C172.605 234.293 172.437 234.125 172.437 233.918V229.227C172.437 229.02 172.605 228.852 172.812 228.852C173.019 228.852 173.187 229.02 173.187 229.227V233.918C173.187 234.125 173.019 234.293 172.812 234.293Z" fill="#EBEBEB"/>
<path d="M154.638 240.47L167.822 232.784C168.683 232.287 169.381 232.664 169.381 233.626C169.381 234.588 168.684 235.771 167.822 236.268L154.638 243.954C153.777 244.451 153.079 244.074 153.079 243.112C153.08 242.15 153.777 240.967 154.638 240.47Z" fill="#E0E0E0"/>
<path d="M196.62 220.458C196.413 220.458 196.245 220.29 196.245 220.083V215.393C196.245 215.186 196.413 215.018 196.62 215.018C196.827 215.018 196.995 215.186 196.995 215.393V220.083C196.995 220.29 196.827 220.458 196.62 220.458Z" fill="#EBEBEB"/>
<path d="M178.447 226.635L191.631 218.949C192.492 218.452 193.19 218.829 193.19 219.791C193.19 220.753 192.492 221.936 191.631 222.433L178.447 230.119C177.586 230.616 176.888 230.239 176.888 229.277C176.889 228.315 177.586 227.132 178.447 226.635Z" fill="#E0E0E0"/>
<path d="M220.429 206.622C220.222 206.622 220.054 206.454 220.054 206.247V201.557C220.054 201.35 220.222 201.182 220.429 201.182C220.636 201.182 220.804 201.35 220.804 201.557V206.247C220.804 206.454 220.636 206.622 220.429 206.622Z" fill="#EBEBEB"/>
<path d="M202.256 212.799L215.44 205.113C216.301 204.616 216.999 204.993 216.999 205.955C216.999 206.917 216.301 208.1 215.44 208.597L202.256 216.283C201.395 216.78 200.697 216.403 200.697 215.441C200.697 214.48 201.395 213.297 202.256 212.799Z" fill="#E0E0E0"/>
<path d="M244.238 192.787C244.031 192.787 243.863 192.619 243.863 192.412V187.722C243.863 187.515 244.031 187.347 244.238 187.347C244.445 187.347 244.613 187.515 244.613 187.722V192.412C244.613 192.619 244.445 192.787 244.238 192.787Z" fill="#EBEBEB"/>
<path d="M226.065 198.964L239.249 191.278C240.11 190.781 240.808 191.158 240.808 192.12C240.808 193.082 240.11 194.265 239.25 194.762L226.066 202.448C225.205 202.945 224.507 202.568 224.507 201.606C224.506 200.644 225.204 199.461 226.065 198.964Z" fill="#E0E0E0"/>
<path d="M249.874 185.129L263.058 177.443C263.919 176.946 264.617 177.323 264.617 178.285C264.617 179.247 263.92 180.43 263.059 180.927L249.875 188.613C249.014 189.11 248.316 188.733 248.316 187.771C248.315 186.809 249.013 185.626 249.874 185.129Z" fill="#E0E0E0"/>
<path d="M126.957 398.892L140.252 391.233C140.252 391.233 148.5 366.954 146.411 344.594C143.816 316.806 130.696 307.041 122.984 310.141C115.272 313.241 116.869 324.312 125.037 339.158C131.515 350.931 131.53 378.053 126.957 398.892Z" fill="#004761"/>
<path opacity="0.1" d="M126.957 398.892L140.252 391.233C140.252 391.233 148.5 366.954 146.411 344.594C143.816 316.806 130.696 307.041 122.984 310.141C115.272 313.241 116.869 324.312 125.037 339.158C131.515 350.931 131.53 378.053 126.957 398.892Z" fill="black"/>
<path d="M133.346 395.845C133.599 395.845 133.836 395.683 133.919 395.429C142.479 369.219 142.836 332.41 126.638 315.816C126.406 315.577 126.025 315.572 125.786 315.806C125.548 316.038 125.543 316.42 125.776 316.658C141.067 332.323 141.341 368.82 132.772 395.054C132.669 395.371 132.842 395.712 133.158 395.815C133.221 395.835 133.285 395.845 133.346 395.845Z" fill="white"/>
<path d="M103.077 412.677C101.701 413.467 98.8643 411.739 97.7773 411.01C95.9173 409.762 94.4103 407.994 93.4083 405.995C92.2433 403.668 91.9493 401.175 92.3143 398.602C92.5033 397.267 92.8773 395.967 93.2493 394.671C93.6153 393.399 93.9803 392.127 94.3463 390.855C94.7073 389.6 95.0713 388.302 94.9063 387.006C94.5723 384.396 92.2553 382.568 90.1493 380.991C87.8203 379.247 85.3953 376.945 85.4083 373.803C85.4183 371.379 86.6743 369.127 88.1763 367.225C89.6783 365.322 91.4613 363.641 92.8193 361.633C93.7963 360.187 94.5593 358.489 94.4003 356.751C94.3013 355.671 93.8543 354.654 93.3373 353.701C92.2283 351.655 90.7643 349.781 89.9993 347.583C89.2343 345.385 89.3433 342.652 91.0583 341.079C92.4663 339.788 94.5583 339.608 96.4643 339.734C98.2273 339.851 99.9503 340.646 101.492 341.504C106.48 344.278 109.327 350.185 114.62 352.32C116.662 353.143 118.899 353.324 121.027 353.886C123.155 354.449 125.325 355.536 126.311 357.504C128.254 361.385 124.648 366.168 126.014 370.287C127.223 373.933 130.765 375.328 132.755 378.613C133.625 380.05 133.826 381.711 133.686 383.385C133.448 386.219 133.033 388.298 131.674 391.45C130.55 394.054 127.248 398.715 127.248 398.715C127.165 398.796 103.288 412.556 103.077 412.677Z" fill="#004761"/>
<path d="M117.336 404.975C117.603 404.975 117.835 404.776 117.869 404.504C120.439 384.141 110.719 356.674 96.2022 343.275C95.9842 343.075 95.6442 343.086 95.4422 343.306C95.2412 343.524 95.2542 343.864 95.4732 344.066C109.765 357.257 119.333 384.309 116.802 404.37C116.765 404.664 116.973 404.933 117.268 404.97C117.291 404.974 117.314 404.975 117.336 404.975Z" fill="white"/>
<path d="M114.853 378.918C115.017 378.918 115.179 378.844 115.284 378.702C115.463 378.464 115.414 378.127 115.177 377.95C107.166 371.94 94.9242 372.987 94.4072 373.034C94.1112 373.062 93.8942 373.323 93.9212 373.619C93.9482 373.916 94.2182 374.127 94.5062 374.105C94.6292 374.092 106.855 373.05 114.532 378.809C114.627 378.882 114.741 378.918 114.853 378.918Z" fill="white"/>
<path d="M113.646 373.924C113.934 373.924 114.172 373.696 114.183 373.407C114.547 364.079 121.594 358.443 121.665 358.387C121.899 358.204 121.939 357.866 121.756 357.632C121.572 357.399 121.235 357.358 121.001 357.54C120.695 357.78 113.491 363.526 113.108 373.365C113.097 373.662 113.328 373.912 113.624 373.923C113.632 373.923 113.639 373.924 113.646 373.924Z" fill="white"/>
<path d="M245.93 395.738C227.962 385.364 215.696 367.372 212.606 346.856L205.517 299.789C202.786 281.659 192.868 265.394 178.001 254.665L168.749 247.989L168.75 253.267L173.766 256.886C188.602 267.59 198.513 283.807 201.27 301.893L208.496 349.286C211.617 369.754 223.87 387.694 241.801 398.046L245.929 400.429L245.93 395.738Z" fill="#EBEBEB"/>
<path d="M245.93 395.161C228.13 384.786 216.171 367.169 213.1 346.783L206.011 299.716C203.277 281.569 193.175 265.001 178.293 254.261L169.667 248.036L282.455 182.918L291.444 189.405C306.109 199.988 316.065 216.315 318.758 234.198L325.848 281.265C328.935 301.764 340.878 319.504 358.67 330.07L245.93 395.161Z" fill="#FAFAFA"/>
<path d="M282.426 183.513L291.153 189.811C305.71 200.316 315.592 216.522 318.265 234.273L325.354 281.34C328.422 301.707 340.17 319.37 357.687 330.061L245.931 394.583C228.4 384.265 216.627 366.848 213.594 346.708L206.505 299.641C203.751 281.361 193.575 264.673 178.585 253.855L170.586 248.083L282.426 183.513ZM282.487 182.323L168.749 247.989L178.001 254.665C192.868 265.394 202.786 281.659 205.517 299.789L212.606 346.856C215.696 367.372 227.961 385.364 245.929 395.738L359.666 330.072C341.698 319.698 329.433 301.706 326.343 281.19L319.254 234.123C316.523 215.993 306.605 199.728 291.738 188.999L282.487 182.323Z" fill="#E0E0E0"/>
<path d="M245.93 395.738L359.667 330.073L359.666 334.763L245.93 400.429V395.738Z" fill="#F5F5F5"/>
<path d="M190.006 244.457C186.041 246.145 185.616 249.614 189.061 252.206C192.507 254.798 198.515 255.532 202.482 253.844C206.449 252.157 206.877 248.687 203.426 246.095C199.977 243.504 193.968 242.771 190.006 244.457Z" fill="#004761"/>
<path d="M194.298 248.674C193.969 248.697 193.621 248.687 193.259 248.643C192.425 248.541 191.689 248.276 191.186 247.898C190.265 247.205 190.374 246.309 191.435 245.858L191.434 245.857C192.01 245.611 192.787 245.532 193.625 245.633C194.459 245.735 195.196 246 195.698 246.378C196.619 247.071 196.509 247.967 195.45 248.418C195.122 248.559 194.729 248.645 194.298 248.674Z" fill="white"/>
<path d="M199.929 248.582C198.61 248.42 197.375 248.548 196.449 248.941L195.404 249.383C193.595 250.155 193.408 251.687 194.981 252.871L195.536 253.289C197.431 253.51 199.626 253.448 201.192 252.84C202.905 252.176 203.959 251.415 204.113 250.326L203.337 249.817C202.51 249.195 201.273 248.745 199.929 248.582Z" fill="white"/>
<path d="M208.466 237.078L241.867 217.794C243.063 217.104 244.968 217.16 246.056 218.01C246.157 218.089 246.259 218.17 246.362 218.251C247.443 219.11 247.321 220.404 246.126 221.096L212.756 240.425C211.561 241.117 209.759 240.931 208.679 240.071C208.562 239.978 208.444 239.885 208.326 239.793C207.237 238.947 207.27 237.769 208.466 237.078Z" fill="#455A64"/>
<path d="M215.81 244.858L232.526 235.207C233.124 234.862 233.204 234.196 232.704 233.719L232.4 233.429C231.901 232.952 231.013 232.848 230.417 233.197L213.791 242.92C213.195 243.269 213.116 243.938 213.614 244.416L213.824 244.618C214.324 245.095 215.212 245.203 215.81 244.858Z" fill="#455A64"/>
<path opacity="0.2" d="M204.882 263.186L295.031 211.137C296.227 210.447 297.864 210.786 298.644 211.925C298.706 212.015 298.767 212.105 298.828 212.195C299.603 213.338 299.222 214.851 298.026 215.542L207.856 267.63C206.661 268.321 205.108 267.925 204.343 266.775C204.279 266.678 204.214 266.581 204.149 266.485C203.378 265.34 203.686 263.877 204.882 263.186Z" fill="black"/>
<path opacity="0.2" d="M210.35 272.073L300.572 219.981C301.768 219.291 303.263 219.718 303.857 220.965C303.904 221.063 303.95 221.161 303.996 221.259C304.584 222.508 304.054 224.098 302.859 224.789L212.622 276.928C211.427 277.619 210.029 277.143 209.446 275.892C209.395 275.783 209.344 275.674 209.292 275.565C208.702 274.317 209.154 272.764 210.35 272.073Z" fill="black"/>
<path opacity="0.2" d="M214.411 281.719L304.706 229.593C305.902 228.903 307.243 229.4 307.635 230.724C307.678 230.87 307.721 231.017 307.765 231.166C308.149 232.492 307.46 234.135 306.264 234.826L215.947 286.995C214.751 287.686 213.517 287.158 213.139 285.83C213.093 285.67 213.047 285.51 213.001 285.351C212.613 284.027 213.216 282.409 214.411 281.719Z" fill="black"/>
<path opacity="0.2" d="M217.023 292.241L269.506 261.935C270.702 261.245 271.841 261.791 272.05 263.156L272.157 263.856C272.367 265.221 271.567 266.887 270.372 267.578L217.882 297.918C216.687 298.609 215.551 298.063 215.345 296.698C215.308 296.453 215.271 296.209 215.234 295.964C215.028 294.597 215.827 292.931 217.023 292.241Z" fill="black"/>
<path d="M325.543 320.762L239.653 370.361C237.262 371.742 233.913 371.116 232.403 368.804C226.971 360.484 223.344 350.117 221.523 337.711L218.088 314.915C217.677 312.184 219.282 308.851 221.673 307.471L307.713 257.791C310.104 256.41 312.377 257.505 312.788 260.235L316.223 283.041C317.599 294.81 321.184 305.193 326.997 314.172C328.499 316.491 327.935 319.382 325.543 320.762Z" fill="#004761"/>
<path opacity="0.7" d="M325.543 320.762L239.653 370.361C237.262 371.742 233.913 371.116 232.403 368.804C226.971 360.484 223.344 350.117 221.523 337.711L218.088 314.915C217.677 312.184 219.282 308.851 221.673 307.471L307.713 257.791C310.104 256.41 312.377 257.505 312.788 260.235L316.223 283.041C317.599 294.81 321.184 305.193 326.997 314.172C328.499 316.491 327.935 319.382 325.543 320.762Z" fill="white"/>
<path d="M239.652 370.362L325.542 320.763C327.933 319.382 328.497 316.492 326.996 314.174C324.204 309.863 321.941 305.219 320.175 300.262L293.531 292.74L281.7 318.99L294.547 329.325L249.712 305.727L226.775 357.856C228.367 361.827 230.234 365.487 232.402 368.807C233.912 371.117 237.261 371.742 239.652 370.362Z" fill="#004761"/>
<path d="M275.671 287.172C278.83 285.348 281.842 286.86 282.398 290.549C282.954 294.238 280.843 298.708 277.683 300.532C274.523 302.356 271.512 300.844 270.956 297.155C270.4 293.465 272.511 288.996 275.671 287.172Z" fill="#004761"/>
<path d="M301.754 350.152C301.479 350.171 301.188 350.163 300.886 350.126C300.189 350.041 299.574 349.82 299.154 349.504C298.385 348.925 298.477 348.176 299.363 347.799H299.361C299.842 347.593 300.491 347.527 301.192 347.612C301.889 347.697 302.505 347.918 302.925 348.235C303.694 348.814 303.603 349.563 302.717 349.939C302.444 350.056 302.115 350.128 301.754 350.152Z" fill="#004761"/>
<path d="M306.461 350.075C305.359 349.94 304.327 350.046 303.553 350.375L302.68 350.745C301.168 351.39 301.012 352.67 302.326 353.659L302.79 354.008C304.373 354.193 306.207 354.141 307.516 353.633C308.948 353.078 309.828 352.442 309.957 351.533L309.308 351.107C308.617 350.587 307.584 350.212 306.461 350.075Z" fill="#004761"/>
<path d="M308.106 346.309L304.892 346.467L304.016 347.223C303.869 347.35 303.875 347.579 304.027 347.699L304.902 348.385L308.169 348.256L308.106 346.309ZM304.674 347.668C304.544 347.668 304.439 347.563 304.439 347.433C304.439 347.303 304.544 347.198 304.674 347.198C304.804 347.198 304.909 347.303 304.909 347.433C304.909 347.563 304.804 347.668 304.674 347.668Z" fill="#004761"/>
<path d="M324.78 340.613C324.741 341.1 324.152 341.512 323.805 341.714C323.186 342.074 322.395 342.325 321.541 342.443C320.759 341.553 322.217 339.952 324.78 340.613Z" fill="#004761"/>
<path d="M324.905 337.458C322.544 335.511 318.845 334.789 316.238 336.28C313.631 337.772 313.131 340.917 315.518 342.873C317.906 344.83 322.183 344.86 324.763 343.359C327.342 341.858 327.265 339.405 324.905 337.458ZM320.947 337.043C321.362 336.812 321.946 336.92 322.285 337.251C322.624 337.582 322.582 338.024 322.168 338.263C321.754 338.502 321.116 338.449 320.777 338.108C320.437 337.768 320.532 337.274 320.947 337.043ZM316.206 340.678C315.867 340.338 315.962 339.844 316.377 339.613C316.792 339.382 317.376 339.49 317.715 339.821C318.054 340.152 318.012 340.594 317.598 340.833C317.183 341.072 316.545 341.018 316.206 340.678ZM324.053 342.14C323.103 342.693 321.789 343.01 320.448 343.01C319.273 343.01 318.173 342.773 317.295 342.343L324.008 338.546C324.864 339.252 325.325 340.02 325.273 340.654C325.217 341.328 324.579 341.834 324.053 342.14Z" fill="#004761"/>
<path d="M339.006 328.674C338.798 328.331 338.504 327.994 338.119 327.677C336.469 326.316 333.883 325.811 332.061 326.854C330.239 327.897 329.889 330.095 331.558 331.462C331.76 331.62 331.988 331.765 332.227 331.903C332.236 331.908 332.245 331.913 332.255 331.918C335.239 333.625 340.709 333.841 340.709 333.841C340.709 333.841 340.729 331.01 339.006 328.674ZM336.405 330.559C335.543 331.061 334.112 331.051 333.314 330.397C332.516 329.743 332.683 328.691 333.555 328.193C334.427 327.694 335.663 327.936 336.453 328.587C337.242 329.237 337.267 330.057 336.405 330.559Z" fill="#004761"/>
<path d="M447.652 339.229L434.79 376.757C434.416 377.848 432.871 377.843 432.504 376.75L419.809 338.923L447.652 339.229Z" fill="#FFA8A7"/>
<path d="M432.504 376.75C432.871 377.844 434.416 377.848 434.79 376.757L437.301 369.43C435.094 370.614 432.411 370.465 430.349 369.044L429.788 368.658L432.504 376.75Z" fill="#263238"/>
<path d="M420.295 171.575L420.287 175.247L420.258 179.678L419.805 338.919C422.747 342.284 427.107 343.991 431.529 344.436C438.262 345.136 445.166 342.93 447.633 339.226L448.081 180.081L448.104 171.611C447.786 177.095 420.05 177.079 420.295 171.575Z" fill="#004761"/>
<path d="M420.211 185.554L420.202 193.754C420.12 196.131 425.184 197.666 431.029 198.204C438.791 198.939 447.929 196.836 448.043 193.686L448.06 187.642L448.028 185.481C447.915 188.631 438.775 190.74 431.013 190.005C425.413 189.482 420.512 188.027 420.232 185.81L420.231 185.786C420.205 185.713 420.202 185.64 420.211 185.554Z" fill="#EBEBEB"/>
<path d="M420.227 187.6C420.027 193.12 447.85 193.05 448.05 187.53L448.085 179.322C447.885 184.842 420.065 184.911 420.265 179.391L420.227 187.6Z" fill="#004761"/>
<path d="M420.294 171.575L420.257 179.678C420.021 185.096 446.869 185.255 448.081 180.082C448.114 179.995 448.122 179.885 448.13 179.774L448.103 171.612C447.785 177.095 420.049 177.079 420.294 171.575Z" fill="#EBEBEB"/>
<path d="M448.236 136.855C448.236 136.797 448.236 136.569 448.236 136.511C448.236 132.557 442.008 129.352 434.326 129.352C426.644 129.352 420.417 132.557 420.417 136.511V140.239L420.295 171.575C420.188 173.929 425.191 175.478 430.988 176.042C438.751 176.801 447.93 174.752 448.105 171.612C448.117 171.599 448.117 171.599 448.116 171.575L448.238 137.08C448.238 137.029 448.236 136.881 448.236 136.855Z" fill="#F28F8F"/>
<path opacity="0.2" d="M434.326 143.671C442.008 143.671 448.235 140.466 448.235 136.512C448.235 132.558 442.008 129.353 434.326 129.353C426.644 129.353 420.417 132.558 420.417 136.512C420.417 140.466 426.644 143.671 434.326 143.671Z" fill="white"/>
<path opacity="0.1" d="M448.082 180.082L448.235 136.855C448.047 140.242 442.281 143.443 435.983 143.67L435.534 344.565L434.789 376.756L447.651 339.228H447.632L447.633 339.227L448.082 180.082Z" fill="black"/>
<path d="M403.092 213.559C408.377 212.791 414.903 216.769 419.443 223.151C423.983 229.532 439.804 245.06 441.536 250.001C442.799 253.606 442.058 260.369 434.61 257.196C427.396 254.123 404.414 231.571 404.414 231.571L403.092 213.559Z" fill="#B16668"/>
<path d="M400.562 213.559C400.562 213.559 403.913 212.859 405.74 212.981C407.567 213.104 411.679 214.189 415.908 218.308C420.137 222.427 431.117 235.742 431.117 235.742C431.117 235.742 431.608 239.476 427.928 243.646C424.248 247.816 420.814 247.816 420.814 247.816L404.501 234.311L400.562 213.559Z" fill="#37474F"/>
<path d="M436.395 242.674L447.952 225.834L447.987 213.464C447.987 213.464 450.548 214.321 451.566 218.308C452.583 222.295 453.855 226.935 453.347 230.338C452.838 233.741 444.806 254.286 440.485 257.195C436.148 260.113 436.395 242.674 436.395 242.674Z" fill="#B16668"/>
<path d="M384.195 207.973L386.451 222.207L400.561 221.453L398.537 204.911L384.195 207.973Z" fill="#B16668"/>
<path d="M374.704 190.509C374.704 190.509 371.341 195.613 371.724 196.114C372.107 196.615 374.582 197.068 374.582 197.068L374.704 190.509Z" fill="#9A4A4D"/>
<path d="M384.044 176.39C377.238 177.826 375.272 180.818 374.631 191.63C373.961 202.928 375.114 206.479 376.598 208.001C377.6 209.027 383.168 209.213 385.977 208.439C389.493 207.47 397.437 204.654 401.158 198.971C405.534 192.285 406.684 183.223 401.999 179.506C395.405 174.274 386.814 175.806 384.044 176.39Z" fill="#B16668"/>
<path d="M384.318 208.754C384.318 208.754 386.223 208.418 387.903 207.849C387.903 207.849 386.918 209.184 384.486 209.819L384.318 208.754Z" fill="#9A4A4D"/>
<path d="M374.2 179.819C375.085 180.344 376.097 180.722 377.162 181.03C378.822 181.51 378.571 182.135 378.804 183.652C379.011 185.003 379.658 186.32 380.675 187.244C381.32 187.829 381.803 187.883 382.019 188.783C382.236 189.687 382.048 190.695 382.058 191.613C382.079 193.488 383.276 194.915 383.86 192.401C383.86 192.401 384.936 188.225 388.456 188.75C391.999 189.279 392.286 193.242 390.607 196.355C389.586 198.249 386.851 197.753 386.851 197.753C386.851 197.753 386.231 202.958 390.527 207.222C390.527 207.222 394.031 209.82 399.484 207.124C402.665 202.976 403.916 200.783 405.74 197.613C408.183 193.367 410.286 188.153 409.456 183.157C409.151 181.321 408.392 179.552 407.089 178.201C406.142 177.22 406.213 177.033 405.954 175.701C405.738 174.589 405.138 173.545 404.254 172.831C402.888 171.729 400.9 171.459 399.291 172.159C399.288 170.417 397.815 168.916 396.132 168.464C394.45 168.012 392.641 168.43 391.06 169.163C390.153 167.532 388.383 166.415 386.521 166.298C384.659 166.181 382.763 167.069 381.66 168.575C381.194 167.755 380.243 167.298 379.304 167.214C378.364 167.13 377.426 167.367 376.528 167.655C375.783 167.894 375.045 168.172 374.371 168.57C371.888 170.039 370.571 173.236 371.298 176.027C371.771 177.84 372.832 179.007 374.2 179.819Z" fill="#263238"/>
<path d="M406.067 178.692L410.14 176.291C409.477 175.166 408.028 174.792 406.903 175.455C405.779 176.118 405.405 177.567 406.067 178.692Z" fill="#263238"/>
<path d="M409.868 390.08C409.898 390.385 409.929 390.69 409.959 390.995C410.077 392.201 410.196 393.419 410.051 394.623C409.951 395.459 409.709 396.59 408.933 397.049C408.14 397.517 407.169 397.873 406.274 398.089C404.239 398.579 402.005 398.404 400.114 397.485C398.515 396.708 397.263 395.492 395.528 395.007C393.754 394.511 391.914 394.318 390.09 394.11C389.279 394.018 388.462 393.921 387.685 393.669C387.083 393.473 386.514 393.186 385.954 392.891C384.067 391.896 382.204 390.761 380.816 389.141C379.921 388.097 379.244 386.832 378.979 385.476C378.822 384.673 378.496 382.362 379.832 382.422C386.379 382.716 392.862 384.119 399.415 384.042C399.84 384.037 400.267 384.026 400.687 384.094C401.502 384.227 402.224 384.649 402.886 385.123C403.659 385.676 403.939 385.694 404.896 385.614C406.041 385.518 407.162 385.37 408.294 385.664C408.768 385.787 409.28 386.003 409.465 386.456C409.529 386.613 409.545 386.784 409.562 386.952C409.663 387.995 409.766 389.037 409.868 390.08Z" fill="#263238"/>
<path d="M409.197 382.236L408.859 387.172C408.54 389.051 402.137 390.201 400.818 386.876L400.191 381.28L409.197 382.236Z" fill="#B16668"/>
<path d="M384.831 401.756C384.831 401.756 385.615 404.324 386.017 406.563C386.337 408.343 386.787 411.317 386.136 412.635C385.485 413.954 383.046 414.76 379.294 414.647C376.864 414.574 373.039 416.139 370.413 417.528C367.701 418.962 362.117 419.432 359.291 419.036C355.961 418.569 352.545 416.555 352.037 415.16C351.529 413.765 352.278 412.346 360.222 409.17C360.295 409.141 371.241 405.852 375.143 401.736L384.831 401.756Z" fill="#263238"/>
<path d="M384.902 398.587C384.902 398.587 384.842 400.762 384.825 402.005C384.808 403.248 383.298 405.067 379.501 404.846C376.834 404.69 374.987 403.931 375.142 401.735L375.213 398.567L384.902 398.587Z" fill="#B16668"/>
<path d="M411.781 344.334C410.655 334.726 409.813 329.221 409.813 329.221C409.813 329.221 410.007 315.843 410.79 303.367C411.636 289.891 411.447 272.923 411.779 269.565C411.779 269.565 368.486 260.318 368.135 275.929C367.727 294.07 368.935 331.6 369.191 336.486C369.551 343.348 369.566 350.482 370.731 361.616C371.881 372.605 375.213 398.568 375.213 398.568C380.124 401.368 384.901 398.588 384.901 398.588C384.901 398.588 388.667 367.48 388.523 359.57C388.348 349.91 386.88 342.468 386.88 342.468L390.291 307.255C390.291 307.255 391.629 318.142 391.989 325.003C392.349 331.865 393.291 336.052 394.986 348.819C396.457 359.895 400.191 383.273 400.191 383.273C405.102 386.073 409.397 382.905 409.397 382.905C409.397 382.905 412.907 353.941 411.781 344.334Z" fill="#004761"/>
<path opacity="0.3" d="M411.781 344.334C410.655 334.726 409.813 329.221 409.813 329.221C409.813 329.221 410.007 315.843 410.79 303.367C411.636 289.891 411.447 272.923 411.779 269.565C411.779 269.565 368.486 260.318 368.135 275.929C367.727 294.07 368.935 331.6 369.191 336.486C369.551 343.348 369.566 350.482 370.731 361.616C371.881 372.605 375.213 398.568 375.213 398.568C380.124 401.368 384.901 398.588 384.901 398.588C384.901 398.588 388.667 367.48 388.523 359.57C388.348 349.91 386.88 342.468 386.88 342.468L390.291 307.255C390.291 307.255 391.629 318.142 391.989 325.003C392.349 331.865 393.291 336.052 394.986 348.819C396.457 359.895 400.191 383.273 400.191 383.273C405.102 386.073 409.397 382.905 409.397 382.905C409.397 382.905 412.907 353.941 411.781 344.334Z" fill="black"/>
<path opacity="0.15" d="M406.758 290.877C406.758 290.877 403.756 295.826 394.657 299.453L392.125 307.955L391.848 322.893C391.501 318.079 390.969 312.821 390.292 307.254L391.317 298.495C391.317 298.495 401.367 295.45 406.758 290.877Z" fill="black"/>
<path d="M413.446 222.768C411.707 216.58 407.622 213.847 403.091 213.558C401.937 213.485 399.598 213.584 399.598 213.584C399.919 216.205 391.841 218.055 385.558 216.576C383.664 217.073 380.528 217.784 378.951 218.308C374.436 219.807 369.021 225.453 368.318 240.18C368.318 240.18 367.601 271.835 367.824 281.03C378.973 285.735 389.735 286.322 396.233 285.055C409.761 282.417 411.984 276.621 411.984 276.621C411.984 276.621 411.856 268.576 411.352 255.749C413.647 237.507 414.2 225.451 413.446 222.768Z" fill="#455A64"/>
<path d="M360.702 275.231C363.304 277.077 364.446 279.064 364.654 282.274C364.84 285.148 364.837 288.27 366.187 290.877C366.41 291.307 367.586 292.276 368.051 292.141L368.061 288.462C368.809 287.511 370.856 285.737 371.387 284.65C372.273 282.834 371.239 280.611 371.772 278.663C372.005 277.814 372.44 277.149 372.45 276.241C372.474 274.1 371.873 272.067 370.199 270.696C368.236 269.089 366.438 267.091 364.649 265.291C362.331 262.958 359.111 259.529 356.792 257.195L372.364 242.26C374.155 240.542 375.66 238.554 376.804 236.352C379.347 231.455 382.837 222.865 378.952 218.309C373.401 218.309 370.246 219.159 364.58 225.77C359.691 231.474 344.076 250.175 342.07 253.346C340.064 256.517 338.91 258.683 342.76 262.203C345.445 264.658 349.242 267.306 352.581 269.707C355.199 271.589 358.069 273.363 360.702 275.231Z" fill="#B16668"/>
<path d="M356.793 257.195C356.793 257.195 354.661 259.326 352.018 260.466C352.018 260.466 355.639 260.004 357.872 258.291L356.793 257.195Z" fill="#9A4A4D"/>
<path d="M380.689 217.804C380.689 217.804 377.337 217.576 373.968 218.308C370.599 219.04 368.334 220.753 362.488 227.357C356.642 233.96 352.551 239.377 352.551 239.377C352.551 239.377 350.866 243.105 355.559 247.316C360.252 251.527 364.463 250.805 364.463 250.805L377.578 238.051C377.578 238.051 386.928 228.241 380.689 217.804Z" fill="#37474F"/>
</svg>
