<svg width="164" height="62" viewBox="0 0 164 62" fill="none" xmlns="http://www.w3.org/2000/svg">
<rect x="86.9573" y="33.4" width="8" height="4" fill="#35C2C1"/>
<rect x="138.957" y="33.4" width="8" height="4" fill="#35C2C1"/>
<path d="M158.252 40.224C157.01 40.224 155.93 40.026 155.012 39.63C154.094 39.234 153.374 38.685 152.852 37.983C152.33 37.281 152.033 36.489 151.961 35.607H155.579C155.669 35.949 155.822 36.264 156.038 36.552C156.254 36.822 156.542 37.038 156.902 37.2C157.262 37.362 157.694 37.443 158.198 37.443C158.684 37.443 159.08 37.38 159.386 37.254C159.692 37.11 159.917 36.921 160.061 36.687C160.223 36.453 160.304 36.21 160.304 35.958C160.304 35.58 160.196 35.292 159.98 35.094C159.764 34.878 159.449 34.707 159.035 34.581C158.621 34.455 158.117 34.329 157.523 34.203C156.875 34.077 156.236 33.924 155.606 33.744C154.994 33.546 154.445 33.303 153.959 33.015C153.473 32.727 153.086 32.358 152.798 31.908C152.51 31.458 152.366 30.9 152.366 30.234C152.366 29.424 152.582 28.704 153.014 28.074C153.446 27.426 154.076 26.913 154.904 26.535C155.732 26.157 156.731 25.968 157.901 25.968C159.539 25.968 160.835 26.337 161.789 27.075C162.743 27.813 163.31 28.83 163.49 30.126H160.061C159.953 29.712 159.71 29.388 159.332 29.154C158.972 28.902 158.486 28.776 157.874 28.776C157.226 28.776 156.731 28.893 156.389 29.127C156.047 29.361 155.876 29.667 155.876 30.045C155.876 30.297 155.984 30.522 156.2 30.72C156.434 30.918 156.758 31.089 157.172 31.233C157.586 31.359 158.09 31.485 158.684 31.611C159.728 31.827 160.646 32.079 161.438 32.367C162.23 32.637 162.851 33.033 163.301 33.555C163.751 34.059 163.976 34.797 163.976 35.769C163.976 36.633 163.742 37.407 163.274 38.091C162.806 38.757 162.14 39.279 161.276 39.657C160.43 40.035 159.422 40.224 158.252 40.224Z" fill="url(#paint0_linear_40_288)"/>
<path d="M163.489 30.126C163.309 28.83 162.742 27.813 161.788 27.075L159.331 29.154C159.709 29.388 159.952 29.712 160.06 30.126H163.489Z" fill="#35C2C1"/>
<path d="M141.459 40.224C140.325 40.224 139.389 40.044 138.651 39.684C137.913 39.306 137.364 38.811 137.004 38.199C136.662 37.569 136.491 36.876 136.491 36.12C136.491 35.292 136.698 34.563 137.112 33.933C137.544 33.303 138.183 32.808 139.029 32.448C139.893 32.088 140.973 31.908 142.269 31.908H145.644C145.644 31.242 145.554 30.693 145.374 30.261C145.194 29.811 144.915 29.478 144.537 29.262C144.159 29.046 143.655 28.938 143.025 28.938C142.341 28.938 141.756 29.091 141.27 29.397C140.802 29.685 140.514 30.135 140.406 30.747H136.869C136.959 29.775 137.274 28.938 137.814 28.236C138.372 27.516 139.101 26.958 140.001 26.562C140.919 26.166 141.936 25.968 143.052 25.968C144.33 25.968 145.437 26.184 146.373 26.616C147.309 27.048 148.029 27.669 148.533 28.479C149.037 29.289 149.289 30.288 149.289 31.476V39.9H146.211L145.806 37.821C145.608 38.181 145.374 38.505 145.104 38.793C144.834 39.081 144.519 39.333 144.159 39.549C143.799 39.765 143.394 39.927 142.944 40.035C142.494 40.161 141.999 40.224 141.459 40.224ZM142.323 37.416C142.791 37.416 143.205 37.335 143.565 37.173C143.943 36.993 144.267 36.759 144.537 36.471C144.807 36.165 145.014 35.823 145.158 35.445C145.32 35.049 145.428 34.626 145.482 34.176V34.149H142.701C142.143 34.149 141.684 34.221 141.324 34.365C140.982 34.491 140.73 34.68 140.568 34.932C140.406 35.184 140.325 35.472 140.325 35.796C140.325 36.156 140.406 36.453 140.568 36.687C140.73 36.921 140.964 37.101 141.27 37.227C141.576 37.353 141.927 37.416 142.323 37.416Z" fill="url(#paint1_linear_40_288)"/>
<path d="M111.451 39.9V26.292H114.664L114.961 28.101C115.393 27.453 115.96 26.94 116.662 26.562C117.382 26.166 118.201 25.968 119.119 25.968C119.803 25.968 120.415 26.058 120.955 26.238C121.495 26.418 121.972 26.679 122.386 27.021C122.818 27.363 123.169 27.795 123.439 28.317C123.943 27.579 124.6 27.003 125.41 26.589C126.22 26.175 127.102 25.968 128.056 25.968C129.244 25.968 130.234 26.211 131.026 26.697C131.818 27.165 132.412 27.849 132.808 28.749C133.222 29.649 133.429 30.756 133.429 32.07V39.9H129.811V32.394C129.811 31.314 129.595 30.486 129.163 29.91C128.749 29.334 128.101 29.046 127.219 29.046C126.643 29.046 126.13 29.19 125.68 29.478C125.23 29.766 124.879 30.18 124.627 30.72C124.393 31.26 124.276 31.908 124.276 32.664V39.9H120.631V32.394C120.631 31.314 120.415 30.486 119.983 29.91C119.551 29.334 118.885 29.046 117.985 29.046C117.427 29.046 116.923 29.19 116.473 29.478C116.041 29.766 115.699 30.18 115.447 30.72C115.213 31.26 115.096 31.908 115.096 32.664V39.9H111.451Z" fill="url(#paint2_linear_40_288)"/>
<path d="M111.451 39.9H115.096V37.816L111.451 39.9Z" fill="#35C2C1"/>
<path d="M100.403 39.9V26.292H103.643L103.994 28.803C104.318 28.209 104.723 27.705 105.209 27.291C105.713 26.877 106.28 26.553 106.91 26.319C107.558 26.085 108.269 25.968 109.043 25.968V29.829H107.801C107.261 29.829 106.757 29.892 106.289 30.018C105.839 30.144 105.443 30.351 105.101 30.639C104.759 30.909 104.498 31.287 104.318 31.773C104.138 32.259 104.048 32.871 104.048 33.609V39.9H100.403Z" fill="url(#paint3_linear_40_288)"/>
<path d="M109.043 25.968C108.269 25.968 107.558 26.085 106.91 26.319L107.801 29.829H109.043V25.968Z" fill="#35C2C1"/>
<path d="M89.1731 40.224C88.0391 40.224 87.1031 40.044 86.3651 39.684C85.6271 39.306 85.0781 38.811 84.7181 38.199C84.3761 37.569 84.2051 36.876 84.2051 36.12C84.2051 35.292 84.4121 34.563 84.8261 33.933C85.2581 33.303 85.8971 32.808 86.7431 32.448C87.6071 32.088 88.6871 31.908 89.9831 31.908H93.3581C93.3581 31.242 93.2681 30.693 93.0881 30.261C92.9081 29.811 92.6291 29.478 92.2511 29.262C91.8731 29.046 91.3691 28.938 90.7391 28.938C90.0551 28.938 89.4701 29.091 88.9841 29.397C88.5161 29.685 88.2281 30.135 88.1201 30.747H84.5831C84.6731 29.775 84.9881 28.938 85.5281 28.236C86.0861 27.516 86.8151 26.958 87.7151 26.562C88.6331 26.166 89.6501 25.968 90.7661 25.968C92.0441 25.968 93.1511 26.184 94.0871 26.616C95.0231 27.048 95.7431 27.669 96.2471 28.479C96.7511 29.289 97.0031 30.288 97.0031 31.476V39.9H93.9251L93.5201 37.821C93.3221 38.181 93.0881 38.505 92.8181 38.793C92.5481 39.081 92.2331 39.333 91.8731 39.549C91.5131 39.765 91.1081 39.927 90.6581 40.035C90.2081 40.161 89.7131 40.224 89.1731 40.224ZM90.0371 37.416C90.5051 37.416 90.9191 37.335 91.2791 37.173C91.6571 36.993 91.9811 36.759 92.2511 36.471C92.5211 36.165 92.7281 35.823 92.8721 35.445C93.0341 35.049 93.1421 34.626 93.1961 34.176V34.149H90.4151C89.8571 34.149 89.3981 34.221 89.0381 34.365C88.6961 34.491 88.4441 34.68 88.2821 34.932C88.1201 35.184 88.0391 35.472 88.0391 35.796C88.0391 36.156 88.1201 36.453 88.2821 36.687C88.4441 36.921 88.6781 37.101 88.9841 37.227C89.2901 37.353 89.6411 37.416 90.0371 37.416Z" fill="url(#paint4_linear_40_288)"/>
<path d="M68 39.9V21H71.645V28.479L78.476 21H82.958L76.019 28.479L83.174 39.9H78.719L73.4 31.314L71.645 33.204V39.9H68Z" fill="url(#paint5_linear_40_288)"/>
<path d="M82.958 21H78.476L80.575 23.5685L82.958 21Z" fill="#35C2C1"/>
<path fill-rule="evenodd" clip-rule="evenodd" d="M17.2045 28.1059C16.0764 28.1693 15.542 29.3151 12.2074 29.3869L12.132 30.8754L23.9525 30.8445L23.9666 29.4505C21.7664 29.4758 19.4055 29.1374 17.2045 28.1059Z" fill="url(#paint6_angular_40_288)" stroke="#35C2C1" stroke-width="0.33793"/>
<path fill-rule="evenodd" clip-rule="evenodd" d="M17.2045 33.6222C16.0764 33.5588 15.542 32.413 12.2074 32.3412L12.132 30.8527L23.9525 30.8835L23.9666 32.2775C21.7664 32.2523 19.4055 32.5907 17.2045 33.6222Z" fill="url(#paint7_angular_40_288)" stroke="#35C2C1" stroke-width="0.33793"/>
<path fill-rule="evenodd" clip-rule="evenodd" d="M17.0324 28.1808C16.9551 29.8082 16.8232 30.2768 15.7215 30.8432C15.663 30.8597 15.663 30.8685 15.6776 30.8746C15.663 30.8807 15.663 30.8894 15.7215 30.906C16.8232 31.4723 16.9551 31.941 17.0324 33.5684C17.1643 31.9243 17.8315 31.1913 18.3338 30.906C18.3923 30.8894 18.3923 30.8807 18.3777 30.8746C18.3923 30.8685 18.3923 30.8597 18.3338 30.8432C17.8315 30.5579 17.1643 29.8249 17.0324 28.1808Z" fill="url(#paint8_angular_40_288)" stroke="#35C2C1" stroke-width="0.33793"/>
<path fill-rule="evenodd" clip-rule="evenodd" d="M44.7955 28.3778C45.9236 28.4412 46.458 29.587 49.7926 29.6588L49.868 31.1473L38.0475 31.1165L38.0334 29.7225C40.2335 29.7477 42.5944 29.4093 44.7955 28.3778Z" fill="url(#paint9_angular_40_288)" stroke="#35C2C1" stroke-width="0.33793"/>
<path fill-rule="evenodd" clip-rule="evenodd" d="M44.7955 33.8941C45.9236 33.8307 46.458 32.6849 49.7926 32.6131L49.868 31.1246L38.0475 31.1555L38.0334 32.5495C40.2335 32.5242 42.5945 32.8626 44.7955 33.8941Z" fill="url(#paint10_angular_40_288)" stroke="#35C2C1" stroke-width="0.33793"/>
<path fill-rule="evenodd" clip-rule="evenodd" d="M44.9677 28.4536C44.8357 30.0977 44.1686 30.8275 43.6662 31.1129C43.615 31.1274 43.6102 31.1381 43.6192 31.1443L43.6223 31.1474C43.6105 31.1536 43.6114 31.1633 43.6662 31.1788C44.1685 31.4642 44.8357 32.194 44.9677 33.8381C45.0449 32.2107 45.1768 31.7452 46.2785 31.1788C46.3333 31.1633 46.3342 31.1536 46.3224 31.1474C46.3216 31.147 46.3233 31.1447 46.3224 31.1443C46.3342 31.1381 46.3333 31.1284 46.2785 31.1129C45.1768 30.5465 45.0449 30.0811 44.9677 28.4536Z" fill="url(#paint11_angular_40_288)" stroke="#35C2C1" stroke-width="0.33793"/>
<path fill-rule="evenodd" clip-rule="evenodd" d="M28.1059 44.7955C28.1693 45.9236 29.3151 46.458 29.3869 49.7927L30.8754 49.868L30.8445 38.0475L29.4505 38.0334C29.4758 40.2336 29.1374 42.5945 28.1059 44.7955Z" fill="url(#paint12_angular_40_288)" stroke="#35C2C1" stroke-width="0.33793"/>
<path fill-rule="evenodd" clip-rule="evenodd" d="M33.6222 44.7955C33.5588 45.9236 32.413 46.458 32.3412 49.7926L30.8527 49.868L30.8835 38.0475L32.2775 38.0334C32.2523 40.2335 32.5907 42.5945 33.6222 44.7955Z" fill="url(#paint13_angular_40_288)" stroke="#35C2C1" stroke-width="0.33793"/>
<path fill-rule="evenodd" clip-rule="evenodd" d="M30.8621 43.6161C30.8568 43.6216 30.8515 43.637 30.8432 43.6663C30.5578 44.1686 29.8249 44.8357 28.1808 44.9677C29.8082 45.045 30.2768 45.1768 30.8432 46.2786C30.8597 46.337 30.8685 46.3371 30.8746 46.3225C30.8807 46.3371 30.8894 46.337 30.906 46.2786C31.4723 45.1768 31.941 45.045 33.5684 44.9677C31.9243 44.8357 31.1913 44.1686 30.906 43.6663C30.8894 43.6078 30.8807 43.6078 30.8746 43.6224C30.8715 43.6151 30.8674 43.6106 30.8621 43.6161Z" fill="url(#paint14_angular_40_288)" stroke="#35C2C1" stroke-width="0.33793"/>
<path fill-rule="evenodd" clip-rule="evenodd" d="M28.3778 17.2045C28.4412 16.0764 29.587 15.542 29.6588 12.2074L31.1473 12.132L31.1165 23.9525L29.7225 23.9666C29.7477 21.7665 29.4093 19.4056 28.3778 17.2045Z" fill="url(#paint15_angular_40_288)" stroke="#35C2C1" stroke-width="0.33793"/>
<path fill-rule="evenodd" clip-rule="evenodd" d="M33.8941 17.2045C33.8307 16.0764 32.6849 15.542 32.6131 12.2074L31.1246 12.132L31.1555 23.9525L32.5495 23.9666C32.5242 21.7664 32.8626 19.4055 33.8941 17.2045Z" fill="url(#paint16_angular_40_288)" stroke="#35C2C1" stroke-width="0.33793"/>
<path fill-rule="evenodd" clip-rule="evenodd" d="M31.1129 15.7215C30.5465 16.8232 30.0811 16.9551 28.4536 17.0324C30.0977 17.1643 30.8275 17.8315 31.1129 18.3338C31.1294 18.3923 31.1413 18.3923 31.1474 18.3777C31.1535 18.3923 31.1623 18.3923 31.1788 18.3338C31.4642 17.8315 32.194 17.1643 33.8381 17.0324C32.2107 16.9551 31.7452 16.8232 31.1788 15.7215C31.1623 15.663 31.1535 15.663 31.1474 15.6776C31.1261 15.6526 31.1222 15.7098 31.1129 15.7215Z" fill="url(#paint17_angular_40_288)" stroke="#35C2C1" stroke-width="0.33793"/>
<path fill-rule="evenodd" clip-rule="evenodd" d="M19.1986 38.6933C18.4458 39.5358 18.8781 40.7239 16.5709 43.1326L17.5702 44.2384L25.9067 35.8582L24.931 34.8625C23.3931 36.4361 21.4844 37.8663 19.1986 38.6933Z" fill="url(#paint18_angular_40_288)" stroke="#35C2C1" stroke-width="0.33793"/>
<path fill-rule="evenodd" clip-rule="evenodd" d="M23.0993 42.5938C22.2568 43.3467 21.0687 42.9144 18.66 45.2216L17.5542 44.2223L25.9344 35.8857L26.93 36.8615C25.3564 38.3994 23.9262 40.3081 23.0993 42.5938Z" fill="url(#paint19_angular_40_288)" stroke="#35C2C1" stroke-width="0.33793"/>
<path fill-rule="evenodd" clip-rule="evenodd" d="M19.1303 38.8682C20.2265 40.0736 20.4653 40.4985 20.0868 41.678C20.0571 41.731 20.0627 41.7373 20.0774 41.7313C20.0714 41.746 20.0777 41.7516 20.1307 41.7219C21.3102 41.3434 21.732 41.5822 22.9374 42.6784C21.8682 41.4225 21.8244 40.4318 21.9778 39.8748C22.0052 39.8257 21.9995 39.8179 21.9872 39.8215C21.9932 39.8068 21.9869 39.8012 21.9339 39.8309C21.3769 39.9843 20.3862 39.9374 19.1303 38.8682Z" fill="url(#paint20_angular_40_288)" stroke="#35C2C1" stroke-width="0.33793"/>
<path fill-rule="evenodd" clip-rule="evenodd" d="M38.9007 19.3758C39.7432 18.6229 40.9313 19.0552 43.34 16.748L44.4458 17.7473L36.0656 26.0839L35.07 25.1081C36.6436 23.5702 38.0738 21.6615 38.9007 19.3758Z" fill="url(#paint21_angular_40_288)" stroke="#35C2C1" stroke-width="0.33793"/>
<path fill-rule="evenodd" clip-rule="evenodd" d="M42.8013 23.2764C43.5542 22.4339 43.1219 21.2458 45.4291 18.8371L44.4298 17.7313L36.0933 26.1115L37.069 27.1071C38.6069 25.5335 40.5155 24.1033 42.8013 23.2764Z" fill="url(#paint22_angular_40_288)" stroke="#35C2C1" stroke-width="0.33793"/>
<path fill-rule="evenodd" clip-rule="evenodd" d="M39.0751 19.3059C40.1444 20.5618 40.1913 21.5525 40.0379 22.1095C40.0082 22.1625 40.0138 22.1688 40.0285 22.1628C40.0225 22.1774 40.0288 22.1831 40.0818 22.1534C40.6388 22 41.6295 22.0469 42.8854 23.1161C41.7892 21.9107 41.5503 21.4858 41.9289 20.3063C41.9585 20.2533 41.9529 20.247 41.9383 20.253C41.9416 20.2409 41.9336 20.2352 41.885 20.2624C40.7054 20.6409 40.2805 20.402 39.0751 19.3059Z" fill="url(#paint23_angular_40_288)" stroke="#35C2C1" stroke-width="0.33793"/>
<path fill-rule="evenodd" clip-rule="evenodd" d="M38.7085 42.7861C39.5509 43.539 40.739 43.1067 43.1477 45.4139L44.2535 44.4146L35.8733 36.0781L34.8777 37.0538C36.4513 38.5917 37.8815 40.5004 38.7085 42.7861Z" fill="url(#paint24_angular_40_288)" stroke="#35C2C1" stroke-width="0.33793"/>
<path fill-rule="evenodd" clip-rule="evenodd" d="M42.609 38.8856C43.3619 39.728 42.9296 40.9161 45.2368 43.3249L44.2375 44.4307L35.9009 36.0505L36.8767 35.0548C38.4146 36.6284 40.3233 38.0586 42.609 38.8856Z" fill="url(#paint25_angular_40_288)" stroke="#35C2C1" stroke-width="0.33793"/>
<path fill-rule="evenodd" clip-rule="evenodd" d="M42.6941 39.0469C41.4382 40.1161 40.4475 40.1599 39.8905 40.0065C39.8414 39.9791 39.8336 39.9847 39.8372 39.9971C39.8225 39.9911 39.8138 40.0005 39.8435 40.0535C39.9969 40.6105 39.9531 41.5981 38.8839 42.854C40.0893 41.7578 40.511 41.5221 41.6906 41.9006C41.7436 41.9303 41.753 41.9216 41.747 41.9069C41.7594 41.9105 41.7651 41.9027 41.7376 41.8536C41.3591 40.6741 41.5979 40.2523 42.6941 39.0469Z" fill="url(#paint26_angular_40_288)" stroke="#35C2C1" stroke-width="0.33793"/>
<path fill-rule="evenodd" clip-rule="evenodd" d="M19.3909 23.084C18.6381 22.2415 19.0704 21.0535 16.7632 18.6448L17.7625 17.5389L26.099 25.9191L25.1233 26.9148C23.5854 25.3412 21.6767 23.911 19.3909 23.084Z" fill="url(#paint27_angular_40_288)" stroke="#35C2C1" stroke-width="0.33793"/>
<path fill-rule="evenodd" clip-rule="evenodd" d="M23.2916 19.1835C22.4491 18.4306 21.261 18.863 18.8523 16.5558L17.7465 17.555L26.1267 25.8916L27.1223 24.9158C25.5487 23.378 24.1185 21.4693 23.2916 19.1835Z" fill="url(#paint28_angular_40_288)" stroke="#35C2C1" stroke-width="0.33793"/>
<path fill-rule="evenodd" clip-rule="evenodd" d="M23.1318 19.099C21.9264 20.1951 21.5015 20.434 20.322 20.0554C20.269 20.0258 20.2627 20.0314 20.2687 20.046C20.254 20.04 20.2484 20.0463 20.2781 20.0993C20.6566 21.2789 20.4178 21.7037 19.3216 22.9092C20.5775 21.8399 21.5682 21.793 22.1252 21.9464C22.1782 21.9761 22.1845 21.9705 22.1785 21.9558C22.1932 21.9619 22.1988 21.9555 22.1691 21.9025C22.0157 21.3456 22.0626 20.3548 23.1318 19.099Z" fill="url(#paint29_angular_40_288)" stroke="#35C2C1" stroke-width="0.33793"/>
<path fill-rule="evenodd" clip-rule="evenodd" d="M33.1324 3.13972C33.1324 4.31746 32.1777 5.27218 31 5.27218C29.8222 5.27218 28.8675 4.31744 28.8675 3.13972C28.8675 1.96198 29.8222 1.00723 31 1.00723C32.1777 1.00723 33.1324 1.96198 33.1324 3.13972Z" fill="url(#paint30_angular_40_288)" stroke="#35C2C1" stroke-width="0.140848"/>
<path fill-rule="evenodd" clip-rule="evenodd" d="M30.9965 1C30.185 1 29.4841 1.45168 29.1238 2.1194C30.1747 2.25142 30.9894 3.14509 30.9894 4.23145C30.9894 4.5993 30.8933 4.943 30.7289 5.24524C30.8166 5.25624 30.9058 5.25931 30.9965 5.25931C31.0871 5.25931 31.1763 5.25624 31.264 5.24524C31.0997 4.943 31.0035 4.5993 31.0035 4.23145C31.0035 3.14268 31.8219 2.24831 32.8762 2.1194C32.5159 1.4516 31.808 1 30.9965 1Z" fill="url(#paint31_angular_40_288)" stroke="#35C2C1" stroke-width="0.316197"/>
<path fill-rule="evenodd" clip-rule="evenodd" d="M30.993 5.58986C30.993 6.76761 30.0382 7.72233 28.8605 7.72233C27.6827 7.72233 26.728 6.76759 26.728 5.58986C26.728 4.41212 27.6828 3.4574 28.8605 3.4574C30.0382 3.4574 30.993 4.41214 30.993 5.58986Z" fill="url(#paint32_angular_40_288)" stroke="#35C2C1" stroke-width="0.140848"/>
<path fill-rule="evenodd" clip-rule="evenodd" d="M35.272 5.58986C35.272 6.76761 34.3173 7.72233 33.1395 7.72233C31.9618 7.72233 31.007 6.76759 31.007 5.58986C31.007 4.41212 31.9618 3.4574 33.1395 3.4574C34.3173 3.4574 35.272 4.41214 35.272 5.58986Z" fill="url(#paint33_angular_40_288)" stroke="#35C2C1" stroke-width="0.140848"/>
<path fill-rule="evenodd" clip-rule="evenodd" d="M33.1324 58.8603C33.1324 57.6826 32.1777 56.7278 31 56.7278C29.8222 56.7278 28.8675 57.6826 28.8675 58.8603C28.8675 60.0381 29.8222 60.9928 31 60.9928C32.1777 60.9928 33.1324 60.0381 33.1324 58.8603Z" fill="url(#paint34_angular_40_288)" stroke="#35C2C1" stroke-width="0.140848"/>
<path fill-rule="evenodd" clip-rule="evenodd" d="M30.9965 61C30.185 61 29.4841 60.5483 29.1238 59.8806C30.1747 59.7486 30.9894 58.8549 30.9894 57.7685C30.9894 57.4007 30.8933 57.057 30.7289 56.7548C30.8166 56.7438 30.9058 56.7407 30.9965 56.7407C31.0871 56.7407 31.1763 56.7438 31.264 56.7548C31.0997 57.057 31.0035 57.4007 31.0035 57.7685C31.0035 58.8573 31.8219 59.7517 32.8762 59.8806C32.5159 60.5484 31.808 61 30.9965 61Z" fill="url(#paint35_angular_40_288)" stroke="#35C2C1" stroke-width="0.316197"/>
<path fill-rule="evenodd" clip-rule="evenodd" d="M30.993 56.4102C30.993 55.2325 30.0382 54.2777 28.8605 54.2777C27.6827 54.2777 26.728 55.2325 26.728 56.4102C26.728 57.5879 27.6828 58.5426 28.8605 58.5426C30.0382 58.5427 30.993 57.5879 30.993 56.4102Z" fill="url(#paint36_angular_40_288)" stroke="#35C2C1" stroke-width="0.140848"/>
<path fill-rule="evenodd" clip-rule="evenodd" d="M35.272 56.4102C35.272 55.2325 34.3173 54.2777 33.1395 54.2777C31.9618 54.2777 31.007 55.2325 31.007 56.4102C31.007 57.5879 31.9618 58.5426 33.1395 58.5426C34.3173 58.5427 35.272 57.5879 35.272 56.4102Z" fill="url(#paint37_angular_40_288)" stroke="#35C2C1" stroke-width="0.140848"/>
<path fill-rule="evenodd" clip-rule="evenodd" d="M3.13973 28.8675C4.31747 28.8675 5.27219 29.8222 5.27219 31C5.27219 32.1777 4.31745 33.1324 3.13973 33.1324C1.96199 33.1324 1.00726 32.1777 1.00726 31C1.00726 29.8222 1.96199 28.8675 3.13973 28.8675Z" fill="url(#paint38_angular_40_288)" stroke="#35C2C1" stroke-width="0.140848"/>
<path fill-rule="evenodd" clip-rule="evenodd" d="M1 31.0035C1 31.815 1.45168 32.5159 2.1194 32.8762C2.25142 31.8253 3.14509 31.0106 4.23145 31.0106C4.5993 31.0106 4.94298 31.1068 5.24524 31.2711C5.25624 31.1834 5.25933 31.0942 5.25933 31.0035C5.25933 30.9128 5.25626 30.8237 5.24524 30.736C4.943 30.9003 4.5993 30.9965 4.23145 30.9965C3.14268 30.9965 2.24831 30.178 2.1194 29.1238C1.45158 29.4841 1 30.192 1 31.0035Z" fill="url(#paint39_angular_40_288)" stroke="#35C2C1" stroke-width="0.316197"/>
<path fill-rule="evenodd" clip-rule="evenodd" d="M5.58983 31.0071C6.76758 31.0071 7.72232 31.9618 7.72232 33.1396C7.72232 34.3173 6.76758 35.272 5.58983 35.272C4.41209 35.272 3.45737 34.3173 3.45737 33.1396C3.45737 31.9618 4.41211 31.0071 5.58983 31.0071Z" fill="url(#paint40_angular_40_288)" stroke="#35C2C1" stroke-width="0.140848"/>
<path fill-rule="evenodd" clip-rule="evenodd" d="M5.58983 26.728C6.76758 26.728 7.72232 27.6828 7.72232 28.8605C7.72232 30.0383 6.76758 30.993 5.58983 30.993C4.41209 30.993 3.45737 30.0382 3.45737 28.8605C3.45737 27.6828 4.41211 26.728 5.58983 26.728Z" fill="url(#paint41_angular_40_288)" stroke="#35C2C1" stroke-width="0.140848"/>
<path fill-rule="evenodd" clip-rule="evenodd" d="M58.8603 28.8675C57.6826 28.8675 56.7278 29.8222 56.7278 31C56.7278 32.1777 57.6826 33.1324 58.8603 33.1324C60.0381 33.1324 60.9928 32.1777 60.9928 31C60.9928 29.8222 60.0381 28.8675 58.8603 28.8675Z" fill="url(#paint42_angular_40_288)" stroke="#35C2C1" stroke-width="0.140848"/>
<path fill-rule="evenodd" clip-rule="evenodd" d="M61 31.0035C61 31.815 60.5483 32.5159 59.8806 32.8762C59.7486 31.8253 58.8549 31.0106 57.7685 31.0106C57.4007 31.0106 57.057 31.1068 56.7548 31.2711C56.7438 31.1834 56.7407 31.0942 56.7407 31.0035C56.7407 30.9128 56.7438 30.8237 56.7548 30.736C57.057 30.9003 57.4007 30.9965 57.7685 30.9965C58.8573 30.9965 59.7517 30.178 59.8806 29.1238C60.5484 29.4841 61 30.192 61 31.0035Z" fill="url(#paint43_angular_40_288)" stroke="#35C2C1" stroke-width="0.316197"/>
<path fill-rule="evenodd" clip-rule="evenodd" d="M56.4102 31.0071C55.2325 31.0071 54.2777 31.9618 54.2777 33.1396C54.2777 34.3173 55.2325 35.272 56.4102 35.272C57.5879 35.272 58.5427 34.3173 58.5427 33.1396C58.5426 31.9618 57.5879 31.0071 56.4102 31.0071Z" fill="url(#paint44_angular_40_288)" stroke="#35C2C1" stroke-width="0.140848"/>
<path fill-rule="evenodd" clip-rule="evenodd" d="M56.4102 26.728C55.2325 26.728 54.2777 27.6828 54.2777 28.8605C54.2777 30.0383 55.2325 30.993 56.4102 30.993C57.5879 30.993 58.5427 30.0382 58.5427 28.8605C58.5426 27.6828 57.5879 26.728 56.4102 26.728Z" fill="url(#paint45_angular_40_288)" stroke="#35C2C1" stroke-width="0.140848"/>
<path fill-rule="evenodd" clip-rule="evenodd" d="M12.8077 9.79196C13.6405 10.6247 13.6405 11.975 12.8077 12.8077C11.9749 13.6405 10.6247 13.6405 9.79191 12.8077C8.95913 11.975 8.95913 10.6248 9.79191 9.79196C10.6247 8.95916 11.9749 8.95916 12.8077 9.79196Z" fill="url(#paint46_angular_40_288)" stroke="#35C2C1" stroke-width="0.140848"/>
<path fill-rule="evenodd" clip-rule="evenodd" d="M9.78428 9.78929C9.21047 10.3631 9.03429 11.1781 9.25161 11.905C10.0881 11.2553 11.2961 11.3111 12.0643 12.0792C12.3244 12.3394 12.4994 12.6504 12.5969 12.9803C12.6667 12.9261 12.732 12.8652 12.7961 12.8011C12.8602 12.737 12.9211 12.6718 12.9753 12.602C12.6454 12.5044 12.3343 12.3294 12.0742 12.0693C11.3044 11.2994 11.2507 10.0883 11.905 9.25167C11.178 9.03423 10.3581 9.21544 9.78428 9.78929Z" fill="url(#paint47_angular_40_288)" stroke="#35C2C1" stroke-width="0.316197"/>
<path fill-rule="evenodd" clip-rule="evenodd" d="M13.0273 13.0373C13.8601 13.8701 13.8601 15.2203 13.0273 16.0531C12.1945 16.8859 10.8443 16.8859 10.0115 16.0531C9.17874 15.2203 9.17874 13.8701 10.0115 13.0373C10.8443 12.2045 12.1945 12.2045 13.0273 13.0373Z" fill="url(#paint48_angular_40_288)" stroke="#35C2C1" stroke-width="0.140848"/>
<path fill-rule="evenodd" clip-rule="evenodd" d="M16.053 10.0116C16.8858 10.8443 16.8858 12.1946 16.053 13.0273C15.2203 13.8601 13.87 13.8601 13.0373 13.0273C12.2045 12.1946 12.2045 10.8444 13.0373 10.0116C13.8701 9.17876 15.2203 9.17876 16.053 10.0116Z" fill="url(#paint49_angular_40_288)" stroke="#35C2C1" stroke-width="0.140848"/>
<path fill-rule="evenodd" clip-rule="evenodd" d="M52.208 49.1923C51.3752 48.3596 50.025 48.3596 49.1922 49.1923C48.3594 50.0251 48.3594 51.3753 49.1922 52.2081C50.025 53.0409 51.3752 53.0409 52.208 52.2081C53.0408 51.3753 53.0408 50.0251 52.208 49.1923Z" fill="url(#paint50_angular_40_288)" stroke="#35C2C1" stroke-width="0.140848"/>
<path fill-rule="evenodd" clip-rule="evenodd" d="M52.2107 52.2157C51.6369 52.7895 50.822 52.9657 50.095 52.7483C50.7447 51.9119 50.6889 50.7039 49.9208 49.9357C49.6607 49.6756 49.3496 49.5005 49.0197 49.403C49.0739 49.3332 49.1348 49.268 49.1989 49.2039C49.263 49.1398 49.3283 49.0789 49.3981 49.0247C49.4956 49.3546 49.6706 49.6656 49.9307 49.9257C50.7006 50.6956 51.9117 50.7493 52.7484 50.095C52.9658 50.8219 52.7846 51.6418 52.2107 52.2157Z" fill="url(#paint51_angular_40_288)" stroke="#35C2C1" stroke-width="0.316197"/>
<path fill-rule="evenodd" clip-rule="evenodd" d="M48.9627 48.9727C48.13 48.1399 46.7797 48.1399 45.947 48.9727C45.1142 49.8054 45.1142 51.1557 45.947 51.9884C46.7797 52.8212 48.13 52.8212 48.9627 51.9884C49.7955 51.1557 49.7955 49.8054 48.9627 48.9727Z" fill="url(#paint52_angular_40_288)" stroke="#35C2C1" stroke-width="0.140848"/>
<path fill-rule="evenodd" clip-rule="evenodd" d="M51.9884 45.947C51.1557 45.1142 49.8055 45.1142 48.9727 45.947C48.1399 46.7797 48.1399 48.13 48.9727 48.9627C49.8054 49.7955 51.1556 49.7955 51.9884 48.9627C52.8212 48.13 52.8212 46.7798 51.9884 45.947Z" fill="url(#paint53_angular_40_288)" stroke="#35C2C1" stroke-width="0.140848"/>
<path fill-rule="evenodd" clip-rule="evenodd" d="M9.79189 49.1923C10.6247 48.3596 11.9749 48.3596 12.8077 49.1923C13.6405 50.0251 13.6404 51.3753 12.8077 52.2081C11.9749 53.0409 10.6247 53.0409 9.79189 52.2081C8.9591 51.3753 8.9591 50.0251 9.79189 49.1923Z" fill="url(#paint54_angular_40_288)" stroke="#35C2C1" stroke-width="0.140848"/>
<path fill-rule="evenodd" clip-rule="evenodd" d="M9.78927 52.2157C10.3631 52.7895 11.178 52.9657 11.905 52.7483C11.2553 51.9119 11.3111 50.7039 12.0792 49.9357C12.3393 49.6756 12.6504 49.5005 12.9803 49.403C12.926 49.3332 12.8652 49.268 12.8011 49.2039C12.7369 49.1398 12.6717 49.0789 12.602 49.0247C12.5044 49.3546 12.3294 49.6656 12.0693 49.9257C11.2994 50.6956 10.0883 50.7493 9.25164 50.095C9.0342 50.8219 9.2154 51.6418 9.78927 52.2157Z" fill="url(#paint55_angular_40_288)" stroke="#35C2C1" stroke-width="0.316197"/>
<path fill-rule="evenodd" clip-rule="evenodd" d="M13.0372 48.9727C13.87 48.1399 15.2202 48.1399 16.053 48.9727C16.8858 49.8054 16.8858 51.1557 16.053 51.9884C15.2202 52.8212 13.87 52.8212 13.0372 51.9884C12.2045 51.1557 12.2045 49.8054 13.0372 48.9727Z" fill="url(#paint56_angular_40_288)" stroke="#35C2C1" stroke-width="0.140848"/>
<path fill-rule="evenodd" clip-rule="evenodd" d="M10.0115 45.947C10.8443 45.1142 12.1945 45.1142 13.0273 45.947C13.8601 46.7797 13.8601 48.13 13.0273 48.9627C12.1945 49.7955 10.8443 49.7955 10.0115 48.9627C9.17873 48.13 9.17873 46.7798 10.0115 45.947Z" fill="url(#paint57_angular_40_288)" stroke="#35C2C1" stroke-width="0.140848"/>
<path fill-rule="evenodd" clip-rule="evenodd" d="M49.1923 9.79196C48.3596 10.6247 48.3596 11.975 49.1923 12.8077C50.0251 13.6405 51.3753 13.6405 52.2081 12.8077C53.0409 11.975 53.0409 10.6248 52.2081 9.79196C51.3753 8.95916 50.0251 8.95916 49.1923 9.79196Z" fill="url(#paint58_angular_40_288)" stroke="#35C2C1" stroke-width="0.140848"/>
<path fill-rule="evenodd" clip-rule="evenodd" d="M52.2156 9.78929C52.7895 10.3631 52.9657 11.1781 52.7483 11.905C51.9119 11.2553 50.7038 11.3111 49.9356 12.0792C49.6755 12.3394 49.5005 12.6504 49.403 12.9803C49.3332 12.9261 49.268 12.8652 49.2039 12.8011C49.1398 12.737 49.0789 12.6718 49.0247 12.602C49.3546 12.5044 49.6656 12.3294 49.9257 12.0693C50.6956 11.2994 50.7493 10.0883 50.095 9.25167C50.8219 9.03423 51.6418 9.21544 52.2156 9.78929Z" fill="url(#paint59_angular_40_288)" stroke="#35C2C1" stroke-width="0.316197"/>
<path fill-rule="evenodd" clip-rule="evenodd" d="M48.9727 13.0373C48.1399 13.8701 48.1399 15.2203 48.9727 16.0531C49.8054 16.8859 51.1557 16.8859 51.9884 16.0531C52.8212 15.2203 52.8212 13.8701 51.9884 13.0373C51.1557 12.2045 49.8055 12.2045 48.9727 13.0373Z" fill="url(#paint60_angular_40_288)" stroke="#35C2C1" stroke-width="0.140848"/>
<path fill-rule="evenodd" clip-rule="evenodd" d="M45.947 10.0116C45.1142 10.8443 45.1142 12.1946 45.947 13.0273C46.7798 13.8601 48.13 13.8601 48.9627 13.0273C49.7955 12.1946 49.7955 10.8444 48.9627 10.0116C48.13 9.17876 46.7797 9.17876 45.947 10.0116Z" fill="url(#paint61_angular_40_288)" stroke="#35C2C1" stroke-width="0.140848"/>
<path fill-rule="evenodd" clip-rule="evenodd" d="M30.9965 6.56C17.5056 6.56 6.56 17.5056 6.56 30.9965C6.56 44.4873 17.5056 55.44 30.9965 55.44C44.4873 55.44 55.44 44.4873 55.44 30.9965C55.44 17.5056 44.4873 6.56 30.9965 6.56ZM30.9965 12.2907C41.3309 12.2907 49.7234 20.6761 49.7234 31.0106C49.7234 41.345 41.3309 49.7374 30.9965 49.7374C20.662 49.7374 12.2766 41.345 12.2766 31.0106C12.2766 20.6761 20.662 12.2907 30.9965 12.2907Z" fill="url(#paint62_angular_40_288)" stroke="#35C2C1" stroke-width="0.33793"/>
<path d="M51.2022 31C51.2022 42.1574 42.1574 51.2022 31 51.2022C19.8426 51.2022 10.7978 42.1574 10.7978 31C10.7978 19.8426 19.8426 10.7978 31 10.7978C42.1574 10.7978 51.2022 19.8426 51.2022 31Z" stroke="#35C2C1" stroke-width="0.040844"/>
<path fill-rule="evenodd" clip-rule="evenodd" d="M38.5239 31C38.5255 35.1553 35.1582 38.5252 31.0029 38.5268C26.8475 38.5284 23.4777 35.1611 23.4761 31.0058V31C23.4745 26.8446 26.8417 23.4748 30.9971 23.4731C35.1524 23.4715 38.5223 26.8388 38.5239 30.9942V31Z" fill="url(#paint63_angular_40_288)" stroke="#35C2C1" stroke-width="0.107991"/>
<path fill-rule="evenodd" clip-rule="evenodd" d="M36 31C36.0011 33.7604 33.7633 35.9989 31.0019 36C28.2405 36.0011 26.0011 33.7642 26 31.0039V31C25.9989 28.2396 28.2367 26.0011 30.9981 26C33.7595 25.9989 35.9989 28.2358 36 30.9961V31Z" stroke="#35C2C1" stroke-width="0.107991"/>
<defs>
<linearGradient id="paint0_linear_40_288" x1="70.1574" y1="22.5269" x2="184.997" y2="52.5876" gradientUnits="userSpaceOnUse">
<stop stop-color="#004761"/>
</linearGradient>
<linearGradient id="paint1_linear_40_288" x1="70.1574" y1="22.5269" x2="184.997" y2="52.5876" gradientUnits="userSpaceOnUse">
<stop stop-color="#004761"/>
</linearGradient>
<linearGradient id="paint2_linear_40_288" x1="70.1574" y1="22.5269" x2="184.997" y2="52.5876" gradientUnits="userSpaceOnUse">
<stop stop-color="#004761"/>
</linearGradient>
<linearGradient id="paint3_linear_40_288" x1="70.1574" y1="22.5269" x2="184.997" y2="52.5876" gradientUnits="userSpaceOnUse">
<stop stop-color="#004761"/>
</linearGradient>
<linearGradient id="paint4_linear_40_288" x1="70.1575" y1="22.5269" x2="184.997" y2="52.5876" gradientUnits="userSpaceOnUse">
<stop stop-color="#004761"/>
</linearGradient>
<linearGradient id="paint5_linear_40_288" x1="70.1574" y1="22.5269" x2="184.997" y2="52.5876" gradientUnits="userSpaceOnUse">
<stop stop-color="#004761"/>
</linearGradient>
<radialGradient id="paint6_angular_40_288" cx="0" cy="0" r="1" gradientUnits="userSpaceOnUse" gradientTransform="translate(18.0493 29.4906) rotate(90) scale(1.38475 5.91731)">
<stop stop-color="#004761"/>
<stop offset="1" stop-color="#076E94"/>
</radialGradient>
<radialGradient id="paint7_angular_40_288" cx="0" cy="0" r="1" gradientUnits="userSpaceOnUse" gradientTransform="translate(18.0493 32.2374) rotate(90) scale(1.38475 5.91731)">
<stop stop-color="#004761"/>
<stop offset="1" stop-color="#076E94"/>
</radialGradient>
<radialGradient id="paint8_angular_40_288" cx="0" cy="0" r="1" gradientUnits="userSpaceOnUse" gradientTransform="translate(17.0277 30.8746) rotate(90) scale(2.69381 1.35816)">
<stop stop-color="#004761"/>
<stop offset="1" stop-color="#076E94"/>
</radialGradient>
<radialGradient id="paint9_angular_40_288" cx="0" cy="0" r="1" gradientUnits="userSpaceOnUse" gradientTransform="translate(43.9507 29.7626) rotate(90) scale(1.38475 5.9173)">
<stop stop-color="#004761"/>
<stop offset="1" stop-color="#076E94"/>
</radialGradient>
<radialGradient id="paint10_angular_40_288" cx="0" cy="0" r="1" gradientUnits="userSpaceOnUse" gradientTransform="translate(43.9507 32.5094) rotate(90) scale(1.38475 5.9173)">
<stop stop-color="#004761"/>
<stop offset="1" stop-color="#076E94"/>
</radialGradient>
<radialGradient id="paint11_angular_40_288" cx="0" cy="0" r="1" gradientUnits="userSpaceOnUse" gradientTransform="translate(44.972 31.1459) rotate(90) scale(2.69225 1.35649)">
<stop stop-color="#004761"/>
<stop offset="1" stop-color="#076E94"/>
</radialGradient>
<radialGradient id="paint12_angular_40_288" cx="0" cy="0" r="1" gradientUnits="userSpaceOnUse" gradientTransform="translate(29.4906 43.9507) rotate(90) scale(5.91731 1.38475)">
<stop stop-color="#004761"/>
<stop offset="1" stop-color="#076E94"/>
</radialGradient>
<radialGradient id="paint13_angular_40_288" cx="0" cy="0" r="1" gradientUnits="userSpaceOnUse" gradientTransform="translate(32.2374 43.9507) rotate(90) scale(5.91731 1.38475)">
<stop stop-color="#004761"/>
<stop offset="1" stop-color="#076E94"/>
</radialGradient>
<radialGradient id="paint14_angular_40_288" cx="0" cy="0" r="1" gradientUnits="userSpaceOnUse" gradientTransform="translate(30.8746 44.9721) rotate(90) scale(1.35847 2.69381)">
<stop stop-color="#004761"/>
<stop offset="1" stop-color="#076E94"/>
</radialGradient>
<radialGradient id="paint15_angular_40_288" cx="0" cy="0" r="1" gradientUnits="userSpaceOnUse" gradientTransform="translate(29.7626 18.0493) rotate(90) scale(5.91731 1.38475)">
<stop stop-color="#004761"/>
<stop offset="1" stop-color="#076E94"/>
</radialGradient>
<radialGradient id="paint16_angular_40_288" cx="0" cy="0" r="1" gradientUnits="userSpaceOnUse" gradientTransform="translate(32.5094 18.0493) rotate(90) scale(5.91731 1.38475)">
<stop stop-color="#004761"/>
<stop offset="1" stop-color="#076E94"/>
</radialGradient>
<radialGradient id="paint17_angular_40_288" cx="0" cy="0" r="1" gradientUnits="userSpaceOnUse" gradientTransform="translate(31.1459 17.0277) rotate(90) scale(1.35816 2.69225)">
<stop stop-color="#004761"/>
<stop offset="1" stop-color="#076E94"/>
</radialGradient>
<radialGradient id="paint18_angular_40_288" cx="0" cy="0" r="1" gradientUnits="userSpaceOnUse" gradientTransform="translate(21.2388 39.5505) rotate(90) scale(4.68793 4.66791)">
<stop stop-color="#004761"/>
<stop offset="1" stop-color="#076E94"/>
</radialGradient>
<radialGradient id="paint19_angular_40_288" cx="0" cy="0" r="1" gradientUnits="userSpaceOnUse" gradientTransform="translate(22.2421 40.5537) rotate(90) scale(4.66791 4.68793)">
<stop stop-color="#004761"/>
<stop offset="1" stop-color="#076E94"/>
</radialGradient>
<radialGradient id="paint20_angular_40_288" cx="0" cy="0" r="1" gradientUnits="userSpaceOnUse" gradientTransform="translate(21.0339 40.7733) rotate(90) scale(1.9051 1.90353)">
<stop stop-color="#004761"/>
<stop offset="1" stop-color="#076E94"/>
</radialGradient>
<radialGradient id="paint21_angular_40_288" cx="0" cy="0" r="1" gradientUnits="userSpaceOnUse" gradientTransform="translate(39.7579 21.4159) rotate(90) scale(4.6679 4.68793)">
<stop stop-color="#004761"/>
<stop offset="1" stop-color="#076E94"/>
</radialGradient>
<radialGradient id="paint22_angular_40_288" cx="0" cy="0" r="1" gradientUnits="userSpaceOnUse" gradientTransform="translate(40.7612 22.4192) rotate(90) scale(4.68793 4.6679)">
<stop stop-color="#004761"/>
<stop offset="1" stop-color="#076E94"/>
</radialGradient>
<radialGradient id="paint23_angular_40_288" cx="0" cy="0" r="1" gradientUnits="userSpaceOnUse" gradientTransform="translate(40.9802 21.211) rotate(90) scale(1.90511)">
<stop stop-color="#004761"/>
<stop offset="1" stop-color="#076E94"/>
</radialGradient>
<radialGradient id="paint24_angular_40_288" cx="0" cy="0" r="1" gradientUnits="userSpaceOnUse" gradientTransform="translate(39.5656 40.746) rotate(90) scale(4.6679 4.68793)">
<stop stop-color="#004761"/>
<stop offset="1" stop-color="#076E94"/>
</radialGradient>
<radialGradient id="paint25_angular_40_288" cx="0" cy="0" r="1" gradientUnits="userSpaceOnUse" gradientTransform="translate(40.5689 39.7427) rotate(90) scale(4.68793 4.66791)">
<stop stop-color="#004761"/>
<stop offset="1" stop-color="#076E94"/>
</radialGradient>
<radialGradient id="paint26_angular_40_288" cx="0" cy="0" r="1" gradientUnits="userSpaceOnUse" gradientTransform="translate(40.789 40.9504) rotate(90) scale(1.90354 1.90511)">
<stop stop-color="#004761"/>
<stop offset="1" stop-color="#076E94"/>
</radialGradient>
<radialGradient id="paint27_angular_40_288" cx="0" cy="0" r="1" gradientUnits="userSpaceOnUse" gradientTransform="translate(21.4311 22.2269) rotate(90) scale(4.68793 4.6679)">
<stop stop-color="#004761"/>
<stop offset="1" stop-color="#076E94"/>
</radialGradient>
<radialGradient id="paint28_angular_40_288" cx="0" cy="0" r="1" gradientUnits="userSpaceOnUse" gradientTransform="translate(22.4344 21.2237) rotate(90) scale(4.6679 4.68793)">
<stop stop-color="#004761"/>
<stop offset="1" stop-color="#076E94"/>
</radialGradient>
<radialGradient id="paint29_angular_40_288" cx="0" cy="0" r="1" gradientUnits="userSpaceOnUse" gradientTransform="translate(21.2267 21.0041) rotate(90) scale(1.9051)">
<stop stop-color="#004761"/>
<stop offset="1" stop-color="#076E94"/>
</radialGradient>
<radialGradient id="paint30_angular_40_288" cx="0" cy="0" r="1" gradientUnits="userSpaceOnUse" gradientTransform="translate(31 3.13971) rotate(90) scale(2.13248)">
<stop stop-color="#004761"/>
<stop offset="1" stop-color="#076E94"/>
</radialGradient>
<radialGradient id="paint31_angular_40_288" cx="0" cy="0" r="1" gradientUnits="userSpaceOnUse" gradientTransform="translate(31 3.12966) rotate(90) scale(2.12966 1.87621)">
<stop stop-color="#004761"/>
<stop offset="1" stop-color="#076E94"/>
</radialGradient>
<radialGradient id="paint32_angular_40_288" cx="0" cy="0" r="1" gradientUnits="userSpaceOnUse" gradientTransform="translate(28.8605 5.58986) rotate(90) scale(2.13247)">
<stop stop-color="#004761"/>
<stop offset="1" stop-color="#076E94"/>
</radialGradient>
<radialGradient id="paint33_angular_40_288" cx="0" cy="0" r="1" gradientUnits="userSpaceOnUse" gradientTransform="translate(33.1395 5.58986) rotate(90) scale(2.13247 2.13248)">
<stop stop-color="#004761"/>
<stop offset="1" stop-color="#076E94"/>
</radialGradient>
<radialGradient id="paint34_angular_40_288" cx="0" cy="0" r="1" gradientUnits="userSpaceOnUse" gradientTransform="translate(31 58.8603) rotate(90) scale(2.13248)">
<stop stop-color="#004761"/>
<stop offset="1" stop-color="#076E94"/>
</radialGradient>
<radialGradient id="paint35_angular_40_288" cx="0" cy="0" r="1" gradientUnits="userSpaceOnUse" gradientTransform="translate(31 58.8703) rotate(90) scale(2.12965 1.87621)">
<stop stop-color="#004761"/>
<stop offset="1" stop-color="#076E94"/>
</radialGradient>
<radialGradient id="paint36_angular_40_288" cx="0" cy="0" r="1" gradientUnits="userSpaceOnUse" gradientTransform="translate(28.8605 56.4102) rotate(90) scale(2.13247)">
<stop stop-color="#004761"/>
<stop offset="1" stop-color="#076E94"/>
</radialGradient>
<radialGradient id="paint37_angular_40_288" cx="0" cy="0" r="1" gradientUnits="userSpaceOnUse" gradientTransform="translate(33.1395 56.4102) rotate(90) scale(2.13247 2.13248)">
<stop stop-color="#004761"/>
<stop offset="1" stop-color="#076E94"/>
</radialGradient>
<radialGradient id="paint38_angular_40_288" cx="0" cy="0" r="1" gradientUnits="userSpaceOnUse" gradientTransform="translate(3.13973 31) rotate(90) scale(2.13248 2.13247)">
<stop stop-color="#004761"/>
<stop offset="1" stop-color="#076E94"/>
</radialGradient>
<radialGradient id="paint39_angular_40_288" cx="0" cy="0" r="1" gradientUnits="userSpaceOnUse" gradientTransform="translate(3.12967 31) rotate(90) scale(1.87622 2.12967)">
<stop stop-color="#004761"/>
<stop offset="1" stop-color="#076E94"/>
</radialGradient>
<radialGradient id="paint40_angular_40_288" cx="0" cy="0" r="1" gradientUnits="userSpaceOnUse" gradientTransform="translate(5.58984 33.1396) rotate(90) scale(2.13248)">
<stop stop-color="#004761"/>
<stop offset="1" stop-color="#076E94"/>
</radialGradient>
<radialGradient id="paint41_angular_40_288" cx="0" cy="0" r="1" gradientUnits="userSpaceOnUse" gradientTransform="translate(5.58984 28.8605) rotate(90) scale(2.13248)">
<stop stop-color="#004761"/>
<stop offset="1" stop-color="#076E94"/>
</radialGradient>
<radialGradient id="paint42_angular_40_288" cx="0" cy="0" r="1" gradientUnits="userSpaceOnUse" gradientTransform="translate(58.8603 31) rotate(90) scale(2.13248 2.13247)">
<stop stop-color="#004761"/>
<stop offset="1" stop-color="#076E94"/>
</radialGradient>
<radialGradient id="paint43_angular_40_288" cx="0" cy="0" r="1" gradientUnits="userSpaceOnUse" gradientTransform="translate(58.8703 31) rotate(90) scale(1.87622 2.12966)">
<stop stop-color="#004761"/>
<stop offset="1" stop-color="#076E94"/>
</radialGradient>
<radialGradient id="paint44_angular_40_288" cx="0" cy="0" r="1" gradientUnits="userSpaceOnUse" gradientTransform="translate(56.4102 33.1396) rotate(90) scale(2.13248)">
<stop stop-color="#004761"/>
<stop offset="1" stop-color="#076E94"/>
</radialGradient>
<radialGradient id="paint45_angular_40_288" cx="0" cy="0" r="1" gradientUnits="userSpaceOnUse" gradientTransform="translate(56.4102 28.8605) rotate(90) scale(2.13248)">
<stop stop-color="#004761"/>
<stop offset="1" stop-color="#076E94"/>
</radialGradient>
<radialGradient id="paint46_angular_40_288" cx="0" cy="0" r="1" gradientUnits="userSpaceOnUse" gradientTransform="translate(11.2998 11.2998) rotate(90) scale(2.13248 2.13247)">
<stop stop-color="#004761"/>
<stop offset="1" stop-color="#076E94"/>
</radialGradient>
<radialGradient id="paint47_angular_40_288" cx="0" cy="0" r="1" gradientUnits="userSpaceOnUse" gradientTransform="translate(11.0685 11.0715) rotate(90) scale(1.90885 1.9068)">
<stop stop-color="#004761"/>
<stop offset="1" stop-color="#076E94"/>
</radialGradient>
<radialGradient id="paint48_angular_40_288" cx="0" cy="0" r="1" gradientUnits="userSpaceOnUse" gradientTransform="translate(11.5194 14.5452) rotate(90) scale(2.13247)">
<stop stop-color="#004761"/>
<stop offset="1" stop-color="#076E94"/>
</radialGradient>
<radialGradient id="paint49_angular_40_288" cx="0" cy="0" r="1" gradientUnits="userSpaceOnUse" gradientTransform="translate(14.5451 11.5194) rotate(90) scale(2.13248)">
<stop stop-color="#004761"/>
<stop offset="1" stop-color="#076E94"/>
</radialGradient>
<radialGradient id="paint50_angular_40_288" cx="0" cy="0" r="1" gradientUnits="userSpaceOnUse" gradientTransform="translate(50.7001 50.7002) rotate(90) scale(2.13247 2.13249)">
<stop stop-color="#004761"/>
<stop offset="1" stop-color="#076E94"/>
</radialGradient>
<radialGradient id="paint51_angular_40_288" cx="0" cy="0" r="1" gradientUnits="userSpaceOnUse" gradientTransform="translate(50.9286 50.9315) rotate(90) scale(1.90681 1.90885)">
<stop stop-color="#004761"/>
<stop offset="1" stop-color="#076E94"/>
</radialGradient>
<radialGradient id="paint52_angular_40_288" cx="0" cy="0" r="1" gradientUnits="userSpaceOnUse" gradientTransform="translate(47.4549 50.4806) rotate(90) scale(2.13247)">
<stop stop-color="#004761"/>
<stop offset="1" stop-color="#076E94"/>
</radialGradient>
<radialGradient id="paint53_angular_40_288" cx="0" cy="0" r="1" gradientUnits="userSpaceOnUse" gradientTransform="translate(50.4806 47.4549) rotate(90) scale(2.13247)">
<stop stop-color="#004761"/>
<stop offset="1" stop-color="#076E94"/>
</radialGradient>
<radialGradient id="paint54_angular_40_288" cx="0" cy="0" r="1" gradientUnits="userSpaceOnUse" gradientTransform="translate(11.2998 50.7002) rotate(90) scale(2.13247 2.13248)">
<stop stop-color="#004761"/>
<stop offset="1" stop-color="#076E94"/>
</radialGradient>
<radialGradient id="paint55_angular_40_288" cx="0" cy="0" r="1" gradientUnits="userSpaceOnUse" gradientTransform="translate(11.0714 50.9315) rotate(90) scale(1.90681 1.90885)">
<stop stop-color="#004761"/>
<stop offset="1" stop-color="#076E94"/>
</radialGradient>
<radialGradient id="paint56_angular_40_288" cx="0" cy="0" r="1" gradientUnits="userSpaceOnUse" gradientTransform="translate(14.5451 50.4806) rotate(90) scale(2.13247)">
<stop stop-color="#004761"/>
<stop offset="1" stop-color="#076E94"/>
</radialGradient>
<radialGradient id="paint57_angular_40_288" cx="0" cy="0" r="1" gradientUnits="userSpaceOnUse" gradientTransform="translate(11.5194 47.4549) rotate(90) scale(2.13247 2.13248)">
<stop stop-color="#004761"/>
<stop offset="1" stop-color="#076E94"/>
</radialGradient>
<radialGradient id="paint58_angular_40_288" cx="0" cy="0" r="1" gradientUnits="userSpaceOnUse" gradientTransform="translate(50.7002 11.2998) rotate(90) scale(2.13248 2.13247)">
<stop stop-color="#004761"/>
<stop offset="1" stop-color="#076E94"/>
</radialGradient>
<radialGradient id="paint59_angular_40_288" cx="0" cy="0" r="1" gradientUnits="userSpaceOnUse" gradientTransform="translate(50.9315 11.0715) rotate(90) scale(1.90885 1.9068)">
<stop stop-color="#004761"/>
<stop offset="1" stop-color="#076E94"/>
</radialGradient>
<radialGradient id="paint60_angular_40_288" cx="0" cy="0" r="1" gradientUnits="userSpaceOnUse" gradientTransform="translate(50.4806 14.5452) rotate(90) scale(2.13247 2.13247)">
<stop stop-color="#004761"/>
<stop offset="1" stop-color="#076E94"/>
</radialGradient>
<radialGradient id="paint61_angular_40_288" cx="0" cy="0" r="1" gradientUnits="userSpaceOnUse" gradientTransform="translate(47.4549 11.5194) rotate(90) scale(2.13248 2.13247)">
<stop stop-color="#004761"/>
<stop offset="1" stop-color="#076E94"/>
</radialGradient>
<radialGradient id="paint62_angular_40_288" cx="0" cy="0" r="1" gradientUnits="userSpaceOnUse" gradientTransform="translate(31 31) rotate(90) scale(24.44)">
<stop stop-color="#004761"/>
<stop offset="1" stop-color="#076E94"/>
</radialGradient>
<radialGradient id="paint63_angular_40_288" cx="0" cy="0" r="1" gradientUnits="userSpaceOnUse" gradientTransform="translate(31 31) rotate(90) scale(7.52683 7.52393)">
<stop stop-color="#004761"/>
<stop offset="1" stop-color="#076E94"/>
</radialGradient>
</defs>
</svg>
