<svg width="945" height="795" viewBox="0 0 945 795" fill="none" xmlns="http://www.w3.org/2000/svg">
<path d="M690.982 414.921C690.982 414.921 673.905 405.226 665.591 407.904C656.42 410.858 664.853 414.5 668.442 415.794C668.958 415.98 668.979 416.702 668.474 416.915C661.379 419.901 650.823 421.245 650.823 421.245C650.823 421.245 642.447 421.352 643.133 426.291C643.853 431.475 656.493 426.601 657.833 426.652C657.833 426.652 639.659 428.056 641.763 434.033C643.29 438.37 658.332 434.949 660.699 434.217C643.536 431.842 647.051 438.959 647.051 438.959C648.872 442.065 654.468 441.98 656.113 441.168C655.954 441.489 651.594 440.125 653.551 443.99C655.892 448.614 671.13 445.166 676.946 443.847C688.45 441.238 695.305 433.181 695.305 433.181L702.21 429.537L699.026 414.24L690.982 414.921Z" fill="#AD4444"/>
<path d="M646.99 428.691C646.99 428.691 655.151 428.398 669.03 424.73" stroke="#382544" stroke-width="0.75" stroke-miterlimit="10" stroke-linecap="round" stroke-linejoin="round"/>
<path d="M647.4 436.002C647.4 436.002 655.561 435.709 669.44 432.041" stroke="#382544" stroke-width="0.75" stroke-miterlimit="10" stroke-linecap="round" stroke-linejoin="round"/>
<path d="M653.092 441.735C653.092 441.735 658.742 442.085 672.621 438.417" stroke="#382544" stroke-width="0.75" stroke-miterlimit="10" stroke-linecap="round" stroke-linejoin="round"/>
<path d="M755.846 401.695C772.569 375.62 804.023 319.526 804.023 319.526C824.936 291.02 845.324 339.655 838.235 353.831C831.146 368.008 808.133 423.609 776.983 432.71C776.983 432.71 765.514 422.527 755.846 401.695Z" fill="#0D9B9A"/>
<path d="M801.113 416.005C822.173 391.751 838.235 353.831 838.235 353.831C838.235 353.831 845.862 334.191 832.722 322.434" stroke="#382544" stroke-width="0.75" stroke-miterlimit="10" stroke-linecap="round" stroke-linejoin="round"/>
<path d="M804.023 319.526C804.023 319.526 773.774 373.066 763.046 390.139" stroke="#382544" stroke-width="0.75" stroke-miterlimit="10" stroke-linecap="round" stroke-linejoin="round"/>
<path d="M776.984 432.71C776.984 432.71 732.776 439.711 695.305 433.181C695.305 433.181 690.745 425.971 690.982 414.92C690.982 414.92 726.538 406.713 755.846 401.694C755.846 401.694 767.05 423.65 776.984 432.71Z" fill="#AD4444"/>
<path d="M725.199 435.896C725.199 435.896 748.317 436.577 760.048 434.668" stroke="#382544" stroke-width="0.75" stroke-miterlimit="10" stroke-linecap="round" stroke-linejoin="round"/>
<path d="M690.982 414.921C690.982 414.921 719.221 408.422 737.533 405.058" stroke="#382544" stroke-width="0.75" stroke-miterlimit="10" stroke-linecap="round" stroke-linejoin="round"/>
<path d="M755.846 401.695C755.846 401.695 766.415 422.438 776.984 432.71" stroke="#382544" stroke-width="0.75" stroke-miterlimit="10" stroke-linecap="round" stroke-linejoin="round"/>
<path d="M765.38 386.13C765.38 386.13 788.844 398.919 798.45 418.787" stroke="#382544" stroke-width="0.75" stroke-miterlimit="10" stroke-linecap="round" stroke-linejoin="round"/>
<path d="M246.145 159.138C246.145 159.138 258.447 145.568 266.593 145.516C275.579 145.458 269.171 151.145 266.369 153.337C265.966 153.652 266.158 154.298 266.668 154.339C273.825 154.915 283.569 153.027 283.569 153.027C283.569 153.027 291.021 150.679 291.854 155.254C292.728 160.056 280.108 159.426 278.936 159.861C278.936 159.861 295.447 155.804 295.326 161.713C295.238 166.001 280.914 167.358 278.604 167.399C293.117 160.289 292.078 167.619 292.078 167.619C291.37 170.902 286.388 172.459 284.694 172.219C284.929 172.457 288.393 169.977 287.787 173.972C287.061 178.751 272.556 180.141 267.018 180.669C256.065 181.713 247.642 176.575 247.642 176.575L240.461 175.36L240.848 158.448L246.145 159.138Z" fill="#FFC6BF"/>
<path d="M289.135 158.506C289.135 158.506 281.819 160.627 268.454 161.425" stroke="#382544" stroke-width="0.75" stroke-miterlimit="10" stroke-linecap="round" stroke-linejoin="round"/>
<path d="M290.905 165.103C290.905 165.103 283.59 167.224 270.223 168.022" stroke="#382544" stroke-width="0.75" stroke-miterlimit="10" stroke-linecap="round" stroke-linejoin="round"/>
<path d="M287.534 171.842C287.534 171.842 282.63 173.8 269.265 174.598" stroke="#382544" stroke-width="0.75" stroke-miterlimit="10" stroke-linecap="round" stroke-linejoin="round"/>
<path d="M118.173 107.595C118.173 107.595 162.401 148.117 184.822 166.34C184.822 166.34 210.026 160.227 250.571 155.659C250.571 155.659 254.004 169.61 255.521 179.962C255.521 179.962 205.393 198.961 175.142 199.983C144.891 201.005 108.285 158.458 97.87 147.966C87.454 137.474 91.3311 88.439 118.173 107.595Z" fill="#004761"/>
<path d="M97.8691 147.966C97.8691 147.966 123.159 176.876 148.891 192.221" stroke="#382544" stroke-width="0.75" stroke-miterlimit="10"/>
<path d="M252.723 165.065C252.723 165.065 255.308 174.906 255.52 179.962" stroke="#382544" stroke-width="0.75" stroke-miterlimit="10" stroke-linecap="round" stroke-linejoin="round"/>
<path d="M230.963 188.816C230.963 188.816 211.845 193.724 193.169 197.867" stroke="#382544" stroke-width="0.75" stroke-miterlimit="10" stroke-linecap="round" stroke-linejoin="round"/>
<path d="M138.257 125.798C138.257 125.798 160.588 146.205 175.072 158.202" stroke="#382544" stroke-width="0.75" stroke-miterlimit="10" stroke-linecap="round" stroke-linejoin="round"/>
<path d="M181.844 271.995C181.844 422.214 303.62 543.99 453.839 543.99V448.25C453.839 448.25 390.958 471.87 390.958 407.992C390.958 344.057 453.839 368.213 453.839 368.213V271.995H357.62C357.62 271.995 382.012 209.114 317.841 209.114C253.67 209.114 277.584 271.995 277.584 271.995H181.844Z" fill="#004761"/>
<mask id="mask0_75_252" style="mask-type:luminance" maskUnits="userSpaceOnUse" x="181" y="209" width="273" height="335">
<path d="M181.844 271.995C181.844 422.214 303.62 543.99 453.839 543.99V448.25C453.839 448.25 390.958 471.87 390.958 407.992C390.958 344.057 453.839 368.213 453.839 368.213V271.995H357.62C357.62 271.995 382.012 209.114 317.841 209.114C253.67 209.114 277.584 271.995 277.584 271.995H181.844V271.995Z" fill="white"/>
</mask>
<g mask="url(#mask0_75_252)">
<path d="M225.676 125.556C225.676 125.556 231.001 189.962 266.475 206.229C301.949 222.496 299.922 313.715 312.084 315.742C324.247 317.769 327.287 279.254 319.179 257.97C311.071 236.686 375.937 285.336 375.937 311.688C375.937 338.04 432.695 343.108 453.98 344.121C475.265 345.135 510.739 336.513 509.725 357.547C508.712 378.581 520.874 395.811 503.644 423.177C486.414 450.543 456.383 480.145 512.953 537.305C512.953 537.305 614.692 522.725 683.834 416.699C683.834 416.699 669.865 296.282 559.389 338.445C559.389 338.445 518.847 340.55 519.861 320.544C520.874 300.538 533.037 286.838 525.942 283.046C518.847 279.254 497.563 266.078 492.495 293.443C487.427 320.808 429.655 292.429 431.682 256.955C433.709 221.481 436.75 190.557 453.98 190.816C471.21 191.075 471.21 218.339 480.332 206.227C489.454 194.115 485.4 179.925 461.075 159.655C436.75 139.384 430.669 130.361 419.52 80.142C408.371 29.922 359.392 17.902 359.392 17.902C359.392 17.902 281.164 37.737 225.676 125.556Z" fill="#97C1FF"/>
<path d="M250.101 451.471C250.101 451.471 270.247 436.757 300.541 443.747C330.835 450.738 355.692 482.585 336.273 490.353C316.854 498.121 316.652 506.47 316.652 506.47C316.652 506.47 269.569 476.363 250.101 451.471Z" fill="#97C1FF"/>
<path d="M196.055 292.53C196.055 292.53 202.717 326.791 204.62 348.68C206.523 370.569 214.137 365.334 214.137 348.68C214.137 332.025 206.048 275.017 198.91 272.353C191.773 269.689 193.558 278.893 196.055 292.53Z" fill="#97C1FF"/>
</g>
<path d="M181.844 271.995C181.844 271.995 174.462 392.331 277.756 479.304" stroke="#382544" stroke-width="0.75" stroke-miterlimit="10" stroke-linecap="round" stroke-linejoin="round"/>
<path d="M391.257 400.685C391.257 400.685 381.087 469.847 453.839 448.25" stroke="#382544" stroke-width="0.75" stroke-miterlimit="10" stroke-linecap="round" stroke-linejoin="round"/>
<path d="M357.62 271.995H453.839V320.261" stroke="#382544" stroke-width="0.75" stroke-miterlimit="10" stroke-linecap="round" stroke-linejoin="round"/>
<path d="M725.834 271.995C725.834 121.776 604.058 0 453.839 0V95.74C453.839 95.74 516.72 72.236 516.72 135.997C516.72 199.988 453.839 175.776 453.839 175.776V271.995H550.057C550.057 271.995 525.665 334.876 589.836 334.876C654.007 334.876 630.093 271.995 630.093 271.995H725.834Z" fill="#004761"/>
<mask id="mask1_75_252" style="mask-type:luminance" maskUnits="userSpaceOnUse" x="453" y="0" width="273" height="335">
<path d="M725.834 271.995C725.834 121.776 604.058 0 453.839 0V95.74C453.839 95.74 516.72 72.236 516.72 135.997C516.72 199.988 453.839 175.776 453.839 175.776V271.995H550.057C550.057 271.995 525.665 334.876 589.836 334.876C654.007 334.876 630.093 271.995 630.093 271.995H725.834V271.995Z" fill="white"/>
</mask>
<g mask="url(#mask1_75_252)">
<path d="M225.676 125.035C225.676 125.035 231.001 189.441 266.475 205.708C301.949 221.975 299.922 313.194 312.084 315.221C324.247 317.248 327.287 278.733 319.179 257.449C311.071 236.165 375.937 284.814 375.937 311.167C375.937 337.52 432.695 342.587 453.98 343.6C475.265 344.614 510.739 335.992 509.725 357.026C508.712 378.06 520.874 395.29 503.644 422.656C486.414 450.022 456.383 479.624 512.953 536.784C512.953 536.784 614.692 522.204 683.834 416.178C683.834 416.178 669.865 295.761 559.389 337.924C559.389 337.924 518.847 340.028 519.861 320.023C520.874 300.017 533.037 286.317 525.942 282.525C518.847 278.733 497.563 265.557 492.495 292.922C487.427 320.288 429.655 291.908 431.682 256.435C433.709 220.961 436.75 190.037 453.98 190.296C471.21 190.555 471.21 217.819 480.332 205.707C489.454 193.595 485.4 179.405 461.075 159.134C436.75 138.863 430.669 129.841 419.52 79.6211C408.371 29.4011 359.392 17.3811 359.392 17.3811C359.392 17.3811 281.164 37.2171 225.676 125.035Z" fill="#97C1FF"/>
<path d="M602.327 44.536C602.327 44.536 588.057 79.51 602.327 89.398C616.597 99.286 626.979 94.836 624.507 104.23C622.035 113.624 645.322 116.958 650.488 84.638C650.488 84.638 626.265 58.508 602.327 44.536Z" fill="#97C1FF"/>
<path d="M450.477 39.4641C450.477 39.4641 472.725 67.151 473.22 86.927C473.715 106.703 500.412 113.13 506.345 81.983C512.278 50.836 528.099 42.431 528.593 29.082C529.088 15.733 454.927 10.2951 433.667 14.7451C412.409 19.1941 450.477 39.4641 450.477 39.4641Z" fill="#97C1FF"/>
<path d="M663.32 99.097C663.32 99.097 662.926 113.982 645.128 119.776C627.33 125.571 620.707 126.399 618.637 135.919C616.568 145.439 629.813 163.651 621.121 169.86C612.429 176.069 603.737 184.347 607.876 196.35C612.015 208.353 621.694 218.701 635.067 207.94C648.439 197.178 655.89 190.97 660.443 181.45C664.996 171.93 692.728 149.579 693.556 160.755C694.384 171.931 697.805 195.191 709.753 180.87C709.753 180.87 699.725 143.402 663.32 99.097Z" fill="#97C1FF"/>
<path d="M715.254 198.146C715.254 198.146 705.192 196.269 687.694 196.269C670.196 196.269 650.992 218.888 635.628 223.156C620.264 227.424 622.398 263.699 660.381 267.113C698.364 270.527 716.803 339.779 716.803 339.779C716.803 339.779 738.119 279.402 715.254 198.146Z" fill="#97C1FF"/>
<path d="M492.692 256.181C492.692 256.181 507.197 249.31 519.158 253.127C531.118 256.944 536.462 262.288 537.989 256.181C539.516 250.074 538.498 238.368 518.649 237.859C498.799 237.35 482.004 239.641 479.205 249.819C476.405 259.998 486.067 258.576 492.692 256.181Z" fill="#97C1FF"/>
</g>
<path d="M512.465 6.33801C512.465 6.33801 664.382 31.726 715.253 198.147" stroke="#382544" stroke-width="0.75" stroke-miterlimit="10" stroke-linecap="round" stroke-linejoin="round"/>
<path d="M550.057 271.995H475.988" stroke="#382544" stroke-width="0.75" stroke-miterlimit="10" stroke-linecap="round" stroke-linejoin="round"/>
<path d="M630.094 271.995H693.264" stroke="#382544" stroke-width="0.75" stroke-miterlimit="10" stroke-linecap="round" stroke-linejoin="round"/>
<path d="M454.341 3.77003C304.561 -7.70597 173.838 104.412 162.362 254.191L257.822 261.505C257.822 261.505 239.191 197.012 302.766 201.883C366.57 206.771 337.625 267.62 337.625 267.62L433.562 274.97L440.913 179.033C440.913 179.033 501.747 208.158 506.649 144.174C511.551 80.19 447.027 99.23 447.027 99.23L454.341 3.77003Z" fill="#004761"/>
<mask id="mask2_75_252" style="mask-type:luminance" maskUnits="userSpaceOnUse" x="162" y="2" width="345" height="273">
<path d="M454.341 3.77003C304.561 -7.70597 173.838 104.412 162.362 254.191L257.822 261.505C257.822 261.505 239.191 197.012 302.766 201.883C366.57 206.771 337.625 267.62 337.625 267.62L433.562 274.97L440.913 179.033C440.913 179.033 501.747 208.158 506.649 144.174C511.551 80.19 447.027 99.23 447.027 99.23L454.341 3.77003Z" fill="white"/>
</mask>
<g mask="url(#mask2_75_252)">
<path d="M217.253 111.528C217.253 111.528 217.642 176.153 251.77 195.083C285.898 214.013 276.908 304.81 288.88 307.76C300.852 310.71 306.826 272.541 300.367 250.699C293.908 228.857 354.869 282.32 352.856 308.596C350.843 334.871 407.048 344.26 428.193 346.897C449.338 349.534 485.367 343.647 482.749 364.543C480.132 385.438 490.942 403.547 471.672 429.517C452.402 455.487 420.197 482.708 472.235 544.023C472.235 544.023 574.791 537.258 651.83 436.824C651.83 436.824 647.101 315.692 533.727 349.292C533.727 349.292 493.143 348.293 495.682 328.424C498.221 308.554 511.394 295.823 504.61 291.5C497.826 287.177 477.61 272.413 470.466 299.312C463.322 326.21 407.887 293.501 412.619 258.285C417.35 223.07 422.744 192.468 439.904 194.043C457.064 195.617 454.982 222.802 465.002 211.423C475.023 200.043 472.064 185.585 449.359 163.515C426.654 141.445 421.279 131.984 413.999 81.0591C406.719 30.1341 358.802 14.4081 358.802 14.4081C358.802 14.4081 279.287 28.2051 217.253 111.528Z" fill="#97C1FF"/>
<path d="M447.935 43.381C447.935 43.381 468.003 72.686 466.985 92.443C465.967 112.199 492.096 120.647 500.391 90.044C508.686 59.441 525.103 52.269 526.616 38.997C528.129 25.725 454.6 14.637 433.063 17.45C411.525 20.261 447.935 43.381 447.935 43.381Z" fill="#97C1FF"/>
<path d="M473.47 262.689C473.47 262.689 488.458 256.947 500.092 261.666C511.726 266.386 516.646 272.122 518.635 266.149C520.624 260.176 520.503 248.427 500.751 246.403C480.998 244.379 464.077 245.38 460.508 255.315C456.939 265.251 466.681 264.571 473.47 262.689Z" fill="#97C1FF"/>
<path d="M174.963 275.751C174.963 275.751 178.988 310.42 179.214 332.391C179.44 354.361 187.431 349.724 188.703 333.118C189.975 316.512 186.264 259.052 179.351 255.851C172.438 252.65 173.515 261.963 174.963 275.751Z" fill="#97C1FF"/>
</g>
<path d="M302.766 201.883C366.57 206.771 337.625 267.62 337.625 267.62L433.562 274.97L436.912 231.248" stroke="#382544" stroke-width="0.75" stroke-miterlimit="10" stroke-linecap="round" stroke-linejoin="round"/>
<path d="M162.362 254.191L257.822 261.505" stroke="#382544" stroke-width="0.75" stroke-miterlimit="10" stroke-linecap="round" stroke-linejoin="round"/>
<path d="M429.547 2.98706C322.298 4.44606 228.096 68.8481 185.574 163.06" stroke="#382544" stroke-width="0.75" stroke-miterlimit="10" stroke-linecap="round" stroke-linejoin="round"/>
<path d="M440.912 179.033C440.912 179.033 501.746 208.158 506.648 144.174C511.55 80.19 447.026 99.23 447.026 99.23L454.34 3.77002" stroke="#382544" stroke-width="0.75" stroke-miterlimit="10" stroke-linecap="round" stroke-linejoin="round"/>
<path d="M472.673 576.959C622.752 570.477 739.159 443.559 732.677 293.48L637.026 297.612C637.026 297.612 663.479 359.409 599.52 362.172C536.188 364.907 557.064 301.066 557.064 301.066L460.935 305.218L465.087 401.347C465.087 401.347 401.212 379.691 403.981 443.803C406.75 507.915 468.541 481.309 468.541 481.309L472.673 576.959Z" fill="#004761"/>
<mask id="mask3_75_252" style="mask-type:luminance" maskUnits="userSpaceOnUse" x="403" y="293" width="330" height="284">
<path d="M472.673 576.959C622.752 570.477 739.159 443.559 732.677 293.48L637.026 297.612C637.026 297.612 663.479 359.409 599.52 362.172C536.188 364.907 557.064 301.066 557.064 301.066L460.935 305.218L465.087 401.347C465.087 401.347 401.212 379.691 403.981 443.803C406.75 507.915 468.541 481.309 468.541 481.309L472.673 576.959Z" fill="white"/>
</mask>
<g mask="url(#mask3_75_252)">
<path d="M226.665 168.76C226.665 168.76 234.764 232.876 270.907 247.598C307.05 262.319 308.961 353.54 321.2 355.041C333.439 356.541 334.815 317.931 325.795 297.017C316.776 276.102 383.681 321.908 384.818 348.235C385.955 374.563 442.879 377.176 464.188 377.27C485.497 377.364 520.565 367.22 520.46 388.278C520.355 409.336 533.25 426.026 517.217 454.109C501.184 482.193 472.458 513.063 531.443 567.729C531.443 567.729 632.459 548.773 696.96 439.862C696.96 439.862 677.808 320.16 569.254 367.051C569.254 367.051 528.841 370.903 528.99 350.872C529.139 330.841 540.699 316.629 533.447 313.146C526.195 309.663 504.362 297.418 500.48 324.977C496.598 352.536 437.655 326.676 438.15 291.148C438.644 255.62 440.348 224.594 457.573 224.108C474.799 223.623 475.975 250.862 484.566 238.368C493.157 225.874 488.494 211.872 463.317 192.67C438.14 173.468 431.675 164.716 418.369 115.024C405.063 65.3319 355.612 55.4369 355.612 55.4369C355.612 55.4369 278.312 78.6289 226.665 168.76Z" fill="#97C1FF"/>
<path d="M718.942 220.676C718.942 220.676 708.808 219.235 691.327 219.99C673.846 220.745 655.635 244.172 640.47 249.098C625.304 254.025 629.002 290.174 667.096 291.946C705.19 293.718 726.601 362.11 726.601 362.11C726.601 362.11 745.293 300.87 718.942 220.676Z" fill="#97C1FF"/>
</g>
<path d="M460.935 305.217L557.064 301.065C557.064 301.065 541.08 350.807 579.945 360.441" stroke="#382544" stroke-width="0.75" stroke-miterlimit="10" stroke-linecap="round" stroke-linejoin="round"/>
<path d="M593.374 542.186C538.859 574.53 472.673 576.959 472.673 576.959L468.541 481.308C468.541 481.308 407.639 507.864 403.981 443.802C403.981 443.802 403.361 419.727 414.801 407.44" stroke="#382544" stroke-width="0.75" stroke-miterlimit="10" stroke-linecap="round" stroke-linejoin="round"/>
<path d="M663.572 296.465L732.676 293.48C732.676 293.48 738.856 378.127 691.507 449.545" stroke="#382544" stroke-width="0.75" stroke-miterlimit="10" stroke-linecap="round" stroke-linejoin="round"/>
<path d="M76.485 118.814H68.076L0 794.62H8.409L76.485 118.814Z" fill="#382544"/>
<path d="M212.895 118.814H204.487L136.411 794.62H144.819L212.895 118.814Z" fill="#382544"/>
<path d="M151.266 703.89H15.9451V712.704H151.266V703.89Z" fill="#382544"/>
<path d="M165.195 541.637H29.874V550.451H165.195V541.637Z" fill="#382544"/>
<path d="M184.664 379.383H49.343V388.197H184.664V379.383Z" fill="#382544"/>
<path d="M201.844 217.129H66.5229V225.943H201.844V217.129Z" fill="#382544"/>
<path d="M86.3609 83.7639C74.3059 50.0519 84.5369 24.0519 111.017 24.1799L128.498 24.6409C128.498 24.6409 147.836 25.1119 154.081 49.2989C155.431 54.5279 152.67 58.8119 158.604 64.4939C166.491 72.0459 154.229 74.3219 153.863 76.3449C151.415 89.8969 145.928 104.065 122.398 99.7419L117.924 98.9359L120.955 113.052C120.955 113.052 118.4 129.642 97.6709 119.333C84.3839 112.726 82.4529 105.32 82.4529 105.32L86.3609 83.7639Z" fill="#FFC6BF"/>
<path d="M145.846 50.822C145.892 50.816 145.849 50.812 145.83 50.808C145.811 50.803 145.777 50.801 145.746 50.798C145.685 50.791 145.618 50.787 145.543 50.785C145.403 50.776 145.247 50.782 145.095 50.781C144.784 50.794 144.464 50.815 144.142 50.858C143.498 50.944 142.839 51.079 142.201 51.291C141.565 51.503 140.924 51.753 140.326 52.087C139.712 52.402 139.146 52.799 138.583 53.219L138.493 53.286C137.863 53.756 136.937 53.706 136.427 53.174C135.995 52.724 135.999 52.073 136.393 51.599C136.93 50.952 137.507 50.309 138.186 49.735C138.847 49.143 139.602 48.624 140.399 48.148C141.199 47.672 142.067 47.278 142.977 46.947C143.432 46.781 143.904 46.641 144.388 46.514C144.636 46.457 144.878 46.396 145.14 46.349C145.266 46.323 145.4 46.301 145.54 46.281L145.757 46.251C145.838 46.242 145.896 46.233 146.043 46.226C147.493 46.219 148.624 47.241 148.57 48.51C148.515 49.78 147.296 50.814 145.846 50.822Z" fill="#382544"/>
<path d="M115.944 57.899C115.944 57.899 112.949 55.4549 111.418 56.5639C108.937 58.3599 109.336 62.9729 110.931 66.2719" stroke="#382544" stroke-width="0.75" stroke-miterlimit="10" stroke-linecap="round" stroke-linejoin="round"/>
<path d="M117.282 61.5459C117.282 61.5459 113.398 63.8069 116.193 65.7679C118.988 67.7299 114.661 67.9359 114.661 67.9359" stroke="#382544" stroke-width="0.75" stroke-miterlimit="10" stroke-linecap="round" stroke-linejoin="round"/>
<path d="M86.1609 29.2489C86.1609 29.2489 78.2099 26.1689 76.7729 42.8949C75.0319 63.1529 80.8409 75.2439 85.2819 80.5789C90.6649 87.0459 97.0339 83.0649 97.0339 83.0649C100.926 80.8259 105.314 79.5689 109.791 79.2329C111.583 79.0979 113.066 78.9029 113.482 78.6009C115.161 77.3829 114.822 74.7789 112.853 74.1279C105.635 71.7439 101.981 60.4819 107.665 54.4819C114.49 47.2769 118.704 55.3039 118.704 55.3039C118.704 55.3039 120.949 58.607 123.82 56.464C123.82 56.464 125.329 55.8749 130.929 50.4499C137.657 43.9329 137.378 36.1929 137.378 36.1929C149.589 33.9799 153.342 46.7449 153.342 46.7449C164.901 40.3279 157.331 26.6729 157.331 26.6729C157.331 26.6729 163.529 20.0379 154.214 11.5329C144.899 3.02794 132.708 12.8759 132.708 12.8759C132.708 12.8759 131.504 8.11893 125.823 6.59893C118.227 4.56493 101.981 15.0519 101.981 15.0519C101.981 15.0519 92.4329 9.04694 86.1609 29.2489Z" fill="#382544"/>
<path d="M117.924 98.9359C117.924 98.9359 108.737 96.5429 101.983 91.0339C101.983 91.0339 106.601 107.253 120.409 110.505L117.924 98.9359Z" fill="#382544"/>
<path d="M134.223 62.944C134.223 62.944 141.824 54.299 149.67 60.026C152.259 61.916 152.296 65.706 149.773 67.683C148.285 68.848 146.309 69.864 143.832 70.058C137.497 70.553 134.223 62.944 134.223 62.944Z" fill="white"/>
<mask id="mask4_75_252" style="mask-type:luminance" maskUnits="userSpaceOnUse" x="134" y="58" width="18" height="13">
<path d="M134.223 62.9439C134.223 62.9439 141.87 54.2469 149.741 60.0789C152.282 61.9609 152.316 65.6639 149.84 67.6299C148.345 68.8179 146.346 69.8609 143.831 70.0579C137.497 70.5529 134.223 62.9439 134.223 62.9439Z" fill="white"/>
</mask>
<g mask="url(#mask4_75_252)">
<path d="M151.891 64.061C151.948 67.633 149.282 70.62 145.935 70.732C142.588 70.844 139.828 68.038 139.771 64.466C139.713 60.894 142.38 57.907 145.727 57.795C149.074 57.683 151.834 60.489 151.891 64.061Z" fill="#382544"/>
</g>
<path d="M150.776 64.4919C150.885 62.6979 150.293 60.7889 148.966 59.6709C147.663 58.5149 145.778 58.0709 143.967 58.0029C142.161 57.9229 140.435 58.546 138.81 59.493C137.16 60.416 135.742 61.7729 133.95 62.6479C133.886 62.6789 133.808 62.653 133.777 62.588C133.754 62.542 133.762 62.488 133.793 62.45C134.412 61.67 135.113 60.9959 135.858 60.3579C136.604 59.7229 137.368 59.095 138.195 58.524C139.81 57.352 141.901 56.5549 144.009 56.6549C145.054 56.6899 146.052 56.876 147.052 57.196C148.038 57.522 149.013 58.0279 149.785 58.7859C150.561 59.5359 151.115 60.505 151.395 61.519C151.658 62.546 151.717 63.5729 151.515 64.6199C151.476 64.8229 151.279 64.956 151.076 64.916C150.889 64.88 150.762 64.7109 150.774 64.5259L150.776 64.4919Z" fill="#382544"/>
<path d="M148.701 83.767C148.701 83.767 141.037 84.14 138.297 78.355" stroke="#382544" stroke-width="0.75" stroke-miterlimit="10" stroke-linecap="round" stroke-linejoin="round"/>
<path d="M45.1689 235.904L49.7109 518.039H94.312L113.44 308.651C113.44 308.651 131.097 321.835 160.18 336.723L125.759 417.774C125.759 417.774 143.059 443.063 170.326 435.183C170.326 435.183 207.566 367.661 213.833 318.22C213.833 318.22 199.906 286.884 135.144 226.997C135.144 226.997 80.5389 207.209 45.1689 235.904Z" fill="#382544"/>
<path d="M97.1489 296.174C97.1489 296.174 108.657 306.349 115.996 310.895" stroke="white" stroke-width="0.75" stroke-miterlimit="10" stroke-linecap="round" stroke-linejoin="round"/>
<path d="M54.0699 506.88C55.7659 511.948 58.1299 513.541 58.1299 513.541C59.6579 514.032 81.5329 518.222 88.8199 511.625C91.8349 508.896 97.8969 511.209 96.0189 525.182C94.4449 536.89 100.007 541.637 87.5839 541.637H18.6789C12.9439 541.637 7.58888 538.118 5.88288 532.643C5.56988 531.64 4.71289 529.213 6.66889 526.251C12.9159 516.795 21.4869 516.534 29.8679 516.145C39.1129 515.717 33.5449 518.08 40.0839 512.873C40.0839 512.873 41.1229 508.218 44.4989 504.615C47.4369 501.478 52.7059 502.805 54.0699 506.88Z" fill="#0D9B9A"/>
<path d="M70.4847 534.53C70.4847 534.53 62.4137 525.781 74.2917 515.537" stroke="#382544" stroke-width="0.75" stroke-miterlimit="10" stroke-linecap="round" stroke-linejoin="round"/>
<path d="M12.923 534.53C12.445 517.912 35.828 516.315 35.828 516.315L56.4539 514.177" stroke="#382544" stroke-width="0.75" stroke-miterlimit="10" stroke-linecap="round" stroke-linejoin="round"/>
<path d="M95.8359 534.53H6.66895" stroke="#382544" stroke-width="0.75" stroke-miterlimit="10" stroke-linecap="round" stroke-linejoin="round"/>
<path d="M164.176 432.68C159.225 434.692 156.477 433.935 156.477 433.935C155.11 433.094 137.687 419.218 137.951 409.393C138.06 405.328 132.357 402.232 122.974 412.755C115.111 421.572 107.888 420.441 115.975 429.87L160.835 482.172C164.569 486.525 170.726 488.298 175.993 486.029C176.957 485.614 179.359 484.684 180.333 481.27C183.443 470.373 178.061 463.696 172.9 457.082C167.207 449.786 169.038 455.551 168.732 447.197C168.732 447.197 171.589 443.378 172.126 438.469C172.594 434.197 168.157 431.062 164.176 432.68Z" fill="#0D9B9A"/>
<path d="M132.501 438.222C132.501 438.222 144.397 438.652 144.438 422.967" stroke="#382544" stroke-width="0.75" stroke-miterlimit="10" stroke-linecap="round" stroke-linejoin="round"/>
<path d="M169.976 481.914C182.902 471.458 168.89 452.67 168.89 452.67L157.084 435.623" stroke="#382544" stroke-width="0.75" stroke-miterlimit="10" stroke-linecap="round" stroke-linejoin="round"/>
<path d="M115.996 418.979L174.048 486.661" stroke="#382544" stroke-width="0.75" stroke-miterlimit="10" stroke-linecap="round" stroke-linejoin="round"/>
<path d="M135.144 226.996C135.144 226.996 146.053 184.357 148.221 155.741C150.389 127.126 123.523 99.7999 86.6842 110.726C49.8462 121.652 60.6402 223.377 60.6402 223.377C60.6402 223.377 104.291 237.985 135.144 226.996Z" fill="#0D9B9A"/>
<path d="M122.344 108.167C122.344 108.167 107.648 101.554 87.074 104.493C66.5 107.432 55.845 117.352 52.906 150.785C50.637 176.591 28.914 247.109 19.12 277.942C16.525 286.112 21.451 294.741 29.799 296.687C45.531 300.354 71.431 305.346 98.629 306.183C98.629 306.183 124.243 232.037 135.702 159.239C135.702 159.239 144.754 119.4 122.344 108.167Z" fill="#004761"/>
<path d="M132.653 176.941C132.653 176.941 87.0729 269.314 69.8779 288.108C69.8779 288.108 84.9919 299.869 98.6279 306.185" stroke="#382544" stroke-width="0.75" stroke-miterlimit="10" stroke-linecap="round" stroke-linejoin="round"/>
<path d="M32.0259 236.003C32.0259 236.003 46.1859 187.491 52.2319 156.312" stroke="#382544" stroke-width="0.75" stroke-miterlimit="10"/>
<path d="M146.679 169.678C146.679 169.678 143.403 192.782 138.813 211.537" stroke="#382544" stroke-width="0.75" stroke-miterlimit="10"/>
<path d="M246.544 85.5178C246.544 85.5178 250.426 67.6178 257.458 63.5048C265.215 58.9678 262.502 67.0938 261.169 70.3928C260.977 70.8668 261.466 71.3308 261.928 71.1118C268.416 68.0368 275.916 61.5358 275.916 61.5358C275.916 61.5358 281.2 55.7808 284.206 59.3288C287.361 63.0528 276.112 68.8088 275.314 69.7718C275.314 69.7718 287.594 58.0128 290.439 63.1918C292.504 66.9508 280.771 75.2788 278.79 76.4678C287.813 63.0608 290.574 69.9308 290.574 69.9308C291.6 73.1288 288.061 76.9658 286.474 77.6038C286.796 77.6928 288.559 73.8138 290.029 77.5788C291.787 82.0818 279.914 90.5298 275.379 93.7518C266.411 100.126 256.547 99.8798 256.547 99.8798L249.719 102.413L241.61 87.5668L246.544 85.5178Z" fill="#FFC6BF"/>
<path d="M283.476 63.5039C283.476 63.5039 278.197 68.9939 267.015 76.3599" stroke="#382544" stroke-width="0.75" stroke-miterlimit="10" stroke-linecap="round" stroke-linejoin="round"/>
<path d="M288.748 75.8579C288.748 75.8579 285.477 80.0029 274.296 87.3689" stroke="#382544" stroke-width="0.75" stroke-miterlimit="10" stroke-linecap="round" stroke-linejoin="round"/>
<path d="M261.929 71.1129C261.929 71.1129 270.186 66.8409 275.917 61.5369C275.917 61.5369 281.064 55.6949 284.207 59.3299" stroke="#382544" stroke-width="0.75" stroke-miterlimit="10" stroke-linecap="round" stroke-linejoin="round"/>
<path d="M285.498 62.4958C285.498 62.4958 289.189 60.7238 290.441 63.1938C291.693 65.6638 288.304 68.3369 288.304 68.3369C288.304 68.3369 283.025 73.8268 271.843 81.1928" stroke="#382544" stroke-width="0.75" stroke-miterlimit="10" stroke-linecap="round" stroke-linejoin="round"/>
<path d="M272.598 95.5149C272.598 95.5149 289.797 84.8289 290.201 78.5789" stroke="#382544" stroke-width="0.75" stroke-miterlimit="10" stroke-linecap="round" stroke-linejoin="round"/>
<path d="M109.931 104.762C109.931 104.762 168.484 117.786 197.01 122.379C197.01 122.379 215.794 104.497 248.642 80.2939C248.642 80.2939 258.583 90.6669 265.066 98.8789C265.066 98.8789 231.122 140.37 205.422 156.362C179.722 172.353 126.761 153.769 112.499 149.879C98.2351 145.989 77.1101 101.569 109.931 104.762Z" fill="#004761"/>
<path d="M112.498 149.879C112.498 149.879 148.845 162.298 178.802 162.744" stroke="#382544" stroke-width="0.75" stroke-miterlimit="10"/>
<path d="M255.203 87.3689C255.203 87.3689 262.356 94.6049 265.065 98.8789" stroke="#382544" stroke-width="0.75" stroke-miterlimit="10" stroke-linecap="round" stroke-linejoin="round"/>
<path d="M248.21 118.814C248.21 118.814 234.097 132.613 219.985 145.528" stroke="#382544" stroke-width="0.75" stroke-miterlimit="10" stroke-linecap="round" stroke-linejoin="round"/>
<path d="M136.422 110.505C136.422 110.505 165.96 117.035 184.499 120.197" stroke="#382544" stroke-width="0.75" stroke-miterlimit="10" stroke-linecap="round" stroke-linejoin="round"/>
<path d="M819.13 275.056C827.677 239.454 814.413 214.145 787.505 217.189L769.783 219.581C769.783 219.581 750.174 222.188 746.486 247.466C745.689 252.931 748.968 256.982 743.559 263.413C736.371 271.959 749.089 272.923 749.683 274.94C753.663 288.45 760.801 302.25 784.248 295.266L788.708 293.954L786.144 315.483C786.144 315.483 791.602 325.226 811.543 312.465C824.326 304.285 825.473 296.543 825.473 296.543L819.13 275.056Z" fill="#AD4444"/>
<path d="M755.024 248.108C754.977 248.107 755.019 248.099 755.039 248.092C755.057 248.085 755.092 248.079 755.124 248.073C755.186 248.059 755.253 248.047 755.328 248.038C755.47 248.013 755.629 248.002 755.783 247.985C756.1 247.964 756.428 247.95 756.761 247.959C757.426 247.975 758.11 248.04 758.782 248.186C759.452 248.332 760.131 248.515 760.776 248.789C761.435 249.042 762.054 249.384 762.673 249.749L762.772 249.807C763.465 250.215 764.4 250.062 764.86 249.466C765.25 248.961 765.174 248.299 764.722 247.861C764.105 247.262 763.447 246.672 762.694 246.163C761.957 245.634 761.132 245.189 760.269 244.793C759.403 244.397 758.477 244.092 757.515 243.856C757.034 243.738 756.539 243.647 756.033 243.572C755.775 243.541 755.522 243.506 755.251 243.487C755.12 243.475 754.981 243.467 754.837 243.461L754.613 243.454C754.53 243.454 754.469 243.451 754.32 243.46C752.845 243.612 751.807 244.776 752.002 246.061C752.196 247.343 753.549 248.26 755.024 248.108Z" fill="#382544"/>
<path d="M786.206 252.014C786.206 252.014 788.982 249.2 790.661 250.159C793.381 251.712 793.483 256.445 792.224 259.976" stroke="#382544" stroke-width="0.75" stroke-miterlimit="10" stroke-linecap="round" stroke-linejoin="round"/>
<path d="M785.247 255.869C785.247 255.869 789.444 257.74 786.819 260.042C784.194 262.344 788.615 262.078 788.615 262.078" stroke="#382544" stroke-width="0.75" stroke-miterlimit="10" stroke-linecap="round" stroke-linejoin="round"/>
<path d="M863.638 276.186C876.401 297.559 866.075 307.94 874.417 313.785C907.535 336.988 887.605 369.804 866.178 365.738C866.178 365.738 850.497 294.744 824.708 293.948C824.708 293.948 814.961 297.276 809.954 287.125C804.947 276.974 794.809 273.029 794.809 273.029C792.972 273.089 791.443 273.053 790.986 272.792C789.145 271.739 789.203 269.053 791.133 268.175C798.21 264.956 800.685 253.105 794.246 247.629C786.514 241.054 783.113 249.68 783.113 249.68C783.113 249.68 782.415 250.993 781.167 251.624C779.938 252.247 778.537 251.475 778.072 250.178C777.673 249.065 776.004 247.409 770.148 246.09C757.557 243.254 756.588 232.591 756.588 232.591C756.588 232.591 751.977 234.136 747.398 242.811C735.943 243.761 740.695 224.652 750.951 216.941C750.951 216.941 763.382 211.109 770.3 203.637C777.218 196.165 803.826 195.674 812.645 206.195C823.881 219.6 829.886 211.417 839.571 223.317C839.571 223.317 849.997 236.683 846.254 251.92C842.181 268.51 857.153 265.325 863.638 276.186Z" fill="#382544"/>
<path d="M788.708 293.955C788.708 293.955 797.786 290.511 804.046 284.166C804.046 284.166 801.136 301.164 787.455 305.99L788.708 293.955Z" fill="#382544"/>
<path d="M768.176 259.154C768.176 259.154 759.497 251.201 752.15 257.887C749.726 260.093 750.105 263.951 752.888 265.683C754.529 266.704 756.65 267.519 759.19 267.444C765.685 267.251 768.176 259.154 768.176 259.154Z" fill="white"/>
<mask id="mask5_75_252" style="mask-type:luminance" maskUnits="userSpaceOnUse" x="750" y="255" width="19" height="13">
<path d="M768.176 259.154C768.176 259.154 759.444 251.153 752.083 257.948C749.707 260.141 750.079 263.909 752.813 265.636C754.464 266.679 756.611 267.52 759.189 267.444C765.685 267.251 768.176 259.154 768.176 259.154Z" fill="white"/>
</mask>
<g mask="url(#mask5_75_252)">
<path d="M750.335 262.234C750.67 265.872 753.709 268.616 757.125 268.361C760.54 268.106 763.038 264.95 762.703 261.312C762.368 257.673 759.329 254.93 755.913 255.185C752.498 255.44 750.001 258.596 750.335 262.234Z" fill="#382544"/>
</g>
<path d="M750.788 262.76C750.469 261.719 750.417 260.669 750.572 259.598C750.745 258.538 751.202 257.496 751.907 256.649C752.607 255.795 753.541 255.174 754.506 254.736C755.486 254.301 756.479 254.003 757.536 253.852C759.666 253.519 761.875 254.098 763.645 255.109C764.549 255.598 765.395 256.151 766.223 256.713C767.05 257.278 767.839 257.885 768.556 258.606C768.607 258.656 768.607 258.739 768.557 258.789C768.52 258.826 768.466 258.836 768.42 258.819C766.507 258.118 764.915 256.896 763.136 256.136C761.38 255.35 759.552 254.904 757.721 255.185C755.885 255.454 754.015 256.114 752.814 257.437C751.586 258.725 751.195 260.735 751.507 262.549L751.513 262.584C751.548 262.788 751.411 262.981 751.208 263.016C751.021 263.052 750.842 262.938 750.788 262.76Z" fill="#382544"/>
<path d="M755.748 281.919C755.748 281.919 763.581 281.455 765.73 275.272" stroke="#382544" stroke-width="0.75" stroke-miterlimit="10" stroke-linecap="round" stroke-linejoin="round"/>
<path d="M767.198 498.321L784.1 772.861C784.1 772.861 796.646 777.618 818.441 768.799C818.441 768.799 840.088 675.706 826.57 648.954C825.345 646.53 824.834 643.831 824.883 641.115C825.168 625.339 826.666 576.815 834.385 560.96C843.653 541.924 851.6 495.737 835.736 478.105C819.871 460.472 764.409 465.031 767.198 498.321Z" fill="#97C1FF"/>
<path d="M779.129 499.871L903.864 752.941C903.864 752.941 920.205 753.56 928.642 732.447C928.642 732.447 913.456 638.369 893.159 619.692C889.826 616.625 887.15 612.923 885.831 608.59C880.408 590.777 868.368 548.858 869.859 532.457C871.776 511.372 862.831 465.368 841.745 454.506C820.66 443.644 764.718 469.733 779.129 499.871Z" fill="#97C1FF"/>
<path d="M779.129 499.871L870.504 685.26" stroke="#382544" stroke-width="0.75" stroke-miterlimit="10" stroke-linecap="round" stroke-linejoin="round"/>
<path d="M773.947 607.944L781.575 731.849" stroke="#382544" stroke-width="0.75" stroke-miterlimit="10" stroke-linecap="round" stroke-linejoin="round"/>
<path d="M893.159 619.693C893.159 619.693 905.692 632.784 913.827 665.38" stroke="#382544" stroke-width="0.75" stroke-miterlimit="10" stroke-linecap="round" stroke-linejoin="round"/>
<path d="M821.297 755.404C821.297 755.404 829.103 715.888 830.053 697.284" stroke="#382544" stroke-width="0.75" stroke-miterlimit="10" stroke-linecap="round" stroke-linejoin="round"/>
<path d="M869.773 537.483C869.773 537.483 872.209 517.927 865.3 492.724" stroke="#382544" stroke-width="0.75" stroke-miterlimit="10" stroke-linecap="round" stroke-linejoin="round"/>
<path d="M922.923 742.551C922.923 742.551 893.596 657.493 876.308 628.037C859.02 598.581 817.351 454.93 817.351 454.93" stroke="#382544" stroke-width="0.75" stroke-miterlimit="10" stroke-linecap="round" stroke-linejoin="round"/>
<path d="M806.798 772.537C806.798 772.537 812.006 676.392 810.695 652.789C809.384 629.186 814.599 571.834 814.599 571.834" stroke="#382544" stroke-width="0.75" stroke-miterlimit="10" stroke-linecap="round" stroke-linejoin="round"/>
<path d="M784.612 761.987C786.204 766.745 788.424 768.241 788.424 768.241C789.859 768.702 810.397 772.636 817.238 766.442C820.068 763.879 825.76 766.052 823.997 779.171C822.519 790.164 827.741 794.62 816.078 794.62H751.384C745.999 794.62 740.972 791.316 739.37 786.175C739.077 785.234 738.271 782.954 740.108 780.173C745.973 771.295 754.021 771.05 761.889 770.685C770.569 770.283 765.341 772.501 771.481 767.613C771.481 767.613 772.457 763.243 775.627 759.859C778.385 756.915 783.332 758.161 784.612 761.987Z" fill="#382544"/>
<path d="M800.024 787.948C800.024 787.948 792.446 779.734 803.599 770.116" stroke="white" stroke-width="0.75" stroke-miterlimit="10" stroke-linecap="round" stroke-linejoin="round"/>
<path d="M745.98 787.948C745.531 772.345 767.485 770.846 767.485 770.846L786.85 768.839" stroke="white" stroke-width="0.75" stroke-miterlimit="10" stroke-linecap="round" stroke-linejoin="round"/>
<path d="M823.826 787.948H740.108" stroke="white" stroke-width="0.75" stroke-miterlimit="10" stroke-linecap="round" stroke-linejoin="round"/>
<path d="M898.004 794.343C890.151 793.838 887.953 789.595 886.497 782.135C884.81 773.494 887.119 774.085 896.434 768.906C902.198 765.701 902.814 763.301 903.197 759.733C903.833 753.81 891.987 755.003 899.453 748.215C909.483 739.097 913.826 746.684 913.826 746.684C913.826 746.684 921.476 739.425 924.822 733.095C926.011 730.845 928.913 730.141 931.075 731.483C934.58 733.659 939.251 736.739 942.273 739.437C947.461 744.07 941.161 753.231 925.325 777.556C924.652 778.589 919.082 785.245 912.872 789.776C908.563 792.921 903.335 794.523 898.004 794.343Z" fill="#382544"/>
<path d="M888.14 787.948C907.608 786.542 921.429 772.757 923.884 769.21C928.016 763.238 934.355 752.549 939.513 737.194" stroke="white" stroke-width="0.75" stroke-miterlimit="10" stroke-linecap="round" stroke-linejoin="round"/>
<path d="M916.857 744.856C916.857 744.856 919.785 759.013 928.989 761.027" stroke="white" stroke-width="0.75" stroke-miterlimit="10" stroke-linecap="round" stroke-linejoin="round"/>
<path d="M913.826 746.684C913.826 746.684 912.273 755.453 906.657 763.052C901.04 770.651 888.104 778.68 894.132 787.11" stroke="white" stroke-width="0.75" stroke-miterlimit="10" stroke-linecap="round" stroke-linejoin="round"/>
<path d="M765.679 495.495C765.679 495.495 796.965 510.09 870.377 511.917C873.999 512.007 877.136 509.988 876.11 506.513C871.853 492.096 864.204 461.835 865.299 433.622C866.806 394.819 859.512 293.658 835.344 296.373C814.139 298.755 798.098 305.267 780.406 320.655C762.714 336.043 751.4 373.034 771.596 384.575C771.596 384.575 762.815 447.212 765.679 495.495Z" fill="#004761"/>
<path d="M769.929 398.068C769.929 398.068 765.38 437.249 765.314 471.545" stroke="#382544" stroke-width="0.75" stroke-miterlimit="10" stroke-linecap="round" stroke-linejoin="round"/>
<path d="M765.679 495.495C765.679 495.495 776.122 500.503 794.984 503.733" stroke="#382544" stroke-width="0.75" stroke-miterlimit="10" stroke-linecap="round" stroke-linejoin="round"/>
<path d="M813.98 556.081C813.98 556.081 839.135 553.845 879.638 538.289C883.371 536.855 887.305 532.643 886.172 528.808C881.474 512.898 873.033 479.502 874.242 448.368C875.905 405.546 863.11 285.187 829.351 292.748C813.409 296.319 804.191 303.587 786.145 315.484C764.541 329.726 793.068 364.26 796.586 392.918C796.586 392.918 810.82 502.797 813.98 556.081Z" fill="#0D9B9A"/>
<path d="M824.337 479.468C824.337 479.468 847.363 478.926 863.074 471.883C863.074 471.883 877.702 512.787 850.613 519.56C823.525 526.332 826.234 493.283 824.337 479.468Z" stroke="#382544" stroke-width="0.75" stroke-miterlimit="10" stroke-linecap="round" stroke-linejoin="round"/>
<path d="M805.379 461.667C805.379 461.667 813.256 536.893 813.98 556.081" stroke="#382544" stroke-width="0.75" stroke-miterlimit="10" stroke-linecap="round" stroke-linejoin="round"/>
<path d="M874.363 463.655C874.363 463.655 874.33 453.14 874.414 441.231C874.497 429.322 872.582 410.562 869.673 378.208" stroke="#382544" stroke-width="0.75" stroke-miterlimit="10" stroke-linecap="round" stroke-linejoin="round"/>
<path d="M786.144 315.484L805.379 343.053L800.499 367.155L815.494 399.644L801.385 431.572" stroke="#382544" stroke-width="0.75" stroke-miterlimit="10" stroke-linecap="round" stroke-linejoin="round"/>
<path d="M789.844 313.03C789.844 313.03 808.271 299.488 817.962 296.318" stroke="#382544" stroke-width="0.75" stroke-miterlimit="10" stroke-linecap="round" stroke-linejoin="round"/>
<path d="M680.555 330.57C680.555 330.57 672.152 313.584 664.06 311.227C655.133 308.627 659.901 316.099 662.07 319.074C662.382 319.501 662.008 320.09 661.489 319.987C654.204 318.535 645.041 313.899 645.041 313.899C645.041 313.899 638.289 309.454 636.166 313.771C633.937 318.303 646.675 321.247 647.718 322.012C647.718 322.012 632.434 313.302 630.882 319.217C629.756 323.509 643.627 328.913 645.915 329.608C633.484 318.425 632.443 326.014 632.443 326.014C632.218 329.481 636.736 332.441 638.489 332.682C638.188 332.852 635.442 329.404 634.915 333.551C634.285 338.512 648.327 344.001 653.688 346.093C664.293 350.232 674.129 347.501 674.129 347.501L681.619 348.324L687.35 334.377L680.555 330.57Z" fill="#AD4444"/>
<path d="M637.95 317.776C637.95 317.776 644.63 321.957 657.706 326.534" stroke="#382544" stroke-width="0.75" stroke-miterlimit="10" stroke-linecap="round" stroke-linejoin="round"/>
<path d="M634.322 323.841C634.322 323.841 641.002 328.022 654.078 332.599" stroke="#382544" stroke-width="0.75" stroke-miterlimit="10" stroke-linecap="round" stroke-linejoin="round"/>
<path d="M635.77 331.501C635.77 331.501 640.096 334.837 653.171 339.414" stroke="#382544" stroke-width="0.75" stroke-miterlimit="10" stroke-linecap="round" stroke-linejoin="round"/>
<path d="M739.545 355.091C767.015 343.301 822.497 315.489 822.497 315.489C854.63 304.022 844.613 353.917 831.279 361.412C817.945 368.906 769.475 400.89 739.659 391.312C739.659 391.312 736.002 376.968 739.545 355.091Z" fill="#0D9B9A"/>
<path d="M767.979 391.015C797.93 383.025 831.279 361.411 831.279 361.411C831.279 361.411 847.999 349.842 843.858 333.338" stroke="#382544" stroke-width="0.75" stroke-miterlimit="10" stroke-linecap="round" stroke-linejoin="round"/>
<path d="M822.497 315.489C822.497 315.489 769.36 341.911 751.551 349.751" stroke="#382544" stroke-width="0.75" stroke-miterlimit="10" stroke-linecap="round" stroke-linejoin="round"/>
<path d="M739.659 391.311C739.659 391.311 700.543 372.991 674.131 347.501C674.131 347.501 674.387 339.272 680.555 330.569C680.555 330.569 713.409 343.245 739.545 355.09C739.545 355.09 736.622 378.697 739.659 391.311Z" fill="#AD4444"/>
<path d="M680.555 330.57C680.555 330.57 706.638 340.653 723.091 347.872" stroke="#382544" stroke-width="0.75" stroke-miterlimit="10" stroke-linecap="round" stroke-linejoin="round"/>
<path d="M738.612 365.738C738.612 365.738 737.62 382.011 739.659 391.312" stroke="#382544" stroke-width="0.75" stroke-miterlimit="10" stroke-linecap="round" stroke-linejoin="round"/>
<path d="M755.584 347.809C755.584 347.809 767.416 370.723 764.345 391.797" stroke="#382544" stroke-width="0.75" stroke-miterlimit="10" stroke-linecap="round" stroke-linejoin="round"/>
</svg>
