<svg width="698" height="466" viewBox="0 0 698 466" fill="none" xmlns="http://www.w3.org/2000/svg">
<path d="M296.282 127.034C301.228 121.224 300.529 112.505 294.719 107.559C288.91 102.612 280.191 103.312 275.244 109.121C270.298 114.93 270.997 123.65 276.807 128.596C282.616 133.542 291.335 132.843 296.282 127.034Z" fill="#EEFBFF"/>
<path d="M466.297 130.346H307.911C305.825 122.568 306.12 111.715 314.148 112.358C312.736 104.393 311.39 95.843 314.771 88.494C318.152 81.145 328.335 76.454 334.623 81.542C334.622 69.575 344.118 58.697 355.696 55.672C367.274 52.647 380.077 56.836 388.777 65.053C397.477 73.27 402.303 85.046 403.551 96.948C413.16 91.31 427.496 98.321 428.947 109.366C432.235 105.447 438.256 104.126 442.882 106.31C447.508 108.493 450.316 113.981 449.38 119.01C453.216 116.588 458.709 117.235 461.879 120.48C465.049 123.728 468.81 126.569 466.297 130.346Z" fill="#EEFBFF"/>
<path d="M673.086 111.027H494.057C495.974 100.988 504.138 93.45 514.136 95.567C510.091 77.975 520.93 58.211 537.939 52.166C554.948 46.121 575.829 54.61 583.795 70.808C590.499 67.916 598.795 69.156 604.36 73.883C609.925 78.609 612.491 86.595 610.722 93.679C620.446 93.774 630.171 93.868 639.895 93.963C647.279 94.035 654.876 94.148 661.697 96.978C668.518 99.808 672.886 103.645 673.086 111.027Z" fill="#EEFBFF"/>
<path d="M51.7861 185.137H189.339C193.507 180.399 189.053 169.41 183.441 166.524C177.829 163.638 171.101 164.451 164.882 165.519C171.278 150.245 158.434 130.49 141.878 130.138C125.322 129.786 111.65 148.977 117.391 164.509C106.225 160.776 92.6711 167.453 88.8271 178.581C84.0041 172.941 76.0651 170.155 68.7761 171.543C61.4851 172.932 54.1981 178.119 51.7861 185.137Z" fill="#EEFBFF"/>
<path d="M481.553 426.31L481.349 442.432C481.349 442.432 469.717 449.983 466.247 451.819C462.778 453.656 461.962 456.309 461.553 459.574C461.145 462.839 475.634 463.247 481.756 460.798C487.878 458.349 490.123 459.778 493.184 459.37C496.245 458.962 504.204 459.982 504.408 453.452L503.184 438.35L504.204 416.718L481.553 426.31Z" fill="#004761"/>
<path d="M493.185 457.125C490.124 457.533 487.879 456.105 481.757 458.554C476.154 460.795 463.577 460.636 461.791 458.091C461.698 458.572 461.617 459.063 461.553 459.574C461.145 462.839 475.634 463.247 481.756 460.798C487.878 458.349 490.123 459.778 493.184 459.37C496.245 458.962 504.204 459.982 504.408 453.452L504.303 452.156C503.377 457.623 496.087 456.738 493.185 457.125Z" fill="#D1A78B"/>
<path d="M556.681 426.539L556.885 442.661C556.885 442.661 568.517 450.212 571.987 452.048C575.456 453.885 576.273 456.538 576.681 459.803C577.089 463.068 562.6 463.476 556.478 461.027C550.356 458.578 548.111 460.007 545.05 459.599C541.989 459.191 534.03 460.211 533.826 453.681L535.05 438.579L534.03 416.947L556.681 426.539Z" fill="#004761"/>
<path d="M545.049 457.354C548.11 457.762 550.355 456.334 556.477 458.783C562.08 461.024 574.657 460.865 576.443 458.32C576.536 458.801 576.617 459.292 576.681 459.804C577.089 463.069 562.6 463.477 556.478 461.028C550.356 458.579 548.111 460.007 545.05 459.6C541.989 459.192 534.03 460.212 533.826 453.682L533.931 452.386C534.857 457.853 542.148 456.967 545.049 457.354Z" fill="#D1A78B"/>
<path d="M486.513 239C486.513 239 480.068 303.457 479.547 333.123C479.027 362.789 478.658 435.211 478.658 435.211H508.324L514.619 343.015L521.904 287.923L526.068 233.796L486.513 239Z" fill="#544966"/>
<path d="M565.805 149.883C565.805 149.883 557.004 137.757 539.683 134.678C522.139 131.559 518.63 133.898 518.63 133.898C518.63 133.898 515.121 131.559 497.577 134.678C480.256 137.757 471.455 149.883 471.455 149.883L477.693 184.192C484.711 193.159 481.202 218.891 480.812 224.349C480.422 229.807 485.101 230.977 485.101 230.977L482.372 238.385C488.61 246.182 518.63 248.912 518.63 248.912C518.63 248.912 548.651 246.183 554.888 238.385L552.159 230.977C552.159 230.977 556.838 229.807 556.448 224.349C556.058 218.891 552.549 193.159 559.567 184.192L565.805 149.883Z" fill="#004761"/>
<path d="M555.763 123.204C554.879 118.413 550.884 114.877 548.689 110.528C545.23 103.674 546.462 95.311 543.715 88.143C541.496 82.353 536.609 77.649 530.738 75.653C527.053 74.4 523.289 75.247 519.477 76.252C515.665 75.247 511.901 74.4 508.216 75.653C502.346 77.649 497.458 82.353 495.239 88.143C492.492 95.312 493.723 103.675 490.265 110.528C488.07 114.877 484.075 118.414 483.191 123.204C482.541 126.73 483.746 130.395 485.721 133.387C487.696 136.379 490.393 138.81 493.06 141.207C495.32 143.238 494.51 147.11 493.691 150.036C492.872 152.962 491.954 156.153 493.142 158.95C493.98 160.923 495.727 162.331 497.125 163.957C498.523 165.583 499.637 167.824 498.857 169.821C502.332 169.616 504.174 165.185 504.315 161.706C504.456 158.227 503.472 154.696 504.213 151.295C505.092 147.26 508.203 144.164 510.865 141.008C513.003 138.473 516.728 137.67 517.681 135.361C517.518 139.164 518.415 135.515 519.754 139.079C521.093 135.515 521.439 139.164 521.275 135.361C522.227 137.671 525.952 138.474 528.09 141.008C530.752 144.164 533.864 147.26 534.742 151.295C535.483 154.697 534.5 158.228 534.64 161.706C534.781 165.185 536.622 169.616 540.098 169.821C539.318 167.824 540.432 165.583 541.83 163.957C543.228 162.331 544.975 160.924 545.813 158.95C547.001 156.153 546.083 152.962 545.264 150.036C544.445 147.11 543.635 143.238 545.895 141.207C548.561 138.811 551.259 136.379 553.234 133.387C555.209 130.395 556.414 126.729 555.763 123.204Z" fill="#EF7265"/>
<path d="M523.847 143.192L523.208 143.641C519.857 145.994 515.357 145.863 512.149 143.319C509.896 141.532 508.602 138.799 508.649 135.924L508.884 121.385H528.011L527.779 135.774C527.731 138.733 526.269 141.491 523.847 143.192Z" fill="#F4956C"/>
<path d="M527.89 128.891L528.011 121.385H508.884L508.766 128.695C511.287 130.26 514.174 131.24 517.134 131.457C520.869 131.73 524.669 130.796 527.89 128.891Z" fill="#464B60"/>
<path d="M527.797 92.03H509.097C505.63 92.03 502.794 94.866 502.794 98.333V112.19C502.794 120.733 509.784 127.723 518.327 127.723H518.568C527.111 127.723 534.101 120.733 534.101 112.19V98.333C534.101 94.866 531.264 92.03 527.797 92.03Z" fill="#FFAE85"/>
<path d="M506.111 105.673C507.065 108.336 505.919 111.183 503.551 112.031C501.183 112.879 498.49 111.407 497.536 108.744C496.582 106.081 497.728 103.234 500.096 102.386C502.464 101.538 505.157 103.01 506.111 105.673Z" fill="#FFAE85"/>
<path d="M530.784 105.673C529.83 108.336 530.976 111.183 533.344 112.031C535.712 112.879 538.405 111.407 539.359 108.744C540.313 106.081 539.167 103.234 536.799 102.386C534.431 101.538 531.738 103.01 530.784 105.673Z" fill="#FFAE85"/>
<path d="M523.805 104.083C524.046 104.015 524.288 103.966 524.534 103.919C524.661 103.9 524.657 103.9 524.523 103.918C524.585 103.911 524.647 103.904 524.709 103.898C524.833 103.887 524.958 103.879 525.082 103.875C525.331 103.867 525.581 103.872 525.829 103.891C525.878 103.895 526.275 103.945 526.005 103.904C526.113 103.92 526.22 103.939 526.328 103.959C526.557 104.004 526.785 104.061 527.008 104.129C527.127 104.165 527.245 104.205 527.363 104.248C527.421 104.269 527.48 104.292 527.538 104.315C527.424 104.265 527.423 104.265 527.538 104.315C527.764 104.421 527.985 104.531 528.2 104.659C528.307 104.723 528.413 104.789 528.516 104.859C528.551 104.883 528.865 105.114 528.674 104.965C529.121 105.313 529.779 105.433 530.209 104.965C530.566 104.576 530.687 103.803 530.209 103.43C528.233 101.892 525.663 101.305 523.229 101.989C522.683 102.143 522.29 102.764 522.471 103.324C522.65 103.882 523.22 104.247 523.805 104.083Z" fill="#EF7265"/>
<path d="M526.948 108.042C526.948 108.997 526.174 109.772 525.218 109.772C524.263 109.772 523.488 108.998 523.488 108.042C523.488 107.087 524.262 106.312 525.218 106.312C526.174 106.312 526.948 107.086 526.948 108.042Z" fill="#2F324F"/>
<path d="M513.436 104.083C513.195 104.015 512.952 103.966 512.707 103.919C512.58 103.9 512.584 103.9 512.718 103.918C512.656 103.911 512.594 103.904 512.532 103.898C512.408 103.887 512.284 103.879 512.159 103.875C511.91 103.867 511.66 103.872 511.412 103.891C511.363 103.895 510.966 103.945 511.236 103.904C511.128 103.92 511.021 103.939 510.913 103.959C510.684 104.004 510.456 104.061 510.233 104.129C510.114 104.165 509.995 104.205 509.878 104.248C509.819 104.269 509.761 104.292 509.703 104.315C509.818 104.265 509.818 104.265 509.704 104.315C509.478 104.421 509.256 104.531 509.041 104.659C508.934 104.723 508.828 104.789 508.725 104.859C508.69 104.883 508.376 105.114 508.567 104.965C508.12 105.313 507.462 105.433 507.033 104.965C506.676 104.576 506.555 103.803 507.033 103.43C509.009 101.892 511.579 101.305 514.013 101.989C514.559 102.143 514.952 102.764 514.771 103.324C514.591 103.882 514.022 104.247 513.436 104.083Z" fill="#EF7265"/>
<path d="M510.293 108.042C510.293 108.997 511.067 109.772 512.023 109.772C512.978 109.772 513.753 108.998 513.753 108.042C513.753 107.087 512.979 106.312 512.023 106.312C511.067 106.312 510.293 107.086 510.293 108.042Z" fill="#2F324F"/>
<path d="M518.279 114.55C518.092 114.55 517.93 114.542 517.799 114.535C517.321 114.513 516.951 114.106 516.975 113.626C516.997 113.148 517.345 112.748 517.884 112.802C518.411 112.821 519.147 112.828 519.368 112.516C519.553 112.26 519.456 111.728 519.324 111.19L517.635 104.32C517.52 103.855 517.804 103.384 518.271 103.271C518.744 103.163 519.209 103.441 519.32 103.907L521.009 110.777C521.165 111.409 521.455 112.59 520.78 113.529C520.14 114.419 519.03 114.55 518.279 114.55Z" fill="#F4956C"/>
<path d="M523.186 116.972H513.636C514.476 118.634 516.307 120.074 518.169 120.074C520.913 120.073 522.583 118.761 523.186 116.972Z" fill="white"/>
<path d="M518.079 95.402C518.703 94.523 519.367 93.508 520.425 93.302C521.74 93.046 522.883 94.163 523.756 95.178C525.625 97.351 527.494 99.524 529.362 101.697C530.341 102.835 531.401 104.028 532.841 104.453C534.489 104.939 536.341 104.257 537.52 103.007C538.699 101.757 539.268 100.028 539.401 98.315C539.861 92.373 535.232 86.884 529.639 84.825C524.046 82.766 517.787 83.531 512.075 85.231C507.918 86.468 503.696 88.344 501.157 91.861C498.563 95.456 497.989 102.504 503.486 103.241C508.827 103.955 515.181 99.489 518.079 95.402Z" fill="#EF7265"/>
<path d="M565.805 149.883L602.574 193.2L582.277 214.018L555.734 183.311L557.295 151.043L565.805 149.883Z" fill="#004761"/>
<path d="M471.353 149.883L434.584 193.2L454.882 214.018L481.425 183.311L479.863 151.043L471.353 149.883Z" fill="#004761"/>
<path d="M553.932 239C553.932 239 560.377 303.457 560.898 333.123C561.418 362.789 561.787 435.211 561.787 435.211H532.121L525.826 343.015L518.541 287.923L514.377 233.796L553.932 239Z" fill="#544966"/>
<path d="M481.778 186.542C481.77 186.542 481.762 186.542 481.754 186.542C481.468 186.528 481.247 186.286 481.259 185.998C481.754 175.072 481.397 164.018 480.202 153.148C480.17 152.862 480.374 152.606 480.66 152.576C480.972 152.513 481.202 152.748 481.232 153.034C482.435 163.958 482.793 175.063 482.297 186.046C482.285 186.325 482.054 186.542 481.778 186.542Z" fill="#8E3F3F"/>
<path d="M557.38 188.624C557.098 188.624 556.867 188.399 556.861 188.117L555.989 152.282C555.983 151.996 556.208 151.759 556.496 151.751C556.5 151.751 556.504 151.751 556.508 151.751C556.79 151.751 557.021 151.976 557.027 152.258L557.899 188.093C557.905 188.379 557.68 188.616 557.392 188.624C557.388 188.624 557.384 188.624 557.38 188.624Z" fill="#8E3F3F"/>
<path d="M478.991 182.758C478.796 182.758 478.61 182.649 478.521 182.46L472.255 169.135C472.133 168.875 472.245 168.567 472.504 168.444C472.759 168.33 473.072 168.434 473.195 168.693L479.461 182.018C479.583 182.278 479.471 182.586 479.212 182.71C479.141 182.742 479.066 182.758 478.991 182.758Z" fill="#8E3F3F"/>
<path d="M560.551 181.125C560.541 181.125 560.531 181.125 560.521 181.125C560.235 181.107 560.016 180.861 560.032 180.575C560.251 176.913 561.839 173.303 564.392 170.673C564.593 170.468 564.925 170.464 565.126 170.661C565.333 170.862 565.337 171.19 565.138 171.395C562.755 173.851 561.273 177.219 561.07 180.636C561.052 180.912 560.825 181.125 560.551 181.125Z" fill="#8E3F3F"/>
<path d="M151.886 167.362L137.725 200.623C138.529 207.639 139.036 214.778 139.875 221.859C146.413 222.112 152.654 221.992 156.583 221.047C156.583 221.047 168.709 199.799 171.873 184.241C175.036 168.682 175.036 168.682 175.036 168.682L151.886 167.362Z" fill="#F4956C"/>
<path d="M282.924 161.136L317.259 212.375L291.904 220.298L259.153 170.116L282.924 161.136Z" fill="#F4956C"/>
<path d="M175.798 426.31L175.594 442.432C175.594 442.432 163.962 449.983 160.492 451.819C157.023 453.656 156.207 456.309 155.798 459.574C155.39 462.839 169.879 463.247 176.001 460.798C182.123 458.349 184.368 459.778 187.429 459.37C190.49 458.962 198.449 459.982 198.653 453.452L197.429 438.35L198.449 416.718L175.798 426.31Z" fill="#405C77"/>
<path d="M187.43 457.125C184.369 457.533 182.124 456.105 176.002 458.554C170.399 460.795 157.822 460.636 156.036 458.091C155.943 458.572 155.862 459.063 155.798 459.574C155.39 462.839 169.879 463.247 176.001 460.798C182.123 458.349 184.368 459.778 187.429 459.37C190.49 458.962 198.449 459.982 198.653 453.452L198.548 452.156C197.622 457.623 190.332 456.738 187.43 457.125Z" fill="#D1A78B"/>
<path d="M262.004 426.539L262.208 442.661C262.208 442.661 273.84 450.212 277.31 452.048C280.779 453.885 281.596 456.538 282.004 459.803C282.412 463.068 267.923 463.476 261.801 461.027C255.679 458.578 253.434 460.007 250.373 459.599C247.312 459.191 239.353 460.211 239.149 453.681L240.374 438.579L239.354 416.947L262.004 426.539Z" fill="#405C77"/>
<path d="M250.372 457.354C253.433 457.762 255.678 456.334 261.8 458.783C267.403 461.024 279.98 460.865 281.766 458.32C281.859 458.801 281.94 459.292 282.004 459.804C282.412 463.069 267.923 463.477 261.801 461.028C255.679 458.579 253.434 460.007 250.373 459.6C247.312 459.192 239.353 460.212 239.149 453.682L239.254 452.386C240.179 457.853 247.47 456.967 250.372 457.354Z" fill="#D1A78B"/>
<path d="M256.253 228.69L222.325 217.234L219.705 231.546L217.085 217.234L183.157 228.69C173.904 268.346 174.345 438.427 174.345 438.427H201.664L219.705 263.5L237.747 438.427H265.066C265.066 438.427 265.506 268.347 256.253 228.69Z" fill="#4F5960"/>
<path d="M183.232 249.953L183.091 248.919C190.374 247.936 196.236 240.901 195.894 233.559L196.934 233.51C197.302 241.37 191.027 248.901 183.232 249.953Z" fill="#3D4951"/>
<path d="M219.809 233.537H218.767V255.201H219.809V233.537Z" fill="#3D4951"/>
<path d="M221.284 250.313C220.08 250.313 218.445 249.892 216.735 249.45C214.852 248.964 212.911 248.457 211.923 248.664L211.683 247.65C217.794 246.001 223.829 243.882 229.62 241.35L230.037 242.307C225.07 244.477 219.927 246.347 214.708 247.88C215.431 248.037 216.205 248.236 216.995 248.44C218.878 248.927 220.824 249.433 221.807 249.226L222.017 250.248C221.796 250.293 221.551 250.313 221.284 250.313Z" fill="#3D4951"/>
<path d="M198.142 430.416H177.429V431.458H198.142V430.416Z" fill="#3D4951"/>
<path d="M261.152 429.535H241.319V430.577H261.152V429.535Z" fill="#3D4951"/>
<path d="M256.22 250.708C252.085 250.325 248.197 248.268 245.554 245.066C242.912 241.86 241.632 237.653 242.043 233.523L243.079 233.625C242.696 237.482 243.891 241.411 246.358 244.403C248.826 247.393 252.455 249.313 256.316 249.671L256.22 250.708Z" fill="#3D4951"/>
<path d="M262.998 180.41L289.438 166.464C289.438 166.464 273.748 137.409 267.356 132.179C260.964 126.949 244.832 120.604 228.492 118.111L219.706 125.787L210.92 118.111C194.58 120.604 178.448 126.949 172.056 132.179C165.664 137.409 149.974 166.464 149.974 166.464L176.414 180.41L182.516 171.693C182.516 171.693 185.131 217.309 181.644 223.12C178.157 228.931 181.935 231.546 181.935 231.546H219.706H257.477C257.477 231.546 261.254 228.931 257.767 223.12C254.28 217.309 256.895 171.693 256.895 171.693L262.998 180.41Z" fill="#004761"/>
<path d="M257.233 156.525H182V171.138H257.233V156.525Z" fill="#CFE8FF"/>
<path d="M220.564 134.502C229.27 134.404 237.614 128.767 241.241 120.813C237.121 119.706 232.817 118.77 228.491 118.11L219.705 125.786L210.919 118.11C206.969 118.713 203.035 119.544 199.244 120.527C202.855 128.801 211.583 134.603 220.564 134.502Z" fill="#7FAFDB"/>
<path d="M224.95 124.793L224.374 125.197C221.355 127.317 217.302 127.199 214.411 124.907C212.381 123.297 211.216 120.835 211.258 118.245L211.47 105.147H228.701L228.492 118.11C228.448 120.777 227.132 123.261 224.95 124.793Z" fill="#F4956C"/>
<path d="M228.628 111.555L228.701 105.148H211.47L211.393 111.801C214.142 113.408 217.331 114.259 220.513 114.122C223.383 113.998 226.192 113.076 228.628 111.555Z" fill="#464B60"/>
<path d="M228.507 78.703H211.661C208.538 78.703 205.983 81.258 205.983 84.381V96.864C205.983 104.56 212.28 110.857 219.976 110.857H220.193C227.889 110.857 234.186 104.56 234.186 96.864V84.381C234.186 81.258 231.63 78.703 228.507 78.703Z" fill="#FFAE85"/>
<path d="M208.972 90.994C209.831 93.393 208.799 95.958 206.666 96.722C204.533 97.486 202.107 96.16 201.248 93.761C200.389 91.362 201.421 88.797 203.554 88.033C205.686 87.269 208.112 88.595 208.972 90.994Z" fill="#FFAE85"/>
<path d="M231.199 90.994C230.34 93.393 231.372 95.958 233.505 96.722C235.638 97.486 238.064 96.16 238.923 93.761C239.783 91.362 238.75 88.797 236.617 88.033C234.484 87.269 232.058 88.595 231.199 90.994Z" fill="#FFAE85"/>
<path d="M205.506 90.012C207.589 89.959 209.468 88.545 210.519 86.746C211.57 84.947 211.902 82.815 211.958 80.732C214.682 83.07 218.33 85.634 221.868 86.243C221.372 84.935 221.203 83.504 221.381 82.117C223.894 84.047 226.93 85.291 230.075 85.677C229.72 84.818 229.365 83.959 229.009 83.101C230.619 85.092 232.229 87.084 233.839 89.075C237.628 82.018 236.814 73.387 230.573 68.367C224.332 63.346 214.527 63.473 208.4 68.632C202.274 73.79 201.685 82.973 205.506 90.012Z" fill="#BC864B"/>
<path d="M224.912 89.561C225.129 89.5 225.348 89.455 225.569 89.413C225.683 89.396 225.68 89.396 225.559 89.412C225.615 89.405 225.671 89.4 225.726 89.394C225.838 89.384 225.95 89.377 226.062 89.373C226.287 89.365 226.511 89.37 226.735 89.388C226.779 89.391 227.136 89.437 226.894 89.4C226.991 89.415 227.088 89.431 227.185 89.45C227.392 89.491 227.596 89.541 227.798 89.603C227.905 89.636 228.012 89.672 228.117 89.71C228.17 89.729 228.222 89.749 228.274 89.77C228.17 89.725 228.17 89.725 228.273 89.77C228.477 89.865 228.677 89.965 228.871 90.08C228.967 90.137 229.062 90.197 229.155 90.26C229.187 90.281 229.47 90.49 229.297 90.356C229.7 90.669 230.292 90.778 230.679 90.356C231.001 90.006 231.11 89.309 230.679 88.974C228.899 87.588 226.584 87.059 224.391 87.676C223.899 87.814 223.545 88.374 223.708 88.878C223.872 89.38 224.384 89.709 224.912 89.561Z" fill="#BC864B"/>
<path d="M227.743 93.128C227.743 93.988 227.045 94.686 226.185 94.686C225.324 94.686 224.627 93.988 224.627 93.128C224.627 92.267 225.325 91.57 226.185 91.57C227.046 91.57 227.743 92.267 227.743 93.128Z" fill="#2F324F"/>
<path d="M215.57 89.561C215.353 89.5 215.134 89.455 214.913 89.413C214.799 89.396 214.802 89.396 214.923 89.412C214.867 89.405 214.812 89.4 214.756 89.394C214.644 89.384 214.532 89.377 214.42 89.373C214.196 89.365 213.971 89.37 213.747 89.388C213.703 89.391 213.346 89.437 213.588 89.4C213.491 89.415 213.394 89.431 213.297 89.45C213.09 89.491 212.886 89.541 212.684 89.603C212.577 89.636 212.47 89.672 212.365 89.71C212.312 89.729 212.26 89.749 212.208 89.77C212.312 89.725 212.312 89.725 212.209 89.77C212.005 89.865 211.805 89.965 211.612 90.08C211.515 90.137 211.421 90.197 211.328 90.26C211.296 90.281 211.013 90.49 211.186 90.356C210.784 90.669 210.191 90.778 209.804 90.356C209.482 90.006 209.373 89.309 209.804 88.974C211.584 87.588 213.899 87.059 216.092 87.676C216.584 87.814 216.938 88.374 216.775 88.878C216.61 89.38 216.098 89.709 215.57 89.561Z" fill="#BC864B"/>
<path d="M212.738 93.128C212.738 93.988 213.436 94.686 214.296 94.686C215.157 94.686 215.854 93.988 215.854 93.128C215.854 92.267 215.156 91.57 214.296 91.57C213.436 91.57 212.738 92.267 212.738 93.128Z" fill="#2F324F"/>
<path d="M219.932 98.991C219.764 98.991 219.617 98.983 219.5 98.977C219.069 98.957 218.736 98.591 218.758 98.158C218.778 97.727 219.091 97.367 219.577 97.416C220.052 97.433 220.715 97.439 220.913 97.158C221.079 96.927 220.992 96.448 220.873 95.964L219.352 89.775C219.248 89.357 219.505 88.932 219.925 88.83C220.351 88.732 220.77 88.983 220.87 89.403L222.391 95.592C222.532 96.162 222.793 97.225 222.185 98.071C221.609 98.873 220.609 98.991 219.932 98.991Z" fill="#F4956C"/>
<path d="M224.354 101.173H215.751C216.508 102.67 218.157 103.967 219.835 103.967C222.306 103.967 223.81 102.785 224.354 101.173Z" fill="white"/>
<path d="M182.301 172.989C182.026 172.989 181.797 172.774 181.783 172.496C181.127 159.967 180.785 147.251 180.767 134.702C180.767 134.416 180.998 134.183 181.285 134.183H181.286C181.572 134.183 181.805 134.414 181.805 134.702C181.823 147.232 182.164 159.931 182.819 172.443C182.834 172.729 182.614 172.972 182.328 172.989C182.319 172.989 182.31 172.989 182.301 172.989Z" fill="#526C7F"/>
<path d="M182.01 168.976C181.791 168.976 181.587 168.836 181.516 168.617L174.761 147.768C174.673 147.494 174.822 147.202 175.095 147.113C175.372 147.028 175.662 147.176 175.749 147.448L182.504 168.297C182.592 168.571 182.443 168.863 182.17 168.952C182.116 168.968 182.062 168.976 182.01 168.976Z" fill="#526C7F"/>
<path d="M257.031 172.989C257.022 172.989 257.013 172.989 257.004 172.989C256.718 172.973 256.498 172.729 256.513 172.443C257.169 159.931 257.51 147.232 257.527 134.702C257.527 134.414 257.76 134.183 258.046 134.183H258.047C258.333 134.183 258.565 134.416 258.565 134.702C258.548 147.251 258.206 159.968 257.549 172.496C257.535 172.774 257.306 172.989 257.031 172.989Z" fill="#526C7F"/>
<path d="M257.322 168.976C257.269 168.976 257.215 168.968 257.162 168.952C256.889 168.863 256.74 168.571 256.828 168.297L263.584 147.448C263.672 147.176 263.962 147.028 264.238 147.113C264.511 147.202 264.66 147.494 264.571 147.768L257.815 168.617C257.745 168.836 257.541 168.976 257.322 168.976Z" fill="#526C7F"/>
<path d="M316.991 418.497L316.727 439.378C316.727 439.378 301.661 449.158 297.167 451.537C292.674 453.916 291.616 457.352 291.088 461.581C290.559 465.81 309.326 466.339 317.256 463.167C325.186 459.995 328.093 461.845 332.058 461.317C336.023 460.788 346.331 462.11 346.595 453.652L345.009 434.092L346.331 406.074L316.991 418.497Z" fill="#A07453"/>
<path d="M332.058 458.409C328.093 458.938 325.186 457.088 317.256 460.259C309.999 463.162 293.709 462.956 291.396 459.659C291.276 460.282 291.171 460.918 291.088 461.58C290.559 465.809 309.326 466.338 317.256 463.166C325.186 459.994 328.093 461.844 332.058 461.316C336.023 460.787 346.331 462.109 346.595 453.651L346.459 451.972C345.259 459.055 335.816 457.908 332.058 458.409Z" fill="#D1A78B"/>
<path d="M425.405 132.506C417.556 126.317 407.668 121.606 399.345 118.339C389.947 114.65 379.975 112.687 369.882 112.428L369.691 112.423L367.1 119.549L364.509 112.423L364.318 112.428C354.225 112.687 344.253 114.65 334.855 118.339C326.532 121.606 316.644 126.318 308.795 132.506C291.951 145.787 270.897 190.811 270.897 190.811L299.402 198.908C307.176 183.684 322.724 164.573 322.724 164.573L331.146 211.541H367.101H403.056L411.478 164.573C411.478 164.573 427.026 183.684 434.8 198.908L463.305 190.811C463.303 190.811 442.248 145.786 425.405 132.506Z" fill="#004761"/>
<path d="M386.904 79.505C386.947 73.995 382.925 68.627 378.323 65.598C378.981 65.51 379.407 64.671 379.092 64.087C378.901 63.733 378.524 63.524 378.159 63.355C375.914 62.32 372.827 62.1 370.444 62.754C367.357 60.835 363.579 60.054 359.984 60.594C359.095 60.728 358.161 60.971 357.552 61.632C356.943 62.293 356.847 63.489 357.571 64.021C357.946 64.296 358.516 64.414 358.631 64.865C358.743 65.306 358.31 65.688 357.902 65.888C356.401 66.628 354.612 66.573 353.09 67.268C352.352 67.606 351.673 68.143 351.332 68.879C350.991 69.616 351.052 70.567 351.612 71.154C352.173 71.741 353.25 71.796 353.769 71.172C351.314 73.815 349.514 77.166 349.18 80.757C348.845 84.348 350.115 88.161 352.873 90.485C360.528 96.936 373.108 93.116 382.882 90.95L384.304 89.29C385.296 86.052 385.372 82.539 384.523 79.261C385.193 79.786 386.802 80.614 386.904 79.505Z" fill="#2F324F"/>
<path d="M355.412 86.018C353.832 84.307 351.516 84.143 350.24 85.652C348.964 87.162 349.21 89.772 350.79 91.484C352.37 93.195 354.686 93.359 355.962 91.85C357.239 90.34 356.993 87.73 355.412 86.018Z" fill="#FFAE85"/>
<path d="M380.556 86.018C382.136 84.307 384.452 84.143 385.728 85.652C387.004 87.162 386.758 89.772 385.178 91.484C383.598 93.195 381.282 93.359 380.006 91.85C378.729 90.34 378.975 87.73 380.556 86.018Z" fill="#FFAE85"/>
<path d="M372.83 119.417L372.257 119.82C369.249 121.932 365.211 121.814 362.331 119.531C360.309 117.928 359.148 115.475 359.189 112.894L359.4 99.845H376.567L376.358 112.759C376.316 115.415 375.004 117.89 372.83 119.417Z" fill="#F4956C"/>
<path d="M376.477 106.943L376.567 99.845H359.4L359.324 106.087C361.924 107.591 364.874 108.493 367.875 108.63C370.823 108.764 373.789 108.159 376.477 106.943Z" fill="#464B60"/>
<path d="M376.376 77.652H359.592C356.481 77.652 353.935 80.197 353.935 83.309V91.593C353.935 99.26 360.208 105.534 367.876 105.534H368.092C375.76 105.534 382.033 99.261 382.033 91.593V83.309C382.033 80.197 379.487 77.652 376.376 77.652Z" fill="#FFAE85"/>
<path d="M372.636 84.852C372.852 84.791 373.07 84.747 373.291 84.705C373.405 84.688 373.401 84.688 373.281 84.704C373.337 84.697 373.392 84.692 373.448 84.686C373.559 84.676 373.671 84.669 373.783 84.665C374.007 84.657 374.231 84.662 374.454 84.68C374.498 84.683 374.854 84.728 374.612 84.692C374.709 84.707 374.805 84.723 374.902 84.742C375.108 84.782 375.312 84.833 375.513 84.895C375.62 84.928 375.726 84.963 375.831 85.002C375.884 85.021 375.936 85.041 375.988 85.062C375.885 85.017 375.884 85.017 375.987 85.062C376.19 85.157 376.389 85.256 376.582 85.371C376.678 85.428 376.773 85.488 376.865 85.55C376.896 85.571 377.179 85.779 377.007 85.645C377.408 85.957 377.998 86.065 378.384 85.645C378.705 85.296 378.813 84.602 378.384 84.268C376.61 82.887 374.304 82.361 372.119 82.974C371.629 83.112 371.276 83.67 371.439 84.172C371.6 84.672 372.111 85 372.636 84.852Z" fill="#2F324F"/>
<path d="M375.458 88.406C375.458 89.263 374.763 89.958 373.906 89.958C373.049 89.958 372.354 89.263 372.354 88.406C372.354 87.549 373.049 86.854 373.906 86.854C374.763 86.853 375.458 87.548 375.458 88.406Z" fill="#2F324F"/>
<path d="M363.329 84.852C363.113 84.791 362.895 84.747 362.674 84.705C362.56 84.688 362.564 84.688 362.684 84.704C362.628 84.697 362.573 84.692 362.517 84.686C362.406 84.676 362.294 84.669 362.182 84.665C361.958 84.657 361.734 84.662 361.511 84.68C361.467 84.683 361.111 84.728 361.353 84.692C361.256 84.707 361.16 84.723 361.063 84.742C360.857 84.782 360.653 84.833 360.452 84.895C360.345 84.928 360.239 84.963 360.134 85.002C360.081 85.021 360.029 85.041 359.977 85.062C360.08 85.017 360.081 85.017 359.978 85.062C359.775 85.157 359.576 85.256 359.383 85.371C359.287 85.428 359.192 85.488 359.1 85.55C359.069 85.571 358.787 85.779 358.959 85.645C358.558 85.957 357.967 86.065 357.582 85.645C357.262 85.296 357.153 84.602 357.582 84.268C359.356 82.887 361.662 82.361 363.847 82.974C364.337 83.112 364.69 83.67 364.527 84.172C364.366 84.672 363.855 85 363.329 84.852Z" fill="#2F324F"/>
<path d="M360.508 88.406C360.508 89.263 361.203 89.958 362.06 89.958C362.917 89.958 363.612 89.263 363.612 88.406C363.612 87.549 362.917 86.854 362.06 86.854C361.203 86.853 360.508 87.548 360.508 88.406Z" fill="#2F324F"/>
<path d="M367.676 94.247C367.509 94.247 367.362 94.239 367.245 94.233C366.816 94.213 366.484 93.848 366.505 93.417C366.525 92.988 366.837 92.629 367.321 92.677C367.794 92.694 368.455 92.7 368.653 92.42C368.819 92.19 368.732 91.712 368.613 91.23L367.097 85.064C366.994 84.647 367.249 84.224 367.668 84.122C368.092 84.025 368.509 84.274 368.61 84.693L370.126 90.859C370.266 91.427 370.526 92.486 369.921 93.329C369.346 94.13 368.35 94.247 367.676 94.247Z" fill="#F4956C"/>
<path d="M372.08 96.421H363.509C364.263 97.912 365.907 99.205 367.578 99.205C370.04 99.204 371.539 98.026 372.08 96.421Z" fill="white"/>
<path d="M352.844 84.692C353.724 85.176 354.489 85.867 355.06 86.693C355.263 86.687 355.473 86.926 355.676 86.92C355.912 85.066 356.147 83.211 356.383 81.357C357.7 82.229 359.328 82.661 360.748 81.971C362.168 81.28 363.29 80.11 364.334 78.925C364.443 79.897 365.342 80.66 366.309 80.812C367.275 80.964 368.266 80.597 369.058 80.023C369.85 79.449 370.478 78.682 371.096 77.923C371.88 79.693 373.813 81.239 375.711 81.621C376.653 81.81 377.677 81.79 378.489 82.305C379.938 83.225 379.978 85.28 380.683 86.845C380.886 87.296 381.266 87.776 381.757 87.716C382.101 87.674 382.362 87.361 382.454 87.027C382.545 86.693 382.502 86.338 382.458 85.994C382.251 84.379 382.405 82.654 382.165 81.044C381.924 79.434 381.233 77.831 379.963 76.812C378.565 75.691 376.688 75.422 374.91 75.193C370.614 74.641 366.229 74.091 361.978 74.923C359.576 75.394 357.203 76.342 355.441 78.042C353.679 79.742 352.374 82.29 352.844 84.692Z" fill="#2F324F"/>
<path d="M411.546 165.432L410.491 165.282C411.818 156.065 414.113 146.952 417.314 138.198L418.315 138.564C415.138 147.249 412.862 156.289 411.546 165.432Z" fill="#004761"/>
<path d="M414.537 162.285L413.779 161.536C415.664 159.634 418.156 158.337 420.796 157.886L420.975 158.935C418.552 159.349 416.266 160.539 414.537 162.285Z" fill="#004761"/>
<path d="M321.821 165.049C321.394 156.209 319.789 147.462 317.049 139.052L318.062 138.723C320.831 147.222 322.454 156.063 322.884 164.999L321.821 165.049Z" fill="#004761"/>
<path d="M319.042 161.929C317.329 159.829 315.333 157.983 313.107 156.443L313.713 155.565C316.022 157.163 318.093 159.078 319.869 161.255L319.042 161.929Z" fill="#004761"/>
<path d="M368.974 140.329H367.908V190.823H368.974V140.329Z" fill="#004761"/>
<path d="M364.38 147.376C364.38 148.256 363.667 148.969 362.787 148.969C361.907 148.969 361.194 148.256 361.194 147.376C361.194 146.496 361.907 145.783 362.787 145.783C363.667 145.783 364.38 146.497 364.38 147.376Z" fill="#004761"/>
<path d="M364.38 158.23C364.38 159.11 363.667 159.823 362.787 159.823C361.907 159.823 361.194 159.11 361.194 158.23C361.194 157.35 361.907 156.637 362.787 156.637C363.667 156.637 364.38 157.351 364.38 158.23Z" fill="#004761"/>
<path d="M364.38 169.085C364.38 169.965 363.667 170.678 362.787 170.678C361.907 170.678 361.194 169.965 361.194 169.085C361.194 168.205 361.907 167.492 362.787 167.492C363.667 167.492 364.38 168.205 364.38 169.085Z" fill="#004761"/>
<path d="M364.38 179.939C364.38 180.819 363.667 181.532 362.787 181.532C361.907 181.532 361.194 180.819 361.194 179.939C361.194 179.059 361.907 178.346 362.787 178.346C363.667 178.346 364.38 179.059 364.38 179.939Z" fill="#004761"/>
<path d="M314.68 262.002C314.818 264.857 309.618 423.199 309.618 423.199L351.01 421.192L359.216 280.588L314.68 262.002Z" fill="#004761"/>
<path d="M308.323 423.261L352.224 421.133L352.999 407.86L308.758 410.005C308.487 418.274 308.323 423.261 308.323 423.261Z" fill="#5062AD"/>
<path d="M416.066 418.497L416.33 439.378C416.33 439.378 431.396 449.158 435.89 451.537C440.383 453.916 441.441 457.352 441.969 461.581C442.498 465.81 423.731 466.339 415.801 463.167C407.871 459.995 404.964 461.845 400.999 461.317C397.034 460.788 386.726 462.11 386.461 453.652L388.047 434.092L386.725 406.074L416.066 418.497Z" fill="#A07453"/>
<path d="M401 458.409C404.965 458.938 407.872 457.088 415.802 460.259C423.059 463.162 439.349 462.956 441.662 459.659C441.782 460.282 441.887 460.918 441.97 461.58C442.499 465.809 423.732 466.338 415.802 463.166C407.872 459.994 404.965 461.844 401 461.316C397.035 460.787 386.727 462.109 386.462 453.651L386.598 451.972C387.799 459.055 397.242 457.908 401 458.409Z" fill="#D1A78B"/>
<path d="M418.378 262.002C418.24 264.857 423.44 423.199 423.44 423.199L382.048 421.192L373.842 280.588L418.378 262.002Z" fill="#004761"/>
<path d="M424.735 423.261L380.834 421.133L380.059 407.86L424.3 410.005C424.571 418.274 424.735 423.261 424.735 423.261Z" fill="#5062AD"/>
<path d="M629.538 349.124C461.069 379.134 288.64 379.736 119.897 350.894C130.296 291.311 140.695 231.728 151.093 172.146C299.125 198.59 450.653 199.191 598.959 173.916C609.153 232.318 619.345 290.721 629.538 349.124Z" fill="#F0FCFF"/>
<path d="M155.505 200.586C151.51 198.123 146.811 196.814 142.118 196.858C140.565 196.872 138.916 197.069 137.705 198.04C135.815 199.555 135.656 202.323 135.654 204.745C133.954 205.345 132.311 206.629 131.887 208.381C131.463 210.133 131.981 212.085 133.219 213.396C132.098 214.719 132.464 217.949 133.753 219.109C132.335 220.372 132.856 223.707 134.204 225.045C135.552 226.383 137.542 226.824 139.434 226.997C142.645 227.29 145.911 226.976 149.008 226.077C149.96 225.801 150.96 225.422 151.52 224.604C152.079 223.786 151.901 222.419 150.965 222.095C151.944 221.3 152.7 220.164 153.199 219.006C153.698 217.847 153.486 216.277 152.397 215.64C153.26 214.992 153.839 213.584 153.825 212.505C153.811 211.426 153.257 210.367 152.378 209.741C154.004 209.205 155.536 207.949 156.136 206.346C156.734 204.741 156.962 201.484 155.505 200.586Z" fill="#F4956C"/>
<path d="M589.599 193.681C593.594 191.218 598.293 189.909 602.986 189.953C604.538 189.967 606.188 190.164 607.399 191.135C609.289 192.65 609.448 195.418 609.45 197.84C611.15 198.44 612.793 199.724 613.217 201.476C613.641 203.228 613.123 205.18 611.885 206.491C613.006 207.814 612.64 211.044 611.351 212.204C612.769 213.467 612.248 216.802 610.9 218.14C609.552 219.478 607.562 219.919 605.67 220.092C602.459 220.385 599.193 220.071 596.096 219.172C595.144 218.896 594.144 218.517 593.585 217.699C593.026 216.881 593.204 215.514 594.14 215.19C593.161 214.395 592.405 213.259 591.906 212.101C591.407 210.942 591.62 209.372 592.708 208.735C591.845 208.087 591.266 206.679 591.28 205.6C591.294 204.521 591.848 203.462 592.727 202.836C591.101 202.3 589.569 201.044 588.969 199.441C588.369 197.837 588.142 194.58 589.599 193.681Z" fill="#F4956C"/>
<path d="M639.029 77.97C643.338 77.97 646.831 74.4774 646.831 70.169C646.831 65.8606 643.338 62.368 639.029 62.368C634.721 62.368 631.229 65.8606 631.229 70.169C631.229 74.4774 634.721 77.97 639.029 77.97Z" fill="#EEFBFF"/>
<path d="M102.691 139.953C103.332 136.004 100.65 132.283 96.701 131.642C92.7519 131.001 89.0309 133.683 88.39 137.632C87.7491 141.581 90.4309 145.302 94.38 145.943C98.3292 146.584 102.05 143.902 102.691 139.953Z" fill="#EEFBFF"/>
<path d="M422.836 79.642C426.837 79.642 430.08 76.3987 430.08 72.398C430.08 68.3972 426.837 65.154 422.836 65.154C418.835 65.154 415.592 68.3972 415.592 72.398C415.592 76.3987 418.835 79.642 422.836 79.642Z" fill="#EEFBFF"/>
<path d="M112.069 236.604C113.531 236.604 114.717 231.417 114.717 225.018C114.717 218.619 113.531 213.432 112.069 213.432C110.606 213.432 109.421 218.619 109.421 225.018C109.421 231.417 110.606 236.604 112.069 236.604Z" fill="#EEFBFF"/>
<path d="M112.068 227.666C118.467 227.666 123.654 226.48 123.654 225.018C123.654 223.556 118.467 222.37 112.068 222.37C105.67 222.37 100.482 223.556 100.482 225.018C100.482 226.48 105.67 227.666 112.068 227.666Z" fill="#EEFBFF"/>
<path d="M602.716 152.44C604.179 152.44 605.364 147.253 605.364 140.854C605.364 134.455 604.179 129.268 602.716 129.268C601.254 129.268 600.068 134.455 600.068 140.854C600.068 147.253 601.254 152.44 602.716 152.44Z" fill="#EEFBFF"/>
<path d="M602.716 143.502C609.115 143.502 614.302 142.316 614.302 140.854C614.302 139.392 609.115 138.206 602.716 138.206C596.317 138.206 591.13 139.392 591.13 140.854C591.13 142.316 596.317 143.502 602.716 143.502Z" fill="#EEFBFF"/>
<path d="M614.798 388.476C614.798 396.227 613.362 402.511 611.59 402.511C609.818 402.511 608.382 396.227 608.382 388.476C608.382 380.725 609.818 374.441 611.59 374.441C613.362 374.441 614.798 380.725 614.798 388.476Z" fill="#EEFBFF"/>
<path d="M611.59 385.268C619.341 385.268 625.625 386.704 625.625 388.476C625.625 390.248 619.341 391.684 611.59 391.684C603.839 391.684 597.555 390.248 597.555 388.476C597.555 386.704 603.839 385.268 611.59 385.268Z" fill="#EEFBFF"/>
<path d="M49.552 345.392C50.9382 345.392 52.062 340.476 52.062 334.412C52.062 328.348 50.9382 323.432 49.552 323.432C48.1658 323.432 47.042 328.348 47.042 334.412C47.042 340.476 48.1658 345.392 49.552 345.392Z" fill="#EEFBFF"/>
<path d="M49.5523 336.922C55.6164 336.922 60.5323 335.798 60.5323 334.412C60.5323 333.026 55.6164 331.902 49.5523 331.902C43.4882 331.902 38.5723 333.026 38.5723 334.412C38.5723 335.798 43.4882 336.922 49.5523 336.922Z" fill="#EEFBFF"/>
<path d="M686.716 257.354C688.102 257.354 689.226 252.438 689.226 246.374C689.226 240.31 688.102 235.394 686.716 235.394C685.33 235.394 684.206 240.31 684.206 246.374C684.206 252.438 685.33 257.354 686.716 257.354Z" fill="#EEFBFF"/>
<path d="M686.716 248.884C692.78 248.884 697.696 247.76 697.696 246.374C697.696 244.988 692.78 243.864 686.716 243.864C680.652 243.864 675.736 244.988 675.736 246.374C675.736 247.76 680.652 248.884 686.716 248.884Z" fill="#EEFBFF"/>
<path d="M272.663 67.849C273.671 67.849 274.489 64.2718 274.489 59.859C274.489 55.4463 273.671 51.869 272.663 51.869C271.654 51.869 270.837 55.4463 270.837 59.859C270.837 64.2718 271.654 67.849 272.663 67.849Z" fill="#EEFBFF"/>
<path d="M272.663 58.033C277.076 58.033 280.653 58.851 280.653 59.859C280.653 60.868 277.076 61.685 272.663 61.685C268.25 61.685 264.673 60.867 264.673 59.859C264.673 58.851 268.25 58.033 272.663 58.033Z" fill="#EEFBFF"/>
<path d="M475.737 87.302C475.737 91.715 474.919 95.293 473.911 95.293C472.902 95.293 472.085 91.716 472.085 87.302C472.085 82.888 472.903 79.312 473.911 79.312C474.92 79.312 475.737 82.889 475.737 87.302Z" fill="#EEFBFF"/>
<path d="M473.911 89.128C478.324 89.128 481.901 88.3105 481.901 87.302C481.901 86.2935 478.324 85.476 473.911 85.476C469.498 85.476 465.921 86.2935 465.921 87.302C465.921 88.3105 469.498 89.128 473.911 89.128Z" fill="#EEFBFF"/>
<path d="M103.222 279.987C103.222 282.939 100.829 285.332 97.8772 285.332C94.9252 285.332 92.5322 282.939 92.5322 279.987C92.5322 277.035 94.9252 274.642 97.8772 274.642C100.829 274.641 103.222 277.034 103.222 279.987Z" fill="#EEFBFF"/>
<path d="M639.37 196.957C639.37 199.488 637.319 201.539 634.788 201.539C632.257 201.539 630.206 199.488 630.206 196.957C630.206 194.426 632.257 192.375 634.788 192.375C637.319 192.375 639.37 194.426 639.37 196.957Z" fill="#EEFBFF"/>
<path d="M649.698 299.466C649.698 302.739 647.044 305.393 643.771 305.393C640.498 305.393 637.844 302.739 637.844 299.466C637.844 296.193 640.498 293.539 643.771 293.539C647.044 293.539 649.698 296.193 649.698 299.466Z" fill="#EEFBFF"/>
<path d="M150.641 387.866C154.015 387.866 156.75 385.131 156.75 381.757C156.75 378.383 154.015 375.648 150.641 375.648C147.267 375.648 144.532 378.383 144.532 381.757C144.532 385.131 147.267 387.866 150.641 387.866Z" fill="#EEFBFF"/>
<path d="M260.258 245.043H252.934V281.566C252.934 285.928 252.217 289.704 250.785 292.895C247.725 299.6 241.801 302.953 233.012 302.953C229.301 302.953 226.176 302.302 223.637 301C220.251 299.307 218.559 296.964 218.559 293.969C218.559 293.318 218.656 292.667 218.852 292.016C219.633 289.737 221.293 288.598 223.832 288.598C225.46 288.598 226.794 288.923 227.836 289.574C229.138 290.486 230.017 292.471 230.473 295.531C230.603 296.312 230.701 296.898 230.766 297.289C231.286 299.372 232.393 300.414 234.086 300.414C235.128 300.414 236.039 300.023 236.82 299.242C238.448 297.419 239.262 291.723 239.262 282.152V245.043H230.473V242.406H260.258V245.043ZM278.031 279.809C278.031 285.928 278.422 290.388 279.203 293.188C280.375 297.354 282.979 299.438 287.016 299.438C289.294 299.438 291.15 298.754 292.582 297.387C295.056 294.913 296.293 288.923 296.293 279.418C296.293 273.493 295.902 269.164 295.121 266.43C293.949 262.198 291.28 260.082 287.113 260.082C284.639 260.082 282.719 260.831 281.352 262.328C279.138 264.867 278.031 270.694 278.031 279.809ZM287.602 257.543C293.201 257.543 297.986 259.073 301.957 262.133C307.1 266.234 309.672 271.931 309.672 279.223C309.672 284.691 308.044 289.509 304.789 293.676C300.427 299.21 294.405 301.977 286.723 301.977C281.124 301.977 276.306 300.284 272.27 296.898C267.191 292.602 264.652 286.775 264.652 279.418C264.652 274.21 266.15 269.652 269.145 265.746C273.441 260.277 279.594 257.543 287.602 257.543ZM336.723 298.461C337.113 298.461 337.471 298.493 337.797 298.559C338.643 298.689 339.066 299.503 339.066 301H315.043V298.461C315.889 298.461 316.638 298.396 317.289 298.266C319.568 297.875 320.707 296.247 320.707 293.383V261.547H315.043V259.008H333.109V298.461H336.723ZM333.988 246.215C333.988 247.452 333.663 248.624 333.012 249.73C331.645 252.139 329.529 253.344 326.664 253.344C325.492 253.344 324.353 253.051 323.246 252.465C320.707 251.163 319.438 249.079 319.438 246.215C319.438 244.978 319.73 243.806 320.316 242.699C321.749 240.16 323.865 238.891 326.664 238.891C327.901 238.891 329.073 239.216 330.18 239.867C332.719 241.234 333.988 243.35 333.988 246.215ZM363.48 298.461C363.871 298.461 364.229 298.493 364.555 298.559C365.401 298.689 365.824 299.503 365.824 301H342.973V298.461C343.493 298.461 343.982 298.428 344.438 298.363C347.237 298.038 348.637 296.378 348.637 293.383V261.547H342.973V259.008H360.355L360.844 266.625C361.43 265.453 362.211 264.314 363.188 263.207C366.508 259.431 370.544 257.543 375.297 257.543C376.99 257.543 378.617 257.803 380.18 258.324C385.909 260.342 388.773 265.388 388.773 273.461V298.461H391.996C392.387 298.461 392.777 298.493 393.168 298.559C394.014 298.689 394.438 299.503 394.438 301H371.879V298.461C372.79 298.461 373.572 298.363 374.223 298.168C375.655 297.712 376.371 296.117 376.371 293.383V271.801C376.371 270.889 376.306 270.01 376.176 269.164C375.525 264.802 373.344 262.621 369.633 262.621C368.656 262.621 367.712 262.849 366.801 263.305C363.48 264.932 361.592 268.318 361.137 273.461L361.039 298.461H363.48ZM415.922 245.043V242.406H445.219V245.043H437.406V278.734C437.406 282.445 437.699 285.635 438.285 288.305C439.848 295.466 443.917 299.047 450.492 299.047C460.909 298.982 466.15 292.211 466.215 278.734V245.043H458.402V242.406H477.641V245.043H469.828V278.148C469.828 282.771 469.307 286.71 468.266 289.965C465.531 297.973 458.923 301.977 448.441 301.977C432.1 301.911 423.865 294.424 423.734 279.516V245.043H415.922ZM497.27 299.242C501.632 299.242 504.138 297.68 504.789 294.555C504.854 294.099 504.887 293.676 504.887 293.285C504.887 289.965 502.803 287.198 498.637 284.984C497.725 284.464 496.26 283.78 494.242 282.934C489.359 280.785 486.137 278.799 484.574 276.977C482.882 275.023 482.035 272.712 482.035 270.043C482.035 264.509 485.062 260.766 491.117 258.812C493.656 257.966 496.488 257.543 499.613 257.543C504.691 257.543 508.663 258.454 511.527 260.277C511.527 258.324 512.113 257.25 513.285 257.055C513.546 256.99 513.806 256.957 514.066 256.957V269.164H510.941C510.681 263.24 507.458 260.245 501.273 260.18C497.107 260.18 494.535 261.547 493.559 264.281C493.363 264.932 493.266 265.583 493.266 266.234C493.266 269.034 495.219 271.41 499.125 273.363C499.906 273.819 501.208 274.438 503.031 275.219C508.109 277.497 511.495 279.581 513.188 281.469C515.141 283.682 516.117 286.319 516.117 289.379C516.117 295.043 513.188 298.852 507.328 300.805C504.919 301.586 502.217 301.977 499.223 301.977C493.493 301.977 488.676 300.967 484.77 298.949C484.77 300.642 484.346 301.618 483.5 301.879C483.109 301.944 482.654 301.977 482.133 301.977V287.133H485.453C485.583 295.141 489.522 299.177 497.27 299.242Z" fill="#004761"/>
</svg>
