<svg width="3095" height="1581" viewBox="0 0 3095 1581" fill="none" xmlns="http://www.w3.org/2000/svg">
<path d="M2215.97 1553.06C2215.97 1538.99 2204.45 1527.48 2190.39 1527.48H25.5806C11.5111 1527.48 0 1538.99 0 1553.06V1554.72C0 1568.79 11.5111 1580.29 25.5806 1580.29H2190.39C2204.45 1580.29 2215.97 1568.79 2215.97 1554.72V1553.06Z" fill="#E8E8E8"/>
<path d="M1108.33 1537.68C1102.36 1530.38 1098.8 1524.73 1099.52 1516.92C1100.27 1508.84 1105.82 1495.21 1134.59 1495.21C1137.42 1495.21 1140.52 1495.3 1143.79 1495.53C1162.95 1496.88 1176.78 1500.31 1187.89 1503.49C1195.11 1505.55 1200.82 1506.67 1205.05 1506.67H1205.08C1207.43 1506.67 1211.79 1507.14 1221 1497.57C1224.66 1493.78 1227.65 1490.52 1230.1 1487.33C1221.13 1489.55 1211.12 1491.78 1201.07 1493.15C1197.07 1493.69 1193.12 1494.03 1189.34 1494.03C1168.31 1494.03 1153.56 1485.5 1150.84 1471.73C1149.93 1467.09 1148.79 1451.23 1172.4 1441.55C1184.57 1436.57 1199.69 1434.88 1213.03 1433.38C1218.38 1432.78 1225.57 1431.98 1230.65 1430.98C1229.84 1428.92 1228.86 1426.66 1228.03 1424.73C1222.24 1411.21 1213.48 1390.79 1218.46 1366.53C1219.92 1359.46 1221.83 1353.3 1223.99 1347.96C1208.27 1347.08 1193.85 1344.31 1181.01 1339.69C1177.28 1338.34 1173.7 1336.99 1170.27 1335.69C1160.02 1331.82 1150.33 1328.16 1144.68 1328.16C1142.89 1328.16 1139.9 1328.16 1135.66 1339.71C1134.54 1342.78 1133.48 1345.71 1132.46 1348.5C1121.81 1377.84 1114.78 1397.23 1092.94 1412.59C1086.08 1417.43 1075.56 1423.19 1064.45 1423.19C1055.25 1423.19 1047.28 1419.06 1042.6 1411.85C1035.73 1401.29 1036.79 1386.24 1045.84 1365.87C1053.55 1348.53 1063.36 1334.07 1072.22 1323.08C1069.49 1322.94 1066.58 1322.86 1063.52 1322.86C1048.94 1322.86 1033.95 1324.65 1018.96 1328.18C994.134 1334.02 977.739 1340.95 968.841 1349.34C963.338 1354.53 957.96 1362.23 959.815 1379.98C960.989 1391.21 965.387 1405.98 969.64 1420.26C979.901 1454.74 991.532 1493.82 962.597 1509.1C957.634 1511.71 952.487 1513.04 947.291 1513.04C909.437 1513.04 896.47 1446.81 894.668 1421.29C893.982 1411.52 893.95 1402.56 894.255 1394.73C883.235 1404.3 871.281 1421.28 866.193 1450.63C859.07 1491.69 868.717 1519.44 895.685 1537.68H1108.33Z" fill="white"/>
<path d="M1178.65 1456.82C1202.25 1447.17 1245.62 1451.75 1248.56 1438.64C1251.5 1425.54 1228.1 1401.57 1234.61 1369.85C1241.12 1338.15 1257.49 1330.33 1257.49 1330.33C1257.49 1330.33 1220.05 1336.23 1186.6 1324.18C1153.15 1312.13 1132.8 1299.64 1120.19 1334.04C1107.56 1368.44 1102.78 1385.51 1083.46 1399.11C1064.14 1412.71 1044.09 1410.42 1060.91 1372.56C1077.73 1334.7 1105.73 1311.74 1105.73 1311.74C1105.73 1311.74 1069.23 1299.41 1015.19 1312.13C961.127 1324.86 939.425 1343.45 943.418 1381.69C947.421 1419.92 980.369 1481.07 954.901 1494.52C929.423 1507.96 913.336 1451.63 911.114 1420.13C908.898 1388.65 913.966 1366.34 913.966 1366.34C913.966 1366.34 862.605 1374.65 849.952 1447.68C840.693 1501.04 857.731 1534.68 891.066 1553.89H1229.47C1239.58 1532.13 1241.02 1517.7 1241.02 1517.7C1241.02 1517.7 1201.28 1551.31 1161.14 1543.83C1120.99 1536.35 1092.62 1508.4 1142.63 1511.94C1192.66 1515.45 1204.49 1538.97 1232.88 1509.51C1261.25 1480.05 1257.48 1462.19 1257.48 1462.19C1257.48 1462.19 1227.96 1472.98 1198.85 1476.94C1169.75 1480.88 1155.06 1466.49 1178.65 1456.82ZM899.092 1506.67C886.635 1515.79 858.892 1481.22 873.92 1472.92C890.562 1463.74 911.569 1497.57 899.092 1506.67ZM998.367 1502.14C1008.72 1512.71 978.663 1539.61 967.702 1521.17C956.746 1502.72 986.088 1489.6 998.367 1502.14ZM1022.45 1383.19C1018.82 1402.39 993.515 1407.98 992.219 1385.32C990.931 1362.64 1007.1 1358.68 1014.27 1357.32C1014.27 1357.32 1026.09 1364 1022.45 1383.19ZM1022.08 1460.39C998.235 1459.5 1004.85 1417.39 1026.81 1418.81C1047.85 1420.16 1045.92 1461.31 1022.08 1460.39ZM1188.62 1401.05C1204.59 1390.29 1206.92 1398.66 1213.69 1403.91C1223.05 1411.16 1219.53 1421.66 1201.87 1422.79C1184.2 1423.92 1172.64 1411.83 1188.62 1401.05ZM1136.63 1467.47C1139.04 1473.38 1122.34 1487.82 1109.69 1479.48C1097.04 1471.13 1095.53 1460.42 1118.3 1461.2C1118.3 1461.2 1134.22 1461.57 1136.63 1467.47ZM1163.19 1375.88C1152.06 1390.83 1131.25 1391 1137.89 1361.24C1144.53 1331.49 1159.86 1338.2 1166.02 1341.44L1165.42 1341.37C1177.08 1348.39 1174.32 1360.92 1163.19 1375.88Z" fill="#004761"/>
<path d="M1174.81 1383.6C1163.94 1392.11 1151.53 1402.65 1138.46 1414.7C1131.94 1420.72 1125.24 1427.13 1118.49 1433.83C1111.77 1440.54 1104.86 1447.56 1097.73 1454.48C1083.5 1468.39 1068.52 1482.34 1053.35 1495.45C1038.22 1508.55 1022.88 1520.81 1008.13 1531.54C996.496 1540.02 985.245 1547.5 974.885 1553.89H954.249C956.653 1552.59 959.122 1551.25 961.686 1549.81C974.012 1542.92 988.097 1534.28 1002.9 1524.12C1017.7 1513.97 1033.22 1502.32 1048.64 1489.8C1064.07 1477.29 1079.4 1463.93 1094.04 1450.57C1101.38 1443.9 1108.45 1437.2 1115.46 1430.66C1122.48 1424.17 1129.43 1417.96 1136.2 1412.15C1149.74 1400.51 1162.59 1390.4 1173.8 1382.26C1185 1374.11 1194.56 1367.96 1201.35 1363.93C1208.13 1359.89 1212.14 1357.97 1212.14 1357.99C1212.14 1357.99 1208.2 1360.04 1201.59 1364.33C1194.97 1368.59 1185.67 1375.09 1174.81 1383.6Z" fill="#C4C2C0"/>
<path d="M395.55 1538.42C395.55 1538.42 336.218 1523.16 331.897 1521.79C327.116 1520.29 319.563 1517.58 318.651 1533.27C317.755 1548.96 317.18 1553.88 317.18 1553.88C317.18 1553.88 385.887 1554.03 393.283 1553.2C400.666 1552.35 406.509 1546.79 395.55 1538.42Z" fill="#0F1B29"/>
<path d="M306.417 1359.52C313.094 1404.76 319.578 1446.08 322.46 1458.52C328.955 1486.63 327.445 1528.81 327.445 1528.81C327.445 1528.81 328.22 1533.03 335.616 1534.21C340.537 1534.99 344.86 1530.84 344.86 1530.84C344.86 1530.84 357.18 1432.35 366.448 1359.52H306.417Z" fill="#F4AA74"/>
<path d="M420.952 993.246C420.952 993.246 396.357 1166.74 388.641 1205.98C380.921 1245.23 303.691 1243.06 289.739 1189C275.756 1134.96 257.724 1059.92 264.627 1007.82C271.561 955.709 289.506 917.69 331.303 892.041C373.098 866.397 429.218 940.107 420.952 993.246Z" fill="url(#paint0_linear_2247_1863)"/>
<path d="M373.753 1302.68C381.452 1243.92 384.84 1244.02 389.761 1195.27C391.908 1173.9 372.542 1155.18 332.461 1156.38C292.394 1157.6 283.116 1184.76 287.079 1219.75C289.286 1239.27 294.463 1306.46 302.876 1363.47H368.849C371.735 1340.79 371.924 1316.64 373.753 1302.68Z" fill="url(#paint1_linear_2247_1863)"/>
<path d="M371.03 1373.72C370.854 1374.71 369.889 1375.52 368.886 1375.52H303.027C302.024 1375.52 300.975 1374.73 300.697 1373.76L297.185 1361.61C296.907 1360.65 297.501 1359.86 298.503 1359.86H371.659C372.662 1359.86 373.341 1360.67 373.166 1361.65L371.03 1373.72Z" fill="#127FB5"/>
<path d="M395.55 1538.42C402.795 1549.27 380.325 1548.31 364.82 1548.31C349.315 1548.31 333.126 1547.86 333.126 1542.16C333.126 1536.46 334.494 1527.03 335.157 1494.2C335.82 1461.36 333.887 1404.82 327.821 1303.09C321.756 1201.37 328.717 1106.57 325.069 1084.07C321.421 1061.58 342.703 1061.88 369.153 1057.93C385.833 1055.44 402.393 1053.85 412.358 1053.01C417.294 1019.06 420.953 993.246 420.953 993.246C429.219 940.106 373.098 866.397 331.304 892.041C289.508 917.689 271.562 955.71 264.628 1007.82C257.87 1058.84 275.014 1131.83 288.86 1185.58C285.96 1195.36 285.638 1207.03 287.079 1219.75C289.239 1238.86 294.249 1303.65 302.352 1359.86H298.504C297.501 1359.86 296.908 1360.65 297.186 1361.61L300.698 1373.76C300.976 1374.73 302.025 1375.52 303.028 1375.52H308.796C314.592 1414.22 319.922 1447.57 322.46 1458.52C327.204 1479.05 327.677 1507.08 327.587 1520.7C323.509 1520.18 319.315 1521.83 318.65 1533.27C317.754 1548.96 317.179 1553.88 317.179 1553.88C317.179 1553.88 385.886 1554.03 393.282 1553.2C400.666 1552.35 406.509 1546.79 395.55 1538.42Z" fill="url(#paint2_linear_2247_1863)"/>
<path d="M110.714 1359.52C107.894 1401.55 105.475 1444.22 105.858 1459.13C106.578 1487.37 97.5176 1524.76 97.5176 1524.76C97.5176 1524.76 97.6244 1529.23 104.246 1531.87C111.031 1534.57 112.77 1532.39 112.77 1532.39C112.77 1532.39 146.725 1444.36 178.581 1359.52H110.714Z" fill="#F4AA74"/>
<path d="M124.515 1533.54C124.416 1532.01 124.237 1530.7 124.018 1529.52C122.057 1518.75 115.667 1521.04 111.461 1522.4C110.682 1522.66 108.099 1523.38 104.404 1524.39C100.695 1523.42 98.1068 1522.71 97.3243 1522.46C93.1115 1521.14 86.7033 1518.9 84.8281 1529.68C84.6184 1530.87 84.4451 1532.17 84.3557 1533.7C83.4847 1549.07 82.9219 1553.89 82.9219 1553.89C82.9219 1553.89 92.3435 1553.9 104.521 1553.88C116.696 1553.8 126.126 1553.71 126.126 1553.71C126.126 1553.71 125.517 1548.9 124.515 1533.54Z" fill="#101B29"/>
<path d="M325.589 1009.59C325.589 1009.59 233.779 1210.5 216.745 1245.78C199.71 1281.04 127.085 1259.86 127.223 1205.18C127.378 1150.5 125.18 1039.43 182.47 937.671C213.455 882.642 346.579 961.28 325.589 1009.59Z" fill="#0B3D59"/>
<path d="M230.536 1215.71C232.605 1209.04 213.398 1177.87 174.712 1171.18C136.024 1164.48 120.605 1234.16 117.536 1268.52C116.089 1284.75 111.436 1323.7 108.91 1361.34L180.051 1363.47C202.854 1302.74 223.113 1239.69 230.536 1215.71Z" fill="#0B3D59"/>
<path d="M180.35 1373.45C180.019 1374.4 178.926 1375.18 177.924 1375.18H107.542C106.539 1375.18 105.718 1374.35 105.718 1373.35V1361.34C105.718 1360.34 106.539 1359.52 107.542 1359.52H183.398C184.402 1359.52 184.952 1360.29 184.62 1361.24L180.35 1373.45Z" fill="#127FB5"/>
<path d="M182.47 937.671C125.18 1039.42 127.378 1150.5 127.223 1205.18C127.212 1209.05 127.579 1212.74 128.252 1216.27C122.115 1234.49 118.792 1254.46 117.536 1268.52C116.112 1284.49 111.587 1322.45 109.035 1359.51H107.542C106.539 1359.51 105.718 1360.34 105.718 1361.34V1373.35C105.718 1374.35 106.539 1375.17 107.542 1375.17H109.687C107.336 1411.73 105.525 1446.07 105.859 1459.13C106.478 1483.41 99.8708 1514.44 98.0056 1522.66C97.7201 1522.58 97.4785 1522.51 97.3252 1522.46C93.1124 1521.13 86.7043 1518.89 84.8291 1529.68C84.6193 1530.86 84.446 1532.17 84.3566 1533.7C83.4856 1549.07 82.9229 1553.88 82.9229 1553.88C82.9229 1553.88 92.3444 1553.9 104.522 1553.88C116.697 1553.8 126.127 1553.71 126.127 1553.71C126.127 1553.71 125.976 1552.51 125.699 1549.4C111.374 1549.65 90.9773 1551.44 90.9773 1546.03C90.9773 1540.26 89.912 1525.51 95.2329 1528.7C100.554 1531.9 100.703 1531.9 107.393 1500.89C114.082 1469.88 117.425 1420.62 127.224 1367.69C137.024 1314.75 158.924 1263.75 174.885 1203.55C190.846 1143.36 201.335 1064.92 217.857 1065.83C233.257 1066.68 258.164 1073.07 300.368 1064.7C315.01 1032.74 325.591 1009.59 325.591 1009.59C346.579 961.278 213.455 882.64 182.47 937.671Z" fill="url(#paint3_linear_2247_1863)"/>
<path d="M427.187 852.911C427.187 852.911 466.273 881.878 479.403 888.336C488.81 892.982 494.195 879.398 497.617 871.124C501.029 862.858 483.802 834.205 462.3 815.896C445.831 801.877 425.697 848.951 427.187 852.911Z" fill="#F4AA74"/>
<path d="M289.409 776.913C315.38 807.896 420.762 895.287 420.762 895.287C420.762 895.287 433.907 892.76 452.483 874.234C480.367 846.398 481.822 829.405 481.822 829.405C481.822 829.405 425.46 757.219 382.957 712.459C349.332 677.042 301.929 674.343 278.15 704.135C258.678 728.543 274.891 759.601 289.409 776.913Z" fill="#004761"/>
<path d="M679.332 833.616C682.773 828.525 694.705 813.64 698.747 816.392C708.316 822.898 697.039 827.864 696.667 842.479C696.424 851.917 671.353 857.51 671.353 857.51C671.353 857.51 672.13 844.214 679.332 833.616Z" fill="#F4AA74"/>
<path d="M487.417 849.554C534.566 837.856 651.694 857.06 672.96 848.638C686.774 843.167 685.303 828.131 713.583 827.078C727.286 826.57 743.408 860.843 733.183 870.003C709.795 890.97 691.615 885.886 675.96 870.381C663.32 867.021 546.013 887.147 512.752 890.216C497.731 891.607 475.128 892.11 471.519 881.875C465.766 865.581 469.919 853.901 487.417 849.554Z" fill="#F4AA74"/>
<path d="M675.96 870.381C691.615 885.886 709.796 890.97 733.183 870.004C743.408 860.844 727.286 826.57 713.583 827.078C710.39 827.196 707.59 827.501 705.094 827.942C710.675 827.356 713.009 830.842 719.687 842.376C726.376 853.928 728.047 857.881 697.493 857.509C666.939 857.137 655.538 859.021 637.753 859.933C619.968 860.845 570.716 867.458 524.658 870.194C478.599 872.93 482.247 875.21 453.973 851.288C425.699 827.366 409.822 792.821 397.882 755.274C383.853 711.164 365.264 697.624 363.49 696.413C363.435 696.377 363.38 696.34 363.323 696.304C363.121 696.215 353.564 692.013 339.594 685.974C315.98 679.894 292.662 685.949 278.148 704.135C258.677 728.544 274.89 759.601 289.408 776.913C315.379 807.897 420.762 895.287 420.762 895.287C420.762 895.287 433.906 892.76 452.482 874.235C453.114 873.604 453.719 872.984 454.324 872.364C461.187 877.124 468.133 881.78 473.544 885.053C480.346 891.975 499.495 891.444 512.75 890.217C546.014 887.148 663.32 867.022 675.96 870.381Z" fill="url(#paint4_linear_2247_1863)"/>
<path d="M317.829 678.813C380.556 682.882 385.77 735.742 393.322 767.169C439.392 958.896 421.77 1038.31 421.77 1038.31C421.77 1038.31 395.832 1053.74 296.192 1055.37C166.799 1057.47 139.312 1032.89 139.312 1032.89C139.312 1032.89 177.464 836.946 191.677 739.67C196.228 708.512 224.876 683.487 276.099 678.739C290.718 677.394 302.354 677.8 317.829 678.813Z" fill="#127FB5"/>
<path d="M391.954 883.724C372.496 883.724 295.58 884.028 266.699 883.724C237.817 883.419 243.29 889.805 237.208 919.903C231.127 950.001 225.961 952.128 212.887 956.386C199.814 960.643 201.789 952.28 207.262 895.287C212.734 838.294 233.255 787.045 235.384 749.041C237.513 711.037 250.889 704.047 260.01 722.896C269.13 741.745 303.256 756.414 327.882 752.31C352.507 748.206 360.944 737.033 355.928 716.056C350.94 695.196 363.987 693.735 375.313 711.15C365.118 694.241 348.244 680.784 317.83 678.812C302.355 677.799 290.719 677.392 276.099 678.74C224.878 683.487 196.23 708.512 191.678 739.67C177.464 836.947 139.313 1032.89 139.313 1032.89C139.313 1032.89 166.8 1057.47 296.193 1055.37C395.832 1053.74 421.771 1038.31 421.771 1038.31C421.771 1038.31 432.967 987.851 414.176 870.266C416.016 881.447 411.399 883.724 391.954 883.724Z" fill="url(#paint5_linear_2247_1863)"/>
<path d="M365.094 626.808C386.518 611.97 399.786 556.385 373.13 542.033C340.193 524.296 333.172 560.532 312.773 558.656C268.389 554.591 253.783 582.074 256.172 617.441C257.654 639.341 274.45 652.791 294.006 659.971C302.661 663.156 302.66 639.813 326.171 630.619C349.686 621.422 365.094 626.808 365.094 626.808Z" fill="#082947"/>
<path d="M341.911 684.881C345.449 703.384 358.558 744.217 314.448 742.129C262.628 739.692 251.331 686.151 254.202 680.082C260.725 666.268 281.355 673.726 294.432 674.517C307.503 675.323 338.911 669.192 341.911 684.881Z" fill="#082947"/>
<path d="M267.799 678.975C270.305 678.761 272.842 678.597 275.489 678.498C290.161 678.008 301.748 679.1 317.121 681.017C321.973 681.611 326.436 682.513 330.555 683.695C332.201 695.723 344.23 728.991 311.024 728.355C276.921 727.692 267.085 690.514 267.799 678.975Z" fill="#F4AA74"/>
<path d="M282.246 674.217C293.848 638.712 300.469 634.109 313.361 607.492C313.447 606.469 354.527 616.809 366.948 596.551C366.948 596.551 367.731 624.236 362.121 646.72C356.835 667.94 349.542 679.098 329.277 667.193C328.488 677.701 324.115 689.403 323.536 698.623C322.34 717.218 309.113 720.304 300.467 718.483C291.821 716.642 271.508 707.076 282.246 674.217Z" fill="#F4AA74"/>
<path d="M218.108 1029.36C216.91 1034.28 220.081 1038.31 225.148 1038.31H407.129C412.192 1038.31 417.313 1034.28 418.509 1029.36L449.936 899.585C451.126 894.663 447.957 890.635 442.892 890.635H260.913C255.846 890.635 250.725 894.663 249.533 899.585L218.108 1029.36Z" fill="#CECECE"/>
<path d="M218.108 1029.36L249.533 899.585C250.725 894.663 255.846 890.635 260.913 890.635H269.661C264.595 890.635 259.475 894.663 258.285 899.585L226.856 1029.36C225.661 1034.28 228.832 1038.31 233.898 1038.31H225.148C220.081 1038.31 216.911 1034.28 218.108 1029.36Z" fill="url(#paint6_linear_2247_1863)"/>
<path d="M360.092 966.297C363.398 951.41 355.92 939.341 343.385 939.341C330.855 939.341 318.011 951.409 314.705 966.297C311.393 981.182 318.877 993.251 331.409 993.251C343.94 993.251 356.78 981.183 360.092 966.297Z" fill="#082947"/>
<path d="M325.756 966.297C328.556 953.679 338.214 943.118 348.72 940.18C347.066 939.656 345.294 939.341 343.384 939.341C330.854 939.341 318.01 951.409 314.704 966.297C311.393 981.182 318.876 993.251 331.408 993.251C333.318 993.251 335.231 992.941 337.121 992.41C327.914 989.474 322.948 978.914 325.756 966.297Z" fill="url(#paint7_linear_2247_1863)"/>
<path d="M63.2497 822.485C63.2497 822.485 29.186 857.227 20.9884 869.34C15.1028 878.024 27.8106 885.21 35.5403 889.74C43.2627 894.261 74.002 881.13 95.097 862.339C111.24 847.952 67.3749 821.555 63.2497 822.485Z" fill="#F4AA74"/>
<path d="M215.202 700.242C173.11 721.713 38.5966 834.863 38.5966 834.863C38.5966 834.863 39.297 848.234 55.1012 869.177C78.8413 900.613 95.481 904.397 95.481 904.397C95.481 904.397 134.462 882.945 174.59 856.547C194.206 843.643 199.621 831.51 215.548 783.132C225.312 753.465 235.328 689.974 215.202 700.242Z" fill="#004761"/>
<path d="M223.763 701.87C230.819 718.95 201.33 773.316 179.443 801.764C157.553 830.214 94.6492 858.971 80.6354 864.569C69.5091 869.014 51.0144 848.038 32.0489 855.772C27.2697 861.186 23.1919 866.081 20.9884 869.337C15.1028 878.021 27.8106 885.207 35.5403 889.738C40.0167 892.36 52.2338 889.039 65.8162 882.131C83.6972 901.712 95.481 904.394 95.481 904.394C95.481 904.394 134.463 882.943 174.59 856.545C194.206 843.641 199.621 831.508 215.549 783.129C223.406 759.255 231.424 713.483 223.763 701.87Z" fill="url(#paint8_linear_2247_1863)"/>
<path d="M213.177 963.058C218.977 961.029 237.44 956.218 239.036 960.84C242.825 971.772 230.813 969.018 221.787 980.517C215.956 987.944 192.506 977.457 192.506 977.457C192.506 977.457 201.07 967.254 213.177 963.058Z" fill="#F4AA74"/>
<path d="M49.7311 861.217C94.5343 879.994 177.007 965.354 199.094 971.3C213.441 975.162 221.242 962.224 244.551 978.271C255.847 986.048 248.306 1023.17 234.634 1024.41C203.355 1027.25 191.81 1012.32 188.513 990.532C180.381 980.287 74.2774 926.364 45.7645 908.962C32.8871 901.107 14.4589 888.009 17.6739 877.644C22.7942 861.139 33.1014 854.251 49.7311 861.217Z" fill="#F4AA74"/>
<path d="M188.512 990.532C191.809 1012.32 203.354 1027.25 234.633 1024.41C247.877 1023.21 255.368 988.337 245.557 979.085C251.377 993.302 246.25 1017.95 220.486 1014.53C194.721 1011.11 198.825 987.851 187.88 981.467C176.935 975.082 121.376 935.105 75.4685 908.35C29.5608 881.596 28.9534 876.123 33.2857 869.283C37.6179 862.442 42.3953 858.951 58.5133 865.463C55.4561 863.813 52.521 862.385 49.731 861.217C33.1023 854.251 22.7951 861.14 17.6739 877.645C14.4589 888.008 32.8871 901.108 45.7645 908.963C74.2765 926.364 180.38 980.286 188.512 990.532Z" fill="url(#paint9_linear_2247_1863)"/>
<path d="M318.223 622.41C317.496 626.406 316.479 631.817 312.565 639.672C308.646 647.533 307.147 650.03 307.147 650.03C307.147 650.03 319.49 667.952 333.449 671.998C347.415 676.039 356.765 668.852 360.036 659.504C364.045 648.032 364.897 644.82 365.456 630.37C365.456 630.37 351.125 636.193 318.223 622.41Z" fill="#004761"/>
<path d="M344.696 639.889C352.5 641.324 359.456 641.397 364.774 641.048C364.813 640.74 364.843 640.407 364.873 640.086C355.065 640.757 339.464 639.963 323.426 631.603C323.185 631.489 322.903 631.569 322.783 631.81C322.658 632.043 322.748 632.332 322.985 632.455C330.493 636.366 337.907 638.641 344.696 639.889ZM351.269 650.643C355.635 651.445 359.507 651.854 362.52 652.063C362.618 651.744 362.705 651.436 362.796 651.123C353.543 650.512 335.685 647.945 320.902 637.57C320.69 637.417 320.388 637.471 320.236 637.69C320.084 637.905 320.136 638.204 320.352 638.358C330.454 645.439 341.968 648.936 351.269 650.643ZM317.709 644.239C329.461 656.103 348.88 661.817 357.894 663.937C358.068 663.65 358.251 663.371 358.414 663.074C349.65 661.041 330.115 655.405 318.394 643.562C318.203 643.377 317.9 643.371 317.717 643.556C317.526 643.743 317.528 644.048 317.709 644.239ZM315.068 650.081C321.163 660.196 334.895 668.109 344.876 672.813C345.398 672.72 345.899 672.596 346.397 672.471C336.463 667.898 322.093 659.886 315.886 649.582C315.748 649.356 315.449 649.289 315.229 649.422C314.998 649.559 314.929 649.853 315.068 650.081Z" fill="#F5F5F5"/>
<path d="M309.473 653.706C292.179 642.311 288.203 632.159 296.175 619.758C299.851 614.037 303.851 612.818 306.585 612.818C306.613 612.818 306.643 612.818 306.671 612.82C311.539 612.865 316.506 616.595 320.656 623.322L317.55 625.239C314.133 619.697 310.156 616.501 306.637 616.469C306.619 616.468 306.601 616.468 306.583 616.468C303.957 616.468 301.488 618.24 299.242 621.733C293.586 630.53 293.504 638.815 311.478 650.661L309.473 653.706Z" fill="#004761"/>
<path d="M290.185 617.583C286.662 622.479 289.667 630.667 296.914 635.886C304.152 641.085 309.389 639.466 312.908 634.578C316.434 629.677 316.932 623.388 309.675 618.168C302.431 612.944 293.709 612.696 290.185 617.583Z" fill="#F4AA74"/>
<path d="M934.698 1172.88L904.904 1172.78L904.391 1316.84C904.994 1316.86 905.589 1316.88 906.211 1316.89C969.446 1317.11 998.748 1285.6 998.748 1285.6L934.698 1172.88Z" fill="#127FB5"/>
<path d="M1068.27 1155.12C1072.77 1169.27 1075.2 1184.34 1075.15 1199.97C1074.86 1280.78 1008.89 1346.28 928.089 1345.99C920.62 1345.96 913.286 1345.37 906.115 1344.26L905.985 1381.07C913.188 1381.96 920.521 1382.44 927.956 1382.47C1028.87 1382.83 1111.27 1301.02 1111.63 1200.1C1111.69 1184.64 1109.8 1169.62 1106.23 1155.25L1068.27 1155.12Z" fill="#127FB5"/>
<path d="M994.849 1553.89C985.885 1553.86 976.914 1550.54 969.894 1543.89C914.809 1491.7 878.864 1423.12 860.022 1334.23C844.628 1261.61 841.699 1183.53 842.039 1088.64C842.111 1068.49 858.499 1052.22 878.65 1052.29C898.8 1052.36 915.075 1068.75 915.004 1088.9C914.436 1247.77 922.048 1398.05 1020.08 1490.92C1034.71 1504.78 1035.33 1527.87 1021.47 1542.49C1014.26 1550.1 1004.56 1553.92 994.849 1553.89Z" fill="#082947"/>
<path d="M1111.63 1200.11C1111.69 1184.65 1109.8 1169.62 1106.23 1155.25L1068.27 1155.12C1072.77 1169.27 1075.2 1184.34 1075.15 1199.97C1074.87 1277.47 1014.16 1340.85 937.913 1345.66C935.208 1335.73 932.814 1325.6 930.698 1315.28C977.034 1308.91 998.748 1285.6 998.748 1285.6L934.697 1172.88L915.947 1172.81C915.064 1145.3 914.9 1117.24 915.003 1088.91C915.073 1068.76 898.798 1052.37 878.65 1052.29C858.498 1052.22 842.11 1068.5 842.039 1088.65C841.698 1183.53 844.627 1261.61 860.022 1334.24C878.863 1423.12 914.807 1491.7 969.893 1543.89C976.913 1550.54 985.884 1553.86 994.848 1553.89C1004.56 1553.92 1014.26 1550.1 1021.47 1542.5C1035.32 1527.87 1034.71 1504.78 1020.08 1490.92C987.547 1460.11 964.988 1422.96 949.367 1381.29C1040.27 1370.98 1111.3 1293.78 1111.63 1200.11Z" fill="url(#paint10_linear_2247_1863)"/>
<path d="M518.638 1114.83C518.602 1125.43 526.901 1136.47 537.086 1139.38L660.363 1174.59C670.545 1177.5 678.911 1171.21 678.946 1160.62L679.858 904.833C679.896 894.243 671.58 887.898 661.374 890.729L537.848 925.057C527.644 927.894 519.265 938.878 519.228 949.474L518.638 1114.83Z" fill="#E8512E"/>
<path d="M661.373 890.729L561.704 918.427L560.892 1146.18L660.362 1174.58C670.544 1177.49 678.91 1171.21 678.945 1160.62L679.857 904.831C679.896 894.241 671.58 887.896 661.373 890.729Z" fill="url(#paint11_linear_2247_1863)"/>
<path d="M1605.48 1036.03C1605.85 931.896 1521.73 847.183 1417.61 846.809C1313.47 846.439 1228.76 930.551 1228.39 1034.68C1228.02 1138.81 1312.13 1223.52 1416.26 1223.89C1520.39 1224.27 1605.11 1140.16 1605.48 1036.03Z" fill="#E8512E"/>
<path d="M1605.48 1036.03C1605.85 931.896 1521.73 847.183 1417.61 846.809C1313.47 846.439 1228.76 930.551 1228.39 1034.68C1228.02 1138.81 1312.13 1223.52 1416.26 1223.89C1520.39 1224.27 1605.11 1140.16 1605.48 1036.03Z" fill="url(#paint12_linear_2247_1863)"/>
<path d="M1544.19 1035.81C1544.06 1073.84 1555.2 1109.28 1574.47 1138.96C1593.94 1109.41 1605.34 1074.06 1605.48 1036.03C1605.61 997.993 1594.46 962.56 1575.2 932.871C1555.73 962.422 1544.33 997.775 1544.19 1035.81Z" fill="#D6D6D6"/>
<path d="M1397.94 672.077C1274.74 819.925 1011.13 888.434 791.104 887.648L790.073 1178.6C1010.09 1179.38 1273.21 1249.76 1395.36 1398.49C1440.83 1302.03 1468.73 1174.94 1469.23 1035.54C1469.72 896.148 1442.74 768.859 1397.94 672.077Z" fill="#004761"/>
<path d="M1031.99 862.193C951.646 879.578 868.669 887.927 791.105 887.647L790.074 1178.6C867.636 1178.87 950.552 1187.81 1030.76 1205.77L1031.99 862.193Z" fill="url(#paint13_linear_2247_1863)"/>
<path d="M1166.7 823.028L1165.19 1245.89C1258.98 1281.81 1341.09 1332.41 1395.36 1398.49C1440.84 1302.03 1468.73 1174.94 1469.23 1035.54C1469.72 896.148 1442.74 768.859 1397.94 672.076C1343.2 737.768 1260.74 787.78 1166.7 823.028Z" fill="url(#paint14_linear_2247_1863)"/>
<path d="M1394.96 1501.5C1390.87 1501.48 1386.71 1500.59 1382.77 1498.73C1368.34 1491.93 1362.16 1474.72 1368.96 1460.29C1423.97 1343.61 1454.58 1192.75 1455.14 1035.49C1455.7 878.231 1426.17 727.156 1371.99 610.087C1365.28 595.612 1371.59 578.443 1386.06 571.743C1400.54 565.036 1417.71 571.346 1424.41 585.825C1482.07 710.398 1513.5 870.168 1512.9 1035.7C1512.32 1201.23 1479.75 1360.77 1421.21 1484.93C1416.27 1495.4 1405.83 1501.54 1394.96 1501.5Z" fill="#127FB5"/>
<path d="M1394.96 1501.5C1390.87 1501.48 1386.71 1500.59 1382.77 1498.73C1368.34 1491.93 1362.16 1474.72 1368.96 1460.29C1423.97 1343.61 1454.58 1192.75 1455.14 1035.49C1455.7 878.231 1426.17 727.156 1371.99 610.087C1365.28 595.612 1371.59 578.443 1386.06 571.743C1400.54 565.036 1417.71 571.346 1424.41 585.825C1482.07 710.398 1513.5 870.168 1512.9 1035.7C1512.32 1201.23 1479.75 1360.77 1421.21 1484.93C1416.27 1495.4 1405.83 1501.54 1394.96 1501.5Z" fill="url(#paint15_linear_2247_1863)"/>
<path d="M1294.92 834.858C1319.39 816.677 1316.46 781.405 1286.83 765.354C1150.07 848.937 958.051 888.244 791.104 887.647L790.876 952.886C976.318 951.288 1192.39 913.693 1294.92 834.858ZM1293.49 1234.98C1191.53 1155.41 975.728 1116.28 790.303 1113.36L790.073 1178.59C957.016 1179.19 1148.75 1219.87 1284.91 1304.42C1314.65 1288.58 1317.84 1253.33 1293.49 1234.98Z" fill="url(#paint16_linear_2247_1863)"/>
<path d="M635.846 1186.94C635.827 1193.3 641.003 1198.52 647.359 1198.54L805.26 1199.1C811.616 1199.12 816.832 1193.94 816.856 1187.59L817.955 878.843C817.978 872.491 812.799 867.27 806.442 867.247L648.542 866.686C642.187 866.661 636.969 871.844 636.945 878.197L635.846 1186.94Z" fill="#082947"/>
<path d="M791.158 917.079C791.145 920.09 788.676 922.543 785.665 922.532L668.921 922.117C665.914 922.104 663.459 919.633 663.469 916.625L663.533 898.382C663.546 895.373 666.015 892.921 669.027 892.933L785.771 893.348C788.778 893.357 791.232 895.828 791.222 898.838L791.158 917.079Z" fill="#E8512E"/>
<path d="M790.939 978.645C790.928 981.654 788.458 984.106 785.448 984.096L668.704 983.681C665.691 983.67 663.239 981.197 663.25 978.188L663.314 959.948C663.326 956.938 665.799 954.483 668.808 954.494L785.55 954.911C788.562 954.922 791.017 957.395 791.004 960.404L790.939 978.645Z" fill="#E8512E"/>
<path d="M790.718 1040.21C790.705 1043.22 788.236 1045.67 785.226 1045.66L668.486 1045.24C665.475 1045.23 663.021 1042.76 663.031 1039.75L663.095 1021.51C663.107 1018.5 665.576 1016.05 668.588 1016.06L785.33 1016.48C788.339 1016.48 790.793 1018.95 790.783 1021.97L790.718 1040.21Z" fill="#E8512E"/>
<path d="M790.501 1101.77C790.488 1104.78 788.015 1107.23 785.009 1107.22L668.265 1106.81C665.253 1106.8 662.802 1104.33 662.81 1101.31L662.878 1083.08C662.887 1080.06 665.359 1077.61 668.365 1077.62L785.109 1078.04C788.122 1078.05 790.576 1080.52 790.564 1083.53L790.501 1101.77Z" fill="#E8512E"/>
<path d="M790.28 1163.33C790.267 1166.34 787.798 1168.8 784.787 1168.79L668.043 1168.37C665.035 1168.36 662.58 1165.89 662.593 1162.88L662.657 1144.64C662.666 1141.63 665.139 1139.18 668.149 1139.19L784.893 1139.6C787.902 1139.61 790.356 1142.08 790.344 1145.09L790.28 1163.33Z" fill="#E8512E"/>
<path d="M1735.64 1210.83C1724.16 1210.19 1713.31 1208.53 1703.12 1205.87C1703.95 1190.53 1704.68 1175.19 1705.3 1159.84C1708.68 1160.58 1712.26 1161.4 1716.07 1162.31C1719.86 1163.22 1724 1163.77 1728.47 1163.95C1738.89 1164.38 1746.47 1161.71 1751.17 1155.9C1755.87 1150.09 1758.48 1139.91 1758.92 1125.38C1760.93 1056.64 1760.83 987.864 1758.62 919.134C1779.74 918.454 1800.87 917.775 1822 917.095C1824.19 985.363 1824.34 1053.68 1822.45 1121.95C1821.59 1152.71 1813.63 1175.73 1799.05 1190.74C1784.46 1205.76 1763.28 1212.36 1735.64 1210.83Z" fill="#082947"/>
<path d="M2076.38 1030.56C2076.33 1071.61 2066.01 1102.71 2046.19 1123.37C2026.35 1144.05 1997.74 1153.48 1960.62 1152.15C1924 1150.85 1896.34 1139.54 1877.35 1118.74C1858.35 1097.91 1849.22 1068.5 1849.26 1030.03C1849.28 991.967 1858.42 962.818 1877.36 942.079C1896.28 921.372 1924.13 910.142 1961.17 908.893C1998.3 907.641 2026.84 917.074 2046.53 937.687C2066.2 958.272 2076.41 989.395 2076.38 1030.56ZM1915.7 1030.4C1915.61 1075.43 1930.63 1098.29 1962.09 1098.99C1978.05 1099.31 1990.03 1093.99 1997.92 1082.89C2005.81 1071.8 2009.91 1054.31 2009.93 1030.49C2009.95 1006.57 2005.83 988.929 1997.86 977.669C1989.87 966.401 1978.07 960.968 1962.53 961.261C1930.86 961.915 1915.7 984.96 1915.7 1030.4Z" fill="#082947"/>
<path d="M2100.02 1153.7C2102.82 1071.87 2102.91 989.968 2100.27 908.136C2121.4 907.456 2142.52 906.775 2163.65 906.097C2166.33 989.333 2166.24 1072.64 2163.39 1155.87C2142.27 1155.15 2121.14 1154.42 2100.02 1153.7Z" fill="#082947"/>
<path d="M2419.69 1164.66C2392.12 1163.71 2364.56 1162.77 2337 1161.82C2310.69 1099.5 2282.9 1038.47 2253.72 978.787C2253.24 978.794 2252.76 978.799 2252.28 978.805C2254.66 1007.1 2255.65 1028.75 2255.58 1043.68C2255.42 1082.11 2254.67 1120.54 2253.36 1158.96C2234.73 1158.32 2216.11 1157.68 2197.49 1157.04C2200.37 1073.05 2200.46 988.991 2197.75 904.999C2225.21 904.113 2252.66 903.231 2280.12 902.347C2310.35 961.075 2339.25 1021.14 2366.71 1082.5C2367.03 1082.51 2367.35 1082.51 2367.67 1082.52C2366.54 1055.97 2365.85 1034.68 2365.81 1018.6C2365.73 978.944 2365.05 939.293 2363.77 899.653C2382.5 899.051 2401.23 898.449 2419.96 897.846C2422.83 986.76 2422.73 1075.75 2419.69 1164.66Z" fill="#082947"/>
<path d="M2721.07 888.152C2722.92 945.687 2723.62 1003.25 2723.17 1060.8C2722.88 1098.36 2713.54 1127.31 2695.67 1147.28C2677.78 1167.28 2652.47 1176.52 2619.91 1175.36C2588.09 1174.22 2564.02 1163.65 2547.48 1143.98C2530.94 1124.28 2523.06 1096.72 2523.36 1060.93C2523.81 1005.47 2523.15 950.014 2521.37 894.581C2542.49 893.9 2563.62 893.22 2584.74 892.539C2586.49 946.864 2587.18 1001.21 2586.81 1055.56C2586.68 1075.19 2589.53 1089.47 2595.56 1098.47C2601.58 1107.46 2610.59 1112.1 2622.62 1112.35C2635.5 1112.61 2644.94 1108.35 2650.9 1099.51C2656.85 1090.67 2659.98 1076.04 2660.12 1055.67C2660.49 1000.5 2659.79 945.329 2658.01 890.181C2679.03 889.506 2700.05 888.829 2721.07 888.152Z" fill="#082947"/>
<path d="M2908.23 1090.49C2907.97 1109.05 2903.95 1125.46 2896.25 1139.63C2888.54 1153.8 2877.6 1164.61 2863.52 1172.06C2849.42 1179.52 2833.05 1182.86 2814.43 1182.21C2798.9 1181.66 2785.91 1179.83 2775.46 1176.76C2765.03 1173.68 2754.22 1168.59 2743.04 1161.53C2743.76 1138.4 2744.29 1115.27 2744.64 1092.13C2756.55 1099.94 2768.95 1106.13 2781.86 1110.69C2794.76 1115.25 2806.65 1117.67 2817.5 1117.9C2826.87 1118.09 2833.78 1116.19 2838.22 1112.18C2842.67 1108.16 2844.95 1102.92 2845.05 1096.46C2845.11 1092.43 2844.28 1088.89 2842.56 1085.83C2840.85 1082.79 2838.06 1079.7 2834.21 1076.57C2830.36 1073.44 2820.07 1067.01 2803.32 1057.43C2788.14 1048.67 2776.77 1040.29 2769.16 1032.21C2761.55 1024.14 2755.91 1014.92 2752.17 1004.54C2748.45 994.155 2746.51 981.88 2746.32 967.675C2745.95 941.119 2753.26 920.269 2768.49 904.885C2783.71 889.519 2804.95 881.256 2832.3 880.344C2856.45 879.544 2881.35 885.766 2906.87 899.374C2901.02 920.355 2895.02 941.25 2888.88 962.057C2866.87 949.611 2847.89 943.674 2832.03 943.969C2823.84 944.124 2817.9 946.04 2814.24 949.714C2810.58 953.385 2808.79 957.885 2808.87 963.219C2808.95 968.959 2811.38 974.059 2816.17 978.546C2820.96 983.048 2833.91 991.183 2854.95 1003.19C2875.14 1014.55 2889.14 1026.93 2896.92 1040.22C2904.71 1053.51 2908.51 1070.3 2908.23 1090.49Z" fill="#082947"/>
<path d="M2398.42 733.953C2393.7 733.953 2389.7 730.31 2389.34 725.52C2388.96 720.498 2392.72 716.118 2397.75 715.738L2414.2 714.493C2419.23 714.112 2423.61 717.876 2423.99 722.9C2424.37 727.922 2420.6 732.302 2415.58 732.682L2399.12 733.927C2398.89 733.944 2398.65 733.953 2398.42 733.953Z" fill="#004761"/>
<path d="M2212.29 748.043C2207.56 748.043 2203.57 744.4 2203.2 739.612C2202.82 734.588 2206.59 730.207 2211.61 729.828L2340.15 720.096C2345.2 719.72 2349.55 723.479 2349.93 728.501C2350.31 733.524 2346.55 737.905 2341.53 738.285L2212.99 748.016C2212.75 748.035 2212.52 748.043 2212.29 748.043Z" fill="#004761"/>
<path d="M1732.82 784.338C1728.09 784.338 1724.1 780.696 1723.74 775.906C1723.35 770.884 1727.12 766.503 1732.14 766.124L2154.01 734.187C2159 733.813 2163.41 737.57 2163.79 742.593C2164.18 747.615 2160.41 751.996 2155.39 752.375L1733.52 784.312C1733.28 784.33 1733.05 784.338 1732.82 784.338Z" fill="#004761"/>
<path d="M2202.25 630.288C2197.64 630.288 2193.69 626.815 2193.19 622.137C2192.65 617.128 2196.28 612.634 2201.29 612.097L2230.41 608.984C2235.44 608.423 2239.91 612.076 2240.45 617.084C2240.98 622.093 2237.36 626.587 2232.35 627.122L2203.23 630.236C2202.9 630.272 2202.57 630.288 2202.25 630.288Z" fill="#004761"/>
<path d="M2019.61 649.814C2015 649.814 2011.05 646.342 2010.55 641.662C2010.01 636.655 2013.64 632.16 2018.65 631.624L2132.33 619.47C2137.34 618.926 2141.83 622.561 2142.36 627.57C2142.9 632.577 2139.27 637.072 2134.26 637.608L2020.59 649.762C2020.26 649.799 2019.93 649.814 2019.61 649.814Z" fill="#004761"/>
<path d="M1588.58 695.9C1583.98 695.9 1580.03 692.428 1579.52 687.748C1578.99 682.741 1582.62 678.247 1587.62 677.71L1949.68 639C1954.67 638.471 1959.19 642.091 1959.72 647.1C1960.26 652.107 1956.63 656.601 1951.62 657.138L1589.56 695.848C1589.24 695.884 1588.91 695.9 1588.58 695.9Z" fill="#004761"/>
<path d="M2414.9 1339.65C2414.67 1339.65 2414.44 1339.64 2414.2 1339.62L2397.74 1338.37C2392.72 1337.99 2388.96 1333.61 2389.34 1328.59C2389.72 1323.57 2394.1 1319.82 2399.13 1320.19L2415.58 1321.43C2420.61 1321.81 2424.37 1326.19 2423.99 1331.22C2423.62 1336 2419.62 1339.65 2414.9 1339.65Z" fill="#004761"/>
<path d="M2340.84 1334.04C2340.61 1334.04 2340.38 1334.03 2340.15 1334.02L2211.61 1324.28C2206.59 1323.9 2202.82 1319.52 2203.2 1314.5C2203.58 1309.48 2207.92 1305.7 2212.99 1306.1L2341.52 1315.83C2346.55 1316.21 2350.31 1320.59 2349.93 1325.61C2349.57 1330.4 2345.57 1334.04 2340.84 1334.04Z" fill="#004761"/>
<path d="M2154.71 1319.95C2154.48 1319.95 2154.24 1319.94 2154.01 1319.92L1732.14 1287.99C1727.12 1287.61 1723.35 1283.23 1723.74 1278.21C1724.11 1273.18 1728.5 1269.41 1733.52 1269.8L2155.39 1301.74C2160.41 1302.11 2164.17 1306.5 2163.79 1311.52C2163.43 1316.31 2159.43 1319.95 2154.71 1319.95Z" fill="#004761"/>
<path d="M2231.39 1445.18C2231.07 1445.18 2230.74 1445.17 2230.41 1445.13L2201.29 1442.02C2196.28 1441.48 2192.66 1436.99 2193.19 1431.98C2193.73 1426.97 2198.22 1423.34 2203.23 1423.88L2232.35 1426.99C2237.36 1427.53 2240.99 1432.02 2240.45 1437.03C2239.95 1441.71 2235.99 1445.18 2231.39 1445.18Z" fill="#004761"/>
<path d="M2133.31 1434.69C2132.98 1434.69 2132.66 1434.68 2132.33 1434.64L2018.65 1422.49C2013.64 1421.95 2010.01 1417.46 2010.55 1412.45C2011.09 1407.44 2015.58 1403.8 2020.59 1404.35L2134.26 1416.5C2139.27 1417.04 2142.9 1421.53 2142.36 1426.54C2141.86 1431.22 2137.91 1434.69 2133.31 1434.69Z" fill="#004761"/>
<path d="M1950.67 1415.17C1950.34 1415.17 1950.02 1415.15 1949.69 1415.11L1587.63 1376.4C1582.62 1375.87 1578.99 1371.37 1579.53 1366.36C1580.06 1361.36 1584.56 1357.72 1589.56 1358.26L1951.62 1396.98C1956.63 1397.51 1960.26 1402.01 1959.72 1407.01C1959.22 1411.69 1955.27 1415.17 1950.67 1415.17Z" fill="#004761"/>
<path d="M2648.11 832.237C2630.88 832.237 2616.86 818.221 2616.86 800.991C2616.86 783.762 2630.88 769.746 2648.11 769.746C2665.34 769.746 2679.35 783.762 2679.35 800.991C2679.35 818.221 2665.34 832.237 2648.11 832.237ZM2648.11 780.691C2636.92 780.691 2627.81 789.797 2627.81 800.991C2627.81 812.186 2636.91 821.292 2648.11 821.292C2659.3 821.292 2668.41 812.186 2668.41 800.991C2668.41 789.797 2659.3 780.691 2648.11 780.691Z" fill="#004761"/>
<path d="M1651.95 1255.14C1634.72 1255.14 1620.7 1241.13 1620.7 1223.9C1620.7 1206.67 1634.72 1192.65 1651.95 1192.65C1669.18 1192.65 1683.19 1206.67 1683.19 1223.9C1683.19 1241.13 1669.18 1255.14 1651.95 1255.14ZM1651.95 1203.6C1640.75 1203.6 1631.65 1212.7 1631.65 1223.9C1631.65 1235.09 1640.75 1244.2 1651.95 1244.2C1663.14 1244.2 1672.25 1235.09 1672.25 1223.9C1672.25 1212.7 1663.14 1203.6 1651.95 1203.6Z" fill="#004761"/>
<path d="M2372.66 649.299C2355.43 649.299 2341.42 635.283 2341.42 618.053C2341.42 600.823 2355.43 586.808 2372.66 586.808C2389.89 586.808 2403.91 600.823 2403.91 618.053C2403.91 635.283 2389.89 649.299 2372.66 649.299ZM2372.66 597.752C2361.47 597.752 2352.36 606.858 2352.36 618.053C2352.36 629.248 2361.47 638.354 2372.66 638.354C2383.86 638.354 2392.96 629.248 2392.96 618.053C2392.96 606.859 2383.86 597.752 2372.66 597.752Z" fill="#004761"/>
<path d="M2058.06 1209.05C2044.31 1209.05 2033.13 1197.86 2033.13 1184.11C2033.13 1170.37 2044.31 1159.18 2058.06 1159.18C2071.81 1159.18 2082.99 1170.37 2082.99 1184.11C2082.99 1197.86 2071.81 1209.05 2058.06 1209.05ZM2058.06 1170.13C2050.35 1170.13 2044.08 1176.4 2044.08 1184.11C2044.08 1191.83 2050.35 1198.1 2058.06 1198.1C2065.77 1198.1 2072.05 1191.83 2072.05 1184.11C2072.05 1176.4 2065.77 1170.13 2058.06 1170.13Z" fill="#004761"/>
<path d="M2540.82 697.007C2527.08 697.007 2515.89 685.823 2515.89 672.077C2515.89 658.33 2527.08 647.146 2540.82 647.146C2554.57 647.146 2565.75 658.33 2565.75 672.077C2565.75 685.824 2554.57 697.007 2540.82 697.007ZM2540.82 658.092C2533.11 658.092 2526.84 664.366 2526.84 672.078C2526.84 679.789 2533.11 686.063 2540.82 686.063C2548.54 686.063 2554.81 679.789 2554.81 672.078C2554.81 664.365 2548.54 658.092 2540.82 658.092Z" fill="#004761"/>
<path d="M2962.52 957.803C2948.77 957.803 2937.59 946.619 2937.59 932.873C2937.59 919.126 2948.77 907.942 2962.52 907.942C2976.26 907.942 2987.45 919.126 2987.45 932.873C2987.45 946.619 2976.26 957.803 2962.52 957.803ZM2962.52 918.887C2954.8 918.887 2948.53 925.161 2948.53 932.873C2948.53 940.584 2954.8 946.858 2962.52 946.858C2970.23 946.858 2976.5 940.584 2976.5 932.873C2976.5 925.161 2970.23 918.887 2962.52 918.887Z" fill="#004761"/>
<path d="M2422.04 1446.27C2410.63 1446.27 2401.34 1436.99 2401.34 1425.57C2401.34 1414.15 2410.63 1404.87 2422.04 1404.87C2433.46 1404.87 2442.75 1414.16 2442.75 1425.57C2442.75 1436.99 2433.46 1446.27 2422.04 1446.27ZM2422.04 1415.81C2416.66 1415.81 2412.28 1420.19 2412.28 1425.57C2412.28 1430.95 2416.66 1435.33 2422.04 1435.33C2427.43 1435.33 2431.8 1430.95 2431.8 1425.57C2431.8 1420.19 2427.43 1415.81 2422.04 1415.81Z" fill="#004761"/>
<path d="M1884.51 882.899C1873.1 882.899 1863.81 873.61 1863.81 862.196C1863.81 850.779 1873.1 841.491 1884.51 841.491C1895.93 841.491 1905.22 850.78 1905.22 862.196C1905.22 873.61 1895.93 882.899 1884.51 882.899ZM1884.51 852.436C1879.13 852.436 1874.75 856.815 1874.75 862.196C1874.75 867.577 1879.13 871.954 1884.51 871.954C1889.89 871.954 1894.27 867.577 1894.27 862.196C1894.27 856.815 1889.9 852.436 1884.51 852.436Z" fill="#004761"/>
<path d="M2480.97 1193.48C2469.56 1193.48 2460.27 1184.19 2460.27 1172.78C2460.27 1161.36 2469.56 1152.07 2480.97 1152.07C2492.39 1152.07 2501.68 1161.36 2501.68 1172.78C2501.68 1184.19 2492.39 1193.48 2480.97 1193.48ZM2480.97 1163.02C2475.59 1163.02 2471.21 1167.4 2471.21 1172.78C2471.21 1178.16 2475.59 1182.54 2480.97 1182.54C2486.35 1182.54 2490.73 1178.16 2490.73 1172.78C2490.73 1167.4 2486.35 1163.02 2480.97 1163.02Z" fill="#004761"/>
<path d="M1682.41 867.513C1671 867.513 1661.71 858.225 1661.71 846.81C1661.71 835.393 1671 826.105 1682.41 826.105C1693.83 826.105 1703.12 835.394 1703.12 846.81C1703.12 858.225 1693.83 867.513 1682.41 867.513ZM1682.41 837.049C1677.03 837.049 1672.65 841.428 1672.65 846.809C1672.65 852.191 1677.03 856.567 1682.41 856.567C1687.79 856.567 1692.17 852.191 1692.17 846.809C1692.17 841.428 1687.8 837.049 1682.41 837.049Z" fill="#004761"/>
<path d="M2878.85 736.873C2878.05 736.873 2877.24 736.611 2876.57 736.073L2859.25 722.209L2841.93 736.073C2840.6 737.138 2838.7 737.138 2837.37 736.073L2820.05 722.209L2802.73 736.073C2801.4 737.138 2799.5 737.14 2798.17 736.071L2780.86 722.211L2763.55 736.073C2761.98 737.329 2759.68 737.078 2758.42 735.505C2757.16 733.932 2757.42 731.636 2758.99 730.376L2778.58 714.688C2779.91 713.623 2781.81 713.621 2783.14 714.69L2800.45 728.551L2817.77 714.688C2819.1 713.623 2820.99 713.623 2822.33 714.688L2839.65 728.552L2856.97 714.688C2858.3 713.623 2860.19 713.623 2861.53 714.688L2881.13 730.376C2882.71 731.636 2882.96 733.931 2881.7 735.505C2880.98 736.405 2879.92 736.873 2878.85 736.873Z" fill="#004761"/>
<path d="M1799.99 1505.15C1799.19 1505.15 1798.39 1504.89 1797.71 1504.35L1780.39 1490.48L1763.07 1504.35C1761.74 1505.41 1759.84 1505.41 1758.51 1504.35L1741.19 1490.48L1723.87 1504.35C1722.54 1505.41 1720.64 1505.41 1719.31 1504.35L1702 1490.49L1684.69 1504.35C1683.12 1505.6 1680.82 1505.35 1679.56 1503.78C1678.3 1502.21 1678.56 1499.91 1680.13 1498.65L1699.72 1482.96C1701.06 1481.9 1702.95 1481.9 1704.28 1482.96L1721.59 1496.82L1738.91 1482.96C1740.24 1481.9 1742.13 1481.9 1743.47 1482.96L1760.79 1496.83L1778.11 1482.96C1779.44 1481.9 1781.33 1481.9 1782.67 1482.96L1802.27 1498.65C1803.85 1499.91 1804.1 1502.2 1802.84 1503.78C1802.12 1504.68 1801.06 1505.15 1799.99 1505.15Z" fill="#004761"/>
<path d="M2332.22 1232.89C2331.42 1232.89 2330.62 1232.63 2329.94 1232.09L2315.41 1220.46L2300.88 1232.09C2299.55 1233.15 2297.65 1233.15 2296.32 1232.09L2281.79 1220.46L2267.26 1232.09C2265.93 1233.15 2264.03 1233.15 2262.7 1232.09L2248.18 1220.46L2233.66 1232.09C2232.09 1233.34 2229.79 1233.09 2228.53 1231.52C2227.27 1229.95 2227.53 1227.65 2229.1 1226.39L2245.9 1212.93C2247.23 1211.87 2249.13 1211.87 2250.46 1212.94L2264.98 1224.56L2279.51 1212.93C2280.84 1211.87 2282.74 1211.87 2284.07 1212.93L2298.6 1224.57L2313.13 1212.93C2314.46 1211.87 2316.35 1211.87 2317.69 1212.93L2334.5 1226.39C2336.08 1227.65 2336.33 1229.94 2335.07 1231.52C2334.35 1232.42 2333.29 1232.89 2332.22 1232.89Z" fill="#004761"/>
<path d="M2731.57 1289.27C2730.77 1289.27 2729.97 1289.01 2729.29 1288.47L2714.76 1276.84L2700.23 1288.47C2698.9 1289.54 2697 1289.54 2695.67 1288.47L2681.14 1276.84L2666.61 1288.47C2665.28 1289.54 2663.38 1289.54 2662.05 1288.47L2647.53 1276.84L2633.01 1288.47C2631.44 1289.72 2629.14 1289.47 2627.88 1287.9C2626.62 1286.33 2626.87 1284.03 2628.45 1282.77L2645.25 1269.32C2646.58 1268.25 2648.48 1268.25 2649.81 1269.32L2664.33 1280.95L2678.86 1269.32C2680.19 1268.25 2682.08 1268.25 2683.42 1269.32L2697.95 1280.95L2712.48 1269.32C2713.81 1268.25 2715.7 1268.25 2717.04 1269.32L2733.85 1282.77C2735.43 1284.03 2735.68 1286.33 2734.42 1287.9C2733.7 1288.8 2732.64 1289.27 2731.57 1289.27Z" fill="#004761"/>
<path d="M2686.96 602.657C2686.16 602.657 2685.36 602.395 2684.69 601.857L2670.15 590.225L2655.62 601.857C2654.29 602.922 2652.39 602.922 2651.06 601.857L2636.53 590.225L2622 601.857C2620.67 602.922 2618.77 602.924 2617.44 601.855L2602.92 590.226L2588.4 601.857C2586.83 603.113 2584.53 602.86 2583.27 601.289C2582.01 599.716 2582.27 597.422 2583.84 596.16L2600.64 582.704C2601.98 581.638 2603.87 581.637 2605.2 582.706L2619.72 594.334L2634.25 582.704C2635.58 581.638 2637.48 581.638 2638.81 582.704L2653.34 594.336L2667.87 582.704C2669.2 581.638 2671.1 581.638 2672.43 582.704L2689.25 596.16C2690.82 597.42 2691.07 599.714 2689.81 601.289C2689.09 602.189 2688.03 602.657 2686.96 602.657Z" fill="#004761"/>
<path d="M2205.12 857.339C2204.32 857.339 2203.51 857.078 2202.84 856.54L2188.31 844.907L2173.78 856.54C2172.45 857.605 2170.55 857.605 2169.22 856.54L2154.69 844.907L2140.16 856.54C2138.82 857.605 2136.93 857.607 2135.6 856.538L2121.08 844.909L2106.56 856.54C2104.99 857.796 2102.69 857.543 2101.43 855.971C2100.17 854.398 2100.42 852.104 2102 850.843L2118.8 837.386C2120.13 836.321 2122.03 836.319 2123.36 837.388L2137.88 849.017L2152.41 837.386C2153.74 836.321 2155.63 836.321 2156.97 837.386L2171.5 849.019L2186.02 837.386C2187.36 836.321 2189.25 836.321 2190.59 837.386L2207.4 850.843C2208.98 852.103 2209.23 854.396 2207.97 855.971C2207.25 856.871 2206.19 857.339 2205.12 857.339Z" fill="#004761"/>
<path d="M2313.14 549.35C2312.34 549.35 2311.53 549.088 2310.86 548.55L2296.32 536.918L2281.8 548.55C2280.46 549.616 2278.57 549.616 2277.24 548.55L2262.71 536.918L2248.18 548.55C2246.84 549.616 2244.95 549.617 2243.62 548.549L2229.1 536.92L2214.58 548.55C2213.01 549.806 2210.71 549.555 2209.45 547.982C2208.19 546.409 2208.44 544.115 2210.02 542.854L2226.82 529.397C2228.15 528.332 2230.05 528.33 2231.38 529.399L2245.9 541.028L2260.43 529.397C2261.76 528.332 2263.65 528.332 2264.99 529.397L2279.52 541.029L2294.04 529.397C2295.38 528.332 2297.27 528.332 2298.6 529.397L2315.42 542.854C2316.99 544.113 2317.25 546.407 2315.99 547.982C2315.27 548.881 2314.21 549.35 2313.14 549.35Z" fill="#004761"/>
<path d="M3028.52 1146.04C3025.95 1146.04 3023.87 1143.96 3023.87 1141.39V1055.48C3023.87 1052.91 3025.95 1050.83 3028.52 1050.83C3031.08 1050.83 3033.17 1052.91 3033.17 1055.48V1141.39C3033.17 1143.96 3031.08 1146.04 3028.52 1146.04Z" fill="#004761"/>
<path d="M2976.9 1140.93C2976.9 1150.93 2989.5 1159.03 3005.03 1159.03C3020.57 1159.03 3033.17 1150.93 3033.17 1140.93C3033.17 1130.94 3020.57 1122.83 3005.03 1122.83C2989.5 1122.83 2976.9 1130.94 2976.9 1140.93Z" fill="#004761"/>
<path d="M3028.59 1050.89C3033.16 1050.28 3038.71 1051.72 3042.9 1053.49C3050.21 1056.57 3057.24 1062.12 3065.61 1060.05C3067.56 1059.57 3069.78 1058.92 3071.45 1057.76C3071.4 1059.27 3070.71 1060.76 3070.18 1062.15C3068.97 1065.34 3067.63 1068.59 3065.39 1071.21C3059.92 1077.57 3049.52 1080.6 3041.47 1078.46C3038.9 1077.78 3036.29 1076.84 3033.63 1076.54C3031.19 1076.27 3028.54 1076.78 3028.34 1073.68C3028.16 1070.81 3028.56 1067.81 3028.48 1064.91C3028.39 1061.98 3028.5 1059.03 3028.51 1056.09C3028.52 1054.36 3028.48 1052.62 3028.59 1050.89Z" fill="#004761"/>
<path d="M2566.77 1404.16C2564.64 1403.34 2563.57 1400.94 2564.39 1398.81L2591.9 1327.38C2592.72 1325.25 2595.11 1324.18 2597.25 1325.01C2599.38 1325.83 2600.45 1328.22 2599.62 1330.36L2572.12 1401.78C2571.3 1403.92 2568.9 1404.98 2566.77 1404.16Z" fill="#004761"/>
<path d="M2525.49 1383.39C2522.29 1391.7 2530.17 1402.47 2543.09 1407.44C2556 1412.42 2569.07 1409.71 2572.27 1401.4C2575.47 1393.09 2567.59 1382.32 2554.67 1377.35C2541.76 1372.38 2528.69 1375.08 2525.49 1383.39Z" fill="#004761"/>
<path d="M2597.29 1325.08C2601.29 1326.04 2605.44 1329.01 2608.36 1331.82C2613.45 1336.72 2617.51 1343.58 2625.13 1344.55C2626.91 1344.77 2628.96 1344.94 2630.73 1344.51C2630.2 1345.75 2629.15 1346.77 2628.27 1347.75C2626.24 1350.02 2624.09 1352.3 2621.38 1353.75C2614.8 1357.29 2605.18 1356.48 2599.18 1352.13C2597.25 1350.73 2595.39 1349.12 2593.27 1348.02C2591.33 1347.01 2588.96 1346.59 2589.79 1343.95C2590.56 1341.5 2591.85 1339.14 2592.71 1336.71C2593.58 1334.24 2594.62 1331.82 2595.56 1329.38C2596.13 1327.94 2596.64 1326.48 2597.29 1325.08Z" fill="#004761"/>
<path d="M2805.59 658.794C2803.35 658.329 2801.91 656.138 2802.38 653.899L2817.9 578.953C2818.37 576.712 2820.56 575.275 2822.8 575.74C2825.04 576.203 2826.48 578.394 2826.01 580.633L2810.49 655.579C2810.02 657.818 2807.83 659.259 2805.59 658.794Z" fill="#004761"/>
<path d="M2761.49 645.009C2759.68 653.732 2769.2 663.074 2782.76 665.883C2796.31 668.691 2808.77 663.899 2810.57 655.178C2812.38 646.459 2802.86 637.116 2789.3 634.307C2775.75 631.499 2763.3 636.291 2761.49 645.009Z" fill="#004761"/>
<path d="M2822.85 575.801C2826.95 576.1 2831.54 578.357 2834.87 580.655C2840.69 584.666 2845.81 590.775 2853.49 590.488C2855.28 590.42 2857.33 590.249 2859 589.54C2858.68 590.848 2857.82 592.027 2857.11 593.142C2855.47 595.702 2853.72 598.304 2851.28 600.18C2845.37 604.742 2835.74 605.505 2829.12 602.182C2826.99 601.119 2824.89 599.833 2822.62 599.093C2820.54 598.413 2818.13 598.384 2818.52 595.641C2818.88 593.101 2819.77 590.563 2820.22 588.019C2820.68 585.443 2821.31 582.887 2821.85 580.328C2822.17 578.815 2822.44 577.296 2822.85 575.801Z" fill="#004761"/>
<path d="M2016.53 1530.27C2018.78 1529.81 2020.22 1527.63 2019.76 1525.39L2004.4 1450.41C2003.94 1448.16 2001.75 1446.72 1999.52 1447.18C1997.27 1447.64 1995.83 1449.83 1996.29 1452.07L2011.64 1527.05C2012.1 1529.29 2014.3 1530.73 2016.53 1530.27Z" fill="#004761"/>
<path d="M2060.67 1516.59C2062.46 1525.31 2052.91 1534.63 2039.35 1537.41C2025.79 1540.19 2013.35 1535.37 2011.56 1526.64C2009.78 1517.92 2019.32 1508.6 2032.88 1505.82C2046.44 1503.04 2058.88 1507.86 2060.67 1516.59Z" fill="#004761"/>
<path d="M1999.46 1447.24C1995.36 1447.53 1990.77 1449.78 1987.44 1452.07C1981.6 1456.07 1976.47 1462.16 1968.79 1461.86C1967 1461.79 1964.95 1461.61 1963.28 1460.9C1963.6 1462.21 1964.46 1463.39 1965.17 1464.5C1966.8 1467.07 1968.55 1469.67 1970.98 1471.55C1976.88 1476.13 1986.5 1476.92 1993.14 1473.61C1995.27 1472.55 1997.37 1471.27 1999.64 1470.53C2001.72 1469.86 2004.13 1469.83 2003.75 1467.09C2003.39 1464.55 2002.51 1462.01 2002.06 1459.46C2001.61 1456.89 2000.98 1454.33 2000.45 1451.77C2000.14 1450.26 1999.87 1448.74 1999.46 1447.24Z" fill="#004761"/>
<path d="M2126.75 542.385C2129.14 541.443 2130.31 538.742 2129.36 536.356L2097.8 456.452C2096.85 454.064 2094.15 452.894 2091.77 453.838C2089.38 454.782 2088.21 457.48 2089.15 459.867L2120.72 539.772C2121.66 542.159 2124.36 543.329 2126.75 542.385Z" fill="#004761"/>
<path d="M2172.88 518.669C2176.55 527.967 2167.81 540.132 2153.36 545.84C2138.91 551.549 2124.22 548.64 2120.55 539.343C2116.87 530.048 2125.61 517.885 2140.06 512.176C2154.51 506.466 2169.2 509.376 2172.88 518.669Z" fill="#004761"/>
<path d="M2091.72 453.916C2087.25 455.033 2082.61 458.411 2079.37 461.59C2073.7 467.148 2069.2 474.888 2060.66 476.043C2058.67 476.312 2056.36 476.518 2054.38 476.054C2054.98 477.438 2056.17 478.576 2057.17 479.672C2059.47 482.193 2061.91 484.733 2064.96 486.338C2072.38 490.246 2083.17 489.246 2089.86 484.297C2092.01 482.713 2094.09 480.886 2096.45 479.632C2098.62 478.481 2101.28 477.987 2100.32 475.027C2099.43 472.287 2097.96 469.652 2096.97 466.923C2095.97 464.162 2094.79 461.458 2093.7 458.731C2093.05 457.119 2092.46 455.489 2091.72 453.916Z" fill="#004761"/>
<path d="M3033.13 827.101C3030.78 827.845 3028.28 826.548 3027.53 824.204L3002.62 745.744C3001.88 743.4 3003.18 740.896 3005.52 740.152C3007.87 739.406 3010.37 740.703 3011.11 743.049L3036.02 821.509C3036.77 823.854 3035.47 826.357 3033.13 827.101Z" fill="#004761"/>
<path d="M2994.29 834.295C2996.64 841.686 3007.85 844.721 3019.34 841.073C3030.83 837.427 3038.24 828.48 3035.89 821.088C3033.54 813.699 3022.33 810.665 3010.84 814.311C2999.35 817.96 2991.94 826.905 2994.29 834.295Z" fill="#004761"/>
<path d="M3091.15 791.058C3088.8 791.802 3086.3 790.506 3085.56 788.159L3060.65 709.699C3059.9 707.355 3061.2 704.852 3063.55 704.108C3065.89 703.363 3068.39 704.659 3069.14 707.006L3094.05 785.464C3094.79 787.81 3093.49 790.313 3091.15 791.058Z" fill="#004761"/>
<path d="M3052.31 798.251C3054.66 805.643 3065.87 808.676 3077.36 805.029C3088.85 801.383 3096.26 792.436 3093.91 785.044C3091.57 777.655 3080.35 774.621 3068.87 778.267C3057.38 781.914 3049.97 790.862 3052.31 798.251Z" fill="#004761"/>
<path d="M3003.13 746.856C3001.83 744.772 3002.6 741.934 3004.87 740.518L3062.19 704.712C3064.46 703.296 3067.35 703.837 3068.66 705.925C3069.96 708.013 3069.18 710.85 3066.91 712.267L3009.59 748.074C3007.32 749.49 3004.43 748.945 3003.13 746.856Z" fill="#004761"/>
<path d="M3009.78 767.818C3008.48 765.732 3009.26 762.895 3011.52 761.479L3068.85 725.673C3071.12 724.256 3074.01 724.798 3075.31 726.886C3076.62 728.974 3075.84 731.811 3073.57 733.227L3016.25 769.035C3013.98 770.451 3011.09 769.906 3009.78 767.818Z" fill="#004761"/>
<path d="M2808.75 1333.05C2806.78 1331.57 2806.39 1328.78 2807.87 1326.82L2857.42 1261.08C2858.9 1259.12 2861.69 1258.73 2863.66 1260.2C2865.62 1261.69 2866.01 1264.48 2864.53 1266.44L2814.99 1332.18C2813.5 1334.14 2810.71 1334.54 2808.75 1333.05Z" fill="#004761"/>
<path d="M2780.4 1305.56C2775.73 1311.75 2779.75 1322.65 2789.38 1329.91C2799 1337.16 2810.58 1338.02 2815.25 1331.83C2819.92 1325.64 2815.9 1314.74 2806.27 1307.48C2796.65 1300.23 2785.06 1299.37 2780.4 1305.56Z" fill="#004761"/>
<path d="M2871.73 1359.49C2869.77 1358.01 2869.38 1355.22 2870.86 1353.26L2920.4 1287.52C2921.88 1285.55 2924.68 1285.16 2926.64 1286.64C2928.61 1288.12 2929 1290.92 2927.52 1292.88L2877.97 1358.62C2876.49 1360.58 2873.7 1360.97 2871.73 1359.49Z" fill="#004761"/>
<path d="M2843.38 1332C2838.71 1338.19 2842.73 1349.09 2852.36 1356.34C2861.98 1363.6 2873.57 1364.46 2878.24 1358.26C2882.9 1352.07 2878.88 1341.17 2869.26 1333.92C2859.63 1326.67 2848.04 1325.8 2843.38 1332Z" fill="#004761"/>
<path d="M2856.81 1262.14C2857.75 1259.87 2860.51 1258.86 2862.98 1259.89L2925.36 1285.89C2927.83 1286.92 2929.07 1289.59 2928.12 1291.86C2927.17 1294.14 2924.4 1295.14 2921.94 1294.11L2859.55 1268.11C2857.09 1267.08 2855.86 1264.41 2856.81 1262.14Z" fill="#004761"/>
<path d="M2843.57 1279.7C2844.51 1277.43 2847.28 1276.42 2849.74 1277.45L2912.13 1303.46C2914.6 1304.48 2915.83 1307.15 2914.88 1309.43C2913.93 1311.7 2911.17 1312.7 2908.7 1311.68L2846.32 1285.67C2843.85 1284.65 2842.62 1281.97 2843.57 1279.7Z" fill="#004761"/>
<path d="M994.363 351.036C994.363 351.036 1130.62 472.753 1156.88 498.243C1183.15 523.721 1143 581.912 1094.55 565.691C1046.1 549.466 979.527 525.926 942.975 494.635C906.421 463.354 886.199 430.619 887.358 385.758C888.499 340.891 957.702 318.195 994.363 351.036Z" fill="url(#paint17_linear_2247_1863)"/>
<path d="M1133.13 821.176C1133.13 821.176 1075.89 821.865 1071.66 821.692C1066.98 821.503 1059.51 820.896 1062.5 835.278C1065.52 849.649 1066.2 854.218 1066.2 854.218C1066.2 854.218 1128.22 837.623 1134.69 835.059C1141.15 832.5 1145.06 826.059 1133.13 821.176Z" fill="#111C29"/>
<path d="M1068.77 726.175C1069.27 742.22 1069.81 754.527 1070.38 760.325C1073.02 787.153 1066.54 826.061 1066.54 826.061C1066.54 826.061 1066.75 830.062 1073.46 832.045C1077.92 833.365 1082.43 830.03 1082.43 830.03C1082.43 830.03 1094.99 781.556 1108.55 729.509L1068.77 726.175Z" fill="#F2A874"/>
<path d="M1136.67 622.086C1150.87 568.555 1154 569.065 1164.42 524.481C1168.99 504.937 1153.29 485.261 1116.01 481.55C1078.73 477.852 1066.87 501.904 1066.33 534.809C1065.91 560.614 1065.74 670.239 1067.52 728.4L1109.69 733.943C1120.33 693.102 1130.42 645.627 1136.67 622.086Z" fill="url(#paint18_linear_2247_1863)"/>
<path d="M1133.14 821.176C1146.04 830.074 1110.2 836.448 1092.87 840.096C1075.54 843.744 1075.09 835.536 1075.09 825.813C1075.09 816.091 1081.47 785.372 1087.54 747.978C1093.61 710.583 1100.63 606.152 1108.38 563.741C1116.13 521.33 1108.83 518.138 1072.35 505.369C1035.87 492.6 1034.04 472.535 1056.85 458.398C1071.43 449.354 1078.76 437.331 1082.15 429.837C1039.04 390.941 994.368 351.036 994.368 351.036C979.332 337.567 958.826 333.453 939.783 336.365C930.835 339.513 921.6 342.841 912.265 346.275C897.89 355.101 887.794 368.854 887.364 385.759C886.205 430.619 906.426 463.355 942.981 494.636C972.78 520.147 1022.53 540.501 1066.14 555.946C1065.92 598.203 1066.07 680.646 1067.52 728.4L1068.85 728.575C1069.33 743.442 1069.84 754.821 1070.38 760.326C1072.5 781.81 1068.77 811.018 1067.2 821.812C1063.53 822.434 1060.39 825.09 1062.51 835.279C1065.53 849.65 1066.2 854.219 1066.2 854.219C1066.2 854.219 1128.23 837.624 1134.69 835.06C1141.15 832.5 1145.07 826.059 1133.14 821.176Z" fill="url(#paint19_linear_2247_1863)"/>
<path d="M711.641 813.376C709.828 809.062 707.216 802.032 695.459 810.842C683.72 819.669 679.857 822.218 679.857 822.218C679.857 822.218 704.102 851.051 717.721 866.686H737.12C732.405 856.908 713.077 816.806 711.641 813.376Z" fill="#111C29"/>
<path d="M726.785 846.632V866.624C733.111 866.71 737.881 866.717 739.502 866.581C746.432 865.997 752.032 860.967 742.023 852.837C742.023 852.837 728.241 847.056 726.785 846.632Z" fill="#111C29"/>
<path d="M979.972 395.558C979.972 395.558 970.695 578.026 967.327 614.47C963.968 650.909 893.468 656.163 875.696 608.255C857.929 560.352 834.486 493.746 835.917 445.652C837.337 397.561 850.138 361.273 885.796 334.027C921.445 306.762 982.543 346.405 979.972 395.558Z" fill="#0B3D59"/>
<path d="M745.82 763.141C731.601 786.042 702.813 812.994 702.813 812.994C702.813 812.994 700.544 816.3 704.666 821.945C707.409 825.724 713.011 825.812 713.011 825.812C713.011 825.812 751.679 795.574 793.586 762.873L766.023 734.061C756.3 747.575 748.972 758.059 745.82 763.141Z" fill="#F2A874"/>
<path d="M951.549 569.554C924.198 543.952 900.152 555.836 879.728 581.624C863.809 601.716 795.194 690.285 761.056 737.74L792.015 767.106C825.664 740.85 862.978 708.767 882.492 693.688C926.329 659.824 910.196 673.288 947.234 646.366C968.659 630.796 978.893 595.161 951.549 569.554Z" fill="#0B3D59"/>
<path d="M885.796 334.027C850.138 361.273 837.337 397.561 835.917 445.651C834.627 489.019 853.56 547.43 870.321 593.616C845.488 625.431 790.481 696.839 761.056 737.741L762.441 739.053C754.509 750.148 748.571 758.704 745.82 763.141C735.408 779.911 717.195 798.84 708.183 807.78C705.879 805.95 702.154 805.825 695.459 810.842C683.72 819.669 679.857 822.218 679.857 822.218C679.857 822.218 704.102 851.051 717.721 866.686H737.12C737.117 866.681 737.113 866.672 737.109 866.667C738.167 866.649 739.001 866.624 739.502 866.581C746.432 865.997 752.032 860.967 742.023 852.837C746.649 858.965 740.361 860.845 731.696 860.845C723.032 860.845 719.611 861.301 708.489 845.112C697.366 828.923 699.318 828.239 708.489 816.055C717.66 803.871 782.62 739.01 825.792 700.096C868.963 661.182 921.405 618.009 920.949 594.849C920.493 571.689 894.955 502.177 890.395 471.623C886.264 443.949 947.352 454.31 976.527 461.478C978.506 424.424 979.973 395.559 979.973 395.559C982.543 346.405 921.445 306.762 885.796 334.027Z" fill="url(#paint20_linear_2247_1863)"/>
<path d="M1270.01 75.765C1276.51 65.1942 1288.62 57.7372 1291.48 60.2298C1296.92 64.9899 1285.32 71.2083 1287.4 76.9871C1289.36 82.4403 1268.11 92.7467 1268.11 92.7467C1268.11 92.7467 1266.64 81.241 1270.01 75.765Z" fill="#F2A874"/>
<path d="M1191.33 200.744C1207.97 186.338 1263.3 121.523 1280.35 109.376C1306.82 117.853 1316.05 100.463 1323.54 89.49C1330.67 79.0204 1306.65 57.5888 1302.09 60.6533C1296.08 64.701 1296.49 64.2906 1286.78 73.974C1279.4 81.3243 1265.11 64.8889 1268.26 94.5984C1254.33 108.536 1215.99 138.168 1215.99 138.168L1146.78 193.437C1146.78 193.437 1130.36 208.841 1141.48 219.993C1150.57 229.118 1178.86 211.559 1191.33 200.744Z" fill="#F2A874"/>
<path d="M1117.93 234.389C1117.93 234.389 1150.02 225.25 1161.76 218.807C1170.19 214.191 1173.02 198.104 1168.61 191.212C1164.21 184.309 1133.68 182.14 1108.68 188.634C1089.51 193.615 1114.19 233.425 1117.93 234.389Z" fill="#F2A874"/>
<path d="M1010.27 248.61C1080.37 263.696 1144.7 243.435 1144.7 243.435C1144.7 243.435 1153.04 227.039 1146.7 203.895C1140.9 182.787 1131.67 175.527 1131.67 175.527C1131.67 175.527 1067.12 176.129 1019.44 169.96C986.994 165.758 972.055 240.394 1010.27 248.61Z" fill="#004761"/>
<path d="M1280.35 109.375C1306.82 117.853 1316.05 100.462 1323.54 89.4893C1330.67 79.0198 1306.65 57.5881 1302.09 60.6527C1296.29 64.5536 1296.44 64.342 1287.76 72.9974C1289.73 68.4535 1295.68 63.9051 1291.48 60.2286C1288.62 57.7368 1276.51 65.1929 1270.01 75.7637C1267.35 80.0796 1267.71 88.1212 1267.97 91.3436C1268.05 92.3678 1268.13 93.4368 1268.26 94.5978C1259.74 103.116 1242.13 117.489 1229.7 127.384C1238.4 127.416 1243.25 127.703 1239.56 131.686C1234.39 137.269 1217.98 155.594 1196.7 174.442C1175.41 193.291 1164.17 204.539 1140.76 208.663C1117.35 212.786 1099.48 217.613 1106.78 198.459C1110.55 188.561 1114.49 180.816 1117.15 175.495C1106.9 175.402 1092.16 175.138 1075.87 174.43C1070.76 182.756 1063.58 194.593 1059.13 202.563C1051.6 216.016 1052.06 205.527 1050.92 187.514C1050.46 180.375 1046.37 175.536 1041.59 172.285C1034.01 171.642 1026.54 170.876 1019.44 169.959C986.994 165.757 972.054 240.393 1010.27 248.608C1080.37 263.694 1144.7 243.433 1144.7 243.433C1144.7 243.433 1148.4 236.086 1148.98 224.32C1152 223.197 1154.85 222.061 1157.33 220.96C1169.05 217.23 1183.39 207.625 1191.33 200.742C1207.97 186.338 1263.3 121.523 1280.35 109.375Z" fill="url(#paint21_linear_2247_1863)"/>
<path d="M904.654 55.9094C917.27 11.1435 869.558 -22.2516 835.9 18.1919C789.916 73.4501 761.719 46.9857 735.134 29.4468C713.581 15.2277 667.867 -1.06262 630.329 58.278C592.785 117.631 646.514 188.122 716.517 198.949C793.685 210.884 830.104 189.021 857.035 145.257C885.348 99.2323 898.559 77.5426 904.654 55.9094Z" fill="#082947"/>
<path d="M924.929 51.9707L905.037 42.3047C905.037 42.3047 890.168 54.9349 883.579 71.3657C876.995 87.8056 880.697 92.4736 880.697 92.4736L912.263 104.594C912.263 104.594 928.121 96.0662 931.986 78.9532C935.855 61.8465 924.929 51.9707 924.929 51.9707Z" fill="#004761"/>
<path d="M1025.34 120.474C1034.81 109.953 1034.22 82.3038 1028.15 68.1632C1020.14 49.4842 1010.52 20.3812 954.49 30.6209C916.116 37.6328 874.478 96.345 920.53 139.962C951.33 169.134 1008.29 139.419 1025.34 120.474Z" fill="#082947"/>
<path d="M1046.55 209.234C1048.93 176.316 1041.22 170.835 993.527 166.211C979.395 164.835 968.792 165.016 955.359 164.937C904.074 164.636 879.201 201.097 864.566 249.74C833.352 353.478 833.806 454.853 833.806 454.853C833.806 454.853 895.466 431.363 986.16 457.032C1058.67 477.553 1075.8 424.115 1075.8 424.115C1075.8 424.115 1059.95 393.434 1051.93 352.44C1072.96 347.181 1081.72 339.785 1084.45 323.459C1088.74 297.873 1041.78 275.494 1046.55 209.234Z" fill="#127FB5"/>
<path d="M972.48 441.981C931.893 429.212 908.635 440.157 907.951 402.306C907.267 364.455 909.547 296.963 919.124 300.611C928.701 304.259 979.548 311.1 1001.89 311.328C1024.24 311.556 1032.22 313.38 1036.64 304.487C1041.06 295.595 1041.34 292.403 1048 290.35C1053.12 288.769 1058.85 285.265 1063.96 279.37C1055.66 265.622 1047.76 248.577 1046.43 225.412C1039.97 238.751 1033.31 237.619 1032.6 226.506C1031.84 214.649 1030.62 207.809 1026.97 191.848C1023.32 175.894 1043.25 182.166 1046.72 194.575C1045.08 174.474 1033.02 170.04 993.527 166.21C979.395 164.834 968.792 165.015 955.359 164.936C904.074 164.635 879.201 201.096 864.566 249.739C833.352 353.477 833.806 454.852 833.806 454.852C833.806 454.852 895.466 431.362 986.16 457.031C1058.67 477.552 1075.8 424.114 1075.8 424.114C1075.8 424.114 1075.05 422.657 1073.79 419.96C1049.09 466.595 1011.63 454.299 972.48 441.981ZM1021.58 346.823C988.745 346.823 945.604 345.083 936.891 335.396C931.032 328.881 933.452 318.233 933.452 318.233C933.452 318.233 926.262 335.357 936.302 343.96C949.895 355.607 1025.43 356.672 1052.81 356.702C1052.51 355.293 1052.21 353.875 1051.93 352.439C1066.88 348.7 1075.61 343.864 1080.4 335.523C1065.23 348.088 1054.38 346.823 1021.58 346.823Z" fill="url(#paint22_linear_2247_1863)"/>
<path d="M978.382 161.236C957.965 160.773 935.689 149.251 932.816 163.294C929.93 177.342 940.974 231.23 972.024 248.542C1003.08 265.839 1029.27 254.278 1028.53 236.893C1027.79 219.519 1022.09 200.786 1019.58 187.118C1017.06 173.448 1023.41 160.397 1009.05 159.751C994.679 159.095 989.738 161.504 978.382 161.236Z" fill="#082947"/>
<path d="M993.527 166.21C979.396 164.835 968.782 165.51 955.359 164.937C951.341 164.771 947.62 164.66 944.116 164.636C946.214 184.985 954.98 249.085 1000.72 245.832C1035.43 243.367 1012.52 230.735 1009.53 168.034C1004.78 167.378 999.475 166.787 993.527 166.21Z" fill="#F2A874"/>
<path d="M957.237 182.011C953.949 153.391 965.581 125.732 972.119 99.4601C972.012 98.527 1012.95 95.4415 1020.26 74.9502C1020.26 74.9502 1026.18 99.6114 1025.38 120.8C1024.63 140.797 1020.2 152.16 999.819 145.307C1000.43 153.754 999.767 157.605 1001.77 170.283C1004.43 187.121 1001.01 196.393 993.819 200.088C986.622 203.775 960.843 213.429 957.237 182.011Z" fill="#F2A874"/>
<path d="M977.61 105.746C978.096 109.779 978.726 115.249 977.307 123.909C975.885 132.577 975.191 135.405 975.191 135.405C975.191 135.405 992.281 148.879 1006.81 148.617C1021.35 148.35 1028.16 138.721 1028.52 128.825C1028.96 116.68 1028.82 113.359 1025.09 99.3896C1025.09 99.3896 1013.12 109.187 977.61 105.746Z" fill="#004761"/>
<path d="M1008.07 114.617C1015.95 113.684 1022.61 111.698 1027.59 109.791C1027.54 109.485 1027.47 109.159 1027.4 108.844C1018.23 112.383 1003.09 116.235 985.299 112.989C985.035 112.952 984.787 113.112 984.745 113.378C984.695 113.636 984.866 113.886 985.128 113.933C993.457 115.452 1001.21 115.433 1008.07 114.617ZM1017.52 122.949C1021.93 122.425 1025.75 121.672 1028.69 120.981C1028.69 120.648 1028.68 120.327 1028.68 119.999C1019.66 122.151 1001.84 124.976 984.65 119.435C984.403 119.353 984.13 119.492 984.048 119.747C983.968 119.997 984.107 120.268 984.357 120.35C996.101 124.13 1008.13 124.068 1017.52 122.949ZM983.573 126.75C998.305 134.611 1018.55 134.33 1027.78 133.692C1027.87 133.366 1027.96 133.045 1028.03 132.712C1019.05 133.361 998.724 133.751 984.026 125.9C983.789 125.781 983.499 125.865 983.378 126.096C983.25 126.332 983.341 126.623 983.573 126.75ZM982.775 133.114C991.586 140.975 1007.04 144.475 1017.97 146.019C1018.44 145.777 1018.88 145.51 1019.32 145.242C1008.48 143.81 992.384 140.402 983.409 132.395C983.209 132.219 982.905 132.242 982.734 132.436C982.553 132.634 982.575 132.936 982.775 133.114Z" fill="#F5F5F5"/>
<path d="M976.859 136.422C955.076 130.375 953.717 121.625 955.494 113.071C956.164 109.85 957.93 107.317 960.604 105.742C965.078 103.12 972.008 103.12 980.634 105.802L979.495 109.465C972.047 107.149 966.016 107.008 962.549 109.05C960.784 110.088 959.706 111.659 959.252 113.853C957.889 120.407 958.203 127.264 977.886 132.729L976.859 136.422Z" fill="#004761"/>
<path d="M952.571 110.718C950.339 115.772 954.571 122.552 962.045 125.863C969.519 129.171 971.892 126.134 974.135 121.095C976.376 116.041 977.645 110.896 970.168 107.583C962.702 104.268 954.821 105.681 952.571 110.718Z" fill="#F2A874"/>
<path d="M1060.25 83.6318L1226.98 71.5898L1227.03 114.264L1060.27 102.607L1060.25 83.6318Z" fill="#004761"/>
<path d="M1060.25 83.6318L1226.98 71.5898L1227.03 114.264L1060.27 102.607L1060.25 83.6318Z" fill="url(#paint23_linear_2247_1863)"/>
<path d="M1354.36 53.8784C1356.36 53.7361 1358 55.2574 1358 57.263L1358.09 128.283C1358.09 130.288 1356.45 131.817 1354.45 131.678L1223.86 122.55C1221.86 122.412 1220.22 120.655 1220.22 118.649L1220.16 67.2209C1220.16 65.2116 1221.79 63.4514 1223.79 63.3091L1354.36 53.8784Z" fill="#004761"/>
<path d="M1351.51 136.075C1351.51 137.746 1352.88 139.107 1354.56 139.107L1361.64 139.096C1363.31 139.096 1364.68 137.728 1364.68 136.06L1364.58 49.4711C1364.58 47.8075 1363.2 46.4395 1361.53 46.4395L1354.45 46.4504C1352.77 46.4504 1351.41 47.8221 1351.41 49.4857L1351.51 136.075Z" fill="#082947"/>
<path d="M1056.1 104.851C1056.1 106.515 1057.47 107.883 1059.14 107.883L1066.23 107.872C1067.89 107.872 1069.26 106.5 1069.26 104.833L1069.23 81.383C1069.23 79.7121 1067.86 78.344 1066.19 78.3477L1059.1 78.355C1057.44 78.3586 1056.07 79.7304 1056.07 81.3976L1056.1 104.851Z" fill="#082947"/>
<path d="M1056.09 97.812L1056.1 104.852C1056.1 106.516 1057.47 107.884 1059.14 107.884L1066.23 107.873C1067.89 107.873 1069.26 106.501 1069.26 104.834L1069.25 103.234L1220.21 113.787L1220.22 118.65C1220.22 120.655 1221.86 122.412 1223.86 122.551L1351.51 131.475L1351.51 136.075C1351.51 137.746 1352.88 139.106 1354.56 139.106L1361.63 139.096C1363.31 139.096 1364.68 137.727 1364.68 136.06L1364.65 110.087C1364.65 110.753 1363.27 111.306 1361.6 111.306L1354.52 111.313C1352.85 111.317 1351.48 110.768 1351.48 110.106L1351.48 108.261L1223.84 104.78C1221.84 104.726 1220.2 104.025 1220.2 103.223L1220.2 101.278L1069.25 97.1553V97.7965C1069.25 98.4623 1067.88 99.015 1066.22 99.015L1059.13 99.0223C1057.46 99.0268 1056.09 98.4778 1056.09 97.812Z" fill="url(#paint24_linear_2247_1863)"/>
<path d="M1106.12 100.849C1108.21 88.6161 1116.67 77.1816 1120.25 78.4284C1127.07 80.817 1118.63 90.9126 1122.71 95.4994C1126.57 99.8262 1110.7 117.312 1110.7 117.312C1110.7 117.312 1105.04 107.185 1106.12 100.849Z" fill="#F2A874"/>
<path d="M1079.72 246.149C1089.78 226.581 1116.95 145.81 1128.25 128.181C1155.97 126.176 1158.05 106.598 1160.91 93.6224C1163.63 81.2493 1133.35 70.3183 1130.26 74.8631C1126.18 80.8608 1126.41 80.33 1121.02 92.9337C1116.91 102.505 1097.53 92.5808 1111.52 118.978C1103.8 137.103 1079.27 178.892 1079.27 178.892L1035.66 255.981C1035.66 255.981 1026.16 276.4 1040.64 282.601C1052.48 287.675 1072.18 260.837 1079.72 246.149Z" fill="#F2A874"/>
<path d="M1002.16 288.519C1002.16 288.519 1035.43 286.052 1048.23 282.116C1057.42 279.297 1063.44 264.115 1060.52 256.475C1057.61 248.823 1028.14 240.53 1002.34 241.837C982.566 242.843 998.693 286.82 1002.16 288.519Z" fill="#F2A874"/>
<path d="M893.847 280.689C959.455 309.629 1026.54 302.786 1026.54 302.786C1026.54 302.786 1038.03 288.414 1036.5 264.467C1035.08 242.624 1027.51 233.647 1027.51 233.647C1027.51 233.647 964.167 221.192 918.726 205.516C887.794 194.843 858.079 264.919 893.847 280.689Z" fill="#004761"/>
<path d="M1160.91 93.6224C1163.63 81.2494 1133.34 70.3183 1130.26 74.8631C1128.54 77.394 1127.58 78.7695 1126.65 80.4604C1126.73 80.3373 1126.85 80.1448 1127.03 79.7818C1129.17 75.5617 1134.81 78.2459 1145.01 81.8677C1155.22 85.4895 1156.11 92.6611 1150.64 106.647C1145.16 120.632 1124.64 117.287 1121 122.454C1117.35 127.622 1082.38 200.74 1072.81 226.734C1063.23 252.728 1052.9 267.777 1044.69 268.689C1036.48 269.601 977.953 271.425 928.855 259.873C899.772 253.031 875.043 232.207 893.316 213.693C875.963 231.472 868.633 269.573 893.847 280.69C959.455 309.63 1026.54 302.786 1026.54 302.786C1026.54 302.786 1031.66 296.34 1034.61 284.936C1038 284.412 1041.21 283.838 1043.98 283.218C1055.89 282.983 1072.85 259.529 1079.72 246.149C1089.78 226.581 1116.95 145.81 1128.25 128.181C1155.97 126.175 1158.05 106.598 1160.91 93.6224Z" fill="url(#paint25_linear_2247_1863)"/>
<path d="M748.034 1467.24C747.404 1467.65 746.589 1467.76 745.83 1467.49C662.026 1436.86 604.411 1366.82 591.72 1280.12C591.522 1278.76 592.458 1277.5 593.806 1277.3C595.167 1277.1 596.423 1278.04 596.623 1279.39C609.049 1364.27 665.467 1432.84 747.533 1462.83C748.819 1463.3 749.482 1464.72 749.014 1466.01C748.817 1466.53 748.467 1466.95 748.034 1467.24Z" fill="#35C2C1"/>
<path d="M595.472 1287.4C595.483 1287.52 583.178 1276.67 580.708 1262.83C577.701 1246.43 589.558 1232.29 589.519 1232.48C589.517 1232.6 601.657 1242.37 603.117 1253.7C605.567 1272.82 595.555 1287.19 595.472 1287.4Z" fill="#35C2C1"/>
<path d="M606.522 1327.97C606.401 1328.05 603.341 1310.83 608.982 1299.41C615.542 1286.01 631.14 1284 631.06 1283.89C630.95 1284.02 635.453 1298.42 630.736 1308.02C622.709 1324.5 606.663 1328.14 606.522 1327.97Z" fill="#35C2C1"/>
<path d="M628.866 1330.48C628.847 1330.48 628.533 1324.17 630.996 1320.13C633.9 1315.36 639.973 1314.74 639.962 1314.73C639.944 1314.73 641.467 1320.51 639.209 1324.06C635.386 1330.08 628.877 1330.52 628.866 1330.48Z" fill="#0B3D59"/>
<path d="M605.283 1286.67C605.266 1286.67 606.252 1280.01 609.456 1276.29C613.215 1271.91 619.193 1272.57 619.182 1272.54C619.156 1272.56 619.439 1278.97 616.542 1282.18C611.649 1287.66 605.288 1286.71 605.283 1286.67Z" fill="#0B3D59"/>
<path d="M633.674 1376.48C633.577 1376.57 626.699 1360.96 629.787 1349.03C633.339 1335.04 648.44 1329.82 648.337 1329.73C648.256 1329.86 655.938 1342.41 653.36 1352.48C649.028 1369.75 633.858 1376.61 633.674 1376.48Z" fill="#35C2C1"/>
<path d="M601.511 1313.01C601.386 1313.04 594.224 1297.72 584.934 1289.73C573.804 1280.26 559.149 1285.37 559.112 1285.51C558.925 1285.49 561.132 1305.95 570.91 1312.35C587.052 1322.94 601.529 1312.76 601.511 1313.01Z" fill="#35C2C1"/>
<path d="M586.918 1331.87C586.902 1331.88 582.685 1326.33 578.252 1324.44C572.974 1322.19 568.081 1326.3 568.086 1326.32C568.058 1326.33 571.026 1333.48 575.235 1334.82C582.251 1337.06 586.905 1331.84 586.918 1331.87Z" fill="#0B3D59"/>
<path d="M622.387 1365.22C622.272 1365.27 611.637 1352.2 600.558 1346.63C587.296 1340.05 573.852 1348 573.841 1348.14C573.645 1348.16 580.493 1367.01 591.707 1371.04C610.235 1377.7 622.359 1364.99 622.387 1365.22Z" fill="#35C2C1"/>
<path d="M660.79 1553.89C635.695 1530.85 616.949 1508.81 623.705 1499.04C633.786 1484.47 654.86 1499.76 663.425 1506.98C648.137 1493.05 592.346 1439.04 618.104 1414.68C647.808 1386.59 681.177 1433.19 681.177 1433.19C681.177 1433.19 668.335 1414.61 659.968 1390.07C651.601 1365.53 668.994 1325.84 701.164 1340.52C724.702 1351.28 735.395 1382.03 739.448 1397.76C734.077 1370.45 723.407 1293.53 772.266 1288.63C831.74 1282.65 840.814 1393.57 840.814 1393.57C840.814 1393.57 847.19 1374.52 858.519 1365C869.849 1355.47 897.852 1351.09 911.782 1385.49C925.707 1419.9 904.183 1465.63 904.183 1465.63C904.183 1465.63 919.667 1445.13 939.925 1440.99C960.175 1436.85 981.474 1463.99 972.067 1501.85C967.37 1520.76 957.329 1539.69 948.466 1553.89H660.79V1553.89Z" fill="#35C2C1"/>
<path d="M701.597 1553.89C698.663 1550.19 697.144 1546.78 697.581 1543.65C700.001 1526.49 713.977 1530.19 713.977 1530.19C713.977 1530.19 680.666 1506.31 691.579 1491.46C702.476 1476.63 728.525 1495.01 728.525 1495.01C728.525 1495.01 701.634 1465.99 724.744 1453.61C747.857 1441.22 772.703 1475.2 772.703 1475.2C772.703 1475.2 754.956 1434.87 789.728 1432.9C824.489 1430.93 822.188 1466.18 822.188 1466.18C822.188 1466.18 844.39 1440.46 865.422 1466.65C886.458 1492.85 862.525 1519.71 862.525 1519.71C862.525 1519.71 897.445 1505.82 908.285 1530.71C911.449 1537.97 910.799 1546.07 908.312 1553.89L701.597 1553.89Z" fill="#CECECE"/>
<path d="M726.254 1513.8C725.336 1515 725.57 1516.72 726.764 1517.63C737.235 1525.62 751.789 1537.96 765.738 1553.89H772.943C757.777 1535.86 741.537 1522.02 730.087 1513.29C728.886 1512.37 727.166 1512.6 726.254 1513.8ZM796.012 1462.17C795.394 1457.27 795.082 1454.53 795.075 1454.52C794.915 1453.02 793.561 1451.94 792.063 1452.11C790.547 1452.27 789.485 1453.63 789.648 1455.13C789.648 1455.13 789.963 1457.9 790.594 1462.85C790.781 1464.35 792.147 1465.42 793.644 1465.22C793.772 1465.21 793.898 1465.18 794.025 1465.15C795.321 1464.8 796.19 1463.53 796.012 1462.17ZM748.751 1487.62C758.939 1500.15 774.762 1522.33 789.257 1553.89H795.25C780.229 1520.58 763.604 1497.23 752.992 1484.18C752.037 1483 750.32 1482.83 749.148 1483.78C747.977 1484.73 747.805 1486.45 748.751 1487.62ZM710.932 1506.55C710.953 1506.55 712.822 1507.7 715.982 1509.84C716.666 1510.31 717.496 1510.42 718.238 1510.22C718.843 1510.05 719.391 1509.68 719.78 1509.12C720.625 1507.86 720.305 1506.17 719.053 1505.32C715.758 1503.09 713.85 1501.92 713.77 1501.87C712.478 1501.09 710.805 1501.5 710.007 1502.79C709.241 1504.09 709.648 1505.76 710.932 1506.55ZM713.642 1547.98C712.962 1549.33 713.505 1550.97 714.86 1551.64C714.877 1551.65 716.406 1552.42 719.04 1553.89H725.114C725.671 1552.63 725.211 1551.13 723.99 1550.43C719.834 1548.03 717.401 1546.8 717.305 1546.75C715.95 1546.08 714.31 1546.63 713.642 1547.98ZM744.6 1478.49C745.706 1477.47 745.779 1475.74 744.75 1474.63C742.227 1471.9 740.769 1470.51 740.709 1470.45C739.608 1469.41 737.886 1469.45 736.844 1470.55C735.816 1471.65 735.848 1473.38 736.949 1474.42C736.962 1474.42 738.354 1475.76 740.739 1478.33C741.452 1479.11 742.515 1479.37 743.461 1479.11C743.868 1479.01 744.264 1478.79 744.6 1478.49ZM865.708 1552.95C865.379 1553.26 865.037 1553.58 864.705 1553.89H870.056C869.937 1553.62 869.782 1553.35 869.564 1553.12C868.553 1552.01 866.824 1551.93 865.708 1552.95ZM877.606 1546.37C878.297 1547.28 879.449 1547.63 880.481 1547.34C880.821 1547.25 881.144 1547.1 881.429 1546.87C885.267 1543.93 887.766 1542.26 887.787 1542.24C889.042 1541.4 889.377 1539.71 888.544 1538.45C887.699 1537.2 886.009 1536.86 884.746 1537.7C884.65 1537.77 882.072 1539.49 878.105 1542.54C876.907 1543.46 876.681 1545.17 877.606 1546.37ZM792.71 1478.75C795.16 1496.3 799.408 1524.02 805.368 1553.89H810.944C804.894 1523.75 800.597 1495.68 798.123 1477.99C797.914 1476.5 796.53 1475.46 795.037 1475.67C793.54 1475.87 792.503 1477.26 792.71 1478.75ZM839.472 1486.42C838.771 1487.76 839.294 1489.41 840.631 1490.11C841.267 1490.44 841.973 1490.49 842.607 1490.32C843.321 1490.12 843.95 1489.64 844.322 1488.94C846.55 1484.64 848.109 1482.26 848.122 1482.23C848.948 1480.97 848.591 1479.28 847.333 1478.45C846.066 1477.63 844.374 1477.98 843.552 1479.24C843.482 1479.35 841.849 1481.85 839.472 1486.42ZM832.589 1501.64C827.283 1515.16 822.196 1533.06 820.912 1553.89H826.377C827.654 1533.87 832.566 1516.65 837.67 1503.63C838.227 1502.23 837.531 1500.64 836.129 1500.09C834.718 1499.54 833.139 1500.23 832.589 1501.64Z" fill="url(#paint26_linear_2247_1863)"/>
<defs>
<linearGradient id="paint0_linear_2247_1863" x1="342.439" y1="982.835" x2="342.439" y2="1577.5" gradientUnits="userSpaceOnUse">
<stop stop-color="#0F1E2D"/>
<stop offset="1" stop-color="#0B3D59"/>
</linearGradient>
<linearGradient id="paint1_linear_2247_1863" x1="338.081" y1="979.461" x2="338.081" y2="1585.7" gradientUnits="userSpaceOnUse">
<stop stop-color="#0F1E2D"/>
<stop offset="1" stop-color="#0B3D59"/>
</linearGradient>
<linearGradient id="paint2_linear_2247_1863" x1="342.439" y1="986.482" x2="342.439" y2="1554.08" gradientUnits="userSpaceOnUse">
<stop stop-color="white"/>
<stop offset="0.9879" stop-color="#CCCCCC"/>
</linearGradient>
<linearGradient id="paint3_linear_2247_1863" x1="62.9698" y1="1594.17" x2="267.272" y2="913.77" gradientUnits="userSpaceOnUse">
<stop stop-color="white"/>
<stop offset="0.9879" stop-color="#CCCCCC"/>
</linearGradient>
<linearGradient id="paint4_linear_2247_1863" x1="758.372" y1="957.852" x2="254.915" y2="701.564" gradientUnits="userSpaceOnUse">
<stop stop-color="white"/>
<stop offset="0.9879" stop-color="#CCCCCC"/>
</linearGradient>
<linearGradient id="paint5_linear_2247_1863" x1="282.196" y1="704.35" x2="282.196" y2="1043.9" gradientUnits="userSpaceOnUse">
<stop stop-color="white"/>
<stop offset="0.9879" stop-color="#CCCCCC"/>
</linearGradient>
<linearGradient id="paint6_linear_2247_1863" x1="267.787" y1="882.887" x2="194.103" y2="1126.04" gradientUnits="userSpaceOnUse">
<stop stop-color="white"/>
<stop offset="0.9879" stop-color="#AEAEAE"/>
</linearGradient>
<linearGradient id="paint7_linear_2247_1863" x1="331.32" y1="941.491" x2="331.32" y2="1064.68" gradientUnits="userSpaceOnUse">
<stop stop-color="white"/>
<stop offset="1" stop-color="#AAAAAA"/>
</linearGradient>
<linearGradient id="paint8_linear_2247_1863" x1="288.076" y1="715.486" x2="64.3157" y2="876.009" gradientUnits="userSpaceOnUse">
<stop stop-color="white"/>
<stop offset="0.9879" stop-color="#CCCCCC"/>
</linearGradient>
<linearGradient id="paint9_linear_2247_1863" x1="268.551" y1="1029.43" x2="56.3443" y2="882.286" gradientUnits="userSpaceOnUse">
<stop stop-color="white"/>
<stop offset="0.9879" stop-color="#CCCCCC"/>
</linearGradient>
<linearGradient id="paint10_linear_2247_1863" x1="957.82" y1="1483.62" x2="983.104" y2="1034.96" gradientUnits="userSpaceOnUse">
<stop stop-color="white"/>
<stop offset="0.9879" stop-color="#AEAEAE"/>
</linearGradient>
<linearGradient id="paint11_linear_2247_1863" x1="576.697" y1="1032.36" x2="909.65" y2="1033.53" gradientUnits="userSpaceOnUse">
<stop stop-color="white"/>
<stop offset="0.9879" stop-color="#AEAEAE"/>
</linearGradient>
<linearGradient id="paint12_linear_2247_1863" x1="1602.63" y1="1036" x2="1268.41" y2="1034.83" gradientUnits="userSpaceOnUse">
<stop stop-color="white"/>
<stop offset="0.9879" stop-color="#AEAEAE"/>
</linearGradient>
<linearGradient id="paint13_linear_2247_1863" x1="1016.17" y1="1033.93" x2="806.961" y2="1033.2" gradientUnits="userSpaceOnUse">
<stop stop-color="white"/>
<stop offset="0.9879" stop-color="#AEAEAE"/>
</linearGradient>
<linearGradient id="paint14_linear_2247_1863" x1="1189.04" y1="1034.55" x2="1570.34" y2="1035.89" gradientUnits="userSpaceOnUse">
<stop stop-color="white"/>
<stop offset="0.9879" stop-color="#AEAEAE"/>
</linearGradient>
<linearGradient id="paint15_linear_2247_1863" x1="1441.07" y1="819.067" x2="1436.72" y2="2062.02" gradientUnits="userSpaceOnUse">
<stop stop-color="white"/>
<stop offset="0.9879" stop-color="#AEAEAE"/>
</linearGradient>
<linearGradient id="paint16_linear_2247_1863" x1="707.666" y1="1032.86" x2="1831.43" y2="1036.8" gradientUnits="userSpaceOnUse">
<stop stop-color="white"/>
<stop offset="0.9879" stop-color="#AEAEAE"/>
</linearGradient>
<linearGradient id="paint17_linear_2247_1863" x1="1012.45" y1="153.991" x2="1042.82" y2="816.586" gradientUnits="userSpaceOnUse">
<stop stop-color="#0F1E2D"/>
<stop offset="1" stop-color="#0B3D59"/>
</linearGradient>
<linearGradient id="paint18_linear_2247_1863" x1="998.447" y1="163.31" x2="1166.9" y2="817.826" gradientUnits="userSpaceOnUse">
<stop stop-color="#0F1E2D"/>
<stop offset="1" stop-color="#0B3D59"/>
</linearGradient>
<linearGradient id="paint19_linear_2247_1863" x1="1115.25" y1="910.635" x2="943.786" y2="259.424" gradientUnits="userSpaceOnUse">
<stop stop-color="white"/>
<stop offset="0.9879" stop-color="#CCCCCC"/>
</linearGradient>
<linearGradient id="paint20_linear_2247_1863" x1="796.772" y1="848.073" x2="897.1" y2="189.565" gradientUnits="userSpaceOnUse">
<stop stop-color="white"/>
<stop offset="0.9879" stop-color="#CCCCCC"/>
</linearGradient>
<linearGradient id="paint21_linear_2247_1863" x1="1302.94" y1="102.549" x2="857.245" y2="309.283" gradientUnits="userSpaceOnUse">
<stop stop-color="white"/>
<stop offset="0.9879" stop-color="#CCCCCC"/>
</linearGradient>
<linearGradient id="paint22_linear_2247_1863" x1="954.766" y1="152.034" x2="958.415" y2="531.451" gradientUnits="userSpaceOnUse">
<stop stop-color="white"/>
<stop offset="0.9879" stop-color="#CCCCCC"/>
</linearGradient>
<linearGradient id="paint23_linear_2247_1863" x1="1253.31" y1="92.8953" x2="1115.37" y2="93.0608" gradientUnits="userSpaceOnUse">
<stop stop-color="#9A9A9A"/>
<stop offset="0.1563" stop-color="#A2A2A2"/>
<stop offset="0.3982" stop-color="#B8B8B8"/>
<stop offset="0.6937" stop-color="#DBDBDB"/>
<stop offset="0.9476" stop-color="white"/>
</linearGradient>
<linearGradient id="paint24_linear_2247_1863" x1="1410.2" y1="188.302" x2="1082.18" y2="57.2978" gradientUnits="userSpaceOnUse">
<stop stop-color="#9A9A9A"/>
<stop offset="0.1563" stop-color="#A2A2A2"/>
<stop offset="0.3982" stop-color="#B8B8B8"/>
<stop offset="0.6937" stop-color="#DBDBDB"/>
<stop offset="0.9476" stop-color="white"/>
</linearGradient>
<linearGradient id="paint25_linear_2247_1863" x1="877.518" y1="188.652" x2="1161.08" y2="188.652" gradientUnits="userSpaceOnUse">
<stop stop-color="white"/>
<stop offset="0.9879" stop-color="#CCCCCC"/>
</linearGradient>
<linearGradient id="paint26_linear_2247_1863" x1="799.311" y1="209.909" x2="799.311" y2="2186.98" gradientUnits="userSpaceOnUse">
<stop stop-color="white"/>
<stop offset="1" stop-color="white"/>
</linearGradient>
</defs>
</svg>
