<svg width="12378" height="6322" viewBox="0 0 12378 6322" fill="none" xmlns="http://www.w3.org/2000/svg">
<path d="M8863.86 6212.23C8863.86 6155.95 8817.82 6109.92 8761.56 6109.92H102.322C46.0445 6109.92 0 6155.95 0 6212.23V6218.87C0 6275.15 46.0445 6321.18 102.322 6321.18H8761.56C8817.82 6321.18 8863.86 6275.15 8863.86 6218.87V6212.23Z" fill="#E8E8E8"/>
<path d="M4433.33 6150.72C4409.43 6121.53 4395.22 6098.9 4398.1 6067.68C4401.08 6035.37 4423.27 5980.84 4538.36 5980.84C4549.7 5980.84 4562.09 5981.19 4575.16 5982.11C4651.82 5987.5 4707.14 6001.24 4751.58 6013.95C4780.46 6022.2 4803.27 6026.68 4820.2 6026.68H4820.3C4829.71 6026.68 4847.16 6028.54 4884.01 5990.29C4898.63 5975.13 4910.58 5962.09 4920.38 5949.3C4884.52 5958.19 4844.47 5967.13 4804.29 5972.59C4788.26 5974.75 4772.47 5976.1 4757.36 5976.12C4673.23 5976.12 4614.23 5942 4603.38 5886.9C4599.73 5868.36 4595.15 5804.9 4689.6 5766.21C4738.28 5746.3 4798.76 5739.52 4852.12 5733.53C4873.51 5731.12 4902.29 5727.91 4922.58 5723.93C4919.34 5715.69 4915.45 5706.63 4912.14 5698.92C4888.96 5644.85 4853.93 5563.16 4873.86 5466.12C4879.66 5437.83 4887.3 5413.21 4895.97 5391.83C4833.09 5388.33 4775.42 5377.24 4724.06 5358.74C4709.11 5353.36 4694.8 5347.96 4681.09 5342.78C4640.06 5327.29 4601.32 5312.66 4578.71 5312.66C4571.57 5312.66 4559.6 5312.66 4542.66 5358.86C4538.15 5371.12 4533.91 5382.83 4529.84 5394.01C4487.25 5511.38 4459.1 5588.9 4371.78 5650.36C4344.33 5669.7 4302.23 5692.77 4257.79 5692.77C4220.99 5692.77 4189.13 5676.23 4170.39 5647.4C4142.92 5605.14 4147.16 5544.98 4183.37 5463.48C4214.19 5394.11 4253.46 5336.26 4288.88 5292.31C4277.95 5291.75 4266.32 5291.44 4254.07 5291.44C4195.77 5291.44 4135.81 5298.59 4075.84 5312.71C3976.54 5336.09 3910.95 5363.78 3875.36 5397.36C3853.35 5418.11 3831.84 5448.92 3839.26 5519.92C3843.95 5564.82 3861.55 5623.91 3878.56 5681.06C3919.6 5818.97 3966.13 5975.28 3850.39 6036.39C3830.54 6046.86 3809.95 6052.15 3789.17 6052.15C3637.75 6052.15 3585.88 5787.25 3578.67 5685.17C3575.93 5646.09 3575.8 5610.23 3577.02 5578.92C3532.94 5617.2 3485.12 5685.1 3464.77 5802.53C3436.28 5966.78 3474.87 6077.75 3582.74 6150.72H4433.33Z" fill="white"/>
<path d="M4714.62 5827.3C4808.99 5788.66 4982.46 5806.99 4994.24 5754.57C5005.99 5702.15 4912.4 5606.27 4938.45 5479.4C4964.47 5352.61 5029.96 5321.32 5029.96 5321.32C5029.96 5321.32 4880.21 5344.91 4746.41 5296.71C4612.59 5248.53 4531.21 5198.57 4480.75 5336.15C4430.25 5473.75 4411.13 5542.04 4333.84 5596.43C4256.57 5650.86 4176.36 5641.69 4243.63 5490.26C4310.9 5338.82 4422.94 5246.96 4422.94 5246.96C4422.94 5246.96 4276.9 5197.63 4060.74 5248.53C3844.51 5299.45 3757.7 5373.8 3773.67 5526.76C3789.68 5679.69 3921.48 5924.3 3819.6 5978.07C3717.69 6031.83 3653.34 5806.53 3644.46 5680.53C3635.59 5554.6 3655.87 5465.35 3655.87 5465.35C3655.87 5465.35 3450.42 5498.61 3399.81 5790.71C3362.77 6004.16 3430.93 6138.72 3564.27 6215.56H4917.88C4958.31 6128.52 4964.07 6070.8 4964.07 6070.8C4964.07 6070.8 4805.13 6205.24 4644.55 6175.3C4483.97 6145.39 4370.49 6033.62 4570.51 6047.75C4770.62 6061.82 4817.96 6155.87 4931.5 6038.02C5045.02 5920.2 5029.94 5848.75 5029.94 5848.75C5029.94 5848.75 4911.85 5891.94 4795.42 5907.75C4678.98 5923.52 4620.25 5865.96 4714.62 5827.3ZM3596.37 6026.7C3546.54 6063.17 3435.57 5924.87 3495.68 5891.7C3562.25 5854.97 3646.28 5990.28 3596.37 6026.7ZM3993.47 6008.55C4034.88 6050.86 3914.65 6158.45 3870.81 6084.66C3826.98 6010.87 3944.35 5958.41 3993.47 6008.55ZM4089.81 5532.77C4075.3 5609.58 3974.06 5631.92 3968.87 5541.27C3963.72 5450.57 4028.41 5434.71 4057.07 5429.26C4057.07 5429.26 4104.35 5456.01 4089.81 5532.77ZM4088.31 5841.56C3992.94 5838 4019.39 5669.56 4107.26 5675.25C4191.39 5680.64 4183.69 5845.23 4088.31 5841.56ZM4754.5 5604.21C4818.37 5561.16 4827.66 5594.66 4854.77 5615.64C4892.19 5644.66 4878.1 5686.63 4807.47 5691.17C4736.81 5695.7 4690.57 5647.32 4754.5 5604.21ZM4546.51 5869.88C4556.17 5893.51 4489.35 5951.3 4438.75 5917.9C4388.14 5884.53 4382.12 5841.69 4473.21 5844.81C4473.21 5844.81 4536.88 5846.27 4546.51 5869.88ZM4652.76 5503.5C4608.23 5563.33 4524.99 5564 4551.55 5444.96C4578.14 5325.94 4639.45 5352.8 4664.08 5365.77L4661.69 5365.49C4708.32 5393.56 4697.27 5443.7 4652.76 5503.5Z" fill="#004761"/>
<path d="M4699.24 5534.4C4655.77 5568.42 4606.1 5610.58 4553.86 5658.79C4527.75 5682.87 4500.98 5708.52 4473.97 5735.31C4447.1 5762.15 4419.44 5790.23 4390.91 5817.94C4334 5873.56 4274.07 5929.34 4213.42 5981.79C4152.86 6034.19 4091.51 6083.25 4032.51 6126.15C3985.98 6160.06 3940.98 6190.02 3899.54 6215.56H3817C3826.61 6210.38 3836.49 6205.01 3846.75 6199.25C3896.05 6171.68 3952.39 6137.13 4011.59 6096.48C4070.81 6055.87 4132.89 6009.27 4194.56 5959.18C4256.27 5909.15 4317.62 5855.71 4376.16 5802.3C4405.53 5775.59 4433.81 5748.8 4461.84 5722.65C4489.92 5696.67 4517.71 5671.86 4544.81 5648.59C4598.97 5602.04 4650.36 5561.59 4695.22 5529.03C4740.01 5496.46 4778.23 5471.83 4805.38 5455.72C4832.53 5439.56 4848.56 5431.9 4848.56 5431.96C4848.56 5431.96 4832.82 5440.16 4806.36 5457.31C4779.89 5474.37 4742.69 5500.35 4699.24 5534.4Z" fill="#C4C2C0"/>
<path d="M1582.2 6153.67C1582.2 6153.67 1344.87 6092.64 1327.59 6087.18C1308.46 6081.17 1278.25 6070.31 1274.6 6133.1C1271.02 6195.85 1268.72 6215.51 1268.72 6215.51C1268.72 6215.51 1543.55 6216.13 1573.13 6212.8C1602.66 6209.4 1626.04 6187.18 1582.2 6153.67Z" fill="#0F1B29"/>
<path d="M1225.67 5438.06C1252.37 5619.03 1278.31 5784.33 1289.84 5834.08C1315.82 5946.52 1309.78 6115.23 1309.78 6115.23C1309.78 6115.23 1312.88 6132.11 1342.46 6136.82C1362.15 6139.98 1379.44 6123.34 1379.44 6123.34C1379.44 6123.34 1428.72 5729.4 1465.79 5438.06H1225.67Z" fill="#F4AA74"/>
<path d="M1683.81 3972.99C1683.81 3972.99 1585.43 4666.97 1554.57 4823.94C1523.68 4980.92 1214.76 4972.22 1158.96 4755.99C1103.02 4539.82 1030.9 4239.69 1058.51 4031.27C1086.24 3822.84 1158.02 3670.76 1325.21 3568.16C1492.39 3465.59 1716.87 3760.43 1683.81 3972.99Z" fill="url(#paint0_linear_2247_1863)"/>
<path d="M1495.01 5210.74C1525.81 4975.67 1539.36 4976.08 1559.04 4781.08C1567.63 4695.62 1490.17 4620.73 1329.84 4625.54C1169.58 4630.41 1132.46 4739.03 1148.32 4879C1157.14 4957.1 1177.85 5225.84 1211.5 5453.88H1475.4C1486.94 5363.16 1487.7 5266.55 1495.01 5210.74Z" fill="url(#paint1_linear_2247_1863)"/>
<path d="M1484.12 5494.88C1483.41 5498.83 1479.56 5502.06 1475.54 5502.06H1212.11C1208.1 5502.06 1203.9 5498.91 1202.79 5495.05L1188.74 5446.44C1187.63 5442.59 1190 5439.43 1194.01 5439.43H1486.64C1490.65 5439.43 1493.36 5442.67 1492.66 5446.61L1484.12 5494.88Z" fill="#127FB5"/>
<path d="M1582.2 6153.67C1611.18 6197.08 1521.3 6193.25 1459.28 6193.25C1397.26 6193.25 1332.5 6191.43 1332.5 6168.63C1332.5 6145.82 1337.98 6108.13 1340.63 5976.79C1343.28 5845.46 1335.55 5619.26 1311.29 5212.36C1287.03 4805.46 1314.87 4426.29 1300.28 4336.3C1285.68 4246.31 1370.81 4247.52 1476.61 4231.71C1543.33 4221.74 1609.57 4215.39 1649.43 4212.04C1669.18 4076.22 1683.81 3972.99 1683.81 3972.99C1716.88 3760.42 1492.39 3465.59 1325.22 3568.16C1158.03 3670.76 1086.25 3822.84 1058.51 4031.27C1031.48 4235.35 1100.06 4527.32 1155.44 4742.33C1143.84 4781.45 1142.55 4828.14 1148.32 4879C1156.96 4955.45 1176.99 5214.61 1209.41 5439.43H1194.02C1190 5439.43 1187.63 5442.59 1188.75 5446.44L1202.79 5495.05C1203.9 5498.91 1208.1 5502.06 1212.11 5502.06H1235.18C1258.37 5656.87 1279.69 5790.28 1289.84 5834.08C1308.82 5916.21 1310.71 6028.31 1310.35 6082.81C1294.04 6080.71 1277.26 6087.32 1274.6 6133.1C1271.02 6195.85 1268.71 6215.51 1268.71 6215.51C1268.71 6215.51 1543.54 6216.13 1573.13 6212.8C1602.66 6209.4 1626.03 6187.18 1582.2 6153.67Z" fill="url(#paint2_linear_2247_1863)"/>
<path d="M442.857 5438.07C431.577 5606.21 421.901 5776.89 423.434 5836.52C426.312 5949.48 390.071 6099.03 390.071 6099.03C390.071 6099.03 390.497 6116.94 416.984 6127.47C444.123 6138.27 451.08 6129.57 451.08 6129.57C451.08 6129.57 586.901 5777.43 714.323 5438.07H442.857Z" fill="#F4AA74"/>
<path d="M498.059 6134.15C497.665 6128.03 496.946 6122.82 496.07 6118.08C488.227 6075 462.667 6084.16 445.845 6089.61C442.729 6090.62 432.398 6093.54 417.615 6097.55C402.781 6093.67 392.427 6090.83 389.297 6089.85C372.446 6084.54 346.813 6075.59 339.313 6118.71C338.473 6123.46 337.78 6128.67 337.423 6134.81C333.939 6196.28 331.688 6215.54 331.688 6215.54C331.688 6215.54 369.374 6215.61 418.086 6215.51C466.782 6215.21 504.505 6214.84 504.505 6214.84C504.505 6214.84 502.068 6195.61 498.059 6134.15Z" fill="#101B29"/>
<path d="M1302.36 4038.36C1302.36 4038.36 935.115 4842 866.981 4983.1C798.839 5124.14 508.34 5039.43 508.89 4820.73C509.511 4602.02 500.718 4157.7 729.879 3750.68C853.821 3530.57 1386.32 3845.12 1302.36 4038.36Z" fill="#0B3D59"/>
<path d="M922.146 4862.82C930.42 4836.15 853.591 4711.47 698.847 4684.7C544.096 4657.92 482.419 4936.64 470.142 5074.07C464.356 5139.01 445.743 5294.82 435.641 5445.36L720.204 5453.88C811.414 5210.94 892.453 4958.75 922.146 4862.82Z" fill="#0B3D59"/>
<path d="M721.401 5493.81C720.076 5497.6 715.706 5500.7 711.696 5500.7H430.168C426.155 5500.7 422.872 5497.42 422.872 5493.41V5445.37C422.872 5441.35 426.155 5438.07 430.168 5438.07H733.593C737.606 5438.07 739.806 5441.17 738.482 5444.96L721.401 5493.81Z" fill="#127FB5"/>
<path d="M729.879 3750.68C500.718 4157.7 509.511 4602.02 508.89 4820.72C508.847 4836.19 510.317 4850.97 513.009 4865.07C488.46 4937.98 475.166 5017.84 470.142 5074.06C464.447 5137.96 446.349 5289.8 436.141 5438.06H430.169C426.155 5438.06 422.872 5441.34 422.872 5445.36V5493.4C422.872 5497.41 426.155 5500.69 430.169 5500.69H438.749C429.344 5646.94 422.099 5784.3 423.438 5836.52C425.911 5933.65 399.483 6057.76 392.022 6090.65C390.881 6090.31 389.914 6090.03 389.301 6089.84C372.45 6084.53 346.817 6075.58 339.316 6118.71C338.477 6123.45 337.784 6128.66 337.426 6134.8C333.942 6196.27 331.691 6215.53 331.691 6215.53C331.691 6215.53 369.378 6215.6 418.089 6215.5C466.786 6215.21 504.509 6214.83 504.509 6214.83C504.509 6214.83 503.903 6210.03 502.798 6197.61C445.495 6198.61 363.909 6205.76 363.909 6184.13C363.909 6161.03 359.648 6102.04 380.932 6114.81C402.216 6127.58 402.814 6127.58 429.57 6003.54C456.326 5879.5 469.701 5682.49 508.898 5470.74C548.095 5258.99 635.696 5054.99 699.541 4814.21C763.385 4573.42 805.34 4259.67 871.428 4263.32C933.029 4266.72 1032.65 4292.28 1201.47 4258.82C1260.04 4130.97 1302.36 4038.35 1302.36 4038.35C1386.32 3845.11 853.821 3530.56 729.879 3750.68Z" fill="url(#paint3_linear_2247_1863)"/>
<path d="M1708.75 3411.64C1708.75 3411.64 1865.09 3527.51 1917.61 3553.34C1955.24 3571.93 1976.78 3517.59 1990.47 3484.5C2004.11 3451.43 1935.21 3336.82 1849.2 3263.58C1783.33 3207.51 1702.79 3395.8 1708.75 3411.64Z" fill="#F4AA74"/>
<path d="M1157.64 3107.65C1261.52 3231.59 1683.05 3581.15 1683.05 3581.15C1683.05 3581.15 1735.63 3571.04 1809.93 3496.94C1921.47 3385.59 1927.29 3317.62 1927.29 3317.62C1927.29 3317.62 1701.84 3028.87 1531.83 2849.84C1397.33 2708.17 1207.72 2697.37 1112.6 2816.54C1034.71 2914.17 1099.56 3038.4 1157.64 3107.65Z" fill="#004761"/>
<path d="M2717.33 3334.47C2731.09 3314.1 2778.82 3254.56 2794.99 3265.57C2833.27 3291.59 2788.16 3311.46 2786.67 3369.92C2785.7 3407.67 2685.41 3430.04 2685.41 3430.04C2685.41 3430.04 2688.52 3376.85 2717.33 3334.47Z" fill="#F4AA74"/>
<path d="M1949.67 3398.21C2138.26 3351.42 2606.78 3428.24 2691.84 3394.55C2747.09 3372.67 2741.21 3312.53 2854.33 3308.31C2909.15 3306.28 2973.63 3443.37 2932.73 3480.01C2839.18 3563.88 2766.46 3543.54 2703.84 3481.52C2653.28 3468.08 2184.05 3548.59 2051.01 3560.86C1990.93 3566.43 1900.51 3568.44 1886.07 3527.5C1863.07 3462.33 1879.68 3415.6 1949.67 3398.21Z" fill="#F4AA74"/>
<path d="M2703.84 3481.52C2766.46 3543.54 2839.18 3563.88 2932.73 3480.01C2973.63 3443.37 2909.15 3306.28 2854.33 3308.31C2841.56 3308.78 2830.36 3310 2820.38 3311.77C2842.7 3309.43 2852.04 3323.37 2878.75 3369.5C2905.5 3415.71 2912.19 3431.53 2789.97 3430.04C2667.76 3428.55 2622.15 3436.09 2551.01 3439.73C2479.87 3443.38 2282.87 3469.83 2098.63 3480.78C1914.4 3491.72 1928.99 3500.84 1815.89 3405.15C1702.8 3309.46 1639.29 3171.28 1591.53 3021.1C1535.41 2844.66 1461.06 2790.5 1453.96 2785.65C1453.74 2785.51 1453.52 2785.36 1453.29 2785.22C1452.48 2784.86 1414.26 2768.05 1358.38 2743.9C1263.92 2719.58 1170.65 2743.8 1112.59 2816.54C1034.71 2914.17 1099.56 3038.4 1157.63 3107.65C1261.52 3231.59 1683.05 3581.15 1683.05 3581.15C1683.05 3581.15 1735.62 3571.04 1809.93 3496.94C1812.46 3494.42 1814.88 3491.94 1817.29 3489.46C1844.75 3508.5 1872.53 3527.12 1894.18 3540.21C1921.38 3567.9 1997.98 3565.78 2051 3560.87C2184.06 3548.59 2653.28 3468.09 2703.84 3481.52Z" fill="url(#paint4_linear_2247_1863)"/>
<path d="M1271.32 2715.25C1522.22 2731.53 1543.08 2942.97 1573.29 3068.68C1757.57 3835.59 1687.08 4153.25 1687.08 4153.25C1687.08 4153.25 1583.33 4214.96 1184.77 4221.48C667.195 4229.87 557.248 4131.58 557.248 4131.58C557.248 4131.58 709.854 3347.79 766.709 2958.68C784.913 2834.05 899.505 2733.95 1104.39 2714.96C1162.87 2709.58 1209.42 2711.2 1271.32 2715.25Z" fill="#127FB5"/>
<path d="M1567.82 3534.89C1489.98 3534.89 1182.32 3536.11 1066.8 3534.89C951.27 3533.68 973.159 3559.22 948.833 3679.61C924.506 3800.01 903.843 3808.51 851.549 3825.54C799.255 3842.57 807.157 3809.12 829.046 3581.15C850.936 3353.18 933.021 3148.18 941.536 2996.16C950.051 2844.15 1003.56 2816.19 1040.04 2891.58C1076.52 2966.98 1213.02 3025.66 1311.53 3009.24C1410.03 2992.82 1443.78 2948.13 1423.71 2864.22C1403.76 2780.78 1455.95 2774.94 1501.25 2844.6C1460.47 2776.96 1392.98 2723.14 1271.32 2715.25C1209.42 2711.2 1162.88 2709.57 1104.4 2714.96C899.512 2733.95 784.921 2834.05 766.712 2958.68C709.858 3347.79 557.252 4131.58 557.252 4131.58C557.252 4131.58 667.199 4229.86 1184.77 4221.48C1583.33 4214.96 1687.08 4153.25 1687.08 4153.25C1687.08 4153.25 1731.87 3951.4 1656.7 3481.06C1664.06 3525.79 1645.6 3534.89 1567.82 3534.89Z" fill="url(#paint5_linear_2247_1863)"/>
<path d="M1460.38 2507.23C1546.07 2447.88 1599.14 2225.54 1492.52 2168.13C1360.77 2097.18 1332.69 2242.13 1251.09 2234.62C1073.56 2218.36 1015.13 2328.3 1024.69 2469.76C1030.62 2557.37 1097.8 2611.16 1176.02 2639.89C1210.65 2652.62 1210.64 2559.25 1304.68 2522.48C1398.74 2485.69 1460.38 2507.23 1460.38 2507.23Z" fill="#082947"/>
<path d="M1367.64 2739.52C1381.8 2813.54 1434.23 2976.87 1257.79 2968.52C1050.51 2958.77 1005.32 2744.61 1016.81 2720.33C1042.9 2665.07 1125.42 2694.91 1177.73 2698.07C1230.01 2701.29 1355.65 2676.77 1367.64 2739.52Z" fill="#082947"/>
<path d="M1071.19 2715.9C1081.22 2715.04 1091.37 2714.39 1101.96 2713.99C1160.64 2712.03 1206.99 2716.4 1268.48 2724.07C1287.89 2726.45 1305.74 2730.05 1322.22 2734.78C1328.8 2782.89 1376.92 2915.96 1244.1 2913.42C1107.68 2910.77 1068.34 2762.06 1071.19 2715.9Z" fill="#F4AA74"/>
<path d="M1128.98 2696.87C1175.39 2554.85 1201.88 2536.43 1253.44 2429.97C1253.79 2425.88 1418.11 2467.23 1467.79 2386.2C1467.79 2386.2 1470.92 2496.94 1448.48 2586.88C1427.34 2671.76 1398.17 2716.39 1317.11 2668.77C1313.95 2710.8 1296.46 2757.61 1294.14 2794.49C1289.36 2868.87 1236.45 2881.22 1201.87 2873.93C1167.28 2866.57 1086.03 2828.31 1128.98 2696.87Z" fill="#F4AA74"/>
<path d="M872.431 4117.45C867.641 4137.13 880.326 4153.25 900.592 4153.25H1628.52C1648.77 4153.25 1669.25 4137.13 1674.04 4117.45L1799.74 3598.34C1804.5 3578.65 1791.83 3562.54 1771.57 3562.54H1043.65C1023.38 3562.54 1002.9 3578.65 998.131 3598.34L872.431 4117.45Z" fill="#CECECE"/>
<path d="M872.431 4117.45L998.131 3598.34C1002.9 3578.65 1023.38 3562.54 1043.65 3562.54H1078.64C1058.38 3562.54 1037.9 3578.65 1033.14 3598.34L907.425 4117.45C902.642 4137.13 915.327 4153.25 935.593 4153.25H900.592C880.326 4153.25 867.645 4137.13 872.431 4117.45Z" fill="url(#paint6_linear_2247_1863)"/>
<path d="M1440.37 3865.19C1453.59 3805.64 1423.68 3757.36 1373.54 3757.36C1323.42 3757.36 1272.05 3805.64 1258.82 3865.19C1245.57 3924.73 1275.51 3973 1325.63 3973C1375.76 3973 1427.12 3924.73 1440.37 3865.19Z" fill="#082947"/>
<path d="M1303.02 3865.19C1314.22 3814.72 1352.86 3772.47 1394.88 3760.72C1388.26 3758.63 1381.18 3757.36 1373.54 3757.36C1323.42 3757.36 1272.04 3805.64 1258.82 3865.19C1245.57 3924.73 1275.5 3973 1325.63 3973C1333.27 3973 1340.92 3971.76 1348.48 3969.64C1311.65 3957.9 1291.79 3915.66 1303.02 3865.19Z" fill="url(#paint7_linear_2247_1863)"/>
<path d="M252.999 3289.94C252.999 3289.94 116.744 3428.91 83.9534 3477.36C60.4113 3512.1 111.242 3540.84 142.161 3558.96C173.051 3577.05 296.008 3524.52 380.388 3449.36C444.959 3391.81 269.5 3286.22 252.999 3289.94Z" fill="#F4AA74"/>
<path d="M860.808 2800.97C692.441 2886.85 154.386 3339.45 154.386 3339.45C154.386 3339.45 157.188 3392.93 220.405 3476.71C315.365 3602.45 381.924 3617.59 381.924 3617.59C381.924 3617.59 537.85 3531.78 698.358 3426.19C776.825 3374.57 798.485 3326.04 862.194 3132.53C901.248 3013.86 941.313 2759.89 860.808 2800.97Z" fill="#004761"/>
<path d="M895.054 2807.48C923.277 2875.8 805.321 3093.26 717.771 3207.05C630.213 3320.85 378.597 3435.88 322.542 3458.28C278.037 3476.05 204.057 3392.15 128.196 3423.09C109.079 3444.75 92.7676 3464.33 83.9534 3477.35C60.4113 3512.08 111.242 3540.83 142.161 3558.95C160.067 3569.44 208.935 3556.16 263.265 3528.52C334.789 3606.85 381.924 3617.58 381.924 3617.58C381.924 3617.58 537.85 3531.77 698.358 3426.18C776.825 3374.56 798.485 3326.03 862.194 3132.52C893.624 3037.02 925.695 2853.93 895.054 2807.48Z" fill="url(#paint8_linear_2247_1863)"/>
<path d="M852.709 3852.23C875.908 3844.11 949.759 3824.87 956.144 3843.36C971.298 3887.09 923.251 3876.07 887.148 3922.07C863.825 3951.77 770.025 3909.83 770.025 3909.83C770.025 3909.83 804.282 3869.02 852.709 3852.23Z" fill="#F4AA74"/>
<path d="M198.924 3444.87C378.137 3519.98 708.026 3861.42 796.376 3885.2C853.763 3900.65 884.966 3848.9 978.205 3913.08C1023.39 3944.19 993.224 4092.67 938.537 4097.63C813.421 4109.01 767.241 4049.27 754.053 3962.13C721.525 3921.15 297.11 3705.46 183.058 3635.85C131.548 3604.43 57.8355 3552.03 70.6956 3510.58C91.1769 3444.56 132.406 3417.01 198.924 3444.87Z" fill="#F4AA74"/>
<path d="M754.049 3962.13C767.237 4049.26 813.417 4109.01 938.534 4097.63C991.51 4092.82 1021.47 3953.35 982.229 3916.34C1005.51 3973.21 985.001 4071.8 881.946 4058.12C778.883 4044.43 795.3 3951.4 751.521 3925.87C707.742 3900.33 485.505 3740.42 301.874 3633.4C118.243 3526.38 115.813 3504.49 133.143 3477.13C150.472 3449.77 169.581 3435.8 234.053 3461.85C221.824 3455.25 210.084 3449.54 198.924 3444.87C132.409 3417 91.1805 3444.56 70.6956 3510.58C57.8355 3552.03 131.548 3604.43 183.058 3635.85C297.106 3705.46 721.521 3921.15 754.049 3962.13Z" fill="url(#paint9_linear_2247_1863)"/>
<path d="M1272.89 2489.64C1269.98 2505.62 1265.92 2527.27 1250.26 2558.69C1234.59 2590.13 1228.59 2600.12 1228.59 2600.12C1228.59 2600.12 1277.96 2671.81 1333.8 2687.99C1389.66 2704.15 1427.06 2675.41 1440.14 2638.01C1456.18 2592.13 1459.59 2579.28 1461.82 2521.48C1461.82 2521.48 1404.5 2544.77 1272.89 2489.64Z" fill="#004761"/>
<path d="M1378.78 2559.56C1410 2565.3 1437.83 2565.59 1459.09 2564.19C1459.25 2562.96 1459.37 2561.63 1459.49 2560.34C1420.26 2563.03 1357.86 2559.85 1293.71 2526.41C1292.74 2525.96 1291.61 2526.28 1291.13 2527.24C1290.63 2528.17 1290.99 2529.33 1291.94 2529.82C1321.97 2545.47 1351.63 2554.56 1378.78 2559.56ZM1405.08 2602.57C1422.54 2605.78 1438.03 2607.42 1450.08 2608.25C1450.47 2606.98 1450.82 2605.74 1451.19 2604.49C1414.17 2602.05 1342.74 2591.78 1283.61 2550.28C1282.76 2549.67 1281.55 2549.88 1280.94 2550.76C1280.34 2551.62 1280.55 2552.82 1281.41 2553.43C1321.81 2581.76 1367.87 2595.74 1405.08 2602.57ZM1270.84 2576.95C1317.85 2624.41 1395.52 2647.27 1431.58 2655.75C1432.27 2654.6 1433 2653.48 1433.66 2652.29C1398.6 2644.17 1320.46 2621.62 1273.57 2574.25C1272.81 2573.51 1271.6 2573.48 1270.87 2574.23C1270.1 2574.97 1270.11 2576.19 1270.84 2576.95ZM1260.27 2600.32C1284.65 2640.78 1339.58 2672.44 1379.5 2691.25C1381.59 2690.88 1383.59 2690.39 1385.59 2689.89C1345.85 2671.59 1288.37 2639.54 1263.55 2598.33C1262.99 2597.42 1261.8 2597.15 1260.91 2597.69C1259.99 2598.24 1259.71 2599.41 1260.27 2600.32Z" fill="#F5F5F5"/>
<path d="M1237.89 2614.82C1168.72 2569.24 1152.81 2528.63 1184.7 2479.03C1199.41 2456.15 1215.4 2451.27 1226.34 2451.27C1226.45 2451.27 1226.57 2451.27 1226.68 2451.28C1246.16 2451.46 1266.02 2466.38 1282.63 2493.29L1270.2 2500.96C1256.53 2478.79 1240.62 2466.01 1226.55 2465.88C1226.48 2465.87 1226.41 2465.87 1226.33 2465.87C1215.83 2465.87 1205.95 2472.96 1196.97 2486.93C1174.35 2522.12 1174.02 2555.26 1245.91 2602.64L1237.89 2614.82Z" fill="#004761"/>
<path d="M1160.74 2470.33C1146.65 2489.92 1158.67 2522.67 1187.65 2543.54C1216.61 2564.34 1237.55 2557.87 1251.63 2538.31C1265.73 2518.71 1267.73 2493.55 1238.7 2472.67C1209.72 2451.77 1174.84 2450.78 1160.74 2470.33Z" fill="#F4AA74"/>
<path d="M3738.79 4691.52L3619.62 4691.1L3617.56 5267.36C3619.98 5267.43 3622.36 5267.54 3624.84 5267.55C3877.79 5268.44 3994.99 5142.4 3994.99 5142.4L3738.79 4691.52Z" fill="#127FB5"/>
<path d="M4273.07 4620.46C4291.09 4677.09 4300.82 4737.36 4300.58 4799.89C4299.44 5123.11 4035.56 5385.11 3712.36 5383.96C3682.48 5383.85 3653.14 5381.47 3624.46 5377.04L3623.94 5524.27C3652.75 5527.84 3682.09 5529.77 3711.83 5529.88C4115.49 5531.32 4445.08 5204.08 4446.52 4800.42C4446.74 4738.58 4439.22 4678.47 4424.9 4621L4273.07 4620.46Z" fill="#127FB5"/>
<path d="M3979.4 6215.55C3943.54 6215.42 3907.66 6202.15 3879.58 6175.56C3659.24 5966.8 3515.46 5692.48 3440.09 5336.94C3378.51 5046.42 3366.8 4734.12 3368.16 4354.58C3368.44 4273.98 3434 4208.87 3514.6 4209.16C3595.2 4209.46 3660.3 4275.02 3660.02 4355.62C3657.74 4991.06 3688.19 5592.21 4080.31 5963.68C4138.82 6019.11 4141.3 6111.48 4085.88 6169.98C4057.06 6200.41 4018.24 6215.69 3979.4 6215.55Z" fill="#082947"/>
<path d="M4446.52 4800.42C4446.74 4738.58 4439.22 4678.48 4424.9 4621L4273.07 4620.47C4291.09 4677.09 4300.82 4737.36 4300.58 4799.9C4299.49 5109.89 4056.66 5363.42 3751.65 5382.63C3740.83 5342.92 3731.26 5302.4 3722.79 5261.13C3908.13 5235.65 3994.99 5142.4 3994.99 5142.4L3738.79 4691.52L3663.79 4691.25C3660.25 4581.21 3659.6 4468.96 3660.01 4355.62C3660.29 4275.02 3595.19 4209.46 3514.6 4209.16C3433.99 4208.88 3368.44 4273.98 3368.15 4354.58C3366.79 4734.12 3378.51 5046.43 3440.09 5336.94C3515.45 5692.49 3659.23 5966.8 3879.57 6175.57C3907.65 6202.16 3943.54 6215.43 3979.39 6215.56C4018.23 6215.69 4057.05 6200.42 4085.88 6169.98C4141.3 6111.48 4138.82 6019.11 4080.31 5963.68C3950.19 5840.43 3859.95 5691.86 3797.47 5525.16C4161.08 5483.92 4445.19 5175.14 4446.52 4800.42Z" fill="url(#paint10_linear_2247_1863)"/>
<path d="M2074.55 4459.34C2074.41 4501.71 2107.6 4545.89 2148.34 4557.52L2641.45 4698.34C2682.18 4709.99 2715.64 4684.84 2715.78 4642.48L2719.43 3619.33C2719.58 3576.97 2686.32 3551.59 2645.49 3562.92L2151.39 3700.23C2110.58 3711.58 2077.06 3755.51 2076.91 3797.89L2074.55 4459.34Z" fill="#E8512E"/>
<path d="M2645.49 3562.92L2246.82 3673.71L2243.57 4584.7L2641.45 4698.34C2682.18 4709.98 2715.64 4684.84 2715.78 4642.47L2719.43 3619.32C2719.58 3576.96 2686.32 3551.58 2645.49 3562.92Z" fill="url(#paint11_linear_2247_1863)"/>
<path d="M6421.92 4144.1C6423.4 3727.58 6086.94 3388.73 5670.42 3387.24C5253.9 3385.75 4915.04 3722.2 4913.57 4138.73C4912.08 4555.24 5248.52 4894.1 5665.04 4895.58C6081.56 4897.06 6420.42 4560.62 6421.92 4144.1Z" fill="#E8512E"/>
<path d="M6421.92 4144.1C6423.4 3727.58 6086.94 3388.73 5670.42 3387.24C5253.9 3385.75 4915.04 3722.2 4913.57 4138.73C4912.08 4555.24 5248.52 4894.1 5665.04 4895.58C6081.56 4897.06 6420.42 4560.62 6421.92 4144.1Z" fill="url(#paint12_linear_2247_1863)"/>
<path d="M6176.77 4143.24C6176.23 4295.36 6220.81 4437.11 6297.87 4555.85C6375.77 4437.66 6421.36 4296.24 6421.92 4144.11C6422.45 3991.97 6377.86 3850.24 6300.81 3731.48C6222.91 3849.69 6177.32 3991.1 6176.77 4143.24Z" fill="#D6D6D6"/>
<path d="M5591.77 2688.31C5098.97 3279.7 4044.53 3553.74 3164.42 3550.59L3160.29 4714.38C4040.38 4717.52 5092.86 4999.06 5581.43 5593.94C5763.34 5208.11 5874.91 4699.74 5876.9 4142.17C5878.89 3584.59 5770.96 3075.44 5591.77 2688.31Z" fill="#004761"/>
<path d="M4127.94 3448.77C3806.58 3518.31 3474.68 3551.71 3164.42 3550.59L3160.29 4714.38C3470.55 4715.49 3802.21 4751.24 4123.03 4823.08L4127.94 3448.77Z" fill="url(#paint13_linear_2247_1863)"/>
<path d="M4666.8 3292.11L4660.78 4983.57C5035.91 5127.23 5364.36 5329.63 5581.43 5593.94C5763.34 5208.11 5874.91 4699.74 5876.91 4142.17C5878.89 3584.59 5770.97 3075.43 5591.78 2688.3C5372.82 2951.07 5042.95 3151.12 4666.8 3292.11Z" fill="url(#paint14_linear_2247_1863)"/>
<path d="M5579.86 6006C5563.47 6005.94 5546.85 6002.37 5531.06 5994.92C5473.35 5967.73 5448.63 5898.87 5475.84 5841.15C5695.89 5374.44 5818.32 4770.99 5820.56 4141.96C5822.8 3512.93 5704.66 2908.62 5487.94 2440.35C5461.14 2382.45 5486.35 2313.77 5544.26 2286.97C5602.15 2260.14 5670.85 2285.38 5697.65 2343.3C5928.28 2841.59 6053.99 3480.67 6051.62 4142.8C6049.27 4804.9 5919.01 5443.07 5684.84 5939.7C5665.08 5981.61 5623.31 6006.15 5579.86 6006Z" fill="#127FB5"/>
<path d="M5579.86 6006C5563.47 6005.94 5546.85 6002.37 5531.06 5994.92C5473.35 5967.73 5448.63 5898.87 5475.84 5841.15C5695.89 5374.44 5818.32 4770.99 5820.56 4141.96C5822.8 3512.93 5704.66 2908.62 5487.94 2440.35C5461.14 2382.45 5486.35 2313.77 5544.26 2286.97C5602.15 2260.14 5670.85 2285.38 5697.65 2343.3C5928.28 2841.59 6053.99 3480.67 6051.62 4142.8C6049.27 4804.9 5919.01 5443.07 5684.84 5939.7C5665.08 5981.61 5623.31 6006.15 5579.86 6006Z" fill="url(#paint15_linear_2247_1863)"/>
<path d="M5179.66 3339.43C5277.57 3266.71 5265.82 3125.62 5147.31 3061.42C4600.29 3395.75 3832.2 3552.98 3164.42 3550.59L3163.51 3811.54C3905.27 3805.15 4769.57 3654.77 5179.66 3339.43ZM5173.97 4939.91C4766.13 4621.65 3902.91 4465.11 3161.21 4453.44L3160.29 4714.38C3828.06 4716.76 4595.01 4879.47 5139.64 5217.69C5258.6 5154.31 5271.37 5013.33 5173.97 4939.91Z" fill="url(#paint16_linear_2247_1863)"/>
<path d="M2543.38 4747.78C2543.31 4773.2 2564.01 4794.07 2589.44 4794.16L3221.04 4796.4C3246.46 4796.49 3267.33 4775.77 3267.43 4750.36L3271.82 3515.37C3271.91 3489.96 3251.19 3469.08 3225.77 3468.99L2594.17 3466.74C2568.75 3466.64 2547.87 3487.38 2547.78 3512.79L2543.38 4747.78Z" fill="#082947"/>
<path d="M3164.63 3668.32C3164.58 3680.36 3154.71 3690.17 3142.66 3690.13L2675.68 3688.47C2663.65 3688.42 2653.84 3678.53 2653.88 3666.5L2654.13 3593.53C2654.18 3581.49 2664.06 3571.68 2676.11 3571.73L3143.08 3573.39C3155.11 3573.43 3164.93 3583.31 3164.89 3595.35L3164.63 3668.32Z" fill="#E8512E"/>
<path d="M3163.76 3914.58C3163.71 3926.61 3153.83 3936.42 3141.79 3936.38L2674.82 3934.72C2662.76 3934.68 2652.95 3924.79 2653 3912.75L2653.25 3839.79C2653.31 3827.75 2663.2 3817.93 2675.23 3817.98L3142.2 3819.64C3154.25 3819.69 3164.07 3829.58 3164.02 3841.62L3163.76 3914.58Z" fill="#E8512E"/>
<path d="M3162.87 4160.83C3162.82 4172.87 3152.94 4182.68 3140.9 4182.64L2673.94 4180.97C2661.9 4180.92 2652.08 4171.05 2652.12 4159.01L2652.38 4086.05C2652.43 4074 2662.31 4064.19 2674.35 4064.23L3141.32 4065.91C3153.36 4065.93 3163.17 4075.82 3163.13 4087.86L3162.87 4160.83Z" fill="#E8512E"/>
<path d="M3162 4407.08C3161.95 4419.13 3152.06 4428.94 3140.04 4428.9L2673.06 4427.23C2661.01 4427.19 2651.21 4417.31 2651.24 4405.26L2651.51 4332.31C2651.55 4320.26 2661.44 4310.45 2673.46 4310.49L3140.44 4312.16C3152.49 4312.2 3162.3 4322.09 3162.26 4334.13L3162 4407.08Z" fill="#E8512E"/>
<path d="M3161.12 4653.34C3161.07 4665.38 3151.19 4675.19 3139.15 4675.15L2672.17 4673.49C2660.14 4673.45 2650.32 4663.56 2650.37 4651.52L2650.63 4578.56C2650.66 4566.51 2660.55 4556.71 2672.6 4556.75L3139.57 4558.41C3151.61 4558.45 3161.43 4568.33 3161.37 4580.38L3161.12 4653.34Z" fill="#E8512E"/>
<path d="M6942.56 4843.3C6896.66 4840.76 6853.25 4834.14 6812.49 4823.49C6815.81 4762.13 6818.71 4700.75 6821.18 4639.37C6834.72 4642.31 6849.05 4645.59 6864.27 4649.23C6879.46 4652.87 6896 4655.07 6913.87 4655.8C6955.55 4657.52 6985.87 4646.84 7004.67 4623.6C7023.49 4600.36 7033.91 4559.63 7035.66 4501.51C7043.72 4226.58 7043.33 3951.45 7034.48 3676.54C7118.98 3673.82 7203.48 3671.1 7287.98 3668.38C7296.77 3941.45 7297.38 4214.72 7289.79 4487.82C7286.36 4610.85 7254.53 4702.92 7196.22 4762.94C7137.86 4823.03 7053.13 4849.44 6942.56 4843.3Z" fill="#082947"/>
<path d="M8305.51 4122.23C8305.31 4286.45 8264.04 4410.85 8184.77 4493.47C8105.42 4576.21 7990.97 4613.92 7842.46 4608.62C7696.01 4603.41 7585.35 4558.16 7509.42 4474.97C7433.39 4391.64 7396.88 4274.01 7397.02 4120.12C7397.11 3967.87 7433.69 3851.27 7509.46 3768.31C7585.13 3685.49 7696.53 3640.57 7844.69 3635.57C7993.2 3630.56 8107.37 3668.29 8186.13 3750.75C8264.8 3833.09 8305.63 3957.58 8305.51 4122.23ZM7662.79 4121.62C7662.44 4301.71 7722.53 4393.14 7848.36 4395.95C7912.21 4397.25 7960.11 4375.94 7991.68 4331.56C8023.23 4287.22 8039.65 4217.22 8039.72 4121.98C8039.81 4026.3 8023.31 3955.72 7991.42 3910.68C7959.49 3865.61 7912.29 3843.87 7850.11 3845.04C7723.44 3847.66 7662.78 3939.84 7662.79 4121.62Z" fill="#082947"/>
<path d="M8400.07 4614.79C8411.29 4287.47 8411.64 3959.87 8401.1 3632.54C8485.59 3629.82 8570.1 3627.1 8654.6 3624.39C8665.32 3957.33 8664.97 4290.55 8653.55 4623.48C8569.06 4620.58 8484.57 4617.68 8400.07 4614.79Z" fill="#082947"/>
<path d="M9678.74 4658.63C9568.5 4654.85 9458.25 4651.07 9348 4647.29C9242.76 4398 9131.59 4153.89 9014.86 3915.15C9012.96 3915.18 9011.03 3915.2 9009.12 3915.22C9018.63 4028.4 9022.58 4115 9022.32 4174.7C9021.66 4328.43 9018.7 4482.15 9013.42 4635.82C8938.93 4633.26 8864.44 4630.71 8789.95 4628.16C8801.46 4292.2 8801.83 3955.96 8791 3620C8900.83 3616.45 9010.66 3612.92 9120.49 3609.39C9241.41 3844.3 9356.98 4084.57 9466.85 4330.01C9468.13 4330.04 9469.41 4330.05 9470.7 4330.07C9466.17 4223.88 9463.4 4138.7 9463.26 4074.39C9462.92 3915.77 9460.2 3757.17 9455.09 3598.61C9530.01 3596.21 9604.94 3593.8 9679.86 3591.38C9691.3 3947.04 9690.94 4302.98 9678.74 4658.63Z" fill="#082947"/>
<path d="M10884.3 3552.61C10891.7 3782.75 10894.5 4012.99 10892.7 4243.22C10891.5 4393.43 10854.2 4509.23 10782.7 4589.14C10711.1 4669.14 10609.9 4706.07 10479.7 4701.43C10352.4 4696.9 10256.1 4654.61 10189.9 4575.92C10123.8 4497.12 10092.2 4386.89 10093.4 4243.71C10095.3 4021.9 10092.6 3800.06 10085.5 3578.32C10170 3575.6 10254.5 3572.88 10339 3570.16C10346 3787.46 10348.7 4004.85 10347.2 4222.22C10346.7 4300.76 10358.1 4357.89 10382.3 4393.87C10406.3 4429.83 10442.4 4448.4 10490.5 4449.39C10542 4450.45 10579.7 4433.4 10603.6 4398.02C10627.4 4362.68 10639.9 4304.16 10640.5 4222.68C10642 4002 10639.2 3781.31 10632.1 3560.72C10716.1 3558.02 10800.2 3555.32 10884.3 3552.61Z" fill="#082947"/>
<path d="M11632.9 4361.97C11631.9 4436.19 11615.8 4501.84 11585 4558.52C11554.2 4615.22 11510.4 4658.45 11454.1 4688.26C11397.7 4718.08 11332.2 4731.44 11257.7 4728.82C11195.6 4726.63 11143.6 4719.32 11101.9 4707.02C11060.1 4694.72 11016.9 4674.35 10972.2 4646.14C10975 4553.61 10977.2 4461.07 10978.6 4368.52C11026.2 4399.76 11075.8 4424.54 11127.4 4442.77C11179 4461.02 11226.6 4470.69 11270 4471.58C11307.5 4472.36 11335.1 4464.76 11352.9 4448.7C11370.7 4432.65 11379.8 4411.67 11380.2 4385.85C11380.4 4369.72 11377.1 4355.54 11370.3 4343.34C11363.4 4331.16 11352.2 4318.79 11336.9 4306.28C11321.4 4293.77 11280.3 4268.06 11213.3 4229.73C11152.6 4194.68 11107.1 4161.16 11076.6 4128.84C11046.2 4096.55 11023.6 4059.68 11008.7 4018.15C10993.8 3976.62 10986 3927.52 10985.3 3870.7C10983.8 3764.48 11013 3681.08 11074 3619.54C11134.9 3558.08 11219.8 3525.02 11329.2 3521.37C11425.8 3518.18 11525.4 3543.06 11627.5 3597.5C11604.1 3681.42 11580.1 3765 11555.5 3848.23C11467.5 3798.44 11391.6 3774.69 11328.1 3775.88C11295.3 3776.5 11271.6 3784.16 11257 3798.86C11242.3 3813.54 11235.2 3831.54 11235.5 3852.88C11235.8 3875.83 11245.5 3896.24 11264.7 3914.19C11283.8 3932.19 11335.6 3964.73 11419.8 4012.78C11500.6 4058.19 11556.5 4107.71 11587.7 4160.88C11618.8 4214.03 11634.1 4281.2 11632.9 4361.97Z" fill="#082947"/>
<path d="M9593.7 2935.81C9574.79 2935.81 9558.81 2921.24 9557.36 2902.08C9555.83 2881.99 9570.89 2864.47 9590.99 2862.95L9656.82 2857.97C9676.93 2856.45 9694.43 2871.51 9695.95 2891.6C9697.47 2911.69 9682.41 2929.21 9662.32 2930.73L9596.49 2935.71C9595.55 2935.78 9594.62 2935.81 9593.7 2935.81Z" fill="#004761"/>
<path d="M8849.16 2992.17C8830.25 2992.17 8814.27 2977.6 8812.82 2958.45C8811.29 2938.35 8826.35 2920.83 8846.44 2919.31L9360.58 2880.38C9380.81 2878.88 9398.2 2893.92 9399.72 2914C9401.24 2934.1 9386.19 2951.62 9366.1 2953.14L8851.95 2992.07C8851.01 2992.14 8850.08 2992.17 8849.16 2992.17Z" fill="#004761"/>
<path d="M6931.29 3137.35C6912.38 3137.35 6896.39 3122.78 6894.94 3103.62C6893.42 3083.53 6908.48 3066.01 6928.56 3064.49L8616.05 2936.75C8636.02 2935.25 8653.66 2950.28 8655.18 2970.37C8656.7 2990.46 8641.65 3007.98 8621.55 3009.5L6934.07 3137.25C6933.14 3137.32 6932.2 3137.35 6931.29 3137.35Z" fill="#004761"/>
<path d="M8808.99 2521.15C8790.58 2521.15 8774.76 2507.26 8772.76 2488.55C8770.61 2468.51 8785.12 2450.53 8805.15 2448.39L8921.64 2435.93C8941.78 2433.69 8959.66 2448.31 8961.8 2468.33C8963.93 2488.37 8949.43 2506.35 8929.4 2508.49L8812.92 2520.94C8811.6 2521.09 8810.29 2521.15 8808.99 2521.15Z" fill="#004761"/>
<path d="M8078.43 2599.26C8060.02 2599.26 8044.2 2585.37 8042.19 2566.65C8040.05 2546.62 8054.56 2528.64 8074.6 2526.5L8529.3 2477.88C8549.37 2475.71 8567.31 2490.24 8569.45 2510.28C8571.6 2530.31 8557.09 2548.29 8537.05 2550.43L8082.35 2599.05C8081.03 2599.19 8079.73 2599.26 8078.43 2599.26Z" fill="#004761"/>
<path d="M6354.33 2783.6C6335.92 2783.6 6320.1 2769.71 6318.1 2750.99C6315.95 2730.96 6330.46 2712.99 6350.5 2710.84L7798.74 2556C7818.7 2553.88 7836.75 2568.36 7838.89 2588.4C7841.04 2608.43 7826.53 2626.41 7806.49 2628.55L6358.25 2783.39C6356.94 2783.54 6355.62 2783.6 6354.33 2783.6Z" fill="#004761"/>
<path d="M9659.61 5358.59C9658.68 5358.59 9657.74 5358.55 9656.8 5358.48L9590.97 5353.49C9570.88 5351.97 9555.83 5334.45 9557.36 5314.35C9558.88 5294.27 9576.38 5279.26 9596.5 5280.74L9662.33 5285.73C9682.42 5287.25 9697.48 5304.78 9695.95 5324.87C9694.49 5344.02 9678.5 5358.59 9659.61 5358.59Z" fill="#004761"/>
<path d="M9363.38 5336.17C9362.46 5336.17 9361.52 5336.13 9360.58 5336.06L8846.43 5297.13C8826.35 5295.62 8811.29 5278.09 8812.81 5258C8814.33 5237.92 8831.68 5222.81 8851.95 5224.38L9366.1 5263.31C9386.18 5264.83 9401.24 5282.35 9399.72 5302.44C9398.27 5321.59 9382.27 5336.17 9363.38 5336.17Z" fill="#004761"/>
<path d="M8618.84 5279.8C8617.91 5279.8 8616.98 5279.76 8616.05 5279.7L6928.56 5151.95C6908.47 5150.43 6893.42 5132.91 6894.94 5112.82C6896.46 5092.73 6913.99 5077.65 6934.07 5079.2L8621.55 5206.94C8641.64 5208.46 8656.7 5225.98 8655.17 5246.07C8653.73 5265.22 8637.73 5279.8 8618.84 5279.8Z" fill="#004761"/>
<path d="M8925.57 5780.73C8924.27 5780.73 8922.96 5780.66 8921.64 5780.52L8805.16 5768.06C8785.13 5765.93 8770.62 5747.95 8772.76 5727.91C8774.9 5707.88 8792.89 5693.37 8812.91 5695.51L8929.41 5707.97C8949.44 5710.11 8963.95 5728.09 8961.8 5748.13C8959.79 5766.84 8943.97 5780.73 8925.57 5780.73Z" fill="#004761"/>
<path d="M8533.22 5738.77C8531.93 5738.77 8530.62 5738.7 8529.31 5738.56L8074.6 5689.95C8054.56 5687.8 8040.05 5669.82 8042.2 5649.79C8044.34 5629.76 8062.31 5615.21 8082.35 5617.39L8537.06 5666.01C8557.09 5668.15 8571.6 5686.13 8569.46 5706.16C8567.45 5724.88 8551.63 5738.77 8533.22 5738.77Z" fill="#004761"/>
<path d="M7802.66 5660.66C7801.37 5660.66 7800.06 5660.6 7798.74 5660.45L6350.5 5505.61C6330.47 5503.47 6315.96 5485.49 6318.1 5465.46C6320.25 5445.43 6338.24 5430.87 6358.25 5433.06L7806.5 5587.9C7826.53 5590.05 7841.04 5608.02 7838.9 5628.05C7836.89 5646.77 7821.07 5660.66 7802.66 5660.66Z" fill="#004761"/>
<path d="M10592.4 3328.95C10523.5 3328.95 10467.5 3272.88 10467.5 3203.97C10467.5 3135.05 10523.5 3078.98 10592.4 3078.98C10661.4 3078.98 10717.4 3135.05 10717.4 3203.97C10717.4 3272.88 10661.4 3328.95 10592.4 3328.95ZM10592.4 3122.76C10547.7 3122.76 10511.2 3159.19 10511.2 3203.97C10511.2 3248.74 10547.7 3285.17 10592.4 3285.17C10637.2 3285.17 10673.6 3248.74 10673.6 3203.97C10673.6 3159.19 10637.2 3122.76 10592.4 3122.76Z" fill="#004761"/>
<path d="M6607.79 5020.57C6538.88 5020.57 6482.81 4964.51 6482.81 4895.59C6482.81 4826.67 6538.88 4770.61 6607.79 4770.61C6676.71 4770.61 6732.78 4826.67 6732.78 4895.59C6732.78 4964.51 6676.71 5020.57 6607.79 5020.57ZM6607.79 4814.39C6563.02 4814.39 6526.59 4850.81 6526.59 4895.59C6526.59 4940.37 6563.02 4976.79 6607.79 4976.79C6652.57 4976.79 6689 4940.37 6689 4895.59C6689 4850.81 6652.57 4814.39 6607.79 4814.39Z" fill="#004761"/>
<path d="M9490.64 2597.19C9421.72 2597.19 9365.66 2541.13 9365.66 2472.21C9365.66 2403.29 9421.72 2347.23 9490.64 2347.23C9559.56 2347.23 9615.63 2403.29 9615.63 2472.21C9615.63 2541.13 9559.56 2597.19 9490.64 2597.19ZM9490.64 2391.01C9445.87 2391.01 9409.44 2427.43 9409.44 2472.21C9409.44 2516.99 9445.86 2553.42 9490.64 2553.42C9535.42 2553.42 9571.85 2516.99 9571.85 2472.21C9571.85 2427.44 9535.42 2391.01 9490.64 2391.01Z" fill="#004761"/>
<path d="M8232.24 4836.18C8177.26 4836.18 8132.52 4791.45 8132.52 4736.46C8132.52 4681.47 8177.26 4636.74 8232.24 4636.74C8287.23 4636.74 8331.96 4681.47 8331.96 4736.46C8331.96 4791.45 8287.23 4836.18 8232.24 4836.18ZM8232.24 4680.52C8201.4 4680.52 8176.3 4705.61 8176.3 4736.46C8176.3 4767.31 8201.4 4792.4 8232.24 4792.4C8263.09 4792.4 8288.19 4767.31 8288.19 4736.46C8288.19 4705.61 8263.09 4680.52 8232.24 4680.52Z" fill="#004761"/>
<path d="M10163.3 2788.03C10108.3 2788.03 10063.6 2743.29 10063.6 2688.31C10063.6 2633.32 10108.3 2588.59 10163.3 2588.59C10218.3 2588.59 10263 2633.32 10263 2688.31C10263 2743.3 10218.3 2788.03 10163.3 2788.03ZM10163.3 2632.37C10132.5 2632.37 10107.4 2657.46 10107.4 2688.31C10107.4 2719.16 10132.5 2744.25 10163.3 2744.25C10194.1 2744.25 10219.2 2719.16 10219.2 2688.31C10219.2 2657.46 10194.1 2632.37 10163.3 2632.37Z" fill="#004761"/>
<path d="M11850.1 3831.21C11795.1 3831.21 11750.3 3786.48 11750.3 3731.49C11750.3 3676.5 11795.1 3631.77 11850.1 3631.77C11905 3631.77 11949.8 3676.5 11949.8 3731.49C11949.8 3786.48 11905 3831.21 11850.1 3831.21ZM11850.1 3675.55C11819.2 3675.55 11794.1 3700.64 11794.1 3731.49C11794.1 3762.34 11819.2 3787.43 11850.1 3787.43C11880.9 3787.43 11906 3762.34 11906 3731.49C11906 3700.64 11880.9 3675.55 11850.1 3675.55Z" fill="#004761"/>
<path d="M9688.18 5785.1C9642.51 5785.1 9605.36 5747.95 9605.36 5702.29C9605.36 5656.62 9642.51 5619.47 9688.18 5619.47C9733.84 5619.47 9770.99 5656.62 9770.99 5702.29C9770.99 5747.95 9733.84 5785.1 9688.18 5785.1ZM9688.18 5663.25C9666.65 5663.25 9649.14 5680.76 9649.14 5702.29C9649.14 5723.81 9666.65 5741.32 9688.18 5741.32C9709.7 5741.32 9727.21 5723.81 9727.21 5702.29C9727.21 5680.76 9709.7 5663.25 9688.18 5663.25Z" fill="#004761"/>
<path d="M7538.05 3531.6C7492.39 3531.6 7455.24 3494.44 7455.24 3448.78C7455.24 3403.12 7492.39 3365.96 7538.05 3365.96C7583.72 3365.96 7620.87 3403.12 7620.87 3448.78C7620.87 3494.44 7583.72 3531.6 7538.05 3531.6ZM7538.05 3409.74C7516.53 3409.74 7499.01 3427.26 7499.01 3448.78C7499.01 3470.31 7516.53 3487.82 7538.05 3487.82C7559.58 3487.82 7577.09 3470.31 7577.09 3448.78C7577.09 3427.26 7559.58 3409.74 7538.05 3409.74Z" fill="#004761"/>
<path d="M9923.89 4773.92C9878.23 4773.92 9841.08 4736.77 9841.08 4691.11C9841.08 4645.44 9878.23 4608.29 9923.89 4608.29C9969.56 4608.29 10006.7 4645.44 10006.7 4691.11C10006.7 4736.77 9969.56 4773.92 9923.89 4773.92ZM9923.89 4652.07C9902.37 4652.07 9884.85 4669.58 9884.85 4691.11C9884.85 4712.63 9902.37 4730.14 9923.89 4730.14C9945.42 4730.14 9962.93 4712.63 9962.93 4691.11C9962.93 4669.58 9945.42 4652.07 9923.89 4652.07Z" fill="#004761"/>
<path d="M6729.65 3470.05C6683.98 3470.05 6646.83 3432.9 6646.83 3387.24C6646.83 3341.57 6683.99 3304.42 6729.65 3304.42C6775.32 3304.42 6812.47 3341.58 6812.47 3387.24C6812.47 3432.9 6775.32 3470.05 6729.65 3470.05ZM6729.65 3348.2C6708.13 3348.2 6690.61 3365.71 6690.61 3387.24C6690.61 3408.76 6708.13 3426.27 6729.65 3426.27C6751.18 3426.27 6768.69 3408.76 6768.69 3387.24C6768.69 3365.71 6751.18 3348.2 6729.65 3348.2Z" fill="#004761"/>
<path d="M11515.4 2947.49C11512.2 2947.49 11509 2946.45 11506.3 2944.29L11437 2888.84L11367.7 2944.29C11362.4 2948.55 11354.8 2948.55 11349.5 2944.29L11280.2 2888.84L11210.9 2944.29C11205.6 2948.55 11198 2948.56 11192.7 2944.29L11123.4 2888.84L11054.2 2944.29C11047.9 2949.32 11038.7 2948.31 11033.7 2942.02C11028.7 2935.73 11029.7 2926.54 11036 2921.51L11114.3 2858.75C11119.7 2854.49 11127.2 2854.48 11132.6 2858.76L11201.8 2914.2L11271.1 2858.75C11276.4 2854.49 11284 2854.49 11289.3 2858.75L11358.6 2914.21L11427.9 2858.75C11433.2 2854.49 11440.8 2854.49 11446.1 2858.75L11524.5 2921.51C11530.8 2926.54 11531.8 2935.72 11526.8 2942.02C11523.9 2945.62 11519.7 2947.49 11515.4 2947.49Z" fill="#004761"/>
<path d="M7199.96 6020.59C7196.76 6020.59 7193.54 6019.54 7190.85 6017.39L7121.55 5961.93L7052.27 6017.39C7046.94 6021.65 7039.36 6021.65 7034.03 6017.39L6964.75 5961.93L6895.48 6017.39C6890.15 6021.65 6882.57 6021.66 6877.24 6017.38L6808.01 5961.94L6738.77 6017.39C6732.47 6022.41 6723.29 6021.4 6718.26 6015.12C6713.22 6008.82 6714.24 5999.64 6720.53 5994.6L6798.89 5931.85C6804.22 5927.59 6811.8 5927.58 6817.13 5931.86L6886.36 5987.3L6955.63 5931.85C6960.96 5927.59 6968.54 5927.59 6973.87 5931.85L7043.15 5987.31L7112.43 5931.85C7117.76 5927.59 7125.34 5927.59 7130.67 5931.85L7209.09 5994.6C7215.38 5999.64 7216.4 6008.82 7211.36 6015.12C7208.49 6018.71 7204.24 6020.59 7199.96 6020.59Z" fill="#004761"/>
<path d="M9328.89 4931.55C9325.69 4931.55 9322.47 4930.5 9319.78 4928.35L9261.63 4881.82L9203.52 4928.35C9198.19 4932.61 9190.61 4932.61 9185.28 4928.35L9127.16 4881.82L9069.04 4928.35C9063.71 4932.61 9056.13 4932.62 9050.8 4928.34L8992.72 4881.83L8934.64 4928.35C8928.35 4933.37 8919.16 4932.36 8914.12 4926.08C8909.08 4919.78 8910.1 4910.61 8916.4 4905.56L8983.6 4851.74C8988.93 4847.48 8996.51 4847.47 9001.84 4851.74L9059.92 4898.26L9118.03 4851.74C9123.36 4847.48 9130.95 4847.48 9136.28 4851.74L9194.4 4898.27L9252.51 4851.74C9257.84 4847.48 9265.42 4847.48 9270.75 4851.74L9338.02 4905.56C9344.31 4910.6 9345.33 4919.78 9340.29 4926.08C9337.41 4929.68 9333.16 4931.55 9328.89 4931.55Z" fill="#004761"/>
<path d="M10926.3 5157.08C10923.1 5157.08 10919.9 5156.03 10917.2 5153.88L10859 5107.35L10800.9 5153.88C10795.6 5158.14 10788 5158.14 10782.7 5153.88L10724.5 5107.35L10666.4 5153.88C10661.1 5158.14 10653.5 5158.15 10648.2 5153.87L10590.1 5107.36L10532 5153.88C10525.7 5158.9 10516.6 5157.89 10511.5 5151.61C10506.5 5145.32 10507.5 5136.14 10513.8 5131.09L10581 5077.27C10586.3 5073.01 10593.9 5073 10599.2 5077.28L10657.3 5123.79L10715.4 5077.27C10720.8 5073.01 10728.3 5073.01 10733.7 5077.27L10791.8 5123.8L10849.9 5077.27C10855.2 5073.01 10862.8 5073.01 10868.1 5077.27L10935.4 5131.09C10941.7 5136.13 10942.7 5145.31 10937.7 5151.61C10934.8 5155.21 10930.6 5157.08 10926.3 5157.08Z" fill="#004761"/>
<path d="M10747.9 2410.63C10744.7 2410.63 10741.4 2409.58 10738.7 2407.43L10680.6 2360.9L10622.5 2407.43C10617.2 2411.69 10609.6 2411.69 10604.2 2407.43L10546.1 2360.9L10488 2407.43C10482.7 2411.69 10475.1 2411.7 10469.8 2407.42L10411.7 2360.91L10353.6 2407.43C10347.3 2412.45 10338.1 2411.44 10333.1 2405.16C10328.1 2398.86 10329.1 2389.69 10335.4 2384.64L10402.6 2330.81C10407.9 2326.55 10415.5 2326.55 10420.8 2330.82L10478.9 2377.34L10537 2330.81C10542.3 2326.55 10549.9 2326.55 10555.2 2330.81L10613.4 2377.34L10671.5 2330.81C10676.8 2326.55 10684.4 2326.55 10689.7 2330.81L10757 2384.64C10763.3 2389.68 10764.3 2398.85 10759.3 2405.16C10756.4 2408.76 10752.1 2410.63 10747.9 2410.63Z" fill="#004761"/>
<path d="M8820.48 3429.36C8817.28 3429.36 8814.06 3428.31 8811.37 3426.16L8753.22 3379.63L8695.11 3426.16C8689.78 3430.42 8682.2 3430.42 8676.87 3426.16L8618.75 3379.63L8560.63 3426.16C8555.3 3430.42 8547.72 3430.43 8542.39 3426.15L8484.32 3379.64L8426.23 3426.16C8419.94 3431.18 8410.76 3430.17 8405.71 3423.89C8400.68 3417.59 8401.69 3408.42 8407.99 3403.37L8475.19 3349.55C8480.52 3345.28 8488.11 3345.28 8493.44 3349.55L8551.51 3396.07L8609.63 3349.55C8614.96 3345.28 8622.54 3345.28 8627.87 3349.55L8685.99 3396.08L8744.1 3349.55C8749.43 3345.28 8757.01 3345.28 8762.34 3349.55L8829.61 3403.37C8835.9 3408.41 8836.92 3417.59 8831.88 3423.89C8829 3427.48 8824.76 3429.36 8820.48 3429.36Z" fill="#004761"/>
<path d="M9252.56 2197.4C9249.36 2197.4 9246.14 2196.35 9243.44 2194.2L9185.3 2147.67L9127.19 2194.2C9121.86 2198.46 9114.28 2198.46 9108.95 2194.2L9050.82 2147.67L8992.71 2194.2C8987.38 2198.46 8979.8 2198.47 8974.47 2194.19L8916.39 2147.68L8858.31 2194.2C8852.02 2199.23 8842.84 2198.22 8837.79 2191.93C8832.75 2185.64 8833.77 2176.46 8840.06 2171.41L8907.27 2117.59C8912.6 2113.33 8920.18 2113.32 8925.51 2117.6L8983.59 2164.11L9041.7 2117.59C9047.03 2113.33 9054.61 2113.33 9059.94 2117.59L9118.07 2164.12L9176.18 2117.59C9181.51 2113.33 9189.09 2113.33 9194.42 2117.59L9261.69 2171.41C9267.98 2176.45 9269 2185.63 9263.96 2191.93C9261.08 2195.53 9256.83 2197.4 9252.56 2197.4Z" fill="#004761"/>
<path d="M12114.1 4584.17C12103.8 4584.17 12095.5 4575.84 12095.5 4565.57V4221.92C12095.5 4211.65 12103.8 4203.33 12114.1 4203.33C12124.3 4203.33 12132.7 4211.65 12132.7 4221.92V4565.57C12132.7 4575.84 12124.3 4584.17 12114.1 4584.17Z" fill="#004761"/>
<path d="M11907.6 4563.73C11907.6 4603.72 11958 4636.13 12020.1 4636.13C12082.3 4636.13 12132.7 4603.72 12132.7 4563.73C12132.7 4523.75 12082.3 4491.34 12020.1 4491.34C11958 4491.34 11907.6 4523.75 11907.6 4563.73Z" fill="#004761"/>
<path d="M12114.3 4203.56C12132.6 4201.13 12154.8 4206.88 12171.6 4213.95C12200.9 4226.29 12228.9 4248.48 12262.4 4240.22C12270.2 4238.29 12279.1 4235.67 12285.8 4231.02C12285.6 4237.06 12282.9 4243.04 12280.7 4248.59C12275.9 4261.34 12270.5 4274.38 12261.6 4284.83C12239.7 4310.28 12198.1 4322.41 12165.9 4313.84C12155.6 4311.11 12145.2 4307.36 12134.5 4306.17C12124.8 4305.08 12114.2 4307.14 12113.4 4294.72C12112.6 4283.23 12114.2 4271.26 12113.9 4259.66C12113.6 4247.91 12114 4236.11 12114.1 4224.36C12114.1 4217.43 12113.9 4210.5 12114.3 4203.56Z" fill="#004761"/>
<path d="M10267.1 5616.64C10258.5 5613.35 10254.3 5603.77 10257.6 5595.23L10367.6 5309.53C10370.9 5300.99 10380.5 5296.74 10389 5300.03C10397.5 5303.31 10401.8 5312.89 10398.5 5321.43L10288.5 5607.13C10285.2 5615.67 10275.6 5619.93 10267.1 5616.64Z" fill="#004761"/>
<path d="M10102 5533.56C10089.2 5566.8 10120.7 5609.87 10172.4 5629.77C10224 5649.67 10276.3 5638.85 10289.1 5605.6C10301.9 5572.37 10270.4 5529.29 10218.7 5509.4C10167 5489.51 10114.8 5500.32 10102 5533.56Z" fill="#004761"/>
<path d="M10389.2 5300.31C10405.1 5304.14 10421.8 5316.04 10433.4 5327.27C10453.8 5346.9 10470.1 5374.34 10500.5 5378.2C10507.6 5379.09 10515.9 5379.75 10522.9 5378.04C10520.8 5382.99 10516.6 5387.09 10513.1 5391.02C10505 5400.07 10496.3 5409.19 10485.5 5415.02C10459.2 5429.17 10420.7 5425.93 10396.7 5408.5C10389 5402.93 10381.6 5396.48 10373.1 5392.09C10365.3 5388.06 10355.9 5386.37 10359.2 5375.8C10362.2 5366.01 10367.4 5356.57 10370.8 5346.82C10374.3 5336.95 10378.5 5327.28 10382.3 5317.53C10384.5 5311.76 10386.6 5305.94 10389.2 5300.31Z" fill="#004761"/>
<path d="M11222.4 2635.18C11213.4 2633.32 11207.7 2624.55 11209.5 2615.6L11271.6 2315.81C11273.5 2306.85 11282.2 2301.1 11291.2 2302.96C11300.2 2304.81 11305.9 2313.58 11304.1 2322.53L11242 2622.32C11240.1 2631.27 11231.3 2637.04 11222.4 2635.18Z" fill="#004761"/>
<path d="M11046 2580.04C11038.7 2614.93 11076.8 2652.3 11131 2663.53C11185.2 2674.76 11235.1 2655.6 11242.3 2620.71C11249.5 2585.84 11211.4 2548.46 11157.2 2537.23C11103 2526 11053.2 2545.16 11046 2580.04Z" fill="#004761"/>
<path d="M11291.4 2303.2C11307.8 2304.4 11326.1 2313.43 11339.5 2322.62C11362.8 2338.66 11383.3 2363.1 11414 2361.95C11421.1 2361.68 11429.3 2360.99 11436 2358.16C11434.7 2363.39 11431.3 2368.11 11428.4 2372.57C11421.9 2382.81 11414.9 2393.22 11405.1 2400.72C11381.5 2418.97 11343 2422.02 11316.5 2408.73C11307.9 2404.47 11299.5 2399.33 11290.5 2396.37C11282.2 2393.65 11272.5 2393.54 11274.1 2382.56C11275.5 2372.4 11279.1 2362.25 11280.9 2352.08C11282.7 2341.77 11285.3 2331.55 11287.4 2321.31C11288.7 2315.26 11289.8 2309.18 11291.4 2303.2Z" fill="#004761"/>
<path d="M8066.13 6121.1C8075.1 6119.26 8080.88 6110.5 8079.04 6101.55L8017.61 5801.62C8015.77 5792.66 8007.02 5786.89 7998.06 5788.72C7989.09 5790.56 7983.32 5799.3 7985.16 5808.27L8046.58 6108.19C8048.42 6117.15 8057.18 6122.94 8066.13 6121.1Z" fill="#004761"/>
<path d="M8242.67 6066.34C8249.83 6101.26 8211.66 6138.54 8157.41 6149.65C8103.18 6160.76 8053.41 6141.48 8046.26 6106.57C8039.11 6071.68 8077.28 6034.4 8131.52 6023.28C8185.75 6012.17 8235.52 6031.46 8242.67 6066.34Z" fill="#004761"/>
<path d="M7997.85 5788.96C7981.45 5790.12 7963.1 5799.11 7949.74 5808.27C7926.41 5824.26 7905.86 5848.65 7875.15 5847.43C7868.01 5847.15 7859.79 5846.45 7853.12 5843.6C7854.39 5848.83 7857.84 5853.55 7860.68 5858.02C7867.19 5868.27 7874.18 5878.7 7883.9 5886.22C7907.53 5904.52 7946.02 5907.66 7972.56 5894.43C7981.08 5890.2 7989.49 5885.07 7998.58 5882.13C8006.89 5879.43 8016.52 5879.34 8014.99 5868.36C8013.58 5858.2 8010.04 5848.04 8008.25 5837.85C8006.45 5827.55 8003.94 5817.32 8001.82 5807.08C8000.56 5801.02 7999.47 5794.94 7997.85 5788.96Z" fill="#004761"/>
<path d="M8507 2169.54C8516.55 2165.77 8521.22 2154.97 8517.45 2145.42L8391.18 1825.81C8387.41 1816.26 8376.62 1811.57 8367.06 1815.35C8357.51 1819.13 8352.83 1829.92 8356.6 1839.47L8482.87 2159.09C8486.64 2168.64 8497.44 2173.32 8507 2169.54Z" fill="#004761"/>
<path d="M8691.51 2074.67C8706.2 2111.87 8671.25 2160.53 8613.45 2183.36C8555.65 2206.2 8496.88 2194.56 8482.19 2157.37C8467.5 2120.19 8502.44 2071.54 8560.24 2048.7C8618.05 2025.86 8676.81 2037.5 8691.51 2074.67Z" fill="#004761"/>
<path d="M8366.89 1815.66C8348.99 1820.13 8330.44 1833.64 8317.46 1846.36C8294.78 1868.59 8276.8 1899.55 8242.63 1904.17C8234.67 1905.25 8225.44 1906.07 8217.5 1904.21C8219.93 1909.75 8224.67 1914.31 8228.68 1918.69C8237.87 1928.77 8247.63 1938.93 8259.83 1945.35C8289.53 1960.98 8332.67 1956.98 8359.45 1937.19C8368.04 1930.85 8376.34 1923.54 8385.81 1918.53C8394.48 1913.92 8405.11 1911.95 8401.27 1900.11C8397.74 1889.15 8391.85 1878.61 8387.89 1867.69C8383.89 1856.65 8379.14 1845.83 8374.79 1834.92C8372.22 1828.48 8369.84 1821.96 8366.89 1815.66Z" fill="#004761"/>
<path d="M12132.5 3308.4C12123.1 3311.38 12113.1 3306.19 12110.1 3296.82L12010.5 2982.98C12007.5 2973.6 12012.7 2963.58 12022.1 2960.61C12031.5 2957.62 12041.5 2962.81 12044.5 2972.2L12144.1 3286.04C12147.1 3295.42 12141.9 3305.43 12132.5 3308.4Z" fill="#004761"/>
<path d="M11977.2 3337.18C11986.6 3366.74 12031.4 3378.89 12077.4 3364.29C12123.3 3349.71 12153 3313.92 12143.6 3284.35C12134.2 3254.79 12089.3 3242.66 12043.4 3257.25C11997.4 3271.84 11967.8 3307.62 11977.2 3337.18Z" fill="#004761"/>
<path d="M12364.6 3164.23C12355.2 3167.21 12345.2 3162.02 12342.2 3152.64L12242.6 2838.8C12239.6 2829.42 12244.8 2819.41 12254.2 2816.43C12263.6 2813.45 12273.6 2818.64 12276.6 2828.02L12376.2 3141.86C12379.2 3151.24 12374 3161.25 12364.6 3164.23Z" fill="#004761"/>
<path d="M12209.3 3193C12218.6 3222.57 12263.5 3234.7 12309.4 3220.12C12355.4 3205.53 12385 3169.75 12375.7 3140.18C12366.3 3110.62 12321.4 3098.48 12275.5 3113.07C12229.5 3127.66 12199.9 3163.45 12209.3 3193Z" fill="#004761"/>
<path d="M12012.5 2987.42C12007.3 2979.09 12010.4 2967.74 12019.5 2962.07L12248.8 2818.85C12257.9 2813.18 12269.4 2815.35 12274.6 2823.7C12279.9 2832.05 12276.7 2843.4 12267.7 2849.07L12038.4 2992.3C12029.3 2997.96 12017.7 2995.78 12012.5 2987.42Z" fill="#004761"/>
<path d="M12039.1 3071.27C12033.9 3062.93 12037 3051.58 12046.1 3045.91L12275.4 2902.69C12284.5 2897.03 12296 2899.19 12301.2 2907.54C12306.5 2915.89 12303.3 2927.24 12294.3 2932.91L12065 3076.14C12055.9 3081.81 12044.4 3079.62 12039.1 3071.27Z" fill="#004761"/>
<path d="M11235 5332.22C11227.1 5326.3 11225.6 5315.12 11231.5 5307.27L11429.7 5044.32C11435.6 5036.46 11446.8 5034.9 11454.6 5040.82C11462.5 5046.74 11464.1 5057.91 11458.1 5065.77L11259.9 5328.72C11254 5336.58 11242.9 5338.15 11235 5332.22Z" fill="#004761"/>
<path d="M11121.6 5222.23C11102.9 5247.01 11119 5290.6 11157.5 5319.62C11196 5348.63 11242.3 5352.08 11261 5327.31C11279.7 5302.54 11263.6 5258.95 11225.1 5229.93C11186.6 5200.91 11140.2 5197.46 11121.6 5222.23Z" fill="#004761"/>
<path d="M11486.9 5437.98C11479.1 5432.05 11477.5 5420.89 11483.4 5413.03L11681.6 5150.08C11687.5 5142.22 11698.7 5140.65 11706.6 5146.58C11714.4 5152.5 11716 5163.67 11710.1 5171.53L11511.9 5434.47C11505.9 5442.33 11494.8 5443.9 11486.9 5437.98Z" fill="#004761"/>
<path d="M11373.5 5327.98C11354.8 5352.75 11370.9 5396.35 11409.4 5425.36C11447.9 5454.39 11494.3 5457.83 11513 5433.06C11531.6 5408.29 11515.5 5364.7 11477 5335.68C11438.5 5306.66 11392.2 5303.21 11373.5 5327.98Z" fill="#004761"/>
<path d="M11427.2 5048.55C11431 5039.48 11442.1 5035.43 11451.9 5039.55L11701.5 5143.57C11711.3 5147.68 11716.3 5158.37 11712.5 5167.45C11708.7 5176.55 11697.6 5180.57 11687.7 5176.46L11438.2 5072.45C11428.3 5068.33 11423.4 5057.64 11427.2 5048.55Z" fill="#004761"/>
<path d="M11374.3 5118.79C11378.1 5109.72 11389.1 5105.68 11399 5109.79L11648.5 5213.82C11658.4 5217.94 11663.3 5228.61 11659.5 5237.71C11655.7 5246.79 11644.7 5250.82 11634.8 5246.71L11385.3 5142.69C11375.4 5138.58 11370.5 5127.89 11374.3 5118.79Z" fill="#004761"/>
<path d="M3977.45 1404.14C3977.45 1404.14 4522.47 1891.01 4627.53 1992.97C4732.59 2094.88 4572.01 2327.65 4378.19 2262.76C4184.4 2197.86 3918.11 2103.71 3771.9 1978.54C3625.68 1853.42 3544.79 1722.47 3549.43 1543.03C3554 1363.56 3830.81 1272.78 3977.45 1404.14Z" fill="url(#paint17_linear_2247_1863)"/>
<path d="M4532.52 3284.7C4532.52 3284.7 4303.56 3287.46 4286.65 3286.77C4267.93 3286.01 4238.04 3283.58 4250.01 3341.11C4262.08 3398.59 4264.78 3416.87 4264.78 3416.87C4264.78 3416.87 4512.88 3350.49 4538.74 3340.24C4564.59 3330 4580.24 3304.24 4532.52 3284.7Z" fill="#111C29"/>
<path d="M4275.1 2904.7C4277.06 2968.88 4279.23 3018.11 4281.51 3041.3C4292.07 3148.61 4266.16 3304.24 4266.16 3304.24C4266.16 3304.24 4267 3320.25 4293.82 3328.18C4311.69 3333.46 4329.72 3320.12 4329.72 3320.12C4329.72 3320.12 4379.98 3126.22 4434.19 2918.04L4275.1 2904.7Z" fill="#F2A874"/>
<path d="M4546.68 2488.35C4603.49 2274.22 4615.99 2276.26 4657.7 2097.92C4675.97 2019.75 4613.17 1941.04 4464.06 1926.2C4314.94 1911.41 4267.48 2007.62 4265.33 2139.24C4263.63 2242.46 4262.97 2680.96 4270.07 2913.6L4438.78 2935.77C4481.31 2772.41 4521.68 2582.51 4546.68 2488.35Z" fill="url(#paint18_linear_2247_1863)"/>
<path d="M4532.55 3284.7C4584.15 3320.3 4440.81 3345.79 4371.49 3360.38C4302.17 3374.98 4300.35 3342.14 4300.35 3303.25C4300.35 3264.36 4325.89 3141.49 4350.17 2991.91C4374.45 2842.33 4402.5 2424.61 4433.51 2254.96C4464.52 2085.32 4435.34 2072.55 4289.41 2021.48C4143.48 1970.4 4136.18 1890.14 4227.39 1833.59C4285.74 1797.42 4315.05 1749.32 4328.62 1719.35C4156.16 1563.76 3977.47 1404.15 3977.47 1404.15C3917.33 1350.27 3835.3 1333.81 3759.13 1345.46C3723.34 1358.05 3686.4 1371.36 3649.06 1385.1C3591.56 1420.41 3551.18 1475.41 3549.46 1543.03C3544.82 1722.48 3625.71 1853.42 3771.92 1978.54C3891.12 2080.59 4090.11 2162 4264.58 2223.78C4263.67 2392.81 4264.27 2722.58 4270.09 2913.6L4275.42 2914.3C4277.31 2973.77 4279.37 3019.28 4281.53 3041.3C4289.98 3127.24 4275.07 3244.07 4268.79 3287.25C4254.1 3289.74 4241.56 3300.36 4250.04 3341.12C4262.1 3398.6 4264.81 3416.88 4264.81 3416.88C4264.81 3416.88 4512.9 3350.5 4538.77 3340.24C4564.61 3330 4580.27 3304.24 4532.55 3284.7Z" fill="url(#paint19_linear_2247_1863)"/>
<path d="M2846.56 3253.51C2839.31 3236.25 2828.86 3208.13 2781.84 3243.37C2734.88 3278.67 2719.43 3288.87 2719.43 3288.87C2719.43 3288.87 2816.41 3404.2 2870.88 3466.75H2948.48C2929.62 3427.63 2852.31 3267.22 2846.56 3253.51Z" fill="#111C29"/>
<path d="M2907.14 3386.53V3466.5C2932.44 3466.84 2951.52 3466.87 2958.01 3466.33C2985.73 3463.99 3008.13 3443.87 2968.09 3411.35C2968.09 3411.35 2912.97 3388.22 2907.14 3386.53Z" fill="#111C29"/>
<path d="M3919.89 1582.23C3919.89 1582.23 3882.78 2312.1 3869.31 2457.88C3855.87 2603.64 3573.87 2624.65 3502.79 2433.02C3431.72 2241.41 3337.94 1974.99 3343.67 1782.61C3349.35 1590.25 3400.55 1445.09 3543.18 1336.11C3685.78 1227.05 3930.17 1385.62 3919.89 1582.23Z" fill="#0B3D59"/>
<path d="M2983.28 3052.56C2926.41 3144.17 2811.25 3251.98 2811.25 3251.98C2811.25 3251.98 2802.18 3265.2 2818.66 3287.78C2829.64 3302.89 2852.04 3303.25 2852.04 3303.25C2852.04 3303.25 3006.71 3182.29 3174.34 3051.49L3064.09 2936.24C3025.2 2990.3 2995.89 3032.23 2983.28 3052.56Z" fill="#F2A874"/>
<path d="M3806.2 2278.22C3696.79 2175.81 3600.61 2223.34 3518.91 2326.5C3455.24 2406.86 3180.78 2761.14 3044.23 2950.96L3168.06 3068.42C3302.66 2963.4 3451.91 2835.07 3529.97 2774.75C3705.31 2639.3 3640.78 2693.15 3788.94 2585.46C3874.64 2523.18 3915.57 2380.64 3806.2 2278.22Z" fill="#0B3D59"/>
<path d="M3543.18 1336.11C3400.55 1445.09 3349.35 1590.24 3343.67 1782.6C3338.51 1956.08 3414.24 2189.72 3481.28 2374.46C3381.95 2501.73 3161.93 2787.36 3044.23 2950.96L3049.76 2956.21C3018.04 3000.59 2994.29 3034.81 2983.28 3052.56C2941.63 3119.64 2868.78 3195.36 2832.73 3231.12C2823.51 3223.8 2808.61 3223.3 2781.84 3243.37C2734.88 3278.67 2719.43 3288.87 2719.43 3288.87C2719.43 3288.87 2816.41 3404.2 2870.88 3466.75H2948.48C2948.47 3466.72 2948.45 3466.69 2948.44 3466.67C2952.67 3466.6 2956 3466.5 2958.01 3466.33C2985.73 3463.99 3008.13 3443.87 2968.09 3411.35C2986.59 3435.86 2961.44 3443.38 2926.79 3443.38C2892.13 3443.38 2878.45 3445.21 2833.96 3380.45C2789.47 3315.69 2797.27 3312.96 2833.96 3264.22C2870.64 3215.48 3130.48 2956.04 3303.17 2800.39C3475.85 2644.73 3685.62 2472.04 3683.8 2379.4C3681.97 2286.76 3579.82 2008.71 3561.58 1886.49C3545.06 1775.8 3789.41 1817.24 3906.11 1845.91C3914.02 1697.7 3919.89 1582.24 3919.89 1582.24C3930.17 1385.62 3685.78 1227.05 3543.18 1336.11Z" fill="url(#paint20_linear_2247_1863)"/>
<path d="M5080.03 303.06C5106.03 260.777 5154.49 230.949 5165.91 240.919C5187.66 259.959 5141.26 284.833 5149.59 307.948C5157.43 329.761 5072.46 370.987 5072.46 370.987C5072.46 370.987 5066.56 324.964 5080.03 303.06Z" fill="#F2A874"/>
<path d="M4765.34 802.977C4831.86 745.353 5053.18 486.094 5121.39 437.503C5227.28 471.413 5264.21 401.852 5294.16 357.96C5322.69 316.082 5226.61 230.355 5208.37 242.613C5184.31 258.804 5185.94 257.162 5147.11 295.896C5117.6 325.297 5060.46 259.556 5073.03 378.394C5017.33 434.143 4863.97 552.671 4863.97 552.671L4587.14 773.747C4587.14 773.747 4521.43 835.362 4565.93 879.973C4602.3 916.47 4715.43 846.234 4765.34 802.977Z" fill="#F2A874"/>
<path d="M4471.74 937.556C4471.74 937.556 4600.06 901 4647.04 875.229C4680.74 856.765 4692.08 792.418 4674.45 764.848C4656.85 737.238 4534.72 728.559 4434.7 754.538C4358.05 774.461 4456.77 933.7 4471.74 937.556Z" fill="#F2A874"/>
<path d="M4041.08 994.439C4321.5 1054.78 4578.79 973.739 4578.79 973.739C4578.79 973.739 4612.15 908.154 4586.81 815.58C4563.61 731.148 4526.68 702.108 4526.68 702.108C4526.68 702.108 4268.47 704.516 4077.77 679.84C3947.98 663.032 3888.22 961.575 4041.08 994.439Z" fill="#004761"/>
<path d="M5121.38 437.5C5227.27 471.411 5264.2 401.849 5294.15 357.957C5322.69 316.079 5226.61 230.353 5208.37 242.611C5185.17 258.214 5185.74 257.368 5151.03 291.99C5158.91 273.814 5182.71 255.62 5165.9 240.914C5154.48 230.947 5106.03 260.772 5080.03 303.055C5069.41 320.318 5070.82 352.485 5071.9 365.374C5072.18 369.471 5072.53 373.747 5073.02 378.391C5038.98 412.466 4968.5 469.955 4918.81 509.535C4953.61 509.662 4973 510.812 4958.25 526.744C4937.57 549.075 4871.91 622.375 4786.78 697.77C4701.65 773.165 4656.66 818.155 4563.03 834.652C4469.39 851.146 4397.94 870.452 4427.12 793.836C4442.21 754.245 4457.98 723.264 4468.6 701.98C4427.61 701.608 4368.63 700.553 4303.49 697.719C4283.04 731.024 4254.33 778.371 4236.5 810.253C4206.4 864.064 4208.23 822.109 4203.67 750.057C4201.86 721.498 4185.48 702.144 4166.37 689.142C4136.06 686.57 4106.16 683.505 4077.77 679.835C3947.98 663.028 3888.22 961.571 4041.08 994.431C4321.49 1054.78 4578.78 973.731 4578.78 973.731C4578.78 973.731 4593.61 944.344 4595.94 897.282C4608 892.787 4619.4 888.245 4629.31 883.841C4676.21 868.92 4733.57 830.5 4765.33 802.967C4831.86 745.35 5053.18 486.091 5121.38 437.5Z" fill="url(#paint21_linear_2247_1863)"/>
<path d="M3618.62 223.637C3669.08 44.5741 3478.23 -89.0065 3343.6 72.7677C3159.66 293.8 3046.87 187.943 2940.54 117.787C2854.32 60.9109 2671.47 -4.25046 2521.32 233.112C2371.14 470.525 2586.06 752.487 2866.07 795.796C3174.74 843.537 3320.42 756.085 3428.14 581.027C3541.39 396.929 3594.24 310.17 3618.62 223.637Z" fill="#082947"/>
<path d="M3699.71 207.883L3620.15 169.219C3620.15 169.219 3560.67 219.74 3534.32 285.463C3507.98 351.223 3522.79 369.894 3522.79 369.894L3649.05 418.376C3649.05 418.376 3712.48 384.265 3727.94 315.813C3743.42 247.386 3699.71 207.883 3699.71 207.883Z" fill="#004761"/>
<path d="M4101.36 481.895C4139.22 439.812 4136.9 329.215 4112.62 272.653C4080.56 197.937 4042.09 81.5247 3817.96 122.484C3664.46 150.531 3497.91 385.38 3682.12 559.847C3805.32 676.536 4033.15 557.676 4101.36 481.895Z" fill="#082947"/>
<path d="M4186.22 836.938C4195.72 705.265 4164.86 683.339 3974.11 664.843C3917.58 659.341 3875.17 660.063 3821.43 659.75C3616.3 658.546 3516.81 804.388 3458.26 998.96C3333.41 1413.91 3335.23 1819.41 3335.23 1819.41C3335.23 1819.41 3581.86 1725.45 3944.64 1828.13C4234.68 1910.21 4303.19 1696.46 4303.19 1696.46C4303.19 1696.46 4239.8 1573.74 4207.73 1409.76C4291.84 1388.72 4326.88 1359.14 4337.81 1293.84C4354.96 1191.49 4167.11 1101.98 4186.22 836.938Z" fill="#127FB5"/>
<path d="M3889.92 1767.92C3727.57 1716.85 3634.54 1760.63 3631.81 1609.22C3629.07 1457.82 3638.19 1187.85 3676.5 1202.44C3714.8 1217.04 3918.19 1244.4 4007.58 1245.31C4096.96 1246.22 4128.88 1253.52 4146.56 1217.95C4164.24 1182.38 4165.36 1169.61 4191.98 1161.4C4212.5 1155.08 4235.39 1141.06 4255.86 1117.48C4222.64 1062.49 4191.03 994.308 4185.72 901.65C4159.86 955.006 4133.25 950.475 4130.4 906.024C4127.37 858.597 4122.49 831.235 4107.88 767.391C4093.27 703.576 4173.01 728.665 4186.89 778.299C4180.34 697.895 4132.08 680.161 3974.11 664.839C3917.58 659.337 3875.17 660.059 3821.43 659.746C3616.3 658.542 3516.81 804.384 3458.26 998.956C3333.41 1413.91 3335.23 1819.41 3335.23 1819.41C3335.23 1819.41 3581.86 1725.45 3944.64 1828.12C4234.67 1910.21 4303.19 1696.46 4303.19 1696.46C4303.19 1696.46 4300.19 1690.63 4295.16 1679.84C4196.35 1866.38 4046.54 1817.2 3889.92 1767.92ZM4086.32 1387.29C3954.98 1387.29 3782.42 1380.33 3747.56 1341.58C3724.13 1315.53 3733.81 1272.93 3733.81 1272.93C3733.81 1272.93 3705.05 1341.43 3745.21 1375.84C3799.58 1422.43 4101.73 1426.69 4211.22 1426.81C4210.02 1421.17 4208.86 1415.5 4207.73 1409.76C4267.53 1394.8 4302.43 1375.46 4321.6 1342.09C4260.91 1392.35 4217.51 1387.29 4086.32 1387.29Z" fill="url(#paint22_linear_2247_1863)"/>
<path d="M3913.53 644.946C3831.86 643.093 3742.76 597.004 3731.26 653.176C3719.72 709.367 3763.9 924.92 3888.09 994.167C4012.31 1063.36 4117.09 1017.11 4114.13 947.572C4111.16 878.076 4088.37 803.145 4078.31 748.472C4068.23 693.792 4093.64 641.59 4036.2 639.003C3978.72 636.38 3958.95 646.015 3913.53 644.946Z" fill="#082947"/>
<path d="M3974.11 664.84C3917.58 659.338 3875.13 662.038 3821.44 659.747C3805.36 659.083 3790.48 658.641 3776.46 658.543C3784.86 739.939 3819.92 996.342 4002.86 983.328C4141.74 973.467 4050.09 922.939 4038.12 672.136C4019.14 669.513 3997.9 667.149 3974.11 664.84Z" fill="#F2A874"/>
<path d="M3828.95 728.043C3815.8 613.565 3862.32 502.928 3888.47 397.84C3888.05 394.108 4051.81 381.766 4081.05 299.801C4081.05 299.801 4104.72 398.446 4101.52 483.202C4098.5 563.186 4080.79 608.64 3999.28 581.227C4001.7 615.017 3999.07 630.42 4007.09 681.134C4017.72 748.484 4004.04 785.572 3975.28 800.351C3946.49 815.101 3843.37 853.714 3828.95 728.043Z" fill="#F2A874"/>
<path d="M3910.44 422.983C3912.38 439.116 3914.9 460.998 3909.23 495.634C3903.54 530.307 3900.77 541.621 3900.77 541.621C3900.77 541.621 3969.13 595.516 4027.25 594.469C4085.4 593.4 4112.63 554.886 4114.07 515.299C4115.83 466.718 4115.29 453.435 4100.34 397.559C4100.34 397.559 4052.47 436.748 3910.44 422.983Z" fill="#004761"/>
<path d="M4032.27 458.468C4063.79 454.736 4090.45 446.79 4110.36 439.166C4110.15 437.94 4109.87 436.637 4109.61 435.375C4072.92 449.534 4012.37 464.94 3941.2 451.956C3940.14 451.807 3939.15 452.449 3938.98 453.51C3938.78 454.543 3939.47 455.543 3940.51 455.732C3973.83 461.807 4004.85 461.734 4032.27 458.468ZM4070.09 491.795C4087.73 489.701 4103.01 486.688 4114.77 483.922C4114.76 482.591 4114.73 481.307 4114.71 479.997C4078.63 488.603 4007.35 499.905 3938.6 477.738C3937.61 477.41 3936.52 477.968 3936.19 478.986C3935.87 479.989 3936.43 481.073 3937.43 481.401C3984.4 496.52 4032.54 496.272 4070.09 491.795ZM3934.29 507.001C3993.22 538.445 4074.18 537.318 4111.13 534.768C4111.46 533.466 4111.82 532.181 4112.1 530.85C4076.21 533.444 3994.9 535.005 3936.11 503.601C3935.16 503.123 3934 503.459 3933.51 504.385C3933 505.327 3933.37 506.49 3934.29 507.001ZM3931.1 532.455C3966.34 563.899 4028.18 577.901 4071.88 584.078C4073.77 583.107 4075.53 582.038 4077.29 580.969C4033.92 575.242 3969.53 561.608 3933.64 529.58C3932.84 528.876 3931.62 528.967 3930.94 529.744C3930.21 530.536 3930.3 531.744 3931.1 532.455Z" fill="#F5F5F5"/>
<path d="M3907.43 545.686C3820.3 521.502 3814.87 486.501 3821.98 452.284C3824.66 439.402 3831.72 429.267 3842.42 422.97C3860.31 412.481 3888.03 412.481 3922.53 423.207L3917.98 437.858C3888.19 428.596 3864.06 428.034 3850.2 436.199C3843.13 440.354 3838.82 446.636 3837.01 455.41C3831.56 481.626 3832.81 509.058 3911.54 530.918L3907.43 545.686Z" fill="#004761"/>
<path d="M3810.28 442.873C3801.36 463.088 3818.29 490.209 3848.18 503.452C3878.08 516.685 3887.57 504.536 3896.54 484.379C3905.5 464.165 3910.58 443.585 3880.67 430.331C3850.81 417.073 3819.28 422.724 3810.28 442.873Z" fill="#F2A874"/>
<path d="M4241.01 334.527L4907.94 286.359L4908.12 457.057L4241.09 410.429L4241.01 334.527Z" fill="#004761"/>
<path d="M4241.01 334.527L4907.94 286.359L4908.12 457.057L4241.09 410.429L4241.01 334.527Z" fill="url(#paint23_linear_2247_1863)"/>
<path d="M5417.44 215.513C5425.45 214.944 5432 221.03 5432.02 229.052L5432.35 513.13C5432.36 521.153 5425.81 527.267 5417.8 526.713L4895.44 490.201C4887.43 489.646 4880.88 482.62 4880.88 474.597L4880.64 268.884C4880.64 260.847 4887.16 253.805 4895.17 253.236L5417.44 215.513Z" fill="#004761"/>
<path d="M5406.04 544.3C5406.05 550.984 5411.51 556.427 5418.22 556.427L5446.54 556.383C5453.23 556.383 5458.73 550.911 5458.73 544.242L5458.32 197.884C5458.33 191.23 5452.8 185.758 5446.12 185.758L5417.8 185.802C5411.08 185.802 5405.64 191.289 5405.66 197.943L5406.04 544.3Z" fill="#082947"/>
<path d="M4224.4 419.405C4224.4 426.06 4229.89 431.532 4236.56 431.532L4264.92 431.488C4271.57 431.488 4277.03 426.001 4277.03 419.332L4276.92 325.532C4276.92 318.848 4271.45 313.376 4264.78 313.391L4236.42 313.42C4229.76 313.434 4224.28 318.921 4224.29 325.59L4224.4 419.405Z" fill="#082947"/>
<path d="M4224.36 391.248L4224.4 419.409C4224.4 426.063 4229.89 431.535 4236.56 431.535L4264.92 431.492C4271.57 431.492 4277.03 426.005 4277.03 419.336L4277.02 412.937L4880.84 455.147L4880.87 474.599C4880.87 482.622 4887.43 489.648 4895.44 490.203L5406.02 525.901L5406.04 544.299C5406.05 550.983 5411.51 556.426 5418.22 556.426L5446.54 556.382C5453.22 556.382 5458.72 550.91 5458.72 544.241L5458.6 440.35C5458.61 443.013 5453.09 445.224 5446.41 445.224L5418.09 445.253C5411.4 445.267 5405.92 443.071 5405.94 440.423L5405.91 433.042L4895.35 419.121C4887.36 418.905 4880.8 416.1 4880.8 412.893L4880.79 405.111L4276.99 388.621V391.186C4277.01 393.849 4271.53 396.06 4264.88 396.06L4236.52 396.089C4229.85 396.107 4224.38 393.911 4224.36 391.248Z" fill="url(#paint24_linear_2247_1863)"/>
<path d="M4424.48 403.395C4432.85 354.464 4466.68 308.726 4480.99 313.713C4508.28 323.268 4474.5 363.651 4490.85 381.998C4506.26 399.305 4442.79 469.249 4442.79 469.249C4442.79 469.249 4420.15 428.739 4424.48 403.395Z" fill="#F2A874"/>
<path d="M4318.88 984.597C4359.13 906.324 4467.82 583.239 4512.98 512.725C4623.88 504.703 4632.21 426.393 4643.64 374.489C4654.5 324.997 4533.38 281.273 4521.03 299.452C4504.74 323.443 4505.64 321.32 4484.06 371.735C4467.64 410.02 4390.1 370.323 4446.08 475.911C4415.19 548.412 4317.08 715.568 4317.08 715.568L4142.65 1023.92C4142.65 1023.92 4104.65 1105.6 4162.57 1130.4C4209.92 1150.7 4288.71 1043.35 4318.88 984.597Z" fill="#F2A874"/>
<path d="M4008.65 1154.08C4008.65 1154.08 4141.71 1144.21 4192.93 1128.46C4229.67 1117.19 4253.78 1056.46 4242.08 1025.9C4230.43 995.294 4112.57 962.12 4009.37 967.348C3930.26 971.372 3994.77 1147.28 4008.65 1154.08Z" fill="#F2A874"/>
<path d="M3575.39 1122.76C3837.82 1238.52 4106.18 1211.14 4106.18 1211.14C4106.18 1211.14 4152.11 1153.65 4146 1057.87C4140.34 970.495 4110.04 934.588 4110.04 934.588C4110.04 934.588 3856.67 884.768 3674.91 822.062C3551.18 779.374 3432.32 1059.68 3575.39 1122.76Z" fill="#004761"/>
<path d="M4643.63 374.49C4654.5 324.997 4533.38 281.273 4521.03 299.452C4514.16 309.576 4510.33 315.078 4506.59 321.842C4506.93 321.349 4507.4 320.579 4508.14 319.127C4516.7 302.247 4539.24 312.984 4580.05 327.471C4620.87 341.958 4624.44 370.644 4602.55 426.587C4580.66 482.529 4498.57 469.147 4483.98 489.818C4469.39 510.489 4329.54 802.962 4291.23 906.937C4252.92 1010.91 4211.58 1071.11 4178.75 1074.76C4145.91 1078.4 3911.81 1085.7 3715.42 1039.49C3599.09 1012.12 3500.17 928.826 3573.27 854.77C3503.85 925.889 3474.53 1078.29 3575.39 1122.76C3837.82 1238.52 4106.18 1211.15 4106.18 1211.15C4106.18 1211.15 4126.64 1185.36 4138.43 1139.74C4151.99 1137.65 4164.84 1135.35 4175.92 1132.87C4223.58 1131.93 4291.39 1038.12 4318.88 984.597C4359.13 906.324 4467.82 583.239 4512.98 512.725C4623.88 504.699 4632.21 426.393 4643.63 374.49Z" fill="url(#paint25_linear_2247_1863)"/>
<path d="M2992.14 5868.95C2989.62 5870.59 2986.36 5871.04 2983.32 5869.95C2648.1 5747.46 2417.64 5467.26 2366.88 5120.46C2366.09 5115.04 2369.83 5110 2375.22 5109.2C2380.67 5108.41 2385.69 5112.16 2386.49 5117.58C2436.2 5457.06 2661.87 5731.35 2990.13 5851.3C2995.28 5853.18 2997.93 5858.89 2996.05 5864.03C2995.27 5866.12 2993.87 5867.81 2992.14 5868.95Z" fill="#35C2C1"/>
<path d="M2381.89 5149.6C2381.93 5150.1 2332.71 5106.69 2322.83 5051.34C2310.8 4985.71 2358.23 4929.15 2358.07 4929.91C2358.07 4930.39 2406.63 4969.5 2412.47 5014.8C2422.27 5091.27 2382.22 5148.77 2381.89 5149.6Z" fill="#35C2C1"/>
<path d="M2426.09 5311.86C2425.6 5312.2 2413.36 5243.32 2435.93 5197.64C2462.17 5144.03 2524.56 5135.99 2524.24 5135.57C2523.8 5136.06 2541.81 5193.69 2522.94 5232.07C2490.84 5298.01 2426.65 5312.57 2426.09 5311.86Z" fill="#35C2C1"/>
<path d="M2515.46 5321.93C2515.39 5321.94 2514.13 5296.7 2523.99 5280.51C2535.6 5261.43 2559.89 5258.97 2559.85 5258.9C2559.77 5258.93 2565.87 5282.05 2556.83 5296.24C2541.54 5320.32 2515.51 5322.06 2515.46 5321.93Z" fill="#0B3D59"/>
<path d="M2421.13 5146.67C2421.06 5146.69 2425.01 5120.03 2437.82 5105.15C2452.86 5087.63 2476.77 5090.27 2476.73 5090.18C2476.62 5090.25 2477.76 5115.87 2466.17 5128.73C2446.6 5150.63 2421.15 5146.85 2421.13 5146.67Z" fill="#0B3D59"/>
<path d="M2534.7 5505.93C2534.31 5506.29 2506.79 5443.84 2519.15 5396.14C2533.35 5340.16 2593.76 5319.27 2593.35 5318.91C2593.02 5319.45 2623.75 5369.65 2613.44 5409.92C2596.11 5479 2535.43 5506.44 2534.7 5505.93Z" fill="#35C2C1"/>
<path d="M2406.04 5252.04C2405.55 5252.15 2376.9 5190.88 2339.73 5158.93C2295.21 5121.04 2236.59 5141.46 2236.45 5142.05C2235.7 5141.97 2244.53 5223.78 2283.64 5249.41C2348.21 5291.77 2406.12 5251.03 2406.04 5252.04Z" fill="#35C2C1"/>
<path d="M2347.67 5327.49C2347.61 5327.54 2330.74 5305.33 2313.01 5297.75C2291.9 5288.77 2272.32 5305.21 2272.34 5305.27C2272.23 5305.31 2284.1 5333.91 2300.94 5339.27C2329 5348.24 2347.62 5327.35 2347.67 5327.49Z" fill="#0B3D59"/>
<path d="M2489.55 5460.88C2489.09 5461.09 2446.55 5408.82 2402.23 5386.53C2349.18 5360.19 2295.41 5391.99 2295.36 5392.56C2294.58 5392.62 2321.97 5468.05 2366.83 5484.17C2440.94 5510.79 2489.44 5459.96 2489.55 5460.88Z" fill="#35C2C1"/>
<path d="M2643.16 6215.55C2542.78 6123.38 2467.8 6035.25 2494.82 5996.17C2535.15 5937.87 2619.44 5999.04 2653.7 6027.93C2592.55 5972.2 2369.38 5756.17 2472.42 5658.73C2591.23 5546.35 2724.71 5732.76 2724.71 5732.76C2724.71 5732.76 2673.34 5658.46 2639.87 5560.28C2606.4 5462.11 2675.98 5303.36 2804.66 5362.09C2898.81 5405.1 2941.58 5528.1 2957.79 5591.04C2936.31 5481.81 2893.63 5174.14 3089.06 5154.52C3326.96 5130.62 3363.26 5574.26 3363.26 5574.26C3363.26 5574.26 3388.76 5498.09 3434.08 5459.99C3479.4 5421.9 3591.41 5404.37 3647.13 5541.97C3702.83 5679.6 3616.73 5862.52 3616.73 5862.52C3616.73 5862.52 3678.67 5780.52 3759.7 5763.95C3840.7 5747.41 3925.89 5855.96 3888.27 6007.4C3869.48 6083.05 3829.31 6158.78 3793.86 6215.56H2643.16V6215.55Z" fill="#35C2C1"/>
<path d="M2806.39 6215.55C2794.65 6200.74 2788.57 6187.12 2790.32 6174.61C2800 6105.94 2855.91 6120.77 2855.91 6120.77C2855.91 6120.77 2722.67 6025.23 2766.32 5965.86C2809.9 5906.51 2914.1 5980.04 2914.1 5980.04C2914.1 5980.04 2806.53 5863.98 2898.97 5814.43C2991.43 5764.87 3090.81 5900.82 3090.81 5900.82C3090.81 5900.82 3019.82 5739.5 3158.91 5731.61C3297.96 5723.71 3288.75 5864.71 3288.75 5864.71C3288.75 5864.71 3377.56 5761.83 3461.69 5866.61C3545.83 5971.39 3450.1 6078.85 3450.1 6078.85C3450.1 6078.85 3589.78 6023.28 3633.14 6122.83C3645.8 6151.9 3643.2 6184.26 3633.25 6215.55L2806.39 6215.55Z" fill="#CECECE"/>
<path d="M2905.02 6055.22C2901.35 6060.01 2902.28 6066.87 2907.06 6070.52C2948.94 6102.49 3007.16 6151.84 3062.95 6215.55H3091.77C3031.11 6143.43 2966.15 6088.09 2920.35 6053.15C2915.54 6049.49 2908.66 6050.42 2905.02 6055.22ZM3184.05 5848.69C3181.57 5829.09 3180.33 5818.11 3180.3 5818.07C3179.66 5812.06 3174.25 5807.75 3168.25 5808.43C3162.19 5809.1 3157.94 5814.51 3158.59 5820.5C3158.59 5820.5 3159.85 5831.61 3162.37 5851.42C3163.12 5857.41 3168.59 5861.66 3174.57 5860.89C3175.09 5860.82 3175.59 5860.74 3176.1 5860.6C3181.28 5859.19 3184.76 5854.14 3184.05 5848.69ZM2995 5950.49C3035.75 6000.6 3099.05 6089.31 3157.03 6215.55H3181C3120.92 6082.3 3054.42 5988.91 3011.97 5936.71C3008.15 5932.02 3001.28 5931.31 2996.59 5935.11C2991.91 5938.92 2991.22 5945.81 2995 5950.49ZM2843.73 6026.18C2843.81 6026.22 2851.29 6030.79 2863.93 6039.36C2866.67 6041.22 2869.99 6041.66 2872.95 6040.87C2875.37 6040.2 2877.56 6038.71 2879.12 6036.47C2882.5 6031.45 2881.22 6024.66 2876.21 6021.28C2863.03 6012.35 2855.4 6007.67 2855.08 6007.48C2849.91 6004.36 2843.22 6006.01 2840.03 6011.18C2836.97 6016.34 2838.59 6023.05 2843.73 6026.18ZM2854.57 6191.91C2851.85 6197.31 2854.02 6203.88 2859.44 6206.57C2859.51 6206.62 2865.63 6209.67 2876.16 6215.56H2900.46C2902.68 6210.52 2900.85 6204.52 2895.96 6201.71C2879.34 6192.1 2869.6 6187.21 2869.22 6187.01C2863.8 6184.33 2857.24 6186.51 2854.57 6191.91ZM2978.4 5913.95C2982.83 5909.87 2983.12 5902.95 2979 5898.52C2968.91 5887.58 2963.07 5882.02 2962.84 5881.79C2958.43 5877.65 2951.54 5877.82 2947.38 5882.21C2943.26 5886.58 2943.39 5893.5 2947.8 5897.66C2947.85 5897.7 2953.42 5903.02 2962.96 5913.34C2965.81 5916.45 2970.06 5917.49 2973.84 5916.46C2975.47 5916.03 2977.05 5915.17 2978.4 5913.95ZM3462.83 6211.81C3461.52 6213.03 3460.15 6214.31 3458.82 6215.55H3480.22C3479.75 6214.46 3479.13 6213.42 3478.26 6212.48C3474.21 6208.02 3467.29 6207.73 3462.83 6211.81ZM3510.42 6185.49C3513.19 6189.11 3517.8 6190.52 3521.92 6189.38C3523.28 6189.02 3524.58 6188.4 3525.71 6187.5C3541.07 6175.71 3551.07 6169.03 3551.15 6168.95C3556.17 6165.61 3557.51 6158.82 3554.17 6153.8C3550.8 6148.79 3544.04 6147.42 3538.98 6150.78C3538.6 6151.07 3528.29 6157.95 3512.42 6170.15C3507.63 6173.84 3506.73 6180.7 3510.42 6185.49ZM3170.84 5915C3180.64 5985.21 3197.63 6096.08 3221.47 6215.56H3243.77C3219.58 6095.01 3202.39 5982.73 3192.49 5911.98C3191.66 5906.02 3186.12 5901.83 3180.15 5902.67C3174.16 5903.49 3170.01 5909.03 3170.84 5915ZM3357.89 5945.69C3355.09 5951.03 3357.18 5957.63 3362.52 5960.42C3365.07 5961.75 3367.89 5961.97 3370.43 5961.26C3373.28 5960.49 3375.8 5958.58 3377.29 5955.77C3386.2 5938.56 3392.44 5929.03 3392.49 5928.93C3395.79 5923.88 3394.36 5917.12 3389.33 5913.79C3384.26 5910.51 3377.5 5911.93 3374.21 5916.96C3373.93 5917.38 3367.39 5927.39 3357.89 5945.69ZM3330.36 6006.55C3309.13 6060.62 3288.78 6132.24 3283.65 6215.55H3305.51C3310.62 6135.46 3330.26 6066.6 3350.68 6014.53C3352.91 6008.91 3350.12 6002.57 3344.52 6000.36C3338.87 5998.17 3332.56 6000.94 3330.36 6006.55Z" fill="url(#paint26_linear_2247_1863)"/>
<defs>
<linearGradient id="paint0_linear_2247_1863" x1="1369.76" y1="3931.34" x2="1369.76" y2="6310.01" gradientUnits="userSpaceOnUse">
<stop stop-color="#0F1E2D"/>
<stop offset="1" stop-color="#0B3D59"/>
</linearGradient>
<linearGradient id="paint1_linear_2247_1863" x1="1352.32" y1="3917.84" x2="1352.32" y2="6342.78" gradientUnits="userSpaceOnUse">
<stop stop-color="#0F1E2D"/>
<stop offset="1" stop-color="#0B3D59"/>
</linearGradient>
<linearGradient id="paint2_linear_2247_1863" x1="1369.76" y1="3945.93" x2="1369.76" y2="6216.31" gradientUnits="userSpaceOnUse">
<stop stop-color="white"/>
<stop offset="0.9879" stop-color="#CCCCCC"/>
</linearGradient>
<linearGradient id="paint3_linear_2247_1863" x1="251.879" y1="6376.69" x2="1069.09" y2="3655.08" gradientUnits="userSpaceOnUse">
<stop stop-color="white"/>
<stop offset="0.9879" stop-color="#CCCCCC"/>
</linearGradient>
<linearGradient id="paint4_linear_2247_1863" x1="3033.49" y1="3831.41" x2="1019.66" y2="2806.26" gradientUnits="userSpaceOnUse">
<stop stop-color="white"/>
<stop offset="0.9879" stop-color="#CCCCCC"/>
</linearGradient>
<linearGradient id="paint5_linear_2247_1863" x1="1128.78" y1="2817.4" x2="1128.78" y2="4175.61" gradientUnits="userSpaceOnUse">
<stop stop-color="white"/>
<stop offset="0.9879" stop-color="#CCCCCC"/>
</linearGradient>
<linearGradient id="paint6_linear_2247_1863" x1="1071.15" y1="3531.55" x2="776.412" y2="4504.18" gradientUnits="userSpaceOnUse">
<stop stop-color="white"/>
<stop offset="0.9879" stop-color="#AEAEAE"/>
</linearGradient>
<linearGradient id="paint7_linear_2247_1863" x1="1325.28" y1="3765.97" x2="1325.28" y2="4258.72" gradientUnits="userSpaceOnUse">
<stop stop-color="white"/>
<stop offset="1" stop-color="#AAAAAA"/>
</linearGradient>
<linearGradient id="paint8_linear_2247_1863" x1="1152.3" y1="2861.94" x2="257.263" y2="3504.04" gradientUnits="userSpaceOnUse">
<stop stop-color="white"/>
<stop offset="0.9879" stop-color="#CCCCCC"/>
</linearGradient>
<linearGradient id="paint9_linear_2247_1863" x1="1074.21" y1="4117.73" x2="225.377" y2="3529.15" gradientUnits="userSpaceOnUse">
<stop stop-color="white"/>
<stop offset="0.9879" stop-color="#CCCCCC"/>
</linearGradient>
<linearGradient id="paint10_linear_2247_1863" x1="3831.28" y1="5934.48" x2="3932.42" y2="4139.85" gradientUnits="userSpaceOnUse">
<stop stop-color="white"/>
<stop offset="0.9879" stop-color="#AEAEAE"/>
</linearGradient>
<linearGradient id="paint11_linear_2247_1863" x1="2306.79" y1="4129.45" x2="3638.6" y2="4134.12" gradientUnits="userSpaceOnUse">
<stop stop-color="white"/>
<stop offset="0.9879" stop-color="#AEAEAE"/>
</linearGradient>
<linearGradient id="paint12_linear_2247_1863" x1="6410.53" y1="4144.01" x2="5073.66" y2="4139.33" gradientUnits="userSpaceOnUse">
<stop stop-color="white"/>
<stop offset="0.9879" stop-color="#AEAEAE"/>
</linearGradient>
<linearGradient id="paint13_linear_2247_1863" x1="4064.69" y1="4135.71" x2="3227.85" y2="4132.78" gradientUnits="userSpaceOnUse">
<stop stop-color="white"/>
<stop offset="0.9879" stop-color="#AEAEAE"/>
</linearGradient>
<linearGradient id="paint14_linear_2247_1863" x1="4756.17" y1="4138.22" x2="6281.35" y2="4143.56" gradientUnits="userSpaceOnUse">
<stop stop-color="white"/>
<stop offset="0.9879" stop-color="#AEAEAE"/>
</linearGradient>
<linearGradient id="paint15_linear_2247_1863" x1="5764.29" y1="3276.27" x2="5746.89" y2="8248.06" gradientUnits="userSpaceOnUse">
<stop stop-color="white"/>
<stop offset="0.9879" stop-color="#AEAEAE"/>
</linearGradient>
<linearGradient id="paint16_linear_2247_1863" x1="2830.66" y1="4131.46" x2="7325.73" y2="4147.19" gradientUnits="userSpaceOnUse">
<stop stop-color="white"/>
<stop offset="0.9879" stop-color="#AEAEAE"/>
</linearGradient>
<linearGradient id="paint17_linear_2247_1863" x1="4049.81" y1="615.963" x2="4171.27" y2="3266.35" gradientUnits="userSpaceOnUse">
<stop stop-color="#0F1E2D"/>
<stop offset="1" stop-color="#0B3D59"/>
</linearGradient>
<linearGradient id="paint18_linear_2247_1863" x1="3993.79" y1="653.239" x2="4667.6" y2="3271.3" gradientUnits="userSpaceOnUse">
<stop stop-color="#0F1E2D"/>
<stop offset="1" stop-color="#0B3D59"/>
</linearGradient>
<linearGradient id="paint19_linear_2247_1863" x1="4461.02" y1="3642.54" x2="3775.14" y2="1037.69" gradientUnits="userSpaceOnUse">
<stop stop-color="white"/>
<stop offset="0.9879" stop-color="#CCCCCC"/>
</linearGradient>
<linearGradient id="paint20_linear_2247_1863" x1="3187.09" y1="3392.29" x2="3588.4" y2="758.258" gradientUnits="userSpaceOnUse">
<stop stop-color="white"/>
<stop offset="0.9879" stop-color="#CCCCCC"/>
</linearGradient>
<linearGradient id="paint21_linear_2247_1863" x1="5211.75" y1="410.194" x2="3428.98" y2="1237.13" gradientUnits="userSpaceOnUse">
<stop stop-color="white"/>
<stop offset="0.9879" stop-color="#CCCCCC"/>
</linearGradient>
<linearGradient id="paint22_linear_2247_1863" x1="3819.07" y1="608.135" x2="3833.66" y2="2125.81" gradientUnits="userSpaceOnUse">
<stop stop-color="white"/>
<stop offset="0.9879" stop-color="#CCCCCC"/>
</linearGradient>
<linearGradient id="paint23_linear_2247_1863" x1="5013.23" y1="371.581" x2="4461.47" y2="372.243" gradientUnits="userSpaceOnUse">
<stop stop-color="#9A9A9A"/>
<stop offset="0.1563" stop-color="#A2A2A2"/>
<stop offset="0.3982" stop-color="#B8B8B8"/>
<stop offset="0.6937" stop-color="#DBDBDB"/>
<stop offset="0.9476" stop-color="white"/>
</linearGradient>
<linearGradient id="paint24_linear_2247_1863" x1="5640.82" y1="753.209" x2="4328.72" y2="229.191" gradientUnits="userSpaceOnUse">
<stop stop-color="#9A9A9A"/>
<stop offset="0.1563" stop-color="#A2A2A2"/>
<stop offset="0.3982" stop-color="#B8B8B8"/>
<stop offset="0.6937" stop-color="#DBDBDB"/>
<stop offset="0.9476" stop-color="white"/>
</linearGradient>
<linearGradient id="paint25_linear_2247_1863" x1="3510.07" y1="754.607" x2="4644.32" y2="754.607" gradientUnits="userSpaceOnUse">
<stop stop-color="white"/>
<stop offset="0.9879" stop-color="#CCCCCC"/>
</linearGradient>
<linearGradient id="paint26_linear_2247_1863" x1="3197.25" y1="839.635" x2="3197.25" y2="8747.93" gradientUnits="userSpaceOnUse">
<stop stop-color="white"/>
<stop offset="1" stop-color="white"/>
</linearGradient>
</defs>
</svg>
