<svg width="197" height="197" viewBox="0 0 197 197" fill="none" xmlns="http://www.w3.org/2000/svg">
<path fill-rule="evenodd" clip-rule="evenodd" d="M53.6647 89.0942C49.9984 89.3002 48.2616 93.024 37.4241 93.2574L37.1792 98.0951L75.5959 97.9948L75.6417 93.4643C68.4911 93.5464 60.8181 92.4466 53.6647 89.0942Z" fill="white" stroke="#35C2C1" stroke-width="1.09827"/>
<path fill-rule="evenodd" clip-rule="evenodd" d="M53.6647 107.021C49.9984 106.815 48.2616 103.092 37.4241 102.858L37.1792 98.0205L75.5959 98.1208L75.6417 102.651C68.4911 102.569 60.8181 103.669 53.6647 107.021Z" fill="white" stroke="#35C2C1" stroke-width="1.09827"/>
<path fill-rule="evenodd" clip-rule="evenodd" d="M53.1051 89.3369C52.854 94.6261 52.4254 96.1491 48.8448 97.9898C48.6548 98.0435 48.6546 98.0719 48.7021 98.0918C48.6546 98.1116 48.6548 98.1401 48.8448 98.1937C52.4254 100.034 52.854 101.558 53.1051 106.847C53.534 101.503 55.7022 99.1212 57.3348 98.1937C57.5248 98.1401 57.525 98.1117 57.4775 98.0918C57.525 98.072 57.5248 98.0435 57.3348 97.9898C55.7022 97.0624 53.534 94.6802 53.1051 89.3369Z" fill="white" stroke="#35C2C1" stroke-width="1.09827"/>
<path fill-rule="evenodd" clip-rule="evenodd" d="M143.335 89.978C147.002 90.184 148.738 93.9078 159.576 94.1412L159.821 98.9789L121.404 98.8786L121.358 94.3481C128.509 94.4301 136.182 93.3304 143.335 89.978Z" fill="white" stroke="#35C2C1" stroke-width="1.09827"/>
<path fill-rule="evenodd" clip-rule="evenodd" d="M143.335 107.906C147.002 107.7 148.738 103.976 159.576 103.742L159.821 98.9048L121.404 99.0051L121.358 103.536C128.509 103.453 136.182 104.553 143.335 107.906Z" fill="white" stroke="#35C2C1" stroke-width="1.09827"/>
<path fill-rule="evenodd" clip-rule="evenodd" d="M143.894 90.2241C143.465 95.5674 141.297 97.9394 139.665 98.8669C139.498 98.9138 139.483 98.9486 139.512 98.9688L139.522 98.979C139.484 98.9991 139.487 99.0306 139.665 99.081C141.297 100.008 143.465 102.38 143.894 107.724C144.146 102.435 144.574 100.922 148.155 99.081C148.333 99.0307 148.336 98.9991 148.297 98.979C148.295 98.9776 148.3 98.9701 148.297 98.9688C148.336 98.9487 148.333 98.9172 148.155 98.8669C144.574 97.0261 144.145 95.5133 143.894 90.2241Z" fill="white" stroke="#35C2C1" stroke-width="1.09827"/>
<path fill-rule="evenodd" clip-rule="evenodd" d="M89.0942 143.335C89.3002 147.001 93.024 148.738 93.2574 159.576L98.0951 159.82L97.9948 121.404L93.4643 121.358C93.5464 128.508 92.4467 136.181 89.0942 143.335Z" fill="white" stroke="#35C2C1" stroke-width="1.09827"/>
<path fill-rule="evenodd" clip-rule="evenodd" d="M107.022 143.335C106.816 147.001 103.093 148.738 102.859 159.575L98.0215 159.82L98.1217 121.404L102.652 121.358C102.57 128.508 103.67 136.181 107.022 143.335Z" fill="white" stroke="#35C2C1" stroke-width="1.09827"/>
<path fill-rule="evenodd" clip-rule="evenodd" d="M98.051 139.503C98.0338 139.52 98.0167 139.571 97.9898 139.666C97.0624 141.298 94.6802 143.466 89.3369 143.895C94.6261 144.146 96.1491 144.575 97.9898 148.156C98.0435 148.346 98.0719 148.346 98.0918 148.298C98.1116 148.346 98.1401 148.346 98.1937 148.156C100.034 144.575 101.558 144.147 106.847 143.895C101.503 143.466 99.1212 141.298 98.1937 139.666C98.1401 139.476 98.1117 139.475 98.0918 139.523C98.0819 139.499 98.0682 139.485 98.051 139.503Z" fill="white" stroke="#35C2C1" stroke-width="1.09827"/>
<path fill-rule="evenodd" clip-rule="evenodd" d="M89.9775 53.6638C90.1835 49.9975 93.9074 48.2606 94.1407 37.4231L98.9784 37.1782L98.8781 75.5949L94.3476 75.6407C94.4297 68.4902 93.33 60.8172 89.9775 53.6638Z" fill="white" stroke="#35C2C1" stroke-width="1.09827"/>
<path fill-rule="evenodd" clip-rule="evenodd" d="M107.906 53.6637C107.7 49.9974 103.976 48.2606 103.742 37.4231L98.9048 37.1782L99.005 75.5949L103.536 75.6407C103.453 68.4901 104.553 60.8172 107.906 53.6637Z" fill="white" stroke="#35C2C1" stroke-width="1.09827"/>
<path fill-rule="evenodd" clip-rule="evenodd" d="M98.8669 48.8448C97.0261 52.4254 95.5133 52.854 90.2241 53.1051C95.5674 53.534 97.9394 55.7022 98.8669 57.3348C98.9206 57.5248 98.9592 57.525 98.979 57.4775C98.9988 57.525 99.0273 57.5248 99.081 57.3348C100.008 55.7022 102.38 53.534 107.724 53.1051C102.435 52.854 100.922 52.4254 99.081 48.8448C99.0273 48.6548 98.9989 48.6546 98.979 48.7021C98.9098 48.621 98.8969 48.8066 98.8669 48.8448Z" fill="white" stroke="#35C2C1" stroke-width="1.09827"/>
<path fill-rule="evenodd" clip-rule="evenodd" d="M60.1451 123.502C57.6982 126.24 59.1033 130.102 51.605 137.93L54.8526 141.524L81.9464 114.288L78.7752 111.052C73.7771 116.166 67.5739 120.815 60.1451 123.502Z" fill="white" stroke="#35C2C1" stroke-width="1.09827"/>
<path fill-rule="evenodd" clip-rule="evenodd" d="M72.8228 136.18C70.0847 138.627 66.2234 137.222 58.3952 144.72L54.8013 141.472L82.0369 114.378L85.2728 117.55C80.1585 122.548 75.5105 128.751 72.8228 136.18Z" fill="white" stroke="#35C2C1" stroke-width="1.09827"/>
<path fill-rule="evenodd" clip-rule="evenodd" d="M59.9238 124.071C63.4863 127.989 64.2626 129.37 63.0323 133.203C62.9359 133.376 62.9541 133.396 63.0018 133.377C62.9822 133.424 63.0027 133.442 63.175 133.346C67.0085 132.116 68.3792 132.892 72.2968 136.454C68.8218 132.373 68.6795 129.153 69.178 127.343C69.2673 127.183 69.2487 127.158 69.2086 127.17C69.2282 127.122 69.2077 127.104 69.0354 127.2C67.2252 127.699 64.0054 127.546 59.9238 124.071Z" fill="white" stroke="#35C2C1" stroke-width="1.09827"/>
<path fill-rule="evenodd" clip-rule="evenodd" d="M124.178 60.7212C126.916 58.2744 130.777 59.6795 138.605 52.1812L142.199 55.4287L114.963 82.5225L111.728 79.3513C116.842 74.3532 121.49 68.15 124.178 60.7212Z" fill="white" stroke="#35C2C1" stroke-width="1.09827"/>
<path fill-rule="evenodd" clip-rule="evenodd" d="M136.854 73.3985C139.301 70.6604 137.896 66.7991 145.395 58.9708L142.147 55.377L115.053 82.6126L118.224 85.8485C123.222 80.7342 129.426 76.0862 136.854 73.3985Z" fill="white" stroke="#35C2C1" stroke-width="1.09827"/>
<path fill-rule="evenodd" clip-rule="evenodd" d="M124.744 60.4951C128.219 64.5766 128.372 67.7965 127.873 69.6067C127.777 69.7791 127.795 69.7995 127.842 69.78C127.823 69.8276 127.843 69.8459 128.016 69.7494C129.826 69.2508 133.046 69.4033 137.127 72.8783C133.565 68.9607 132.789 67.5798 134.019 63.7464C134.115 63.574 134.097 63.5535 134.049 63.5731C134.06 63.5338 134.034 63.5153 133.876 63.6037C130.043 64.8338 128.662 64.0576 124.744 60.4951Z" fill="white" stroke="#35C2C1" stroke-width="1.09827"/>
<path fill-rule="evenodd" clip-rule="evenodd" d="M123.553 136.805C126.291 139.252 130.152 137.847 137.98 145.345L141.574 142.098L114.338 115.004L111.103 118.175C116.217 123.173 120.865 129.376 123.553 136.805Z" fill="white" stroke="#35C2C1" stroke-width="1.09827"/>
<path fill-rule="evenodd" clip-rule="evenodd" d="M136.229 124.128C138.676 126.866 137.271 130.727 144.769 138.555L141.522 142.149L114.428 114.914L117.599 111.678C122.597 116.792 128.8 121.44 136.229 124.128Z" fill="white" stroke="#35C2C1" stroke-width="1.09827"/>
<path fill-rule="evenodd" clip-rule="evenodd" d="M136.505 124.652C132.424 128.127 129.204 128.27 127.394 127.771C127.234 127.682 127.209 127.7 127.22 127.741C127.173 127.721 127.144 127.752 127.241 127.924C127.739 129.734 127.597 132.944 124.122 137.025C128.04 133.463 129.41 132.697 133.244 133.927C133.416 134.023 133.447 133.995 133.427 133.947C133.467 133.959 133.486 133.934 133.397 133.774C132.167 129.941 132.943 128.57 136.505 124.652Z" fill="white" stroke="#35C2C1" stroke-width="1.09827"/>
<path fill-rule="evenodd" clip-rule="evenodd" d="M60.7706 72.7735C58.3237 70.0354 59.7288 66.1741 52.2305 58.3458L55.4781 54.752L82.5718 81.9876L79.4006 85.2235C74.4026 80.1093 68.1993 75.4612 60.7706 72.7735Z" fill="white" stroke="#35C2C1" stroke-width="1.09827"/>
<path fill-rule="evenodd" clip-rule="evenodd" d="M73.4478 60.0957C70.7097 57.6489 66.8485 59.054 59.0202 51.5557L55.4263 54.8033L82.6619 81.897L85.8978 78.7258C80.7835 73.7278 76.1355 67.5245 73.4478 60.0957Z" fill="white" stroke="#35C2C1" stroke-width="1.09827"/>
<path fill-rule="evenodd" clip-rule="evenodd" d="M72.9281 59.8223C69.0104 63.3847 67.6296 64.1611 63.7961 62.9308C63.6238 62.8344 63.6033 62.8526 63.6229 62.9002C63.5752 62.8806 63.557 62.9011 63.6534 63.0734C64.8836 66.9069 64.1074 68.2878 60.5449 72.2054C64.6265 68.7304 67.8463 68.5779 69.6565 69.0765C69.8289 69.1729 69.8494 69.1547 69.8298 69.1071C69.8774 69.1266 69.8957 69.1061 69.7992 68.9338C69.3005 67.1237 69.4531 63.9039 72.9281 59.8223Z" fill="white" stroke="#35C2C1" stroke-width="1.09827"/>
<path fill-rule="evenodd" clip-rule="evenodd" d="M105.43 7.9545C105.43 11.7822 102.328 14.885 98.4998 14.885C94.6722 14.885 91.5693 11.7821 91.5693 7.9545C91.5693 4.12684 94.6722 1.02393 98.4998 1.02393C102.328 1.02393 105.43 4.12684 105.43 7.9545Z" fill="white" stroke="#35C2C1" stroke-width="0.457756"/>
<path fill-rule="evenodd" clip-rule="evenodd" d="M98.4886 1C95.8513 1 93.5735 2.46796 92.4023 4.63804C95.8177 5.06712 98.4657 7.97154 98.4657 11.5022C98.4657 12.6977 98.1531 13.8148 97.6191 14.797C97.9042 14.8328 98.1939 14.8428 98.4885 14.8428C98.7832 14.8428 99.073 14.8328 99.358 14.797C98.8241 13.8148 98.5114 12.6977 98.5114 11.5022C98.5114 7.96371 101.171 5.05701 104.598 4.63804C103.427 2.4677 101.126 1 98.4886 1Z" fill="white" stroke="#35C2C1" stroke-width="1.02764"/>
<path fill-rule="evenodd" clip-rule="evenodd" d="M98.4772 15.9173C98.4772 19.745 95.3743 22.8478 91.5467 22.8478C87.7191 22.8478 84.6162 19.7449 84.6162 15.9173C84.6162 12.0897 87.7191 8.98682 91.5467 8.98682C95.3743 8.98682 98.4772 12.0897 98.4772 15.9173Z" fill="white" stroke="#35C2C1" stroke-width="0.457756"/>
<path fill-rule="evenodd" clip-rule="evenodd" d="M112.384 15.9173C112.384 19.745 109.281 22.8478 105.453 22.8478C101.626 22.8478 98.5229 19.7449 98.5229 15.9173C98.5229 12.0897 101.626 8.98682 105.453 8.98682C109.281 8.98682 112.384 12.0897 112.384 15.9173Z" fill="white" stroke="#35C2C1" stroke-width="0.457756"/>
<path fill-rule="evenodd" clip-rule="evenodd" d="M105.43 189.047C105.43 185.219 102.328 182.116 98.4998 182.116C94.6722 182.116 91.5693 185.219 91.5693 189.047C91.5693 192.874 94.6722 195.977 98.4998 195.977C102.328 195.977 105.43 192.874 105.43 189.047Z" fill="white" stroke="#35C2C1" stroke-width="0.457756"/>
<path fill-rule="evenodd" clip-rule="evenodd" d="M98.4886 196C95.8513 196 93.5735 194.532 92.4023 192.362C95.8177 191.933 98.4657 189.028 98.4657 185.498C98.4657 184.302 98.1531 183.185 97.6191 182.203C97.9042 182.167 98.1939 182.157 98.4885 182.157C98.7832 182.157 99.073 182.167 99.358 182.203C98.8241 183.185 98.5114 184.302 98.5114 185.498C98.5114 189.036 101.171 191.943 104.598 192.362C103.427 194.532 101.126 196 98.4886 196Z" fill="white" stroke="#35C2C1" stroke-width="1.02764"/>
<path fill-rule="evenodd" clip-rule="evenodd" d="M98.4772 181.083C98.4772 177.256 95.3743 174.153 91.5467 174.153C87.7191 174.153 84.6162 177.256 84.6162 181.083C84.6162 184.911 87.7191 188.014 91.5467 188.014C95.3743 188.014 98.4772 184.911 98.4772 181.083Z" fill="white" stroke="#35C2C1" stroke-width="0.457756"/>
<path fill-rule="evenodd" clip-rule="evenodd" d="M112.384 181.083C112.384 177.256 109.281 174.153 105.453 174.153C101.626 174.153 98.5229 177.256 98.5229 181.083C98.5229 184.911 101.626 188.014 105.453 188.014C109.281 188.014 112.384 184.911 112.384 181.083Z" fill="white" stroke="#35C2C1" stroke-width="0.457756"/>
<path fill-rule="evenodd" clip-rule="evenodd" d="M7.95443 91.5698C11.7821 91.5698 14.8849 94.6727 14.8849 98.5004C14.8849 102.328 11.782 105.431 7.95443 105.431C4.12677 105.431 1.02393 102.328 1.02393 98.5004C1.02393 94.6727 4.12677 91.5698 7.95443 91.5698Z" fill="white" stroke="#35C2C1" stroke-width="0.457756"/>
<path fill-rule="evenodd" clip-rule="evenodd" d="M1 98.5105C1 101.148 2.46796 103.426 4.63804 104.597C5.06712 101.181 7.97154 98.5334 11.5022 98.5334C12.6977 98.5334 13.8147 98.8461 14.797 99.38C14.8328 99.095 14.8428 98.8052 14.8428 98.5105C14.8428 98.2158 14.8328 97.9261 14.797 97.641C13.8148 98.175 12.6977 98.4876 11.5022 98.4876C7.96371 98.4876 5.05701 95.8277 4.63804 92.4014C2.46764 93.5725 1 95.873 1 98.5105Z" fill="white" stroke="#35C2C1" stroke-width="1.02764"/>
<path fill-rule="evenodd" clip-rule="evenodd" d="M15.9168 98.5239C19.7445 98.5239 22.8474 101.627 22.8474 105.454C22.8474 109.282 19.7445 112.385 15.9168 112.385C12.0892 112.385 8.98633 109.282 8.98633 105.454C8.98633 101.627 12.0892 98.5239 15.9168 98.5239Z" fill="white" stroke="#35C2C1" stroke-width="0.457756"/>
<path fill-rule="evenodd" clip-rule="evenodd" d="M15.9168 84.6162C19.7445 84.6162 22.8474 87.7191 22.8474 91.5468C22.8474 95.3744 19.7445 98.4773 15.9168 98.4773C12.0892 98.4773 8.98633 95.3744 8.98633 91.5468C8.98633 87.7191 12.0892 84.6162 15.9168 84.6162Z" fill="white" stroke="#35C2C1" stroke-width="0.457756"/>
<path fill-rule="evenodd" clip-rule="evenodd" d="M189.046 91.5698C185.218 91.5698 182.115 94.6727 182.115 98.5004C182.115 102.328 185.218 105.431 189.046 105.431C192.873 105.431 195.976 102.328 195.976 98.5004C195.976 94.6727 192.873 91.5698 189.046 91.5698Z" fill="white" stroke="#35C2C1" stroke-width="0.457756"/>
<path fill-rule="evenodd" clip-rule="evenodd" d="M196 98.5105C196 101.148 194.532 103.426 192.362 104.597C191.933 101.181 189.028 98.5334 185.498 98.5334C184.302 98.5334 183.185 98.8461 182.203 99.38C182.167 99.095 182.157 98.8052 182.157 98.5105C182.157 98.2158 182.167 97.9261 182.203 97.641C183.185 98.175 184.302 98.4876 185.498 98.4876C189.036 98.4876 191.943 95.8277 192.362 92.4014C194.532 93.5725 196 95.873 196 98.5105Z" fill="white" stroke="#35C2C1" stroke-width="1.02764"/>
<path fill-rule="evenodd" clip-rule="evenodd" d="M181.082 98.5239C177.255 98.5239 174.152 101.627 174.152 105.454C174.152 109.282 177.255 112.385 181.082 112.385C184.91 112.385 188.013 109.282 188.013 105.454C188.013 101.627 184.91 98.5239 181.082 98.5239Z" fill="white" stroke="#35C2C1" stroke-width="0.457756"/>
<path fill-rule="evenodd" clip-rule="evenodd" d="M181.082 84.6162C177.255 84.6162 174.152 87.7191 174.152 91.5468C174.152 95.3744 177.255 98.4773 181.082 98.4773C184.91 98.4773 188.013 95.3744 188.013 91.5468C188.013 87.7191 184.91 84.6162 181.082 84.6162Z" fill="white" stroke="#35C2C1" stroke-width="0.457756"/>
<path fill-rule="evenodd" clip-rule="evenodd" d="M39.3746 29.5744C42.0811 32.2809 42.0811 36.6691 39.3746 39.3756C36.668 42.0822 32.2799 42.0822 29.5733 39.3756C26.8668 36.6691 26.8668 32.281 29.5733 29.5744C32.2799 26.8678 36.668 26.8678 39.3746 29.5744Z" fill="white" stroke="#35C2C1" stroke-width="0.457756"/>
<path fill-rule="evenodd" clip-rule="evenodd" d="M29.5488 29.5651C27.6839 31.43 27.1114 34.0786 27.8177 36.4412C30.5361 34.3296 34.4622 34.5109 36.9588 37.0074C37.8042 37.8528 38.373 38.8637 38.69 39.9359C38.9168 39.7596 39.1288 39.5618 39.3372 39.3534C39.5455 39.1451 39.7434 38.9331 39.9196 38.7063C38.8474 38.3893 37.8365 37.8205 36.9912 36.9751C34.4891 34.4731 34.3146 30.5368 36.4411 27.8178C34.0783 27.1111 31.4138 27.7001 29.5488 29.5651Z" fill="white" stroke="#35C2C1" stroke-width="1.02764"/>
<path fill-rule="evenodd" clip-rule="evenodd" d="M40.089 40.1207C42.7955 42.8272 42.7955 47.2154 40.089 49.922C37.3824 52.6285 32.9942 52.6285 30.2877 49.922C27.5812 47.2155 27.5812 42.8273 30.2877 40.1207C32.9943 37.4142 37.3825 37.4142 40.089 40.1207Z" fill="white" stroke="#35C2C1" stroke-width="0.457756"/>
<path fill-rule="evenodd" clip-rule="evenodd" d="M49.922 30.2868C52.6285 32.9933 52.6285 37.3815 49.922 40.088C47.2155 42.7946 42.8273 42.7946 40.1208 40.088C37.4142 37.3815 37.4142 32.9934 40.1208 30.2868C42.8273 27.5802 47.2155 27.5802 49.922 30.2868Z" fill="white" stroke="#35C2C1" stroke-width="0.457756"/>
<path fill-rule="evenodd" clip-rule="evenodd" d="M167.426 157.626C164.719 154.919 160.331 154.919 157.625 157.626C154.918 160.332 154.918 164.72 157.625 167.427C160.331 170.133 164.719 170.133 167.426 167.427C170.133 164.72 170.133 160.332 167.426 157.626Z" fill="white" stroke="#35C2C1" stroke-width="0.457756"/>
<path fill-rule="evenodd" clip-rule="evenodd" d="M167.435 167.452C165.57 169.317 162.921 169.889 160.559 169.183C162.67 166.465 162.489 162.538 159.992 160.042C159.147 159.196 158.136 158.628 157.064 158.311C157.24 158.084 157.438 157.872 157.646 157.663C157.855 157.455 158.067 157.257 158.294 157.081C158.611 158.153 159.179 159.164 160.025 160.009C162.527 162.512 166.463 162.686 169.182 160.56C169.889 162.922 169.3 165.587 167.435 167.452Z" fill="white" stroke="#35C2C1" stroke-width="1.02764"/>
<path fill-rule="evenodd" clip-rule="evenodd" d="M156.879 156.911C154.172 154.205 149.784 154.205 147.077 156.911C144.371 159.618 144.371 164.006 147.077 166.713C149.784 169.419 154.172 169.419 156.879 166.713C159.585 164.006 159.585 159.618 156.879 156.911Z" fill="white" stroke="#35C2C1" stroke-width="0.457756"/>
<path fill-rule="evenodd" clip-rule="evenodd" d="M166.713 147.077C164.006 144.371 159.618 144.371 156.911 147.077C154.205 149.784 154.205 154.172 156.911 156.879C159.618 159.585 164.006 159.585 166.713 156.879C169.419 154.172 169.419 149.784 166.713 147.077Z" fill="white" stroke="#35C2C1" stroke-width="0.457756"/>
<path fill-rule="evenodd" clip-rule="evenodd" d="M29.5734 157.626C32.2799 154.919 36.6681 154.919 39.3747 157.626C42.0812 160.332 42.0812 164.72 39.3747 167.427C36.6681 170.133 32.28 170.133 29.5734 167.427C26.8668 164.72 26.8668 160.332 29.5734 157.626Z" fill="white" stroke="#35C2C1" stroke-width="0.457756"/>
<path fill-rule="evenodd" clip-rule="evenodd" d="M29.5651 167.452C31.43 169.317 34.0786 169.889 36.4412 169.183C34.3296 166.465 34.5109 162.538 37.0074 160.042C37.8528 159.196 38.8637 158.628 39.9359 158.311C39.7596 158.084 39.5618 157.872 39.3534 157.663C39.145 157.455 38.9331 157.257 38.7063 157.081C38.3893 158.153 37.8205 159.164 36.9752 160.009C34.4731 162.512 30.5369 162.686 27.8178 160.56C27.1111 162.922 27.7 165.587 29.5651 167.452Z" fill="white" stroke="#35C2C1" stroke-width="1.02764"/>
<path fill-rule="evenodd" clip-rule="evenodd" d="M40.1207 156.911C42.8272 154.205 47.2155 154.205 49.922 156.911C52.6285 159.618 52.6285 164.006 49.922 166.713C47.2155 169.419 42.8273 169.419 40.1207 166.713C37.4142 164.006 37.4142 159.618 40.1207 156.911Z" fill="white" stroke="#35C2C1" stroke-width="0.457756"/>
<path fill-rule="evenodd" clip-rule="evenodd" d="M30.2878 147.077C32.9943 144.371 37.3824 144.371 40.089 147.077C42.7956 149.784 42.7955 154.172 40.089 156.879C37.3825 159.585 32.9943 159.585 30.2878 156.879C27.5812 154.172 27.5812 149.784 30.2878 147.077Z" fill="white" stroke="#35C2C1" stroke-width="0.457756"/>
<path fill-rule="evenodd" clip-rule="evenodd" d="M157.625 29.5744C154.918 32.2809 154.918 36.6691 157.625 39.3756C160.331 42.0822 164.719 42.0822 167.426 39.3756C170.132 36.6691 170.132 32.281 167.426 29.5744C164.719 26.8678 160.331 26.8678 157.625 29.5744Z" fill="white" stroke="#35C2C1" stroke-width="0.457756"/>
<path fill-rule="evenodd" clip-rule="evenodd" d="M167.451 29.5651C169.316 31.43 169.888 34.0786 169.182 36.4412C166.463 34.3296 162.537 34.5109 160.041 37.0074C159.195 37.8528 158.627 38.8637 158.31 39.9359C158.083 39.7596 157.871 39.5618 157.662 39.3534C157.454 39.1451 157.256 38.9331 157.08 38.7063C158.152 38.3893 159.163 37.8205 160.009 36.9751C162.511 34.4731 162.685 30.5368 160.559 27.8178C162.921 27.1111 165.586 27.7001 167.451 29.5651Z" fill="white" stroke="#35C2C1" stroke-width="1.02764"/>
<path fill-rule="evenodd" clip-rule="evenodd" d="M156.911 40.1207C154.205 42.8272 154.205 47.2154 156.911 49.922C159.618 52.6285 164.006 52.6285 166.713 49.922C169.419 47.2155 169.419 42.8273 166.713 40.1207C164.006 37.4142 159.618 37.4142 156.911 40.1207Z" fill="white" stroke="#35C2C1" stroke-width="0.457756"/>
<path fill-rule="evenodd" clip-rule="evenodd" d="M147.077 30.2868C144.371 32.9933 144.371 37.3815 147.077 40.088C149.784 42.7946 154.172 42.7946 156.879 40.088C159.585 37.3815 159.585 32.9934 156.879 30.2868C154.172 27.5802 149.784 27.5802 147.077 30.2868Z" fill="white" stroke="#35C2C1" stroke-width="0.457756"/>
<path fill-rule="evenodd" clip-rule="evenodd" d="M98.4888 19.0703C54.6436 19.0703 19.0703 54.6436 19.0703 98.4888C19.0703 142.334 54.6436 177.93 98.4888 177.93C142.334 177.93 177.93 142.334 177.93 98.4888C177.93 54.6436 142.334 19.0703 98.4888 19.0703ZM98.4888 37.6951C132.076 37.6951 159.351 64.9478 159.351 98.5346C159.351 132.121 132.076 159.397 98.4888 159.397C64.902 159.397 37.6493 132.121 37.6493 98.5346C37.6493 64.9478 64.902 37.6951 98.4888 37.6951Z" fill="white" stroke="#35C2C1" stroke-width="1.09827"/>
<path d="M164.157 98.4999C164.157 134.761 134.761 164.157 98.4998 164.157C62.2384 164.157 32.8428 134.761 32.8428 98.4999C32.8428 62.2385 62.2384 32.8428 98.4999 32.8428C134.761 32.8428 164.157 62.2385 164.157 98.4999Z" stroke="#35C2C1" stroke-width="0.132743"/>
<path fill-rule="evenodd" clip-rule="evenodd" d="M122.953 98.4998C122.958 112.005 112.014 122.957 98.5096 122.962C85.0047 122.967 74.0526 112.024 74.0474 98.5186V98.4998C74.0421 84.9949 84.9858 74.0428 98.4907 74.0376C111.996 74.0324 122.948 84.9761 122.953 98.4809V98.4998Z" fill="white" stroke="#35C2C1" stroke-width="0.350971"/>
<path fill-rule="evenodd" clip-rule="evenodd" d="M114.75 98.5C114.753 107.471 107.481 114.747 98.5063 114.75C89.5316 114.753 82.2535 107.484 82.25 98.5125V98.5C82.2465 89.5288 89.5191 82.2535 98.4937 82.25C107.468 82.2465 114.747 89.5163 114.75 98.4875V98.5Z" stroke="#35C2C1" stroke-width="0.350971"/>
</svg>
