<svg width="500" height="374" viewBox="0 0 500 374" fill="none" xmlns="http://www.w3.org/2000/svg">
<path d="M500 328.398H0V328.648H500V328.398Z" fill="#EBEBEB"/>
<path d="M445.26 339.852H394.359V340.102H445.26V339.852Z" fill="#EBEBEB"/>
<path d="M99.6689 336.888H52.4609V337.138H99.6689V336.888Z" fill="#EBEBEB"/>
<path d="M397.997 335.208H378.805V335.458H397.997V335.208Z" fill="#EBEBEB"/>
<path d="M331.223 341.838H317.141V342.088H331.223V341.838Z" fill="#EBEBEB"/>
<path d="M308.233 341.838H272.789V342.088H308.233V341.838Z" fill="#EBEBEB"/>
<path d="M252.205 337.616H195.219V337.866H252.205V337.616Z" fill="#EBEBEB"/>
<path d="M237.01 283.8H43.9111C40.7641 283.8 38.2031 281.239 38.2031 278.092V6.66015C38.2031 3.51315 40.7641 0.952148 43.9111 0.952148H237.01C240.156 0.952148 242.717 3.51315 242.717 6.66015V278.092C242.717 281.239 240.156 283.8 237.01 283.8ZM43.9111 1.20315C40.9011 1.20315 38.4531 3.65115 38.4531 6.66115V278.093C38.4531 281.103 40.9011 283.551 43.9111 283.551H237.01C240.019 283.551 242.467 281.103 242.467 278.093V6.66015C242.467 3.65115 240.019 1.20215 237.01 1.20215L43.9111 1.20315Z" fill="#EBEBEB"/>
<path d="M453.313 283.8H260.215C257.068 283.8 254.508 281.239 254.508 278.092V6.66015C254.508 3.51315 257.069 0.952148 260.215 0.952148H453.313C456.461 0.952148 459.021 3.51315 459.021 6.66015V278.092C459.022 281.239 456.461 283.8 453.313 283.8ZM260.215 1.20315C257.206 1.20315 254.758 3.65115 254.758 6.66115V278.093C254.758 281.103 257.206 283.551 260.215 283.551H453.313C456.323 283.551 458.771 281.103 458.771 278.093V6.66015C458.771 3.65115 456.323 1.20215 453.313 1.20215L260.215 1.20315Z" fill="#EBEBEB"/>
<path d="M329.141 241.417H359.125V154.009H329.141V241.417Z" fill="#E6E6E6"/>
<path d="M421.293 154.008H359.125V241.416H421.293V154.008Z" fill="#F5F5F5"/>
<path d="M403.3 219.794H421.297V207.918H403.3V219.794Z" fill="#F0F0F0"/>
<path d="M403.3 234.964H421.297V223.088H403.3V234.964Z" fill="#F0F0F0"/>
<path d="M327.819 154.009H358.664V149.578H327.819V154.009Z" fill="#E0E0E0"/>
<path d="M422.618 149.577H358.664V154.008H422.618V149.577Z" fill="#F0F0F0"/>
<path d="M306.562 328.399H348.25V247.578H306.562V328.399Z" fill="#E6E6E6"/>
<path d="M434.685 247.577H348.25V328.398H434.685V247.577Z" fill="#F5F5F5"/>
<path d="M355.271 283.151H385.141V256.833H355.271V283.151Z" fill="#F0F0F0"/>
<path d="M355.271 316.768H385.141V290.45H355.271V316.768Z" fill="#F0F0F0"/>
<path d="M304.716 247.578H347.602V241.417H304.716V247.578Z" fill="#E0E0E0"/>
<path d="M436.519 241.416H347.602V247.577H436.519V241.416Z" fill="#F0F0F0"/>
<path d="M259.948 25.2412H179.773V328.399H259.948V25.2412Z" fill="#EBEBEB"/>
<path d="M254.539 322.268L254.539 31.3711L185.187 31.3711L185.187 322.268H254.539Z" fill="#FAFAFA"/>
<path d="M177.37 25.2412H97.1953V328.399H177.37V25.2412Z" fill="#EBEBEB"/>
<path d="M177.368 327.207H179.773L179.773 26.4326H177.368L177.368 327.207Z" fill="#E0E0E0"/>
<path d="M171.961 322.269L171.961 31.3716L102.609 31.3716L102.609 322.269H171.961Z" fill="#FAFAFA"/>
<path d="M296.428 22.9701H60.7194C60.0614 22.9701 59.5234 22.4321 59.5234 21.7741V21.4421C59.5234 20.7841 60.0614 20.2461 60.7194 20.2461H296.428C297.086 20.2461 297.624 20.7841 297.624 21.4421V21.7741C297.624 22.4321 297.086 22.9701 296.428 22.9701Z" fill="#E0E0E0"/>
<path d="M254.539 37.1596V31.3706L185.187 31.3706V37.1596L254.539 37.1596Z" fill="#E0E0E0"/>
<path d="M254.539 89.6331V31.3711L185.187 31.3711V89.6331L254.539 89.6331Z" fill="#E0E0E0"/>
<path d="M171.961 158.737L171.961 31.3711L102.609 31.3711L102.609 158.737H171.961Z" fill="#E0E0E0"/>
<g opacity="0.5">
<path d="M269.514 13.8892H246.594V324.671H269.514V13.8892Z" fill="#F5F5F5"/>
<path d="M263.461 13.8892H252.641V324.671H263.461V13.8892Z" fill="#F0F0F0"/>
<path d="M281.811 13.8892H258.891V324.671H281.811V13.8892Z" fill="#F5F5F5"/>
<path d="M275.757 13.8892H264.938V324.671H275.757V13.8892Z" fill="#F0F0F0"/>
<path d="M293.272 13.8892H270.352V324.671H293.272V13.8892Z" fill="#F5F5F5"/>
</g>
<g opacity="0.5">
<path d="M131.675 13.8892H63.1797V324.671H131.675V13.8892Z" fill="#F5F5F5"/>
<path d="M113.592 13.8892H81.2578V324.671H113.592V13.8892Z" fill="#F0F0F0"/>
<path d="M168.417 13.8892H99.9219V324.671H168.417V13.8892Z" fill="#F5F5F5"/>
<path d="M150.334 13.8892H118V324.671H150.334V13.8892Z" fill="#F0F0F0"/>
<path d="M202.667 13.8892H134.172V324.671H202.667V13.8892Z" fill="#F5F5F5"/>
</g>
<path d="M336.053 115.303L423.977 115.303V26.4597L336.053 26.4597V115.303Z" fill="#FAFAFA"/>
<path d="M363.301 93.0008H396.716C399.579 93.0008 401.9 90.6798 401.9 87.8168V53.9438C401.9 51.0808 399.579 48.7598 396.716 48.7598H363.301C360.438 48.7598 358.117 51.0808 358.117 53.9438V87.8168C358.117 90.6798 360.438 93.0008 363.301 93.0008Z" fill="#F0F0F0"/>
<path d="M383.264 71.4131H406.618C408.619 71.4131 410.241 69.7911 410.241 67.7901V44.1171C410.241 42.1161 408.619 40.4941 406.618 40.4941H383.264C381.263 40.4941 379.641 42.1161 379.641 44.1171V67.7911C379.641 69.7911 381.263 71.4131 383.264 71.4131Z" fill="white"/>
<path d="M363.88 104.619H380.08C381.468 104.619 382.593 103.494 382.593 102.106V85.6849C382.593 84.2969 381.468 83.1719 380.08 83.1719H363.88C362.492 83.1719 361.367 84.2969 361.367 85.6849V102.106C361.367 103.494 362.492 104.619 363.88 104.619Z" fill="#F0F0F0"/>
<path d="M336.05 26.459H331.141V115.302H336.05V26.459Z" fill="#F0F0F0"/>
<path d="M249.998 373.561C357.08 373.561 443.887 368.492 443.887 362.238C443.887 355.985 357.08 350.915 249.998 350.915C142.916 350.915 56.1094 355.985 56.1094 362.238C56.1094 368.492 142.916 373.561 249.998 373.561Z" fill="#F5F5F5"/>
<path d="M383.771 61.133L382.746 61.069C382.993 57.075 381.65 53.302 378.965 50.446C376.285 47.596 372.614 46.027 368.626 46.027H350.539V45H368.626C372.899 45 376.837 46.684 379.712 49.742C382.594 52.807 384.036 56.852 383.771 61.133Z" fill="#076E94"/>
<path d="M382.303 68.1807L381.727 77.6826L382.751 77.7448L383.328 68.2429L382.303 68.1807Z" fill="#076E94"/>
<path d="M352.754 305.772H232.308C225.533 305.772 220.332 300.229 220.75 293.454L235.1 60.9122C235.518 54.1372 241.403 48.5942 248.179 48.5942H368.625C375.4 48.5942 380.601 54.1372 380.183 60.9122L365.833 293.454C365.414 300.229 359.529 305.772 352.754 305.772Z" fill="#076E94"/>
<path opacity="0.2" d="M280.766 101.561H254.487C250.6 101.561 247.617 98.3809 247.857 94.4949L249.206 72.6309C249.446 68.7449 252.822 65.5649 256.708 65.5649H282.987C286.874 65.5649 289.857 68.7449 289.617 72.6309L288.268 94.4949C288.029 98.3819 284.653 101.561 280.766 101.561Z" fill="black"/>
<path opacity="0.2" d="M288.402 285.288C290.583 285.288 292.461 283.519 292.596 281.338L295.377 236.268C295.512 234.086 293.852 232.318 291.671 232.318H224.527L221.258 285.288H288.402Z" fill="black"/>
<path d="M218.151 211.95H197.611C196.098 211.95 194.796 213.177 194.702 214.69L193.271 237.873C193.178 239.386 194.329 240.613 195.842 240.613H216.382C217.895 240.613 219.198 239.386 219.291 237.873L220.722 214.69C220.815 213.176 219.664 211.95 218.151 211.95Z" fill="#076E94"/>
<path opacity="0.4" d="M218.151 211.95H197.611C196.098 211.95 194.796 213.177 194.702 214.69L193.271 237.873C193.178 239.386 194.329 240.613 195.842 240.613H216.382C217.895 240.613 219.198 239.386 219.291 237.873L220.722 214.69C220.815 213.176 219.664 211.95 218.151 211.95Z" fill="white"/>
<path d="M368.375 53.7252C370.279 53.7252 372.021 54.4622 373.28 55.8022C374.543 57.1452 375.173 58.9372 375.056 60.8482L369.775 146.426C369.674 148.065 368.259 149.398 366.622 149.398H237.622C236.859 149.398 236.162 149.104 235.661 148.572C235.158 148.037 234.907 147.32 234.954 146.553L240.235 60.9752C240.482 56.9782 243.934 53.7262 247.93 53.7262L368.375 53.7252ZM368.375 52.6992H247.929C243.393 52.6992 239.49 56.3762 239.21 60.9112L233.929 146.489C233.795 148.662 235.448 150.424 237.621 150.424H366.621C368.794 150.424 370.665 148.662 370.799 146.489L376.08 60.9112C376.36 56.3762 372.91 52.6992 368.375 52.6992Z" fill="white"/>
<path d="M303.839 160.484H238.245C235.382 160.484 232.917 162.805 232.741 165.668L230.034 209.537C229.857 212.4 232.034 214.721 234.898 214.721H300.493C303.356 214.721 305.821 212.4 305.997 209.537L308.704 165.668C308.88 162.805 306.702 160.484 303.839 160.484Z" fill="white"/>
<path d="M284.174 224.118H218.58C215.717 224.118 213.252 226.439 213.076 229.302L210.369 273.171C210.192 276.034 212.37 278.355 215.234 278.355H280.828C283.691 278.355 286.156 276.034 286.332 273.171L289.039 229.302C289.215 226.439 287.037 224.118 284.174 224.118Z" fill="white"/>
<path opacity="0.2" d="M336.499 192.991C334.015 192.991 331.877 195.005 331.724 197.488L329.376 235.545C329.223 238.029 331.112 240.043 333.596 240.043H369.133L372.037 192.991H336.499Z" fill="black"/>
<path d="M385.543 184.665H327.911C325.395 184.665 323.23 186.704 323.075 189.22L320.696 227.763C320.541 230.279 322.454 232.318 324.97 232.318H382.602C385.118 232.318 387.283 230.279 387.438 227.763L389.817 189.22C389.973 186.704 388.059 184.665 385.543 184.665Z" fill="#076E94"/>
<path opacity="0.7" d="M385.543 184.665H327.911C325.395 184.665 323.23 186.704 323.075 189.22L320.696 227.763C320.541 230.279 322.454 232.318 324.97 232.318H382.602C385.118 232.318 387.283 230.279 387.438 227.763L389.817 189.22C389.973 186.704 388.059 184.665 385.543 184.665Z" fill="white"/>
<path d="M428.592 122.388H394.442C391.926 122.388 389.761 124.427 389.606 126.943L387.228 165.486C387.073 168.002 388.986 170.041 391.502 170.041H425.652C428.168 170.041 430.333 168.002 430.488 165.486L432.867 126.943C433.021 124.427 431.108 122.388 428.592 122.388Z" fill="#076E94"/>
<path opacity="0.7" d="M428.592 122.388H394.442C391.926 122.388 389.761 124.427 389.606 126.943L387.228 165.486C387.073 168.002 388.986 170.041 391.502 170.041H425.652C428.168 170.041 430.333 168.002 430.488 165.486L432.867 126.943C433.021 124.427 431.108 122.388 428.592 122.388Z" fill="white"/>
<path d="M397.546 241.321H383.335C382.288 241.321 381.387 242.17 381.322 243.217L380.332 259.257C380.267 260.304 381.064 261.153 382.111 261.153H396.322C397.369 261.153 398.27 260.304 398.335 259.257L399.325 243.217C399.389 242.17 398.593 241.321 397.546 241.321Z" fill="#076E94"/>
<path opacity="0.4" d="M397.546 241.321H383.335C382.288 241.321 381.387 242.17 381.322 243.217L380.332 259.257C380.267 260.304 381.064 261.153 382.111 261.153H396.322C397.369 261.153 398.27 260.304 398.335 259.257L399.325 243.217C399.389 242.17 398.593 241.321 397.546 241.321Z" fill="white"/>
<path d="M327.43 171.323C342.588 156.626 343.674 133.159 329.856 118.908C316.038 104.657 292.548 105.019 277.391 119.716C262.233 134.414 261.147 157.881 274.965 172.132C288.783 186.382 312.273 186.021 327.43 171.323Z" fill="#076E94"/>
<path d="M325.152 168.977C338.932 155.615 339.919 134.282 327.357 121.326C314.795 108.371 293.441 108.701 279.662 122.062C265.882 135.423 264.894 156.757 277.456 169.712C290.018 182.667 311.372 182.338 325.152 168.977Z" fill="white"/>
<path d="M315.394 136.474C314.971 143.331 309.069 148.889 302.212 148.889C295.355 148.889 290.14 143.33 290.563 136.474C290.986 129.617 296.888 124.059 303.745 124.059C310.601 124.059 315.817 129.617 315.394 136.474Z" fill="#076E94"/>
<path d="M301.895 153.976C292.218 153.976 283.549 157.749 278.789 163.328C283.201 170.592 291.18 175.367 300.575 175.367C309.97 175.367 318.538 170.592 323.847 163.328C319.784 157.749 311.572 153.976 301.895 153.976Z" fill="#076E94"/>
<path d="M275.954 96.748H249.675C245.789 96.748 242.805 93.568 243.045 89.682L244.394 67.818C244.634 63.932 248.01 60.752 251.896 60.752H278.175C282.062 60.752 285.045 63.932 284.805 67.818L283.456 89.682C283.217 93.569 279.841 96.748 275.954 96.748Z" fill="white"/>
<path d="M271.236 78.7501L257.997 69.9111L256.906 87.5901L271.236 78.7501Z" fill="#076E94"/>
<path d="M361.16 80.2229H298.44C296.789 80.2229 295.521 78.8719 295.623 77.2209L295.859 73.4019C295.961 71.7509 297.395 70.3999 299.046 70.3999H361.766C363.417 70.3999 364.685 71.7509 364.583 73.4019L364.347 77.2209C364.245 78.8719 362.811 80.2229 361.16 80.2229Z" fill="white"/>
<path d="M360.144 96.7258H297.424C295.773 96.7258 294.505 95.3748 294.607 93.7238L294.843 89.9048C294.945 88.2538 296.379 86.9028 298.03 86.9028H360.75C362.401 86.9028 363.669 88.2538 363.567 89.9048L363.331 93.7238C363.229 95.3748 361.795 96.7258 360.144 96.7258Z" fill="white"/>
<path d="M380.922 199.754H330.672C329.575 199.754 328.741 198.865 328.809 197.768L328.897 196.343C328.965 195.246 329.909 194.357 331.005 194.357H381.255C382.352 194.357 383.186 195.246 383.118 196.343L383.03 197.768C382.963 198.865 382.019 199.754 380.922 199.754Z" fill="white"/>
<path d="M380.218 211.19H329.968C328.871 211.19 328.037 210.301 328.105 209.204L328.193 207.779C328.261 206.682 329.205 205.793 330.301 205.793H380.551C381.648 205.793 382.482 206.682 382.414 207.779L382.326 209.204C382.258 210.301 381.314 211.19 380.218 211.19Z" fill="white"/>
<path d="M379.515 222.626H329.265C328.168 222.626 327.334 221.737 327.402 220.64L327.49 219.215C327.558 218.118 328.502 217.229 329.598 217.229H379.848C380.945 217.229 381.779 218.118 381.711 219.215L381.623 220.64C381.556 221.737 380.612 222.626 379.515 222.626Z" fill="white"/>
<path d="M352.069 291.898C351.905 294.559 349.614 296.717 346.953 296.717C344.292 296.717 342.267 294.559 342.431 291.898C342.595 289.237 344.886 287.079 347.547 287.079C350.209 287.079 352.233 289.237 352.069 291.898Z" fill="white"/>
<path d="M353.124 274.823C352.96 277.484 350.669 279.642 348.008 279.642C345.347 279.642 343.322 277.484 343.486 274.823C343.65 272.162 345.941 270.004 348.602 270.004C351.264 270.004 353.288 272.161 353.124 274.823Z" fill="white"/>
<path d="M354.179 257.746C354.015 260.407 351.724 262.565 349.063 262.565C346.402 262.565 344.377 260.407 344.541 257.746C344.705 255.085 346.996 252.927 349.657 252.927C352.318 252.927 354.343 255.085 354.179 257.746Z" fill="white"/>
<path d="M337.522 291.898C337.358 294.559 335.067 296.717 332.406 296.717C329.745 296.717 327.72 294.559 327.884 291.898C328.048 289.237 330.339 287.079 333 287.079C335.662 287.079 337.686 289.237 337.522 291.898Z" fill="white"/>
<path d="M338.577 274.823C338.413 277.484 336.122 279.642 333.461 279.642C330.8 279.642 328.775 277.484 328.939 274.823C329.103 272.162 331.394 270.004 334.055 270.004C336.717 270.004 338.741 272.161 338.577 274.823Z" fill="white"/>
<path d="M339.632 257.746C339.468 260.407 337.177 262.565 334.516 262.565C331.855 262.565 329.83 260.407 329.994 257.746C330.158 255.085 332.449 252.927 335.11 252.927C337.771 252.927 339.796 255.085 339.632 257.746Z" fill="white"/>
<path d="M137.197 147.848L142.847 152.245L135.385 156.173C135.385 156.173 131.892 152.419 133.667 149.227L137.197 147.848Z" fill="#7F3E3B"/>
<path d="M143.093 159.884L139.665 160.919C138.574 161.249 137.409 160.716 136.945 159.675L135.383 156.173L142.845 152.245L144.563 156.941C145.011 158.162 144.338 159.508 143.093 159.884Z" fill="#7F3E3B"/>
<path d="M160.913 107.551L157.898 109.423C156.87 110.066 155.846 110.728 154.835 111.405C152.81 112.754 150.791 114.113 148.832 115.526C144.927 118.349 141.138 121.328 137.935 124.543L137.332 125.145L137.181 125.295C137.116 125.361 137.177 125.294 137.166 125.298C137.177 125.263 137.181 125.255 137.178 125.241C137.166 125.188 137.066 125.317 136.966 125.546C136.747 126.013 136.547 126.887 136.459 127.849C136.289 129.806 136.371 132.139 136.625 134.475C137.09 139.177 138.069 144.137 139.032 148.95L133.326 151.112C132.036 148.712 130.978 146.346 129.983 143.866C128.997 141.397 128.137 138.861 127.415 136.21C126.738 133.543 126.13 130.801 126.033 127.659C125.998 126.079 126.042 124.392 126.548 122.414C126.818 121.427 127.199 120.361 127.887 119.242C128.061 118.963 128.239 118.688 128.455 118.409L128.742 118.042L128.911 117.839L129.59 117.025C130.486 115.915 131.435 114.91 132.379 113.884C133.351 112.911 134.318 111.919 135.322 111.006C137.3 109.117 139.383 107.42 141.483 105.749C143.59 104.092 145.753 102.54 147.964 101.061C149.072 100.325 150.189 99.6062 151.321 98.9012C152.464 98.1772 153.562 97.5381 154.849 96.8271L160.913 107.551Z" fill="#076E94"/>
<path d="M138.575 147.759C137.124 148.51 133.919 149.438 132.51 149.854C132.166 149.956 131.951 150.295 131.999 150.65C132.13 151.627 132.326 152.33 132.865 152.393C133.512 152.468 139.39 150.387 139.808 149.627C140.043 149.201 139.798 148.556 139.538 148.072C139.351 147.726 138.925 147.578 138.575 147.759Z" fill="#263238"/>
<path d="M166.82 143.462L154.854 113.978C153.972 111.806 151.453 110.651 149.227 111.399L115.116 122.851C112.89 123.599 111.799 125.965 112.681 128.137L124.647 157.621C125.529 159.793 128.048 160.948 130.274 160.2L164.385 148.748C166.611 148.001 167.702 145.634 166.82 143.462Z" fill="#076E94"/>
<path opacity="0.7" d="M166.82 143.462L154.854 113.978C153.972 111.806 151.453 110.651 149.227 111.399L115.116 122.851C112.89 123.599 111.799 125.965 112.681 128.137L124.647 157.621C125.529 159.793 128.048 160.948 130.274 160.2L164.385 148.748C166.611 148.001 167.702 145.634 166.82 143.462Z" fill="white"/>
<path d="M192.681 75.7908C192.535 76.3818 192.73 76.9368 193.116 77.0328C193.502 77.1278 193.933 76.7268 194.079 76.1358C194.225 75.5458 194.03 74.9898 193.644 74.8938C193.258 74.7988 192.827 75.2008 192.681 75.7908Z" fill="#263238"/>
<path d="M192.682 76.9238C192.682 76.9238 193.184 80.6618 194.257 82.6708C192.972 83.3878 191.305 82.5038 191.305 82.5038L192.682 76.9238Z" fill="#630F0F"/>
<path d="M191.397 72.0022C191.467 72.0192 191.543 72.0162 191.616 71.9862C193.094 71.3922 194.18 72.1342 194.192 72.1412C194.353 72.2542 194.576 72.2152 194.689 72.0532C194.802 71.8912 194.763 71.6692 194.601 71.5552C194.544 71.5152 193.183 70.5852 191.349 71.3222C191.166 71.3962 191.077 71.6042 191.151 71.7872C191.195 71.9002 191.289 71.9762 191.397 72.0022Z" fill="#263238"/>
<path d="M171.948 77.896C171.676 83.511 170.302 93.584 165.672 96.233C165.672 96.233 165.795 102.028 175.748 104.484C186.692 107.185 182.319 100.342 182.319 100.342C176.698 97.441 177.946 93.048 180.014 89.143L171.948 77.896Z" fill="#7F3E3B"/>
<path d="M163.776 97.7441C163.416 95.8301 163.038 93.6491 164.977 93.4731C167.11 93.2801 178.04 95.2431 181.435 97.4321C184.83 99.6211 182.917 102.85 182.917 102.85L163.776 97.7441Z" fill="#263238"/>
<path d="M111.881 340.458C112.471 340.958 113.118 341.353 113.585 341.251C113.781 341.208 114.035 341.061 114.128 340.601C114.177 340.359 114.124 340.131 113.97 339.921C113.298 339.009 110.787 338.751 110.681 338.741C110.611 338.734 110.543 338.769 110.508 338.83C110.473 338.891 110.477 338.967 110.518 339.024C110.753 339.344 111.288 339.955 111.881 340.458ZM113.53 339.973C113.59 340.024 113.641 340.077 113.683 340.133C113.776 340.259 113.807 340.389 113.779 340.53C113.712 340.858 113.56 340.892 113.509 340.903C112.989 341.016 111.81 340.026 111.074 339.152C111.828 339.266 113.008 339.529 113.53 339.973Z" fill="#076E94"/>
<path d="M110.548 339.054C110.57 339.073 110.597 339.086 110.627 339.093C111.496 339.275 113.715 338.992 114.138 338.247C114.214 338.112 114.299 337.838 114.007 337.522C113.818 337.317 113.573 337.21 113.279 337.205C112.148 337.184 110.602 338.727 110.537 338.792C110.491 338.839 110.473 338.906 110.492 338.969C110.503 339.003 110.522 339.032 110.548 339.054ZM113.686 337.708C113.706 337.725 113.726 337.744 113.745 337.764C113.904 337.936 113.85 338.03 113.827 338.071C113.577 338.511 112.037 338.841 111.064 338.787C111.543 338.359 112.547 337.548 113.272 337.562C113.439 337.565 113.575 337.613 113.686 337.708Z" fill="#076E94"/>
<path d="M168.366 354.925C169.333 354.925 170.254 354.792 170.522 354.357C170.616 354.205 170.676 353.946 170.427 353.576C170.287 353.369 170.082 353.228 169.817 353.158C168.528 352.817 166.047 354.318 165.942 354.382C165.881 354.419 165.854 354.492 165.874 354.566C165.894 354.639 165.956 354.698 166.03 354.712C166.521 354.809 167.464 354.925 168.366 354.925ZM169.41 353.462C169.536 353.462 169.653 353.475 169.76 353.503C169.929 353.548 170.052 353.63 170.136 353.753C170.286 353.975 170.251 354.085 170.212 354.148C169.912 354.635 168.006 354.646 166.584 354.448C167.244 354.09 168.528 353.462 169.41 353.462Z" fill="#076E94"/>
<path d="M166.065 354.717C166.09 354.717 166.114 354.712 166.137 354.701C167.005 354.293 168.639 352.662 168.413 351.809C168.36 351.609 168.192 351.36 167.696 351.31C167.328 351.273 167.005 351.376 166.737 351.616C165.859 352.404 165.866 354.435 165.867 354.521C165.868 354.584 165.902 354.646 165.957 354.683C165.991 354.705 166.028 354.717 166.065 354.717ZM167.589 351.66C167.624 351.66 167.66 351.662 167.697 351.665C168.022 351.698 168.055 351.824 168.066 351.866C168.202 352.378 167.109 353.659 166.238 354.217C166.274 353.624 166.417 352.408 166.993 351.891C167.167 351.736 167.362 351.66 167.589 351.66Z" fill="#076E94"/>
<path d="M157.859 354.538H165.4L166.151 337.074H158.61L157.859 354.538Z" fill="#7F3E3B"/>
<path d="M102.938 336.852L110.233 338.758L118.314 322.819L111.019 320.913L102.938 336.852Z" fill="#7F3E3B"/>
<path d="M110.798 337.888L104.338 332.406C104.103 332.207 103.761 332.197 103.515 332.383L98.0421 336.53C97.4741 336.96 97.4651 337.816 98.0161 338.267C100.304 340.142 101.512 340.94 104.353 343.35C106.101 344.833 109.828 349.076 112.086 351.294C114.294 353.464 116.832 351.57 116.107 350.459C112.853 345.48 111.768 341.511 111.431 339.032C111.371 338.587 111.142 338.18 110.798 337.888Z" fill="#263238"/>
<path d="M165.159 353.665H156.924C156.616 353.665 156.371 353.879 156.335 354.18L155.539 360.883C155.457 361.578 156.052 362.236 156.763 362.224C159.729 362.174 164.003 361.999 167.737 361.999C172.103 361.999 172.84 362.237 177.96 362.237C181.056 362.237 181.591 359.107 180.266 358.824C174.233 357.534 172.46 357.395 167.037 354.252C166.447 353.911 165.81 353.665 165.159 353.665Z" fill="#263238"/>
<path d="M193.33 110.101C192.754 117.712 189.895 133.882 178.998 166.721L139.359 159.256C140.113 153.955 147.24 131.621 148.864 106.443C149.316 99.4399 155.61 94.2349 162.564 95.1779C162.629 95.1869 162.695 95.1959 162.76 95.2049C167.871 95.9149 175.234 97.1339 179.61 98.3789C182.368 99.1639 185.581 100.455 188.184 101.59C191.534 103.05 193.606 106.456 193.33 110.101Z" fill="#076E94"/>
<path opacity="0.2" d="M185.811 114.713C185.544 118.994 187.146 128.078 188.542 134.987C189.825 130.039 190.79 125.851 191.498 122.309L185.811 114.713Z" fill="black"/>
<path d="M193.192 107.777C194.142 110.14 195.17 112.708 196.235 115.147C197.319 117.603 198.386 120.062 199.54 122.462C201.815 127.256 204.267 131.99 207.077 136.052C207.777 137.053 208.493 138.035 209.233 138.885L209.37 139.051C209.357 139.037 209.341 139.026 209.324 139.017C209.284 139 209.277 138.99 209.25 138.99C209.23 138.987 209.222 139.017 209.281 139.06C209.373 139.148 209.647 139.289 210.001 139.417C210.723 139.676 211.782 139.856 212.907 139.935C214.04 140.017 215.265 140.052 216.52 140.007C221.558 139.847 227.019 138.994 232.29 138.139L234.255 143.916C231.588 145.228 228.963 146.291 226.198 147.243C223.446 148.193 220.616 148.997 217.613 149.556C216.11 149.828 214.56 150.061 212.916 150.149C211.268 150.228 209.535 150.221 207.55 149.852C206.555 149.659 205.495 149.379 204.349 148.833C203.783 148.572 203.189 148.225 202.607 147.816C202.313 147.595 202.023 147.38 201.739 147.116L201.318 146.721L201.104 146.502C199.931 145.337 198.916 144.142 197.931 142.937C194.086 138.092 191.187 133.031 188.519 127.891C187.221 125.308 185.967 122.72 184.843 120.08C183.705 117.421 182.622 114.851 181.625 112.012L193.192 107.777Z" fill="#076E94"/>
<path opacity="0.2" d="M264.621 132.769L250.39 129.932C249.34 129.723 248.266 130.394 247.992 131.431L243.791 147.322C243.517 148.359 244.146 149.37 245.196 149.579L259.427 152.416C260.477 152.625 261.551 151.954 261.825 150.917L266.026 135.026C266.3 133.989 265.671 132.979 264.621 132.769Z" fill="black"/>
<path d="M259.673 125.47L245.508 122.321C244.463 122.089 243.375 122.736 243.078 123.767L238.529 139.562C238.232 140.593 238.839 141.617 239.884 141.849L254.049 144.998C255.094 145.23 256.182 144.583 256.479 143.552L261.028 127.757C261.325 126.726 260.719 125.702 259.673 125.47Z" fill="white"/>
<path d="M230.992 139.262L235.473 132.686L242.579 139.19C242.579 139.19 238.885 144.225 233.402 143.923L230.992 139.262Z" fill="#7F3E3B"/>
<path d="M229.539 138.977C230.326 140.408 231.333 143.59 231.784 144.988C231.894 145.329 232.239 145.536 232.593 145.479C233.566 145.324 234.265 145.11 234.314 144.57C234.373 143.921 232.147 138.097 231.377 137.698C230.945 137.474 230.306 137.735 229.829 138.007C229.486 138.202 229.349 138.631 229.539 138.977Z" fill="#263238"/>
<path d="M244.184 131.681L245.066 133.39C245.784 134.781 245.489 136.48 244.344 137.548L242.583 139.191L235.477 132.687L239.215 130.329C240.948 129.235 243.245 129.86 244.184 131.681Z" fill="#7F3E3B"/>
<path opacity="0.2" d="M166.145 337.079L165.724 346.898H158.18L158.601 337.079H166.145Z" fill="black"/>
<path opacity="0.2" d="M111.013 320.917L118.312 322.823L113.834 331.647L106.844 329.132L111.013 320.917Z" fill="black"/>
<path d="M173.293 69.6778C171.948 77.0408 170.787 81.2808 173.531 85.9078C177.659 92.8668 187.431 91.7558 190.948 84.9428C194.114 78.8108 195.781 67.8008 189.394 63.1628C183.103 58.5928 174.638 62.3148 173.293 69.6778Z" fill="#7F3E3B"/>
<path d="M185.909 76.89C189.665 78.343 191.912 72.952 190.943 71.007C192.184 70.256 197.134 69.107 196.559 65.306C195.984 61.505 192.24 60.409 189.503 55.404C188.575 55.89 188.825 58.942 188.825 58.942C188.825 58.942 186.571 54.965 180.738 55.009C174.905 55.053 172.697 52.667 172.697 52.667C172.697 52.667 173.137 56.468 175.302 57.396C172.032 58.324 172.032 63.45 167.391 64.025C168.452 66.014 171.038 65.969 171.038 65.969C171.038 65.969 168.363 68.286 168.893 71.193C169.423 74.1 172.517 81.083 168.805 83.513C176.849 86.43 187.5 83.189 185.909 76.89Z" fill="#263238"/>
<path d="M184.169 75.6919C183.706 77.5969 184.034 79.6238 184.725 81.0958C185.764 83.3098 187.735 82.7358 188.662 80.7128C189.496 78.8918 189.96 75.5449 188.332 73.9999C186.728 72.4779 184.699 73.5139 184.169 75.6919Z" fill="#7F3E3B"/>
<path d="M164.939 164.073C164.939 164.073 154.694 220.345 149.996 241.936C144.851 265.58 118.669 328.839 118.669 328.839L105.531 324.602C105.531 324.602 121.968 264.359 129.381 240.611C130.929 215.265 134.08 175.165 139.361 159.255L164.939 164.073Z" fill="#076E94"/>
<path opacity="0.5" d="M164.939 164.073C164.939 164.073 154.694 220.345 149.996 241.936C144.851 265.58 118.669 328.839 118.669 328.839L105.531 324.602C105.531 324.602 121.968 264.359 129.381 240.611C130.929 215.265 134.08 175.165 139.361 159.255L164.939 164.073Z" fill="black"/>
<path d="M121.462 326.058C121.518 326.076 118.448 330.649 118.448 330.649L103.688 325.788L105.438 321.381L121.462 326.058Z" fill="#076E94"/>
<path opacity="0.3" d="M160.287 183.747C150.689 185.287 151.387 213.783 152.516 229.695C155.308 215.785 158.757 197.483 161.303 183.747C160.82 183.727 160.451 183.717 160.287 183.747Z" fill="black"/>
<path d="M179.001 166.721C179.001 166.721 181.135 219.098 180.315 242.095C179.462 266.016 168.572 344.338 168.572 344.338H155.797C155.797 344.338 155.522 269.05 158.468 244.048C157.848 218.437 152.945 161.814 152.945 161.814L179.001 166.721Z" fill="#076E94"/>
<path opacity="0.5" d="M179.001 166.721C179.001 166.721 181.135 219.098 180.315 242.095C179.462 266.016 168.572 344.338 168.572 344.338H155.797C155.797 344.338 155.522 269.05 158.468 244.048C157.848 218.437 152.945 161.814 152.945 161.814L179.001 166.721Z" fill="black"/>
<path d="M171.033 339.249C171.092 339.249 170.312 344.553 170.312 344.553H154.772L154.352 339.82L171.033 339.249Z" fill="#076E94"/>
<path d="M139.363 157.814C138.056 157.754 137.966 160.894 138.394 161.813C138.822 162.732 144.553 163.293 159.837 166.72C175.121 170.146 178.899 170.332 179.37 170.118C179.84 169.904 180.824 165.67 179.883 165.541C178.942 165.413 163.249 162.889 156.596 161.349C149.942 159.81 141.228 157.9 139.363 157.814Z" fill="#263238"/>
</svg>
