<svg width="625" height="378" viewBox="0 0 625 378" fill="none" xmlns="http://www.w3.org/2000/svg">
<path d="M615.645 127.411C619.402 139.939 621.775 153.61 622.792 168.476C626.443 221.899 611.814 268.978 598.9 299.066C591.659 315.936 584.152 329.488 578.524 338.733" stroke="#CEDBED" stroke-width="2.1183" stroke-miterlimit="10"/>
<path d="M49.7469 336.176C34.3869 259.926 31.8919 198.407 42.1039 148.334C46.0579 128.941 51.9919 111.013 59.8329 94.7188" stroke="#CEDBED" stroke-width="2.1183" stroke-miterlimit="10"/>
<path d="M606.727 119.822C612.256 134.384 615.616 150.72 616.862 168.938C620.422 221.019 606.12 267.013 593.494 296.426C585.509 315.029 577.226 329.467 571.615 338.396" stroke="#CEDBED" stroke-width="2.1183" stroke-miterlimit="10"/>
<path d="M55.8309 336.181C40.4109 260.215 37.8259 199.148 47.9139 149.682C52.9479 124.997 61.2669 102.781 72.7149 83.4033" stroke="#CEDBED" stroke-width="2.1183" stroke-miterlimit="10"/>
<path d="M596.893 112.239C604.795 128.591 609.44 147.578 610.932 169.4C614.401 220.14 600.425 265.047 588.089 293.786C579.12 314.681 569.842 330.103 564.54 338.215" stroke="#CEDBED" stroke-width="2.1183" stroke-miterlimit="10"/>
<path d="M61.9152 336.183C46.4372 260.5 43.7602 199.884 53.7232 151.03C59.9292 120.596 71.2572 94.0705 87.3902 72.1895" stroke="#CEDBED" stroke-width="2.1183" stroke-miterlimit="10"/>
<path d="M68.9457 340.71H555.46C555.46 340.71 611.54 265.489 605.002 169.861C598.464 74.234 530.803 50.394 445.613 34.762C360.423 19.13 260.671 -25.513 160.905 21.122C41.0817 77.134 41.0557 208.598 68.9457 340.71Z" fill="#CEDBED"/>
<path d="M328.014 242.093C319.071 152.789 213.464 155.232 213.464 155.232C176.059 99.2238 109.137 98.4478 76.4008 101.943C44.3278 167.015 50.5808 253.72 68.9458 340.71H430.818C418.529 246.482 328.014 242.093 328.014 242.093Z" fill="url(#paint0_linear_1769_2988)"/>
<path d="M555.46 340.71C555.46 340.71 611.54 265.489 605.002 169.861C603.17 143.072 596.54 121.919 586.073 105C552.726 112.121 499.683 132.881 461.979 193.271C425.647 251.466 405.531 306.801 395.44 340.709L555.46 340.71Z" fill="url(#paint1_linear_1769_2988)"/>
<path d="M37.5621 248.076C37.5621 248.076 28.3611 231.236 23.8271 225.818C17.6341 218.419 6.54908 217.213 1.77708 229.016C-2.61492 239.88 5.66608 247.403 14.4311 249.091C23.1971 250.779 37.5621 248.076 37.5621 248.076Z" fill="url(#paint2_linear_1769_2988)"/>
<path d="M50.7923 243.815C50.7923 243.815 48.1103 224.31 49.2673 215.088C50.4243 205.866 58.7323 204.829 64.2243 207.459C69.7163 210.088 73.9613 216.027 71.1763 224.964C68.3923 233.902 50.7923 243.815 50.7923 243.815Z" fill="url(#paint3_linear_1769_2988)"/>
<path d="M46.3888 274.098C46.3888 274.098 32.7848 261.177 26.1998 257.999C19.6138 254.82 10.0728 257.082 8.85484 266.417C7.63684 275.751 11.2188 282.383 21.5938 283.698C31.9688 285.012 46.3888 274.098 46.3888 274.098Z" fill="url(#paint4_linear_1769_2988)"/>
<path d="M59.9292 267.327C59.9292 267.327 60.1242 253.163 62.6872 244.421C65.2502 235.678 72.5222 234.673 77.8062 238.626C83.0902 242.579 85.1922 251.063 81.0562 256.51C76.9192 261.957 59.9292 267.327 59.9292 267.327Z" fill="url(#paint5_linear_1769_2988)"/>
<path d="M38.4551 224.348C38.4551 224.348 29.3081 217.056 20.0351 206.396C10.7621 195.736 13.1821 175.988 28.6611 173.84C42.6951 171.893 48.5941 185.258 48.0671 195.94C47.5411 206.621 38.4551 224.348 38.4551 224.348Z" fill="url(#paint6_linear_1769_2988)"/>
<path d="M31.27 185.921C31.27 185.921 36.51 242.452 71.177 316.168" stroke="#004761" stroke-width="1.1047" stroke-miterlimit="10"/>
<path d="M10.5122 234.378C23.0912 241.671 46.1682 252.043 46.1682 252.043C46.1682 252.043 56.9242 232.396 60.3792 220.645" stroke="#004761" stroke-width="1.1047" stroke-miterlimit="10"/>
<path d="M19.7061 270.132C35.1051 272.614 54.0191 275.147 54.0191 275.147C54.0191 275.147 67.1161 258.247 73.9211 247.158" stroke="#004761" stroke-width="1.1047" stroke-miterlimit="10"/>
<path d="M491.028 72.8047H174.817V200.951H491.028V72.8047Z" stroke="white" stroke-width="2.114" stroke-miterlimit="10"/>
<path d="M440.837 341.45H623.36C623.36 341.45 621.246 302.147 604.334 314.826C604.334 314.826 609.619 275.916 605.92 275.814C602.221 275.712 592.179 286.278 592.179 286.278C592.179 286.278 597.464 249.44 589.008 251.478C580.552 253.516 581.081 260.837 581.081 260.837C581.081 260.837 586.366 222.596 581.61 200.268C576.854 177.94 582.667 157.596 573.154 155.613C563.641 153.63 551.486 213.866 551.486 213.866C551.486 213.866 543.559 210.179 539.859 237.661C539.859 237.661 521.963 224.977 521.398 265.143C521.398 265.143 491.59 261.54 487.186 293.466C487.186 293.466 468.381 291.96 463.228 305.561C458.073 319.161 439.317 323.045 440.837 341.45Z" fill="url(#paint7_linear_1769_2988)"/>
<path d="M215.462 341.45H19.396C19.396 341.45 25.401 334.176 32.15 332.258C32.15 332.258 35.032 305.677 51.375 304.973C51.375 304.973 77.734 229.459 90.5 276.331C90.5 276.331 88.999 220.737 113.864 248.128C113.864 248.128 118.584 200.117 128.902 199.343C139.219 198.57 143.962 252.476 143.962 252.476C143.962 252.476 157.095 252.124 164.026 261.636C164.026 261.636 162.715 206.057 173.146 205.89C183.577 205.723 186.644 260.016 186.644 260.016C186.644 260.016 216.558 241.377 203.79 319.775C203.79 319.775 218.016 318.361 215.462 341.45Z" fill="url(#paint8_linear_1769_2988)"/>
<path d="M322.264 252.756L312.803 350.821" stroke="#004761" stroke-width="3.171" stroke-miterlimit="10"/>
<path d="M352.616 252.756L362.077 350.821" stroke="#004761" stroke-width="3.171" stroke-miterlimit="10"/>
<path d="M319.905 277.203H355.126" stroke="#004761" stroke-width="3.171" stroke-miterlimit="10"/>
<path d="M317.97 298.836H357.062" stroke="#004761" stroke-width="3.3407" stroke-miterlimit="10"/>
<path d="M358.678 255.569H316.203C314.325 255.569 312.803 254.047 312.803 252.169V248.308C312.803 246.43 314.325 244.908 316.203 244.908H358.678C360.556 244.908 362.078 246.43 362.078 248.308V252.169C362.077 254.047 360.555 255.569 358.678 255.569Z" fill="#004761"/>
<path d="M400.647 252.756L391.185 350.821" stroke="#004761" stroke-width="3.171" stroke-miterlimit="10"/>
<path d="M430.999 252.756L440.46 350.821" stroke="#004761" stroke-width="3.171" stroke-miterlimit="10"/>
<path d="M398.288 277.203H433.509" stroke="#004761" stroke-width="3.171" stroke-miterlimit="10"/>
<path d="M396.352 298.836H435.444" stroke="#004761" stroke-width="3.3407" stroke-miterlimit="10"/>
<path d="M437.06 255.569H394.585C392.707 255.569 391.185 254.047 391.185 252.169V248.308C391.185 246.43 392.707 244.908 394.585 244.908H437.06C438.938 244.908 440.46 246.43 440.46 248.308V252.169C440.46 254.047 438.938 255.569 437.06 255.569Z" fill="#004761"/>
<path d="M330.349 363.18C334.16 363.18 337.249 361.5 337.249 359.427C337.249 357.354 334.16 355.674 330.349 355.674C326.538 355.674 323.449 357.354 323.449 359.427C323.449 361.5 326.538 363.18 330.349 363.18Z" fill="#CEDBED"/>
<path d="M330.867 319.774L331.08 339.347C331.08 339.347 332.137 341.939 332.108 345.375C332.079 348.811 335.158 354.116 332.43 356.579C329.702 359.042 326.511 356.994 326.276 353.549C326.041 350.104 326.243 346.762 325.338 344.88C324.433 342.998 324.273 339.933 325.554 338.554L322.25 320.097L330.867 319.774Z" fill="#FF6D6D"/>
<path d="M329.727 346.002C329.42 346.033 329.091 346.071 328.762 346.116C327.902 346.233 327.093 345.682 326.91 344.834L325.555 338.556C324.274 339.935 324.434 343 325.339 344.882C326.244 346.764 326.042 350.106 326.277 353.551C326.512 356.996 329.703 359.044 332.431 356.581C335.159 354.118 332.079 348.813 332.109 345.377C332.138 341.941 331.081 339.349 331.081 339.349L331.261 344.233C331.293 345.134 330.625 345.911 329.727 346.002Z" fill="#004761"/>
<path d="M373.938 312.937L376.764 332.306C376.764 332.306 378.158 334.733 378.588 338.143C379.018 341.552 382.779 346.398 380.404 349.204C378.029 352.009 374.593 350.406 373.9 347.023C373.207 343.64 372.961 340.301 371.812 338.557C370.664 336.813 370.096 333.797 371.181 332.259L365.44 314.409L373.938 312.937Z" fill="#FF6D6D"/>
<path d="M376.312 339.081C376.012 339.153 375.691 339.234 375.371 339.322C374.534 339.553 373.659 339.115 373.364 338.299L371.182 332.258C370.097 333.796 370.665 336.812 371.813 338.556C372.962 340.3 373.208 343.639 373.901 347.022C374.594 350.405 378.03 352.008 380.405 349.203C382.78 346.398 379.019 341.552 378.589 338.142C378.159 334.733 376.765 332.305 376.765 332.305L377.596 337.121C377.748 338.012 377.191 338.871 376.312 339.081Z" fill="#004761"/>
<path d="M322.052 161.375C322.052 161.375 333.745 171.042 346.825 164.942C346.825 164.942 346.781 163.423 348.102 163.423C349.423 163.423 354.664 164.382 361.931 167.827C372.149 172.672 395.485 198.88 394.522 212.132C393.817 221.821 386.771 224.992 380.429 224.728C374.087 224.464 374.615 213.718 374.615 213.718L354.708 196.982L351.008 224.728H308.552L302.562 181.303L288.117 119.557C288.117 119.557 289.284 114.536 293.193 111.189C297.101 107.842 301.329 109.956 301.329 109.956L322.052 161.375Z" fill="#004761"/>
<path d="M322.052 161.375L301.331 109.957C301.331 109.957 297.103 107.843 293.195 111.19C289.287 114.537 288.119 119.558 288.119 119.558L302.565 181.304C316.569 192.05 322.052 161.375 322.052 161.375Z" fill="#004761"/>
<path d="M380.429 224.73C386.771 224.994 393.817 221.823 394.522 212.134C395.486 198.882 372.149 172.673 361.931 167.829C360.345 167.077 358.862 166.45 357.489 165.919C348.18 181.126 354.709 196.985 354.709 196.985L374.616 213.721C374.615 213.719 374.087 224.465 380.429 224.73Z" fill="#004761"/>
<path d="M385.02 214.417C385.141 220.832 383.217 225.195 379.497 224.745C375.777 224.295 373.967 218.28 374.615 213.719L385.02 214.417Z" fill="#08224A"/>
<path d="M366.603 223.242H338.521L344.826 184.563H372.908L366.603 223.242Z" fill="#FFA526"/>
<path d="M362.971 187.735H353.73L354.519 182.89H363.76L362.971 187.735Z" stroke="white" stroke-width="0.7201" stroke-miterlimit="10"/>
<path d="M319.828 240.143C335.147 240.607 333.569 321.884 333.569 321.884H317.89C317.89 321.884 314.224 314.963 314.191 308.848C314.157 302.556 311.196 295.988 310.315 289.294C309.434 282.599 296.574 239.438 319.828 240.143Z" fill="#004761"/>
<path d="M333.615 316.063H315.504" stroke="#FFA526" stroke-width="0.7201" stroke-miterlimit="10"/>
<path d="M352.357 235.496C367.601 233.909 376.897 314.667 376.897 314.667L361.359 316.762C361.359 316.762 356.801 310.393 355.951 304.337C355.076 298.106 351.265 291.992 349.497 285.476C347.73 278.959 329.218 237.904 352.357 235.496Z" fill="#004761"/>
<path d="M376.263 309.558L358.857 311.978" stroke="#FFA526" stroke-width="0.7201" stroke-miterlimit="10"/>
<path d="M328.857 150.938L328.081 160.522C328.001 161.514 327.088 162.225 326.106 162.06L322.052 161.377C322.052 161.377 324.43 174.923 334.67 176.837C344.91 178.751 346.825 164.944 346.825 164.944L341.21 163.979L338.303 150.939H328.857V150.938Z" fill="#FF6D6D"/>
<path d="M338.303 150.938H328.856L328.555 154.661C330.39 156.759 334.124 159.829 340.345 160.097L338.303 150.938Z" fill="url(#paint9_linear_1769_2988)"/>
<path d="M325.201 144.883C325.201 144.883 320.18 135.458 325.818 131.847C328.725 125.549 341.232 126.518 344.183 133.477C347.134 140.436 341.981 144.708 341.981 144.708L325.201 144.883Z" fill="#D92727"/>
<path d="M329.81 131.318C333.057 131.318 335.689 128.685 335.689 125.439C335.689 122.192 333.057 119.56 329.81 119.56C326.563 119.56 323.931 122.192 323.931 125.439C323.931 128.685 326.563 131.318 329.81 131.318Z" fill="#D92727"/>
<path d="M343.314 144.133C342.534 143.694 341.936 143.903 341.675 144.043C341.928 142.213 342.113 140.698 342.113 140.698C342.113 140.698 333.921 141.843 328.812 136.646C328.812 136.646 328.195 141.226 325.817 142.9C325.817 142.9 325.833 143.316 325.882 143.962C325.571 143.849 325.062 143.778 324.43 144.133C323.373 144.728 323.986 147.385 326.322 147.477C326.658 149.319 327.209 151.191 328.107 151.973C330.133 153.735 332.864 155.232 334.361 155.144C335.858 155.056 340.086 151.621 340.615 150.123C340.772 149.679 340.968 148.663 341.165 147.462C341.247 147.47 341.324 147.481 341.422 147.477C343.758 147.385 344.371 144.728 343.314 144.133Z" fill="#FF6D6D"/>
<path d="M382.102 210.064L350.524 202.929C350.524 202.929 345.107 195.661 343.521 195.331C341.936 195.001 344.182 197.796 344.182 197.796C344.182 197.796 341.921 196.19 341.334 197.247C340.747 198.304 341.334 199.757 341.334 199.757C341.334 199.757 340.615 200.852 342.465 202.683C344.315 204.514 349.335 205.703 349.335 205.703C349.335 205.703 372.928 220.447 378.402 222.483C383.877 224.519 388.18 212.839 382.102 210.064Z" fill="#FF6D6D"/>
<path d="M301.331 109.957C301.331 109.957 297.103 107.843 293.195 111.19C289.287 114.537 288.119 119.558 288.119 119.558C293.051 123.434 300.978 114.273 301.331 109.957Z" fill="#08224A"/>
<path d="M301.137 110.96L295.231 91.8138C295.231 91.8138 297.411 87.3218 297.081 86.0008C296.751 84.6798 295.231 85.0758 295.231 85.0758C295.231 85.0758 294.945 83.6888 294.724 83.4238C294.504 83.1598 289.087 85.6698 289.087 85.6698C289.087 85.6698 288.096 88.6428 289.483 89.4358C289.483 89.4358 288.954 91.9458 291.399 92.4088L296.411 117.859C296.411 117.857 299.843 115.176 301.137 110.96Z" fill="#FF6D6D"/>
<path d="M235.241 252.756L225.78 350.821" stroke="#004761" stroke-width="3.171" stroke-miterlimit="10"/>
<path d="M265.593 252.756L275.055 350.821" stroke="#004761" stroke-width="3.171" stroke-miterlimit="10"/>
<path d="M232.883 277.203H268.103" stroke="#004761" stroke-width="3.171" stroke-miterlimit="10"/>
<path d="M230.947 298.836H270.039" stroke="#004761" stroke-width="3.3407" stroke-miterlimit="10"/>
<path d="M271.655 255.569H229.18C227.302 255.569 225.78 254.047 225.78 252.169V248.308C225.78 246.43 227.302 244.908 229.18 244.908H271.655C273.533 244.908 275.055 246.43 275.055 248.308V252.169C275.055 254.047 273.533 255.569 271.655 255.569Z" fill="#004761"/>
<path d="M207.621 49.9545C187.363 49.9545 132.754 49.9545 113.729 49.9545C94.7039 49.9545 103.16 34.1005 113.729 31.2815C124.298 28.4635 121.832 11.5515 140.857 4.85752C151.419 1.14152 162.348 11.9035 162.348 11.9035C162.348 11.9035 174.327 8.02751 184.896 15.7785C191.999 20.9875 197.363 32.4765 207.62 32.6895C224.532 33.0435 231.754 49.9545 207.621 49.9545Z" fill="#A1C1ED"/>
<path d="M282.343 42.0898C282.343 42.0898 277.09 34.5378 268.62 42.0898C268.62 42.0898 280.627 40.2848 282.343 49.3318C284.058 40.2848 296.066 42.0898 296.066 42.0898C287.596 34.5388 282.343 42.0898 282.343 42.0898Z" fill="#A1C1ED"/>
<path d="M540.258 98.9045C540.258 98.9045 536.365 93.3075 530.088 98.9045C530.088 98.9045 538.987 97.5665 540.258 104.273C541.529 97.5675 550.428 98.9045 550.428 98.9045C544.151 93.3075 540.258 98.9045 540.258 98.9045Z" fill="#A1C1ED"/>
<path d="M113.596 362.601C114.791 365.183 109.201 370.312 101.11 374.057C93.0192 377.802 85.4912 378.745 84.2962 376.164C83.1012 373.582 88.6912 368.453 96.7822 364.708C104.873 360.963 112.401 360.02 113.596 362.601Z" fill="#CEDBED"/>
<path d="M160.242 361.251C159.047 363.833 164.637 368.961 172.728 372.707C180.819 376.452 188.347 377.395 189.542 374.814C190.737 372.232 185.147 367.104 177.056 363.359C168.965 359.612 161.437 358.669 160.242 361.251Z" fill="#CEDBED"/>
<path d="M163.217 346.107L164.802 357.382C164.802 357.382 163.04 362.755 164.802 364.605C166.564 366.455 173.434 369.009 173.434 369.009C173.434 369.009 184.621 374.47 186.382 373.325C188.144 372.18 176.693 360.465 176.693 360.465L172.906 351.833L172.054 346.367L163.217 346.107Z" fill="#004761"/>
<path d="M174.221 354.828C170.599 356.226 170.681 359.795 170.681 359.795L164.803 357.382C164.803 357.382 163.041 362.755 164.803 364.605C166.565 366.455 173.435 369.009 173.435 369.009C173.435 369.009 184.622 374.47 186.383 373.325C188.145 372.18 176.694 360.465 176.694 360.465L174.221 354.828Z" fill="#16A3BD"/>
<path d="M110.588 346.107V357.382C110.588 357.382 112.438 361.081 110.588 364.781C108.738 368.48 87.731 375.483 86.674 374.558C85.617 373.633 96.715 363.327 96.715 363.327L101.604 354.827L101.868 346.106H110.588V346.107Z" fill="#004761"/>
<path d="M100.779 356.261L96.715 363.327C96.715 363.327 85.617 373.633 86.674 374.558C87.731 375.483 108.739 368.48 110.588 364.781C111.512 362.933 111.513 361.086 111.282 359.699L105.71 360.949C104.969 358.108 102.652 356.833 100.779 356.261Z" fill="#16A3BD"/>
<path d="M151.678 188.792L155.113 217.331C155.113 217.331 159.87 236.357 160.927 249.569C161.984 262.781 175.989 347.869 175.989 347.869H160.398C160.398 347.869 158.02 342.848 158.548 338.356C159.077 333.864 153.527 329.9 154.32 324.879C155.113 319.858 148.771 310.345 147.45 301.097C146.129 291.848 125.782 227.372 125.782 227.372L116.269 304.268C116.269 304.268 117.854 317.745 116.269 323.558C114.684 329.371 115.74 337.563 113.098 347.869H97.6748C97.6748 347.869 95.6578 287.092 95.3938 272.294C95.1298 257.496 95.2718 207.328 101.338 188.792H151.678Z" fill="#004761"/>
<path d="M97.02 215.68C113.669 204.698 142.353 198.044 152.538 195.933L151.678 188.792H101.338C99.298 195.025 97.93 204.841 97.02 215.68Z" fill="url(#paint10_linear_1769_2988)"/>
<path d="M112.834 105.642C112.834 105.642 125.364 88.9063 142.176 105.642C142.176 105.642 164.23 105.29 169.383 122.466L181.538 156.642L221.351 169.854L219.765 176.836C219.765 176.836 189.465 179.767 176.428 176.836C163.392 173.905 154.76 156.994 154.76 156.994L153 184.828C153 184.828 155.466 188.175 154.762 190.113C154.057 192.051 148.618 192.403 142.177 192.403C135.736 192.403 100.327 192.403 100.327 192.403L91.166 112.248C91.166 112.248 100.503 107.668 112.834 105.642Z" fill="#004761"/>
<path d="M92.8598 188.799C92.8598 188.799 95.9357 190.659 98.0827 189.801C100.229 188.943 101.803 186.868 105.381 186.367C108.958 185.866 109.674 186.224 109.674 186.725C109.674 187.226 104.809 187.655 102.949 189.014C102.949 189.014 110.954 187.575 111.105 189.086C111.176 189.801 104.38 189.945 102.806 190.946C102.806 190.946 110.533 190.302 110.604 190.946C110.676 191.59 103.879 191.971 102.806 192.925C102.806 192.925 108.386 192.949 108.029 194.094C107.671 195.239 104.595 193.736 102.234 194.881C99.8727 196.026 98.0838 196.455 95.5798 194.881C93.0758 193.307 91.5728 192.925 91.5728 192.925L92.8598 188.799Z" fill="#FF6D6D"/>
<path d="M170.781 174.623C170.772 174.603 166.09 164.565 163.601 159.92C161.11 155.27 164.099 148.628 164.929 142.817C165.759 137.005 158.391 131.993 158.391 131.993L154.76 156.995C154.76 156.995 160.96 169.132 170.781 174.623Z" fill="url(#paint11_linear_1769_2988)"/>
<path d="M91.1659 112.248C96.3849 109.97 100.49 140.969 95.2329 147.837C89.9769 154.704 76.4999 170.163 76.4999 170.163C76.4999 170.163 79.1419 170.956 76.4999 173.334L95.7899 188.793L94.0059 195.201C94.0059 195.201 73.0639 190.511 59.1909 183.112C45.3179 175.713 54.0379 159.042 56.9449 153.174C59.8519 147.306 74.6219 130.791 74.6219 130.791C74.6219 130.791 80.0669 117.093 91.1659 112.248Z" fill="#004761"/>
<path d="M86.0571 129.336C86.0571 129.336 86.5661 135.374 94.9441 145.303" stroke="#004761" stroke-width="0.8889" stroke-miterlimit="10"/>
<path d="M88.2711 135.538C88.2711 135.538 83.6232 146.406 86.0572 148.777C88.1912 150.856 81.2582 159.155 82.0462 163.738C86.3902 158.669 92.1892 151.814 95.2332 147.837C95.5232 147.458 95.7802 146.994 96.0142 146.478C94.0112 144.102 89.5851 138.667 88.2711 135.538Z" fill="url(#paint12_linear_1769_2988)"/>
<path d="M174.817 340.71H158.511" stroke="#004761" stroke-width="0.8889" stroke-miterlimit="10"/>
<path d="M113.864 340.71H97.5571" stroke="#004761" stroke-width="0.8889" stroke-miterlimit="10"/>
<path d="M125.669 228.283V192.403" stroke="#004761" stroke-width="0.8889" stroke-miterlimit="10"/>
<path d="M131.199 192.403C131.199 192.403 131.199 199.89 131.199 206.893C131.199 213.896 125.669 215.877 125.669 215.877" stroke="#004761" stroke-width="0.8889" stroke-miterlimit="10"/>
<path d="M142.177 192.403C142.177 192.403 141.583 203.052 154.096 208.87" stroke="#004761" stroke-width="0.8889" stroke-miterlimit="10"/>
<path d="M108.179 191.648C108.179 191.648 103.624 209.685 97.4609 210.865" stroke="#004761" stroke-width="0.8889" stroke-miterlimit="10"/>
<path d="M149.653 267.45C149.653 267.45 151.943 270.092 155.643 270.797" stroke="#004761" stroke-width="0.8889" stroke-miterlimit="10"/>
<path d="M112.482 268.331C112.482 268.331 106.724 272.383 102.82 273.792" stroke="#004761" stroke-width="0.8889" stroke-miterlimit="10"/>
<path d="M119.808 90.4782L113.037 80.9262C113.037 80.9262 106.749 76.3312 110.377 70.0442C114.004 63.7572 125.612 67.2632 131.053 68.8352C131.053 68.8352 142.177 69.4402 142.177 77.0572C142.177 84.6742 133.592 90.4782 133.592 90.4782H119.808Z" fill="#0F3D85"/>
<path d="M122.083 94.7198L120.435 105.784C120.275 106.857 120.671 107.956 121.526 108.624C122.512 109.395 124.158 110.178 126.774 110.178C129.214 110.178 130.885 109.356 131.927 108.566C132.82 107.889 133.259 106.772 133.094 105.664L131.464 94.7188H122.083V94.7198Z" fill="#FF6D6D"/>
<path d="M120.426 106.191C125.437 106.13 129.875 103.169 132.407 101.056L131.463 94.7188H122.082L120.434 105.783C120.415 105.92 120.429 106.055 120.426 106.191Z" fill="url(#paint13_linear_1769_2988)"/>
<path d="M129.741 72.8057C129.741 72.8057 126.406 79.8607 118.196 80.8867C118.196 80.8867 117.811 98.9737 126.277 98.9737C134.743 98.9737 136.282 83.1957 136.282 83.1957C136.282 83.1957 129.484 77.8087 129.741 72.8057Z" fill="#FF6D6D"/>
<path d="M93.8428 135.674C93.8428 135.674 99.2688 128.976 109.311 135.674C109.311 135.674 117.44 127.39 126.764 135.674C126.764 135.674 136.616 127.39 145.777 135.674C145.777 135.674 153.534 131.794 157.847 135.674L155.374 150.345H95.6368L93.8428 135.674Z" fill="#16A3BD"/>
<path d="M159.342 123.787C159.342 123.787 159.078 127.09 158.285 132.771C157.492 138.452 154.585 154.836 154.585 154.836" stroke="#004761" stroke-width="0.8889" stroke-miterlimit="10"/>
<path d="M162.513 132.507C162.513 132.507 160.707 140.434 156.259 144.662" stroke="#004761" stroke-width="0.8889" stroke-miterlimit="10"/>
<path d="M95.637 150.345C95.637 150.345 93.423 131.992 93.843 124.63" stroke="#004761" stroke-width="0.8889" stroke-miterlimit="10"/>
<path d="M257.149 359.427C257.149 362.754 252.191 365.451 246.076 365.451C239.96 365.451 235.003 362.754 235.003 359.427C235.003 356.1 239.961 353.403 246.076 353.403C252.191 353.403 257.149 356.1 257.149 359.427Z" fill="#CEDBED"/>
<path d="M241.486 338.664L241.202 348.909C241.202 348.909 238.186 356.519 239.708 356.692C241.231 356.865 243.605 356.954 242.591 358.667C241.576 360.38 240.401 362.646 246.577 363.115C252.753 363.584 253.843 361.541 253.07 359.143C252.445 357.206 249.004 351.613 247.705 349.537C247.382 349.02 247.233 348.416 247.277 347.808L248.125 336.183L241.486 338.664Z" fill="#FF6D6D"/>
<path d="M239.708 356.691C241.231 356.864 243.605 356.953 242.591 358.666C241.576 360.379 240.401 362.645 246.577 363.114C252.753 363.583 253.843 361.54 253.07 359.142C252.536 357.486 249.944 353.161 248.392 350.642C246.498 351.081 243.902 351.937 242.941 353.469C242.1 354.81 240.941 353.626 240.04 352.224C239.397 354.299 238.879 356.597 239.708 356.691Z" fill="#004761"/>
<path d="M237.03 262.869L238.616 340.71H254.471C254.471 340.71 257.642 336.33 257.29 326.465C256.938 316.6 260.813 314.838 261.166 306.382C261.518 297.926 265.218 259.874 265.218 259.874L237.03 262.869Z" fill="#004761"/>
<path d="M264.408 268.331C264.408 268.331 261.166 274.673 256.233 275.378C251.3 276.083 250.596 281.896 245.839 287.357C241.083 292.818 243.028 297.923 237.827 301.977L237.03 262.87L265.216 259.875L264.408 268.331Z" fill="url(#paint14_linear_1769_2988)"/>
<path d="M266.45 257.497L278.37 256.477C279.445 256.385 280.504 256.743 281.305 257.466C282.527 258.57 284.248 260.552 285.388 263.662C287.326 268.947 287.414 271.854 289.44 272.118C291.466 272.382 288.383 246.574 288.383 246.574L264.16 244.636L266.45 257.497Z" fill="#FF6D6D"/>
<path d="M283.833 246.21L285.123 256.307L282.342 258.515C283.384 259.682 284.544 261.361 285.387 263.662C287.325 268.947 287.413 271.854 289.439 272.118C291.465 272.382 288.382 246.574 288.382 246.574L283.833 246.21Z" fill="#004761"/>
<path d="M247.898 155.117C226.77 158.154 216.513 164.628 214.352 166.141L214.351 166.142C214.057 166.348 213.909 166.465 213.909 166.465C213.91 166.469 213.911 166.473 213.912 166.476C197.896 178.262 186.631 216.045 187.616 221.12C189.378 230.193 200.036 227.814 202.502 223.939C204.437 220.898 214.935 205.826 219.37 199.471C221.101 212.897 222.364 224.864 222.364 224.864H275.081L277.988 166.73C268.872 155.497 247.898 155.117 247.898 155.117Z" fill="url(#paint15_linear_1769_2988)"/>
<path d="M219.37 199.469L215.769 174.623" stroke="#D92727" stroke-width="0.8889" stroke-miterlimit="10"/>
<path d="M211.473 181.986C211.473 181.986 211.499 190.849 218.788 195.451" stroke="#D92727" stroke-width="0.8889" stroke-miterlimit="10"/>
<path d="M202.473 189.486L203.951 158.942C203.951 158.942 205.219 157.347 205.718 155.234C206.217 153.121 210.008 151.32 209.478 149.972C208.948 148.624 206.212 151.864 205.433 151.562C204.654 151.26 204.815 150.672 204.547 146.625C204.28 142.578 204.6 138.691 203.805 138.718C203.01 138.746 202.494 148.046 202.494 148.046C202.494 148.046 201.767 137.098 200.435 137.298C199.102 137.498 199.938 147.572 199.938 147.572C199.938 147.572 197.926 138.565 196.933 138.584C195.94 138.602 197.463 148.134 197.463 148.134C197.463 148.134 193.983 142.145 193.373 142.447C192.763 142.748 196.529 149.677 196.529 149.677C196.529 149.677 195.381 155.64 198.015 158.612L191.565 188.96L202.473 189.486Z" fill="#FF6D6D"/>
<path d="M219.343 199.507L216.354 178.659C216.354 178.659 211.284 182.434 211.473 191.25C211.662 200.066 204.792 198.755 204.396 204.167C204 209.579 199.155 213.543 199.155 213.543L201.86 224.73C202.109 224.475 202.328 224.21 202.502 223.937C204.433 220.902 214.893 205.884 219.343 199.507Z" fill="url(#paint16_linear_1769_2988)"/>
<path d="M242.976 224.862H275.082L277.401 178.473L264.578 175.448C258.896 179.808 257.311 185.027 257.443 188.66C257.575 192.293 251.497 195.53 250.771 200.683C250.198 204.75 245.1 219.024 242.976 224.862Z" fill="url(#paint17_linear_1769_2988)"/>
<path d="M256.585 214.754L233.86 221.096C233.86 221.096 224.809 221.096 223.687 224.862H258.502L256.585 214.754Z" fill="#F04F4F"/>
<path d="M181.196 263.131C177.922 250.796 187.557 239.439 217.57 239.439C253.985 239.439 268.388 241.553 268.388 241.553V260.931C268.388 260.931 185.943 281.014 181.196 263.131Z" fill="#004761"/>
<path d="M246.908 144.814L250.275 155.615C250.641 156.788 250.29 158.065 249.372 158.881C246.492 161.44 240.327 166.585 238.779 165.181C236.739 163.331 236.533 151.11 236.533 151.11L246.908 144.814Z" fill="#FF6D6D"/>
<path d="M247.898 147.989L246.908 144.814L236.532 151.109C236.532 151.109 236.621 156.394 237.263 160.539C242.768 158.162 246.33 151.529 247.898 147.989Z" fill="url(#paint18_linear_1769_2988)"/>
<path d="M229.941 141.725C229.941 141.725 231.157 153.122 233.74 154.338C236.323 155.554 245.441 149.111 247.341 145.304C247.341 145.304 252.265 142.263 249.803 138.233L238.679 128.733L228.878 132L229.941 141.725Z" fill="#FF6D6D"/>
<path d="M235.445 132.683C235.445 132.683 238.352 130.657 239.761 133.74C241.17 136.823 241.523 139.818 246.632 139.73C246.632 139.73 247.161 137.44 249.803 138.233C249.803 138.233 250.596 134.533 250.86 131.01C251.124 127.487 245.047 117.974 234.741 127.311C234.741 127.311 229.016 125.197 226.637 130.658C224.259 136.119 226.108 142.197 226.108 142.197C226.108 142.197 228.751 144.047 233.771 142.197C233.771 142.197 229.72 130.922 235.445 132.683Z" fill="#004761"/>
<path d="M204.396 185.828L202.954 223.243H188.272C188.272 223.243 183.388 221.427 184.049 209.404C184.71 197.381 189.73 185.093 189.73 185.093L204.396 185.828Z" fill="url(#paint19_linear_1769_2988)"/>
<path d="M277.989 166.728C282.746 172.705 290.921 194.185 293.141 214.718C293.719 220.066 289.519 224.731 284.139 224.731H254.735C254.735 224.731 252.357 217.596 253.546 212.708L265.834 210.33C265.834 210.33 264.909 207.422 267.552 207.158C267.552 207.158 266.231 200.669 262.928 188.719C259.624 176.769 272.836 160.254 277.989 166.728Z" fill="url(#paint20_linear_1769_2988)"/>
<path d="M266.494 171.965C266.494 171.965 260.281 178.032 263.619 191.25" stroke="#D92727" stroke-width="0.8889" stroke-miterlimit="10"/>
<path d="M323.981 223.243H269.37L276.108 185.827H330.72L323.981 223.243Z" fill="url(#paint21_linear_1769_2988)"/>
<path d="M304.202 209.073C307.208 206.326 307.783 202.064 305.488 199.553C303.193 197.043 298.897 197.234 295.891 199.981C292.886 202.728 292.311 206.99 294.606 209.501C296.901 212.012 301.197 211.82 304.202 209.073Z" fill="#004761"/>
<path d="M378.738 209.304C378.738 209.304 381.398 206.331 386.242 209.013" stroke="#004761" stroke-width="0.7201" stroke-miterlimit="10"/>
<path d="M408.404 356.654C408.585 358.719 403.58 360.844 397.225 361.401C390.87 361.957 385.572 360.734 385.392 358.669C385.211 356.604 390.216 354.479 396.571 353.922C402.926 353.366 408.224 354.589 408.404 356.654Z" fill="#CEDBED"/>
<path d="M460.339 356.654C460.52 358.719 455.515 360.844 449.16 361.401C442.805 361.957 437.507 360.734 437.327 358.669C437.146 356.604 442.151 354.479 448.506 353.922C454.86 353.366 460.158 354.589 460.339 356.654Z" fill="#CEDBED"/>
<path d="M404.671 314.099L400.728 349.063L393.688 353.958C393.688 353.958 386.441 355.024 386.469 356.477C386.497 357.93 401.792 356.178 405.491 356.106C409.19 356.034 406.1 353.447 406.44 350.535C406.78 347.623 415.24 313.892 415.24 313.892L404.671 314.099Z" fill="#FF6D6D"/>
<path d="M447.505 314.099L452.663 349.063L445.622 353.958C445.622 353.958 438.375 355.024 438.403 356.477C438.431 357.93 453.726 356.178 457.425 356.106C461.124 356.034 458.034 353.447 458.374 350.535C458.714 347.623 458.073 313.892 458.073 313.892L447.505 314.099Z" fill="#FF6D6D"/>
<path d="M452.023 180.248C452.023 180.248 459.686 191.556 459.378 222.72L461.008 316.762H443.37L430.006 227.384L422.076 276.117C422.076 276.117 425.918 287.681 417.303 316.762H401.64L404.553 269.035C404.553 269.035 402.345 227.46 413.619 180.248H452.023Z" fill="#004761"/>
<path d="M430.006 227.384C430.006 227.384 425.423 201.035 426.656 179.014" stroke="#38573D" stroke-width="0.7201" stroke-miterlimit="10"/>
<path d="M421.987 179.015C421.987 179.015 420.731 201.961 427.04 202.247" stroke="#38573D" stroke-width="0.7201" stroke-miterlimit="10"/>
<path opacity="0.5" d="M452.023 180.248H413.619C412.909 183.22 412.253 186.169 411.647 189.087C413.871 189.72 417.305 190.189 422.07 189.447C430.464 188.14 447.824 200.392 457.991 200.26C455.855 185.918 452.023 180.248 452.023 180.248Z" fill="url(#paint22_linear_1769_2988)"/>
<path d="M412.122 124.282L388.974 140.776L379.443 128.741L380.412 128.102L376.977 119.822L372.281 122.764C371.233 123.42 370.705 124.672 371.002 125.872C371.561 128.131 372.881 131.452 375.832 131.626C375.832 131.626 378.827 151.114 386.93 153.614C395.034 156.113 420.666 134.005 420.666 134.005L412.122 124.282Z" fill="#FF6D6D"/>
<path d="M412.122 124.282L396.615 135.332C401.78 135.46 410.316 136.403 411.772 141.137C416.884 137.264 420.666 134.004 420.666 134.004L412.122 124.282Z" fill="url(#paint23_linear_1769_2988)"/>
<path d="M423.686 114.591L411.614 123.196C410.804 123.774 410.682 124.93 411.354 125.665L420.843 136.032L423.686 114.591Z" fill="#004761"/>
<path d="M427.712 113.657C422.868 116.388 414.324 129.952 414.324 129.952C413.619 123.346 416.438 117.268 416.438 117.268C416.438 117.268 410.448 117.18 409.744 115.771C407.436 111.154 414.677 100.797 414.677 100.797C404.9 98.5072 401.377 92.6052 407.807 88.7302C414.237 84.8542 421.548 81.4192 421.548 81.4192C421.548 81.4192 425.392 75.4252 432.996 80.5382C437.843 83.7972 437.305 89.8752 438.983 92.0772C440.661 94.2792 445.506 97.1862 443.744 98.4192C443.744 98.4192 451.671 101.149 453.345 108.46C453.345 108.46 445.329 106.97 440.837 109.785L427.712 113.657Z" fill="#FFA526"/>
<path d="M440.837 109.785C445.946 105.553 453.697 104.937 457.22 108.724C460.743 112.512 461.008 125.372 461.008 125.372H456.075C456.075 125.372 450.262 143.781 450.085 151.709C449.909 159.637 456.603 181.129 456.603 181.129C457.528 184.3 453.432 184.564 446.694 184.564C439.956 184.564 420.798 184.564 414.192 184.564C407.586 184.564 410.625 179.015 411.946 173.334C413.267 167.653 417.847 150.212 417.936 146.513C418.024 142.813 411.286 137.176 414.325 129.953C417.364 122.73 422.605 113.041 427.713 113.658L440.837 109.785Z" fill="#004761"/>
<path d="M441.409 119.822L440.22 126.957C440.22 126.957 441.673 128.609 445.175 128.741" stroke="#004761" stroke-width="0.7201" stroke-miterlimit="10"/>
<path d="M436.388 122.664C436.388 122.664 435.659 130.393 444.248 132.177" stroke="#004761" stroke-width="0.7201" stroke-miterlimit="10"/>
<path opacity="0.57" d="M450.085 151.708C450.127 149.8 450.498 147.283 451.034 144.563L442.873 128.39L440.22 126.956L440.936 122.662C436.895 124.181 438.834 129.402 439.56 132.769C440.285 136.137 439.032 137.79 434.011 137.525C428.99 137.261 429.123 137.789 432.029 142.546C434.936 147.303 436.714 153.611 435.549 163.025C434.871 168.503 431.751 179.967 430.11 184.561C436.661 184.561 443.276 184.561 446.695 184.561C453.433 184.561 457.529 184.297 456.604 181.126C456.603 181.128 449.909 159.636 450.085 151.708Z" fill="url(#paint24_linear_1769_2988)"/>
<path d="M388.974 140.775C388.974 140.775 390.737 141.689 391.069 144.097" stroke="#D92727" stroke-width="0.5285" stroke-miterlimit="10"/>
<path d="M381.965 131.927C380.287 131.885 377.658 131.797 375.831 131.627C375.831 131.627 376.288 134.59 377.323 138.35C380.521 136.924 385.254 138.298 387.746 139.228L381.965 131.927Z" fill="url(#paint25_linear_1769_2988)"/>
<path opacity="0.5" d="M403.938 279.104L401.64 316.762H417.302C425.917 287.681 422.075 276.117 422.075 276.117L430.006 227.384L428.418 216.263C424.902 230.355 411.862 261.043 403.938 279.104Z" fill="url(#paint26_linear_1769_2988)"/>
<path d="M386.468 356.477C386.496 357.93 401.791 356.177 405.49 356.105C408.572 356.045 406.945 354.238 406.512 351.952C400.096 355.244 402.938 349.099 400.728 349.062L393.687 353.957C393.687 353.957 386.44 355.024 386.468 356.477Z" fill="#004761"/>
<path d="M438.404 356.477C438.432 357.93 453.727 356.177 457.426 356.105C460.508 356.045 458.881 354.238 458.448 351.952C452.032 355.244 454.874 349.099 452.664 349.062L445.623 353.957C445.623 353.957 438.375 355.024 438.404 356.477Z" fill="#004761"/>
<path d="M387.747 119.823C387.747 119.823 379.501 116.257 382.643 106.215C385.785 96.1726 397.808 98.1546 397.148 88.9056C396.479 79.5336 387.032 81.9026 382.643 79.2606C378.254 76.6186 382.394 69.0866 375.832 65.9156C369.27 62.7446 362.796 67.5016 353.811 69.0866C344.826 70.6716 337.031 72.1256 337.295 69.0866C337.559 66.0476 341.919 65.6516 340.466 61.9516C339.013 58.2526 331.614 58.2526 330.557 59.3086C330.557 59.3086 338.617 59.3086 338.881 62.0836C339.145 64.8586 332.91 66.1796 333.187 71.2006C333.464 76.2216 344.43 75.1646 355.132 74.5036C365.834 73.8426 364.87 78.0706 364.031 83.3556C363.192 88.6406 364.91 92.2076 371.912 93.1326C378.915 94.0576 382.165 94.9236 378.254 102.646C374.884 109.298 377.561 115.462 383.874 119.822L387.747 119.823Z" fill="url(#paint27_linear_1769_2988)"/>
<path d="M417.935 98.5065C417.935 98.5065 418.64 99.7395 420.137 103.086C421.635 106.433 423.396 107.93 427.008 107.578L427.713 113.656C427.713 113.656 420.755 119.307 424.542 121.062C428.33 122.817 433.791 114.896 440.837 109.784C440.837 109.784 435.236 107.158 433.614 102.293C430.795 93.8375 426.479 96.1274 424.365 87.2314C424.365 87.2314 421.811 96.0405 417.935 98.5065Z" fill="#FF6D6D"/>
<path d="M433.614 102.295C433.497 101.945 433.377 101.62 433.256 101.305C431.927 104.185 429.089 107.3 427.008 107.58L427.294 110.049L438.982 108.7C437.198 107.504 434.628 105.337 433.614 102.295Z" fill="url(#paint28_linear_1769_2988)"/>
<path d="M459.378 125.372C459.378 125.372 451.186 121.144 443.127 126.561L430.179 220.105C430.179 220.105 428.329 222.284 429.518 223.242C430.707 224.201 433.482 223.804 436.653 223.804C439.824 223.804 445.373 223.804 445.373 223.804C445.373 223.804 439.692 219.975 438.238 219.247C436.785 218.519 436.256 216.273 436.256 216.273C436.256 216.273 448.411 186.941 447.222 170.69C447.222 170.69 454.754 150.212 459.378 125.372Z" fill="#FF6D6D"/>
<path d="M374.89 119.236C375.491 124.85 377.429 128.47 378.48 130.072C378.872 130.67 379.534 131.024 380.249 131.024H387.5C388.215 131.024 388.877 130.67 389.269 130.072C390.32 128.47 392.259 124.85 392.859 119.236C392.924 118.632 392.436 118.107 391.828 118.107H375.92C375.313 118.107 374.826 118.632 374.89 119.236Z" fill="#967C45"/>
<path d="M521.397 355.876C537.402 355.876 550.376 354.481 550.376 352.76C550.376 351.04 537.402 349.646 521.397 349.646C505.392 349.646 492.418 351.04 492.418 352.76C492.418 354.481 505.392 355.876 521.397 355.876Z" fill="#CEDBED"/>
<path d="M544.35 238.831H498.444V352.761H544.35V238.831Z" fill="#786337"/>
<path d="M544.35 276.257H498.444" stroke="#4F4124" stroke-width="0.8351" stroke-miterlimit="10"/>
<path d="M544.35 314.735H498.444" stroke="#4F4124" stroke-width="0.8351" stroke-miterlimit="10"/>
<path d="M544.35 279.52H498.444" stroke="#4F4124" stroke-width="0.8351" stroke-miterlimit="10"/>
<path d="M544.35 242.093H498.444" stroke="#4F4124" stroke-width="0.8351" stroke-miterlimit="10"/>
<path d="M544.35 317.997H498.444" stroke="#4F4124" stroke-width="0.8351" stroke-miterlimit="10"/>
<path d="M524.403 248.727C524.403 250.339 523.057 251.647 521.397 251.647C519.737 251.647 518.391 250.34 518.391 248.727C518.391 247.114 519.737 245.807 521.397 245.807C523.057 245.807 524.403 247.114 524.403 248.727Z" fill="white"/>
<path d="M524.403 286.863C524.403 288.475 523.057 289.783 521.397 289.783C519.737 289.783 518.391 288.476 518.391 286.863C518.391 285.25 519.737 283.943 521.397 283.943C523.057 283.943 524.403 285.25 524.403 286.863Z" fill="white"/>
<path d="M524.403 324.999C524.403 326.612 523.057 327.919 521.397 327.919C519.737 327.919 518.391 326.612 518.391 324.999C518.391 323.386 519.737 322.079 521.397 322.079C523.057 322.08 524.403 323.387 524.403 324.999Z" fill="white"/>
<path opacity="0.4" d="M498.444 257.357V352.761H511.55L498.444 257.357Z" fill="url(#paint29_linear_1769_2988)"/>
<path d="M512.376 218.94C512.376 218.94 504.305 211.942 506.815 199.787C506.815 199.787 494.528 187.764 502.719 180.497C502.719 180.497 497.963 150.505 507.74 148.655C517.517 146.805 518.574 174.023 518.574 174.023C518.574 174.023 524.123 172.982 520.556 191.141C520.556 191.141 528.219 191.86 523.066 219.077L512.376 218.94Z" fill="url(#paint30_linear_1769_2988)"/>
<path d="M507.74 148.654C507.74 148.654 510.289 188.779 517.867 219.009" stroke="#004761" stroke-width="1.092" stroke-miterlimit="10"/>
<path d="M518.442 219.009H530.994C530.994 219.009 544.999 196.879 541.035 188.687C541.035 188.687 549.095 170.322 543.81 167.811C538.525 165.301 531.919 180.495 531.919 180.495C531.919 180.495 519.752 180.1 518.442 219.009Z" fill="url(#paint31_linear_1769_2988)"/>
<path d="M543.81 167.812C543.81 167.812 529.673 193.411 524.848 219.01" stroke="#004761" stroke-width="1.092" stroke-miterlimit="10"/>
<path d="M521.397 215.877C514.672 215.877 509.3 216.684 509.397 217.666L511.482 238.83H531.313L533.398 217.666C533.494 216.685 528.122 215.877 521.397 215.877Z" fill="#004761"/>
<path d="M480.667 368.348C484.535 368.348 487.67 367.283 487.67 365.97C487.67 364.656 484.535 363.592 480.667 363.592C476.799 363.592 473.664 364.656 473.664 365.97C473.664 367.283 476.799 368.348 480.667 368.348Z" fill="#CEDBED"/>
<path d="M187.556 368.348C191.424 368.348 194.559 367.283 194.559 365.97C194.559 364.656 191.424 363.592 187.556 363.592C183.689 363.592 180.553 364.656 180.553 365.97C180.553 367.283 183.689 368.348 187.556 368.348Z" fill="#CEDBED"/>
<path d="M468.618 230.278H199.154V252.475H468.618V230.278Z" fill="#967C45"/>
<path d="M192.706 230.278L185.26 365.45H190.224L208.681 230.278H192.706Z" fill="#786337"/>
<path d="M475.067 230.278L482.512 365.45H477.548L459.091 230.278H475.067Z" fill="#786337"/>
<path opacity="0.4" d="M192.419 235.471L476.07 248.504L475.067 230.278H192.706L192.419 235.471Z" fill="url(#paint32_linear_1769_2988)"/>
<path d="M487.185 222.72H180.587V232.392H487.185V222.72Z" fill="#967C45"/>
<path opacity="0.4" d="M482.513 107.765C495.569 107.765 506.153 97.1814 506.153 84.1254C506.153 71.0693 495.569 60.4854 482.513 60.4854C469.457 60.4854 458.873 71.0693 458.873 84.1254C458.873 97.1814 469.457 107.765 482.513 107.765Z" fill="url(#paint33_linear_1769_2988)"/>
<path d="M504.297 87.4023C506.902 74.6087 498.642 62.126 485.848 59.5213C473.055 56.9166 460.572 65.1763 457.967 77.9699C455.362 90.7635 463.622 103.246 476.416 105.851C489.209 108.456 501.692 100.196 504.297 87.4023Z" fill="#004761"/>
<path d="M498.312 86.68C500.536 77.1805 494.638 67.6764 485.139 65.452C475.639 63.2276 466.135 69.1252 463.911 78.6247C461.687 88.1243 467.584 97.6284 477.084 99.8528C486.583 102.077 496.087 96.1795 498.312 86.68Z" fill="white"/>
<path d="M481.119 68.25V83.434L491.029 75.762" stroke="#5D94DE" stroke-width="0.7592" stroke-miterlimit="10"/>
<defs>
<linearGradient id="paint0_linear_1769_2988" x1="279.508" y1="169.899" x2="183.322" y2="360.897" gradientUnits="userSpaceOnUse">
<stop offset="0.0532" stop-color="#A1C1ED"/>
<stop offset="1" stop-color="#A1C1ED" stop-opacity="0"/>
</linearGradient>
<linearGradient id="paint1_linear_1769_2988" x1="471.79" y1="59.8183" x2="501.424" y2="261.437" gradientUnits="userSpaceOnUse">
<stop offset="0.0532" stop-color="#A1C1ED"/>
<stop offset="1" stop-color="#A1C1ED" stop-opacity="0"/>
</linearGradient>
<linearGradient id="paint2_linear_1769_2988" x1="38.5925" y1="236.999" x2="0.633761" y2="233.469" gradientUnits="userSpaceOnUse">
<stop offset="0.0428" stop-color="#004761"/>
<stop offset="1" stop-color="#557C8A"/>
</linearGradient>
<linearGradient id="paint3_linear_1769_2988" x1="71.4734" y1="226.538" x2="48.3879" y2="224.391" gradientUnits="userSpaceOnUse">
<stop offset="0.0428" stop-color="#004761"/>
<stop offset="1" stop-color="#557C8A"/>
</linearGradient>
<linearGradient id="paint4_linear_1769_2988" x1="46.5352" y1="272.529" x2="8.59403" y2="269" gradientUnits="userSpaceOnUse">
<stop offset="0.0428" stop-color="#004761"/>
<stop offset="1" stop-color="#557C8A"/>
</linearGradient>
<linearGradient id="paint5_linear_1769_2988" x1="82.9482" y1="253.449" x2="61.055" y2="251.413" gradientUnits="userSpaceOnUse">
<stop offset="0.0428" stop-color="#004761"/>
<stop offset="1" stop-color="#557C8A"/>
</linearGradient>
<linearGradient id="paint6_linear_1769_2988" x1="47.6969" y1="200.152" x2="13.9869" y2="197.017" gradientUnits="userSpaceOnUse">
<stop offset="0.0428" stop-color="#004761"/>
<stop offset="1" stop-color="#557C8A"/>
</linearGradient>
<linearGradient id="paint7_linear_1769_2988" x1="532.055" y1="331.75" x2="532.055" y2="168.696" gradientUnits="userSpaceOnUse">
<stop stop-color="#6AB883"/>
<stop offset="1" stop-color="#DBB883"/>
</linearGradient>
<linearGradient id="paint8_linear_1769_2988" x1="117.583" y1="334.894" x2="117.583" y2="219.73" gradientUnits="userSpaceOnUse">
<stop stop-color="#6AB883"/>
<stop offset="1" stop-color="#DBB883"/>
</linearGradient>
<linearGradient id="paint9_linear_1769_2988" x1="328.555" y1="155.518" x2="340.345" y2="155.518" gradientUnits="userSpaceOnUse">
<stop stop-color="#F04F4F"/>
<stop offset="0.9465" stop-color="#F04F4F" stop-opacity="0.0535"/>
<stop offset="1" stop-color="#F04F4F" stop-opacity="0"/>
</linearGradient>
<linearGradient id="paint10_linear_1769_2988" x1="124.779" y1="167.34" x2="124.779" y2="213.779" gradientUnits="userSpaceOnUse">
<stop offset="0.0268" stop-color="#0C3069"/>
<stop offset="1" stop-color="#0C3069" stop-opacity="0"/>
</linearGradient>
<linearGradient id="paint11_linear_1769_2988" x1="148.924" y1="133.687" x2="173.517" y2="167.055" gradientUnits="userSpaceOnUse">
<stop stop-color="#0C3069"/>
<stop offset="1" stop-color="#0C3069" stop-opacity="0"/>
</linearGradient>
<linearGradient id="paint12_linear_1769_2988" x1="99.0946" y1="132.823" x2="73.8993" y2="163.471" gradientUnits="userSpaceOnUse">
<stop stop-color="#0C3069"/>
<stop offset="1" stop-color="#0C3069" stop-opacity="0"/>
</linearGradient>
<linearGradient id="paint13_linear_1769_2988" x1="120.424" y1="100.455" x2="132.407" y2="100.455" gradientUnits="userSpaceOnUse">
<stop stop-color="#F04F4F"/>
<stop offset="0.9465" stop-color="#F04F4F" stop-opacity="0.0535"/>
<stop offset="1" stop-color="#F04F4F" stop-opacity="0"/>
</linearGradient>
<linearGradient id="paint14_linear_1769_2988" x1="251.026" y1="262.759" x2="244.684" y2="321.422" gradientUnits="userSpaceOnUse">
<stop stop-color="#004761"/>
<stop offset="1" stop-color="#0C3069" stop-opacity="0"/>
</linearGradient>
<linearGradient id="paint15_linear_1769_2988" x1="187.556" y1="191.251" x2="277.989" y2="191.251" gradientUnits="userSpaceOnUse">
<stop offset="0.0428" stop-color="#004761"/>
<stop offset="1" stop-color="#557C8A"/>
</linearGradient>
<linearGradient id="paint16_linear_1769_2988" x1="219.931" y1="212.747" x2="201.17" y2="193.589" gradientUnits="userSpaceOnUse">
<stop stop-color="#004761"/>
<stop offset="1" stop-color="#004761" stop-opacity="0"/>
</linearGradient>
<linearGradient id="paint17_linear_1769_2988" x1="263.434" y1="216.375" x2="255.154" y2="178.852" gradientUnits="userSpaceOnUse">
<stop stop-color="#80371D"/>
<stop offset="1" stop-color="#80371D" stop-opacity="0"/>
</linearGradient>
<linearGradient id="paint18_linear_1769_2988" x1="242.972" y1="143.57" x2="240.924" y2="159.755" gradientUnits="userSpaceOnUse">
<stop stop-color="#F04F4F"/>
<stop offset="0.9465" stop-color="#F04F4F" stop-opacity="0.0535"/>
<stop offset="1" stop-color="#F04F4F" stop-opacity="0"/>
</linearGradient>
<linearGradient id="paint19_linear_1769_2988" x1="183.988" y1="204.168" x2="204.396" y2="204.168" gradientUnits="userSpaceOnUse">
<stop offset="0.0428" stop-color="#004761"/>
<stop offset="1" stop-color="#557C8A"/>
</linearGradient>
<linearGradient id="paint20_linear_1769_2988" x1="303.779" y1="194.812" x2="258.681" y2="195.165" gradientUnits="userSpaceOnUse">
<stop offset="0.0428" stop-color="#004761"/>
<stop offset="1" stop-color="#557C8A"/>
</linearGradient>
<linearGradient id="paint21_linear_1769_2988" x1="300.045" y1="235.564" x2="300.045" y2="191.565" gradientUnits="userSpaceOnUse">
<stop offset="0.0439" stop-color="#87B2ED"/>
<stop offset="1" stop-color="white"/>
</linearGradient>
<linearGradient id="paint22_linear_1769_2988" x1="434.818" y1="179.015" x2="434.818" y2="204.736" gradientUnits="userSpaceOnUse">
<stop offset="0.0334"/>
<stop offset="1" stop-opacity="0"/>
</linearGradient>
<linearGradient id="paint23_linear_1769_2988" x1="396.615" y1="132.709" x2="420.666" y2="132.709" gradientUnits="userSpaceOnUse">
<stop stop-color="#F04F4F"/>
<stop offset="0.9465" stop-color="#F04F4F" stop-opacity="0.0535"/>
<stop offset="1" stop-color="#F04F4F" stop-opacity="0"/>
</linearGradient>
<linearGradient id="paint24_linear_1769_2988" x1="449.389" y1="110.971" x2="438.806" y2="197.553" gradientUnits="userSpaceOnUse">
<stop stop-color="#0C3069"/>
<stop offset="1" stop-color="#0C3069" stop-opacity="0"/>
</linearGradient>
<linearGradient id="paint25_linear_1769_2988" x1="375.832" y1="135.427" x2="387.747" y2="135.427" gradientUnits="userSpaceOnUse">
<stop stop-color="#F04F4F"/>
<stop offset="0.9465" stop-color="#F04F4F" stop-opacity="0.0535"/>
<stop offset="1" stop-color="#F04F4F" stop-opacity="0"/>
</linearGradient>
<linearGradient id="paint26_linear_1769_2988" x1="452.288" y1="222.37" x2="395.211" y2="307.986" gradientUnits="userSpaceOnUse">
<stop offset="0.0334"/>
<stop offset="1" stop-opacity="0"/>
</linearGradient>
<linearGradient id="paint27_linear_1769_2988" x1="362.786" y1="113.534" x2="364.636" y2="46.68" gradientUnits="userSpaceOnUse">
<stop offset="0.0493" stop-color="white"/>
<stop offset="1" stop-color="white" stop-opacity="0"/>
</linearGradient>
<linearGradient id="paint28_linear_1769_2988" x1="427.008" y1="105.677" x2="438.982" y2="105.677" gradientUnits="userSpaceOnUse">
<stop stop-color="#F04F4F"/>
<stop offset="0.9465" stop-color="#F04F4F" stop-opacity="0.0535"/>
<stop offset="1" stop-color="#F04F4F" stop-opacity="0"/>
</linearGradient>
<linearGradient id="paint29_linear_1769_2988" x1="520.033" y1="232.462" x2="484.624" y2="403.43" gradientUnits="userSpaceOnUse">
<stop/>
<stop offset="0.9315" stop-opacity="0"/>
</linearGradient>
<linearGradient id="paint30_linear_1769_2988" x1="499.904" y1="183.821" x2="524.848" y2="183.821" gradientUnits="userSpaceOnUse">
<stop offset="0.0428" stop-color="#004761"/>
<stop offset="1" stop-color="#557C8A"/>
</linearGradient>
<linearGradient id="paint31_linear_1769_2988" x1="518.442" y1="193.271" x2="545.606" y2="193.271" gradientUnits="userSpaceOnUse">
<stop offset="0.0428" stop-color="#004761"/>
<stop offset="1" stop-color="#557C8A"/>
</linearGradient>
<linearGradient id="paint32_linear_1769_2988" x1="334.245" y1="195.529" x2="334.245" y2="331.449" gradientUnits="userSpaceOnUse">
<stop/>
<stop offset="0.9315" stop-opacity="0"/>
</linearGradient>
<linearGradient id="paint33_linear_1769_2988" x1="476.661" y1="54.7132" x2="490.406" y2="123.806" gradientUnits="userSpaceOnUse">
<stop/>
<stop offset="0.9315" stop-opacity="0"/>
</linearGradient>
</defs>
</svg>
