<svg width="2631" height="1730" viewBox="0 0 2631 1730" fill="none" xmlns="http://www.w3.org/2000/svg">
<path d="M2622.23 1729.44H8.37C3.74799 1729.44 0 1725.69 0 1721.06C0 1716.44 3.74799 1712.7 8.37 1712.7H2622.23C2626.86 1712.7 2630.6 1716.44 2630.6 1721.06C2630.6 1725.69 2626.86 1729.44 2622.23 1729.44Z" fill="#2E5B99"/>
<path d="M1698.2 532.081V461.536C1698.2 429.5 1724.15 403.529 1756.19 403.529H2373.66C2405.69 403.529 2431.66 429.5 2431.66 461.536V1708.57H834.456V532.081H1698.2Z" fill="white"/>
<path d="M1693.07 532.081V461.536C1693.07 429.5 1719.02 403.529 1751.06 403.529H2368.53C2400.56 403.529 2426.53 429.5 2426.53 461.536V1708.57H829.325V532.081H1693.07Z" fill="#004761"/>
<path d="M2373.03 580.828V1708.57H893.453V575.286L2373.03 580.828Z" fill="#BAE2FF"/>
<path d="M2291.8 580.828V1708.57H812.219V575.286L2291.8 580.828Z" fill="#35C2C1"/>
<path d="M752.573 532.09H2214.29C2244.29 532.09 2266.39 552.393 2270.7 580.466V1708.57H675.376L675.379 609.088C675.016 568.569 711.583 532.09 752.573 532.09Z" fill="white"/>
<path d="M1288.73 950.865L2143.06 953.257L2144.87 303.992L1290.55 301.6L1288.73 950.865Z" fill="#EBF3FF"/>
<path d="M1311.11 919.728L2121.73 921.997L2123.4 325.121L1312.78 322.852L1311.11 919.728Z" fill="#35C2C1"/>
<path d="M2053.41 873.898L1532.48 872.439L1817.31 599.188L2053.41 873.898Z" fill="#E3EEFF"/>
<path d="M1816.54 873.234L1378.84 872.009L1616.35 646.174L1816.54 873.234Z" fill="#E3EEFF"/>
<path d="M1697.25 581.069C1720.8 557.51 1720.8 519.313 1697.25 495.753C1673.69 472.194 1635.49 472.194 1611.93 495.753C1588.37 519.313 1588.37 557.51 1611.93 581.069C1635.49 604.628 1673.69 604.628 1697.25 581.069Z" fill="#E3EEFF"/>
<path d="M1174.93 873.101L1966.96 875.635L1969.16 186.855L1177.14 184.321L1174.93 873.101Z" fill="#EBF3FF"/>
<path d="M1197.96 840.112L1945.01 842.503L1947.03 209.301L1199.98 206.91L1197.96 840.112Z" fill="#35C2C1"/>
<path d="M1873.69 296.682H1576.17V322.821H1873.69V296.682Z" fill="#CCE5FF"/>
<path d="M1268.38 393.407L1873.69 393.407V367.268L1268.38 367.268V393.407Z" fill="#CCE5FF"/>
<path d="M1268.38 465.276L1873.69 465.276V439.137L1268.38 439.137V465.276Z" fill="#CCE5FF"/>
<path d="M745.535 532.09H2207.25C2237.25 532.09 2259.35 552.393 2263.66 580.466V1712.61H668.337L668.34 609.087C667.978 568.569 704.545 532.09 745.535 532.09Z" fill="#004761"/>
<path d="M2270.7 1708.57H2431.67V1702.08H2270.7V1708.57Z" fill="white"/>
<path opacity="0.5" d="M2431.66 1009.24L2373.03 1047.49H2295.56L2270.7 1066.62V1048.45H675.376V1009.24H2431.66Z" fill="black"/>
<path d="M642.876 1026.74L2454.33 1026.74V822.067L642.876 822.067V1026.74Z" fill="#61B3F2"/>
<path d="M642.876 1026.74L2291.26 1026.74V822.067L642.876 822.067V1026.74Z" fill="#2E97E6"/>
<path d="M1835.55 822.067V1026.67H1692.33L1792.75 822.067H1835.55Z" fill="#0E0E0E"/>
<path d="M1786.05 924.177C1786.05 952.491 1791 978.117 1799.32 996.554C1807.43 1015.43 1818.71 1026.67 1831.18 1026.67H1869.21V822.136H1831.18C1806.24 822.136 1786.05 867.988 1786.05 924.177ZM1822.08 957.891C1814.96 955.641 1809.41 941.715 1809.41 924.177C1809.41 907.101 1814.95 893.163 1822.08 890.913C1829.2 893.163 1834.75 907.1 1834.75 924.177C1834.75 941.714 1829.2 955.641 1822.08 957.891Z" fill="#2475B3"/>
<path d="M1805.43 924.177C1805.43 952.491 1810.61 978.117 1819.3 996.554C1827.8 1015.43 1839.6 1026.67 1852.65 1026.67H1869.22V822.136H1852.65C1826.55 822.136 1805.43 867.988 1805.43 924.177ZM1823.66 924.177C1823.66 907.101 1834.43 893.163 1841.88 890.913C1849.33 893.163 1855.13 907.1 1855.13 924.177C1855.13 941.714 1849.33 955.641 1841.88 957.891C1834.42 955.641 1823.66 941.714 1823.66 924.177Z" fill="#3F9EE6"/>
<path d="M1804.28 924.177C1804.28 952.491 1809.22 978.117 1817.54 996.554C1825.65 1015.43 1836.94 1026.67 1849.4 1026.67H1887.44V822.136H1849.4C1824.46 822.136 1804.28 867.988 1804.28 924.177ZM1840.3 957.891C1833.18 955.641 1827.63 941.715 1827.63 924.177C1827.63 907.101 1833.18 893.163 1840.3 890.913C1847.43 893.163 1852.97 907.1 1852.97 924.177C1852.97 941.714 1847.43 955.641 1840.3 957.891Z" fill="#2475B3"/>
<path d="M1823.65 924.177C1823.65 952.491 1828.83 978.117 1837.53 996.554C1846.02 1015.43 1857.82 1026.67 1870.87 1026.67H1887.44V822.136H1870.87C1844.78 822.136 1823.65 867.988 1823.65 924.177ZM1841.88 924.177C1841.88 907.101 1847.68 893.163 1855.13 890.913C1862.59 893.163 1868.39 907.1 1868.39 924.177C1868.39 941.714 1862.59 955.641 1855.13 957.891C1847.68 955.641 1841.88 941.714 1841.88 924.177Z" fill="#61B3F2"/>
<path d="M1849.22 1028C1847.61 1028 1838.33 1027.57 1828.54 1018.16C1817.41 1007.48 1804.15 983.358 1804.15 929.082C1804.15 877.377 1816.24 850.759 1826.39 837.534C1837.55 822.973 1848.71 820.904 1849.18 820.823C1849.9 820.702 1850.59 821.185 1850.71 821.909C1850.84 822.633 1850.36 823.32 1849.63 823.447C1849.53 823.466 1838.86 825.511 1828.32 839.389C1818.51 852.304 1806.81 878.348 1806.81 929.081C1806.81 982.295 1819.57 1005.8 1830.28 1016.14C1840 1025.54 1849.27 1025.35 1849.35 1025.34C1850.1 1025.31 1850.7 1025.88 1850.73 1026.62C1850.76 1027.35 1850.19 1027.97 1849.46 1028C1849.43 1028 1849.35 1028 1849.22 1028Z" fill="#1A5380"/>
<path d="M1855.12 955.15C1856.92 955.6 1858.25 956.05 1860.05 956.5C1859.6 956.95 1859.6 956.95 1860.05 956.95C1932.43 978.526 1985.92 1045.05 1985.92 1124.62V1295.48H2043.46V1124.62C2043.46 1014.04 1965.69 921.436 1861.85 898.06C1859.6 897.16 1857.35 896.71 1855.11 896.271C1838.48 892.672 1837.13 952.461 1855.12 955.15Z" fill="#E6E6E6"/>
<path d="M1787.01 893.21V950.431C1712.84 959.979 1652.95 1015.01 1637.03 1086.91C1636.57 1088.7 1636.13 1090.05 1636.13 1091.4C1635.23 1095.45 1634.78 1099.04 1634.33 1103.09C1633.43 1110.28 1632.98 1117.47 1632.98 1124.66V1295.53H1575.89V1124.66C1575.89 1003.82 1668.76 904.81 1787.01 893.21Z" fill="#E6E6E6"/>
<path d="M1853.79 938.271C1988.71 961.932 2006.08 1108.83 2006.08 1108.83V1295.53H1985.84V1124.66C1985.84 1043.42 1930.14 975.508 1855.16 955.272C1849.43 953.413 1845.86 936.636 1845.86 936.636C1845.86 936.636 1849.4 937.431 1853.79 938.271Z" fill="#999999"/>
<path d="M1787.01 938.271V950.431C1712.84 959.979 1652.95 1015.01 1637.03 1086.91C1640.25 1044.94 1675.06 953.218 1787.01 938.271Z" fill="#808080"/>
<path d="M1855.12 955.15C1856.92 955.6 1858.25 956.05 1860.05 956.5C1858.7 952.9 1851.39 944.734 1850.49 927.657C1849.59 910.12 1855.55 898.264 1861.85 898.061C1859.6 897.161 1857.35 896.711 1855.12 896.272C1838.48 892.672 1837.13 952.461 1855.12 955.15Z" fill="#666666"/>
<path d="M2092.83 1248.9H1525.99V1712.26H2092.83V1248.9Z" fill="#35C2C1"/>
<path d="M1817.94 1363.36C1816.14 1362.91 1814.34 1362.91 1812.54 1362.91C1773.89 1362.91 1742.42 1394.21 1742.42 1433.24C1742.42 1461.83 1759.5 1486.33 1783.78 1497.68V1617.02C1783.78 1632.91 1796.81 1646.07 1812.54 1646.07C1813.89 1646.07 1815.69 1646.07 1817.04 1645.61H1818.38C1831.42 1642.89 1841.32 1631.09 1841.32 1617.02V1497.68C1865.58 1486.79 1882.67 1461.83 1882.67 1433.24C1882.67 1396.03 1854.34 1366.08 1817.94 1363.36Z" fill="#35C2C1"/>
<path d="M1817.94 1363.36C1781.53 1365.62 1752.75 1396.03 1752.75 1433.24C1752.75 1461.83 1769.84 1486.33 1794.12 1497.68V1617.02C1794.12 1631.09 1804 1642.89 1817.04 1645.61H1818.38C1831.42 1642.89 1841.32 1631.09 1841.32 1617.02V1497.68C1865.58 1486.79 1882.67 1461.83 1882.67 1433.24C1882.67 1396.03 1854.34 1366.08 1817.94 1363.36Z" fill="#004761"/>
<path d="M1705.86 1712.26H1525.99V1248.9H1575.89C1575.89 1248.9 1562.64 1590.79 1705.86 1712.26Z" fill="#35C2C1"/>
<path d="M1971.13 1712.26C2014.09 1620.33 2006.08 1373.2 2006.08 1248.9H2063.17V1712.26H1971.13Z" fill="#35C2C1"/>
<path d="M1386.48 1282.63C1386.48 1282.63 1328.32 1280.75 1271.02 1283.49C1211.49 1286.39 1152.81 1294.26 1161.2 1314.79C1163.08 1319.41 1163.42 1323.85 1162.39 1328.3C1150.42 1383.21 933.344 1424.27 885.447 1390.57C849.695 1365.42 751.164 1397.75 710.795 1415.2C633.913 900.568 631.765 374.471 699.847 337.866C767.928 301.428 956.608 347.618 956.608 347.618C956.608 347.618 1052.23 372.934 1091.23 634.486C1130.4 895.862 1386.48 1282.63 1386.48 1282.63Z" fill="#4582E6"/>
<path d="M1161.2 1314.79C1163.08 1319.41 1163.42 1323.85 1162.39 1328.3C1103.55 1148.86 964.989 636.193 1015.28 775.952C1063.52 910.745 1214.91 1183.76 1271.02 1283.48C1211.49 1286.39 1152.81 1294.26 1161.2 1314.79Z" fill="#3D73CC"/>
<path d="M692.737 473.939C636.801 542.363 626.537 558.955 574.193 562.551C591.813 573.668 602.247 588.719 609.431 604.973H609.602C624.998 638.671 627.222 678.016 654.077 700.079L621.918 731.727L613.708 739.937C613.708 739.937 612.51 738.91 610.458 737.03C596.431 724.029 540.665 671.513 507.481 623.273C487.98 595.221 476.177 568.706 484.387 552.114C497.73 503.874 531.942 404.83 619.011 375.237C676.146 313.144 732.081 346.5 751.925 372.33C778.438 406.885 751.753 480.78 692.737 473.939Z" fill="#004761"/>
<path d="M654.077 700.079L621.918 731.727L610.457 737.031C597.286 724.715 546.994 677.498 513.466 631.656C511.413 628.92 509.361 626.014 507.479 623.274C524.071 623.103 577.442 621.737 609.43 604.974H609.601C610.97 607.881 612.167 610.787 613.194 613.694C625.51 645.17 629.445 679.896 654.077 700.079Z" fill="#231F20"/>
<path d="M613.195 613.693C577.785 635.251 537.244 634.566 513.467 631.655C511.414 628.919 509.362 626.013 507.48 623.273C524.072 623.102 577.443 621.736 609.431 604.973H609.602C610.971 607.88 612.168 610.787 613.195 613.693Z" fill="#66B8FF"/>
<path d="M629.975 670.877C629.975 670.877 666.615 674.28 677.705 683.926C686.971 691.985 681.312 702.047 681.312 702.047C701.031 713.136 681.315 756.142 646.885 766.758C612.455 777.374 589.897 712.519 589.897 712.519C589.897 712.519 595.142 673.188 629.975 670.877Z" fill="#231F20"/>
<path d="M1092.25 1714.54H967.953C965.394 1713.08 963.501 1711.43 962.381 1709.55C955.978 1617.11 946.761 1572.59 946.761 1572.59L1033.33 1569.07L1052.93 1637.84C1081.93 1657.67 1116.5 1700.19 1092.25 1714.54Z" fill="#231F20"/>
<path d="M958.531 1716.21H1105.9C1109.63 1716.21 1108.38 1695.72 1104.64 1695.72L958.156 1696.54C954.311 1696.54 954.686 1716.21 958.531 1716.21Z" fill="#231F20"/>
<path d="M907.179 729.949C927.292 784.065 1012.88 1032.01 988.444 1210.51C1022.05 1329.22 1011.5 1429.77 1041.81 1603.13L953.587 1607.78C917.729 1396.25 878.268 1436.62 866.849 1227.14C794.156 1062.89 756.455 907.287 737.114 747.089C718.303 626.321 866.572 562.903 907.179 729.949Z" fill="#004761"/>
<path d="M954.503 1616.79C954.503 1616.79 947.899 1553.84 906.394 1433.59C893.507 1396.64 886.52 1372.18 882.892 1357.12C879.256 1341.9 878.806 1336.08 878.806 1336.08C900.687 1310.76 928.456 1272.62 953.119 1226.78C980.115 1269.03 1012.24 1311.28 1012.24 1311.28C1012.24 1311.28 1013.06 1321.2 1014.52 1337.45C1021.03 1405.53 1038.53 1585.49 1049.08 1623.63C1062.12 1670.84 980.098 1697.7 954.503 1616.79Z" fill="#231F20"/>
<path d="M1014.52 1337.45C1000.43 1321.71 975.062 1292.12 953.843 1259.79C944.223 1294.68 903.822 1336.94 882.892 1357.12C879.256 1341.9 878.806 1336.08 878.806 1336.08C900.687 1310.76 928.456 1272.62 953.119 1226.77C980.115 1269.03 1012.24 1311.28 1012.24 1311.28C1012.24 1311.28 1013.06 1321.2 1014.52 1337.45Z" fill="#66B8FF"/>
<path d="M802.844 752.892C796.615 988.599 754.597 1188.81 754.597 1188.81C772.388 1349.62 731.933 1379.6 713.656 1609.66L633.92 1608.6C633.718 1515.22 628.304 1399.58 622.63 1212.35C572.431 1016.67 596.61 872.553 615.328 755.577C635.302 622.711 815.593 578.739 802.844 752.892Z" fill="#004761"/>
<path d="M713.656 1609.66C720.768 1647.75 725.873 1677.47 722.886 1711.94L529.772 1715.7C529.772 1715.7 510.656 1697.08 534.69 1669.16C558.723 1641.23 604.363 1657.39 633.92 1608.6L713.656 1609.66Z" fill="#231F20"/>
<path d="M521.002 1716.21H726.174C729.911 1716.21 728.93 1695.72 725.193 1695.72L520.89 1696.54C517.045 1696.54 517.157 1716.21 521.002 1716.21Z" fill="#231F20"/>
<path d="M752.013 1349.59C752.013 1349.59 750.63 1356.44 748.279 1368.07C738.564 1418.87 712.506 1560.68 715.559 1624.49C679.311 1667.77 632.194 1619.7 632.194 1619.7L613.2 1269.2L611.901 1245.59C663.027 1302.39 716.136 1332.66 752.013 1349.59Z" fill="#231F20"/>
<path d="M752.013 1349.59C752.013 1349.59 750.63 1356.44 748.279 1368.07C677.846 1347.54 634.484 1299.3 613.2 1269.2L611.901 1245.59C663.027 1302.39 716.136 1332.66 752.013 1349.59Z" fill="#66B8FF"/>
<path d="M621.272 741.748C621.272 782.508 910.735 770.71 910.735 729.949C909.769 662.701 919.042 607.358 931.691 561.604C1018.47 476.581 1013.3 410.587 991.306 374.781C953.385 313.043 761.817 316.542 692.849 343.078C665.459 353.619 628.683 396.549 616.92 464.993C610.872 500.181 636.783 541.157 640.877 569.604C650.35 635.433 623.198 732.297 621.272 741.748Z" fill="#004761"/>
<path d="M801.717 371.088C815.999 359.744 872.971 342.241 888.123 329.834L884.703 230.938L828.687 225.484C812.437 226.83 796.193 230.724 782.223 236.241L769.614 301.36L766.832 315.481C760.489 329.38 773.058 346.139 801.717 371.088Z" fill="#F7A594"/>
<path d="M865.852 253.329C857.066 266.853 820.276 301.484 769.614 301.361L780.523 245.021L865.852 253.329Z" fill="#E6836F"/>
<path d="M741.87 123.053C737.478 142.537 728.427 185.311 729.907 205.012C732.16 235.004 760.173 268.269 784.603 272.635C812.884 275.516 851.005 267.096 871.704 249.311C883.224 235.811 905.52 203.785 915.782 175.75C937.186 117.276 895.866 65.999 843.449 54.155C791.031 42.313 755.564 62.31 741.87 123.053Z" fill="#F7A594"/>
<path d="M898.224 214.38C909.155 195.14 894.629 187.346 878.707 202.283C881.428 187.766 897.98 145.228 883.321 131.123C866.762 114.757 793.895 121.879 754.75 81.063C754.75 81.063 783.927 17.09 879.695 54.87C987.857 112.221 898.224 214.38 898.224 214.38Z" fill="#73382A"/>
<path d="M912.989 219.481C921.321 209.454 921.758 196.076 913.965 189.6C906.172 183.124 893.1 186.003 884.768 196.03C876.436 206.057 875.999 219.435 883.792 225.91C891.585 232.386 904.657 229.508 912.989 219.481Z" fill="#F7A594"/>
<path d="M770.03 295.658C779.604 312.754 878.085 303.864 886.975 289.502L892.447 344.213L800.805 396.189L752.933 343.529L770.03 295.658Z" fill="#004761"/>
<path d="M931.868 114.095C929.17 66.2069 836.482 -1.37303 769.994 23.715C725.149 40.636 735.667 88.2429 774.715 97.2329C809.145 105.16 904.505 63.8869 931.868 114.095Z" fill="#231F20"/>
<path d="M761.72 23.867C761.72 23.867 763.689 10.211 771.062 0C719.037 34.078 744.929 74.83 745.54 76.568C766.172 13.92 815.401 16.797 832.884 17.019C787.907 -4.15202 762.169 21.992 761.72 23.867Z" fill="#231F20"/>
<path d="M617.658 755.578C693.171 788.145 867.62 780.976 919.754 756.025L933.086 800.189C819.657 826.925 711.138 827.677 608.114 799.354L617.658 755.578Z" fill="#66B8FF"/>
<path d="M1122.95 652.015C1073 705.555 967.63 766.624 967.63 766.624L935.299 720.096C968.827 701.62 987.302 653.723 1019.29 620.88C1030.24 609.592 1042.72 600.182 1057.78 594.023C1006.8 580.851 981.143 568.193 938.72 490.702C879.363 486.597 866.533 408.939 898.863 380.027C923.154 358.302 984.393 335.554 1029.21 407.056C1109.27 452.043 1143.48 550.231 1147.76 600.183C1151.69 614.378 1140.91 632.683 1122.95 652.015Z" fill="#004761"/>
<path d="M964.288 695.739C964.288 695.739 927.643 692.387 914.977 699.843C904.394 706.073 908.118 716.999 908.118 716.999C886.704 724.296 898.226 770.182 930.136 786.913C962.045 803.644 996.079 744.006 996.079 744.006C996.079 744.006 998.113 704.378 964.288 695.739Z" fill="#231F20"/>
<path d="M1122.95 652.015C1119.87 655.264 1116.62 658.685 1113.2 661.934C1060.52 712.909 967.631 766.625 967.631 766.625L935.3 720.097C964.209 704.185 981.829 666.553 1006.63 635.419C1010.57 630.291 1014.84 625.5 1019.29 620.881C1031.78 628.235 1069.07 647.905 1122.95 652.015Z" fill="#231F20"/>
<path d="M1122.95 652.015C1119.87 655.264 1116.62 658.685 1113.2 661.934C1068.04 659.712 1025.62 643.462 1006.63 635.419C1010.57 630.291 1014.84 625.5 1019.29 620.881C1031.78 628.235 1069.07 647.905 1122.95 652.015Z" fill="#66B8FF"/>
<path d="M829.613 452.542C829.633 452.373 829.642 452.298 829.644 452.281C829.64 452.313 829.613 452.542 829.613 452.542Z" fill="#D9FFFF"/>
<path d="M829.613 452.542C829.633 452.373 829.642 452.298 829.644 452.281C829.64 452.313 829.613 452.542 829.613 452.542Z" fill="#D9FFFF"/>
<path d="M739.19 439.571C739.19 439.571 739.217 439.342 739.221 439.31C739.219 439.327 739.21 439.402 739.19 439.571Z" fill="#D9FFFF"/>
<path d="M739.19 439.571C739.19 439.571 739.217 439.342 739.221 439.31C739.219 439.327 739.21 439.402 739.19 439.571Z" fill="#D9FFFF"/>
<path d="M787.558 418.552C796.557 432.707 812.106 445.522 829.553 452.59C829.395 453.931 828.522 461.362 824.496 495.614C819.125 541.305 777.478 557.837 771.017 560.364C765.526 556.485 728.811 528.349 734.181 482.658C738.207 448.406 739.08 440.975 739.238 439.634C757.739 437.723 775.584 429.699 787.558 418.552Z" fill="white"/>
<path d="M782.811 442.819C782.787 442.839 782.76 442.857 782.735 442.876C774.047 449.745 762.572 454.501 750.348 456.271L746.913 485.489C745.341 498.859 748.73 511.62 756.983 523.418C762.174 530.838 767.921 535.892 771.117 538.4C771.26 538.512 771.405 538.627 771.537 538.729C775.077 537.3 782.113 533.998 789.149 528.032C799.857 518.954 806.082 507.573 807.654 494.204L811.088 464.984C799.646 459.81 789.625 451.945 782.811 442.819Z" fill="#F7AF0C"/>
<path d="M758.041 328.917C762.946 341.542 779.336 352.663 797.816 363.501C835.349 357.358 864.139 345.738 892.302 329.259C920.009 329.13 939.947 339.792 960.455 347.66L796.836 374.288L700.73 338.005C713.512 333.352 731.812 330.203 758.041 328.917Z" fill="#66B8FF"/>
<path d="M1320.17 668.471C1320.16 667.666 1320.16 667.311 1320.16 667.229C1320.16 667.379 1320.17 668.471 1320.17 668.471Z" fill="#D9FFFF"/>
<path d="M1320.17 668.471C1320.16 667.666 1320.16 667.311 1320.16 667.229C1320.16 667.379 1320.17 668.471 1320.17 668.471Z" fill="#D9FFFF"/>
<path d="M837.446 673.787C837.446 673.787 837.434 672.695 837.432 672.546C837.433 672.626 837.437 672.981 837.446 673.787Z" fill="#D9FFFF"/>
<path d="M837.446 673.787C837.446 673.787 837.434 672.695 837.432 672.546C837.433 672.626 837.437 672.981 837.446 673.787Z" fill="#D9FFFF"/>
<path d="M1076.95 540.24C1133.6 599.853 1223.69 648.423 1319.89 668.737C1319.96 675.123 1320.35 710.501 1322.17 873.569C1324.58 1091.1 1117.3 1198.77 1085.12 1215.29C1053.74 1201.16 842.428 1096.41 840.011 878.878C838.199 715.811 837.806 680.432 837.735 674.046C933.454 651.619 1021.64 601.086 1076.95 540.24Z" fill="white"/>
<path d="M1077.79 579.553C1133.21 629.494 1209.79 668.53 1293.86 689.529L1295.9 873.836C1296.84 958.169 1263.69 1034.68 1197.36 1101.26C1153.78 1145.01 1107.84 1172.26 1084.51 1184.54C1083.5 1184.04 1082.39 1183.47 1081.3 1182.91L1077.31 579.984C1077.47 579.84 1077.64 579.699 1077.79 579.553Z" fill="#007880"/>
<path d="M1077.31 579.985L1081.3 1182.91C1056.88 1170.47 1012.48 1144.71 969.841 1103.77C902.054 1038.67 867.207 962.899 866.271 878.566L864.223 694.256C947.563 671.481 1023.05 630.929 1077.31 579.985Z" fill="#008F99"/>
<path d="M981.559 846.283L982.505 989.07C982.61 1004.97 1177.64 1003.69 1177.53 987.79L1176.58 845.003L981.559 846.283ZM1055.34 899.701C1055.25 886.454 1065.92 875.696 1079.23 875.608C1092.53 875.521 1103.43 886.137 1103.52 899.384C1103.58 909.067 1097.77 917.511 1089.44 921.311L1089.71 961.872C1089.74 967.263 1085.37 971.768 1079.86 971.804C1074.45 971.84 1070.01 967.392 1069.98 962.001L1069.71 921.532C1061.24 917.843 1055.4 909.475 1055.34 899.701Z" fill="white"/>
<path d="M998.562 835.994L1018.3 835.865L1018.24 826.25C1018.02 792.935 1045.07 765.654 1078.53 765.434C1112 765.214 1139.41 792.139 1139.63 825.454L1139.69 835.068L1159.43 834.938L1159.37 825.324C1159.08 781.173 1122.76 745.492 1078.4 745.783C1034.05 746.074 998.206 782.229 998.498 826.379L998.562 835.994Z" fill="white"/>
</svg>
