<svg width="500" height="500" viewBox="0 0 500 500" fill="none" xmlns="http://www.w3.org/2000/svg">
<path d="M105.985 139.068L98.1816 196.295L188.42 208.599L196.223 151.373L105.985 139.068Z" fill="#EBEBEB"/>
<path d="M105.991 139.064C109.161 143.047 112.419 146.891 115.624 150.822C118.866 154.683 122.121 158.546 125.396 162.374C128.812 166.372 132.247 170.334 135.685 174.278C135.792 174.405 135.885 174.531 135.992 174.658C139.038 178.135 142.097 181.615 145.156 185.094L145.613 185.588L146.172 185.232C150.051 182.699 153.917 180.164 157.785 177.611C157.919 177.535 158.057 177.441 158.194 177.347C162.576 174.469 166.946 171.571 171.311 168.616C175.474 165.821 179.645 162.971 183.802 160.119C187.942 157.189 192.111 154.358 196.231 151.369C191.948 153.828 187.712 156.444 183.46 158.982C179.213 161.578 174.967 164.173 170.74 166.828C166.034 169.756 161.321 172.738 156.616 175.76C156.602 175.758 156.602 175.758 156.586 175.775C153.064 178.018 149.539 180.281 146.014 182.542C143.237 179.421 140.45 176.279 137.654 173.193C137.645 173.154 137.645 173.154 137.632 173.153C133.905 169 130.176 164.866 126.415 160.765C123.05 157.094 119.67 153.44 116.271 149.82C112.84 146.234 109.46 142.58 105.991 139.064Z" fill="white"/>
<path d="M156.304 177.047C156.341 177.08 156.362 177.124 156.399 177.157C156.818 177.628 157.237 178.099 157.657 178.557C159.66 180.776 161.727 182.922 163.843 185.019C166.417 187.606 169.071 190.108 171.741 192.598C174.43 195.049 177.134 197.488 179.917 199.855C182.7 202.222 185.516 204.553 188.462 206.735C186.052 203.963 183.511 201.339 180.935 198.766C178.348 196.177 175.694 193.675 173.038 191.187C170.337 188.721 167.633 186.282 164.85 183.914C162.637 182.025 160.379 180.157 158.054 178.377C157.518 177.959 156.979 177.554 156.427 177.147C156.391 177.114 156.341 177.08 156.304 177.047Z" fill="white"/>
<path d="M98.6543 194.487C102.077 193.173 105.427 191.684 108.729 190.146C112.044 188.61 115.303 186.984 118.563 185.344C121.802 183.66 125.029 181.961 128.201 180.157C130.788 178.701 133.352 177.201 135.863 175.597C136.406 175.257 136.936 174.915 137.466 174.573C137.51 174.552 137.543 174.514 137.587 174.493C137.543 174.514 137.485 174.534 137.442 174.542C136.799 174.799 136.172 175.045 135.544 175.305C132.827 176.398 130.166 177.595 127.514 178.82C124.199 180.356 120.94 181.982 117.692 183.637C114.453 185.321 111.226 187.021 108.054 188.824C104.87 190.614 101.719 192.462 98.6543 194.487Z" fill="white"/>
<path d="M129.006 56.2494L54.3662 75.1924L66.3796 122.528L141.02 103.585L129.006 56.2494Z" fill="#EBEBEB"/>
<path d="M54.3643 75.1891C58.1113 77.3071 61.8833 79.2881 65.6403 81.3541C69.4053 83.3541 73.1803 85.3501 76.9593 87.3141C80.9043 89.3651 84.8523 91.3831 88.7973 93.3861C88.9213 93.4521 89.0343 93.5211 89.1583 93.5871C92.6473 95.3481 96.1483 97.1061 99.6483 98.8641L100.163 99.1071L100.489 98.6511C102.727 95.4361 104.954 92.2241 107.178 88.9971C107.259 88.8951 107.337 88.7781 107.415 88.6611C109.938 85.0171 112.446 81.3601 114.931 77.6611C117.309 74.1511 119.676 70.5951 122.031 67.0431C124.348 63.4351 126.719 59.8951 129.002 56.2461C126.423 59.5311 123.932 62.9231 121.403 66.2601C118.896 69.6401 116.39 73.0201 113.917 76.4411C111.156 80.2271 108.406 84.0581 105.675 87.9171C105.664 87.9201 105.664 87.9201 105.656 87.9381C103.606 90.8131 101.56 93.7031 99.5133 96.5921C96.3473 95.0251 93.1673 93.4451 89.9983 91.9121C89.9793 91.8841 89.9793 91.8841 89.9683 91.8871C85.7313 89.8121 81.4983 87.7531 77.2503 85.7301C73.4503 83.9181 69.6423 82.1241 65.8313 80.3641C62.0053 78.6401 58.1973 76.8471 54.3643 75.1891Z" fill="white"/>
<path d="M105.837 89.0244C105.876 89.0384 105.907 89.0664 105.946 89.0804C106.424 89.3174 106.901 89.5534 107.376 89.7794C109.649 90.8844 111.95 91.9114 114.273 92.8844C117.11 94.0974 119.983 95.2174 122.865 96.3234C125.749 97.3924 128.642 98.4484 131.574 99.4224C134.506 100.396 137.451 101.331 140.452 102.108C137.684 100.699 134.861 99.4474 132.027 98.2454C129.179 97.0354 126.305 95.9154 123.435 94.8064C120.537 93.7284 117.644 92.6734 114.713 91.6994C112.38 90.9194 110.018 90.1704 107.632 89.5124C107.079 89.3544 106.529 89.2074 105.967 89.0634C105.926 89.0484 105.876 89.0374 105.837 89.0244Z" fill="white"/>
<path d="M66.1719 120.96C68.4389 118.846 70.5929 116.616 72.6949 114.365C74.8069 112.111 76.8459 109.803 78.8829 107.485C80.8879 105.139 82.8799 102.784 84.7949 100.365C86.3609 98.4041 87.8969 96.4161 89.3559 94.3631C89.6739 93.9241 89.9809 93.4881 90.2879 93.0531C90.3159 93.0221 90.3299 92.9831 90.3579 92.9521C90.3299 92.9831 90.2909 93.0171 90.2599 93.0361C89.8379 93.4411 89.4239 93.8331 89.0129 94.2351C87.2299 95.9521 85.5219 97.7341 83.8319 99.5351C81.7199 101.789 79.6809 104.096 77.6579 106.423C75.6529 108.769 73.6609 111.124 71.7459 113.543C69.8169 115.954 67.9319 118.401 66.1719 120.96Z" fill="white"/>
<path d="M438.308 261.514L361.827 270.485L367.516 318.988L443.997 310.017L438.308 261.514Z" fill="#EBEBEB"/>
<path d="M361.813 270.501C365.249 273.093 368.728 275.553 372.181 278.095C375.65 280.572 379.13 283.048 382.619 285.491C386.26 288.043 389.909 290.562 393.556 293.066C393.67 293.148 393.773 293.231 393.887 293.312C397.114 295.516 400.353 297.719 403.592 299.922L404.07 300.23L404.453 299.821C407.095 296.929 409.725 294.037 412.353 291.131C412.447 291.041 412.54 290.935 412.632 290.829C415.612 287.548 418.579 284.253 421.529 280.913C424.348 277.746 427.162 274.532 429.964 271.32C432.736 268.048 435.55 264.85 438.293 261.534C435.305 264.451 432.39 267.487 429.443 270.462C426.514 273.483 423.585 276.505 420.684 279.57C417.449 282.96 414.219 286.397 411.005 289.863C410.993 289.864 410.993 289.864 410.984 289.882C408.574 292.462 406.165 295.058 403.757 297.654C400.825 295.685 397.879 293.701 394.939 291.764C394.924 291.734 394.924 291.734 394.912 291.735C390.985 289.122 387.06 286.524 383.115 283.96C379.586 281.664 376.046 279.386 372.499 277.139C368.934 274.927 365.395 272.648 361.813 270.501Z" fill="white"/>
<path d="M411.021 290.982C411.058 291.001 411.085 291.033 411.122 291.052C411.565 291.349 412.007 291.647 412.448 291.933C414.556 293.328 416.702 294.648 418.877 295.918C421.53 297.493 424.231 298.981 426.942 300.456C429.66 301.895 432.389 303.322 435.167 304.673C437.945 306.024 440.742 307.337 443.615 308.503C441.057 306.742 438.423 305.13 435.771 303.566C433.106 301.992 430.405 300.504 427.706 299.028C424.974 297.579 422.246 296.152 419.468 294.801C417.257 293.721 415.015 292.668 412.736 291.702C412.209 291.473 411.682 291.255 411.145 291.038C411.107 291.019 411.058 291.001 411.021 290.982Z" fill="white"/>
<path d="M367.502 317.427C370.027 315.629 372.456 313.702 374.835 311.747C377.225 309.79 379.55 307.771 381.874 305.74C384.17 303.678 386.454 301.605 388.67 299.459C390.481 297.721 392.264 295.952 393.981 294.109C394.354 293.716 394.716 293.324 395.077 292.932C395.109 292.905 395.128 292.868 395.159 292.841C395.127 292.868 395.084 292.896 395.051 292.912C394.579 293.258 394.118 293.592 393.658 293.937C391.664 295.405 389.738 296.946 387.825 298.51C385.435 300.467 383.11 302.486 380.799 304.527C378.503 306.589 376.219 308.662 374.002 310.808C371.774 312.944 369.584 315.122 367.502 317.427Z" fill="white"/>
<path d="M378.13 159.62L365.005 159.899L358.344 160.011C356.118 160.058 353.881 160.048 351.649 160.066L351.205 160.069L351.203 159.62L351.149 148.43L351.147 147.928L351.649 147.93L364.889 147.993C369.302 147.998 373.716 148.105 378.129 148.157L378.405 148.16L378.402 148.43C378.383 150.329 378.316 152.217 378.271 154.084L378.13 159.62ZM378.13 159.62L377.988 153.966C377.943 152.103 377.876 150.261 377.857 148.43L378.13 148.703C373.717 148.754 369.303 148.862 364.89 148.867L351.65 148.93L352.149 148.431L352.095 159.621L351.65 159.175C353.832 159.193 356.008 159.183 358.196 159.23L364.775 159.342L378.13 159.62Z" fill="#EBEBEB"/>
<path d="M363.36 173.73L350.235 174.009L343.574 174.121C341.348 174.168 339.111 174.158 336.879 174.176L336.435 174.179L336.433 173.73L336.379 162.54L336.377 162.038L336.879 162.04L350.119 162.103C354.532 162.108 358.946 162.216 363.359 162.267L363.635 162.27L363.632 162.54C363.613 164.439 363.546 166.327 363.501 168.194L363.36 173.73ZM363.36 173.73L363.218 168.076C363.173 166.213 363.106 164.371 363.087 162.54L363.36 162.813C358.947 162.864 354.533 162.972 350.12 162.977L336.88 163.04L337.379 162.541L337.325 173.731L336.88 173.285C339.062 173.303 341.238 173.293 343.426 173.34L350.005 173.452L363.36 173.73Z" fill="#EBEBEB"/>
<path d="M392.903 173.73L379.778 174.009L373.117 174.121C370.891 174.168 368.654 174.158 366.422 174.176L365.978 174.179L365.976 173.73L365.922 162.54L365.92 162.038L366.422 162.04L379.662 162.103C384.075 162.108 388.489 162.216 392.902 162.267L393.178 162.27L393.175 162.54C393.156 164.439 393.089 166.327 393.044 168.194L392.903 173.73ZM392.903 173.73L392.761 168.076C392.716 166.213 392.649 164.371 392.63 162.54L392.903 162.813C388.49 162.864 384.076 162.972 379.663 162.977L366.423 163.04L366.922 162.541L366.868 173.731L366.422 173.285C368.604 173.303 370.78 173.293 372.968 173.34L379.547 173.452L392.903 173.73Z" fill="#EBEBEB"/>
<path d="M443.346 58.2897L430.221 58.5687L423.56 58.6807C421.334 58.7277 419.097 58.7177 416.865 58.7357L416.421 58.7387L416.419 58.2897L416.365 47.0997L416.363 46.5977L416.865 46.5997L430.105 46.6627C434.518 46.6677 438.932 46.7747 443.345 46.8267L443.621 46.8297L443.618 47.0997C443.599 48.9987 443.532 50.8867 443.487 52.7537L443.346 58.2897ZM443.346 58.2897L443.204 52.6357C443.159 50.7727 443.092 48.9307 443.073 47.0997L443.346 47.3727C438.933 47.4237 434.519 47.5317 430.106 47.5367L416.866 47.5997L417.365 47.1007L417.311 58.2907L416.865 57.8447C419.047 57.8627 421.223 57.8527 423.411 57.8997L429.99 58.0117L443.346 58.2897Z" fill="#EBEBEB"/>
<path d="M458.118 72.4L444.993 72.679L438.332 72.791C436.106 72.838 433.869 72.828 431.637 72.846L431.193 72.849L431.191 72.4L431.137 61.21L431.134 60.708L431.636 60.71L444.876 60.773C449.289 60.778 453.703 60.885 458.116 60.937L458.392 60.94L458.389 61.21C458.37 63.109 458.303 64.997 458.258 66.864L458.118 72.4ZM458.118 72.4L457.976 66.746C457.931 64.883 457.864 63.041 457.845 61.21L458.118 61.483C453.705 61.534 449.291 61.642 444.878 61.647L431.638 61.71L432.137 61.211L432.083 72.401L431.638 71.955C433.82 71.973 435.996 71.963 438.184 72.01L444.763 72.122L458.118 72.4Z" fill="#EBEBEB"/>
<path d="M68.3629 58.3013L55.2379 58.5804L48.5769 58.6924C46.3509 58.7394 44.1139 58.7294 41.8819 58.7474L41.4379 58.7514L41.4359 58.3024L41.3819 47.1124L41.3799 46.6104L41.8819 46.6124L55.1219 46.6754C59.5349 46.6804 63.9489 46.7874 68.3619 46.8394L68.6379 46.8424L68.6349 47.1124C68.6159 49.0114 68.5489 50.8993 68.5039 52.7663L68.3629 58.3013ZM68.3629 58.3013L68.2209 52.6474C68.1759 50.7844 68.1089 48.9424 68.0899 47.1114L68.3629 47.3843C63.9499 47.4353 59.5359 47.5434 55.1229 47.5484L41.8829 47.6114L42.3819 47.1124L42.3279 58.3024L41.8819 57.8563C44.0639 57.8743 46.2399 57.8644 48.4279 57.9114L55.0069 58.0233L68.3629 58.3013Z" fill="#EBEBEB"/>
<path d="M431.637 318.507L444.762 318.228L451.423 318.116C453.648 318.069 455.886 318.079 458.118 318.061L458.562 318.058L458.564 318.507L458.618 329.697L458.62 330.199L458.118 330.197L444.878 330.134C440.465 330.129 436.051 330.022 431.638 329.97L431.362 329.967L431.365 329.697C431.384 327.798 431.451 325.91 431.496 324.043L431.637 318.507ZM431.637 318.507L431.779 324.161C431.824 326.024 431.891 327.866 431.91 329.697L431.637 329.424C436.05 329.373 440.464 329.265 444.877 329.26L458.117 329.197L457.618 329.696L457.672 318.506L458.118 318.952C455.936 318.934 453.76 318.944 451.572 318.897L444.993 318.785L431.637 318.507Z" fill="#EBEBEB"/>
<path d="M41.8819 318.507L55.0069 318.228L61.6679 318.116C63.8939 318.069 66.1309 318.079 68.3629 318.061L68.8069 318.058L68.8089 318.507L68.8629 329.697L68.8649 330.199L68.3629 330.197L55.1229 330.134C50.7099 330.129 46.2959 330.022 41.8829 329.97L41.6069 329.967L41.6099 329.697C41.6289 327.798 41.6959 325.91 41.7409 324.043L41.8819 318.507ZM41.8819 318.507L42.0239 324.161C42.0689 326.024 42.1359 327.866 42.1549 329.697L41.8819 329.424C46.2949 329.373 50.7089 329.265 55.1219 329.26L68.3619 329.197L67.8629 329.696L67.9169 318.506L68.3629 318.952C66.1809 318.934 64.0049 318.944 61.8169 318.897L55.2379 318.785L41.8819 318.507Z" fill="#EBEBEB"/>
<path d="M56.6539 304.396L69.7789 304.117L76.4399 304.005C78.6659 303.958 80.9029 303.968 83.1349 303.95L83.5789 303.947L83.5809 304.396L83.6349 315.586L83.6369 316.088L83.1349 316.086L69.8949 316.023C65.4819 316.018 61.0679 315.911 56.6549 315.859L56.3789 315.856L56.3819 315.586C56.4009 313.687 56.4679 311.799 56.5129 309.932L56.6539 304.396ZM56.6539 304.396L56.7959 310.05C56.8409 311.913 56.9079 313.755 56.9269 315.586L56.6539 315.313C61.0669 315.262 65.4809 315.154 69.8939 315.149L83.1339 315.086L82.6349 315.585L82.6889 304.395L83.1349 304.841C80.9529 304.823 78.7769 304.833 76.5889 304.786L70.0099 304.674L56.6539 304.396Z" fill="#EBEBEB"/>
<path d="M323.775 136.21L460.029 136.21V128.121L323.775 128.121V136.21Z" fill="#EBEBEB"/>
<path d="M449.687 136.215H441.593V162.973H449.687V136.215Z" fill="#EBEBEB"/>
<path d="M449.687 136.215H441.593V144.486H449.687V136.215Z" fill="#DBDBDB"/>
<path d="M342.206 136.215H334.112V162.973H342.206V136.215Z" fill="#EBEBEB"/>
<path d="M342.206 136.215H334.112V144.486H342.206V136.215Z" fill="#DBDBDB"/>
<path d="M425.593 128.122V76.5596H412.608V128.122H425.593Z" fill="#C7C7C7"/>
<path d="M425.593 79.4688V73.8027H412.608V79.4688H425.593Z" fill="#DBDBDB"/>
<path d="M425.592 88.8325V86.7295H412.607V88.8325H425.592Z" fill="#DBDBDB"/>
<path d="M425.592 121.359V115.693H410.989V121.359H425.592Z" fill="#DBDBDB"/>
<path d="M412.608 128.123V67.9746H403.533V128.123H412.608Z" fill="#DBDBDB"/>
<path d="M410.833 96.7629V73.6289H405.387V96.7629H410.833Z" fill="#EBEBEB"/>
<path d="M345.354 128.144L388.131 85.8604L381.751 79.4062L338.974 121.69L345.354 128.144Z" fill="#C7C7C7"/>
<path d="M354.095 116.911L370.548 100.647L366.719 96.7743L350.266 113.037L354.095 116.911Z" fill="#DBDBDB"/>
<path d="M403.539 128.132V82.4453H388.128V128.132H403.539Z" fill="#A6A6A6"/>
<path d="M403.539 123.288V119.03H388.128V123.288H403.539Z" fill="#C7C7C7"/>
<path d="M403.539 116.236V114.585H388.128V116.236H403.539Z" fill="#C7C7C7"/>
<path d="M436.237 128.132V85.1963H425.592V128.132H436.237Z" fill="#A6A6A6"/>
<path d="M436.236 123.582V119.58H425.591V123.582H436.236Z" fill="#C7C7C7"/>
<path d="M436.237 98.0489V94.0469H425.592V98.0489H436.237Z" fill="#C7C7C7"/>
<path d="M436.237 102.342V100.79H425.592V102.342H436.237Z" fill="#C7C7C7"/>
<path d="M39.9702 448.532L92.4782 448.289L144.985 448.201L250 448.033L355.015 448.199L407.522 448.287L460.029 448.532L407.522 448.777L355.015 448.864L250 449.031L144.985 448.863L92.4782 448.775L39.9702 448.532Z" fill="#263238"/>
<path d="M409.126 360.169C423.697 374.434 426.143 396.501 423.072 415.831C422.992 416.27 422.314 416.151 422.314 415.739C422.314 411.338 422.447 406.978 422.434 402.631C422.354 402.431 422.288 402.245 422.208 402.046C418.406 399.281 414.909 396.157 412.743 391.876C410.31 387.09 409.353 381.692 407.492 376.693C407.319 376.214 407.829 376.356 408.164 376.602C417.027 383.138 419.852 390.172 422.395 399.572C422.276 394.693 421.903 389.815 420.853 384.936C418.939 376.016 415.15 367.175 408.742 360.554C408.501 360.302 408.873 359.916 409.126 360.169Z" fill="#263238"/>
<path d="M406.387 361.831C403.88 361.916 402.309 365.922 400.356 367.091C399.322 367.713 398.316 367.675 397.59 366.656C395.654 363.954 398.31 360.621 400.807 358.757C399.021 359.491 397.54 360.782 395.614 361.148C394.448 361.362 393.541 360.93 393.269 359.744C392.421 356.06 397.041 354.422 400.211 354.344C398.674 353.276 394.27 350.371 396.609 348.943C398.981 347.509 404.149 351.662 405.835 353.03C408.313 355.04 411.268 358.045 411.38 361.189C411.525 364.859 408.316 362.6 406.387 361.831Z" fill="#004761"/>
<path opacity="0.1" d="M406.387 361.831C403.88 361.916 402.309 365.922 400.356 367.091C399.322 367.713 398.316 367.675 397.59 366.656C395.654 363.954 398.31 360.621 400.807 358.757C399.021 359.491 397.54 360.782 395.614 361.148C394.448 361.362 393.541 360.93 393.269 359.744C392.421 356.06 397.041 354.422 400.211 354.344C398.674 353.276 394.27 350.371 396.609 348.943C398.981 347.509 404.149 351.662 405.835 353.03C408.313 355.04 411.268 358.045 411.38 361.189C411.525 364.859 408.316 362.6 406.387 361.831Z" fill="black"/>
<path d="M407.113 362.449C403.908 360.992 397.751 363.089 397.227 361.876C396.166 359.407 401.086 357.713 403.742 357.385C401.296 356.722 396.61 355.667 396.754 353.308C396.93 350.428 403.942 352.905 407.491 355.626C411.962 359.055 411.933 362.362 411.194 363.025C410.18 363.934 407.642 362.69 407.113 362.449Z" fill="#004761"/>
<path d="M442.309 358.756C427.206 372.456 423.923 394.415 426.256 413.848C426.319 414.289 427.001 414.195 427.017 413.784C427.185 409.387 427.218 405.024 427.396 400.681C427.483 400.485 427.557 400.301 427.644 400.105C431.548 397.487 435.161 394.498 437.489 390.302C440.102 385.612 441.264 380.255 443.314 375.331C443.505 374.859 442.99 374.98 442.647 375.214C433.542 381.409 430.451 388.331 427.552 397.627C427.857 392.756 428.415 387.895 429.65 383.059C431.902 374.218 436.025 365.528 442.68 359.156C442.928 358.912 442.571 358.513 442.309 358.756Z" fill="#263238"/>
<path d="M444.982 360.523C447.484 360.703 448.901 364.766 450.809 366.009C451.818 366.67 452.825 366.67 453.59 365.68C455.627 363.054 453.1 359.622 450.676 357.664C452.433 358.466 453.864 359.812 455.774 360.251C456.932 360.509 457.853 360.112 458.171 358.937C459.159 355.288 454.605 353.475 451.44 353.277C453.016 352.268 457.528 349.533 455.244 348.017C452.929 346.494 447.606 350.447 445.869 351.75C443.317 353.664 440.249 356.554 440.018 359.692C439.733 363.354 443.025 361.218 444.982 360.523Z" fill="#004761"/>
<path opacity="0.1" d="M444.982 360.523C447.484 360.703 448.901 364.766 450.809 366.009C451.818 366.67 452.825 366.67 453.59 365.68C455.627 363.054 453.1 359.622 450.676 357.664C452.433 358.466 453.864 359.812 455.774 360.251C456.932 360.509 457.853 360.112 458.171 358.937C459.159 355.288 454.605 353.475 451.44 353.277C453.016 352.268 457.528 349.533 455.244 348.017C452.929 346.494 447.606 350.447 445.869 351.75C443.317 353.664 440.249 356.554 440.018 359.692C439.733 363.354 443.025 361.218 444.982 360.523Z" fill="black"/>
<path d="M444.234 361.113C447.492 359.779 453.565 362.109 454.134 360.916C455.289 358.489 450.436 356.61 447.795 356.181C450.264 355.612 454.987 354.735 454.933 352.373C454.867 349.488 447.766 351.697 444.116 354.281C439.517 357.537 439.421 360.843 440.135 361.534C441.113 362.48 443.696 361.333 444.234 361.113Z" fill="#004761"/>
<path d="M426.865 394.938C425.75 402.158 424.368 409.624 422.176 416.6C421.967 417.236 421.023 417.073 421.121 416.387C422.113 409.711 423.921 403.159 424.913 396.484C425.921 389.73 426.46 382.882 426.073 376.05C425.437 364.801 422.382 352.835 415.042 344.034C414.881 343.825 415.223 343.53 415.389 343.724C430.084 360.859 427.746 381.868 427.733 383.75C429.813 376.656 431.957 368.525 439.827 361.302C440.166 360.99 440.431 361.138 440.375 361.668C438.968 374.825 435.31 381.695 427.682 388.729C427.465 390.815 427.196 392.89 426.865 394.938Z" fill="#263238"/>
<path d="M414.909 346.005C412.266 344.831 408.619 348.197 406.003 348.427C404.618 348.552 403.593 348.006 403.352 346.583C402.704 342.805 407.137 340.684 410.667 340.006C408.444 339.869 406.257 340.462 404.076 339.873C402.758 339.507 402.035 338.603 402.349 337.236C403.323 332.986 408.941 333.612 412.269 335.128C411.212 333.246 408.105 328.015 411.251 327.711C414.433 327.417 417.705 334.327 418.766 336.595C420.325 339.928 421.879 344.533 420.412 347.851C418.715 351.733 416.523 347.775 414.909 346.005Z" fill="#004761"/>
<path opacity="0.1" d="M414.909 346.005C412.266 344.831 408.619 348.197 406.003 348.427C404.618 348.552 403.593 348.006 403.352 346.583C402.704 342.805 407.137 340.684 410.667 340.006C408.444 339.869 406.257 340.462 404.076 339.873C402.758 339.507 402.035 338.603 402.349 337.236C403.323 332.986 408.941 333.612 412.269 335.128C411.212 333.246 408.105 328.015 411.251 327.711C414.433 327.417 417.705 334.327 418.766 336.595C420.325 339.928 421.879 344.533 420.412 347.851C418.715 351.733 416.523 347.775 414.909 346.005Z" fill="black"/>
<path d="M415.351 347.012C412.759 343.887 405.316 342.964 405.383 341.442C405.525 338.346 411.482 339.066 414.402 340.062C412.198 338.143 407.867 334.689 409.204 332.315C410.836 329.415 416.865 335.514 419.177 340.125C422.09 345.933 420.395 349.35 419.294 349.666C417.785 350.096 415.778 347.527 415.351 347.012Z" fill="#004761"/>
<path d="M436.534 398.898L443.015 448.419H403.576C404.388 444.031 411.729 398.841 411.729 398.841L436.534 398.898Z" fill="#004761"/>
<path d="M374.665 58.3018H202.348C192.726 58.3018 184.919 66.2418 184.919 76.0578V430.772C184.919 440.567 192.727 448.528 202.348 448.528H374.665C384.287 448.528 392.115 440.568 392.115 430.772V76.0578C392.115 66.2418 384.287 58.3018 374.665 58.3018ZM381.209 419.805C381.209 429.141 374.217 436.694 365.594 436.694H211.44C202.797 436.694 195.805 429.141 195.805 419.805V89.5018C195.805 70.4818 202.797 69.5548 211.44 69.5548H242.324C244.118 69.5548 245.586 71.5928 245.586 74.1208V75.2108C245.586 81.1328 248.827 81.1528 252.802 81.1528H324.212C328.228 81.1528 331.449 81.1328 331.449 75.2108V74.1208C331.449 71.5928 332.896 69.5548 334.721 69.5548H365.594C374.217 69.5548 381.209 72.0828 381.209 89.5018V419.805Z" fill="#263238"/>
<path d="M381.218 89.5017V419.805C381.218 429.142 374.226 436.694 365.603 436.694H211.449C202.806 436.694 195.813 429.141 195.813 419.805V89.5017C195.813 70.4827 202.805 69.5547 211.449 69.5547H242.333C244.127 69.5547 245.595 71.5927 245.595 74.1207V75.2107C245.595 81.1327 248.836 81.1527 252.811 81.1527H324.221C328.237 81.1527 331.458 81.1327 331.458 75.2107V74.1207C331.458 71.5927 332.905 69.5547 334.73 69.5547H365.603C374.226 69.5547 381.218 72.0817 381.218 89.5017Z" fill="white"/>
<path d="M381.218 89.5056V119.472H195.814V89.5056C195.814 70.4866 202.806 69.5586 211.45 69.5586H242.334C244.128 69.5586 245.596 71.5976 245.596 74.1246V75.2156C245.596 81.1376 248.837 81.1576 252.812 81.1576H324.222C328.238 81.1576 331.459 81.1376 331.459 75.2156V74.1246C331.459 71.5966 332.906 69.5586 334.731 69.5586H365.604C374.226 69.5586 381.218 72.0866 381.218 89.5056Z" fill="#004761"/>
<path d="M298.251 73.4666H278.772C278.107 73.4666 277.569 72.9285 277.569 72.2635C277.569 71.5985 278.108 71.0605 278.772 71.0605H298.251C298.916 71.0605 299.454 71.5985 299.454 72.2635C299.454 72.9275 298.916 73.4666 298.251 73.4666Z" fill="white"/>
<path d="M223.988 97.8027H207.897V108.007H223.988V97.8027Z" fill="white"/>
<path d="M223.987 97.8027C223.337 98.4247 222.675 99.0197 222.02 99.6307C221.36 100.23 220.698 100.828 220.034 101.42C219.34 102.038 218.644 102.65 217.949 103.258C217.927 103.278 217.908 103.297 217.886 103.317C217.27 103.853 216.651 104.389 216.033 104.925L215.941 105.001L215.852 104.925C215.233 104.389 214.617 103.853 214.001 103.314C213.979 103.297 213.957 103.278 213.936 103.258C213.238 102.65 212.542 102.038 211.848 101.417C211.186 100.828 210.524 100.23 209.864 99.6307C209.209 99.0187 208.547 98.4237 207.897 97.8027C208.588 98.3357 209.267 98.8947 209.951 99.4407C210.633 99.9967 211.314 100.553 211.991 101.118C212.745 101.743 213.499 102.377 214.25 103.019C214.252 103.019 214.252 103.019 214.255 103.022C214.818 103.499 215.381 103.979 215.944 104.459C216.505 103.979 217.068 103.496 217.631 103.022C217.634 103.015 217.634 103.015 217.636 103.015C218.387 102.377 219.139 101.742 219.895 101.114C220.572 100.552 221.251 99.9927 221.932 99.4397C222.617 98.8937 223.296 98.3347 223.987 97.8027Z" fill="#004761"/>
<path d="M214.274 103.251C214.267 103.256 214.262 103.263 214.255 103.268C214.17 103.34 214.086 103.413 214.001 103.483C213.597 103.824 213.184 104.15 212.764 104.467C212.252 104.858 211.727 105.233 211.201 105.605C210.672 105.97 210.14 106.332 209.597 106.68C209.053 107.028 208.505 107.369 207.937 107.68C208.425 107.252 208.933 106.854 209.445 106.465C209.96 106.073 210.484 105.699 211.008 105.327C211.54 104.96 212.071 104.597 212.615 104.249C213.048 103.971 213.487 103.698 213.937 103.442C214.041 103.382 214.145 103.324 214.251 103.266C214.257 103.26 214.267 103.255 214.274 103.251Z" fill="#004761"/>
<path d="M223.949 107.68C223.381 107.368 222.83 107.028 222.289 106.68C221.745 106.332 221.214 105.97 220.682 105.605C220.155 105.233 219.631 104.858 219.119 104.467C218.701 104.15 218.288 103.827 217.887 103.486C217.8 103.413 217.715 103.341 217.631 103.269C217.624 103.264 217.619 103.257 217.612 103.252C217.619 103.257 217.629 103.262 217.636 103.264C217.742 103.324 217.846 103.382 217.95 103.443C218.399 103.699 218.837 103.972 219.272 104.25C219.816 104.598 220.347 104.96 220.876 105.328C221.403 105.7 221.927 106.075 222.439 106.466C222.953 106.853 223.46 107.252 223.949 107.68Z" fill="#004761"/>
<path d="M227.44 97.8026C227.44 99.7096 225.894 101.256 223.987 101.256C222.08 101.256 220.534 99.7096 220.534 97.8026C220.534 95.8956 222.08 94.3496 223.987 94.3496C225.894 94.3496 227.44 95.8956 227.44 97.8026Z" fill="#455A64"/>
<path d="M225.125 98.4904C225.125 98.6444 225.001 98.7634 224.847 98.7634H224.797V99.1404C224.797 99.2944 224.678 99.4134 224.524 99.4134C224.37 99.4134 224.251 99.2944 224.251 99.1404V98.7634H222.7H222.695H222.69C222.631 98.7634 222.571 98.7484 222.522 98.7044C222.398 98.6104 222.383 98.4414 222.477 98.3224L224.311 96.0424C224.316 96.0424 224.316 96.0374 224.321 96.0324C224.326 96.0274 224.331 96.0224 224.336 96.0124C224.351 96.0074 224.356 96.0024 224.361 95.9974C224.366 95.9924 224.376 95.9874 224.381 95.9824C224.391 95.9774 224.396 95.9724 224.411 95.9724C224.416 95.9624 224.421 95.9574 224.431 95.9574C224.436 95.9524 224.446 95.9524 224.461 95.9474C224.466 95.9474 224.476 95.9474 224.481 95.9424C224.491 95.9424 224.506 95.9424 224.516 95.9424C224.516 95.9424 224.521 95.9424 224.526 95.9424C224.531 95.9424 224.531 95.9424 224.536 95.9424C224.546 95.9424 224.561 95.9424 224.566 95.9424C224.576 95.9474 224.581 95.9474 224.591 95.9474C224.596 95.9524 224.611 95.9524 224.621 95.9574C224.626 95.9574 224.636 95.9624 224.641 95.9624C224.651 95.9724 224.661 95.9774 224.666 95.9824C224.676 95.9874 224.681 95.9924 224.691 95.9974C224.691 95.9974 224.696 95.9974 224.696 96.0024C224.701 96.0024 224.711 96.0074 224.711 96.0124C224.721 96.0224 224.726 96.0274 224.731 96.0324C224.736 96.0374 224.741 96.0474 224.746 96.0524C224.751 96.0574 224.756 96.0624 224.766 96.0774C224.766 96.0824 224.771 96.0924 224.776 96.0974C224.781 96.1074 224.781 96.1124 224.786 96.1274C224.786 96.1324 224.791 96.1424 224.791 96.1474C224.796 96.1574 224.796 96.1624 224.796 96.1774C224.796 96.1874 224.801 96.1924 224.801 96.2024C224.801 96.2074 224.801 96.2124 224.801 96.2174V98.2194H224.851C225.001 98.2174 225.125 98.3414 225.125 98.4904ZM224.252 96.9934L223.266 98.2174H224.252V96.9934Z" fill="white"/>
<path d="M236.991 76.6822C236.892 76.7812 236.792 76.8792 236.693 76.9782C236.636 77.0342 236.58 77.0912 236.524 77.1482C235.722 76.3702 234.768 75.9552 233.651 75.9552C232.534 75.9552 231.579 76.3682 230.772 77.1512C230.719 77.0962 230.666 77.0392 230.611 76.9832C230.513 76.8842 230.415 76.7852 230.317 76.6872C230.315 76.6852 230.311 76.6842 230.308 76.6822C230.308 76.6802 230.308 76.6772 230.308 76.6752C230.315 76.6692 230.323 76.6632 230.33 76.6572C230.456 76.5452 230.578 76.4302 230.707 76.3232C230.975 76.1022 231.268 75.9202 231.579 75.7672C231.947 75.5862 232.332 75.4522 232.736 75.3782C232.927 75.3432 233.121 75.3252 233.314 75.3012C233.38 75.2932 233.807 75.2912 233.82 75.2922C233.951 75.3022 234.083 75.3082 234.214 75.3222C234.578 75.3612 234.931 75.4492 235.275 75.5752C235.524 75.6662 235.763 75.7792 235.993 75.9112C236.236 76.0512 236.465 76.2092 236.678 76.3912C236.785 76.4832 236.888 76.5802 236.993 76.6742C236.991 76.6772 236.991 76.6792 236.991 76.6822Z" fill="white"/>
<path d="M231.718 78.0862C231.56 77.9292 231.406 77.7762 231.247 77.6182C231.784 77.0912 232.419 76.7562 233.165 76.6552C234.28 76.5042 235.238 76.8432 236.05 77.6112C235.89 77.7712 235.734 77.9252 235.577 78.0822C235.043 77.5642 234.401 77.2842 233.648 77.2852C232.896 77.2862 232.255 77.5652 231.718 78.0862Z" fill="white"/>
<path d="M235.104 78.5562C234.948 78.7112 234.793 78.8672 234.635 79.0252C234.363 78.7612 234.034 78.6152 233.647 78.6152C233.261 78.6152 232.932 78.7602 232.659 79.0272C232.502 78.8702 232.346 78.7142 232.191 78.5592C232.936 77.7782 234.279 77.7152 235.104 78.5562Z" fill="white"/>
<path d="M234.072 79.4513C234.072 79.6853 233.882 79.8753 233.648 79.8753C233.414 79.8753 233.225 79.6853 233.225 79.4513C233.225 79.2173 233.415 79.0273 233.648 79.0273C233.882 79.0273 234.072 79.2173 234.072 79.4513Z" fill="white"/>
<path d="M207.897 77.5845C207.897 76.9055 208.447 76.3555 209.126 76.3555C209.805 76.3555 210.355 76.9055 210.355 77.5845C210.355 78.2635 209.805 78.8135 209.126 78.8135C208.447 78.8135 207.897 78.2625 207.897 77.5845Z" fill="white"/>
<path d="M211.768 77.5845C211.768 76.9055 212.318 76.3555 212.997 76.3555C213.675 76.3555 214.226 76.9055 214.226 77.5845C214.226 78.2635 213.676 78.8135 212.997 78.8135C212.318 78.8125 211.768 78.2625 211.768 77.5845Z" fill="white"/>
<path d="M215.638 77.5845C215.638 76.9055 216.188 76.3555 216.867 76.3555C217.546 76.3555 218.096 76.9055 218.096 77.5845C218.096 78.2635 217.546 78.8135 216.867 78.8135C216.188 78.8125 215.638 78.2625 215.638 77.5845Z" fill="white"/>
<path d="M219.508 77.5845C219.508 76.9055 220.058 76.3555 220.737 76.3555C221.416 76.3555 221.966 76.9055 221.966 77.5845C221.966 78.2635 221.416 78.8135 220.737 78.8135C220.058 78.8125 219.508 78.2625 219.508 77.5845Z" fill="white"/>
<path d="M223.378 77.5845C223.378 76.9055 223.928 76.3555 224.607 76.3555C225.285 76.3555 225.836 76.9055 225.836 77.5845C225.836 78.2635 225.286 78.8135 224.607 78.8135C223.928 78.8125 223.378 78.2625 223.378 77.5845Z" fill="white"/>
<path d="M367.304 80.2658H357.301V75.6328H367.304V80.2658ZM357.811 79.7558H366.794V76.1418H357.811V79.7558Z" fill="white"/>
<path d="M364.579 76.4189H358.131V79.479H364.579V76.4189Z" fill="white"/>
<path d="M368.2 76.71H367.31V79.188H368.2V76.71Z" fill="white"/>
<path d="M355.682 106.724L354.423 107.678L352.091 104.599L351.238 103.472C351.409 103.406 351.573 103.312 351.727 103.195C352.023 102.969 352.239 102.677 352.373 102.357L353.279 103.552L355.682 106.724Z" fill="white"/>
<path d="M353.203 99.4739C352.048 97.9679 349.89 97.6839 348.385 98.8389C346.879 99.9939 346.595 102.152 347.75 103.658C348.787 105.012 350.634 105.378 352.09 104.6C352.255 104.511 352.414 104.41 352.566 104.293C352.846 104.077 353.085 103.826 353.279 103.553C354.129 102.356 354.142 100.7 353.203 99.4739ZM351.726 103.196C351.572 103.313 351.407 103.407 351.237 103.473C350.403 103.807 349.418 103.564 348.846 102.817C348.156 101.916 348.324 100.625 349.225 99.9349C350.125 99.2449 351.415 99.4149 352.107 100.316C352.57 100.921 352.646 101.702 352.373 102.358C352.238 102.678 352.022 102.97 351.726 103.196Z" fill="white"/>
<path d="M338.579 98.332H329.436V107.475H338.579V98.332Z" fill="white"/>
<path d="M334.507 100.03H333.509V105.779H334.507V100.03Z" fill="#004761"/>
<path d="M331.134 102.404V103.402H336.883V102.404H331.134Z" fill="#004761"/>
<path d="M367.298 98.9189C367.298 99.3549 366.944 99.7089 366.508 99.7089C366.072 99.7089 365.718 99.3549 365.718 98.9189C365.718 98.4829 366.072 98.1289 366.508 98.1289C366.944 98.1289 367.298 98.4819 367.298 98.9189Z" fill="white"/>
<path d="M367.298 103.017C367.298 103.453 366.944 103.807 366.508 103.807C366.072 103.807 365.718 103.453 365.718 103.017C365.718 102.581 366.072 102.227 366.508 102.227C366.944 102.227 367.298 102.581 367.298 103.017Z" fill="white"/>
<path d="M367.298 107.116C367.298 107.552 366.944 107.906 366.508 107.906C366.072 107.906 365.718 107.552 365.718 107.116C365.718 106.68 366.072 106.326 366.508 106.326C366.944 106.326 367.298 106.679 367.298 107.116Z" fill="white"/>
<path d="M381.218 119.472H195.814V148.103H381.218V119.472Z" fill="#EBEBEB"/>
<path d="M225.944 139.319C225.379 139.67 224.751 139.938 224.069 140.104C222.305 140.535 220.536 140.204 219.106 139.316C217.708 138.451 216.632 137.056 216.209 135.332C215.359 131.841 217.493 128.322 220.984 127.472C224.471 126.619 227.991 128.757 228.844 132.247C229.529 135.055 228.276 137.88 225.944 139.319Z" fill="#004761"/>
<path d="M224.505 133.043C224.505 134.136 223.619 135.022 222.526 135.022C221.433 135.022 220.547 134.136 220.547 133.043C220.547 131.95 221.433 131.064 222.526 131.064C223.619 131.065 224.505 131.951 224.505 133.043Z" fill="white"/>
<path d="M225.944 138.502V139.318C225.379 139.669 224.751 139.937 224.069 140.103C222.305 140.534 220.536 140.203 219.106 139.315V138.502C219.106 136.618 220.636 135.083 222.525 135.083C224.415 135.082 225.944 136.618 225.944 138.502Z" fill="white"/>
<path d="M263.36 138.087H254.759L258.266 133.787L254.759 129.487H263.36L266.866 133.787L263.36 138.087Z" fill="white"/>
<path d="M241.26 129.487L242.657 132.318L245.782 132.772L243.521 134.975L244.054 138.087L241.26 136.618L238.465 138.087L238.999 134.975L236.738 132.772L239.863 132.318L241.26 129.487Z" fill="#004761"/>
<path d="M323.774 132.038H273.037V135.537H323.774V132.038Z" fill="#263238"/>
<path d="M364.578 132.038H344.69V135.537H364.578V132.038Z" fill="#455A64"/>
<path d="M225.944 167.95C225.379 168.301 224.751 168.569 224.069 168.735C222.305 169.166 220.536 168.835 219.106 167.947C217.708 167.082 216.632 165.687 216.209 163.963C215.359 160.473 217.493 156.954 220.984 156.103C224.471 155.25 227.991 157.388 228.844 160.878C229.529 163.686 228.276 166.512 225.944 167.95Z" fill="#455A64"/>
<path d="M224.505 161.675C224.505 162.768 223.619 163.654 222.526 163.654C221.433 163.654 220.547 162.768 220.547 161.675C220.547 160.582 221.433 159.696 222.526 159.696C223.619 159.696 224.505 160.582 224.505 161.675Z" fill="white"/>
<path d="M225.944 167.133V167.949C225.379 168.3 224.751 168.568 224.069 168.734C222.305 169.165 220.536 168.834 219.106 167.946V167.133C219.106 165.25 220.636 163.714 222.525 163.714C224.415 163.714 225.944 165.249 225.944 167.133Z" fill="white"/>
<path d="M263.36 166.718H254.759L258.266 162.418L254.759 158.118H263.36L266.866 162.418L263.36 166.718Z" fill="white" stroke="#EBEBEB" stroke-width="0.5" stroke-miterlimit="10"/>
<path d="M241.26 158.118L242.657 160.949L245.782 161.403L243.521 163.606L244.054 166.718L241.26 165.249L238.465 166.718L238.999 163.606L236.738 161.403L239.863 160.949L241.26 158.118Z" fill="#004761"/>
<path d="M323.774 160.67H273.037V164.168H323.774V160.67Z" fill="#263238"/>
<path d="M364.578 160.67H344.69V164.168H364.578V160.67Z" fill="#455A64"/>
<path d="M381.218 176.734H195.814V205.365H381.218V176.734Z" fill="#EBEBEB"/>
<path d="M225.944 196.58C225.379 196.931 224.751 197.199 224.069 197.365C222.305 197.796 220.536 197.465 219.106 196.577C217.708 195.712 216.632 194.317 216.209 192.593C215.359 189.103 217.493 185.584 220.984 184.733C224.471 183.88 227.991 186.018 228.844 189.508C229.529 192.316 228.276 195.142 225.944 196.58Z" fill="#004761"/>
<path d="M224.505 190.306C224.505 191.399 223.619 192.285 222.526 192.285C221.433 192.285 220.547 191.399 220.547 190.306C220.547 189.213 221.433 188.327 222.526 188.327C223.619 188.327 224.505 189.213 224.505 190.306Z" fill="white"/>
<path d="M225.944 195.764V196.58C225.379 196.931 224.751 197.199 224.069 197.365C222.305 197.796 220.536 197.465 219.106 196.577V195.764C219.106 193.881 220.636 192.345 222.525 192.345C224.415 192.345 225.944 193.88 225.944 195.764Z" fill="white"/>
<path d="M263.36 195.349H254.759L258.266 191.049L254.759 186.749H263.36L266.866 191.049L263.36 195.349Z" fill="white"/>
<path d="M241.26 186.749L242.657 189.58L245.782 190.034L243.521 192.238L244.054 195.349L241.26 193.88L238.465 195.349L238.999 192.238L236.738 190.034L239.863 189.58L241.26 186.749Z" fill="white"/>
<path d="M323.774 189.301H273.037V192.799H323.774V189.301Z" fill="#DBDBDB"/>
<path d="M364.578 189.301H344.69V192.799H364.578V189.301Z" fill="#C7C7C7"/>
<path d="M225.944 225.211C225.379 225.562 224.751 225.83 224.069 225.996C222.305 226.427 220.536 226.096 219.106 225.208C217.708 224.343 216.632 222.948 216.209 221.224C215.359 217.734 217.493 214.215 220.984 213.364C224.471 212.511 227.991 214.649 228.844 218.139C229.529 220.947 228.276 223.773 225.944 225.211Z" fill="#A6A6A6"/>
<path d="M224.505 218.937C224.505 220.03 223.619 220.916 222.526 220.916C221.433 220.916 220.547 220.03 220.547 218.937C220.547 217.844 221.433 216.958 222.526 216.958C223.619 216.959 224.505 217.844 224.505 218.937Z" fill="white"/>
<path d="M225.944 224.395V225.211C225.379 225.562 224.751 225.83 224.069 225.996C222.305 226.427 220.536 226.096 219.106 225.208V224.394C219.106 222.51 220.636 220.975 222.525 220.975C224.415 220.976 225.944 222.511 225.944 224.395Z" fill="white"/>
<path d="M263.36 223.981H254.759L258.266 219.68L254.759 215.38H263.36L266.866 219.68L263.36 223.981Z" fill="white" stroke="#EBEBEB" stroke-width="0.5" stroke-miterlimit="10"/>
<path d="M241.26 215.38L242.657 218.211L245.782 218.665L243.521 220.869L244.054 223.981L241.26 222.511L238.465 223.981L238.999 220.869L236.738 218.665L239.863 218.211L241.26 215.38Z" fill="#004761"/>
<path d="M323.774 217.932H273.037V221.43H323.774V217.932Z" fill="#DBDBDB"/>
<path d="M364.578 217.932H344.69V221.43H364.578V217.932Z" fill="#C7C7C7"/>
<path d="M381.218 233.997H195.814V262.628H381.218V233.997Z" fill="#EBEBEB"/>
<path d="M225.944 253.843C225.379 254.194 224.751 254.463 224.069 254.628C222.305 255.059 220.536 254.728 219.106 253.84C217.708 252.975 216.632 251.58 216.209 249.856C215.359 246.366 217.493 242.847 220.984 241.996C224.471 241.143 227.991 243.281 228.844 246.771C229.529 249.579 228.276 252.405 225.944 253.843Z" fill="#37474F"/>
<path d="M224.505 247.569C224.505 248.662 223.619 249.548 222.526 249.548C221.433 249.548 220.547 248.662 220.547 247.569C220.547 246.476 221.433 245.59 222.526 245.59C223.619 245.59 224.505 246.476 224.505 247.569Z" fill="white"/>
<path d="M225.944 253.026V253.842C225.379 254.193 224.751 254.462 224.069 254.627C222.305 255.058 220.536 254.727 219.106 253.839V253.026C219.106 251.142 220.636 249.607 222.525 249.607C224.415 249.607 225.944 251.142 225.944 253.026Z" fill="white"/>
<path d="M263.36 252.613H254.759L258.266 248.312L254.759 244.012H263.36L266.866 248.312L263.36 252.613Z" fill="white"/>
<path d="M241.26 244.012L242.657 246.843L245.782 247.297L243.521 249.501L244.054 252.613L241.26 251.143L238.465 252.613L238.999 249.501L236.738 247.297L239.863 246.843L241.26 244.012Z" fill="#004761"/>
<path d="M323.774 246.563H273.037V250.062H323.774V246.563Z" fill="#DBDBDB"/>
<path d="M364.578 246.563H344.69V250.062H364.578V246.563Z" fill="#C7C7C7"/>
<path d="M381.216 405.779V419.799C381.216 426.049 378.086 431.489 373.436 434.409H203.596C198.936 431.489 195.816 426.039 195.816 419.799V405.779H381.216Z" fill="#EBEBEB"/>
<path d="M225.944 425.629C225.379 425.98 224.751 426.248 224.069 426.414C222.305 426.845 220.536 426.514 219.106 425.626C217.708 424.761 216.632 423.366 216.209 421.642C215.359 418.151 217.493 414.633 220.984 413.782C224.471 412.929 227.991 415.067 228.844 418.557C229.529 421.365 228.276 424.191 225.944 425.629Z" fill="#004761"/>
<path d="M224.505 419.355C224.505 420.448 223.619 421.334 222.526 421.334C221.433 421.334 220.547 420.448 220.547 419.355C220.547 418.262 221.433 417.376 222.526 417.376C223.619 417.377 224.505 418.262 224.505 419.355Z" fill="white"/>
<path d="M225.944 424.813V425.629C225.379 425.98 224.751 426.248 224.069 426.414C222.305 426.845 220.536 426.514 219.106 425.626V424.812C219.106 422.928 220.636 421.393 222.525 421.393C224.415 421.394 225.944 422.93 225.944 424.813Z" fill="white"/>
<path d="M263.36 424.399H254.759L258.266 420.098L254.759 415.798H263.36L266.866 420.098L263.36 424.399Z" fill="white"/>
<path d="M241.26 415.798L242.657 418.629L245.782 419.083L243.521 421.287L244.054 424.399L241.26 422.93L238.465 424.399L238.999 421.287L236.738 419.083L239.863 418.629L241.26 415.798Z" fill="#004761"/>
<path d="M323.774 418.35H273.037V421.849H323.774V418.35Z" fill="#DBDBDB"/>
<path d="M364.578 418.35H344.69V421.849H364.578V418.35Z" fill="#C7C7C7"/>
<path d="M225.944 282.474C225.379 282.825 224.751 283.093 224.069 283.259C222.305 283.69 220.536 283.359 219.106 282.471C217.708 281.606 216.632 280.211 216.209 278.487C215.359 274.996 217.493 271.478 220.984 270.627C224.471 269.774 227.991 271.912 228.844 275.402C229.529 278.21 228.276 281.036 225.944 282.474Z" fill="#263238"/>
<path d="M224.505 276.2C224.505 277.293 223.619 278.179 222.526 278.179C221.433 278.179 220.547 277.293 220.547 276.2C220.547 275.107 221.433 274.221 222.526 274.221C223.619 274.222 224.505 275.108 224.505 276.2Z" fill="white"/>
<path d="M225.944 281.657V282.473C225.379 282.824 224.751 283.092 224.069 283.258C222.305 283.689 220.536 283.358 219.106 282.47V281.657C219.106 279.773 220.636 278.238 222.525 278.238C224.415 278.238 225.944 279.774 225.944 281.657Z" fill="white"/>
<path d="M263.36 281.244H254.759L258.266 276.943L254.759 272.643H263.36L266.866 276.943L263.36 281.244Z" fill="white" stroke="#EBEBEB" stroke-width="0.5" stroke-miterlimit="10"/>
<path d="M241.26 272.643L242.657 275.474L245.782 275.928L243.521 278.132L244.054 281.244L241.26 279.775L238.465 281.244L238.999 278.132L236.738 275.928L239.863 275.474L241.26 272.643Z" fill="white" stroke="#EBEBEB" stroke-width="0.5" stroke-miterlimit="10"/>
<path d="M323.774 275.194H273.037V278.693H323.774V275.194Z" fill="#DBDBDB"/>
<path d="M364.578 275.194H344.69V278.693H364.578V275.194Z" fill="#C7C7C7"/>
<path d="M381.218 291.259H195.814V319.89H381.218V291.259Z" fill="#EBEBEB"/>
<path d="M225.944 311.105C225.379 311.456 224.751 311.724 224.069 311.89C222.305 312.321 220.536 311.99 219.106 311.102C217.708 310.237 216.632 308.842 216.209 307.118C215.359 303.628 217.493 300.109 220.984 299.258C224.471 298.405 227.991 300.543 228.844 304.033C229.529 306.841 228.276 309.667 225.944 311.105Z" fill="#004761"/>
<path d="M224.505 304.831C224.505 305.924 223.619 306.81 222.526 306.81C221.433 306.81 220.547 305.924 220.547 304.831C220.547 303.738 221.433 302.853 222.526 302.853C223.619 302.853 224.505 303.739 224.505 304.831Z" fill="white"/>
<path d="M225.944 310.288V311.104C225.379 311.455 224.751 311.723 224.069 311.889C222.305 312.32 220.536 311.989 219.106 311.101V310.288C219.106 308.404 220.636 306.869 222.525 306.869C224.415 306.869 225.944 308.405 225.944 310.288Z" fill="white"/>
<path d="M263.36 309.874H254.759L258.266 305.574L254.759 301.273H263.36L266.866 305.574L263.36 309.874Z" fill="white"/>
<path d="M241.26 301.273L242.657 304.105L245.782 304.559L243.521 306.762L244.054 309.874L241.26 308.405L238.465 309.874L238.999 306.762L236.738 304.559L239.863 304.105L241.26 301.273Z" fill="#004761"/>
<path d="M323.774 303.825H273.037V307.324H323.774V303.825Z" fill="#263238"/>
<path d="M364.578 303.825H344.69V307.324H364.578V303.825Z" fill="#455A64"/>
<path d="M225.944 339.737C225.379 340.088 224.751 340.356 224.069 340.522C222.305 340.953 220.536 340.622 219.106 339.734C217.708 338.869 216.632 337.474 216.209 335.75C215.359 332.259 217.493 328.74 220.984 327.89C224.471 327.037 227.991 329.175 228.844 332.665C229.529 335.473 228.276 338.298 225.944 339.737Z" fill="#004761"/>
<path d="M224.505 333.462C224.505 334.555 223.619 335.441 222.526 335.441C221.433 335.441 220.547 334.555 220.547 333.462C220.547 332.369 221.433 331.484 222.526 331.484C223.619 331.483 224.505 332.369 224.505 333.462Z" fill="white"/>
<path d="M225.944 338.92V339.736C225.379 340.087 224.751 340.355 224.069 340.521C222.305 340.952 220.536 340.621 219.106 339.733V338.919C219.106 337.035 220.636 335.5 222.525 335.5C224.415 335.501 225.944 337.036 225.944 338.92Z" fill="white"/>
<path d="M263.36 338.505H254.759L258.266 334.205L254.759 329.905H263.36L266.866 334.205L263.36 338.505Z" fill="white" stroke="#EBEBEB" stroke-width="0.5" stroke-miterlimit="10"/>
<path d="M241.26 329.905L242.657 332.736L245.782 333.19L243.521 335.393L244.054 338.505L241.26 337.036L238.465 338.505L238.999 335.393L236.738 333.19L239.863 332.736L241.26 329.905Z" fill="white" stroke="#EBEBEB" stroke-width="0.5" stroke-miterlimit="10"/>
<path d="M323.774 332.456H273.037V335.955H323.774V332.456Z" fill="#DBDBDB"/>
<path d="M364.578 332.456H344.69V335.955H364.578V332.456Z" fill="#C7C7C7"/>
<path d="M381.218 348.521H195.814V377.152H381.218V348.521Z" fill="#EBEBEB"/>
<path d="M225.944 368.368C225.379 368.719 224.751 368.987 224.069 369.153C222.305 369.584 220.536 369.253 219.106 368.365C217.708 367.5 216.632 366.105 216.209 364.381C215.359 360.891 217.493 357.372 220.984 356.521C224.471 355.668 227.991 357.806 228.844 361.296C229.529 364.104 228.276 366.93 225.944 368.368Z" fill="#455A64"/>
<path d="M224.505 362.093C224.505 363.186 223.619 364.072 222.526 364.072C221.433 364.072 220.547 363.186 220.547 362.093C220.547 361 221.433 360.114 222.526 360.114C223.619 360.114 224.505 361 224.505 362.093Z" fill="white"/>
<path d="M225.944 367.551V368.367C225.379 368.718 224.751 368.986 224.069 369.152C222.305 369.583 220.536 369.252 219.106 368.364V367.55C219.106 365.667 220.636 364.131 222.525 364.131C224.415 364.132 225.944 365.667 225.944 367.551Z" fill="white"/>
<path d="M263.36 367.136H254.759L258.266 362.836L254.759 358.536H263.36L266.866 362.836L263.36 367.136Z" fill="white"/>
<path d="M241.26 358.536L242.657 361.367L245.782 361.821L243.521 364.025L244.054 367.136L241.26 365.667L238.465 367.136L238.999 364.025L236.738 361.821L239.863 361.367L241.26 358.536Z" fill="white"/>
<path d="M323.774 361.088H273.037V364.587H323.774V361.088Z" fill="#DBDBDB"/>
<path d="M364.578 361.088H344.69V364.587H364.578V361.088Z" fill="#C7C7C7"/>
<path d="M225.944 396.998C225.379 397.349 224.751 397.617 224.069 397.783C222.305 398.214 220.536 397.883 219.106 396.995C217.708 396.13 216.632 394.735 216.209 393.011C215.359 389.52 217.493 386.002 220.984 385.151C224.471 384.298 227.991 386.436 228.844 389.926C229.529 392.734 228.276 395.56 225.944 396.998Z" fill="#A6A6A6"/>
<path d="M224.505 390.724C224.505 391.817 223.619 392.703 222.526 392.703C221.433 392.703 220.547 391.817 220.547 390.724C220.547 389.631 221.433 388.746 222.526 388.746C223.619 388.746 224.505 389.631 224.505 390.724Z" fill="white"/>
<path d="M225.944 396.182V396.998C225.379 397.349 224.751 397.617 224.069 397.783C222.305 398.214 220.536 397.883 219.106 396.995V396.182C219.106 394.298 220.636 392.763 222.525 392.763C224.415 392.763 225.944 394.298 225.944 396.182Z" fill="white"/>
<path d="M263.36 395.767H254.759L258.266 391.468L254.759 387.167H263.36L266.866 391.468L263.36 395.767Z" fill="white" stroke="#EBEBEB" stroke-width="0.5" stroke-miterlimit="10"/>
<path d="M241.26 387.167L242.657 389.998L245.782 390.452L243.521 392.656L244.054 395.767L241.26 394.298L238.465 395.767L238.999 392.656L236.738 390.452L239.863 389.998L241.26 387.167Z" fill="white" stroke="#EBEBEB" stroke-width="0.5" stroke-miterlimit="10"/>
<path d="M323.774 389.719H273.037V393.218H323.774V389.719Z" fill="#DBDBDB"/>
<path d="M364.578 389.719H344.69V393.218H364.578V389.719Z" fill="#C7C7C7"/>
<path d="M224.725 448.725H143.545C133.838 414.663 126.031 388.746 126.031 388.746H202.958C202.958 388.746 212.512 414.406 224.725 448.725Z" fill="#37474F"/>
<path d="M155.441 448.725H153.767C148.96 432.67 143.957 416.676 139.057 400.652C138.995 400.436 139.324 400.344 139.396 400.549C140.413 403.333 141.43 406.106 142.416 408.9C147.08 422.059 151.373 435.361 155.441 448.725Z" fill="#263238"/>
<path d="M201.243 388.746C201.151 390.359 196.857 405.089 194.638 427.133C193.827 435.258 192.912 442.911 191.926 448.725H84.2032C73.5412 415.783 89.3602 388.746 89.3602 388.746C89.3602 388.746 201.253 388.685 201.243 388.746Z" fill="#37474F"/>
<path d="M179.713 425.232C180.093 430.758 180.216 436.295 180.155 441.832C180.124 443.948 179.806 446.526 180.093 448.725H178.223C177.771 445.212 178.223 440.836 178.202 437.395C178.14 423.096 176.322 408.972 174.124 394.869C174.073 394.53 174.545 394.427 174.638 394.756C177.453 404.718 178.994 414.908 179.713 425.232Z" fill="#263238"/>
<path d="M193.067 432.372C192.975 435.31 192.173 443.137 189.862 448.725H188.249C191.382 441.093 191.197 426.198 190.971 422.757C190.324 412.557 189.533 402.983 187.797 392.239C187.735 391.9 188.3 391.88 188.372 392.188C191.423 405.11 193.488 419.069 193.067 432.372Z" fill="#263238"/>
<path d="M90.8488 403.045C87.7258 416.542 89.2468 431.016 92.2248 444.4C92.5438 445.848 92.8928 447.286 93.2518 448.725H91.6078C87.2008 430.112 85.8448 410.852 93.6008 392.804C93.7038 392.578 94.0318 392.763 93.9398 392.989C92.6368 396.266 91.6398 399.614 90.8488 403.045Z" fill="#263238"/>
<path d="M269.697 192.039L252.038 248.343C251.333 249.984 252.096 251.395 253.744 251.489L283.222 253.173C284.867 253.268 286.779 252.01 287.484 250.368L305.142 194.064C305.849 192.419 305.084 191.013 303.438 190.919L273.96 189.234C272.314 189.14 270.405 190.394 269.697 192.039Z" fill="#37474F"/>
<path d="M273.198 192.208L255.54 248.512C254.834 250.153 255.598 251.564 257.245 251.658L286.723 253.342C288.369 253.436 290.28 252.179 290.986 250.537L308.644 194.233C309.351 192.588 308.586 191.181 306.94 191.087L277.462 189.403C275.815 189.309 273.905 190.563 273.198 192.208Z" fill="#455A64"/>
<path d="M281.131 195.28C281.022 196.661 279.813 197.692 278.432 197.583C277.051 197.473 276.02 196.265 276.13 194.883C276.24 193.502 277.448 192.471 278.829 192.581C280.21 192.69 281.24 193.899 281.131 195.28Z" fill="#263238"/>
<path d="M169.733 273.111C184.062 309.718 218.453 358.299 233.925 359.524C241.287 360.107 254.33 362.737 264.558 354.909C286.878 337.826 306.848 303.654 311.781 283.661C313.536 276.55 279.561 258.651 274.005 264.17C260.996 277.092 245.146 303.085 243.015 302.781C235.128 301.655 205.833 273.797 185.397 254.19C160.587 230.387 164.023 258.523 169.733 273.111Z" fill="#EB9481"/>
<path d="M315.104 246.536C312.364 231.684 309.38 228.291 313.725 214.528C316.576 205.497 312.033 199.801 305.039 206.737C293.601 218.081 293.111 237.986 294.928 244.935L315.104 246.536Z" fill="#EB9481"/>
<path d="M309.659 289.816C309.659 289.816 317.525 269.89 316.171 253.773C315.235 242.628 310.494 218.609 280.424 204.112C273.292 200.673 260.69 200.832 270.3 210.679C277.126 217.673 283.568 220.046 286.797 224.838C286.797 224.838 270.792 226.942 267.626 234.222C266.211 237.475 262.558 246.446 260.709 253.835C260.709 253.835 262.211 254.67 264.263 255.458C264.263 255.458 261.513 262.367 266.087 272.726L309.659 289.816Z" fill="#EB9481"/>
<path d="M313.579 243.279C309.368 239.201 300.298 230.708 290.462 226.341C279.537 221.49 257.184 215.09 253.686 223.192C251.121 229.133 259.441 232.326 259.441 232.326C259.441 232.326 249.645 231.628 248.501 237.502C247.46 242.854 254.044 244.939 254.044 244.939C254.044 244.939 248.028 245.537 248.018 250.886C248.005 257.319 260.615 255.009 266.232 261.536C267.494 263.001 313.579 243.279 313.579 243.279Z" fill="#EB9481"/>
<path d="M287.261 238.739C282.672 235.553 270.393 230.992 259.638 232.176C259.394 232.203 259.284 232.401 259.512 232.424C271.631 233.636 282.634 237.095 287.216 238.843C287.277 238.866 287.312 238.775 287.261 238.739Z" fill="#263238"/>
<path d="M282.045 249.625C277.803 247.283 264.937 243.147 254.079 244.721C253.836 244.756 253.739 244.963 253.968 244.976C266.682 245.721 277.328 248.259 282.006 249.731C282.068 249.75 282.099 249.654 282.045 249.625Z" fill="#263238"/>
<path d="M214.459 276.088L208.969 282.725L207.842 284.097L186.006 310.522C186.006 310.522 166.218 278.197 162.223 259.823C159.826 248.782 161.547 242.268 166.361 241.08C166.709 240.998 167.078 240.937 167.447 240.916C170.561 240.65 174.739 242.288 179.738 245.976C193.811 256.382 214.459 276.088 214.459 276.088Z" fill="#004761"/>
<path d="M213.243 274.95C212.735 276.609 212.113 278.226 211.387 279.802L214.373 276.194V276.184C214.394 276.142 214.415 276.101 214.415 276.06C214.301 275.935 213.886 275.552 213.243 274.95ZM179.651 245.91C177.712 247.144 175.929 248.616 174.353 250.296C169.542 255.376 166.836 262.012 166.867 269.021C166.867 270.887 167.023 272.743 167.23 274.589C167.717 275.73 168.215 276.87 168.733 278.01C168.64 277.274 168.536 276.538 168.443 275.791C167.914 271.789 167.52 267.704 168.277 263.712C168.889 260.529 170.143 257.543 171.833 254.795C173.917 251.405 176.768 248.46 180.086 246.231C179.962 246.148 179.847 246.055 179.733 245.972C179.703 245.951 179.682 245.93 179.651 245.91Z" fill="white"/>
<path d="M181.751 299.528C182.932 296.751 195.083 280.058 205.202 269.462C205.356 269.301 205.593 269.51 205.462 269.687C204.499 270.99 184.432 297.801 182.104 299.83C181.911 299.997 181.666 299.727 181.751 299.528Z" fill="#263238"/>
<path opacity="0.05" d="M199.975 293.629L186.003 310.513C186.003 310.513 166.21 278.201 162.213 259.816C159.455 247.136 162.142 240.404 168.711 240.906L199.975 293.629Z" fill="black"/>
<path d="M203.951 393.189C201.146 396.229 82.7564 408.841 82.0814 408.024C80.2684 405.814 91.1583 286.161 139.662 242.329C148.21 234.605 163.305 236.808 170.305 240.778C173.802 242.761 179.878 259.301 185.833 278.607C190.383 293.356 205.714 391.252 203.951 393.189Z" fill="#004761"/>
<path d="M203.954 393.187C203.332 393.861 196.956 395.022 187.417 396.401C187.064 396.443 186.702 396.494 186.339 396.546C181.518 397.241 175.961 397.977 169.958 398.734C169.533 398.786 169.097 398.838 168.662 398.9C151.534 401.046 131.099 403.348 114.386 405.11C114.199 405.131 114.013 405.152 113.837 405.162C95.8487 407.059 82.3077 408.303 82.0797 408.024C81.7267 407.599 81.8517 402.747 82.6397 394.888C82.6707 394.556 82.7127 394.214 82.7437 393.872C84.6307 375.697 89.8767 342.685 100.535 310.762C100.701 310.244 100.877 309.725 101.053 309.207C104.298 299.648 108.031 290.203 112.323 281.307C112.448 281.037 112.572 280.778 112.707 280.509C117.165 271.333 122.225 262.759 127.917 255.273C128.114 255.014 128.301 254.765 128.508 254.516C131.971 250.016 135.693 245.921 139.664 242.334C140.815 241.297 142.08 240.437 143.428 239.742C143.739 239.576 144.061 239.431 144.382 239.286C148.529 237.399 153.35 236.912 157.891 237.285C158.275 237.316 158.658 237.358 159.032 237.399C163.459 237.897 167.523 239.193 170.312 240.779C171.68 241.567 173.464 244.595 175.475 249.177C175.568 249.384 175.662 249.602 175.755 249.82C178.793 256.86 182.339 267.259 185.833 278.612C187.067 282.624 189.109 292.806 191.38 305.527C191.432 305.807 191.484 306.097 191.536 306.388C192.324 310.784 193.133 315.481 193.941 320.323C194.065 321.007 194.179 321.692 194.293 322.386C195.942 332.256 197.59 342.645 199.062 352.318C199.114 352.712 199.176 353.106 199.238 353.49C200.482 361.774 201.581 369.498 202.431 375.885C202.493 376.393 202.555 376.891 202.618 377.378C203.798 386.593 204.379 392.72 203.954 393.187Z" fill="#004761"/>
<path d="M165.478 381.585C163.456 378.775 160.895 376.37 157.93 374.576C154.757 372.637 151.243 371.652 147.593 371.03C143.767 370.366 139.755 369.993 136.178 368.365C132.756 366.82 130.362 364.052 127.966 361.263C127.344 360.527 126.691 359.801 126.027 359.096C126.784 358.588 127.541 358.07 128.318 357.593C132.807 354.825 137.774 352.751 141.921 349.465C145.685 346.479 148.297 342.498 149.355 337.801C150.371 333.27 149.998 328.428 148.339 324.095C146.639 319.678 143.611 315.842 139.92 312.908C132.3 306.853 122.201 304.531 112.631 305.827C108.629 306.366 104.71 307.496 101.05 309.207C100.874 309.725 100.697 310.244 100.532 310.762C102.315 309.86 104.161 309.114 106.048 308.512C115.11 305.619 125.281 306.086 133.803 310.461C137.919 312.566 141.631 315.552 144.306 319.336C146.95 323.068 148.453 327.464 148.598 332.037C148.743 336.495 147.582 341.047 144.928 344.676C141.942 348.751 137.359 351.208 133.015 353.561C130.34 355.023 127.738 356.578 125.208 358.268C123.705 356.796 122.035 355.51 120.045 354.732C116.852 353.488 113.264 353.591 110.04 354.67C102.959 357.034 98.8107 363.825 98.0127 371.01C97.5567 375.064 98.1367 379.045 99.3707 382.85C96.3747 385.815 93.1917 388.563 89.5837 390.75C87.4267 392.067 85.1357 393.124 82.7407 393.871C82.7097 394.213 82.6677 394.555 82.6367 394.887C83.0717 394.773 83.4977 394.638 83.9227 394.493C90.0497 392.419 95.1507 388.438 99.7547 383.97C100.999 387.443 102.751 390.761 104.742 393.84C107.375 397.904 110.424 401.699 113.835 405.162C114.011 405.152 114.198 405.131 114.384 405.11C112.414 403.026 110.558 400.828 108.848 398.526C105.437 393.933 102.264 388.822 100.419 383.316C102.13 381.616 103.778 379.853 105.396 378.101C108.558 374.659 111.669 371.144 115.038 367.889C118.179 364.872 121.58 362.114 125.167 359.657C127.324 361.948 129.148 364.54 131.512 366.645C134.239 369.071 137.598 370.326 141.133 371.062C144.803 371.829 148.577 372.14 152.185 373.25C155.399 374.235 158.354 375.966 160.842 378.216C165.829 382.705 168.95 389.196 168.888 395.945C168.878 396.93 168.805 397.925 168.66 398.9C169.096 398.838 169.531 398.786 169.956 398.734C170.683 392.689 169.076 386.572 165.478 381.585ZM119.693 362.28C115.857 365.37 112.394 368.833 109.056 372.451C106.091 375.665 103.167 379.035 100.057 382.187C99.5177 380.404 99.1237 378.589 98.9157 376.744C98.1377 369.756 100.274 361.762 106.288 357.563C109.025 355.655 112.364 354.608 115.712 354.774C119.113 354.93 121.974 356.505 124.369 358.838C122.783 359.926 121.207 361.056 119.693 362.28ZM199.06 352.316C195.597 355.084 192.31 358.112 188.443 360.32C182.865 363.503 175.214 365.193 170.144 360.144C168.153 358.153 166.857 355.427 166.598 352.627C166.318 349.527 167.396 346.748 169.159 344.25C171.118 341.451 173.628 339.097 175.566 336.277C177.194 333.913 178.521 331.373 179.724 328.77C182.181 329.465 184.794 329.465 187.293 328.5C190.414 327.297 192.653 325.079 194.291 322.383C194.177 321.688 194.063 321.004 193.939 320.32C193.161 321.823 192.197 323.233 190.953 324.498C188.641 326.862 185.53 328.189 182.213 327.909C181.549 327.847 180.907 327.722 180.274 327.557C180.419 327.246 180.564 326.924 180.699 326.603C183.509 320.175 185.862 313.384 190.279 307.827C190.673 307.329 191.088 306.853 191.534 306.386C191.482 306.096 191.43 305.805 191.378 305.525C187.22 309.848 184.546 315.468 182.171 320.901C181.238 323.026 180.325 325.173 179.34 327.288C177.121 326.531 175.089 325.173 173.461 323.524C168.028 317.998 167.624 309.455 168.184 302.176C168.537 297.738 169.211 293.322 169.397 288.874C169.594 284.457 169.013 280.155 168.443 275.79C167.914 271.788 167.52 267.703 168.277 263.711C168.889 260.528 170.143 257.542 171.833 254.794C172.942 252.99 174.259 251.31 175.752 249.817C175.659 249.599 175.565 249.382 175.472 249.174C175.088 249.537 174.715 249.91 174.352 250.294C169.541 255.374 166.835 262.01 166.866 269.019C166.876 273.581 167.778 278.07 168.131 282.611C168.494 287.287 168.007 291.942 167.457 296.587C166.524 304.674 165.694 313.58 169.914 320.952C171.822 324.301 175.088 327.142 178.789 328.469C178.322 329.454 177.835 330.429 177.317 331.393C176.394 333.093 175.378 334.742 174.238 336.318C173.17 337.78 171.967 339.138 170.786 340.507C168.619 343.037 166.411 345.795 165.737 349.144C165.167 351.995 165.685 354.992 167.002 357.563C168.308 360.134 170.486 362.332 173.171 363.442C176.406 364.79 179.983 364.686 183.311 363.712C189.573 361.877 194.27 357.471 199.236 353.489C199.174 353.104 199.112 352.71 199.06 352.316ZM202.616 377.375C199.474 374.876 196.105 372.419 191.989 372.046C189.957 371.859 187.945 372.274 186.266 373.456C184.721 374.534 183.643 376.203 182.99 377.945C181.518 381.875 181.891 386.416 183.436 390.262C184.369 392.595 185.79 394.585 187.417 396.4C187.064 396.442 186.702 396.493 186.339 396.545C185.23 395.321 184.224 394.015 183.426 392.574C182.275 390.521 181.529 388.271 181.176 385.939C180.564 381.885 181.166 377.334 183.841 374.078C186.734 370.563 191.441 370.2 195.495 371.683C198.097 372.627 200.295 374.203 202.431 375.882C202.492 376.391 202.554 376.888 202.616 377.375ZM158.034 238.942C158.386 238.434 158.718 237.926 159.029 237.397C158.656 237.355 158.272 237.314 157.888 237.283C155.669 240.86 152.704 244.084 149.677 246.967C149.47 247.164 149.262 247.361 149.055 247.558C148.402 245.36 147.469 243.245 146.131 241.368C145.602 240.632 145.022 239.937 144.379 239.284C144.058 239.429 143.736 239.574 143.425 239.74C145.55 241.845 147.043 244.468 147.956 247.329C148.06 247.661 148.153 247.993 148.236 248.314C145.457 250.875 142.378 253.342 138.884 254.742C135.597 256.069 131.595 256.339 128.506 254.514C128.299 254.763 128.112 255.012 127.915 255.271C130.383 256.774 133.431 257.137 136.365 256.577C140.948 255.706 144.867 252.679 148.298 249.672C148.381 249.599 148.454 249.527 148.526 249.465C149.967 255.644 149.428 262.166 150.403 268.428C151.512 275.603 154.955 282.85 153.182 290.19C152.498 292.979 151.108 295.768 148.755 297.499C145.976 299.552 142.462 299.676 139.258 298.64C132.177 296.369 128.05 289.63 122.192 285.493C119.258 283.419 115.95 282.03 112.705 280.506C112.57 280.776 112.446 281.035 112.321 281.304C114.291 282.258 116.282 283.149 118.138 284.155C119.558 284.922 120.958 285.762 122.244 286.747C123.779 287.919 125.178 289.246 126.557 290.583C129.273 293.227 131.928 296.037 135.235 297.965C138.242 299.717 141.819 300.827 145.302 300.153C148.361 299.552 150.859 297.509 152.414 294.855C153.98 292.211 154.674 289.059 154.685 286.001C154.706 281.968 153.596 278.018 152.632 274.13C152.114 272.067 151.616 269.993 151.315 267.878C151.056 266.022 150.911 264.156 150.797 262.29C150.579 258.599 150.486 254.877 149.885 251.217C149.74 250.367 149.574 249.527 149.367 248.687C152.58 245.754 155.546 242.509 158.034 238.942Z" fill="white"/>
<path d="M128.188 259.038C108.701 299.569 82.6092 400.387 78.7762 415.209C76.1742 425.268 128.699 435.46 130.089 428.465C131.686 420.426 151.777 302.446 149.781 259.972C148.688 236.706 134.932 245.012 128.188 259.038Z" fill="#EB9481"/>
<path d="M130.736 423.818C130.12 431.459 125.772 447.003 122.057 449.534C118.342 452.065 98.189 452.623 88.042 453.157C77.895 453.691 75.75 450.968 75.733 447.466C75.716 443.964 96.972 442.179 96.972 442.179C96.972 442.179 68.966 451.825 61.883 453.532C54.8 455.239 38.542 460.264 35.845 454.456C34.63 451.839 39 448.897 39 448.897C39 448.897 32.191 451.28 30.911 447.9C29.454 444.053 34.836 441.61 34.836 441.61C34.836 441.61 30.561 442.708 30.294 439.525C29.697 432.412 56.556 427.488 56.556 427.488C56.556 427.488 36.381 438.658 35.41 432.878C34.066 424.878 76.038 413.82 80.272 410.079C84.506 406.338 88.804 400.87 88.804 400.87L130.736 423.818Z" fill="#EB9481"/>
<path d="M75.9781 449.229C75.7981 448.172 76.1031 447.16 76.7991 446.463C77.4621 445.747 78.2981 445.198 79.1881 444.729C80.9731 443.801 82.9321 443.135 84.9021 442.537C88.8471 441.31 92.9091 440.378 96.9351 439.108C92.7171 439.267 88.5451 439.955 84.4801 441.176C82.4631 441.82 80.4411 442.567 78.6201 443.777C77.7111 444.37 76.8571 445.114 76.2371 446.054C75.6231 447.003 75.4771 448.28 75.9781 449.229Z" fill="#263238"/>
<path d="M39.001 448.897C41.889 448.029 44.728 447.051 47.564 446.067C50.406 445.099 53.215 444.052 56.034 443.037L64.458 439.903C67.266 438.856 70.074 437.82 72.914 436.808C69.925 437.245 67.006 438.028 64.113 438.861C61.213 439.684 58.371 440.676 55.543 441.699C52.726 442.75 49.921 443.836 47.168 445.049C44.409 446.247 41.667 447.485 39.001 448.897Z" fill="#263238"/>
<path d="M65.6739 430.067C62.9179 430.357 60.2089 430.947 57.5299 431.633C54.8439 432.302 52.2119 433.167 49.6139 434.121C47.0249 435.098 44.4649 436.163 42.0009 437.43C39.5179 438.653 37.1209 440.051 34.8379 441.61C37.4059 440.57 39.8999 439.432 42.4539 438.429C44.9979 437.41 47.5389 436.393 50.1109 435.457C52.6679 434.479 55.2569 433.59 57.8439 432.679C60.4369 431.78 63.0459 430.931 65.6739 430.067Z" fill="#263238"/>
<path d="M61.1336 423.499C56.6816 424 52.3706 425.307 48.2206 426.942C44.0816 428.609 40.0806 430.692 36.5146 433.393C40.6406 431.673 44.6456 429.877 48.7506 428.265C52.8356 426.608 56.9616 425.087 61.1336 423.499Z" fill="#263238"/>
<path d="M150.791 305.608L103.975 305.844C103.975 305.844 116.683 268.213 128.778 252.659C140.873 237.104 150.588 239.159 151.672 257.459C152.755 275.757 150.791 305.608 150.791 305.608Z" fill="#004761"/>
<path d="M151.674 257.465C151.73 258.289 151.773 259.157 151.796 260.029C151.83 260.419 151.844 260.813 151.858 261.207C152.518 279.546 150.797 305.609 150.797 305.609L138.082 305.678L136.809 305.675L103.978 305.852C103.978 305.852 109.371 289.885 116.456 274.466C116.692 273.961 116.924 273.436 117.18 272.927C120.795 265.214 124.814 257.756 128.772 252.668C140.878 237.108 150.584 239.167 151.674 257.465Z" fill="#004761"/>
<path d="M112.851 305.796L122.358 305.744C119.207 305.371 116.003 305.392 112.851 305.796ZM151.316 267.88C151.057 266.024 150.912 264.158 150.798 262.292C150.58 258.601 150.487 254.879 149.886 251.219C149.741 250.369 149.575 249.529 149.368 248.689C149.555 248.513 149.741 248.347 149.928 248.16C149.793 247.797 149.648 247.455 149.503 247.134C149.358 247.279 149.202 247.414 149.057 247.559C148.767 246.595 148.435 245.651 148.02 244.739C147.419 243.982 146.724 243.391 145.978 242.976C146.807 244.334 147.471 245.796 147.958 247.331C148.062 247.663 148.155 247.995 148.238 248.316C145.459 250.877 142.38 253.344 138.886 254.744C135.33 256.185 130.934 256.382 127.761 254.018C127.574 254.277 127.388 254.526 127.212 254.796C129.783 256.693 133.142 257.191 136.367 256.579C140.95 255.708 144.869 252.681 148.3 249.674C148.383 249.601 148.456 249.529 148.528 249.467C149.969 255.646 149.43 262.168 150.405 268.43C150.768 270.773 151.38 273.127 151.981 275.491C151.991 274.164 152.012 272.827 152.012 271.51C151.731 270.306 151.493 269.104 151.316 267.88ZM148.756 297.502C145.977 299.555 142.463 299.679 139.259 298.643C132.178 296.372 128.051 289.633 122.193 285.496C119.528 283.619 116.553 282.292 113.598 280.924C113.474 281.194 113.359 281.473 113.245 281.753C114.904 282.541 116.573 283.308 118.139 284.158C119.559 284.925 120.959 285.765 122.245 286.75C123.78 287.922 125.179 289.249 126.558 290.586C129.274 293.23 131.929 296.04 135.236 297.968C138.243 299.72 141.82 300.83 145.303 300.156C147.719 299.679 149.782 298.311 151.306 296.444C151.337 295.853 151.368 295.231 151.389 294.588C150.694 295.708 149.823 296.724 148.756 297.502Z" fill="white"/>
<path d="M109.957 295.04C112.984 294.125 134.572 292.687 149.891 293.71C150.124 293.726 150.116 294.057 149.885 294.07C148.19 294.171 113.147 296.036 109.951 295.526C109.687 295.484 109.74 295.106 109.957 295.04Z" fill="#263238"/>
<path d="M153.757 277.225C153.759 277.081 153.554 277.07 153.516 277.199C153.04 278.779 152.792 280.417 152.497 282.038C152.429 282.411 152.376 282.788 152.315 283.163C152.183 279.214 151.987 275.273 151.78 271.355C151.77 271.166 151.484 271.172 151.486 271.361C151.61 284.948 151.246 297.352 150.422 305.225C149.067 305.336 147.712 305.448 146.358 305.559C146.043 305.585 146.053 306.036 146.368 306.049C147.891 306.109 150.01 306.169 151.534 306.229C151.749 306.238 152.613 294.913 152.399 285.986C152.685 284.701 152.984 283.416 153.196 282.119C153.459 280.499 153.741 278.869 153.757 277.225Z" fill="#263238"/>
<path d="M110.302 305.851C108.193 305.982 106.084 306.089 103.976 306.15L103.565 306.162L103.694 305.754C104.509 303.172 105.354 300.603 106.266 298.056C107.181 295.511 108.121 292.974 109.124 290.461C110.123 287.947 111.162 285.447 112.29 282.985C113.399 280.516 114.579 278.075 115.889 275.705L112.94 283.256L110.062 290.825L107.182 298.394L104.259 305.95L103.977 305.554C106.085 305.613 108.194 305.72 110.302 305.851Z" fill="#263238"/>
<path d="M167.483 261.511C160.363 263.86 146.92 253.852 141.211 245.291C140.823 244.702 141.243 219.824 140.813 214.887C140.72 213.874 172.481 219.713 172.481 219.713C172.481 219.713 170.332 230.33 171.134 238.934C171.209 239.653 174.363 259.236 167.483 261.511Z" fill="#EB9481"/>
<path d="M172.492 219.704C172.492 219.704 172.492 219.704 172.473 219.728C172.448 219.882 172.324 220.502 172.158 221.496C171.878 223.195 171.46 225.949 171.213 229.072C170.946 232.198 170.83 235.695 171.138 238.928C171.144 239.165 171.192 239.398 171.217 239.611L171.229 239.718C171.297 240.121 171.359 240.655 171.433 241.296C170.527 241.509 169.525 241.646 168.431 241.729C151.523 242.814 144.04 222.596 141.776 214.784C141.95 214.785 142.125 214.809 142.322 214.829C143.151 214.885 144.248 215.018 145.567 215.191C145.897 215.24 146.227 215.288 146.579 215.334C148.691 215.631 151.205 216.034 153.828 216.446C154.688 216.585 155.548 216.724 156.432 216.881C158.309 217.206 160.207 217.528 161.973 217.822C162.726 217.973 163.477 218.103 164.183 218.216C164.956 218.343 165.73 218.492 166.436 218.606C166.79 218.673 167.144 218.741 167.474 218.789C167.652 218.833 167.807 218.859 167.961 218.885C168.999 219.068 169.883 219.226 170.591 219.361C171.121 219.451 171.541 219.533 171.85 219.583C172.116 219.639 172.292 219.662 172.383 219.695C172.426 219.69 172.447 219.688 172.471 219.707C172.492 219.704 172.492 219.704 172.492 219.704Z" fill="#263238"/>
<path d="M134.728 178.638C131.721 189.766 138.586 221.402 146.664 228.24C158.376 238.153 177.032 238.524 185.339 224.58C193.391 211.064 183.714 169.993 174.738 163.833C161.518 154.76 139.17 162.2 134.728 178.638Z" fill="#EB9481"/>
<path d="M139.316 209.604C144.967 207.778 142.472 193.078 142.472 193.078C142.472 193.078 149.209 189.077 149.121 175.325C149.121 175.325 156.4 187.586 179.95 180.37C179.95 180.37 180.339 174.433 175.956 168.143C175.956 168.143 179.68 172.328 184.349 180.03C184.349 180.03 186.523 158.982 168.177 154.982C160.882 153.392 150.649 155.812 136.333 166.38C136.333 166.38 131.639 157.513 130.053 159.07C128.466 160.627 133.52 168.791 133.52 168.791C133.52 168.791 126.241 167.89 125.338 169.54C124.561 170.96 131.517 171.515 131.517 171.515C131.517 171.515 121.564 176.768 125.498 188.624C129.106 199.501 136.521 210.507 139.316 209.604Z" fill="#263238"/>
<path d="M133.398 171.008C127.13 171.905 122.334 177.448 122.538 183.818C122.651 187.352 124.178 190.908 125.856 193.965C127.693 197.311 130.11 200.105 132.711 202.871C132.855 203.023 133.07 202.772 132.923 202.622C130.541 200.172 128.681 197.153 127.167 194.097C125.743 191.223 124.356 188.006 123.927 184.804C123.077 178.451 127.305 172.769 133.469 171.358C133.667 171.313 133.598 170.98 133.398 171.008Z" fill="#263238"/>
<path d="M153.83 154.109C149.911 155.694 146.181 158.011 142.816 160.557C139.594 162.995 136.504 165.714 134.263 169.108C134.149 169.28 134.365 169.479 134.513 169.32C139.76 163.692 146.595 159.434 153.477 156.069C159.915 152.922 167.943 151.491 174.097 156.083C174.198 156.158 174.32 156.018 174.224 155.933C168.576 150.974 160.404 151.451 153.83 154.109Z" fill="#263238"/>
<path d="M142.771 204.547C142.771 204.547 135.411 194.357 130.77 196.994C126.129 199.631 131.768 214.476 137.29 216.436C142.812 218.396 144.731 213.327 144.731 213.327L142.771 204.547Z" fill="#EB9481"/>
<path d="M132.491 201.209C132.403 201.203 132.387 201.326 132.465 201.356C136.339 202.857 138.418 206.393 139.892 210.07C138.726 208.664 137.155 207.907 135.265 209.296C135.166 209.369 135.265 209.525 135.373 209.5C136.946 209.139 138.088 209.395 139.172 210.641C139.939 211.524 140.472 212.645 141.028 213.669C141.213 214.01 141.832 213.817 141.695 213.423C141.685 213.395 141.673 213.364 141.662 213.335C141.688 208.431 137.771 201.625 132.491 201.209Z" fill="#263238"/>
<path d="M167.713 196.804C167.682 196.727 167.565 196.934 167.584 197.02C168.026 199.122 168.178 201.605 166.389 202.646C166.333 202.679 166.359 202.784 166.428 202.761C168.705 202.02 168.469 198.726 167.713 196.804Z" fill="#263238"/>
<path d="M165.433 194.931C161.986 195.276 162.929 202.145 166.123 201.826C169.266 201.51 168.322 194.642 165.433 194.931Z" fill="#263238"/>
<path d="M179.823 194.321C179.828 194.237 180.003 194.398 180.012 194.486C180.237 196.623 180.854 199.033 182.876 199.475C182.939 199.489 182.948 199.597 182.875 199.596C180.481 199.588 179.693 196.381 179.823 194.321Z" fill="#263238"/>
<path d="M181.418 191.839C184.804 191.109 186.014 197.936 182.877 198.612C179.79 199.278 178.579 192.45 181.418 191.839Z" fill="#263238"/>
<path d="M162.21 192.977C163.114 192.613 163.886 192.126 164.742 191.675C165.708 191.165 166.53 190.858 167.071 189.855C167.361 189.316 167.091 188.459 166.596 188.128C165.44 187.357 164.102 187.688 162.914 188.255C161.625 188.87 160.789 189.674 160.18 190.963C159.588 192.212 161.019 193.457 162.21 192.977Z" fill="#263238"/>
<path d="M183.076 188.076C182.102 188.052 181.209 187.867 180.249 187.743C179.165 187.603 178.288 187.604 177.431 186.853C176.97 186.451 176.923 185.554 177.271 185.07C178.083 183.943 179.453 183.785 180.764 183.9C182.187 184.025 183.251 184.485 184.274 185.478C185.264 186.441 184.36 188.109 183.076 188.076Z" fill="#263238"/>
<path d="M168.107 215.729C168.685 216.157 169.288 216.773 170.069 216.732C170.818 216.692 171.641 216.239 172.283 215.882C172.346 215.847 172.425 215.908 172.39 215.978C171.95 216.871 170.858 217.542 169.848 217.504C168.862 217.468 168.271 216.701 167.916 215.852C167.866 215.734 168.023 215.667 168.107 215.729Z" fill="#263238"/>
<path d="M169.469 209.051C170.914 210.734 172.803 211.503 174.747 211.61C175.616 211.664 176.509 211.57 177.369 211.371C177.54 211.344 177.709 211.301 177.859 211.246C178.012 211.206 178.149 211.168 178.316 211.11C178.559 211.04 178.668 210.816 178.677 210.575L178.674 210.559C178.662 210.481 178.652 210.419 178.624 210.344C178.624 210.344 178.624 210.344 178.622 210.328L178.593 210.142C178.412 208.498 177.912 206.028 177.912 206.028C178.551 206.246 181.792 207.2 181.626 206.35C180.23 199.323 178.677 191.508 175.803 184.81C175.72 184.584 175.37 184.687 175.422 184.917C176.497 191.724 178.761 198.296 179.949 205.117C178.924 204.881 177.241 204.414 176.387 204.549C176.164 204.648 177.441 209.305 177.463 210.05C177.463 210.05 177.468 210.081 177.46 210.13C174.756 210.86 172.567 210.313 169.641 208.832C169.467 208.733 169.318 208.899 169.469 209.051Z" fill="#263238"/>
<path d="M176.29 210.674C176.29 210.674 175.106 212.833 173.215 213.814C172.518 214.177 171.743 214.39 170.886 214.283C169.125 214.07 168.869 212.517 168.998 211.139C169.1 210.007 169.479 208.992 169.479 208.992C169.479 208.992 172.278 210.974 176.29 210.674Z" fill="#263238"/>
<path d="M173.215 213.815C172.518 214.178 171.743 214.391 170.886 214.284C169.125 214.071 168.869 212.518 168.998 211.14C170.844 211.077 172.817 212.066 173.215 213.815Z" fill="#FF9ABB"/>
<path d="M271.735 107H268.875L267.809 104.582H267.25V107H264.65V98.875H268.745C270.608 98.875 271.54 99.824 271.54 101.722C271.54 103.022 271.137 103.88 270.331 104.296L271.735 107ZM267.25 100.955V102.58H267.848C268.16 102.58 268.385 102.55 268.524 102.489C268.671 102.42 268.745 102.268 268.745 102.034V101.501C268.745 101.267 268.671 101.12 268.524 101.059C268.385 100.99 268.16 100.955 267.848 100.955H267.25ZM277.848 103.932H275.248V104.92H278.433V107H272.648V98.875H278.368L278.043 100.955H275.248V102.047H277.848V103.932ZM283.897 106.701L282.792 107C281.336 107 280.356 106.627 279.854 105.882C279.594 105.509 279.412 105.093 279.308 104.634C279.204 104.166 279.152 103.603 279.152 102.944C279.152 101.462 279.429 100.383 279.984 99.707C280.538 99.0223 281.535 98.68 282.974 98.68C284.412 98.68 285.413 99.0223 285.977 99.707C286.54 100.392 286.822 101.471 286.822 102.944C286.822 104.045 286.592 104.933 286.133 105.609L287.069 106.155L286.393 107.65L283.897 107.195V106.701ZM281.947 104.972H283.026C283.381 104.972 283.637 104.933 283.793 104.855C283.957 104.768 284.04 104.578 284.04 104.283V100.903H282.948C282.601 100.903 282.345 100.946 282.181 101.033C282.025 101.111 281.947 101.297 281.947 101.592V104.972ZM290.135 98.875V104.972H291.058C291.387 104.972 291.613 104.933 291.734 104.855C291.855 104.768 291.916 104.578 291.916 104.283V98.875H294.516V103.438C294.516 104.175 294.468 104.768 294.373 105.219C294.278 105.67 294.1 106.051 293.84 106.363C293.58 106.675 293.225 106.892 292.774 107.013C292.323 107.134 291.738 107.195 291.019 107.195C290.3 107.195 289.715 107.134 289.264 107.013C288.822 106.892 288.471 106.675 288.211 106.363C287.951 106.051 287.773 105.67 287.678 105.219C287.583 104.768 287.535 104.175 287.535 103.438V98.875H290.135ZM300.827 103.932H298.227V104.92H301.412V107H295.627V98.875H301.347L301.022 100.955H298.227V102.047H300.827V103.932ZM302.195 106.857L302.559 104.712C303.356 104.911 304.071 105.011 304.704 105.011C305.345 105.011 305.861 104.985 306.251 104.933V104.283L305.081 104.179C304.024 104.084 303.296 103.832 302.897 103.425C302.507 103.009 302.312 102.398 302.312 101.592C302.312 100.483 302.55 99.72 303.027 99.304C303.512 98.888 304.331 98.68 305.484 98.68C306.637 98.68 307.677 98.7883 308.604 99.005L308.279 101.085C307.473 100.955 306.827 100.89 306.342 100.89C305.857 100.89 305.445 100.912 305.107 100.955V101.592L306.043 101.683C307.178 101.796 307.963 102.069 308.396 102.502C308.829 102.927 309.046 103.52 309.046 104.283C309.046 104.829 308.972 105.293 308.825 105.674C308.678 106.047 308.5 106.333 308.292 106.532C308.093 106.723 307.807 106.87 307.434 106.974C307.061 107.078 306.732 107.139 306.446 107.156C306.169 107.182 305.796 107.195 305.328 107.195C304.201 107.195 303.157 107.082 302.195 106.857ZM315.808 100.955H313.923V107H311.323V100.955H309.438V98.875H315.808V100.955Z" fill="white"/>
</svg>
