<svg width="500" height="500" viewBox="0 0 500 500" fill="none" xmlns="http://www.w3.org/2000/svg">
<path d="M413.22 247.352C413.22 252.565 408.994 256.791 403.781 256.791C398.568 256.791 394.342 252.565 394.342 247.352C394.342 242.139 398.568 237.913 403.781 237.913C408.994 237.912 413.22 242.138 413.22 247.352Z" fill="#EBEBEB"/>
<path d="M382.858 254.462C386.785 250.536 386.785 244.169 382.858 240.242C378.931 236.316 372.565 236.316 368.638 240.242C364.712 244.169 364.712 250.536 368.638 254.462C372.565 258.389 378.931 258.389 382.858 254.462Z" fill="#EBEBEB"/>
<path d="M354.208 240.235C360.103 240.235 364.881 235.457 364.881 229.562C364.881 223.667 360.103 218.889 354.208 218.889C348.314 218.889 343.535 223.667 343.535 229.562C343.535 235.457 348.314 240.235 354.208 240.235Z" fill="#EBEBEB"/>
<path d="M360.827 204.177C361.915 198.117 357.884 192.322 351.824 191.234C345.764 190.147 339.969 194.177 338.881 200.238C337.793 206.298 341.824 212.093 347.884 213.18C353.944 214.268 359.739 210.237 360.827 204.177Z" fill="#EBEBEB"/>
<path d="M363.488 189.788C369.851 189.788 375.009 184.63 375.009 178.267C375.009 171.904 369.851 166.746 363.488 166.746C357.125 166.746 351.967 171.904 351.967 178.267C351.967 184.63 357.125 189.788 363.488 189.788Z" fill="#EBEBEB"/>
<path d="M394.579 180.412C400.978 177.738 403.997 170.383 401.323 163.985C398.649 157.586 391.294 154.567 384.896 157.241C378.498 159.915 375.478 167.27 378.152 173.668C380.826 180.067 388.181 183.086 394.579 180.412Z" fill="#EBEBEB"/>
<path d="M433.509 231.42C434.661 226.519 431.622 221.611 426.72 220.458C421.818 219.306 416.91 222.345 415.758 227.247C414.605 232.148 417.645 237.056 422.546 238.209C427.448 239.362 432.356 236.322 433.509 231.42Z" fill="#EBEBEB"/>
<path d="M432.52 209.831C436.885 208.159 439.068 203.267 437.397 198.902C435.726 194.538 430.833 192.354 426.468 194.025C422.104 195.697 419.92 200.59 421.591 204.954C423.263 209.319 428.156 211.502 432.52 209.831Z" fill="#EBEBEB"/>
<path d="M423.035 179.207C423.717 174.993 420.854 171.024 416.64 170.342C412.426 169.659 408.457 172.523 407.774 176.737C407.092 180.951 409.955 184.92 414.169 185.602C418.383 186.284 422.353 183.421 423.035 179.207Z" fill="#EBEBEB"/>
<path fill-rule="evenodd" clip-rule="evenodd" d="M142.263 132.533C144.59 135.02 146.544 137.78 148.099 140.724L157.422 140.688L160.887 155.722L152.489 159.773C152.381 163.1 151.834 166.437 150.829 169.694L157.446 176.26L149.265 189.34L140.466 186.267C137.979 188.597 135.217 190.548 132.273 192.101L132.308 201.427L117.276 204.892L113.224 196.493C109.897 196.384 106.561 195.837 103.303 194.831L96.7385 201.448L83.6555 193.268L86.7295 184.468C84.3995 181.981 82.4495 179.221 80.8955 176.276L71.5695 176.311L68.1045 161.277L76.5055 157.227C76.6145 153.9 77.1615 150.564 78.1655 147.307L71.5505 140.741L79.7305 127.66L88.5295 130.734C91.0165 128.404 93.7785 126.452 96.7225 124.899L96.6875 115.573L111.719 112.108L115.77 120.508C119.097 120.616 122.433 121.163 125.691 122.168L132.256 115.552L145.336 123.731L142.263 132.533ZM123.865 144.84C116.116 139.994 105.904 142.347 101.057 150.098C96.2115 157.848 98.5665 168.06 106.314 172.905C114.065 177.751 124.275 175.397 129.122 167.648C133.969 159.897 131.616 149.687 123.865 144.84Z" fill="#E0E0E0"/>
<path fill-rule="evenodd" clip-rule="evenodd" d="M151.346 69.302C152.634 70.679 153.715 72.207 154.576 73.837L159.738 73.817L161.656 82.14L157.006 84.383C156.946 86.225 156.644 88.073 156.087 89.876L159.75 93.511L155.22 100.753L150.348 99.052C148.971 100.342 147.442 101.422 145.812 102.282L145.832 107.445L137.51 109.364L135.267 104.714C133.425 104.654 131.578 104.351 129.775 103.794L126.14 107.458L118.897 102.929L120.599 98.057C119.309 96.68 118.229 95.152 117.369 93.521L112.206 93.54L110.287 85.216L114.938 82.974C114.998 81.132 115.302 79.285 115.857 77.482L112.194 73.847L116.723 66.604L121.595 68.306C122.972 67.016 124.501 65.935 126.131 65.075L126.111 59.912L134.433 57.993L136.676 62.644C138.518 62.704 140.365 63.007 142.169 63.563L145.804 59.9L153.046 64.428L151.346 69.302ZM141.16 76.116C136.87 73.433 131.216 74.736 128.533 79.027C125.85 83.318 127.154 88.971 131.444 91.654C135.735 94.337 141.388 93.034 144.071 88.743C146.754 84.452 145.451 78.799 141.16 76.116Z" fill="#E0E0E0"/>
<path d="M78.9296 84.687C78.9376 84.673 79.0806 84.753 79.3456 84.92C79.6136 85.081 79.9856 85.362 80.4096 85.782C81.2506 86.601 82.3166 88.12 82.5446 90.287C82.6496 91.355 82.5526 92.57 82.0846 93.758C81.6156 94.934 80.8416 96.116 79.6986 96.994C79.1416 97.447 78.4946 97.816 77.7956 98.091C77.0996 98.376 76.3426 98.556 75.5626 98.608C74.0016 98.747 72.3496 98.345 70.9346 97.477C69.5336 96.585 68.4486 95.275 67.8906 93.81C67.5956 93.085 67.4266 92.325 67.3776 91.575C67.3186 90.826 67.3676 90.082 67.5306 89.383C67.8196 87.97 68.5426 86.757 69.3956 85.82C70.2596 84.88 71.3086 84.26 72.3156 83.887C74.3636 83.144 76.1966 83.436 77.3006 83.834C77.8636 84.031 78.2796 84.243 78.5406 84.413C78.8036 84.58 78.9386 84.674 78.9296 84.687C78.9026 84.736 78.3566 84.355 77.2416 84.01C76.1466 83.674 74.3736 83.449 72.4306 84.2C71.4756 84.577 70.4866 85.182 69.6806 86.086C68.8846 86.987 68.2126 88.141 67.9526 89.475C67.8036 90.135 67.7636 90.836 67.8236 91.541C67.8736 92.247 68.0366 92.961 68.3176 93.641C68.8486 95.016 69.8676 96.24 71.1826 97.079C72.5126 97.893 74.0586 98.274 75.5266 98.149C76.2606 98.104 76.9736 97.938 77.6306 97.674C78.2906 97.42 78.9026 97.077 79.4306 96.654C80.5166 95.837 81.2596 94.727 81.7206 93.617C82.1796 92.497 82.2916 91.343 82.2126 90.319C82.0376 88.243 81.0596 86.747 80.2766 85.91C79.4786 85.057 78.8966 84.732 78.9296 84.687Z" fill="#E0E0E0"/>
<path d="M87.1825 79.166C87.1765 79.167 87.1995 79.083 87.2515 78.915C87.3125 78.728 87.3925 78.479 87.4945 78.162C87.7265 77.47 88.0585 76.478 88.4885 75.193L88.5195 75.281C87.0095 74.35 85.0265 73.127 82.6285 71.649L82.7765 71.632C81.8875 72.535 80.9005 73.539 79.8445 74.613L79.7865 74.672L79.7055 74.648C78.3615 74.239 76.8725 73.972 75.2915 73.926L75.1985 73.923L75.1575 73.838C74.5875 72.665 73.9705 71.396 73.3285 70.075L73.5165 70.165C71.3945 70.66 69.1415 71.185 66.7775 71.737L66.9215 71.556C66.9295 72.851 66.9375 74.277 66.9465 75.739L66.9475 75.857L66.8435 75.912C65.6175 76.561 64.3515 77.435 63.2165 78.506L63.1275 78.59L63.0105 78.55C61.7865 78.125 60.4365 77.655 59.0615 77.178L59.3085 77.091C58.1585 78.936 56.9185 80.925 55.6475 82.964L55.6165 82.693C56.5415 83.609 57.5575 84.616 58.5875 85.635L58.6835 85.73L58.6435 85.859C58.2325 87.193 57.9605 88.707 57.9125 90.251L57.9085 90.388L57.7845 90.448C56.6045 91.018 55.3175 91.64 54.0175 92.268L54.1415 92.009C54.6345 94.144 55.1635 96.432 55.6995 98.752L55.4705 98.571C56.7915 98.566 58.2175 98.56 59.6545 98.554L59.7965 98.553L59.8625 98.679C60.5215 99.93 61.3955 101.186 62.4415 102.3L62.4425 102.301L62.4435 102.302C62.4665 102.409 62.3935 102.064 62.4945 102.541L62.4935 102.545L62.4905 102.553L62.4855 102.569L62.4745 102.6L62.4525 102.662L62.4085 102.786L62.3215 103.034L62.1485 103.53L61.8025 104.52C61.5725 105.179 61.3435 105.835 61.1145 106.488L61.0175 106.212C63.0005 107.453 64.9565 108.677 66.8855 109.883L66.5965 109.917C67.5885 108.918 68.5705 107.929 69.5425 106.95L69.6415 106.851L69.7745 106.892C71.2135 107.337 72.6945 107.581 74.1635 107.63L74.3015 107.635L74.3615 107.759C74.9755 109.034 75.5795 110.289 76.1755 111.528L75.9235 111.407C78.2255 110.879 80.4755 110.363 82.6685 109.86L82.5005 110.072C82.4975 108.653 82.4935 107.258 82.4905 105.889V105.761L82.6035 105.702C83.9515 104.993 85.1725 104.117 86.2375 103.123L86.3275 103.039L86.4435 103.08C87.7965 103.555 89.1075 104.016 90.3885 104.466L90.1585 104.547C91.4545 102.486 92.6775 100.54 93.8415 98.688L93.8675 98.911C92.8265 97.872 91.8495 96.898 90.9075 95.958L90.8345 95.885L90.8645 95.788C91.3385 94.265 91.5635 92.79 91.6155 91.383L91.6195 91.289L91.7035 91.249C93.0755 90.594 94.3105 90.004 95.4775 89.446L95.4015 89.6C94.8125 86.985 94.3105 84.757 93.8805 82.849L93.9835 82.931C92.3135 82.925 90.9435 82.921 89.8005 82.917H89.7545L89.7335 82.877C89.0315 81.529 88.3515 80.621 87.8895 80.033C87.6615 79.756 87.4865 79.543 87.3565 79.384C87.2315 79.237 87.1765 79.167 87.1825 79.166C87.1885 79.165 87.2585 79.231 87.3855 79.358C87.5135 79.492 87.7065 79.696 87.9495 79.983C88.4325 80.557 89.1375 81.457 89.8665 82.805L89.7995 82.765C90.9425 82.753 92.3125 82.738 93.9825 82.719L94.0665 82.718L94.0865 82.801C94.5355 84.705 95.0585 86.929 95.6735 89.537L95.6985 89.645L95.5975 89.694C94.4345 90.26 93.2035 90.86 91.8365 91.525L91.9235 91.391C91.8805 92.824 91.6605 94.329 91.1855 95.886L91.1435 95.716C92.0905 96.651 93.0725 97.621 94.1195 98.654L94.2215 98.755L94.1455 98.878C92.9895 100.736 91.7745 102.687 90.4885 104.754L90.4065 104.886L90.2585 104.835C88.9765 104.39 87.6625 103.934 86.3085 103.464L86.5145 103.42C85.4265 104.443 84.1775 105.345 82.7985 106.075L82.9105 105.888C82.9175 107.258 82.9245 108.652 82.9315 110.071L82.9325 110.244L82.7635 110.283C80.5715 110.791 78.3235 111.312 76.0225 111.845L75.8485 111.885L75.7705 111.724C75.1715 110.486 74.5655 109.232 73.9495 107.958L74.1475 108.087C72.6385 108.039 71.1155 107.79 69.6365 107.334L69.8685 107.276C68.8965 108.256 67.9155 109.246 66.9255 110.246L66.7945 110.378L66.6365 110.279C64.7075 109.074 62.7505 107.851 60.7665 106.611L60.6075 106.511L60.6695 106.334C60.8975 105.681 61.1265 105.025 61.3565 104.366L61.7025 103.376L61.8755 102.88L61.9625 102.631L62.0055 102.507L62.0275 102.445L62.0385 102.414L62.0435 102.399L62.0465 102.391L62.0475 102.387C62.1485 102.863 62.0755 102.519 62.0975 102.625L62.0965 102.624L62.0945 102.622C61.0195 101.477 60.1205 100.185 59.4445 98.899L59.6525 99.024C58.2165 99.029 56.7905 99.034 55.4685 99.039L55.2815 99.04L55.2395 98.858C54.7055 96.538 54.1795 94.249 53.6885 92.113L53.6475 91.933L53.8135 91.853C55.1145 91.227 56.4025 90.607 57.5835 90.039L57.4545 90.236C57.5055 88.65 57.7885 87.096 58.2125 85.728L58.2685 85.952C57.2415 84.93 56.2275 83.922 55.3045 83.004L55.1805 82.88L55.2735 82.732C56.5505 80.697 57.7955 78.71 58.9505 76.869L59.0395 76.727L59.1975 76.782C60.5715 77.264 61.9195 77.738 63.1425 78.167L62.9375 78.211C64.1045 77.119 65.4035 76.228 66.6605 75.57L66.5565 75.742C66.5545 74.28 66.5515 72.854 66.5495 71.559V71.41L66.6935 71.377C69.0605 70.838 71.3155 70.324 73.4405 69.84L73.5715 69.81L73.6295 69.93C74.2635 71.254 74.8725 72.528 75.4355 73.704L75.3015 73.617C76.9115 73.675 78.4245 73.958 79.7875 74.384L79.6505 74.42C80.7155 73.356 81.7125 72.361 82.6085 71.465L82.6765 71.397L82.7565 71.448C85.1355 72.957 87.1025 74.204 88.6005 75.155L88.6515 75.188L88.6315 75.244C88.1735 76.505 87.8195 77.478 87.5725 78.158C87.4535 78.475 87.3605 78.723 87.2905 78.91C87.2255 79.078 87.1895 79.165 87.1825 79.166Z" fill="#E0E0E0"/>
<path d="M326.561 41.675L297.16 41.54C293.218 41.522 290.006 44.849 289.99 48.97L289.966 54.303C289.95 58.425 286.738 61.752 282.796 61.734L225.486 61.469C221.544 61.451 218.361 58.095 218.378 53.973L218.401 48.64C218.418 44.518 215.235 41.161 211.293 41.144L200.953 41.096L175.22 40.977C162.44 40.919 152.033 51.233 151.979 64.014L150.411 435.093C150.357 447.868 160.665 458.267 173.438 458.326L324.78 459.024C337.559 459.083 347.966 448.768 348.021 435.988L349.59 64.908C349.642 52.134 339.334 41.735 326.561 41.675Z" fill="white"/>
<path d="M326.562 41.675C326.562 41.675 326.828 41.681 327.354 41.705C327.877 41.758 328.673 41.701 329.698 41.9C331.747 42.152 334.862 42.832 338.359 44.937C340.125 45.943 341.919 47.389 343.615 49.235C345.304 51.084 346.87 53.393 347.987 56.156C349.119 58.91 349.724 62.122 349.677 65.548C349.666 68.964 349.655 72.601 349.643 76.454C349.532 107.28 349.372 151.878 349.174 206.985C348.957 262.096 348.698 327.715 348.411 400.578C348.374 409.686 348.337 418.907 348.299 428.235C348.29 430.567 348.28 432.906 348.27 435.251C348.234 437.598 348.073 440.008 347.357 442.288C346.683 444.568 345.729 446.791 344.384 448.779C343.044 450.766 341.417 452.561 339.556 454.093C335.792 457.089 331.084 458.99 326.211 459.211C324.99 459.292 323.787 459.275 322.58 459.267L318.954 459.251C316.533 459.24 314.107 459.229 311.675 459.218C301.945 459.174 292.122 459.13 282.211 459.085C262.389 458.995 242.216 458.903 221.743 458.81C211.507 458.763 201.196 458.716 190.816 458.668C185.626 458.644 180.419 458.62 175.196 458.596C169.957 458.842 164.545 457.44 160.183 454.386C155.803 451.354 152.58 446.783 151.088 441.718C150.285 439.192 150.146 436.505 150.156 433.906C150.167 431.302 150.178 428.702 150.189 426.106C150.233 415.723 150.277 405.409 150.321 395.17C150.409 374.692 150.495 354.513 150.581 334.686C150.754 295.032 150.921 256.782 151.08 220.345C151.242 183.908 151.397 149.284 151.541 116.88C151.615 100.678 151.686 85.031 151.754 69.991C151.763 68.111 151.771 66.24 151.78 64.379C151.797 63.447 151.867 62.508 151.921 61.578C152.087 60.66 152.162 59.726 152.404 58.828C153.263 55.217 154.949 51.84 157.299 49.065C159.666 46.305 162.629 44.121 165.887 42.699C169.143 41.245 172.712 40.742 176.16 40.798C183.049 40.833 189.773 40.867 196.327 40.9C199.604 40.917 202.838 40.933 206.029 40.95C207.624 40.958 209.209 40.966 210.782 40.974C212.368 40.902 214.009 41.342 215.307 42.257C216.604 43.172 217.599 44.486 218.107 45.964C218.691 47.444 218.544 49.039 218.556 50.521C218.552 51.274 218.549 52.025 218.545 52.773C218.544 53.523 218.514 54.268 218.609 54.984C218.788 56.424 219.391 57.806 220.33 58.884C221.25 59.979 222.515 60.763 223.877 61.106C224.563 61.28 225.252 61.332 225.971 61.321C226.685 61.325 227.395 61.328 228.103 61.332C230.933 61.347 233.717 61.361 236.453 61.376C247.398 61.434 257.583 61.489 266.959 61.539C271.647 61.565 276.132 61.589 280.409 61.612C281.472 61.598 282.548 61.669 283.563 61.584C284.584 61.472 285.561 61.123 286.41 60.595C288.119 59.54 289.283 57.784 289.682 55.929C289.898 55.001 289.865 54.054 289.874 53.115C289.879 52.179 289.884 51.256 289.889 50.348C289.904 49.445 289.852 48.537 290.02 47.654C290.175 46.776 290.476 45.939 290.899 45.186C291.736 43.671 293.091 42.529 294.594 41.945C296.11 41.292 297.722 41.498 299.182 41.473C305.112 41.51 310.131 41.542 314.189 41.567C318.242 41.597 321.334 41.62 323.417 41.635C325.497 41.652 326.562 41.675 326.562 41.675C326.562 41.675 325.497 41.688 323.418 41.687C321.335 41.683 318.243 41.678 314.189 41.67C310.131 41.658 305.112 41.643 299.182 41.626C297.708 41.654 296.126 41.458 294.655 42.098C293.19 42.672 291.869 43.789 291.055 45.271C290.644 46.007 290.351 46.825 290.202 47.683C290.04 48.538 290.092 49.436 290.079 50.346C290.076 51.255 290.073 52.177 290.07 53.113C290.062 54.042 290.099 55.013 289.879 55.969C289.473 57.874 288.282 59.683 286.522 60.773C285.648 61.319 284.639 61.681 283.586 61.799C282.521 61.888 281.481 61.817 280.407 61.834C276.131 61.818 271.645 61.801 266.957 61.783C257.581 61.746 247.395 61.706 236.45 61.664C233.714 61.653 230.93 61.642 228.1 61.63C227.392 61.627 226.682 61.624 225.969 61.621C225.262 61.634 224.51 61.582 223.802 61.4C222.377 61.043 221.055 60.224 220.094 59.084C219.114 57.96 218.483 56.521 218.295 55.021C218.195 54.264 218.227 53.512 218.226 52.769C218.229 52.021 218.232 51.271 218.234 50.517C218.221 49.01 218.36 47.48 217.798 46.07C217.31 44.654 216.355 43.398 215.116 42.526C213.865 41.654 212.339 41.238 210.779 41.307C209.205 41.3 207.621 41.294 206.026 41.287C202.835 41.274 199.601 41.26 196.324 41.247C189.77 41.22 183.046 41.192 176.157 41.163C172.733 41.112 169.243 41.608 166.035 43.042C162.832 44.444 159.918 46.595 157.592 49.311C155.283 52.043 153.629 55.364 152.787 58.914C152.549 59.796 152.478 60.715 152.314 61.617C152.263 62.534 152.193 63.448 152.177 64.377C152.17 66.238 152.163 68.109 152.155 69.989C152.096 85.03 152.035 100.677 151.972 116.878C151.842 149.282 151.704 183.906 151.559 220.343C151.41 256.78 151.253 295.03 151.091 334.684C151.008 354.511 150.924 374.689 150.839 395.168C150.796 405.407 150.753 415.722 150.709 426.105C150.698 428.701 150.687 431.301 150.676 433.905C150.667 436.499 150.801 439.089 151.587 441.57C153.046 446.52 156.197 450.992 160.48 453.956C164.763 456.941 169.995 458.311 175.197 458.072C180.42 458.096 185.627 458.12 190.817 458.144C201.197 458.192 211.508 458.24 221.744 458.288C242.217 458.384 262.389 458.478 282.212 458.571C292.123 458.618 301.947 458.664 311.676 458.71C314.108 458.722 316.535 458.733 318.955 458.745L322.581 458.762C323.789 458.771 324.997 458.787 326.182 458.708C330.952 458.494 335.557 456.634 339.243 453.703C341.065 452.204 342.658 450.447 343.97 448.503C345.288 446.558 346.221 444.382 346.882 442.151C347.585 439.913 347.741 437.576 347.778 435.247C347.788 432.902 347.799 430.563 347.809 428.231C347.85 418.903 347.891 409.682 347.931 400.574C348.26 327.712 348.556 262.092 348.805 206.982C349.073 151.875 349.29 107.277 349.44 76.452C349.46 72.599 349.48 68.962 349.498 65.546C349.552 62.136 348.96 58.953 347.843 56.213C346.742 53.466 345.192 51.166 343.518 49.322C341.838 47.481 340.059 46.035 338.304 45.027C334.832 42.917 331.732 42.221 329.69 41.953C328.669 41.746 327.875 41.795 327.353 41.733C326.828 41.699 326.562 41.675 326.562 41.675Z" fill="#263238"/>
<path d="M299.389 158.514L297.116 155.816L303.881 152.192L272.472 141.561L283.103 172.003L286.969 166.929C286.969 166.929 307.292 202.691 286.969 224.431C266.786 246.021 242.997 241.343 242.997 241.343L247.587 256.323C247.587 256.323 285.036 258.981 305.089 225.156C325.142 191.332 299.389 158.514 299.389 158.514Z" fill="#004761"/>
<path d="M205.206 233.547L207.479 236.245L200.714 239.869L232.123 250.5L221.492 220.058L217.626 225.132C217.626 225.132 197.303 189.37 217.626 167.63C237.809 146.04 261.598 150.717 261.598 150.717L257.007 135.737C257.007 135.737 219.558 133.079 199.505 166.904C179.453 200.729 205.206 233.547 205.206 233.547Z" fill="#004761"/>
<path d="M299.389 158.514L297.116 155.816L303.881 152.192L272.472 141.561L283.103 172.003L286.969 166.929C286.969 166.929 307.292 202.691 286.969 224.431C266.786 246.021 242.997 241.343 242.997 241.343L247.587 256.323C247.587 256.323 285.036 258.981 305.089 225.156C325.142 191.332 299.389 158.514 299.389 158.514Z" fill="#004761"/>
<path d="M205.206 233.547L207.479 236.245L200.714 239.869L232.123 250.5L221.492 220.058L217.626 225.132C217.626 225.132 197.303 189.37 217.626 167.63C237.809 146.04 261.598 150.717 261.598 150.717L257.007 135.737C257.007 135.737 219.558 133.079 199.505 166.904C179.453 200.729 205.206 233.547 205.206 233.547Z" fill="#004761"/>
<g opacity="0.8">
<path d="M299.389 158.514L297.116 155.816L303.881 152.192L272.472 141.561L283.103 172.003L286.969 166.929C286.969 166.929 307.292 202.691 286.969 224.431C266.786 246.021 242.997 241.343 242.997 241.343L247.587 256.323C247.587 256.323 285.036 258.981 305.089 225.156C325.142 191.332 299.389 158.514 299.389 158.514Z" fill="white"/>
</g>
<g opacity="0.8">
<path d="M205.206 233.547L207.479 236.245L200.714 239.869L232.123 250.5L221.492 220.058L217.626 225.132C217.626 225.132 197.303 189.37 217.626 167.63C237.809 146.04 261.598 150.717 261.598 150.717L257.007 135.737C257.007 135.737 219.558 133.079 199.505 166.904C179.453 200.729 205.206 233.547 205.206 233.547Z" fill="white"/>
</g>
<path fill-rule="evenodd" clip-rule="evenodd" d="M270.207 178.273C271.713 179.883 272.977 181.67 273.984 183.575L280.019 183.552L282.262 193.283L276.826 195.905C276.756 198.059 276.402 200.219 275.752 202.327L280.035 206.577L274.739 215.043L269.043 213.054C267.433 214.562 265.646 215.825 263.74 216.831L263.763 222.867L254.033 225.11L251.41 219.674C249.256 219.604 247.097 219.249 244.989 218.598L240.74 222.881L232.272 217.586L234.262 211.89C232.754 210.28 231.492 208.493 230.485 206.587L224.448 206.61L222.205 196.879L227.643 194.257C227.713 192.103 228.068 189.944 228.717 187.836L224.435 183.586L229.73 175.119L235.425 177.109C237.035 175.601 238.823 174.338 240.728 173.332L240.705 167.296L250.435 165.053L253.057 170.49C255.211 170.56 257.37 170.914 259.479 171.565L263.728 167.282L272.195 172.576L270.207 178.273ZM258.298 186.24C253.282 183.103 246.672 184.626 243.535 189.643C240.398 194.659 241.922 201.269 246.938 204.406C251.955 207.543 258.564 206.019 261.701 201.003C264.838 195.986 263.315 189.377 258.298 186.24Z" fill="#004761"/>
<g opacity="0.6">
<path fill-rule="evenodd" clip-rule="evenodd" d="M258.298 186.24C253.282 183.103 246.672 184.626 243.535 189.643C240.398 194.659 241.922 201.269 246.938 204.406C251.955 207.543 258.564 206.019 261.701 201.003C264.838 195.986 263.315 189.377 258.298 186.24Z" fill="white"/>
</g>
<path d="M335.334 77.678C335.335 77.783 331.282 77.903 326.283 77.944C321.282 77.985 317.228 77.934 317.228 77.828C317.227 77.723 321.279 77.603 326.28 77.562C331.278 77.521 335.333 77.573 335.334 77.678Z" fill="#263238"/>
<path d="M335.372 82.311C335.373 82.416 331.32 82.535 326.321 82.577C321.32 82.619 317.266 82.566 317.266 82.461C317.265 82.356 321.317 82.237 326.318 82.195C331.317 82.154 335.371 82.206 335.372 82.311Z" fill="#263238"/>
<path d="M335.41 86.944C335.411 87.049 331.358 87.168 326.359 87.21C321.358 87.251 317.304 87.199 317.304 87.094C317.303 86.989 321.355 86.87 326.356 86.828C331.355 86.786 335.409 86.839 335.41 86.944Z" fill="#263238"/>
<path d="M170.648 92.232C170.655 92.225 170.784 92.217 171.024 92.207C171.321 92.197 171.665 92.186 172.071 92.172C173.059 92.149 174.351 92.118 175.937 92.08L175.83 92.189C175.816 91.332 175.801 90.396 175.785 89.386C175.79 88.865 175.74 88.374 175.791 87.772C175.895 87.172 176.43 86.642 177.088 86.58C177.711 86.568 178.26 86.54 178.935 86.571C179.632 86.656 180.224 87.326 180.203 88.064C180.218 89.371 180.233 90.737 180.249 92.153L180.07 91.977C181.636 91.961 183.267 91.945 184.947 91.927L184.762 92.116C184.745 90.152 184.727 88.12 184.708 86.039C184.704 85.52 184.699 85.004 184.695 84.491C184.693 84.014 184.403 83.695 184.009 83.339C183.287 82.628 182.576 81.927 181.877 81.237C181.179 80.548 180.493 79.871 179.82 79.207C179.484 78.875 179.152 78.547 178.823 78.222C178.48 77.892 178.211 77.551 177.814 77.469C177.429 77.365 177.005 77.447 176.695 77.683C176.4 77.933 176.085 78.286 175.787 78.576C175.186 79.182 174.603 79.771 174.037 80.341C172.936 81.484 171.79 82.529 170.956 83.516C170.605 84.061 170.736 84.729 170.711 85.336C170.71 85.94 170.709 86.514 170.707 87.054C170.701 88.108 170.695 89.031 170.69 89.822C170.682 90.529 170.676 91.114 170.67 91.592C170.665 92.002 170.657 92.222 170.648 92.232C170.639 92.241 170.628 92.04 170.614 91.646C170.601 91.175 170.585 90.6 170.565 89.903C170.547 89.105 170.526 88.175 170.502 87.112C170.492 86.561 170.481 85.976 170.47 85.36C170.465 85.048 170.46 84.728 170.455 84.401C170.452 84.055 170.541 83.697 170.724 83.38C171.626 82.274 172.703 81.296 173.812 80.119C174.373 79.544 174.953 78.95 175.548 78.34C175.861 78.033 176.117 77.727 176.489 77.407C176.879 77.107 177.415 77 177.903 77.129C178.422 77.243 178.76 77.669 179.074 77.967C179.404 78.29 179.738 78.617 180.075 78.947C180.75 79.608 181.438 80.283 182.138 80.97C182.839 81.658 183.551 82.357 184.274 83.067C184.446 83.248 184.652 83.402 184.819 83.657C184.977 83.9 185.067 84.188 185.075 84.479C185.08 84.994 185.084 85.513 185.089 86.034C185.105 88.115 185.12 90.147 185.135 92.111L185.137 92.298L184.95 92.299C183.27 92.31 181.639 92.32 180.073 92.33L179.894 92.331L179.893 92.153C179.886 90.737 179.879 89.371 179.872 88.064C179.893 87.475 179.434 86.955 178.887 86.88C178.326 86.85 177.664 86.87 177.118 86.875C176.594 86.918 176.156 87.339 176.066 87.823C176.019 88.313 176.055 88.885 176.045 89.381C176.045 90.391 176.046 91.327 176.046 92.185V92.295L175.939 92.294C174.326 92.283 173.013 92.273 172.008 92.266C171.61 92.259 171.274 92.253 170.984 92.248C170.756 92.245 170.641 92.239 170.648 92.232Z" fill="#263238"/>
<path d="M290.498 88.279C290.498 88.423 275.26 88.539 256.467 88.539C237.668 88.539 222.433 88.422 222.433 88.279C222.433 88.136 237.668 88.019 256.467 88.019C275.26 88.018 290.498 88.135 290.498 88.279Z" fill="#263238"/>
<path d="M288.732 404.33H217.276C208.15 404.33 200.752 396.932 200.752 387.806C200.752 378.68 208.15 371.281 217.276 371.281H288.732C297.858 371.281 305.256 378.679 305.256 387.806C305.257 396.932 297.859 404.33 288.732 404.33Z" fill="#004761"/>
<path d="M239.37 390.223L239.967 388.9C240.608 389.367 241.562 389.692 242.473 389.692C243.515 389.692 243.938 389.345 243.938 388.878C243.938 387.457 239.523 388.433 239.523 385.612C239.523 384.321 240.564 383.247 242.723 383.247C243.677 383.247 244.654 383.475 245.359 383.92L244.817 385.254C244.112 384.853 243.385 384.657 242.713 384.657C241.671 384.657 241.27 385.048 241.27 385.525C241.27 386.924 245.686 385.959 245.686 388.748C245.686 390.016 244.633 391.101 242.463 391.101C241.257 391.102 240.043 390.745 239.37 390.223Z" fill="white"/>
<path d="M250.53 390.69C250.182 390.94 249.673 391.059 249.152 391.059C247.774 391.059 246.971 390.354 246.971 388.965V386.567H246.071V385.264H246.971V383.843H248.663V385.264H250.117V386.567H248.663V388.943C248.663 389.442 248.934 389.713 249.39 389.713C249.64 389.713 249.889 389.638 250.074 389.496L250.53 390.69Z" fill="white"/>
<path d="M256.646 387.641V390.972H255.062V390.245C254.748 390.776 254.14 391.059 253.283 391.059C251.916 391.059 251.102 390.299 251.102 389.291C251.102 388.261 251.829 387.544 253.608 387.544H254.954C254.954 386.817 254.519 386.395 253.608 386.395C252.99 386.395 252.35 386.601 251.926 386.937L251.319 385.754C251.96 385.299 252.903 385.049 253.837 385.049C255.616 385.048 256.646 385.873 256.646 387.641ZM254.954 389.127V388.53H253.793C253.001 388.53 252.752 388.823 252.752 389.214C252.752 389.638 253.109 389.919 253.706 389.919C254.27 389.919 254.758 389.659 254.954 389.127Z" fill="white"/>
<path d="M261.795 385.048V386.611C261.654 386.6 261.546 386.59 261.416 386.59C260.482 386.59 259.864 387.1 259.864 388.217V390.973H258.172V385.136H259.788V385.907C260.2 385.341 260.894 385.048 261.795 385.048Z" fill="white"/>
<path d="M266.772 390.69C266.424 390.94 265.916 391.059 265.395 391.059C264.017 391.059 263.214 390.354 263.214 388.965V386.567H262.313V385.264H263.214V383.843H264.905V385.264H266.359V386.567H264.905V388.943C264.905 389.442 265.177 389.713 265.632 389.713C265.882 389.713 266.131 389.638 266.316 389.496L266.772 390.69Z" fill="white"/>
<path d="M320.912 325.926C320.912 326.07 290.19 326.186 252.301 326.186C214.399 326.186 183.684 326.069 183.684 325.926C183.684 325.782 214.399 325.666 252.301 325.666C290.19 325.666 320.912 325.783 320.912 325.926Z" fill="#263238"/>
<path d="M293.574 334.338C293.574 334.482 275.093 334.598 252.3 334.598C229.499 334.598 211.022 334.481 211.022 334.338C211.022 334.194 229.499 334.078 252.3 334.078C275.092 334.078 293.574 334.194 293.574 334.338Z" fill="#263238"/>
<path d="M103.696 458.243L97.6211 480.706L117.366 482.508L121.515 461.123L103.696 458.243Z" fill="#004761"/>
<path d="M117.939 480.678C117.933 480.752 116.827 480.725 115.047 480.58C113.267 480.437 110.817 480.165 108.119 479.819C105.52 479.47 103.168 479.154 101.218 478.893C99.4542 478.646 98.3632 478.478 98.3702 478.4C98.3772 478.327 99.4821 478.358 101.261 478.506C103.04 478.653 105.49 478.927 108.189 479.274C110.788 479.62 113.139 479.934 115.09 480.194C116.855 480.437 117.947 480.6 117.939 480.678Z" fill="#263238"/>
<g opacity="0.6">
<path d="M97.6211 480.706L117.366 482.508L117.685 480.861L98.1911 478.383L97.6411 480.483" fill="white"/>
</g>
<path d="M107.43 479.707C107.306 479.676 108.146 475.823 109.307 471.101C110.469 466.377 111.511 462.574 111.635 462.605C111.759 462.636 110.919 466.489 109.757 471.212C108.597 475.933 107.555 479.737 107.43 479.707Z" fill="#263238"/>
<path d="M116.849 480.532C116.728 480.527 117.479 478.92 116.894 476.356C116.593 475.106 115.937 473.652 114.733 472.447C113.548 471.235 111.77 470.389 109.819 470.189C107.864 470.001 105.959 470.472 104.531 471.391C103.085 472.297 102.09 473.535 101.456 474.658C100.2 476.961 100.322 478.693 100.209 478.664C100.193 478.664 100.183 478.561 100.18 478.366C100.17 478.17 100.187 477.882 100.226 477.511C100.309 476.772 100.558 475.702 101.166 474.503C101.784 473.321 102.791 472.005 104.301 471.031C105.795 470.042 107.807 469.529 109.864 469.728C111.918 469.937 113.796 470.845 115.036 472.147C116.291 473.439 116.941 474.977 117.213 476.286C117.473 477.609 117.382 478.713 117.22 479.439C117.135 479.803 117.055 480.081 116.977 480.262C116.908 480.445 116.864 480.537 116.849 480.532Z" fill="#263238"/>
<path d="M185.222 452.215L183.9 472.172C183.9 472.172 203.764 478.764 203.878 482.476L165.068 482.757L165.852 451.576L185.222 452.215Z" fill="#004761"/>
<g opacity="0.6">
<path d="M171.957 470.129C171.2 470.312 170.656 471.14 170.807 471.904C170.958 472.668 171.796 473.228 172.556 473.059C173.316 472.89 174 471.915 173.764 471.174C173.528 470.432 172.509 469.827 171.812 470.174" fill="white"/>
</g>
<g opacity="0.6">
<path d="M165.069 482.757L165.148 479.614L202.632 480.649C202.632 480.649 203.879 481.187 204.076 482.757H165.069Z" fill="white"/>
</g>
<path d="M184.535 471.994C184.523 472.183 183.573 472.24 182.623 472.821C181.657 473.377 181.152 474.183 180.98 474.103C180.806 474.061 181.123 472.937 182.286 472.254C183.443 471.561 184.581 471.822 184.535 471.994Z" fill="#263238"/>
<path d="M188.553 473.8C188.591 473.985 187.761 474.282 187.093 475.064C186.403 475.826 186.214 476.687 186.026 476.673C185.847 476.697 185.749 475.584 186.598 474.628C187.438 473.665 188.555 473.619 188.553 473.8Z" fill="#263238"/>
<path d="M190.716 478.739C190.543 478.774 190.308 477.82 190.825 476.797C191.335 475.771 192.241 475.389 192.316 475.549C192.418 475.708 191.826 476.247 191.414 477.093C190.983 477.929 190.904 478.726 190.716 478.739Z" fill="#263238"/>
<path d="M184.332 467.412C184.247 467.582 183.386 467.295 182.313 467.335C181.24 467.354 180.396 467.688 180.302 467.522C180.196 467.382 181.031 466.705 182.295 466.676C183.559 466.637 184.429 467.266 184.332 467.412Z" fill="#263238"/>
<path d="M184.524 463.381C184.524 463.46 183.772 463.554 182.582 463.312C181.99 463.191 181.294 462.975 180.569 462.626C180.206 462.451 179.837 462.244 179.471 462C179.296 461.88 179.087 461.757 178.898 461.526C178.694 461.322 178.59 460.816 178.842 460.516C179.05 460.224 179.405 460.106 179.685 460.108C179.971 460.107 180.201 460.172 180.411 460.231C180.84 460.349 181.24 460.504 181.606 460.682C182.337 461.041 182.926 461.486 183.362 461.912C184.237 462.773 184.522 463.489 184.457 463.524C184.369 463.584 183.949 462.978 183.054 462.262C182.608 461.906 182.035 461.534 181.351 461.233C181.008 461.084 180.638 460.954 180.246 460.855C179.838 460.735 179.489 460.721 179.378 460.901C179.338 460.97 179.332 460.997 179.414 461.12C179.499 461.234 179.663 461.347 179.835 461.467C180.171 461.701 180.511 461.906 180.844 462.085C181.511 462.441 182.151 462.69 182.7 462.862C183.801 463.204 184.53 463.279 184.524 463.381Z" fill="#263238"/>
<path d="M184.269 463.645C184.201 463.672 183.846 462.982 183.814 461.753C183.8 461.144 183.885 460.408 184.143 459.634C184.274 459.248 184.448 458.854 184.674 458.469C184.913 458.093 185.206 457.588 185.943 457.526C186.327 457.523 186.637 457.832 186.738 458.092C186.858 458.358 186.877 458.584 186.916 458.81C186.974 459.265 186.952 459.709 186.878 460.118C186.731 460.94 186.372 461.617 185.988 462.1C185.199 463.082 184.402 463.285 184.388 463.22C184.328 463.123 184.999 462.777 185.608 461.829C185.908 461.362 186.182 460.741 186.278 460.022C186.327 459.664 186.333 459.283 186.276 458.898C186.228 458.484 186.083 458.147 185.928 458.184C185.735 458.175 185.398 458.476 185.229 458.8C185.019 459.142 184.85 459.493 184.716 459.838C184.452 460.532 184.325 461.2 184.281 461.765C184.192 462.904 184.373 463.619 184.269 463.645Z" fill="#263238"/>
<path d="M185.224 278.832L126.09 278.387L97.5146 466.066L122.057 469.181L153.51 314.864L162.923 469.73L162.948 470.191L189.489 469.727L185.224 278.832Z" fill="#263238"/>
<path d="M158.327 294.041C158.308 294.023 158.734 293.997 159.549 293.962C160.435 293.929 161.626 293.886 163.106 293.831C166.275 293.741 170.671 293.617 175.886 293.469L176.129 293.462L176.13 293.708C176.139 297.416 176.149 301.564 176.16 305.966V306.084L176.073 306.165C175.363 306.817 174.609 307.511 173.847 308.212C171.57 310.299 169.368 312.317 167.286 314.225L167.112 314.384L166.937 314.228C163.685 311.33 160.718 308.685 158.189 306.431L158.117 306.367L158.118 306.274C158.164 302.546 158.201 299.484 158.229 297.28C158.251 296.278 158.269 295.472 158.282 294.857C158.297 294.307 158.312 294.026 158.327 294.041C158.342 294.056 158.357 294.366 158.373 294.938C158.386 295.565 158.404 296.386 158.426 297.408C158.453 299.581 158.491 302.599 158.537 306.274L158.466 306.117C161.014 308.349 164.004 310.968 167.281 313.838L166.932 313.841C169.01 311.928 171.208 309.904 173.48 307.813C174.243 307.113 174.998 306.42 175.708 305.768L175.621 305.966C175.632 301.564 175.642 297.417 175.651 293.708L175.895 293.947C170.74 293.995 166.395 294.037 163.263 294.066C161.76 294.068 160.55 294.07 159.65 294.071C159.264 294.067 158.945 294.064 158.679 294.061C158.456 294.057 158.336 294.05 158.327 294.041Z" fill="#455A64"/>
<path d="M130.497 293.228C130.481 293.208 130.86 293.229 131.588 293.284C132.387 293.349 133.451 293.436 134.77 293.544C137.619 293.802 141.565 294.16 146.27 294.586L146.508 294.608L146.479 294.849C146.046 298.476 145.552 302.61 145.025 307.02L145.012 307.129L144.926 307.198C144.112 307.848 143.25 308.536 142.377 309.233C140.201 310.965 138.092 312.643 136.088 314.238L135.882 314.402L135.72 314.197C133.18 310.985 130.849 308.039 128.845 305.505L128.788 305.433L128.8 305.345C129.297 301.665 129.706 298.631 130.002 296.44C130.146 295.448 130.262 294.648 130.351 294.036C130.434 293.49 130.484 293.211 130.497 293.228C130.511 293.245 130.488 293.557 130.434 294.129C130.371 294.757 130.289 295.577 130.187 296.594C129.95 298.76 129.622 301.759 129.224 305.396L129.179 305.237C131.205 307.754 133.561 310.68 136.129 313.87L135.762 313.829C137.763 312.229 139.868 310.546 142.04 308.81C142.914 308.114 143.777 307.426 144.591 306.777L144.492 306.955C145.043 302.548 145.561 298.417 146.014 294.792L146.224 295.054C141.589 294.537 137.702 294.103 134.895 293.79C133.559 293.629 132.483 293.5 131.674 293.403C130.923 293.307 130.513 293.248 130.497 293.228Z" fill="#455A64"/>
<path d="M166.676 321.715C166.637 321.782 165.623 321.263 163.995 320.412C162.367 319.561 160.119 318.387 157.614 317.136C155.107 315.886 152.817 314.797 151.157 314.008C149.498 313.219 148.474 312.721 148.504 312.65C148.532 312.584 149.609 312.957 151.312 313.658C153.015 314.359 155.339 315.397 157.855 316.651C160.369 317.906 162.597 319.138 164.181 320.077C165.766 321.016 166.713 321.652 166.676 321.715Z" fill="#455A64"/>
<path d="M165.915 326.272C165.893 326.331 165.093 326.112 163.898 325.513C162.705 324.918 161.14 323.896 159.68 322.462C158.223 321.023 157.177 319.474 156.565 318.29C155.948 317.104 155.717 316.308 155.776 316.285C155.932 316.2 157.189 319.283 160.061 322.076C162.895 324.904 165.997 326.114 165.915 326.272Z" fill="#455A64"/>
<path d="M182.609 380.502C182.64 380.512 182.562 380.866 182.341 381.482C182.122 382.098 181.729 382.967 181.108 383.965C179.891 385.952 177.555 388.438 174.207 389.855C170.855 391.266 167.444 391.204 165.171 390.69C164.023 390.439 163.126 390.114 162.532 389.841C161.936 389.569 161.629 389.378 161.643 389.349C161.683 389.251 162.979 389.918 165.243 390.314C167.481 390.721 170.77 390.714 173.996 389.356C177.219 387.992 179.518 385.641 180.788 383.754C182.084 381.856 182.511 380.462 182.609 380.502Z" fill="#455A64"/>
<path d="M178.721 378.903C178.748 378.959 177.92 379.431 176.461 379.9C175.008 380.376 172.912 380.788 170.579 380.871C168.246 380.97 166.139 380.751 164.636 380.522C163.132 380.282 162.222 380.033 162.234 379.967C162.26 379.782 165.965 380.501 170.557 380.33C172.848 380.248 174.902 379.906 176.355 379.532C177.813 379.165 178.687 378.822 178.721 378.903Z" fill="#455A64"/>
<path d="M134.754 380.019C134.795 380.063 134.071 380.846 132.697 381.882C131.328 382.919 129.271 384.158 126.804 385.08C124.334 385.996 121.967 386.404 120.254 386.515C118.537 386.63 117.477 386.511 117.48 386.451C117.481 386.362 118.537 386.344 120.217 386.134C121.896 385.928 124.198 385.469 126.616 384.572C129.031 383.668 131.072 382.51 132.477 381.568C133.885 380.63 134.696 379.952 134.754 380.019Z" fill="#455A64"/>
<path d="M129.57 379.791C129.603 379.922 127.178 380.487 124.147 380.236C121.114 380.004 118.81 379.062 118.863 378.937C118.911 378.78 121.236 379.471 124.19 379.696C127.142 379.943 129.547 379.629 129.57 379.791Z" fill="#455A64"/>
<path d="M153.157 316.159C153.183 316.219 152.191 316.735 150.498 317.363C148.807 317.993 146.401 318.695 143.676 319.134C140.949 319.568 138.443 319.652 136.641 319.582C134.836 319.514 133.733 319.333 133.739 319.268C133.746 319.184 134.856 319.229 136.644 319.199C138.432 319.171 140.899 319.028 143.591 318.6C146.28 318.167 148.669 317.532 150.376 317.001C152.083 316.47 153.124 316.081 153.157 316.159Z" fill="#455A64"/>
<path d="M151.544 310.1C151.693 310.099 151.821 310.563 151.829 311.136C151.837 311.709 151.722 312.176 151.572 312.179C151.423 312.182 151.295 311.718 151.288 311.143C151.28 310.568 151.395 310.101 151.544 310.1Z" fill="#455A64"/>
<path d="M151.549 305.942C151.698 305.944 151.817 306.41 151.813 306.983C151.81 307.556 151.686 308.021 151.536 308.021C151.387 308.021 151.268 307.555 151.272 306.98C151.276 306.405 151.4 305.94 151.549 305.942Z" fill="#455A64"/>
<path d="M151.633 301.785C151.782 301.79 151.892 302.258 151.877 302.831C151.862 303.404 151.729 303.866 151.58 303.863C151.431 303.86 151.321 303.392 151.336 302.817C151.351 302.243 151.484 301.781 151.633 301.785Z" fill="#455A64"/>
<path d="M151.8 297.631C151.949 297.639 152.049 298.109 152.024 298.682C151.998 299.255 151.856 299.714 151.707 299.708C151.558 299.702 151.458 299.232 151.483 298.657C151.508 298.083 151.65 297.623 151.8 297.631Z" fill="#455A64"/>
<path d="M152.046 293.48C152.195 293.49 152.286 293.963 152.25 294.535C152.213 295.107 152.062 295.564 151.913 295.555C151.764 295.546 151.673 295.074 151.71 294.5C151.746 293.927 151.897 293.47 152.046 293.48Z" fill="#455A64"/>
<path d="M152.374 289.336C152.523 289.349 152.605 289.823 152.557 290.394C152.509 290.965 152.349 291.419 152.2 291.407C152.051 291.395 151.969 290.922 152.017 290.349C152.066 289.776 152.225 289.323 152.374 289.336Z" fill="#455A64"/>
<path d="M152.702 285.941C152.851 285.957 152.941 286.266 152.904 286.631C152.867 286.996 152.716 287.281 152.567 287.266C152.418 287.252 152.328 286.943 152.365 286.576C152.403 286.21 152.554 285.926 152.702 285.941Z" fill="#455A64"/>
<path d="M119.272 465.064C119.419 465.093 119.446 465.573 119.334 466.136C119.221 466.699 119.011 467.131 118.865 467.102C118.719 467.073 118.691 466.593 118.804 466.03C118.916 465.467 119.126 465.035 119.272 465.064Z" fill="#455A64"/>
<path d="M120.088 460.988C120.234 461.017 120.262 461.497 120.149 462.06C120.036 462.623 119.826 463.055 119.68 463.026C119.533 462.997 119.506 462.517 119.618 461.954C119.731 461.391 119.941 460.958 120.088 460.988Z" fill="#455A64"/>
<path d="M120.903 456.911C121.05 456.94 121.077 457.42 120.965 457.983C120.852 458.546 120.642 458.978 120.496 458.949C120.35 458.92 120.322 458.44 120.435 457.877C120.547 457.314 120.757 456.882 120.903 456.911Z" fill="#455A64"/>
<path d="M121.719 452.835C121.865 452.864 121.893 453.344 121.781 453.907C121.668 454.47 121.458 454.903 121.312 454.873C121.166 454.844 121.138 454.364 121.25 453.801C121.362 453.238 121.572 452.805 121.719 452.835Z" fill="#455A64"/>
<path d="M122.534 448.758C122.681 448.787 122.708 449.268 122.596 449.83C122.483 450.393 122.273 450.825 122.127 450.796C121.981 450.767 121.953 450.287 122.066 449.724C122.178 449.161 122.388 448.729 122.534 448.758Z" fill="#455A64"/>
<path d="M123.35 444.682C123.497 444.711 123.524 445.191 123.412 445.754C123.3 446.317 123.089 446.749 122.943 446.72C122.796 446.691 122.769 446.211 122.881 445.648C122.993 445.085 123.203 444.652 123.35 444.682Z" fill="#455A64"/>
<path d="M124.164 440.605C124.311 440.634 124.338 441.114 124.226 441.677C124.113 442.24 123.903 442.672 123.757 442.643C123.611 442.614 123.583 442.134 123.696 441.571C123.808 441.008 124.018 440.576 124.164 440.605Z" fill="#455A64"/>
<path d="M124.981 436.529C125.128 436.558 125.155 437.038 125.043 437.601C124.93 438.164 124.72 438.596 124.574 438.567C124.427 438.538 124.4 438.058 124.512 437.495C124.624 436.932 124.834 436.499 124.981 436.529Z" fill="#455A64"/>
<path d="M125.796 432.452C125.942 432.481 125.97 432.961 125.858 433.524C125.745 434.087 125.535 434.519 125.389 434.49C125.243 434.461 125.215 433.981 125.328 433.418C125.44 432.855 125.65 432.423 125.796 432.452Z" fill="#455A64"/>
<path d="M126.612 428.376C126.759 428.405 126.786 428.885 126.674 429.448C126.561 430.011 126.351 430.443 126.205 430.414C126.058 430.385 126.031 429.905 126.144 429.342C126.255 428.779 126.465 428.346 126.612 428.376Z" fill="#455A64"/>
<path d="M127.427 424.299C127.574 424.328 127.601 424.808 127.489 425.371C127.376 425.934 127.166 426.367 127.02 426.337C126.874 426.308 126.846 425.828 126.959 425.265C127.071 424.702 127.281 424.27 127.427 424.299Z" fill="#455A64"/>
<path d="M128.243 420.223C128.39 420.252 128.417 420.732 128.305 421.295C128.192 421.858 127.982 422.29 127.836 422.261C127.689 422.232 127.662 421.752 127.774 421.189C127.886 420.626 128.096 420.193 128.243 420.223Z" fill="#455A64"/>
<path d="M129.058 416.146C129.205 416.175 129.232 416.655 129.119 417.218C129.006 417.781 128.796 418.213 128.65 418.184C128.504 418.155 128.476 417.675 128.589 417.112C128.702 416.549 128.912 416.117 129.058 416.146Z" fill="#455A64"/>
<path d="M129.873 412.069C130.02 412.098 130.047 412.578 129.934 413.141C129.821 413.704 129.611 414.136 129.465 414.107C129.319 414.078 129.291 413.598 129.404 413.035C129.516 412.473 129.726 412.04 129.873 412.069Z" fill="#455A64"/>
<path d="M130.689 407.993C130.836 408.022 130.863 408.503 130.751 409.065C130.638 409.628 130.428 410.06 130.282 410.031C130.136 410.002 130.108 409.522 130.221 408.959C130.333 408.396 130.543 407.964 130.689 407.993Z" fill="#455A64"/>
<path d="M131.505 403.916C131.652 403.945 131.679 404.425 131.567 404.988C131.454 405.551 131.244 405.983 131.098 405.954C130.952 405.925 130.924 405.445 131.037 404.882C131.148 404.32 131.358 403.887 131.505 403.916Z" fill="#455A64"/>
<path d="M132.32 399.84C132.466 399.869 132.494 400.349 132.382 400.912C132.269 401.475 132.059 401.907 131.913 401.878C131.767 401.849 131.739 401.369 131.851 400.806C131.964 400.243 132.174 399.811 132.32 399.84Z" fill="#455A64"/>
<path d="M133.136 395.763C133.283 395.792 133.31 396.272 133.198 396.835C133.085 397.398 132.875 397.83 132.729 397.801C132.583 397.772 132.555 397.292 132.668 396.729C132.779 396.167 132.989 395.734 133.136 395.763Z" fill="#455A64"/>
<path d="M133.951 391.687C134.097 391.716 134.125 392.196 134.012 392.759C133.899 393.322 133.689 393.755 133.543 393.725C133.397 393.696 133.369 393.216 133.482 392.653C133.594 392.09 133.805 391.658 133.951 391.687Z" fill="#455A64"/>
<path d="M134.767 387.61C134.914 387.639 134.941 388.119 134.829 388.682C134.716 389.245 134.506 389.677 134.36 389.648C134.214 389.619 134.186 389.139 134.299 388.576C134.41 388.014 134.62 387.581 134.767 387.61Z" fill="#455A64"/>
<path d="M135.581 383.534C135.728 383.563 135.755 384.043 135.643 384.606C135.53 385.169 135.32 385.602 135.174 385.572C135.028 385.543 135 385.063 135.113 384.5C135.224 383.937 135.435 383.505 135.581 383.534Z" fill="#455A64"/>
<path d="M136.398 379.457C136.545 379.486 136.572 379.966 136.46 380.529C136.347 381.092 136.137 381.524 135.991 381.495C135.845 381.466 135.817 380.986 135.929 380.423C136.041 379.861 136.251 379.428 136.398 379.457Z" fill="#455A64"/>
<path d="M137.213 375.381C137.36 375.41 137.387 375.89 137.275 376.453C137.162 377.016 136.952 377.448 136.806 377.419C136.659 377.39 136.632 376.91 136.745 376.347C136.856 375.784 137.067 375.352 137.213 375.381Z" fill="#455A64"/>
<path d="M138.029 371.304C138.176 371.333 138.203 371.814 138.091 372.376C137.978 372.939 137.768 373.371 137.622 373.342C137.476 373.313 137.448 372.833 137.561 372.27C137.672 371.708 137.882 371.275 138.029 371.304Z" fill="#455A64"/>
<path d="M138.844 367.228C138.991 367.257 139.018 367.737 138.905 368.3C138.792 368.863 138.582 369.295 138.436 369.266C138.289 369.237 138.262 368.757 138.374 368.194C138.487 367.631 138.698 367.198 138.844 367.228Z" fill="#455A64"/>
<path d="M139.66 363.151C139.807 363.18 139.834 363.66 139.722 364.223C139.609 364.786 139.399 365.218 139.253 365.189C139.107 365.16 139.079 364.68 139.192 364.117C139.303 363.555 139.513 363.122 139.66 363.151Z" fill="#455A64"/>
<path d="M140.475 359.075C140.621 359.104 140.649 359.584 140.536 360.147C140.423 360.71 140.213 361.142 140.067 361.113C139.92 361.084 139.893 360.604 140.005 360.041C140.118 359.478 140.329 359.046 140.475 359.075Z" fill="#455A64"/>
<path d="M141.289 354.998C141.436 355.027 141.463 355.507 141.351 356.07C141.238 356.633 141.028 357.065 140.882 357.036C140.736 357.007 140.708 356.527 140.821 355.964C140.933 355.402 141.143 354.969 141.289 354.998Z" fill="#455A64"/>
<path d="M142.106 350.922C142.252 350.951 142.28 351.431 142.168 351.994C142.055 352.557 141.845 352.99 141.699 352.96C141.553 352.931 141.525 352.451 141.638 351.888C141.749 351.325 141.96 350.892 142.106 350.922Z" fill="#455A64"/>
<path d="M142.922 346.845C143.069 346.874 143.096 347.354 142.983 347.917C142.87 348.48 142.66 348.913 142.514 348.883C142.368 348.854 142.34 348.374 142.453 347.811C142.565 347.249 142.775 346.816 142.922 346.845Z" fill="#455A64"/>
<path d="M143.737 342.769C143.883 342.798 143.911 343.278 143.799 343.841C143.686 344.404 143.476 344.836 143.33 344.807C143.184 344.778 143.156 344.298 143.269 343.735C143.38 343.172 143.591 342.739 143.737 342.769Z" fill="#455A64"/>
<path d="M144.553 338.692C144.699 338.721 144.727 339.201 144.614 339.764C144.501 340.327 144.291 340.759 144.145 340.73C143.999 340.701 143.971 340.221 144.084 339.658C144.196 339.095 144.406 338.663 144.553 338.692Z" fill="#455A64"/>
<path d="M145.368 334.616C145.515 334.645 145.542 335.125 145.429 335.688C145.317 336.251 145.106 336.683 144.96 336.654C144.813 336.625 144.786 336.145 144.899 335.582C145.011 335.019 145.222 334.586 145.368 334.616Z" fill="#455A64"/>
<path d="M146.184 330.539C146.33 330.568 146.358 331.048 146.246 331.611C146.133 332.174 145.923 332.607 145.777 332.577C145.631 332.548 145.603 332.068 145.716 331.505C145.827 330.943 146.037 330.51 146.184 330.539Z" fill="#455A64"/>
<path d="M146.999 326.463C147.146 326.492 147.173 326.972 147.061 327.535C146.948 328.098 146.738 328.53 146.592 328.501C146.445 328.472 146.418 327.992 146.531 327.429C146.642 326.866 146.853 326.433 146.999 326.463Z" fill="#455A64"/>
<path d="M147.815 322.386C147.961 322.415 147.989 322.895 147.877 323.458C147.764 324.021 147.554 324.453 147.408 324.424C147.262 324.395 147.234 323.915 147.347 323.352C147.458 322.789 147.668 322.357 147.815 322.386Z" fill="#455A64"/>
<path d="M148.63 318.31C148.777 318.339 148.804 318.819 148.691 319.382C148.578 319.945 148.368 320.377 148.222 320.348C148.075 320.319 148.048 319.839 148.161 319.276C148.273 318.713 148.483 318.28 148.63 318.31Z" fill="#455A64"/>
<path d="M230.144 192.594C230.144 192.594 237.063 182.221 237.247 182.13C237.247 182.13 243.493 171.612 245.569 171.61C247.658 171.608 246.896 173.741 244.752 177.51C242.872 180.813 242.682 182.876 242.682 182.876L247.812 185.974C247.812 185.974 251.238 184.648 251.381 187.842C251.429 188.91 251.147 190.232 250.791 192.179C250.583 193.316 250.068 194.529 248.995 194.101C248.503 193.905 248.101 193.526 248.077 192.817C248.011 190.927 248.364 190.234 248.123 190.233C247.815 190.232 244.431 200.145 244.431 200.145L230.144 192.594Z" fill="#FFBE9D"/>
<path d="M244.114 184.451C244.642 184.089 245.173 183.725 245.76 183.47C246.346 183.215 246.998 183.074 247.628 183.18C248.024 183.246 248.416 183.42 248.668 183.733C249.013 184.162 249.036 184.784 248.865 185.308C248.694 185.832 248.356 186.282 248.024 186.721" fill="#FFBE9D"/>
<path d="M241.774 182.358C242.274 182.017 242.778 181.674 243.334 181.434C243.89 181.194 244.507 181.061 245.104 181.16C245.479 181.222 245.85 181.385 246.089 181.681C246.416 182.085 246.437 182.671 246.275 183.164C246.112 183.658 244.995 184.802 244.681 185.216" fill="#FFBE9D"/>
<path d="M232.555 186.739L222.557 208.122L233.579 219.387L239.323 203.451C239.323 203.451 242.401 204.064 243.656 202.023C245.057 199.744 246.896 193.158 246.896 193.158L232.555 186.739Z" fill="#FFBE9D"/>
<path d="M239.699 186.149C239.591 186.116 239.841 184.684 240.882 183.192C241.412 182.454 242.086 181.951 242.596 181.675C243.109 181.395 243.459 181.302 243.491 181.364C243.586 181.523 242.294 182.163 241.318 183.513C240.36 184.873 239.866 186.22 239.699 186.149Z" fill="#EB996E"/>
<path d="M250.791 186.238C250.746 186.309 250.404 186.123 249.822 186.022C249.251 185.919 248.403 185.934 247.638 186.356C246.874 186.78 246.376 187.478 246.014 187.966C245.656 188.466 245.42 188.781 245.352 188.743C245.29 188.708 245.402 188.335 245.687 187.766C245.977 187.215 246.458 186.398 247.376 185.881C248.299 185.373 249.301 185.434 249.916 185.651C250.55 185.87 250.83 186.189 250.791 186.238Z" fill="#EB996E"/>
<path d="M247.068 183.222C247.097 183.384 245.833 183.598 244.719 184.603C243.601 185.591 243.052 186.752 242.899 186.676C242.777 186.645 243.117 185.309 244.362 184.196C244.98 183.652 245.683 183.344 246.203 183.231C246.727 183.116 247.059 183.156 247.068 183.222Z" fill="#EB996E"/>
<path d="M249.525 187.841C249.666 187.786 249.928 188.616 249.403 189.445C248.885 190.279 248.024 190.403 248.012 190.253C247.967 190.106 248.551 189.809 248.945 189.158C249.359 188.52 249.373 187.864 249.525 187.841Z" fill="#EB996E"/>
<path d="M230.168 192.178C230.168 192.178 229.819 185.797 231.361 184.352C232.903 182.907 237.323 184.408 237.323 184.408" fill="#FFBE9D"/>
<path d="M237.947 181.366C238.064 181.459 237.04 183.087 235.66 185.003C234.279 186.919 233.059 188.405 232.934 188.323C232.809 188.241 233.833 186.613 235.221 184.686C236.609 182.76 237.83 181.273 237.947 181.366Z" fill="#EB996E"/>
<path d="M149.431 132.987L149.279 182.783L170.643 183.802L171.261 171.69C171.261 171.69 178.849 173.197 180.807 166.149C182.058 161.647 181.745 126.858 181.745 126.858L149.431 132.987Z" fill="#FFBE9D"/>
<path d="M184.554 130.365C181.189 131.328 180.458 136.828 180.458 136.828L175.18 148.486C172.491 146.381 168.881 146.502 168.197 151.226C167.703 154.64 171.948 155.331 171.948 155.331C169.477 159.536 167.8 162.938 164.202 166.938C160.308 171.267 158.126 171.704 153.903 171.774H149.246C149.246 171.774 146.966 164.374 142.745 145.868C138.061 125.337 162.339 127.982 166.84 122.741C174.171 114.206 195.162 127.328 184.554 130.365Z" fill="#263238"/>
<path d="M143.19 147.803C139.255 145.16 138.9 137.763 141.195 133.328C143.491 128.893 148.323 125.888 153.316 125.791C153.984 125.778 154.673 125.81 155.296 125.569C156.22 125.212 156.818 124.337 157.422 123.552C160.939 118.979 164.395 114.486 170.95 114.487C172.015 114.487 173.193 114.487 175.071 115.509C176.006 116.018 177.325 117.744 177.546 118.785C178.778 118.201 180.032 117.61 181.38 117.406C182.728 117.202 184.208 117.438 185.226 118.344C186.244 119.251 186.622 120.919 185.831 122.029C188.04 121.889 190.134 123.718 190.482 125.904C190.83 128.09 187.697 129.627 187.371 129.797C187.371 129.797 189.091 133.397 184.99 135.555C183.339 136.424 181.192 135.377 180.948 135.251" fill="#263238"/>
<path d="M158.788 152.591C158.926 152.577 159.138 154.304 158.666 156.372C158.206 158.443 157.275 159.913 157.156 159.841C157.013 159.769 157.698 158.244 158.138 156.253C158.593 154.267 158.628 152.595 158.788 152.591Z" fill="#455A64"/>
<path d="M161.371 150.148C161.515 150.154 161.546 151.801 161.172 153.788C160.804 155.777 160.181 157.302 160.044 157.255C159.897 157.208 160.279 155.639 160.64 153.689C161.008 151.74 161.217 150.138 161.371 150.148Z" fill="#455A64"/>
<path d="M168.772 141.929C168.823 142 168.218 142.441 167.45 143.342C166.675 144.233 165.793 145.626 165.148 147.316C164.501 149.007 164.146 150.626 163.871 151.794C163.603 152.965 163.418 153.691 163.342 153.677C163.271 153.665 163.322 152.919 163.495 151.723C163.675 150.531 163.975 148.869 164.643 147.121C165.31 145.372 166.289 143.94 167.169 143.083C168.044 142.212 168.741 141.877 168.772 141.929Z" fill="#455A64"/>
<path d="M171.762 136.334C171.825 136.317 172.043 136.816 172.177 137.681C172.312 138.543 172.316 139.777 171.991 141.081C171.662 142.385 171.076 143.471 170.55 144.167C170.024 144.868 169.596 145.204 169.549 145.159C169.415 145.057 170.861 143.449 171.466 140.949C172.112 138.461 171.596 136.361 171.762 136.334Z" fill="#455A64"/>
<path d="M146.265 148.771C146.192 148.902 145.538 148.675 144.804 148.265C144.07 147.855 143.534 147.417 143.607 147.286C143.68 147.156 144.334 147.382 145.068 147.793C145.802 148.202 146.338 148.641 146.265 148.771Z" fill="#455A64"/>
<path d="M156.587 143.454C156.728 143.475 156.64 144.53 155.977 145.62C155.32 146.715 154.427 147.283 154.343 147.168C154.241 147.049 154.913 146.346 155.513 145.34C156.125 144.341 156.434 143.42 156.587 143.454Z" fill="#455A64"/>
<path d="M159.761 141.75C159.899 141.781 159.675 143.045 158.81 144.338C157.954 145.638 156.876 146.335 156.794 146.22C156.693 146.099 157.557 145.26 158.359 144.039C159.172 142.827 159.61 141.704 159.761 141.75Z" fill="#455A64"/>
<path d="M175.535 120.895C175.498 120.938 175.134 120.59 174.364 120.152C173.593 119.729 172.363 119.266 170.785 119.227C169.222 119.178 167.303 119.55 165.533 120.638C163.763 121.724 162.197 123.493 161.06 125.62C160.232 127.166 159.659 128.776 159.245 130.289L159.159 130.602L158.872 130.451C157.286 129.618 155.606 129.252 154.106 129.232C152.6 129.191 151.275 129.467 150.226 129.818C148.115 130.539 147.113 131.488 147.058 131.403C147.042 131.384 147.279 131.146 147.773 130.77C148.27 130.401 149.049 129.921 150.117 129.512C151.182 129.107 152.545 128.78 154.112 128.789C155.672 128.777 157.437 129.13 159.117 129.994L158.745 130.156C159.153 128.609 159.731 126.957 160.585 125.363C161.758 123.169 163.399 121.329 165.277 120.21C167.159 119.088 169.173 118.743 170.803 118.843C172.449 118.934 173.713 119.477 174.474 119.97C174.849 120.232 175.131 120.444 175.295 120.621C175.465 120.789 175.548 120.882 175.535 120.895Z" fill="#455A64"/>
<path d="M186.77 123.605C186.732 123.595 187.364 123.445 187.996 124.16C188.284 124.504 188.55 125.048 188.488 125.72C188.423 126.39 187.96 127.081 187.246 127.494C186.543 127.925 185.581 128.068 184.651 127.851C183.715 127.647 182.816 127.151 181.973 126.553C181.124 125.959 180.308 125.269 179.354 124.758C178.402 124.241 177.33 123.864 176.198 123.649C173.924 123.225 171.665 123.481 169.757 124.09C167.838 124.705 166.245 125.629 164.996 126.51C162.502 128.303 161.271 129.804 161.195 129.726C161.17 129.704 161.455 129.317 162.04 128.673C162.63 128.037 163.522 127.14 164.77 126.2C166.014 125.263 167.627 124.278 169.602 123.615C171.571 122.957 173.918 122.673 176.298 123.116C177.483 123.341 178.609 123.741 179.609 124.292C180.619 124.843 181.444 125.559 182.262 126.145C183.074 126.739 183.905 127.209 184.75 127.412C185.591 127.625 186.42 127.518 187.055 127.16C187.693 126.818 188.107 126.235 188.187 125.681C188.268 125.118 188.066 124.615 187.83 124.289C187.322 123.611 186.742 123.665 186.77 123.605Z" fill="#455A64"/>
<path d="M126.685 187.998L107.605 220.041C105.47 223.778 103.494 227.764 101.609 231.894C100.088 235.851 100.967 241.016 103.623 244.3L103.084 243.524C105.2 246.141 108.385 247.662 111.751 247.662H112.244C116.68 247.662 120.693 245.032 122.463 240.964L128.593 231.662L126.685 187.998Z" fill="#004761"/>
<path d="M184.256 181.876C179.134 179.26 174.077 178.669 168.559 178.508C162.134 178.321 153.076 177.422 146.152 178.158C146.152 178.158 126.424 179.618 125.054 193.138L127.748 256.638L123.231 283.543L186.455 285.453L186.002 253.712C186.783 237.197 185.116 213.812 185.116 213.812C186.089 204.934 190.947 200.937 191.637 195.164C192.246 190.06 188.834 184.214 184.256 181.876Z" fill="#004761"/>
<path d="M166.438 257.551C166.459 257.575 166.141 257.903 165.508 258.432C164.876 258.962 163.908 259.67 162.626 260.408C160.085 261.891 156.128 263.378 151.574 263.458C147.019 263.539 143.011 262.192 140.419 260.8C139.112 260.107 138.119 259.435 137.469 258.927C136.817 258.421 136.488 258.105 136.508 258.08C136.571 257.993 137.97 259.179 140.591 260.458C143.187 261.741 147.118 262.995 151.564 262.916C156.008 262.837 159.892 261.446 162.441 260.072C165.015 258.7 166.373 257.466 166.438 257.551Z" fill="#263238"/>
<path d="M124.959 193.864C124.978 193.863 125.002 194.076 125.033 194.482C125.061 194.946 125.096 195.534 125.14 196.256C125.215 197.87 125.318 200.082 125.444 202.785C125.677 208.363 125.995 215.947 126.346 224.327C126.726 232.707 127.069 240.29 127.322 245.867C127.46 248.568 127.572 250.78 127.654 252.393C127.685 253.116 127.71 253.704 127.73 254.169C127.741 254.575 127.738 254.79 127.72 254.791C127.701 254.793 127.668 254.581 127.622 254.177C127.576 253.714 127.517 253.128 127.445 252.408C127.297 250.871 127.133 248.644 126.941 245.89C126.566 240.382 126.162 232.767 125.807 224.35C125.451 215.937 125.205 208.316 125.064 202.799C125.009 200.094 124.965 197.879 124.932 196.264C124.93 195.54 124.928 194.951 124.926 194.486C124.928 194.079 124.94 193.865 124.959 193.864Z" fill="#263238"/>
<path d="M121 197.226C121.016 197.235 120.941 197.405 120.782 197.72C120.589 198.087 120.353 198.539 120.065 199.087C119.427 200.265 118.478 201.957 117.261 204.021C114.861 208.169 111.252 213.724 107.605 220.04C105.783 223.195 104.237 226.318 102.898 229.171C101.57 232.021 100.885 234.817 101.06 237.184C101.194 239.549 101.896 241.387 102.524 242.546C103.15 243.719 103.668 244.263 103.623 244.299C103.609 244.311 103.478 244.18 103.24 243.916C103.01 243.646 102.686 243.232 102.341 242.65C101.644 241.501 100.866 239.639 100.678 237.209C100.446 234.775 101.122 231.86 102.443 228.968C103.768 226.079 105.302 222.947 107.136 219.772C110.798 213.431 114.453 207.917 116.935 203.824C118.148 201.832 119.145 200.195 119.884 198.982C120.207 198.454 120.472 198.02 120.688 197.666C120.877 197.369 120.984 197.217 121 197.226Z" fill="#263238"/>
<path d="M237.295 214.658L222.665 205.089L213.432 221.084C213.432 221.084 200.63 203.291 194.815 192.866C189.463 183.271 182.539 180.687 179.198 179.992C178.211 179.786 177.316 180.608 177.425 181.61L182.471 216.208C183.106 218.009 193.666 233.318 199.568 241.021C209.417 253.878 223.928 245.65 227.913 236.651C231.076 229.51 235.999 218.659 237.295 214.658Z" fill="#004761"/>
<path d="M217.638 235.521C217.561 235.524 217.473 234.648 217.358 233.238C217.236 231.83 217.092 229.881 216.652 227.789C216.213 225.697 215.481 223.893 214.784 222.683C214.096 221.465 213.513 220.806 213.579 220.747C213.62 220.703 214.315 221.279 215.111 222.484C215.914 223.678 216.732 225.529 217.182 227.676C217.633 229.821 217.717 231.8 217.741 233.219C217.757 234.641 217.71 235.518 217.638 235.521Z" fill="#263238"/>
<path d="M221.92 228.372C221.834 228.379 221.764 227.63 221.4 226.499C221.036 225.377 220.312 223.869 219.06 222.576C217.827 221.267 216.329 220.471 215.17 220.448C214.002 220.388 213.354 220.856 213.315 220.775C213.26 220.744 213.874 220.11 215.174 220.066C216.473 219.988 218.16 220.824 219.45 222.202C220.778 223.574 221.486 225.202 221.768 226.396C222.051 227.602 221.982 228.372 221.92 228.372Z" fill="#263238"/>
<path d="M178.245 184.265C178.257 184.279 178.135 184.419 177.894 184.671C177.759 184.809 177.611 184.961 177.444 185.131C177.274 185.335 177.088 185.56 176.884 185.806C176.072 186.834 175.005 188.459 174.351 190.724C173.654 192.964 173.378 195.814 173.796 198.892C174.01 200.429 174.387 202.027 175.053 203.571C175.7 205.134 176.557 206.683 177.418 208.268C181 214.556 184.687 219.999 187.353 223.925C188.674 225.824 189.76 227.385 190.565 228.542C191.329 229.628 191.76 230.224 191.727 230.25C191.712 230.261 191.586 230.127 191.359 229.86C191.132 229.593 190.802 229.195 190.396 228.668C189.572 227.623 188.424 226.078 187.039 224.144C184.287 220.266 180.546 214.854 176.945 208.532C176.077 206.933 175.22 205.376 174.563 203.775C173.882 202.174 173.506 200.53 173.301 198.957C172.901 195.803 173.225 192.889 173.985 190.609C174.703 188.304 175.847 186.671 176.722 185.669C176.943 185.431 177.144 185.214 177.327 185.017C177.509 184.859 177.671 184.717 177.818 184.589C178.088 184.363 178.233 184.251 178.245 184.265Z" fill="#263238"/>
<path d="M178.283 276.191C178.289 276.209 178.135 276.275 177.837 276.384C177.476 276.509 177.043 276.659 176.523 276.839C175.952 277.036 175.248 277.263 174.419 277.484C173.591 277.71 172.655 277.996 171.598 278.223C169.499 278.74 166.964 279.212 164.13 279.594C161.292 279.944 158.152 280.185 154.85 280.206C151.547 280.204 148.405 279.98 145.564 279.646C142.727 279.28 140.19 278.823 138.088 278.317C137.03 278.096 136.092 277.815 135.263 277.594C134.432 277.378 133.728 277.155 133.155 276.961C132.634 276.784 132.2 276.637 131.838 276.514C131.539 276.406 131.385 276.341 131.391 276.323C131.397 276.305 131.562 276.336 131.871 276.41C132.239 276.506 132.683 276.621 133.214 276.759C133.794 276.922 134.504 277.114 135.339 277.301C136.172 277.494 137.112 277.747 138.17 277.943C140.272 278.398 142.801 278.814 145.622 279.15C148.447 279.454 151.567 279.661 154.847 279.664C158.126 279.643 161.244 279.419 164.067 279.098C166.886 278.746 169.412 278.316 171.512 277.849C172.569 277.647 173.507 277.388 174.339 277.191C175.173 276.999 175.882 276.802 176.461 276.636C176.992 276.495 177.435 276.377 177.803 276.279C178.111 276.205 178.277 276.173 178.283 276.191Z" fill="#263238"/>
<g opacity="0.3">
<path d="M123.816 238.912L126.672 234.481L125.182 199.586L123.816 238.912Z" fill="black"/>
</g>
<g opacity="0.3">
<path d="M173.129 197.225C173.129 197.225 173.221 209.942 176.161 214.979C179.1 220.016 185.977 230.902 185.953 230.252C185.93 229.602 185.561 221.277 185.561 221.277C185.561 221.277 173.189 204.343 173.129 197.225Z" fill="black"/>
</g>
<path d="M121.291 239.972C121.299 239.992 120.991 240.15 120.378 240.236C119.77 240.325 118.847 240.283 117.803 239.904C116.761 239.528 115.622 238.809 114.605 237.761C113.585 236.707 112.743 235.345 111.938 233.906C111.135 232.466 110.409 231.082 109.581 229.95C108.756 228.817 107.843 227.926 106.973 227.331C105.213 226.111 103.78 226.19 103.807 226.083C103.806 226.06 104.146 226.005 104.756 226.089C105.364 226.17 106.236 226.438 107.175 227.023C108.112 227.606 109.091 228.507 109.966 229.664C110.845 230.823 111.593 232.219 112.392 233.651C113.19 235.079 114.002 236.412 114.952 237.43C115.902 238.447 116.965 239.162 117.935 239.561C119.917 240.389 121.294 239.857 121.291 239.972Z" fill="white"/>
<path d="M125.16 218.059C125.071 218.084 124.854 217.304 124.243 216.179C123.64 215.055 122.563 213.622 121.012 212.444C119.454 211.273 117.782 210.629 116.535 210.356C115.287 210.076 114.477 210.08 114.477 209.988C114.472 209.937 115.29 209.799 116.605 209.994C117.913 210.182 119.696 210.802 121.326 212.028C122.95 213.26 124.034 214.806 124.572 216.013C125.119 217.225 125.21 218.051 125.16 218.059Z" fill="white"/>
<path d="M173.361 199.331C173.349 199.382 172.675 199.2 171.432 199.099C170.192 199 168.371 199.042 166.206 199.575C164.039 200.09 161.558 201.077 158.954 202.475C156.334 203.844 153.561 205.584 150.421 207.02C147.289 208.485 144.013 209.227 141.028 209.411C138.033 209.579 135.332 209.229 133.142 208.677C130.945 208.136 129.255 207.406 128.134 206.835C127.564 206.566 127.15 206.302 126.864 206.135C126.58 205.964 126.436 205.867 126.445 205.851C126.469 205.807 127.077 206.146 128.221 206.651C129.36 207.161 131.051 207.831 133.228 208.318C135.399 208.817 138.059 209.122 140.998 208.932C143.932 208.722 147.121 207.988 150.207 206.545C153.303 205.13 156.082 203.405 158.733 202.048C161.37 200.662 163.91 199.691 166.125 199.214C168.34 198.718 170.202 198.732 171.454 198.895C172.081 198.978 172.563 199.074 172.882 199.169C173.201 199.259 173.366 199.314 173.361 199.331Z" fill="white"/>
<path d="M185.653 233.929C185.658 233.946 185.46 234.012 185.076 234.122C184.69 234.216 184.131 234.42 183.383 234.543C181.902 234.87 179.703 235.117 176.988 235.051C174.271 234.996 171.058 234.525 167.567 233.726C164.074 232.926 160.309 231.781 156.359 230.62C152.411 229.467 148.591 228.568 145.065 228.11C141.541 227.669 138.317 227.635 135.663 228.036C133.008 228.421 130.92 229.095 129.553 229.717C128.179 230.323 127.455 230.747 127.427 230.699C127.418 230.684 127.592 230.569 127.935 230.365C128.286 230.179 128.769 229.827 129.469 229.532C130.823 228.848 132.923 228.109 135.608 227.672C138.294 227.219 141.561 227.214 145.124 227.634C148.689 228.069 152.54 228.962 156.505 230.12C160.461 231.283 164.211 232.438 167.676 233.259C171.14 234.078 174.315 234.582 177.001 234.683C179.685 234.795 181.865 234.607 183.346 234.344C184.829 234.091 185.64 233.879 185.653 233.929Z" fill="white"/>
<path d="M186.003 253.712C185.955 253.879 183.039 251.995 177.684 251.47C175.028 251.18 171.829 251.337 168.323 251.794C164.814 252.271 160.995 253.075 156.962 253.832C152.931 254.585 149.067 255.249 145.513 255.559C141.962 255.878 138.728 255.855 136.049 255.496C133.369 255.148 131.248 254.558 129.844 254.008C129.129 253.769 128.612 253.483 128.247 253.33C127.888 253.162 127.703 253.067 127.711 253.051C127.731 253.004 128.495 253.338 129.912 253.818C131.326 254.305 133.437 254.834 136.093 255.131C138.749 255.439 141.947 255.424 145.47 255.081C148.996 254.747 152.839 254.073 156.868 253.32C160.891 252.564 164.725 251.772 168.262 251.318C171.798 250.884 175.037 250.764 177.725 251.104C180.412 251.426 182.531 252.059 183.913 252.665C184.622 252.924 185.123 253.242 185.482 253.408C185.831 253.592 186.011 253.696 186.003 253.712Z" fill="white"/>
<path d="M153.498 279.208C153.476 279.236 153.121 279.01 152.5 278.579C151.882 278.143 150.979 277.525 149.852 276.78C147.601 275.288 144.407 273.352 140.705 271.548C136.999 269.749 133.504 268.431 130.94 267.581C129.659 267.155 128.615 266.826 127.89 266.609C127.167 266.387 126.77 266.247 126.779 266.212C126.788 266.177 127.201 266.25 127.942 266.413C128.685 266.57 129.748 266.846 131.05 267.23C133.655 267.993 137.198 269.267 140.932 271.08C144.661 272.898 147.851 274.899 150.059 276.477C151.165 277.265 152.038 277.931 152.621 278.418C153.207 278.9 153.52 279.18 153.498 279.208Z" fill="white"/>
<path d="M184.282 278.869C184.309 278.917 183.553 279.42 182.181 279.923C180.815 280.428 178.807 280.861 176.569 280.795C174.33 280.722 172.353 280.166 171.021 279.578C169.683 278.991 168.959 278.442 168.989 278.396C169.033 278.319 169.816 278.75 171.156 279.235C172.492 279.723 174.416 280.203 176.585 280.275C178.753 280.337 180.703 279.978 182.067 279.573C183.435 279.172 184.243 278.79 184.282 278.869Z" fill="white"/>
<path d="M206.165 212.852C206.189 212.854 206.201 213.179 206.049 213.74C205.9 214.299 205.542 215.082 204.88 215.888C204.219 216.693 203.256 217.496 202.069 218.174C200.879 218.855 199.486 219.387 198.059 219.971C196.635 220.555 195.301 221.172 194.257 221.96C193.214 222.749 192.45 223.681 191.996 224.556C191.055 226.342 191.469 227.675 191.356 227.665C191.335 227.671 191.203 227.372 191.162 226.79C191.118 226.212 191.225 225.345 191.666 224.393C192.104 223.444 192.881 222.434 193.965 221.58C195.055 220.724 196.424 220.08 197.862 219.49C199.3 218.902 200.679 218.389 201.836 217.755C202.994 217.124 203.938 216.384 204.602 215.647C205.959 214.16 206.065 212.814 206.165 212.852Z" fill="white"/>
<path d="M193.88 191.628C193.915 191.637 193.853 191.958 193.711 192.535C193.645 192.825 193.55 193.176 193.402 193.572C193.258 193.969 193.118 194.432 192.887 194.912C192.478 195.896 191.868 197.014 191.086 198.188C190.281 199.346 189.291 200.549 188.111 201.673C186.916 202.783 185.655 203.698 184.45 204.43C183.23 205.139 182.076 205.679 181.07 206.027C180.577 206.228 180.106 206.34 179.702 206.459C179.298 206.583 178.942 206.656 178.648 206.704C178.063 206.81 177.739 206.852 177.732 206.817C177.711 206.72 178.999 206.471 180.937 205.684C181.909 205.299 183.022 204.735 184.201 204.02C185.366 203.281 186.588 202.377 187.754 201.294C188.907 200.196 189.883 199.032 190.692 197.915C191.478 196.782 192.108 195.706 192.552 194.759C193.457 192.872 193.785 191.601 193.88 191.628Z" fill="white"/>
<path d="M174.631 178.508C174.644 178.541 174.128 178.772 173.18 179.161C172.236 179.56 170.839 180.06 169.09 180.606C167.343 181.161 165.225 181.703 162.849 182.189C160.468 182.649 157.826 183.036 155.034 183.251C152.24 183.446 149.569 183.449 147.146 183.342C144.724 183.208 142.55 182.98 140.741 182.687C138.931 182.402 137.476 182.111 136.484 181.854C135.49 181.608 134.945 181.455 134.953 181.42C134.961 181.385 135.521 181.471 136.525 181.655C137.526 181.85 138.985 182.085 140.792 182.322C142.598 182.567 144.761 182.756 147.167 182.862C149.574 182.942 152.223 182.925 154.996 182.731C157.766 182.518 160.389 182.148 162.758 181.718C165.122 181.262 167.234 180.76 168.985 180.253C170.737 179.755 172.147 179.31 173.109 178.97C174.076 178.642 174.618 178.475 174.631 178.508Z" fill="white"/>
<path d="M213.924 222.036C213.952 222.027 214.102 222.38 214.277 223.049C214.455 223.716 214.643 224.707 214.707 225.944C214.881 228.426 214.407 231.83 213.724 235.505C213.392 237.351 212.988 239.118 212.364 240.645C211.752 242.176 210.912 243.441 210.041 244.336C209.176 245.244 208.296 245.78 207.663 246.065C207.026 246.35 206.644 246.414 206.636 246.388C206.579 246.292 208.15 245.909 209.77 244.086C210.575 243.19 211.348 241.961 211.917 240.468C212.497 238.978 212.881 237.247 213.211 235.411C213.894 231.734 214.416 228.394 214.339 225.957C214.303 223.521 213.824 222.06 213.924 222.036Z" fill="white"/>
<path d="M233.97 224.599C233.883 224.639 233.413 223.578 232.364 222.056C231.323 220.533 229.614 218.599 227.307 216.98C224.992 215.371 222.588 214.432 220.799 213.979C219.008 213.518 217.851 213.442 217.859 213.347C217.861 213.311 218.151 213.305 218.676 213.326C219.202 213.336 219.961 213.432 220.883 213.62C221.809 213.801 222.888 214.131 224.046 214.6C225.194 215.091 226.416 215.733 227.605 216.553C228.784 217.387 229.807 218.313 230.663 219.222C231.502 220.148 232.183 221.047 232.672 221.854C233.167 222.655 233.518 223.335 233.708 223.825C233.909 224.31 234.003 224.584 233.97 224.599Z" fill="white"/>
<g opacity="0.3">
<path d="M175.208 276.98C176.253 276.509 176.563 275.082 175.908 274.258C175.253 273.434 174.08 273.25 173.027 273.271C167.862 273.373 163.353 276.83 158.271 277.758C154.405 278.465 150.421 277.668 146.66 276.527C142.899 275.386 139.23 273.897 135.368 273.168C134.561 273.016 133.719 272.898 132.926 273.112C132.133 273.326 131.398 273.952 131.298 274.768C131.198 275.583 131.39 276.187 132.606 276.603C132.606 276.603 145.395 280.158 154.655 280.02C164.479 279.873 175.208 276.98 175.208 276.98Z" fill="black"/>
</g>
<path d="M441.694 423.771H371.933V433.356H441.694V423.771Z" fill="#263238"/>
<path d="M441.812 433.475H371.813V423.651H441.812V433.475ZM372.051 433.237H441.573V423.89H372.051V433.237Z" fill="#263238"/>
<path d="M378.4 430.166L388.442 479.704H425.595L435.302 433.356L378.4 430.166Z" fill="#263238"/>
<path d="M378.4 475.018L383.756 482.381H428.916L435.302 475.018H378.4Z" fill="#455A64"/>
<path d="M404.194 431.612C404.057 431.612 403.881 408.663 403.801 380.359C403.721 352.045 403.768 329.1 403.905 329.1C404.042 329.1 404.218 352.044 404.298 380.358C404.378 408.662 404.331 431.612 404.194 431.612Z" fill="#263238"/>
<path d="M419.733 374.181C419.748 374.189 419.683 374.372 419.546 374.715C419.383 375.104 419.176 375.596 418.923 376.2C418.784 376.527 418.632 376.884 418.468 377.269C418.324 377.673 418.169 378.108 418.003 378.572C417.834 379.041 417.655 379.54 417.465 380.066C417.279 380.596 417.132 381.174 416.949 381.77C416.187 384.148 415.581 387.065 414.998 390.311C414.49 393.573 414.109 397.185 413.918 400.992C413.579 408.614 414.009 415.525 414.469 420.503C414.693 422.994 414.919 425.007 415.085 426.396C415.157 427.048 415.215 427.578 415.261 427.999C415.296 428.366 415.306 428.56 415.289 428.563C415.272 428.566 415.229 428.376 415.162 428.013C415.092 427.596 415.003 427.069 414.893 426.422C414.668 425.039 414.389 423.03 414.119 420.538C413.568 415.559 413.08 408.626 413.421 400.969C413.613 397.144 414.01 393.513 414.546 390.236C415.158 386.974 415.803 384.047 416.613 381.667C416.808 381.07 416.967 380.493 417.166 379.964C417.369 379.439 417.562 378.942 417.743 378.474C417.923 378.013 418.092 377.582 418.248 377.18C418.42 376.789 418.596 376.44 418.745 376.123C419.034 375.533 419.269 375.052 419.455 374.672C419.623 374.342 419.718 374.173 419.733 374.181Z" fill="#263238"/>
<path d="M417.95 355.62C417.966 355.626 417.889 355.887 417.728 356.377C417.547 356.908 417.306 357.618 417.002 358.511C416.84 358.978 416.662 359.491 416.469 360.049C416.296 360.622 416.108 361.24 415.908 361.902C415.5 363.23 415.027 364.739 414.607 366.437C414.384 367.283 414.15 368.169 413.907 369.09C413.697 370.022 413.479 370.99 413.253 371.992C412.765 373.989 412.414 376.16 411.964 378.426C411.195 382.984 410.518 388.023 410.051 393.338C409.61 398.657 409.418 403.74 409.351 408.364C409.337 412.988 409.396 417.155 409.586 420.648C409.648 422.397 409.76 423.975 409.85 425.362C409.93 426.75 410.017 427.944 410.106 428.918C410.178 429.858 410.234 430.607 410.277 431.166C410.311 431.681 410.32 431.952 410.303 431.954C410.286 431.956 410.243 431.688 410.178 431.177C410.112 430.62 410.024 429.874 409.914 428.937C409.796 427.964 409.68 426.771 409.574 425.384C409.457 423.997 409.321 422.418 409.236 420.667C409.001 417.17 408.906 412.996 408.894 408.361C408.936 403.726 409.115 398.63 409.557 393.296C410.025 387.966 410.718 382.913 411.514 378.346C411.977 376.075 412.345 373.901 412.852 371.901C413.088 370.898 413.316 369.93 413.536 368.997C413.791 368.075 414.035 367.19 414.269 366.344C414.712 364.647 415.21 363.141 415.644 361.817C415.859 361.158 416.06 360.542 416.246 359.972C416.455 359.418 416.647 358.908 416.822 358.445C417.163 357.565 417.434 356.864 417.637 356.34C417.826 355.862 417.934 355.613 417.95 355.62Z" fill="#263238"/>
<path d="M399.78 435.672C399.771 435.672 399.758 435.582 399.741 435.404C399.724 435.198 399.702 434.938 399.675 434.614C399.626 433.883 399.557 432.866 399.47 431.575C399.302 428.898 399.064 425.088 398.77 420.396C398.164 410.959 397.289 397.921 395.701 383.584C394.89 376.415 393.949 369.607 392.97 363.435C392.45 360.354 391.978 357.422 391.443 354.695C390.952 351.959 390.423 349.426 389.937 347.113C389.479 344.794 388.967 342.718 388.556 340.886C388.152 339.052 387.761 337.483 387.434 336.202C387.126 334.946 386.884 333.956 386.709 333.245C386.637 332.928 386.579 332.674 386.533 332.472C386.496 332.297 386.481 332.206 386.489 332.204C386.497 332.202 386.529 332.288 386.582 332.458C386.64 332.656 386.714 332.907 386.806 333.218C387.002 333.924 387.275 334.906 387.621 336.153C387.977 337.427 388.396 338.991 388.826 340.821C389.263 342.649 389.799 344.722 390.28 347.039C390.789 349.35 391.339 351.883 391.847 354.618C392.401 357.345 392.888 360.278 393.421 363.361C394.425 369.537 395.381 376.352 396.194 383.529C397.783 397.882 398.604 410.931 399.12 420.376C399.376 425.099 399.555 428.922 399.662 431.565C399.71 432.858 399.747 433.877 399.774 434.609C399.781 434.934 399.786 435.195 399.791 435.401C399.793 435.58 399.789 435.672 399.78 435.672Z" fill="#263238"/>
<path d="M403.624 340.133C403.321 336.882 400.035 334.429 396.77 334.395C393.505 334.361 390.461 336.319 388.464 338.903C386.467 341.487 385.366 344.641 384.465 347.779C382.266 355.439 381.064 363.486 382.004 371.4C382.944 379.313 386.155 387.105 391.833 392.696C392.756 393.605 393.952 394.514 395.219 394.244C395.912 394.096 396.48 393.615 397.005 393.14C408.16 383.063 414.602 367.97 414.16 352.943C414.072 349.934 413.677 346.802 412.01 344.295C410.345 341.788 406.461 339.126 403.624 340.133Z" fill="#004761"/>
<path d="M379.242 314.091C377.709 316.867 376.176 319.643 374.643 322.42C374.536 322.614 374.394 322.832 374.173 322.85C373.931 322.87 373.751 322.642 373.618 322.438C369.565 316.218 365.512 309.998 361.46 303.778L364.261 302.191L379.242 314.091Z" fill="#004761"/>
<g opacity="0.2">
<path d="M379.242 314.091C377.709 316.867 376.176 319.643 374.643 322.42C374.536 322.614 374.394 322.832 374.173 322.85C373.931 322.87 373.751 322.642 373.618 322.438C369.565 316.218 365.512 309.998 361.46 303.778L364.261 302.191L379.242 314.091Z" fill="black"/>
</g>
<path d="M403.904 329.099C390.079 320.941 376.254 312.783 362.429 304.625C362.006 304.375 361.547 304.08 361.419 303.606C361.253 302.992 361.714 302.4 362.157 301.944C367.861 296.059 376.147 292.648 384.322 293.236C392.497 293.824 400.358 298.546 404.36 305.698C408.362 312.852 408.495 322.31 403.904 329.099Z" fill="#004761"/>
<path d="M368.407 296.813C368.406 296.796 368.593 296.773 368.95 296.745C369.308 296.727 369.836 296.662 370.517 296.67C371.88 296.637 373.861 296.726 376.272 297.127C378.681 297.523 381.511 298.298 384.468 299.617C387.423 300.929 390.48 302.829 393.265 305.325C396.027 307.848 398.223 310.702 399.823 313.511C401.43 316.322 402.483 319.06 403.117 321.418C403.756 323.776 404.043 325.739 404.145 327.098C404.22 327.775 404.208 328.307 404.226 328.665C404.234 329.023 404.23 329.212 404.213 329.212C404.169 329.214 404.117 328.463 403.953 327.118C403.792 325.773 403.455 323.836 402.779 321.514C401.468 316.895 398.423 310.668 392.931 305.693C387.435 300.726 380.936 298.317 376.21 297.473C373.832 297.032 371.87 296.89 370.516 296.864C369.162 296.834 368.409 296.857 368.407 296.813Z" fill="#263238"/>
<path d="M398.292 312.207C398.316 312.27 397.517 312.639 396.195 313.16C394.874 313.681 393.027 314.346 390.962 315.003C388.896 315.659 387.003 316.181 385.623 316.518C384.243 316.855 383.378 317.014 383.361 316.949C383.343 316.881 384.176 316.602 385.529 316.179C387.058 315.701 388.841 315.144 390.811 314.529C392.775 313.895 394.552 313.321 396.077 312.829C397.425 312.394 398.267 312.141 398.292 312.207Z" fill="#263238"/>
<path d="M391.761 294.664C391.895 294.652 392.189 296.72 392.252 299.291C392.319 301.863 392.13 303.943 391.996 303.937C391.856 303.932 391.822 301.858 391.755 299.304C391.692 296.75 391.621 294.676 391.761 294.664Z" fill="#263238"/>
<path d="M362.068 304.161C362.049 304.098 363.196 303.681 365.081 303.101C366.965 302.52 369.59 301.785 372.515 301.079C375.442 300.375 378.113 299.834 380.055 299.493C381.997 299.152 383.208 299 383.22 299.065C383.233 299.135 382.045 299.409 380.124 299.838C378.203 300.266 375.55 300.86 372.632 301.562C369.714 302.266 367.083 302.945 365.178 303.439C363.271 303.932 362.089 304.229 362.068 304.161Z" fill="#263238"/>
<path d="M384.781 332.437C381.214 329.732 377.442 329.199 372.969 329.377C368.496 329.554 364.142 330.917 360.041 332.713C353.047 335.776 346.473 340.291 342.295 346.681C338.116 353.071 336.662 361.53 339.791 368.495C340.103 369.189 340.508 369.914 341.207 370.214C341.943 370.529 342.786 370.283 343.548 370.035C351.502 367.44 359.513 364.821 366.827 360.757C374.141 356.693 380.798 351.045 384.723 343.655C385.665 341.882 386.453 339.982 386.607 337.98C386.76 335.978 386.207 333.851 384.781 332.437Z" fill="#004761"/>
<path d="M384.852 331.598C384.857 331.615 384.659 331.694 384.279 331.831C383.849 331.979 383.296 332.169 382.612 332.404C382.244 332.527 381.841 332.661 381.405 332.806C380.967 332.963 380.501 333.16 379.995 333.355C378.989 333.762 377.82 334.169 376.59 334.766C375.967 335.05 375.317 335.346 374.64 335.654C373.964 335.966 373.288 336.35 372.574 336.714C371.132 337.422 369.674 338.327 368.12 339.244C365.071 341.172 361.843 343.493 358.702 346.229C355.587 348.997 352.874 351.903 350.573 354.683C349.465 356.107 348.382 357.439 347.496 358.779C347.044 359.442 346.577 360.063 346.181 360.694C345.789 361.326 345.412 361.934 345.051 362.515C344.302 363.659 343.75 364.766 343.218 365.712C342.959 366.189 342.706 366.627 342.494 367.041C342.294 367.455 342.11 367.837 341.941 368.187C341.621 368.835 341.362 369.359 341.16 369.767C340.976 370.126 340.872 370.312 340.856 370.305C340.84 370.298 340.913 370.099 341.068 369.727C341.248 369.308 341.479 368.771 341.765 368.105C341.922 367.749 342.094 367.359 342.281 366.937C342.481 366.515 342.724 366.07 342.971 365.585C343.482 364.623 344.015 363.498 344.748 362.336C345.102 361.746 345.472 361.129 345.856 360.487C346.246 359.847 346.707 359.217 347.155 358.545C348.032 357.187 349.11 355.837 350.215 354.396C352.511 351.582 355.235 348.645 358.372 345.857C361.536 343.101 364.795 340.775 367.878 338.856C369.448 337.943 370.924 337.047 372.383 336.349C373.106 335.991 373.79 335.613 374.474 335.308C375.159 335.008 375.818 334.72 376.448 334.444C377.694 333.865 378.877 333.479 379.897 333.094C380.41 332.91 380.883 332.726 381.326 332.582C381.769 332.451 382.177 332.33 382.551 332.219C383.248 332.02 383.811 331.859 384.249 331.734C384.641 331.629 384.848 331.582 384.852 331.598Z" fill="#263238"/>
<path d="M356.984 346.687C357.023 346.819 353.137 348.071 348.307 349.483C343.475 350.896 339.529 351.934 339.49 351.802C339.451 351.67 343.336 350.419 348.167 349.006C352.998 347.594 356.946 346.556 356.984 346.687Z" fill="#263238"/>
<path d="M356.627 365.835C356.56 365.836 356.482 364.803 356.436 363.131C356.39 361.46 356.383 359.149 356.454 356.599C356.526 354.048 356.662 351.741 356.801 350.075C356.94 348.408 357.076 347.382 357.142 347.387C357.212 347.392 357.2 348.426 357.151 350.095C357.095 351.927 357.026 354.152 356.95 356.613C356.888 359.074 356.833 361.3 356.787 363.131C356.743 364.801 356.697 365.834 356.627 365.835Z" fill="#263238"/>
<path d="M373.03 357.479C372.893 357.488 372.457 352.793 372.056 346.994C371.655 341.192 371.441 336.483 371.578 336.473C371.715 336.464 372.151 341.158 372.552 346.959C372.953 352.759 373.167 357.469 373.03 357.479Z" fill="#263238"/>
<path d="M352.612 336.017C352.616 335.948 353.678 335.921 355.393 335.933C357.108 335.945 359.475 335.995 362.088 336.081C364.702 336.167 367.068 336.274 368.78 336.375C370.492 336.477 371.551 336.574 371.55 336.642C371.549 336.711 370.488 336.738 368.773 336.726C367.058 336.714 364.689 336.664 362.072 336.577C359.456 336.49 357.089 336.384 355.377 336.283C353.665 336.183 352.608 336.086 352.612 336.017Z" fill="#263238"/>
<path d="M393.612 394.93C393.595 394.93 393.575 394.735 393.553 394.363C393.534 393.936 393.51 393.397 393.48 392.734C393.417 391.319 393.403 389.268 393.457 386.735C393.502 384.202 393.671 381.187 393.969 377.849C394.292 374.514 394.759 370.857 395.429 367.047C396.117 363.239 396.941 359.645 397.789 356.402C398.662 353.166 399.545 350.279 400.377 347.885C401.202 345.49 401.923 343.57 402.47 342.263C402.727 341.651 402.936 341.153 403.101 340.759C403.25 340.417 403.336 340.241 403.352 340.248C403.368 340.254 403.313 340.443 403.194 340.796C403.052 341.198 402.872 341.707 402.65 342.332C402.159 343.658 401.489 345.592 400.709 347.995C399.921 350.396 399.076 353.285 398.231 356.517C397.409 359.755 396.602 363.339 395.917 367.133C395.25 370.929 394.77 374.571 394.424 377.892C394.102 381.216 393.898 384.219 393.808 386.745C393.71 389.27 393.671 391.316 393.674 392.73C393.666 393.393 393.659 393.933 393.654 394.359C393.643 394.733 393.63 394.929 393.612 394.93Z" fill="#263238"/>
<path d="M395.8 366.632C395.847 366.68 395.22 367.378 394.147 368.448C393.074 369.518 391.551 370.954 389.812 372.479C388.073 374.003 386.448 375.326 385.247 376.25C384.046 377.174 383.272 377.705 383.23 377.652C383.186 377.597 383.882 376.969 385.024 375.978C386.299 374.871 387.812 373.558 389.484 372.106C391.142 370.639 392.642 369.311 393.906 368.193C395.039 367.189 395.751 366.581 395.8 366.632Z" fill="#263238"/>
<path d="M408.928 377.207C408.868 377.245 408.21 376.301 407.166 374.766C406.032 373.112 404.624 371.057 403.068 368.785C401.478 366.535 400.041 364.5 398.884 362.862C397.808 361.349 397.152 360.405 397.208 360.361C397.261 360.32 398.015 361.19 399.165 362.651C400.315 364.112 401.854 366.171 403.476 368.5C405.096 370.83 406.491 372.988 407.462 374.574C408.432 376.161 408.985 377.171 408.928 377.207Z" fill="#263238"/>
<path d="M402.052 343.949C402.126 344.065 397.765 347 392.313 350.506C386.859 354.013 382.379 356.761 382.304 356.645C382.23 356.53 386.59 353.594 392.044 350.088C397.497 346.582 401.978 343.833 402.052 343.949Z" fill="#263238"/>
<path d="M414.347 357.221C414.251 357.319 411.298 354.59 407.751 351.126C404.203 347.661 401.406 344.773 401.502 344.675C401.598 344.577 404.551 347.305 408.098 350.771C411.645 354.234 414.443 357.122 414.347 357.221Z" fill="#263238"/>
<path d="M417.44 356.954L421.184 356.644C423.841 356.424 426.421 355.637 428.744 354.33C429.892 353.684 431.046 353.051 432.267 352.56C436.895 350.702 442.059 351.034 447.04 350.784C455.17 350.376 463.214 348.32 470.542 344.775C470.965 344.57 471.34 344.258 471.566 343.846C472.335 342.445 470.907 341.198 469.677 340.441C463.37 336.555 456.95 332.619 449.798 330.69C442.646 328.761 434.527 329.087 428.424 333.287C421.261 338.217 418.65 348.343 417.44 356.954Z" fill="#004761"/>
<path d="M471.65 343.386C471.642 343.401 471.423 343.299 471.015 343.09C470.566 342.855 469.976 342.546 469.241 342.161C467.702 341.352 465.487 340.157 462.687 338.815C459.886 337.487 456.492 335.988 452.542 334.905C448.609 333.812 444.072 333.24 439.393 333.84C434.734 334.454 430.444 336.267 427.407 338.987C424.351 341.698 422.484 344.972 421.166 347.754C419.851 350.56 419.04 352.947 418.45 354.58C418.174 355.363 417.952 355.99 417.784 356.468C417.628 356.899 417.538 357.122 417.522 357.117C417.506 357.112 417.564 356.878 417.689 356.437C417.835 355.952 418.027 355.314 418.267 354.518C418.802 352.863 419.562 350.454 420.847 347.606C422.136 344.784 423.993 341.44 427.104 338.644C430.198 335.837 434.588 333.97 439.329 333.347C444.087 332.736 448.698 333.335 452.664 334.464C456.648 335.583 460.048 337.126 462.84 338.499C465.63 339.887 467.822 341.13 469.333 341.992C470.05 342.411 470.625 342.747 471.063 343.003C471.456 343.24 471.659 343.371 471.65 343.386Z" fill="#263238"/>
<path d="M462.66 348.216C462.583 348.33 457.687 345.163 451.725 341.143C445.761 337.122 440.99 333.771 441.067 333.657C441.144 333.543 446.039 336.71 452.003 340.731C457.965 344.751 462.737 348.103 462.66 348.216Z" fill="#263238"/>
<path d="M457.957 333.188C457.983 333.318 456.284 333.76 454.135 333.955C451.986 334.155 450.235 334.032 450.238 333.899C450.238 333.757 451.968 333.658 454.09 333.46C456.211 333.268 457.93 333.049 457.957 333.188Z" fill="#263238"/>
<path d="M436.004 329.255C436.122 329.325 435.403 330.763 434.398 332.467C433.393 334.171 432.482 335.496 432.364 335.427C432.246 335.358 432.965 333.919 433.97 332.215C434.975 330.51 435.886 329.185 436.004 329.255Z" fill="#263238"/>
<path d="M440.392 351.1C440.358 351.156 439.45 350.681 438.036 349.823C436.622 348.965 434.71 347.707 432.668 346.224C430.626 344.74 428.825 343.338 427.531 342.312C426.238 341.284 425.457 340.624 425.498 340.569C425.539 340.514 426.395 341.075 427.742 342.031C429.211 343.098 430.991 344.392 432.96 345.822C434.996 347.3 436.866 348.597 438.227 349.528C439.588 350.459 440.43 351.039 440.392 351.1Z" fill="#263238"/>
<path d="M422.952 372.859C419.381 371.916 415.125 375.389 414.389 379.008C413.653 382.627 415.01 386.328 416.599 389.662C420.117 397.042 424.971 403.887 431.365 408.982C437.759 414.077 445.767 417.335 453.942 417.294C452.433 410.283 454.342 402.958 453.5 395.835C452.765 389.618 449.867 383.678 445.418 379.274C440.97 374.87 435.001 372.031 428.777 371.358C426.499 371.112 423.861 370.754 422.952 372.859Z" fill="#004761"/>
<path d="M453.943 417.294C453.935 417.309 453.761 417.228 453.435 417.058C453.113 416.882 452.648 416.599 452.099 416.161C450.978 415.31 449.694 413.67 448.573 411.446C448.004 410.341 447.367 409.14 446.746 407.812C446.143 406.479 445.5 405.058 444.825 403.566C444.144 402.078 443.395 400.534 442.464 399.027C441.538 397.518 440.436 396.043 439.215 394.609C436.77 391.737 434.147 389.253 431.874 386.88C429.588 384.516 427.666 382.239 426.276 380.164C424.873 378.097 424.023 376.245 423.541 374.94C423.311 374.281 423.145 373.767 423.064 373.408C422.974 373.053 422.935 372.864 422.951 372.86C422.997 372.847 423.2 373.589 423.721 374.869C424.255 376.142 425.141 377.945 426.566 379.965C427.977 381.992 429.908 384.224 432.202 386.561C434.486 388.909 437.124 391.387 439.594 394.288C440.827 395.737 441.942 397.235 442.879 398.774C443.82 400.311 444.568 401.878 445.241 403.378C445.901 404.876 446.529 406.302 447.119 407.641C447.718 408.964 448.338 410.176 448.885 411.287C449.96 413.517 451.161 415.132 452.223 416.015C453.266 416.913 453.972 417.246 453.943 417.294Z" fill="#263238"/>
<path d="M435.478 411.467C435.413 411.454 435.526 410.534 435.806 409.063C436.086 407.593 436.544 405.574 437.163 403.375C437.783 401.175 438.446 399.214 438.975 397.814C439.504 396.413 439.888 395.57 439.95 395.593C440.017 395.618 439.749 396.503 439.307 397.928C438.865 399.353 438.259 401.321 437.641 403.51C437.025 405.699 436.515 407.694 436.149 409.14C435.782 410.586 435.548 411.481 435.478 411.467Z" fill="#263238"/>
<path d="M453.266 394.257C453.244 394.325 452.289 394.081 450.751 393.679C449.212 393.277 447.088 392.727 444.724 392.194C442.359 391.662 440.204 391.248 438.642 390.952C437.08 390.656 436.112 390.467 436.122 390.396C436.131 390.331 437.116 390.397 438.698 390.605C440.279 390.813 442.456 391.175 444.834 391.709C447.21 392.245 449.332 392.851 450.85 393.341C452.367 393.832 453.286 394.194 453.266 394.257Z" fill="#263238"/>
<path d="M422.229 399.257C422.164 399.244 422.301 398.18 422.615 396.475C422.929 394.771 423.429 392.427 424.096 389.867C424.765 387.306 425.475 385.017 426.034 383.377C426.594 381.736 426.994 380.741 427.057 380.762C427.124 380.784 426.842 381.818 426.37 383.482C425.898 385.146 425.244 387.442 424.578 389.993C423.913 392.544 423.361 394.866 422.96 396.548C422.558 398.231 422.298 399.271 422.229 399.257Z" fill="#263238"/>
<path d="M445.074 379.259C445.06 379.395 440.602 379.035 435.119 378.453C429.634 377.871 425.201 377.29 425.215 377.153C425.229 377.017 429.686 377.377 435.171 377.959C440.655 378.54 445.089 379.122 445.074 379.259Z" fill="#263238"/>
<path d="M441.808 433.316C441.808 433.453 426.139 433.565 406.814 433.565C387.483 433.565 371.816 433.454 371.816 433.316C371.816 433.178 387.482 433.067 406.814 433.067C426.139 433.067 441.808 433.178 441.808 433.316Z" fill="#455A64"/>
<path d="M430.908 453.48C430.908 453.617 420.35 453.729 407.33 453.729C394.305 453.729 383.75 453.618 383.75 453.48C383.75 453.343 394.305 453.232 407.33 453.232C420.35 453.232 430.908 453.343 430.908 453.48Z" fill="#455A64"/>
<path d="M431.319 456.363C431.319 456.5 420.761 456.611 407.741 456.611C394.716 456.611 384.161 456.5 384.161 456.363C384.161 456.226 394.716 456.115 407.741 456.115C420.761 456.115 431.319 456.226 431.319 456.363Z" fill="#455A64"/>
<path d="M431.32 451.104C431.32 451.241 420.399 451.353 406.932 451.353C393.459 451.353 382.541 451.242 382.541 451.104C382.541 450.967 393.459 450.855 406.932 450.855C420.399 450.855 431.32 450.967 431.32 451.104Z" fill="#455A64"/>
<path d="M461.231 482.381C461.231 482.525 366.652 482.641 250.01 482.641C133.327 482.641 38.7686 482.524 38.7686 482.381C38.7686 482.238 133.328 482.121 250.01 482.121C366.652 482.121 461.231 482.238 461.231 482.381Z" fill="#263238"/>
</svg>
