<svg width="520" height="443" viewBox="0 0 520 443" fill="none" xmlns="http://www.w3.org/2000/svg">
<path d="M159.467 39.066H208.367C214.936 39.066 220.261 33.741 220.261 27.172V11.894C220.261 5.325 214.936 0 208.367 0H159.467C152.898 0 147.573 5.325 147.573 11.894V27.172C147.573 33.741 152.898 39.066 159.467 39.066Z" fill="#004761"/>
<path d="M189.858 37.6342L210.152 46.0392L205.39 36.5352L189.858 37.6342Z" fill="#004761"/>
<path d="M192.792 19.5328C192.792 21.8248 194.65 23.6818 196.941 23.6818C199.233 23.6818 201.09 21.8238 201.09 19.5328C201.09 17.2408 199.232 15.3838 196.941 15.3838C194.65 15.3838 192.792 17.2418 192.792 19.5328Z" fill="#E8EDFE"/>
<path d="M179.769 19.5328C179.769 21.8248 181.627 23.6818 183.918 23.6818C186.21 23.6818 188.067 21.8238 188.067 19.5328C188.067 17.2408 186.209 15.3838 183.918 15.3838C181.627 15.3838 179.769 17.2418 179.769 19.5328Z" fill="#E8EDFE"/>
<path d="M166.744 19.5328C166.744 21.8248 168.602 23.6818 170.893 23.6818C173.185 23.6818 175.042 21.8238 175.042 19.5328C175.042 17.2408 173.184 15.3838 170.893 15.3838C168.601 15.3838 166.744 17.2418 166.744 19.5328Z" fill="#E8EDFE"/>
<path d="M297.922 256.318C297.49 250.194 292.396 245.447 286.258 245.447H239.493C238.016 245.447 236.819 246.644 236.819 248.121C236.819 249.598 238.016 250.795 239.493 250.795H243.287C244.526 250.795 245.554 251.753 245.641 252.989L257.229 417.283C257.802 425.4 251.371 432.3 243.234 432.3H204.458C202.095 432.3 200.179 434.216 200.179 436.579C200.179 438.942 202.095 440.858 204.458 440.858H258.892H293.752H298.391C305.173 440.858 310.532 435.107 310.055 428.342L297.922 256.318Z" fill="#004761"/>
<path d="M417.11 360.983H94.0733C80.0533 360.983 69.6784 347.94 72.8324 334.279L124.778 109.275C127.062 99.3849 135.869 92.3789 146.019 92.3789H469.056C483.076 92.3789 493.451 105.422 490.297 119.082L438.351 344.086C436.067 353.977 427.26 360.983 417.11 360.983Z" fill="#3C92B1"/>
<path d="M404.585 360.983H81.5475C67.5275 360.983 57.1525 347.94 60.3065 334.279L112.252 109.275C114.535 99.3849 123.344 92.3789 133.494 92.3789H456.53C470.55 92.3789 480.925 105.422 477.771 119.082L425.825 344.086C423.542 353.977 414.735 360.983 404.585 360.983Z" fill="#00004C"/>
<path d="M81.5486 349.94C78.2506 349.94 75.1816 348.459 73.1276 345.879C71.0756 343.298 70.3246 339.977 71.0646 336.764L123.012 111.757C124.146 106.847 128.455 103.419 133.494 103.419H456.53C459.828 103.419 462.897 104.9 464.949 107.48C467.003 110.061 467.754 113.385 467.012 116.598L415.068 341.602C413.936 346.512 409.625 349.94 404.586 349.94H81.5486Z" fill="#E8EDFE"/>
<path d="M115.456 279.024C113.335 279.024 111.361 278.072 110.04 276.412C108.72 274.752 108.237 272.616 108.713 270.55L142.125 125.826C142.854 122.668 145.626 120.463 148.867 120.463H356.643C358.764 120.463 360.738 121.415 362.058 123.075C363.379 124.735 363.862 126.873 363.385 128.94L329.974 273.661C329.246 276.819 326.473 279.024 323.232 279.024H115.456Z" fill="#DEE4FF"/>
<path d="M96.1644 337.018C95.6424 337.018 95.1564 336.784 94.8314 336.375C94.5064 335.966 94.3874 335.441 94.5044 334.932L102.73 299.302C102.91 298.524 103.592 297.982 104.39 297.982H245.377C245.899 297.982 246.385 298.216 246.71 298.625C247.035 299.034 247.154 299.56 247.037 300.069L238.811 335.699C238.632 336.476 237.949 337.019 237.151 337.019H96.1644V337.018Z" fill="#DEE4FF"/>
<path d="M296.993 337.018C296.471 337.018 295.985 336.784 295.66 336.375C295.335 335.966 295.216 335.441 295.333 334.932L303.559 299.302C303.739 298.524 304.421 297.982 305.219 297.982H389.589C390.111 297.982 390.597 298.216 390.922 298.625C391.247 299.034 391.366 299.56 391.249 300.069L383.023 335.699C382.844 336.476 382.161 337.019 381.363 337.019H296.993V337.018Z" fill="#DEE4FF"/>
<path d="M378.523 279.024C376.402 279.024 374.428 278.072 373.107 276.412C371.787 274.752 371.304 272.616 371.78 270.55L405.192 125.826C405.921 122.668 408.693 120.463 411.934 120.463H436.788C438.909 120.463 440.883 121.415 442.203 123.075C443.524 124.735 444.007 126.873 443.53 128.94L410.119 273.661C409.391 276.819 406.618 279.024 403.377 279.024H378.523Z" fill="#DEE4FF"/>
<path opacity="0.47" d="M305.032 357.137H252.986L254.157 373.734H306.203L305.032 357.137Z" fill="#004761"/>
<path d="M483.744 145.105H347.193C340.099 145.105 335.675 139.354 337.313 132.26L357.19 46.1614C358.828 39.0674 365.907 33.3164 373.002 33.3164H509.554C516.648 33.3164 521.071 39.0674 519.434 46.1614L499.556 132.26C497.917 139.354 490.838 145.105 483.744 145.105Z" fill="#3C92B1"/>
<path d="M419.897 64.9617H370.465C366.097 64.9617 363.373 61.4207 364.382 57.0527L366.779 46.6717C367.787 42.3037 372.146 38.7627 376.514 38.7627H425.946C430.314 38.7627 433.038 42.3037 432.029 46.6717L429.633 57.0527C428.623 61.4197 424.265 64.9617 419.897 64.9617Z" fill="#3C92B1"/>
<path d="M431.258 129.223H355.627C351.259 129.223 348.535 125.682 349.544 121.314L351.941 110.933C352.949 106.565 357.308 103.024 361.676 103.024H437.307C441.675 103.024 444.399 106.565 443.39 110.933L440.994 121.314C439.985 125.682 435.627 129.223 431.258 129.223Z" fill="#3C92B1"/>
<path d="M484.485 97.0916H363.046C358.678 97.0916 355.955 93.5506 356.963 89.1826L359.36 78.8016C360.368 74.4336 364.727 70.8926 369.095 70.8926H490.533C494.901 70.8926 497.624 74.4336 496.616 78.8016L494.219 89.1826C493.211 93.5506 488.853 97.0916 484.485 97.0916Z" fill="#3C92B1"/>
<path d="M413.595 45.6829H389.621C386.959 45.6829 385.299 43.5249 385.914 40.8629L389.281 26.2799C389.896 23.6179 392.552 21.4609 395.213 21.4609H419.188C421.85 21.4609 423.509 23.6189 422.895 26.2799L419.528 40.8629C418.913 43.5249 416.257 45.6829 413.595 45.6829Z" fill="#004761"/>
<path d="M496.225 60.0989H462.559C459.802 60.0989 458.082 57.8639 458.719 55.1059L464.911 28.2869C465.548 25.5299 468.299 23.2939 471.057 23.2939H504.723C507.48 23.2939 509.2 25.5289 508.563 28.2869L502.371 55.1059C501.734 57.8629 498.982 60.0989 496.225 60.0989Z" fill="#004761"/>
<path d="M468.466 36.0624L469.964 37.9164L475.626 33.3164" stroke="#E8EDFE" stroke-width="1.525" stroke-miterlimit="10" stroke-linecap="round" stroke-linejoin="round"/>
<path d="M479.626 34.0654H501.808" stroke="#E8EDFE" stroke-width="1.525" stroke-miterlimit="10" stroke-linecap="round" stroke-linejoin="round"/>
<path d="M478.852 37.417H483.641" stroke="#E8EDFE" stroke-width="1.525" stroke-miterlimit="10" stroke-linecap="round" stroke-linejoin="round"/>
<path d="M465.502 48.9013L467 50.7553L472.662 46.1543" stroke="#E8EDFE" stroke-width="1.525" stroke-miterlimit="10" stroke-linecap="round" stroke-linejoin="round"/>
<path d="M476.662 46.9033H498.844" stroke="#E8EDFE" stroke-width="1.525" stroke-miterlimit="10" stroke-linecap="round" stroke-linejoin="round"/>
<path d="M475.888 50.2559H487.942" stroke="#E8EDFE" stroke-width="1.525" stroke-miterlimit="10" stroke-linecap="round" stroke-linejoin="round"/>
<path d="M372.006 51.8623H424.404" stroke="#E8EDFE" stroke-width="1.9773" stroke-miterlimit="10" stroke-linecap="round" stroke-linejoin="round"/>
<path d="M357.17 116.124H432.801" stroke="#E8EDFE" stroke-width="1.9773" stroke-miterlimit="10" stroke-linecap="round" stroke-linejoin="round"/>
<path d="M365.382 80.5762H401.325" stroke="white" stroke-width="1.9773" stroke-miterlimit="10" stroke-linecap="round" stroke-linejoin="round"/>
<path d="M410.029 80.5762H484.838" stroke="white" stroke-width="1.9773" stroke-miterlimit="10" stroke-linecap="round" stroke-linejoin="round"/>
<path d="M363.378 88.4541H379.722" stroke="white" stroke-width="1.9773" stroke-miterlimit="10" stroke-linecap="round" stroke-linejoin="round"/>
<path d="M386.425 88.4541H390.511" stroke="white" stroke-width="1.9773" stroke-miterlimit="10" stroke-linecap="round" stroke-linejoin="round"/>
<path d="M398.781 88.4541H423.691" stroke="white" stroke-width="1.9773" stroke-miterlimit="10" stroke-linecap="round" stroke-linejoin="round"/>
<path d="M393.863 29.6328H416.949" stroke="#E8EDFE" stroke-width="1.9773" stroke-miterlimit="10" stroke-linecap="round" stroke-linejoin="round"/>
<path d="M391.858 37.5107H402.169" stroke="#E8EDFE" stroke-width="1.9773" stroke-miterlimit="10" stroke-linecap="round" stroke-linejoin="round"/>
<path d="M408.146 37.5107H412.234" stroke="#E8EDFE" stroke-width="1.9773" stroke-miterlimit="10" stroke-linecap="round" stroke-linejoin="round"/>
<path d="M456.495 77.072H433.75C431.285 77.072 429.748 75.074 430.317 72.608L433.525 58.712C434.094 56.247 436.554 54.248 439.019 54.248H461.764C464.229 54.248 465.767 56.246 465.197 58.712L461.989 72.608C461.42 75.074 458.96 77.072 456.495 77.072Z" fill="#004761"/>
<path d="M440.252 65.3717L443.083 68.8757L453.785 60.1807" stroke="#E8EDFE" stroke-width="1.8631" stroke-miterlimit="10" stroke-linecap="round" stroke-linejoin="round"/>
<path d="M487.027 128.996H449.375L452.772 114.283H490.424L487.027 128.996Z" fill="#3C92B1"/>
<path d="M481.109 136.063H453.073C450.13 136.063 448.294 133.677 448.974 130.734L452.772 114.283L481.109 136.063Z" fill="#E8EDFE"/>
<path d="M452.029 136.063H480.065C483.008 136.063 485.945 133.677 486.625 130.734L490.423 114.283L452.029 136.063Z" fill="#DEE4FF"/>
<path d="M452.771 114.283H490.424L476.015 103.208C475.055 102.47 473.595 102.47 472.294 103.208L452.771 114.283Z" fill="#E8EDFE"/>
<path d="M112.019 317.046H37.0455C32.3705 317.046 29.4555 313.256 30.5345 308.581L34.6295 290.845C35.7085 286.17 40.3735 282.38 45.0485 282.38H120.023C124.698 282.38 127.613 286.17 126.533 290.845L122.438 308.581C121.359 313.256 116.694 317.046 112.019 317.046Z" fill="#004761"/>
<path d="M45.3267 294.271H75.5576" stroke="#E8EDFE" stroke-width="2.4525" stroke-miterlimit="10" stroke-linecap="round" stroke-linejoin="round"/>
<path d="M82.9136 294.271H108.535" stroke="#E8EDFE" stroke-width="2.4525" stroke-miterlimit="10" stroke-linecap="round" stroke-linejoin="round"/>
<path d="M42.8135 305.154H61.6465" stroke="#E8EDFE" stroke-width="2.4525" stroke-miterlimit="10" stroke-linecap="round" stroke-linejoin="round"/>
<path d="M68.2075 305.154H76.5715" stroke="#E8EDFE" stroke-width="2.4525" stroke-miterlimit="10" stroke-linecap="round" stroke-linejoin="round"/>
<path d="M110.109 313.481V328.848L95.4155 313.826L110.109 313.481Z" fill="#004761"/>
<path d="M81.7084 271.331H6.73545C2.06045 271.331 -0.854532 267.541 0.224468 262.866L4.31947 245.13C5.39847 240.455 10.0635 236.665 14.7385 236.665H89.7125C94.3875 236.665 97.3025 240.455 96.2225 245.13L92.1285 262.866C91.0485 267.542 86.3844 271.331 81.7084 271.331Z" fill="#004761"/>
<path d="M15.0166 248.557H45.2476" stroke="#E8EDFE" stroke-width="2.4525" stroke-miterlimit="10" stroke-linecap="round" stroke-linejoin="round"/>
<path d="M52.6045 248.557H77.2495" stroke="#E8EDFE" stroke-width="2.4525" stroke-miterlimit="10" stroke-linecap="round" stroke-linejoin="round"/>
<path d="M12.5034 259.439H25.6724" stroke="#E8EDFE" stroke-width="2.4525" stroke-miterlimit="10" stroke-linecap="round" stroke-linejoin="round"/>
<path d="M32.3862 259.439H55.8392" stroke="#E8EDFE" stroke-width="2.4525" stroke-miterlimit="10" stroke-linecap="round" stroke-linejoin="round"/>
<path d="M28.1463 268.512L6.57129 279.88L11.7343 268.898L28.1463 268.512Z" fill="#004761"/>
<path d="M163.87 294.924C163.169 294.443 162.458 293.894 161.737 293.285C145.275 279.36 124.104 233.496 121.357 228.599C118.49 223.487 115.083 221.498 109.444 216.33C100.996 208.586 101.012 207.212 97.5357 201.312C93.0127 193.636 89.5657 190.45 92.6827 190.201C95.7997 189.952 107.332 201.828 107.332 201.828C107.332 201.828 99.1657 191.198 95.5497 187.084C91.9347 182.97 93.3057 180.352 95.5497 180.227C97.7937 180.102 111.415 198.308 111.415 198.308C111.415 198.308 104.9 184.965 101.908 179.853C98.9157 174.742 99.6637 174.118 102.407 173.394C105.15 172.669 117.892 194.366 117.892 194.366C117.892 194.366 110.511 177.983 110.012 175.739C109.513 173.495 111.757 172.373 114.375 174.617C116.993 176.861 124.099 192.071 124.099 192.071C124.099 192.071 125.221 179.853 130.208 181.1C135.195 182.347 129.368 193.685 130.739 197.675C132.11 201.664 134.654 206.533 137.314 212.85C139.974 219.167 174.882 258.729 174.882 258.729" fill="#FFBBA5"/>
<path d="M124.183 197.058C124.183 197.058 119.695 204.04 120.193 212.683C120.193 212.683 114.043 205.868 124.183 197.058Z" fill="#FF9E7C"/>
<path d="M238.018 166.621C238.018 166.621 218.565 172.293 205.048 197.057C191.531 221.821 174.635 248.291 174.635 248.291L142.533 211.28L118.347 228.579C118.347 228.579 143.097 293.91 163.935 305.174C184.773 316.438 204.083 289.405 223.996 254.486C243.908 219.568 262.044 179.412 238.018 166.621Z" fill="#004761"/>
<path d="M122.998 225.252C122.998 225.252 147.42 278.473 163.837 289.529C180.254 300.585 221.128 225.252 221.128 225.252L232.526 246.645C232.526 246.645 195.98 304.029 180.578 306.495C165.177 308.961 154.603 314.039 118.346 228.579L122.998 225.252Z" fill="#004761"/>
<path d="M298.071 158.002L344.729 173.811C344.729 173.811 341.568 273.231 348.423 348.882C349.412 359.795 314.223 357.206 270.716 357.206C241.869 357.206 214.577 357.766 214.208 349.625C212.086 302.802 212.974 220.289 212.974 220.289C212.102 202.248 223.094 171.198 240.078 165.052L252.084 160.707L298.071 158.002Z" fill="#3C92B1"/>
<path d="M213.702 335.771C213.702 335.771 332.664 329.509 327.374 231.232L332.687 208.45C332.687 208.45 345.28 315.87 348.423 349.939H214.207L213.702 335.771Z" fill="#3C92B1"/>
<path d="M289.992 146.111C289.992 146.111 318.964 110.218 316.993 90.0326C315.571 75.4736 298.591 69.8986 298.591 69.8986C298.591 69.8986 295.35 45.0346 256.699 44.9776C222.235 44.9256 224.84 70.6026 224.84 70.6026C224.84 70.6026 208.724 82.2806 233.009 110.938C257.293 139.595 289.992 146.111 289.992 146.111Z" fill="#004761"/>
<path d="M293.298 125.989L295.43 151.075C296.217 160.337 292.296 169.374 284.995 175.127C280.184 178.918 267.251 184.644 262.492 186.735C259.33 184.944 259.044 180.062 254.727 177.725L251.439 175.945V135.989L293.298 125.989Z" fill="#FFBBA5"/>
<path d="M251.439 159.381V173.862C251.439 173.862 246.571 162.271 251.439 159.381Z" fill="#3A2FBC"/>
<path d="M251.439 145.559L289.991 132.19C289.991 132.19 288.522 162.23 251.439 169.844V145.559Z" fill="#FF9E7C"/>
<path d="M293.849 123.703C293.849 123.703 290.134 159.38 253.847 159.38C219.396 159.38 227.107 96.9553 231.846 81.9873C235.751 65.2513 276.688 65.5843 287.298 78.8443C294.379 87.6943 293.849 123.703 293.849 123.703Z" fill="#FFBBA5"/>
<path d="M253.175 113.129C253.175 114.576 253.964 115.748 254.937 115.748C255.91 115.748 256.699 114.575 256.699 113.129C256.699 111.683 255.91 110.51 254.937 110.51C253.964 110.51 253.175 111.682 253.175 113.129Z" fill="#004761"/>
<path d="M232.525 113.129C232.525 114.576 233.314 115.748 234.287 115.748C235.26 115.748 236.049 114.575 236.049 113.129C236.049 111.683 235.26 110.51 234.287 110.51C233.314 110.51 232.525 111.682 232.525 113.129Z" fill="#004761"/>
<path d="M246.309 142.524C242.828 142.344 240.82 139.349 239.781 137.04C239.077 135.571 238.801 134.347 238.801 134.347C238.801 134.347 245.296 136.568 254.962 131.938C254.962 131.938 255.046 142.978 246.309 142.524Z" fill="#B63847"/>
<path d="M254.961 131.938C250.273 138.41 243.239 137.825 239.78 137.04C239.076 135.571 238.8 134.347 238.8 134.347C238.8 134.347 245.296 136.567 254.961 131.938Z" fill="#FFEEF7"/>
<path d="M254.961 131.938C250.273 138.41 243.239 137.825 239.78 137.04C239.076 135.571 238.8 134.347 238.8 134.347C238.8 134.347 245.296 136.567 254.961 131.938Z" fill="#FFEEF7"/>
<path d="M246.309 142.525C249.838 142.709 251.912 141.011 253.15 138.929C251.821 137.967 249.679 137.507 247.352 137.843C245.018 138.18 243.091 139.233 242.09 140.537C243.162 141.618 244.545 142.434 246.309 142.525Z" fill="#D84655"/>
<path d="M244.774 112.993C244.388 117.636 242.361 122.125 239.133 125.485C240.716 127.21 242.824 128.446 245.102 128.986" stroke="#DE7D65" stroke-width="1.7144" stroke-miterlimit="10" stroke-linecap="round" stroke-linejoin="round"/>
<path d="M262.004 105.199C260.089 102.83 256.828 101.633 253.835 102.201" stroke="#004761" stroke-width="2.2858" stroke-miterlimit="10" stroke-linecap="round" stroke-linejoin="round"/>
<path d="M238.018 103.13C235.689 101.784 232.484 102.186 230.559 104.066" stroke="#004761" stroke-width="2.2858" stroke-miterlimit="10" stroke-linecap="round" stroke-linejoin="round"/>
<path d="M280.616 82.0074C280.616 82.0074 261.685 94.3974 242.088 88.6954C230.293 85.2634 228.429 85.4054 223.994 91.8634C223.994 91.8634 226.679 63.5624 247.618 61.2394C268.557 58.9164 292.063 70.9864 297.628 78.3624L295.801 116.784C295.801 116.784 271.77 104.821 280.616 82.0074Z" fill="#004761"/>
<path d="M288.445 129.188C293.595 133.805 301.881 132.96 306.953 127.302C312.025 121.644 311.962 113.315 306.813 108.698C301.663 104.081 293.377 104.926 288.305 110.584C283.232 116.242 283.295 124.572 288.445 129.188Z" fill="#FFBBA5"/>
<path d="M303.681 113.242C300.446 113.999 297.624 116.345 296.289 119.387" stroke="#DE7D65" stroke-width="1.7144" stroke-miterlimit="10" stroke-linecap="round" stroke-linejoin="round"/>
<path d="M257.175 125.815C262.726 125.355 266.852 120.482 266.392 114.932C265.932 109.381 261.06 105.254 255.509 105.714C249.958 106.174 245.831 111.047 246.291 116.598C246.751 122.148 251.624 126.275 257.175 125.815Z" stroke="#004761" stroke-width="1.6896" stroke-miterlimit="10"/>
<path d="M233.367 125.833C238.016 125.833 241.784 121.318 241.784 115.748C241.784 110.178 238.016 105.663 233.367 105.663C228.719 105.663 224.95 110.178 224.95 115.748C224.95 121.318 228.719 125.833 233.367 125.833Z" stroke="#004761" stroke-width="1.5436" stroke-miterlimit="10"/>
<path d="M247.32 111.217C247.32 111.217 245.205 109.756 243.183 109.959C241.783 110.1 240.84 111.112 240.84 111.112" stroke="#004761" stroke-width="1.6896" stroke-miterlimit="10"/>
<path d="M266.206 113.703L289.295 116.998" stroke="#004761" stroke-width="1.5436" stroke-miterlimit="10"/>
<path d="M300.441 112.612C302.162 107.129 303.104 101.187 303.104 94.9796C303.104 67.3636 284.456 44.9766 261.452 44.9766" stroke="#E6EAFE" stroke-width="2.3726" stroke-miterlimit="10" stroke-linecap="round" stroke-linejoin="round"/>
<path d="M296.91 122.35C296.91 122.35 292.449 148.255 259.116 147.399" stroke="#004761" stroke-width="2.0552" stroke-miterlimit="10"/>
<path d="M246.853 148.602C247.001 150.986 251.72 152.633 257.391 152.281C263.063 151.928 267.541 149.71 267.392 147.325C267.244 144.941 262.526 143.293 256.854 143.646C251.182 143.999 246.705 146.218 246.853 148.602Z" fill="#004761"/>
<path d="M285.128 112.373C285.128 123.949 291.265 133.334 298.835 133.334C306.405 133.334 312.542 123.95 312.542 112.373C312.542 100.797 306.405 91.4121 298.835 91.4121C291.265 91.4121 285.128 100.797 285.128 112.373Z" fill="#3C92B1"/>
<path d="M301.913 127.368C307.329 127.368 311.718 120.655 311.718 112.374C311.718 104.093 307.329 97.3799 301.913 97.3799C296.498 97.3799 292.108 104.093 292.108 112.374C292.108 120.655 296.498 127.368 301.913 127.368Z" fill="#E6EAFE"/>
<path d="M293.239 112.373C293.239 120.177 297.376 126.503 302.479 126.503C307.582 126.503 311.719 120.177 311.719 112.373C311.719 104.569 307.582 98.2432 302.479 98.2432C297.375 98.2432 293.239 104.57 293.239 112.373Z" fill="#3C92B1"/>
<path d="M262.492 186.736C262.492 186.736 279.334 185.687 289.991 177.892C300.649 170.096 277.98 177.277 262.492 186.736Z" fill="#3A2FBC"/>
<path d="M262.492 186.736C262.492 186.736 297.628 165.642 295.488 151.97C295.488 151.97 300.941 155.223 302.961 159.381C307.065 167.827 303.616 178.314 295.624 195.754C295.624 195.754 291.571 184.777 283.904 182.271C276.583 179.877 262.492 186.736 262.492 186.736Z" fill="#004761"/>
<path d="M262.493 186.736C262.493 186.736 250.134 184.791 246.881 175.639C246.881 175.639 256.861 180.374 262.493 186.736Z" fill="#3A2FBC"/>
<path d="M251.439 159.381C251.439 159.381 247.014 162.932 251.661 170.993C256.308 179.053 262.492 186.737 262.492 186.737C262.492 186.737 254.608 177.611 248.608 180.582C242.113 183.799 238.221 189.354 238.221 189.354C238.221 189.354 235.312 161.041 251.439 159.381Z" fill="#004761"/>
<path d="M241.572 256.361C246.09 258.082 263.48 263.569 263.48 263.569C263.48 263.569 243.078 253.995 243.939 250.552C244.799 247.11 258.139 254.21 274.705 260.664C274.705 260.664 272.661 257.867 272.177 253.188C271.693 248.509 274.113 245.201 275.324 244.878C275.324 244.878 276.131 247.783 278.309 250.929C280.487 254.076 292.428 266.5 294.526 271.583L332.688 287.558L319.944 311.953C288.102 292.159 285.234 290.813 285.234 290.813C285.234 290.813 277.917 294.54 268.972 288.701C262.478 284.463 261.844 284.319 261.018 284.26C261.018 284.26 239.827 281.732 241.414 276.477C241.517 275.184 259.032 276.664 259.032 276.664L241.869 273.213C241.869 273.213 236.237 271.946 236.659 269.271C237.1 266.476 260.572 270.041 260.572 270.041C260.572 270.041 238.131 260.664 236.194 258.512C234.256 256.361 237.053 254.64 241.572 256.361Z" fill="#FFBBA5"/>
<path d="M344.73 173.811C333.132 169.405 311.662 197.619 340.582 284.766L301.073 273.354C295.589 271.522 281.574 293.27 290.372 299.824C298.329 305.941 335.709 335.899 368.656 343.768C401.603 351.638 401.512 321.581 390.575 271.983C379.639 222.385 371.807 184.098 344.73 173.811Z" fill="#004761"/>
<path d="M339.326 284.404C339.326 284.404 345.089 285.175 364.186 298.241C364.186 298.241 343.754 265.141 327.374 229.849L339.326 284.404Z" fill="#004761"/>
<path d="M396.985 312.456C391.664 329.213 380.19 337.468 359.26 332.749C331.923 326.586 293.571 297.027 287.593 292.324C287.351 295.395 288.088 298.123 290.372 299.825C298.329 305.942 335.709 335.9 368.656 343.769C391.225 349.159 398.288 336.748 396.985 312.456Z" fill="#004761"/>
<path d="M356.2 349.94H201.807V360.983H356.2V349.94Z" fill="#00004C"/>
<path d="M174.635 248.292C174.635 248.292 180.254 258.176 178.244 276.366C178.244 276.366 184.808 267.562 178.678 241.86L174.635 248.292Z" fill="#004761"/>
<path d="M42.3394 440.57H414.445" stroke="#00004C" stroke-width="2.6803" stroke-miterlimit="10" stroke-linecap="round" stroke-linejoin="round"/>
<path d="M423.858 440.859H442.179" stroke="#00004C" stroke-width="2.6803" stroke-miterlimit="10" stroke-linecap="round" stroke-linejoin="round"/>
<path d="M138.63 159.277H81.1174C71.6974 159.277 65.8235 151.641 67.9985 142.22L82.9035 77.6576C85.0785 68.2376 94.4774 60.6006 103.898 60.6006H161.412C170.832 60.6006 176.706 68.2366 174.531 77.6576L159.626 142.22C157.45 151.64 148.051 159.277 138.63 159.277Z" fill="#004761"/>
<path d="M93.7208 102.865L93.9273 98.8735C96.3933 98.1949 98.7719 97.8556 101.063 97.8556C101.979 97.8556 102.734 97.8824 103.326 97.9359C103.937 97.9895 104.548 98.1235 105.158 98.3378C105.769 98.5521 106.223 98.8468 106.521 99.2218C107.203 100.079 107.34 101.392 106.932 103.16C106.524 104.928 105.71 106.232 104.49 107.071C103.269 107.91 100.884 108.875 97.3335 109.964L97.1603 110.714H104.913L103.924 115H89.8201L90.593 111.652C90.8238 110.652 91.2368 109.696 91.832 108.785C92.1898 108.267 92.9114 107.642 93.9968 106.91C94.5865 106.499 95.337 106.107 96.2484 105.731C97.1781 105.356 98.0466 105.008 98.854 104.687C99.6838 104.347 100.352 104.071 100.86 103.856L101.194 102.41C100.39 102.32 99.6395 102.276 98.9431 102.276C97.2568 102.276 95.5161 102.472 93.7208 102.865ZM114.251 115L114.869 112.322H106.401L107.174 108.973L113.881 98.2574H123.614L121.431 107.714H123.218L122.155 112.322H120.368L119.749 115H114.251ZM116.913 102.276L113.211 107.714H115.933L117.188 102.276H116.913ZM139.769 97.1858L124.87 115.402C124.737 115.581 124.625 115.706 124.536 115.777C124.289 115.974 123.954 116.072 123.533 116.072H121.581L136.48 97.8556C136.613 97.677 136.724 97.552 136.814 97.4805C137.061 97.2841 137.395 97.1858 137.817 97.1858H139.769ZM153.978 101.606L145.58 115H139.367L147.077 102.919L140.46 102.999L141.142 98.2574H154.751L153.978 101.606Z" fill="#E8EDFE"/>
<path d="M101.143 93.3509C108.173 85.7119 118.132 80.7139 128.116 80.7139C138.1 80.7139 145.764 85.7129 149.267 93.3509" stroke="#E8EDFE" stroke-width="5.3605" stroke-miterlimit="10" stroke-linecap="round" stroke-linejoin="round"/>
<path d="M93.4854 126.519C96.9854 134.171 104.636 139.17 114.62 139.17C124.604 139.17 134.576 134.171 141.609 126.519" stroke="#E8EDFE" stroke-width="5.3605" stroke-miterlimit="10" stroke-linecap="round" stroke-linejoin="round"/>
<path d="M467.605 238.717H427.094C420.459 238.717 416.322 233.338 417.853 226.703L428.352 181.228C429.884 174.593 436.505 169.214 443.14 169.214H483.651C490.286 169.214 494.423 174.593 492.892 181.228L482.393 226.703C480.861 233.338 474.24 238.717 467.605 238.717Z" fill="#004761"/>
<path d="M476.074 195.07C474.352 188.154 468.387 183.379 460.203 183.379C452.019 183.379 443.849 188.154 438.934 195.07" stroke="#E8EDFE" stroke-width="3.7758" stroke-miterlimit="10" stroke-linecap="round" stroke-linejoin="round"/>
<path d="M434.825 212.86C436.547 219.776 442.512 224.551 450.696 224.551C458.879 224.551 467.05 219.776 471.965 212.86" stroke="#E8EDFE" stroke-width="3.7758" stroke-miterlimit="10" stroke-linecap="round" stroke-linejoin="round"/>
<path d="M445.418 204.834L450.068 210.629L466.665 197.301" stroke="#E8EDFE" stroke-width="3.7758" stroke-miterlimit="10" stroke-linecap="round" stroke-linejoin="round"/>
</svg>
