<svg width="500" height="500" viewBox="0 0 500 500" fill="none" xmlns="http://www.w3.org/2000/svg">
<path d="M389.423 448.122C394.789 444.912 399.997 441.363 405.023 437.433C445.47 405.803 462.58 364.449 474.048 317.201C485.892 268.403 489.619 211.271 468.206 164.424C463.165 153.397 456.414 142.942 447.268 134.622C412.819 103.283 355.094 92.5375 309.472 57.6175C263.852 22.6975 207.058 5.68452 153.057 37.0235C130.204 50.2865 111.35 67.1965 94.8091 87.2055C74.4431 111.843 46.9731 133.093 31.0731 161.564C14.3621 191.489 8.54006 231.342 16.1921 264.457C24.9231 302.238 59.6381 324.399 83.3141 353.24C101.979 375.977 114.195 403.174 133.447 425.454C162.941 459.588 210.348 485.468 257.336 481.142C302.916 476.945 350.334 471.51 389.423 448.122Z" fill="#004761"/>
<path opacity="0.7" d="M389.423 448.122C394.789 444.912 399.997 441.363 405.023 437.433C445.47 405.803 462.58 364.449 474.048 317.201C485.892 268.403 489.619 211.271 468.206 164.424C463.165 153.397 456.414 142.942 447.268 134.622C412.819 103.283 355.094 92.5375 309.472 57.6175C263.852 22.6975 207.058 5.68452 153.057 37.0235C130.204 50.2865 111.35 67.1965 94.8091 87.2055C74.4431 111.843 46.9731 133.093 31.0731 161.564C14.3621 191.489 8.54006 231.342 16.1921 264.457C24.9231 302.238 59.6381 324.399 83.3141 353.24C101.979 375.977 114.195 403.174 133.447 425.454C162.941 459.588 210.348 485.468 257.336 481.142C302.916 476.945 350.334 471.51 389.423 448.122Z" fill="white"/>
<path d="M94.7442 331.137H31.5142V368.658H94.7442V331.137Z" stroke="#263238" stroke-miterlimit="10" stroke-linecap="round" stroke-linejoin="round"/>
<path d="M31.5142 331.137L63.1292 349.897L94.7442 331.137" stroke="#263238" stroke-miterlimit="10" stroke-linecap="round" stroke-linejoin="round"/>
<path d="M31.5142 368.658L56.2782 346.51" stroke="#263238" stroke-miterlimit="10" stroke-linecap="round" stroke-linejoin="round"/>
<path d="M94.516 368.658L69.752 346.51" stroke="#263238" stroke-miterlimit="10" stroke-linecap="round" stroke-linejoin="round"/>
<path d="M423.597 335.137C439.718 332.546 450.686 317.377 448.094 301.256C445.503 285.135 430.334 274.167 414.213 276.758C398.092 279.35 387.124 294.519 389.715 310.64C392.307 326.761 407.476 337.729 423.597 335.137Z" stroke="#263238" stroke-miterlimit="10" stroke-linecap="round" stroke-linejoin="round"/>
<path d="M406.098 321.962H399.924C398.623 321.962 397.568 320.907 397.568 319.606V304.793C397.568 303.492 398.623 302.437 399.924 302.437H406.098C407.399 302.437 408.454 303.492 408.454 304.793V319.606C408.454 320.908 407.399 321.962 406.098 321.962ZM437.203 300.957C437.203 299.467 436.115 298.233 434.691 298V297.971H434.494C434.398 297.962 434.301 297.956 434.202 297.956H431.202V297.971H423.666C423.666 297.971 423.945 296.017 424.643 294.622C425.341 293.226 426.178 291.831 426.318 287.784C426.458 283.737 423.108 282.76 421.433 283.039C419.758 283.318 420.596 286.528 420.456 287.784C420.316 289.04 418.223 291.413 415.711 294.204C413.986 296.12 412.459 299.22 411.671 300.976C411.299 301.806 411.105 302.7 411.105 303.609V320.581L431.201 321.057V321.14H433.913C433.992 321.14 434.07 321.135 434.147 321.127L434.69 321.14V320.996C435.519 320.682 436.11 319.882 436.11 318.943C436.11 318.004 435.519 317.204 434.69 316.89V316.442C436.114 316.208 437.202 314.975 437.202 313.485C437.202 311.995 436.114 310.761 434.69 310.528V310.181C436.114 309.947 437.202 308.714 437.202 307.224C437.202 305.734 436.114 304.501 434.69 304.267V303.92C436.115 303.681 437.203 302.447 437.203 300.957Z" stroke="#263238" stroke-miterlimit="10" stroke-linecap="round" stroke-linejoin="round"/>
<path d="M100.237 85.5789C97.6371 85.5789 95.3701 86.9839 94.1371 89.0719L71.3791 76.7939C71.3841 76.6819 71.3961 76.5709 71.3961 76.4579C71.3961 76.3439 71.3841 76.2339 71.3791 76.1219L94.9921 63.3829C96.2891 64.8129 98.1551 65.716 100.237 65.716C104.151 65.716 107.323 62.5429 107.323 58.6299C107.323 54.7159 104.15 51.5439 100.237 51.5439C96.3231 51.5439 93.1511 54.7159 93.1511 58.6299C93.1511 59.1979 93.2251 59.7479 93.3511 60.2779L70.3131 72.7059C69.0601 70.7059 66.8431 69.3709 64.3091 69.3709C60.3951 69.3709 57.2231 72.5439 57.2231 76.4569C57.2231 80.3699 60.3961 83.5429 64.3091 83.5429C66.8431 83.5429 69.0601 82.2089 70.3131 80.2089L93.1571 92.5329C93.1561 92.5769 93.1501 92.6199 93.1501 92.6649C93.1501 96.5779 96.3231 99.7509 100.236 99.7509C104.15 99.7509 107.322 96.5779 107.322 92.6649C107.323 88.7519 104.15 85.5789 100.237 85.5789Z" stroke="#263238" stroke-miterlimit="10"/>
<path d="M397.429 101.071L399.158 106.391H404.751L400.226 109.678L401.954 114.998L397.429 111.71L392.904 114.998L394.633 109.678L390.108 106.391H395.701L397.429 101.071Z" stroke="#263238" stroke-miterlimit="10" stroke-linecap="round" stroke-linejoin="round"/>
<path d="M413.926 101.071L415.655 106.391H421.248L416.723 109.678L418.451 114.998L413.926 111.71L409.401 114.998L411.13 109.678L406.605 106.391H412.198L413.926 101.071Z" stroke="#263238" stroke-miterlimit="10" stroke-linecap="round" stroke-linejoin="round"/>
<path d="M430.424 101.071L432.153 106.391H437.746L433.221 109.678L434.949 114.998L430.424 111.71L425.899 114.998L427.628 109.678L423.103 106.391H428.696L430.424 101.071Z" stroke="#263238" stroke-miterlimit="10" stroke-linecap="round" stroke-linejoin="round"/>
<path d="M446.921 101.071L448.65 106.391H454.243L449.718 109.678L451.446 114.998L446.921 111.71L442.396 114.998L444.125 109.678L439.6 106.391H445.193L446.921 101.071Z" stroke="#263238" stroke-miterlimit="10" stroke-linecap="round" stroke-linejoin="round"/>
<path d="M463.417 101.071L465.146 106.391H470.739L466.214 109.678L467.943 114.998L463.417 111.71L458.892 114.998L460.621 109.678L456.096 106.391H461.689L463.417 101.071Z" stroke="#263238" stroke-miterlimit="10" stroke-linecap="round" stroke-linejoin="round"/>
<path d="M198.312 491.863L156.455 439.216L93.3911 449.014L160.32 285.13L265.241 327.979L198.312 491.863Z" fill="#004761" stroke="#263238" stroke-miterlimit="10"/>
<path d="M239.31 317.389L184.249 294.903L123.203 444.383L156.455 439.216L178.324 466.722L239.31 317.389Z" fill="white" stroke="#263238" stroke-miterlimit="10"/>
<path d="M301.688 491.863L343.545 439.216L406.609 449.014L339.68 285.13L234.759 327.979L301.688 491.863Z" fill="#004761" stroke="#263238" stroke-miterlimit="10"/>
<path d="M260.69 317.389L315.751 294.903L376.797 444.383L343.545 439.216L321.676 466.722L260.69 317.389Z" fill="white" stroke="#263238" stroke-miterlimit="10"/>
<path d="M339.68 285.13L329.162 289.425C309.785 306.088 285.094 316.738 257.977 318.496L250 321.755L242.022 318.497C214.905 316.739 190.214 306.089 170.837 289.426L160.319 285.131L139.625 335.804C141.171 338.038 142.979 340.001 145.155 341.584C159.292 351.872 184.065 342.417 201.049 347.932C216.194 352.85 229.645 372.329 245.933 375.257L250 365.3L254.067 375.257C270.355 372.329 283.805 352.85 298.95 347.932C315.934 342.417 340.707 351.873 354.845 341.584C357.021 340 358.83 338.037 360.375 335.804L339.68 285.13Z" fill="#263238" stroke="#263238" stroke-miterlimit="10"/>
<path d="M419.668 132.436C414.153 115.452 388.415 108.624 378.127 94.487C367.736 80.209 369.124 53.657 354.845 43.265C340.708 32.977 315.935 42.432 298.951 36.917C282.563 31.597 268.161 9.20996 250 9.20996C231.839 9.20996 217.438 31.597 201.05 36.918C184.066 42.433 159.293 32.977 145.155 43.266C130.876 53.658 132.264 80.209 121.873 94.488C111.584 108.625 85.8471 115.453 80.3321 132.437C75.0111 148.825 91.6461 169.403 91.6461 187.564C91.6461 205.725 75.0101 226.303 80.3311 242.69C85.8461 259.674 111.584 266.502 121.872 280.639C132.263 294.918 130.875 321.469 145.154 331.861C159.291 342.149 184.064 332.694 201.048 338.209C217.436 343.53 231.837 365.917 249.998 365.917C268.159 365.917 282.56 343.53 298.948 338.209C315.932 332.694 340.705 342.15 354.843 331.861C369.122 321.47 367.734 294.918 378.125 280.639C388.413 266.502 414.151 259.674 419.666 242.69C424.987 226.302 408.352 205.724 408.352 187.563C408.353 169.402 424.988 148.824 419.668 132.436ZM250 309.041C182.909 309.041 128.522 254.653 128.522 187.563C128.522 120.473 182.91 66.085 250 66.085C317.09 66.085 371.478 120.473 371.478 187.563C371.478 254.653 317.091 309.041 250 309.041Z" fill="#004761" stroke="#263238" stroke-miterlimit="10"/>
<path d="M171.308 304.319C133.838 278.983 109.157 236.101 109.157 187.563C109.157 153.213 121.518 121.696 142.025 97.2247M147.414 91.1557C173.121 63.8177 209.601 46.7207 250 46.7207C327.661 46.7207 390.842 109.902 390.842 187.563C390.842 265.224 327.661 328.405 250 328.405C223.388 328.405 198.477 320.986 177.225 308.108M257.033 319.622C326.696 315.954 382.244 258.123 382.244 187.562C382.244 144.933 361.969 106.951 330.557 82.7507M325.163 78.8067C303.805 64.0017 277.898 55.3187 250 55.3187C177.08 55.3187 117.756 114.643 117.756 187.563C117.756 259.921 176.17 318.892 248.317 319.797" stroke="#263238" stroke-miterlimit="10"/>
<path d="M248.31 80.4023C225.736 80.4023 207.436 98.7023 207.436 121.276C207.436 129.705 209.989 137.536 214.362 144.043L202.692 157.429L220.712 151.422C227.984 158.083 237.671 162.149 248.309 162.149C270.883 162.149 289.183 143.849 289.183 121.275C289.183 98.7013 270.884 80.4023 248.31 80.4023Z" fill="#263238" stroke="#263238" stroke-miterlimit="10"/>
<path d="M163.939 156.516C163.939 156.516 152.41 150.486 139.817 157.58C127.224 164.675 132.722 190.038 132.722 190.038C132.722 190.038 120.972 193.875 120.839 207.597C120.735 218.244 128.111 227.107 128.111 227.107C128.111 227.107 116.937 245.908 123.145 259.742C129.353 273.577 149.75 273.577 149.75 273.577C149.75 273.577 149.218 281.381 155.781 285.638C162.344 289.895 175.469 283.155 175.469 283.155L148.155 216.288L182.387 211.677C182.387 211.677 182.21 201.922 177.775 195.891C173.341 189.861 173.341 189.861 173.341 189.861L172.454 176.204C172.454 176.204 183.983 177.268 182.741 163.434C181.498 149.599 169.969 151.727 163.939 156.516Z" fill="#263238" stroke="#263238" stroke-miterlimit="10"/>
<path d="M330.841 235.268L347.691 238.283C347.691 238.283 353.721 223.739 354.786 217.886C355.851 212.033 358.511 213.275 360.284 215.403C362.058 217.531 361.526 230.834 360.816 239.702C360.106 248.57 360.284 251.231 357.446 252.472C354.608 253.714 349.819 251.23 347.868 251.23C345.917 251.23 331.196 251.762 331.196 251.762L330.841 235.268Z" fill="white" stroke="#263238" stroke-miterlimit="10"/>
<path d="M354.785 217.886C354.371 220.161 353.207 223.748 351.939 227.284L355.672 228.528C355.672 228.528 354.963 243.072 351.593 248.748C350.878 249.951 350.364 250.895 349.983 251.655C352.271 252.304 355.376 253.378 357.446 252.472C360.284 251.23 360.106 248.57 360.816 239.702C361.525 230.834 362.058 217.531 360.284 215.403C358.51 213.275 355.849 212.033 354.785 217.886Z" fill="#263238" stroke="#263238" stroke-miterlimit="10"/>
<path d="M186.235 294.574C186.235 294.574 200.122 306.036 219.632 304.263C239.142 302.489 277.631 254.955 277.631 254.955L332.082 273.401L332.969 235.445L289.514 223.384C289.514 223.384 274.083 187.556 271.423 188.798C268.762 190.04 241.98 216.467 233.644 229.06C225.308 241.653 218.213 253.714 218.213 253.714L213.262 255.46L186.235 294.574Z" fill="#004761" stroke="#263238" stroke-miterlimit="10"/>
<path d="M211.473 274.643C211.473 274.643 207.039 283.511 206.862 292.734" stroke="#263238" stroke-miterlimit="10"/>
<path d="M208.897 276.546C208.897 276.546 203.065 290.806 203.42 297.014" stroke="#263238" stroke-miterlimit="10"/>
<path d="M151.653 206.944C151.653 206.944 147.96 203.419 142.924 204.762C137.888 206.105 128.655 216.513 128.655 216.513L109.182 230.614L108.343 248.576L141.078 229.606C141.078 229.606 146.954 251.597 160.383 268.888C173.813 286.179 183.046 292.894 183.885 293.397C184.724 293.901 186.235 294.572 186.235 294.572C186.235 294.572 186.403 296.083 196.811 288.696C207.219 281.31 211.248 266.873 212.088 263.515C212.927 260.158 213.263 255.457 213.263 255.457L200.169 251.764C200.169 251.764 198.658 246.392 196.979 235.312C195.3 224.232 192.95 217.014 186.907 211.474C180.864 205.934 168.441 205.766 168.441 205.766L151.653 206.944Z" fill="white" stroke="#263238" stroke-miterlimit="10"/>
<path d="M161.558 162.29C161.558 162.29 162.565 165.647 158.201 172.194C153.836 178.741 148.297 182.77 148.297 182.77C148.297 182.77 148.297 184.784 147.122 184.952C145.947 185.12 144.94 181.259 141.918 181.427C138.896 181.595 137.553 187.303 139.232 190.66C140.911 194.017 148.129 194.017 148.129 194.017L151.654 206.943C151.654 206.943 156.187 210.972 159.712 213.154C163.237 215.336 171.127 220.708 171.127 220.708L168.441 205.767V203.585C168.441 203.585 175.492 197.374 176.331 190.995C177.17 184.616 175.156 174.879 172.47 170.515C169.784 166.151 161.558 162.29 161.558 162.29Z" fill="white" stroke="#263238" stroke-miterlimit="10"/>
<path d="M154.523 180.356C154.523 180.356 157.153 177.594 160.046 179.83" stroke="#263238" stroke-miterlimit="10"/>
<path d="M166.09 192.171L156.857 189.485C156.857 189.485 157.025 195.36 160.382 195.864C163.74 196.368 166.09 192.171 166.09 192.171Z" fill="#263238" stroke="#263238" stroke-miterlimit="10"/>
<path d="M157.557 193.066C158.058 194.399 158.916 195.645 160.383 195.865C161.219 195.99 161.993 195.824 162.683 195.504C161.184 193.149 158.89 192.943 157.557 193.066Z" fill="white" stroke="#263238" stroke-miterlimit="10"/>
<path d="M164.747 177.734C164.747 177.734 164.075 181.259 165.083 181.595C166.09 181.931 168.776 183.609 167.769 184.617C166.762 185.624 164.915 185.96 164.915 185.96" stroke="#263238" stroke-miterlimit="10"/>
<path d="M168.921 178.515C168.921 179.859 168.245 180.949 167.41 180.949C166.575 180.949 165.899 179.859 165.899 178.515C165.899 177.171 166.575 176.081 167.41 176.081C168.244 176.081 168.921 177.171 168.921 178.515Z" fill="#263238"/>
<path d="M165.083 173.705C165.083 173.705 167.097 171.019 170.287 173.537" stroke="#263238" stroke-miterlimit="10"/>
<path d="M159.879 173.537L157.193 173.705" stroke="#263238" stroke-miterlimit="10"/>
<path d="M168.44 203.587C168.44 203.587 166.659 205.261 163.926 204.76C162.068 204.42 158.928 202.838 158.928 202.838" stroke="#263238" stroke-miterlimit="10"/>
<path d="M199.833 253.445C199.833 253.445 195.468 261.335 186.403 266.539" stroke="#263238" stroke-miterlimit="10"/>
<path d="M185.223 275.647C183.709 276.762 182.175 277.691 180.695 278.29" stroke="#263238" stroke-miterlimit="10"/>
<path d="M197.986 262.511C197.986 262.511 193.226 268.887 187.637 273.713" stroke="#263238" stroke-miterlimit="10"/>
<path d="M180.863 200.229C180.863 200.229 178.177 199.725 177.506 200.565C176.835 201.404 176.331 206.608 176.331 208.119C176.331 209.63 177.17 209.798 178.178 208.623C179.185 207.448 180.528 205.601 180.528 205.601L182.878 203.587L180.863 200.229Z" fill="white" stroke="#263238" stroke-miterlimit="10"/>
<path d="M181.842 214.668C181.842 214.668 181.47 218.206 182.773 218.95C184.076 219.695 188.917 220.067 189.662 219.136C190.407 218.205 189.29 216.157 189.29 216.157L181.842 214.668Z" fill="#263238" stroke="#263238" stroke-miterlimit="10"/>
<path d="M182.189 199.97C180.758 199.786 179.454 200.783 179.253 202.212C179.117 203.181 179.036 204.13 179.184 204.426C179.52 205.097 180.527 205.601 180.527 205.601C180.527 205.601 179.184 211.477 180.023 213.491C180.862 215.505 183.045 216.345 185.059 216.513C187.074 216.681 190.431 216.681 190.431 216.681C190.431 216.681 193.788 226.082 196.978 240.855C198.413 247.5 205.204 249.417 207.722 249.92C210.24 250.424 214.269 242.701 212.926 236.826C211.583 230.95 199.664 220.039 196.307 211.981C193.848 206.08 188.417 201.237 185.563 200.566C184.394 200.29 183.196 200.099 182.189 199.97Z" fill="white" stroke="#263238" stroke-miterlimit="10"/>
<path d="M212.927 236.825C212.522 235.052 211.15 232.818 209.343 230.343C208.567 232.424 206.976 235.092 203.694 236.825C200.943 238.277 198.407 238.577 196.454 238.477C196.629 239.254 196.805 240.045 196.979 240.854C198.414 247.499 205.205 249.416 207.723 249.919C210.241 250.423 214.27 242.701 212.927 236.825Z" stroke="#263238" stroke-miterlimit="10"/>
<path d="M120.597 174.041L122.108 178.238C122.108 178.238 125.049 176.21 127.064 175.874C129.078 175.538 132.075 176.663 132.007 178.181C131.96 179.218 126.364 179.342 124.56 181.16C123.395 182.334 123.116 182.771 122.612 183.61C122.108 184.449 121.437 186.464 119.926 187.975C118.415 189.486 115.058 191.165 115.058 191.165C115.058 191.165 112.708 209.631 114.051 219.871C115.394 230.111 115.226 237.33 111.869 243.541C108.512 249.752 104.651 253.445 101.461 251.095C98.2709 248.745 94.9139 240.519 95.2499 234.14C95.5859 227.761 103.979 202.916 104.651 199.222C105.322 195.529 106.162 187.135 106.162 187.135L105.826 179.245C105.826 179.245 105.322 177.231 108.176 176.055C111.03 174.88 119.927 171.355 119.927 171.355L120.597 174.041Z" fill="white" stroke="#263238" stroke-miterlimit="10"/>
<path d="M113.378 183.778C113.378 183.778 115.057 186.968 113.882 188.646C111.719 191.736 109.517 190.493 109.517 190.493" stroke="#263238" stroke-miterlimit="10"/>
<path d="M122.108 178.238L118.006 179.224C118.006 179.224 115.623 180.415 114.889 182.435" stroke="#263238" stroke-miterlimit="10"/>
<path d="M96.9489 225.805C96.0069 229.398 95.3379 232.433 95.2479 234.141C94.9119 240.52 98.2699 248.746 101.459 251.096C104.649 253.446 108.51 249.753 111.867 243.542C114.197 239.231 114.989 234.433 114.807 228.479C106.053 230.402 100.111 227.891 96.9489 225.805Z" fill="white" stroke="#263238" stroke-miterlimit="10"/>
<path d="M116.67 169.667C116.67 169.667 117.089 176.937 118.642 177.315C120.194 177.693 121.541 176.804 121.959 176.222C122.377 175.64 121.635 168.772 120.613 168.22C119.591 167.667 117.073 167.46 116.67 169.667Z" fill="white" stroke="#263238" stroke-miterlimit="10"/>
<path d="M112.27 172.94C112.27 172.94 113.147 179.976 114.68 180.223C116.214 180.471 117.465 179.504 117.834 178.906C118.203 178.308 117.038 171.689 116.009 171.23C114.98 170.771 112.519 170.764 112.27 172.94Z" fill="white" stroke="#263238" stroke-miterlimit="10"/>
<path d="M108.094 175.426C108.094 175.426 109.441 181.554 110.816 181.624C112.191 181.694 113.217 180.719 113.494 180.155C113.771 179.591 112.203 173.858 111.257 173.553C110.311 173.248 108.136 173.48 108.094 175.426Z" fill="white" stroke="#263238" stroke-miterlimit="10"/>
<path d="M105.334 177.906C105.334 177.906 106.458 183.016 107.604 183.075C108.75 183.134 109.607 182.32 109.838 181.85C110.069 181.38 108.762 176.599 107.973 176.345C107.183 176.09 105.369 176.283 105.334 177.906Z" fill="white" stroke="#263238" stroke-miterlimit="10"/>
<path d="M177.51 182.388C172.432 182.388 168.315 186.505 168.315 191.583C168.315 196.226 171.76 200.055 176.231 200.679L176.227 200.741C187.408 201.017 207.701 211.232 207.701 211.232V171.89C185.889 181.83 177.51 182.388 177.51 182.388Z" fill="white" stroke="#263238" stroke-miterlimit="10"/>
<path d="M177.51 182.388C172.432 182.388 168.315 186.505 168.315 191.583C168.315 196.226 171.76 200.055 176.231 200.679L176.227 200.741C187.408 201.017 207.701 211.232 207.701 211.232V171.89C185.889 181.83 177.51 182.388 177.51 182.388Z" fill="white" stroke="#263238" stroke-miterlimit="10"/>
<path d="M180.868 201.288C177.811 199.231 175.798 195.746 175.798 191.783C175.798 187.207 178.484 183.269 182.359 181.428C179.005 182.286 177.51 182.388 177.51 182.388C172.432 182.388 168.315 186.505 168.315 191.583C168.315 196.226 171.76 200.055 176.231 200.679L176.227 200.741C177.646 200.777 179.214 200.974 180.868 201.288Z" fill="#004761" stroke="#263238" stroke-miterlimit="10"/>
<path d="M210.66 215.338C223.779 215.338 234.414 204.703 234.414 191.584C234.414 178.465 223.779 167.83 210.66 167.83C197.541 167.83 186.906 178.465 186.906 191.584C186.906 204.703 197.541 215.338 210.66 215.338Z" fill="#004761" stroke="#263238" stroke-miterlimit="10"/>
<path d="M210.66 211.434C221.623 211.434 230.51 202.547 230.51 191.584C230.51 180.622 221.623 171.734 210.66 171.734C199.697 171.734 190.81 180.622 190.81 191.584C190.81 202.547 199.697 211.434 210.66 211.434Z" fill="#BDBDBD" stroke="#263238" stroke-miterlimit="10"/>
<path d="M205.648 191.584C205.648 188.815 207.892 186.571 210.661 186.571L208.463 185.611C207.474 185.056 206.336 184.737 205.121 184.737C201.34 184.737 198.274 187.802 198.274 191.584C198.274 195.365 201.339 198.431 205.121 198.431C206.481 198.431 207.745 198.029 208.811 197.346L210.661 196.597C207.892 196.596 205.648 194.352 205.648 191.584Z" fill="#004761" stroke="#263238" stroke-miterlimit="10"/>
<path d="M215.673 191.584C215.673 194.353 213.429 196.597 210.66 196.597C207.892 196.597 205.647 194.353 205.647 191.584C205.647 188.815 207.891 186.571 210.66 186.571C213.429 186.571 215.673 188.815 215.673 191.584Z" fill="#004761" stroke="#263238" stroke-miterlimit="10"/>
<path d="M312.217 249.635L321.44 264.179C321.44 264.179 332.791 263.292 337.226 262.583C341.66 261.874 348.045 257.262 348.223 260.632C348.4 264.002 345.385 268.436 341.66 271.274C337.935 274.112 334.033 274.467 330.309 278.191C326.584 281.916 322.86 285.108 318.957 284.576C315.055 284.044 311.508 272.16 308.138 266.662C304.768 261.164 299.27 255.665 299.27 255.665L312.217 249.635Z" fill="white" stroke="#263238" stroke-miterlimit="10"/>
<path d="M341.66 271.273C345.385 268.435 348.4 264.001 348.223 260.631C348.046 257.261 341.66 261.872 337.226 262.582C336.12 262.759 334.583 262.947 332.9 263.13L334.92 268.258C334.92 268.258 325.874 273.047 321.44 274.466C318.962 275.259 315.711 276.494 313.323 277.43C315.126 281.177 316.997 284.308 318.956 284.576C322.858 285.108 326.583 281.916 330.308 278.191C334.033 274.466 337.935 274.111 341.66 271.273Z" fill="#263238" stroke="#263238" stroke-miterlimit="10"/>
<path d="M269.611 217.651C269.611 217.651 239.786 234.753 221.224 264.161" stroke="#263238" stroke-miterlimit="10"/>
<path d="M219.764 256.236L223.102 260.198" stroke="#263238" stroke-miterlimit="10"/>
<path d="M266.274 204.928L274.792 276.77L313.99 251.584C313.99 251.584 289.667 198.389 284.547 191.102C279.935 184.539 272.841 184.539 264.327 195.713" fill="#004761"/>
<path d="M266.274 204.928L274.792 276.77L313.99 251.584C313.99 251.584 289.667 198.389 284.547 191.102C279.935 184.539 272.841 184.539 264.327 195.713" stroke="#263238" stroke-miterlimit="10"/>
<path d="M277.827 239.236C277.084 242.074 276.34 244.596 275.626 246.558" stroke="#263238" stroke-miterlimit="10"/>
<path d="M285.185 203.366C285.185 203.366 282.23 220.901 278.965 234.659" stroke="#263238" stroke-miterlimit="10"/>
<path d="M280.582 210.446C280.582 210.446 277.396 223.191 275.272 227.794" stroke="#263238" stroke-miterlimit="10"/>
<path d="M141.077 229.607L147.747 226.488" stroke="#263238" stroke-miterlimit="10"/>
<path d="M172.249 252.649C173.657 252.656 175.176 252.523 176.805 252.206" stroke="#263238" stroke-miterlimit="10"/>
<path d="M158.769 246.862C158.769 246.862 162.076 251.087 168.69 252.317" stroke="#263238" stroke-miterlimit="10"/>
<path d="M226.534 145.209L228.484 129.077H225.411L225.529 123.345H229.311L230.138 116.727H225.588L225.706 110.876H231.084L232.739 97.3438H239.003L237.349 110.876H242.077L243.731 97.3438H249.936L248.281 110.876H251.235L251.117 116.727H247.276L246.508 123.345H250.999L250.822 129.077H245.681L243.672 145.209H237.467L239.476 129.077H234.748L232.739 145.209H226.534ZM235.457 123.344H240.303L241.13 116.726H236.343L235.457 123.344Z" fill="#004761"/>
<path d="M262.107 145.209V106.798C261.753 106.995 261.27 107.202 260.659 107.418C260.048 107.635 259.388 107.872 258.68 108.128C257.971 108.384 257.301 108.621 256.671 108.837C256.041 109.054 255.548 109.241 255.194 109.399V102.662C255.667 102.426 256.306 102.111 257.114 101.717C257.921 101.323 258.778 100.889 259.684 100.417C260.59 99.9437 261.447 99.4327 262.255 98.8797C263.062 98.3287 263.682 97.8158 264.116 97.3438H271.207V145.21H262.107V145.209Z" fill="#004761"/>
<path d="M408.448 67.6045C408.014 68.2985 407.565 69.0005 407.103 69.7095" stroke="#263238" stroke-linecap="round" stroke-linejoin="round"/>
<path d="M404.274 73.8743C387.955 96.9833 356.748 126.167 298.64 141.726C193.011 170.009 22.5296 120.342 42.2456 64.8633C53.8306 32.2623 114.279 45.6323 131.911 50.3023" stroke="#263238" stroke-linecap="round" stroke-linejoin="round" stroke-dasharray="5.04 5.04"/>
<path d="M134.346 50.9648C135.891 51.3978 136.743 51.6618 136.743 51.6618" stroke="#263238" stroke-linecap="round" stroke-linejoin="round"/>
<path d="M408.353 187.563C408.353 187.563 409.112 188.012 410.468 188.887" stroke="#263238" stroke-linecap="round" stroke-linejoin="round"/>
<path d="M414.591 191.663C432.62 204.251 482.964 244.965 474.11 301.901C453.52 434.31 122.341 306.857 11.8657 450.271" stroke="#263238" stroke-linecap="round" stroke-linejoin="round" stroke-dasharray="4.97 4.97"/>
<path d="M10.3568 452.265C9.86081 452.933 9.36981 453.606 8.88281 454.285" stroke="#263238" stroke-linecap="round" stroke-linejoin="round"/>
<path d="M432.411 19.4014L395.569 44.8344L409.768 51.7394L432.411 19.4014Z" fill="white" stroke="#263238" stroke-miterlimit="10"/>
<path d="M415.452 54.3674L432.085 62.1864L432.411 19.4014L415.452 54.3674Z" fill="white" stroke="#263238" stroke-miterlimit="10"/>
<path d="M409.768 51.7394L412.363 61.7914L432.411 19.4014L409.768 51.7394Z" fill="#BDBDBD" stroke="#263238" stroke-miterlimit="10"/>
</svg>
