<svg width="1197" height="1285" viewBox="0 0 1197 1285" fill="none" xmlns="http://www.w3.org/2000/svg">
<path d="M287.562 974.718C237.406 981.167 186.603 966.083 149.085 932.174C117.655 903.764 98.3028 865.416 146.627 825.66C262.279 730.511 253.117 653.63 199.768 599.221C146.416 544.812 10.8102 434.766 94.2878 337.153C177.768 239.54 401.539 346.201 435.252 233.137C468.969 120.072 509.594 31.0344 615.367 6.61915C721.139 -17.7961 846.481 30.5163 870.571 140.783C894.426 249.983 758.09 243.889 887.206 420.079C963.138 523.695 837.014 745.671 722.934 700.102C608.855 654.533 469.342 724.523 464.451 853.175C461.228 938.017 357.699 965.703 287.562 974.718Z" fill="#E5E5E5"/>
<path d="M994.825 333.59C1001.7 322.033 1003.71 308.114 999.898 295.22C996.03 282.145 986.217 268.961 962.431 268.537C914.857 267.684 918.396 361.393 942.938 375.33C960.724 385.432 983.588 352.487 994.825 333.59Z" fill="#E5E5E5"/>
<path d="M372.149 188.258C379.881 177.258 382.944 163.533 380.125 150.385C377.264 137.054 368.484 123.163 344.794 120.928C297.421 116.461 293.828 210.168 317.237 225.929C334.207 237.354 359.508 206.246 372.149 188.258Z" fill="#E5E5E5"/>
<path d="M0.709451 494.174C1.99256 502.448 6.54973 509.933 13.4954 514.611C20.5375 519.354 30.4801 521.791 42.0733 512.559C65.2566 494.093 30.6517 453.226 13.3388 456.271C0.787766 458.476 -1.39293 480.641 0.709451 494.174Z" fill="#E5E5E5"/>
<path d="M937.893 456.003C936.152 464.196 937.752 472.807 942.583 479.65C947.481 486.59 955.908 492.4 970.022 487.888C998.254 478.867 977.408 424.305 960.143 420.997C947.631 418.6 940.74 442.609 937.893 456.003Z" fill="#E5E5E5"/>
<path d="M903.678 532.171C903.633 531.957 903.576 531.692 903.516 531.399C903.582 531.646 903.633 531.905 903.678 532.171Z" fill="#FD8471"/>
<path d="M578.143 1120.11C729.761 1050.69 837.508 961.3 818.804 920.451C800.1 879.601 662.028 902.764 510.41 972.186C358.793 1041.61 251.045 1131 269.749 1171.85C288.453 1212.7 426.526 1189.54 578.143 1120.11Z" fill="#E5E5E5"/>
<path d="M751.095 170.76L712.674 190.576L708.03 192.971L703.328 144.902L703.409 144.948C703.425 144.954 703.431 144.963 703.446 144.969L751.095 170.76Z" fill="#18285D"/>
<path d="M712.684 161.971V921.718C712.684 928.977 708.798 935.693 702.491 939.302L356.955 1137.4C343.443 1145.15 326.594 1135.4 326.594 1119.82V369.308C326.594 361.314 329.799 353.775 335.307 348.263C337.094 346.477 339.121 344.905 341.356 343.598L682.184 144.471C689.296 140.312 697.371 141.047 703.419 144.95C703.434 144.956 703.44 144.965 703.455 144.971C708.886 148.495 712.684 154.573 712.684 161.971Z" fill="#001350"/>
<path d="M341.867 1139.47L395.637 1154.39V1104.82L341.867 1139.47Z" fill="#18285D"/>
<path d="M751.094 170.76L712.673 190.576V212.735L407.672 388.946L335.297 348.263C337.083 346.477 339.11 344.905 341.345 343.598L682.174 144.471C689.285 140.312 697.36 141.047 703.408 144.95C703.423 144.956 703.429 144.965 703.445 144.971L751.094 170.76Z" fill="#26246C"/>
<path d="M765.07 194.245V938.941C765.07 948.531 759.937 957.39 751.615 962.158L419.039 1152.82C401.202 1163.05 378.977 1150.17 378.977 1129.61V388.555C378.977 379.049 384.025 370.254 392.238 365.456L724.814 171.149C742.648 160.725 765.07 173.592 765.07 194.245Z" fill="#076E94"/>
<path d="M723.66 244.515V922.224C723.66 927.318 720.935 932.019 716.519 934.552L441.638 1092.14C438.177 1094.12 434.4 1094.47 431.006 1093.57C425.114 1092.02 420.367 1086.74 420.367 1079.82V405.112C420.367 400.064 423.048 395.392 427.406 392.841L572.838 307.873L702.287 232.244C703.14 231.753 704.007 231.347 704.887 231.046C713.799 227.976 723.66 234.531 723.66 244.515Z" fill="white"/>
<path d="M487.361 945.368C485.491 945.368 483.674 944.398 482.671 942.663C481.177 940.076 482.063 936.769 484.65 935.275L686.668 818.641C689.252 817.147 692.563 818.033 694.057 820.62C695.55 823.207 694.665 826.515 692.078 828.009L490.06 944.642C489.207 945.136 488.28 945.368 487.361 945.368Z" fill="#E5E5E5"/>
<path d="M487.361 984.353C485.491 984.353 483.674 983.383 482.671 981.648C481.177 979.061 482.063 975.753 484.65 974.259L687.243 857.291C689.828 855.797 693.138 856.683 694.632 859.27C696.126 861.858 695.24 865.165 692.653 866.659L490.06 983.627C489.207 984.121 488.28 984.353 487.361 984.353Z" fill="#E5E5E5"/>
<path d="M487.361 1023.34C485.491 1023.34 483.674 1022.37 482.671 1020.63C481.177 1018.05 482.063 1014.74 484.65 1013.25L687.243 896.278C689.828 894.784 693.138 895.67 694.632 898.257C696.126 900.844 695.24 904.152 692.653 905.646L490.06 1022.61C489.207 1023.1 488.28 1023.34 487.361 1023.34Z" fill="#E5E5E5"/>
<path d="M487.361 477.358C485.491 477.358 483.674 476.388 482.671 474.653C481.177 472.066 482.063 468.759 484.65 467.265L686.668 350.631C689.252 349.137 692.563 350.023 694.057 352.61C695.55 355.197 694.665 358.505 692.078 359.999L490.06 476.632C489.207 477.123 488.28 477.358 487.361 477.358Z" fill="#E5E5E5"/>
<path d="M490.75 355.315V391.811C490.75 397.118 496.509 400.425 501.093 397.751L645.386 313.523C647.497 312.291 648.796 310.029 648.796 307.583V263.256L490.75 355.315Z" fill="#076E94"/>
<path d="M513.27 371.664C511.192 371.664 509.168 370.592 508.045 368.667C506.361 365.784 507.334 362.083 510.216 360.399L598.679 308.737C601.564 307.06 605.263 308.026 606.95 310.909C608.633 313.794 607.66 317.496 604.778 319.18L516.316 370.842C515.355 371.396 514.304 371.664 513.27 371.664Z" fill="#586197"/>
<path d="M630.726 301.209C630.726 305.273 628.009 308.568 624.66 308.568C621.311 308.568 618.594 305.273 618.594 301.209C618.594 297.146 621.311 293.851 624.66 293.851C628.009 293.851 630.726 297.146 630.726 301.209Z" fill="#586197"/>
<path opacity="0.3" d="M765.058 421.763V742.857L666.192 799.2L501.204 893.223C494.264 897.177 485.641 892.165 485.641 884.177V589.041C485.641 585.321 487.626 581.884 490.845 580.026L765.058 421.763Z" fill="#18285D"/>
<path d="M882.449 338.426V633.596C882.449 637.69 880.268 641.467 876.741 643.509L704.762 741.519L541.337 834.65C539.036 835.958 536.575 836.376 534.247 836.075C528.855 835.385 524.211 830.843 524.211 824.693V531.963C524.211 527.869 526.395 524.086 529.943 522.044L865.266 328.508C872.904 324.098 882.449 329.607 882.449 338.426Z" fill="#076E94"/>
<path d="M790.669 576.995C801.846 542.718 785.271 506.572 753.648 496.26C722.025 485.949 687.328 505.376 676.151 539.653C664.975 573.93 681.55 610.076 713.173 620.387C744.796 630.699 779.492 611.271 790.669 576.995Z" fill="#6EB4FA"/>
<path d="M882.421 555.116V633.597C882.421 637.69 880.241 641.467 876.714 643.509L704.734 741.52L766.926 553.333L794.853 472.714L853.753 528.394L882.421 555.116Z" fill="#18285D"/>
<path d="M853.763 528.394L841.606 550.607L809.802 543.887L797.086 565.761L766.93 553.33L794.857 472.714L853.763 528.394Z" fill="white"/>
<path d="M818.719 676.566L704.742 741.52L541.317 834.651C539.016 835.958 536.555 836.377 534.227 836.075L612.28 610.73L646.02 513.322L717.197 580.604L818.719 676.566Z" fill="#076E94"/>
<path d="M717.198 580.603L702.509 607.443L664.082 599.326L648.714 625.753L612.281 610.733L646.025 513.324L717.198 580.603Z" fill="white"/>
<path d="M493.852 502.665V579.359L507.11 587.016L505.96 509.71L493.852 502.665Z" fill="#0041C6"/>
<path d="M574.645 470.059V548.031L507.119 587.015L505.969 509.709L574.645 470.059Z" fill="#35C2C1"/>
<path d="M545.019 552.974C542.348 554.336 540.152 552.902 540.113 549.772L539.649 512.24C539.61 509.107 541.745 505.466 544.414 504.105C547.086 502.743 549.281 504.177 549.321 507.309L549.784 544.842C549.827 547.971 547.691 551.613 545.019 552.974Z" fill="white"/>
<path d="M565.558 517.909C565.597 521.041 563.462 524.683 560.79 526.044L528.766 542.372C526.095 543.733 523.899 542.3 523.86 539.17C523.821 536.041 525.956 532.396 528.625 531.035L560.648 514.707C563.323 513.345 565.519 514.779 565.558 517.909Z" fill="white"/>
<path d="M493.852 502.665L562.525 463.015L574.636 470.06L505.96 509.71L493.852 502.665Z" fill="#076E94"/>
<path d="M1070.04 1023.56C1134.42 1023.56 1186.61 1012 1186.61 997.744C1186.61 983.485 1134.42 971.925 1070.04 971.925C1005.66 971.925 953.477 983.485 953.477 997.744C953.477 1012 1005.66 1023.56 1070.04 1023.56Z" fill="#E5E5E5"/>
<path d="M1135.98 948.134C1139.08 949.155 1141.31 951.957 1141.8 955.249C1142.22 958.128 1142.56 962.243 1142.39 967.7C1142.02 979.878 1141.87 984.848 1141.87 984.848C1141.87 984.848 1138.19 991.272 1127.63 993.016L1124.52 993.453C1124.52 993.453 1100.61 1007.83 1089.44 1008.93C1074.87 1010.37 1059.97 1003.67 1072.02 989.498C1083.41 976.11 1100.14 970.746 1105.09 960.02C1105.67 958.77 1109.4 956.101 1110.35 955.119C1118.43 946.764 1124.64 944.4 1135.98 948.134Z" fill="#076E94"/>
<path d="M1111.57 973.866C1111.04 973.866 1110.54 973.556 1110.32 973.044C1110.3 973.005 1108.46 968.827 1105.03 967.682C1101.74 966.583 1098.21 969.447 1098.17 969.478C1097.59 969.953 1096.74 969.872 1096.26 969.297C1095.78 968.722 1095.86 967.866 1096.43 967.387C1096.62 967.228 1101.15 963.526 1105.89 965.104C1110.49 966.637 1112.73 971.755 1112.82 971.972C1113.11 972.661 1112.79 973.459 1112.11 973.755C1111.93 973.83 1111.75 973.866 1111.57 973.866Z" fill="white"/>
<path d="M1106.78 977.26C1106.26 977.26 1105.76 976.95 1105.53 976.438C1105.51 976.399 1103.67 972.221 1100.24 971.076C1096.95 969.977 1093.42 972.841 1093.38 972.872C1092.8 973.348 1091.95 973.266 1091.47 972.691C1090.99 972.116 1091.07 971.26 1091.64 970.781C1091.83 970.622 1096.36 966.92 1101.1 968.498C1105.7 970.031 1107.94 975.149 1108.03 975.366C1108.33 976.055 1108.01 976.853 1107.32 977.149C1107.14 977.224 1106.96 977.26 1106.78 977.26Z" fill="white"/>
<path d="M1101.38 980.3C1100.85 980.3 1100.35 979.99 1100.13 979.478C1100.11 979.439 1098.27 975.261 1094.83 974.116C1091.54 973.017 1088.01 975.881 1087.98 975.912C1087.4 976.387 1086.54 976.306 1086.06 975.731C1085.58 975.156 1085.66 974.3 1086.24 973.821C1086.43 973.662 1090.95 969.957 1095.69 971.538C1100.29 973.071 1102.53 978.189 1102.62 978.406C1102.92 979.095 1102.6 979.893 1101.91 980.189C1101.74 980.264 1101.56 980.3 1101.38 980.3Z" fill="white"/>
<path d="M1134.45 924.442L1135.68 954.535C1135.68 954.535 1128.1 962.263 1116.3 957.146L1113.38 924.65C1113.38 924.65 1126.11 920.111 1134.45 924.442Z" fill="#FCB38F"/>
<path d="M1051.93 948.538C1055.03 949.559 1057.26 952.36 1057.75 955.652C1058.17 958.532 1058.51 962.646 1058.34 968.104C1057.97 980.281 1057.81 985.411 1057.81 985.411C1057.81 985.411 1054.14 991.673 1043.58 993.42L1039.53 994.073C1039.53 994.073 1016.56 1008.23 1005.39 1009.33C990.818 1010.78 975.927 1004.08 987.978 989.902C999.36 976.513 1016.1 971.149 1021.04 960.423C1021.62 959.173 1025.35 956.504 1026.31 955.523C1034.38 947.167 1040.59 944.803 1051.93 948.538Z" fill="#076E94"/>
<path d="M1026.99 974.544C1026.46 974.544 1025.96 974.233 1025.74 973.721C1025.72 973.682 1023.87 969.505 1020.44 968.36C1017.15 967.261 1013.62 970.125 1013.59 970.155C1013.01 970.631 1012.15 970.55 1011.67 969.974C1011.19 969.399 1011.27 968.544 1011.85 968.065C1012.04 967.905 1016.56 964.2 1021.3 965.782C1025.9 967.315 1028.14 972.432 1028.23 972.649C1028.53 973.339 1028.21 974.137 1027.52 974.432C1027.34 974.508 1027.16 974.544 1026.99 974.544Z" fill="white"/>
<path d="M1022.2 977.941C1021.67 977.941 1021.17 977.631 1020.95 977.119C1020.93 977.08 1019.08 972.902 1015.65 971.758C1012.36 970.658 1008.83 973.523 1008.8 973.553C1008.22 974.029 1007.36 973.947 1006.88 973.372C1006.41 972.797 1006.48 971.941 1007.06 971.462C1007.25 971.303 1011.77 967.601 1016.51 969.179C1021.11 970.712 1023.35 975.83 1023.44 976.047C1023.73 976.736 1023.42 977.535 1022.73 977.83C1022.56 977.905 1022.37 977.941 1022.2 977.941Z" fill="white"/>
<path d="M1016.79 980.981C1016.26 980.981 1015.76 980.671 1015.54 980.159C1015.52 980.12 1013.68 975.942 1010.25 974.797C1006.96 973.698 1003.43 976.563 1003.39 976.593C1002.81 977.069 1001.96 976.987 1001.48 976.412C1001 975.837 1001.08 974.981 1001.65 974.502C1001.84 974.343 1006.37 970.638 1011.1 972.219C1015.71 973.752 1017.94 978.87 1018.03 979.087C1018.33 979.776 1018.01 980.575 1017.32 980.87C1017.15 980.945 1016.97 980.981 1016.79 980.981Z" fill="white"/>
<path d="M1050.4 924.846L1051.63 954.939C1051.63 954.939 1044.05 962.668 1032.26 957.55L1029.34 925.054C1029.34 925.054 1042.07 920.518 1050.4 924.846Z" fill="#FCB38F"/>
<path d="M1139.4 617.001L1025.94 595.848C1018.78 636.064 1002.12 725.933 1007.6 764.309C1016.43 826.124 1027.3 947.035 1027.3 947.035C1037.01 949.158 1044.72 948.628 1054.47 944.996C1054.47 944.996 1066.02 809.82 1055.83 766.345C1049.69 740.14 1064.09 694.87 1071.75 656.16C1071.75 656.16 1074.14 649.982 1078.19 650.139C1083.87 650.359 1082.98 660.1 1083.73 662.795C1086.53 698.391 1089.5 732.96 1092.7 760.137C1099.04 813.91 1112.21 946.351 1112.21 946.351C1121.92 948.474 1127.59 947.944 1137.35 944.312C1137.35 944.312 1147.41 789.441 1141.42 758.191C1131.91 708.608 1138.68 653.115 1139.4 617.001Z" fill="#076E94"/>
<path d="M1047.73 942.683C1047.71 942.683 1047.69 942.683 1047.66 942.683C1046.81 942.646 1046.15 941.927 1046.18 941.074C1046.24 939.788 1051.62 812.356 1050.65 795.043C1050.25 787.745 1049 783.01 1047.69 777.995C1045.88 771.14 1044.02 764.053 1044.3 750.125C1044.79 726.445 1061.23 655.446 1061.93 652.434C1062.12 651.603 1062.95 651.088 1063.78 651.281C1064.62 651.473 1065.13 652.305 1064.94 653.136C1064.77 653.871 1047.87 726.831 1047.39 750.189C1047.12 763.682 1048.92 770.559 1050.67 777.209C1051.97 782.152 1053.32 787.263 1053.74 794.872C1054.71 812.335 1049.49 935.951 1049.27 941.204C1049.24 942.032 1048.55 942.683 1047.73 942.683Z" fill="#001350"/>
<path d="M1132.5 942.683C1132.49 942.683 1132.48 942.683 1132.48 942.683C1131.63 942.671 1130.94 941.969 1130.95 941.117C1131.03 935.611 1132.74 806.149 1133.76 796.396C1134.8 786.445 1131.57 750.704 1128.4 731.289C1126.15 717.533 1127.75 652.85 1127.82 650.1C1127.84 649.26 1128.53 648.594 1129.36 648.594C1129.38 648.594 1129.39 648.594 1129.4 648.594C1130.26 648.616 1130.93 649.326 1130.91 650.179C1130.89 650.847 1129.25 717.319 1131.45 730.789C1134.65 750.379 1137.9 786.559 1136.84 796.716C1135.83 806.327 1134.06 939.81 1134.04 941.156C1134.03 942.005 1133.34 942.683 1132.5 942.683Z" fill="#001350"/>
<path d="M1109.76 936.601C1109.76 936.601 1126.78 938.411 1139.66 935.017C1140.66 940.08 1140.11 945.396 1138.93 948.282C1138.93 948.282 1123.55 952.276 1111.19 949.255C1109.75 945.475 1108.66 941.023 1109.76 936.601Z" fill="#586197"/>
<path d="M1025.51 936.601C1025.51 936.601 1042.98 938.411 1056.21 935.017C1057.23 940.08 1056.67 945.396 1055.46 948.282C1055.46 948.282 1039.68 952.276 1026.98 949.255C1025.51 945.475 1024.39 941.023 1025.51 936.601Z" fill="#586197"/>
<path d="M1042.5 446.042C1036.65 475.228 1011.13 497.303 1011.13 497.303L989.258 477.839C990.625 476.96 992.179 475.198 993.863 472.746C994.42 471.951 994.984 471.078 995.562 470.135C1010.85 445.214 1034.78 373.043 1034.78 373.043C1034.78 373.043 1048.34 416.859 1042.5 446.042Z" fill="#076E94"/>
<path d="M1013.81 492.884C1013.81 492.884 1008.87 506.7 990.541 504.544C972.21 502.387 927.234 449.487 927.234 449.487C933.346 449.481 938.463 447.96 946.707 445.03C946.707 445.03 967.276 465.213 987.369 470.132C1007.46 475.05 1013.81 492.884 1013.81 492.884Z" fill="#076E94"/>
<path d="M1005.73 485.875C1005.52 485.969 1005.31 486.014 1005.09 486.014C1004.5 486.014 1003.94 485.683 1003.68 485.11C1001.05 479.379 996.718 475.111 993.875 472.746C994.432 471.951 994.996 471.078 995.574 470.135C998.658 472.647 1003.5 477.336 1006.48 483.818C1006.84 484.601 1006.51 485.52 1005.73 485.875Z" fill="#35C2C1"/>
<path d="M900.773 395.839L904.303 394.3L903.496 396.598L900.773 395.839Z" fill="#18285D"/>
<path d="M932.385 398.155L956.276 438.001C957.819 440.555 956.551 443.467 954.008 443.196L945.168 442.242L929.967 440.609C928.816 440.48 927.69 439.696 926.994 438.543L903.353 399.339C901.832 396.818 903.03 393.917 905.533 394.119L929.331 396.077C930.512 396.173 931.668 396.968 932.385 398.155Z" fill="#18285D"/>
<path d="M955.456 442.974L952.637 444.688L951.375 443.314L955.014 441.248L955.456 442.974Z" fill="#18285D"/>
<path d="M900.121 400.773L923.925 440.251C924.627 441.413 925.756 442.206 926.904 442.332L951.009 445.013C953.551 445.296 954.81 442.374 953.262 439.79L929.202 399.67C928.485 398.474 927.316 397.673 926.142 397.571L902.293 395.532C899.787 395.318 898.582 398.221 900.121 400.773Z" fill="#076E94"/>
<path d="M928.191 420.736C929.938 423.633 930.209 426.672 928.794 427.525C927.381 428.377 924.818 426.721 923.071 423.823C921.324 420.925 921.056 417.886 922.469 417.034C923.881 416.182 926.444 417.838 928.191 420.736Z" fill="#18285D"/>
<path d="M906.383 414.413C906.395 414.428 906.386 414.419 906.383 414.413C906.229 414.004 903.994 408.073 906.106 406.971C906.898 406.558 908.03 407.645 909.169 409.199C909.169 409.199 909.169 409.199 909.178 409.205C910.834 411.486 912.473 414.76 912.97 415.784L912.973 415.808C912.994 415.844 913.009 415.88 913.03 415.91C912.988 415.799 912.925 415.651 912.846 415.464C912.843 415.44 912.837 415.41 912.819 415.389C912.738 415.172 912.63 414.907 912.518 414.609C912.512 414.57 912.497 414.534 912.476 414.498C911.331 411.477 909.217 405.133 910.952 403.555C912.199 402.422 915.024 406.549 917.349 410.564C919.181 413.717 920.69 416.796 920.879 417.184C920.834 417.058 920.708 416.651 920.533 416.073C920.521 416.043 920.506 416.013 920.503 415.992C919.75 413.389 918.277 407.437 920.464 406.016C922.15 404.928 924.729 410.401 926.533 414.995V415.004C927.756 418.115 928.623 420.823 928.623 420.823C928.623 420.823 927.807 412.537 930.343 412.781C932.885 413.025 934.5 427.006 937.647 431.021C940.801 435.033 946.951 440.133 946.677 444.479C946.536 446.744 942.527 452.268 932.06 451.765C928.307 451.584 924.816 449.804 922.404 446.919C915.066 438.139 907.301 422.29 906.389 414.428" fill="#FCB38F"/>
<path d="M917.258 424.961C917.029 424.723 913.339 420.771 912.225 417.834C911.074 414.792 909.18 409.199 909.18 409.199C909.18 409.199 909.18 409.199 909.189 409.205C910.845 411.485 912.484 414.759 912.981 415.783L912.984 415.807C913.273 416.563 915.656 422.677 917.258 424.961Z" fill="#FD8471"/>
<path d="M923.699 424.892C923.488 424.569 920.151 419.34 918.79 416.253C917.871 414.145 917.494 411.868 917.344 410.563C919.175 413.717 920.684 416.795 920.874 417.184C920.874 417.184 923.052 423.337 923.699 424.892Z" fill="#FD8471"/>
<path d="M929.533 426.341C929.533 426.341 925.93 418.736 926.548 415.004C927.771 418.115 928.638 420.823 928.638 420.823" fill="#FD8471"/>
<path d="M1139.41 617.001C1114.52 636.118 1016.18 613.507 1023.43 588.062C1027.98 572.074 1043.92 503.124 1041.57 481.729C1039.19 460.374 1022.91 447.338 1033.42 423.312C1039.68 409.029 1039.16 394.972 1035.46 381.876C1032.44 371.18 1036.25 366.43 1047.01 364.894C1051.77 364.213 1059.94 363.936 1067.1 365.002C1082.29 367.21 1099.56 370.066 1114.31 373.3C1125.39 375.737 1135.09 378.403 1141.28 381.144C1167.37 392.677 1131.62 447.57 1126.1 479.624C1120.57 511.714 1152.66 606.824 1139.41 617.001Z" fill="#004761"/>
<path d="M1085.49 482.958C1057.77 482.958 1042.92 475.022 1042.18 474.618C1041.43 474.208 1041.16 473.269 1041.57 472.519C1041.98 471.772 1042.92 471.498 1043.67 471.904C1043.88 472.019 1064.84 483.157 1102.87 478.856C1103.72 478.76 1104.49 479.371 1104.58 480.217C1104.68 481.067 1104.06 481.832 1103.22 481.925C1096.82 482.654 1090.91 482.958 1085.49 482.958Z" fill="#076E94"/>
<path d="M1078.93 426.921C1078.78 426.921 1078.63 426.899 1078.48 426.854C1061.15 421.583 1057.24 409.701 1057.08 409.198C1056.82 408.385 1057.28 407.517 1058.09 407.261C1058.9 407.008 1059.77 407.454 1060.03 408.267C1060.17 408.719 1063.71 419.132 1079.38 423.9C1080.2 424.15 1080.66 425.011 1080.41 425.827C1080.21 426.493 1079.6 426.921 1078.93 426.921Z" fill="#076E94"/>
<path d="M1098.61 589.606C1060.53 589.606 1038.99 568.652 1038.1 567.76C1037.49 567.161 1037.49 566.182 1038.09 565.577C1038.69 564.971 1039.67 564.968 1040.27 565.568C1040.49 565.779 1061.87 586.516 1098.61 586.516C1099.46 586.498 1100.17 587.203 1100.17 588.061C1100.17 588.914 1099.48 589.606 1098.62 589.606H1098.61Z" fill="#076E94"/>
<path d="M1094.21 582.475C1094.2 582.475 1094.18 582.475 1094.17 582.475C1079.97 582.128 1062.09 570.665 1061.34 570.177C1060.62 569.713 1060.42 568.758 1060.88 568.041C1061.34 567.324 1062.3 567.12 1063.02 567.583C1063.2 567.698 1080.93 579.062 1094.25 579.388C1095.1 579.409 1095.78 580.116 1095.76 580.972C1095.74 581.806 1095.05 582.475 1094.21 582.475Z" fill="#076E94"/>
<path d="M1114.3 373.08C1110.09 395.246 1074.52 415.098 1065.76 401.477C1058.33 389.947 1064.34 371.812 1067.1 364.945C1082.29 367.11 1099.56 369.909 1114.3 373.08Z" fill="white"/>
<path d="M1155.04 589.477C1149.11 585.236 1145.37 578.297 1142.97 569.742C1142.97 569.742 1163.04 546.399 1167.81 504.819C1167.89 504.123 1167.97 503.421 1168.04 502.716C1168.04 502.716 1168.03 502.337 1168 501.626C1167.71 495.12 1165.32 460.81 1146.9 434.6C1146.9 434.6 1120.73 413.76 1144.98 383.378C1144.98 383.378 1185.46 422.013 1195.82 484.512C1204.17 534.866 1155.04 589.477 1155.04 589.477Z" fill="#004761"/>
<path d="M1183.72 502.042C1183.68 502.9 1182.95 503.557 1182.1 503.503C1176.37 503.208 1170.59 504.229 1167.81 504.816C1167.9 504.12 1167.98 503.419 1168.04 502.714C1168.04 502.714 1168.04 502.334 1168.01 501.623C1171.16 500.991 1176.67 500.123 1182.26 500.419C1183.11 500.467 1183.77 501.193 1183.72 502.042Z" fill="#076E94"/>
<path d="M1138.63 571.002L1142.96 569.74C1145.74 578.616 1149.36 585.95 1155.04 589.474C1155.04 589.474 1150.8 596.275 1146.83 596.275C1142.88 596.275 1138.63 571.002 1138.63 571.002Z" fill="#FD8471"/>
<path d="M1132.79 566.315C1132.79 566.315 1115.46 574.364 1118.89 578.481C1120.07 579.903 1133.97 575.448 1133.97 575.448L1134.44 577.776C1134.44 577.776 1119.77 583.752 1119.19 588.469C1118.61 593.186 1135.91 585.107 1135.91 585.107L1136.5 588.056C1136.5 588.056 1124.8 592.625 1123.92 596.719C1123.04 600.815 1139.96 594.345 1139.96 594.345L1140.42 596.637C1140.42 596.637 1133.88 600.209 1132.48 604.24C1131.08 608.27 1142.58 603.017 1146.83 599.607C1151.09 596.198 1148.95 592.884 1147.79 591.411C1147.79 591.411 1148.24 584.674 1144.26 582.237C1144.26 582.237 1145.67 576.502 1141.37 574.213C1141.37 574.213 1141.54 563.081 1132.79 566.315Z" fill="#FCB38F"/>
<path d="M1138.63 568.878C1138.63 568.878 1139.52 555.499 1132.48 554.279L1134.97 567.592L1138.63 568.878Z" fill="#FCB38F"/>
<path d="M1049.03 314.055C1049.03 314.055 1049.03 337.735 1054.78 353.656C1060.04 368.219 1052.1 380.909 1052.1 380.909C1052.1 380.909 1056.02 368.885 1049.44 355.967C1042.86 343.048 1037.02 315.028 1038.19 291.365L1049.03 314.055Z" fill="#18285D"/>
<path d="M1102.49 345.129C1102.49 345.129 1122.9 337.62 1126.97 316.693C1131.04 295.762 1129.84 265.025 1101.28 255.986C1072.71 246.947 1046.31 255.618 1039.95 281.979C1039.95 281.979 1061.85 334.478 1102.49 345.129Z" fill="#18285D"/>
<path d="M1070.45 355.129L1072 369.614L1072.87 378.084C1089.38 385.198 1106.31 374.542 1106.12 373.042C1104.32 366.617 1102.94 355.599 1102.49 345.126C1102.2 344.925 1101.89 344.756 1101.55 344.623C1092.84 340.84 1070.45 355.129 1070.45 355.129Z" fill="#FCB38F"/>
<path d="M1070.45 355.129L1072 369.613C1088.5 363.773 1097.53 351.614 1101.55 344.626C1092.84 340.84 1070.45 355.129 1070.45 355.129Z" fill="#FD8471"/>
<path d="M1044.91 309.317C1044.91 309.317 1038.48 301.678 1034.4 308.527C1030.33 315.377 1037.72 334.506 1048.35 329.133L1044.91 309.317Z" fill="#FD8471"/>
<path d="M1041.82 325.991C1041.69 326.747 1040.97 327.259 1040.22 327.133C1039.46 327.006 1038.95 326.289 1039.07 325.53C1039.2 324.771 1039.92 324.262 1040.68 324.389C1041.43 324.518 1041.94 325.235 1041.82 325.991Z" fill="white"/>
<path d="M1045.63 323.245C1045.23 323.269 1044.85 323.022 1044.71 322.621C1042.68 316.703 1036.31 314.615 1036.24 314.594C1035.76 314.441 1035.49 313.923 1035.64 313.438C1035.8 312.953 1036.32 312.685 1036.8 312.835C1037.1 312.929 1044.12 315.206 1046.45 322.022C1046.62 322.504 1046.36 323.028 1045.88 323.194C1045.8 323.227 1045.71 323.242 1045.63 323.245Z" fill="#F25339"/>
<path d="M1039.15 320.572C1038.98 320.581 1038.81 320.545 1038.65 320.454C1038.2 320.204 1038.05 319.641 1038.3 319.198C1038.34 319.126 1039.35 317.379 1041.6 316.217C1042.05 315.982 1042.61 316.159 1042.84 316.611C1043.08 317.063 1042.9 317.62 1042.45 317.852C1040.71 318.753 1039.92 320.09 1039.91 320.105C1039.74 320.388 1039.46 320.554 1039.15 320.572Z" fill="#F25339"/>
<path d="M1039.72 318.889C1039.88 321.037 1040.1 323.049 1040.39 324.868C1043.11 341.277 1057.53 374.599 1086.4 357.623C1093.32 353.548 1098.48 349.521 1102.49 345.13C1105.53 341.822 1107.92 338.307 1109.97 334.416C1110.76 332.913 1111.12 331.223 1111.63 329.609C1111.73 329.326 1111.81 329.033 1111.9 328.75C1111.95 328.588 1112 328.434 1112.05 328.268C1113.48 323.561 1114.57 318.802 1115.42 314.272C1116.47 308.615 1117.14 303.344 1117.55 299.004C1118.32 291.028 1114.8 283.254 1108.32 278.537C1090.78 265.757 1070.54 267.441 1056.93 270.962C1047.48 273.402 1040.67 281.619 1040.03 291.338C1039.72 295.95 1039.47 301.209 1039.39 306.428C1039.35 310.733 1039.43 315.028 1039.72 318.889Z" fill="#FCB38F"/>
<path d="M1051.83 303.152C1051.8 302.303 1051.08 301.646 1050.23 301.673C1047.98 301.748 1045.14 302.05 1042.57 302.929C1037.19 304.767 1036.46 306.297 1036.46 306.297C1036.46 306.297 1037.13 306.932 1044.17 305.501C1045.98 305.134 1048.37 304.986 1050.45 304.788C1051.26 304.709 1051.86 304.001 1051.83 303.182C1051.83 303.173 1051.83 303.164 1051.83 303.152Z" fill="#18285D"/>
<path d="M1071.43 302.067C1071.27 301.064 1071.96 300.127 1072.96 299.965C1075.63 299.534 1079.03 299.236 1082.25 299.679C1088.98 300.6 1090.19 302.227 1090.19 302.227C1090.19 302.227 1089.55 303.124 1080.96 303.064C1078.75 303.049 1075.91 303.426 1073.43 303.667C1072.45 303.763 1071.59 303.067 1071.43 302.1C1071.44 302.091 1071.43 302.079 1071.43 302.067Z" fill="#18285D"/>
<path d="M1066.77 331.546C1066.68 331.53 1066.6 331.509 1066.52 331.479L1060.49 329.136L1062.94 314.483C1063.06 313.811 1063.69 313.356 1064.37 313.467C1065.04 313.579 1065.49 314.217 1065.38 314.889L1063.26 327.561L1067.42 329.175C1068.05 329.422 1068.37 330.139 1068.12 330.774C1067.9 331.332 1067.33 331.642 1066.77 331.546Z" fill="#FD8471"/>
<path d="M1100.14 328.28C1100.14 328.28 1103.14 334.087 1109.96 334.416C1110.57 332.831 1111.11 331.223 1111.63 329.609C1108.33 330.202 1103.29 330.578 1100.14 328.28Z" fill="#FD8471"/>
<path d="M1102.48 345.13C1105.52 341.823 1107.91 338.308 1109.96 334.416C1110.75 332.913 1111.11 331.223 1111.62 329.609C1111.72 329.326 1111.8 329.034 1111.89 328.75C1111.19 328.781 1110.05 329.007 1108.18 329.609C1108.18 329.609 1100.44 338.461 1102.48 345.13Z" fill="#18285D"/>
<path d="M1057.12 338.701C1058.55 342.864 1062.42 350.355 1071.94 349.081C1081.48 347.806 1083.19 340.258 1083.45 335.18L1057.12 338.701Z" fill="white"/>
<path d="M1075.98 314.789C1076.11 317.103 1077.41 318.91 1078.88 318.828C1080.35 318.744 1081.44 316.801 1081.31 314.488C1081.18 312.175 1079.88 310.368 1078.41 310.452C1076.93 310.53 1075.85 312.476 1075.98 314.789Z" fill="#18285D"/>
<path d="M1046.03 316.507C1046.16 318.82 1047.46 320.627 1048.93 320.546C1050.4 320.462 1051.48 318.519 1051.35 316.206C1051.23 313.893 1049.92 312.085 1048.45 312.167C1046.98 312.251 1045.89 314.194 1046.03 316.507Z" fill="#18285D"/>
<path d="M1108.74 311.006C1108.74 311.006 1115.33 304.251 1118.7 310.985C1122.07 317.72 1115.36 334.425 1103.65 329.569L1108.74 311.006Z" fill="#FCB38F"/>
<path d="M1111.22 328.356C1111.09 329.112 1110.37 329.624 1109.61 329.498C1108.85 329.371 1108.35 328.654 1108.47 327.895C1108.6 327.136 1109.32 326.627 1110.07 326.754C1110.83 326.883 1111.34 327.6 1111.22 328.356Z" fill="white"/>
<path d="M1107.12 324.084C1107.5 324.132 1107.88 323.928 1108.03 323.56C1110.35 318.121 1116.5 316.593 1116.56 316.578C1117.03 316.467 1117.32 315.997 1117.21 315.53C1117.1 315.063 1116.63 314.774 1116.16 314.883C1115.87 314.952 1109.1 316.615 1106.43 322.879C1106.24 323.322 1106.45 323.834 1106.89 324.021C1106.97 324.054 1107.04 324.075 1107.12 324.084Z" fill="#FD8471"/>
<path d="M1113.39 322.009C1113.55 322.03 1113.72 322.006 1113.87 321.931C1114.31 321.726 1114.49 321.205 1114.29 320.771C1114.25 320.699 1113.42 318.985 1111.38 317.735C1110.97 317.482 1110.44 317.612 1110.18 318.024C1109.93 318.434 1110.06 318.97 1110.47 319.223C1112.05 320.19 1112.7 321.506 1112.71 321.521C1112.85 321.795 1113.11 321.973 1113.39 322.009Z" fill="#FD8471"/>
<path d="M1116.42 308.244C1113.55 307.759 1111.51 307.943 1109.93 308.675C1108.83 309.184 1107.94 309.943 1107.14 310.928C1106.97 311.127 1106.81 311.337 1106.65 311.56C1106.29 311.416 1105.95 311.214 1105.63 310.97C1104.9 310.425 1104.26 309.645 1103.69 308.738C1102.18 306.335 1100.39 304.554 1099.84 302.314C1098.99 298.898 1095.27 295.781 1095.27 295.781C1066.18 304.835 1043.15 279.757 1043.15 279.757C1052.15 252.052 1101.08 265.251 1113.71 271.956C1126.32 278.654 1130.72 310.639 1116.42 308.244Z" fill="#18285D"/>
<path d="M1099.84 302.311C1099.84 302.311 1106.61 312.272 1101.28 326.296C1095.95 340.32 1092.07 362.506 1105.27 369.614C1105.27 369.614 1098.96 354.292 1101.54 344.627C1104.61 333.136 1110.06 321.735 1108.1 313.434C1106.15 305.136 1102.68 300.474 1099.84 302.311Z" fill="#18285D"/>
<path d="M1049.72 281.708C1049.72 281.708 1052.21 300.964 1038.97 307.744C1038.97 307.744 1033.27 268.684 1049.72 281.708Z" fill="#18285D"/>
<path d="M1069.71 315.92C1069.32 308.926 1074.7 302.923 1081.7 302.54C1088.69 302.158 1094.69 307.537 1095.08 314.531C1095.46 321.525 1090.08 327.528 1083.09 327.91C1076.1 328.293 1070.09 322.913 1069.71 315.92ZM1071.69 315.811C1072.01 321.715 1077.07 326.257 1082.98 325.931C1088.88 325.609 1093.43 320.54 1093.1 314.636C1092.78 308.733 1087.71 304.191 1081.81 304.516C1075.9 304.838 1071.36 309.905 1071.69 315.811Z" fill="white"/>
<path d="M1035.05 317.816C1034.67 310.822 1040.04 304.819 1047.04 304.437C1054.03 304.054 1060.03 309.431 1060.42 316.427C1060.8 323.421 1055.42 329.424 1048.43 329.807C1041.43 330.189 1035.43 324.81 1035.05 317.816ZM1037.03 317.708C1037.35 323.611 1042.41 328.153 1048.32 327.828C1054.22 327.506 1058.77 322.436 1058.44 316.533C1058.12 310.629 1053.05 306.087 1047.15 306.413C1041.24 306.738 1036.7 311.804 1037.03 317.708Z" fill="white"/>
<path d="M1103.7 308.736C1101.46 308.938 1094.77 310.327 1093.52 310.592C1093.7 311.305 1094.52 313.95 1094.39 313.248C1094.3 312.76 1098.62 311.824 1098.63 311.887C1100.08 311.577 1102.66 311.107 1105.63 310.971C1106.13 310.947 1106.63 310.932 1107.14 310.926C1107.94 309.944 1108.83 309.182 1109.93 308.673C1107.75 308.498 1105.6 308.565 1103.7 308.736Z" fill="white"/>
<path d="M1059.57 313.617C1059.59 313.587 1061.76 310.28 1064.85 310.111C1067.91 309.943 1070.21 313 1070.23 313.03L1071.82 311.858C1071.71 311.699 1068.88 307.907 1064.74 308.135C1060.63 308.361 1058.01 312.379 1057.9 312.551L1059.57 313.617Z" fill="white"/>
<path d="M1129.62 294.709C1129.62 294.709 1140.11 266.158 1122.61 255.01C1103.47 242.824 1065.09 234.161 1047.26 265.947L1129.62 294.709Z" fill="#004761"/>
<path d="M1128.09 309.437C1128.09 309.437 1115.32 294.205 1085.96 284.624C1056.59 275.043 1038.73 280.293 1038.73 280.293C1038.73 280.293 1037.38 270.525 1043.45 263.971C1049.53 257.419 1083.66 261.736 1102.05 270.23C1124.55 280.618 1133.39 293.585 1133.39 293.585C1133.39 293.585 1134.8 304.855 1128.09 309.437Z" fill="#076E94"/>
<path d="M130.178 1254.15C197.534 1254.15 252.137 1239.98 252.137 1222.5C252.137 1205.02 197.534 1190.84 130.178 1190.84C62.8216 1190.84 8.21875 1205.02 8.21875 1222.5C8.21875 1239.98 62.8216 1254.15 130.178 1254.15Z" fill="#E5E5E5"/>
<path d="M141.095 1239.55C141.095 1239.55 148.875 1245.47 157.281 1242.19L160.817 1240.67L163.709 1239.25C163.709 1239.25 198.193 1224.32 209.024 1215.61C219.855 1206.91 228.934 1190.64 213.958 1184C198.982 1177.36 175.91 1193.25 167.956 1189.17C167.956 1189.17 143.001 1188.91 143.128 1202.26C141.432 1216.34 139.905 1222.75 141.095 1239.55Z" fill="#076E94"/>
<path d="M196.137 1196.26C195.598 1196.06 195.197 1195.56 195.158 1194.96C195.155 1194.91 194.796 1189.95 191.7 1187.52C188.733 1185.19 184.068 1186.83 184.02 1186.85C183.252 1187.12 182.405 1186.73 182.128 1185.96C181.851 1185.2 182.242 1184.35 183.008 1184.07C183.261 1183.98 189.254 1181.84 193.528 1185.2C197.679 1188.46 198.095 1194.52 198.113 1194.77C198.164 1195.59 197.543 1196.29 196.727 1196.34C196.519 1196.35 196.321 1196.32 196.137 1196.26Z" fill="white"/>
<path d="M191.376 1197.7C190.837 1197.51 190.436 1197.01 190.4 1196.4C190.397 1196.35 190.039 1191.4 186.942 1188.97C183.975 1186.64 179.307 1188.28 179.262 1188.29C178.494 1188.57 177.647 1188.17 177.37 1187.41C177.093 1186.64 177.485 1185.8 178.25 1185.52C178.503 1185.42 184.494 1183.29 188.771 1186.64C192.921 1189.9 193.337 1195.96 193.355 1196.22C193.406 1197.04 192.786 1197.74 191.969 1197.79C191.759 1197.8 191.56 1197.77 191.376 1197.7Z" fill="white"/>
<path d="M186.043 1199.11C185.504 1198.92 185.103 1198.42 185.064 1197.81C185.061 1197.76 184.703 1192.81 181.606 1190.38C178.64 1188.05 173.974 1189.69 173.926 1189.7C173.158 1189.98 172.311 1189.58 172.034 1188.82C171.757 1188.05 172.149 1187.21 172.914 1186.93C173.167 1186.83 179.158 1184.7 183.435 1188.05C187.585 1191.31 188.001 1197.38 188.019 1197.63C188.07 1198.45 187.45 1199.15 186.633 1199.2C186.423 1199.21 186.224 1199.18 186.043 1199.11Z" fill="white"/>
<path d="M149.694 1160.74L147.398 1200C147.398 1200 154.338 1204.54 168.47 1200.53L177.359 1164.5C177.359 1164.5 159.781 1157.11 149.694 1160.74Z" fill="#FCB38F"/>
<path d="M83.9609 820.73L166.74 816.314C166.74 816.314 180.366 961.652 182.839 995.992C185.312 1030.33 174.658 1177.34 174.658 1177.34C157.854 1186.59 143.132 1177.08 143.132 1177.08C143.132 1177.08 142.954 1121.79 142.168 1106.03C141.379 1090.27 134.999 1030.72 136.596 1015.84C136.596 1015.84 116.707 902.693 114.424 896.798C112.141 890.904 83.9639 888.777 83.9639 888.777L83.9609 820.73Z" fill="#076E94"/>
<path d="M171.432 1178.42C171.411 1178.42 171.393 1178.42 171.372 1178.42C170.538 1178.39 169.887 1177.69 169.92 1176.85C169.975 1175.4 175.484 1031.54 175.52 1012.65C175.556 993.802 164.439 877.34 164.327 876.163C164.249 875.331 164.857 874.593 165.689 874.512C166.532 874.449 167.255 875.042 167.336 875.873C167.794 880.674 178.577 993.658 178.544 1012.65C178.508 1031.6 172.999 1175.52 172.941 1176.97C172.908 1177.78 172.24 1178.42 171.432 1178.42Z" fill="#001350"/>
<path d="M141.381 1168.14C141.381 1168.14 161.308 1171.79 176.82 1168.92C177.543 1174.99 176.428 1181.22 174.775 1184.52C174.775 1184.52 156.275 1187.87 141.944 1183.21C140.585 1178.62 139.7 1173.27 141.381 1168.14Z" fill="#586197"/>
<path d="M28.7196 1238.65C28.7196 1238.65 36.4394 1244.65 44.879 1241.46L48.4301 1239.97L51.3367 1238.58C51.3367 1238.58 85.9687 1223.99 96.8842 1215.4C107.803 1206.8 117.04 1190.62 102.134 1183.83C87.2277 1177.05 63.9962 1192.71 56.0836 1188.54C56.0836 1188.54 31.1322 1188.03 31.1262 1201.39C29.2889 1215.45 27.6955 1221.84 28.7196 1238.65Z" fill="#076E94"/>
<path d="M84.1786 1195.91C83.6395 1195.71 83.2449 1195.21 83.2148 1194.6C83.2118 1194.55 82.9015 1189.6 79.8293 1187.13C76.8866 1184.77 72.2029 1186.37 72.1547 1186.38C71.3837 1186.65 70.5403 1186.24 70.2722 1185.48C70.0012 1184.71 70.4017 1183.87 71.1698 1183.6C71.4228 1183.51 77.4378 1181.43 81.6787 1184.83C85.7961 1188.13 86.1545 1194.19 86.1666 1194.45C86.2087 1195.27 85.5822 1195.96 84.766 1196C84.5612 1196.01 84.3624 1195.98 84.1786 1195.91Z" fill="white"/>
<path d="M79.3971 1197.31C78.8579 1197.11 78.4634 1196.61 78.4332 1196C78.4302 1195.95 78.12 1190.99 75.0477 1188.53C72.105 1186.17 67.4214 1187.76 67.3732 1187.78C66.6021 1188.05 65.7618 1187.64 65.4907 1186.87C65.2196 1186.1 65.6232 1185.26 66.3882 1184.99C66.6412 1184.9 72.6532 1182.82 76.8971 1186.22C81.0145 1189.52 81.373 1195.59 81.385 1195.85C81.4272 1196.66 80.8007 1197.35 79.9844 1197.4C79.7796 1197.41 79.5808 1197.38 79.3971 1197.31Z" fill="white"/>
<path d="M74.0615 1198.67C73.5223 1198.47 73.1277 1197.96 73.0976 1197.35C73.0946 1197.31 72.7844 1192.35 69.7121 1189.89C66.7694 1187.53 62.0857 1189.12 62.0376 1189.13C61.2665 1189.4 60.4261 1189 60.1551 1188.23C59.884 1187.46 60.2846 1186.62 61.0526 1186.35C61.3056 1186.26 67.3206 1184.18 71.5615 1187.58C75.6789 1190.88 76.0373 1196.94 76.0494 1197.2C76.0915 1198.02 75.465 1198.71 74.6488 1198.75C74.441 1198.77 74.2422 1198.73 74.0615 1198.67Z" fill="white"/>
<path d="M38.1008 1159.94L35.4141 1199.17C35.4141 1199.17 42.3085 1203.78 56.48 1199.91L65.7268 1163.97C65.7268 1163.97 48.2211 1156.41 38.1008 1159.94Z" fill="#FCB38F"/>
<path d="M98.3191 839.336C98.3191 839.336 91.9698 964.882 90.8554 999.294C89.7409 1033.71 63.8377 1178.81 63.8377 1178.81C46.1633 1186.26 32.5099 1175.27 32.5099 1175.27C32.5099 1175.27 38.0911 1120.25 38.9465 1104.5C39.8019 1088.75 35.4255 1037.64 42.7929 1014.22C42.7929 1014.22 34.793 899.618 33.1364 893.519C33.1364 893.519 32.9497 882.462 32.3955 866.582C31.9979 855.218 32.3955 842.26 32.3955 842.26L98.3191 839.336Z" fill="#076E94"/>
<path d="M60.677 1179.56C60.6047 1179.56 60.5324 1179.55 60.4601 1179.54C59.6348 1179.42 59.0595 1178.66 59.18 1177.83C59.3878 1176.39 79.8423 1033.89 81.8453 1015.1C83.8423 996.36 84.9115 892.341 84.9236 891.293C84.9326 890.458 85.6224 889.754 86.4507 889.796C87.285 889.805 87.9567 890.485 87.9476 891.323C87.9055 895.612 86.8663 996.535 84.8513 1015.42C82.8453 1034.27 62.3818 1176.82 62.1739 1178.26C62.0625 1179.01 61.4179 1179.56 60.677 1179.56Z" fill="#001350"/>
<path d="M31.674 1166.19C31.674 1166.19 51.1135 1171.89 66.8391 1170.66C66.9295 1176.76 65.1705 1182.85 63.1826 1185.95C63.1826 1185.95 44.4329 1187.36 30.668 1181.23C29.7915 1176.53 29.4663 1171.11 31.674 1166.19Z" fill="#586197"/>
<path d="M166.098 729.581C167.537 786.713 177.143 856.437 177.143 856.437C177.143 856.437 66.3823 891.256 29.8438 853.281C29.8438 853.281 40.943 613.011 45.4971 585.671C45.5122 585.562 45.5363 585.463 45.5513 585.354C47.0362 576.46 46.7591 577.659 47.8856 572.075C49.0302 566.436 55.4427 559.816 61.9697 556.924C65.0028 555.578 68.072 555.045 70.6413 555.804C104.053 565.602 161.697 581.297 172.67 591.613C180.474 598.945 177.474 625.459 173.311 655.591C173.119 656.992 172.926 658.392 172.724 659.805C169.384 683.796 165.595 709.596 166.098 729.581Z" fill="#004761"/>
<path d="M111.748 807.788C111.67 807.788 111.592 807.782 111.513 807.77C70.556 801.55 44.4992 761.072 44.2402 760.662C43.7824 759.939 43.9992 758.985 44.7191 758.527C45.442 758.069 46.3968 758.286 46.8546 759.006C47.1046 759.403 72.4355 798.704 111.98 804.71C112.823 804.839 113.405 805.625 113.278 806.472C113.158 807.24 112.498 807.788 111.748 807.788Z" fill="#076E94"/>
<path d="M173.322 655.588C173.129 656.989 172.936 658.39 172.734 659.802C163.608 648.896 157.723 636.059 157.406 635.363C157.051 634.583 157.391 633.67 158.171 633.312C158.952 632.956 159.864 633.306 160.22 634.077C160.289 634.233 165.409 645.402 173.322 655.588Z" fill="#076E94"/>
<path d="M94.7567 737.666C94.3651 737.666 93.9766 737.518 93.6754 737.223C68.3294 712.395 59.5223 654.793 59.1578 652.351C59.0313 651.504 59.6157 650.718 60.462 650.592C61.3084 650.468 62.0945 651.05 62.218 651.896C62.3054 652.483 71.239 710.913 95.841 735.012C96.4524 735.608 96.4615 736.59 95.8651 737.199C95.5579 737.509 95.1573 737.666 94.7567 737.666Z" fill="#076E94"/>
<path d="M171.725 514.221C171.725 514.221 173.613 527.278 173.613 530.69C173.613 532.389 166.891 533.26 166.891 533.26C166.891 533.26 169.222 517.404 171.725 514.221Z" fill="#FCB38F"/>
<path d="M113.504 573.963C117.693 575.505 125.88 576.797 133.85 575.502L134.762 569.415L135 567.9L136.952 555.321L137.193 553.752C137.193 553.752 113.582 537.069 103.917 540.74C103.543 540.867 103.191 541.032 102.871 541.234C102.197 548.674 100.194 558.43 98.8594 564.776C99.2991 567.571 105.019 570.836 113.504 573.963Z" fill="#FCB38F"/>
<path d="M136.947 555.324L134.996 567.902C125.023 562.673 116.93 552.863 116.93 552.863L136.947 555.324Z" fill="#FD8471"/>
<path d="M172.582 502.365C172.41 507.049 172.103 511.708 171.585 515.895C171.313 518.22 170.967 520.401 170.548 522.356C170.13 524.311 169.542 526.488 168.795 528.777C168.795 528.777 168.786 528.793 168.78 528.817C168.711 529.217 168.07 532.488 166.973 536.705C166.949 536.804 166.919 536.907 166.895 537.006C165.946 540.645 164.678 544.934 163.148 548.642C163.049 548.889 162.946 549.13 162.847 549.368C161.386 552.774 159.717 555.602 157.895 556.87C148.546 563.385 116.941 552.861 116.941 552.861L113.836 551.602C110.197 550.66 109.694 549.06 107.902 547.283C105.691 545.289 103.736 543.274 102.013 541.196C98.893 537.449 96.4563 533.5 94.4322 529.163C93.6521 527.494 93.3509 525.633 92.872 523.856C92.7877 523.546 92.7033 523.223 92.634 522.913C92.5889 522.735 92.5346 522.564 92.4864 522.389C91.1732 517.187 90.2395 511.965 89.5437 506.998C88.6853 500.793 88.2305 495.028 88.0136 490.293C87.5889 481.585 91.8148 473.318 99.0948 468.519C118.814 455.529 140.736 458.396 155.341 462.926C165.485 466.056 172.464 475.345 172.666 485.947C172.759 490.959 172.759 496.694 172.582 502.365Z" fill="#FCB38F"/>
<path d="M169.585 511.608C169.338 513.994 168.332 515.843 167.344 515.738C166.353 515.635 165.754 513.617 166.001 511.235C166.248 508.849 167.251 507 168.242 507.105C169.233 507.208 169.835 509.226 169.585 511.608Z" fill="#18285D"/>
<path d="M172.812 496.085C168.999 495.549 164.396 495.498 160.261 497.082C159.872 497.23 159.652 497.645 159.725 498.052L160.216 500.799C160.3 501.269 160.743 501.588 161.213 501.51C162.993 501.211 167.402 500.651 172.604 501.281C173.122 501.344 173.586 500.955 173.595 500.434C173.616 499.26 173.61 498.085 173.556 496.913C173.541 496.492 173.227 496.142 172.812 496.085Z" fill="#18285D"/>
<path d="M140.232 513.729C139.973 519.223 149.681 516.488 150.078 508.124C150.473 499.759 150.063 491.522 159.644 491.495C169.226 491.464 168.65 478.266 178.096 472.724C187.539 467.182 189.243 456.459 184.755 450.073C180.268 443.688 169.689 456.36 169.689 456.36C169.689 456.36 173.876 443.784 169.304 439.176C164.732 434.571 154.578 451.691 154.578 451.691C154.578 451.691 159.099 435.598 155.388 434.526C151.681 433.456 148.322 434.565 141.322 448.019C141.322 448.019 107.901 450.965 97.7177 461.302C97.7177 461.302 88.6485 456.522 83.5884 462.272C78.5282 468.022 87.6937 469.052 87.6937 469.052C87.6937 469.052 75.968 471.492 77.6879 477.362C79.4077 483.233 85.7299 480.338 85.7299 480.338C85.7299 480.338 83.3896 506.612 89.3202 516.425C89.3202 516.425 83.0673 535.394 88.6395 539.069C93.3894 542.202 97.6363 536.813 97.6363 536.813C97.6363 536.813 90.4226 551.307 100.29 551.31C104.537 551.31 111.663 539.864 111.663 539.864C111.663 539.864 105.139 555.433 113.356 554.722C123.332 553.858 130.892 527.298 128.847 525.889C128.847 525.889 118.705 524.136 119.958 510.832C121.281 496.793 130.202 497.214 134.816 499.428C141.03 502.404 140.232 513.729 140.232 513.729Z" fill="#18285D"/>
<path d="M133.119 520.054C132.751 519.861 132.543 519.443 132.631 519.018C133.965 512.723 129.447 507.518 129.402 507.467C129.055 507.076 129.092 506.476 129.483 506.13C129.875 505.783 130.474 505.817 130.821 506.208C131.034 506.449 136.025 512.163 134.486 519.413C134.378 519.925 133.875 520.253 133.363 520.145C133.275 520.124 133.194 520.093 133.119 520.054Z" fill="#FD8471"/>
<path d="M128.827 514.283C128.67 514.202 128.538 514.075 128.444 513.91C128.185 513.455 128.345 512.877 128.8 512.618C128.875 512.576 130.685 511.567 133.282 511.729C133.803 511.759 134.203 512.211 134.17 512.735C134.137 513.256 133.688 513.654 133.167 513.624C131.158 513.5 129.752 514.262 129.737 514.271C129.444 514.431 129.101 514.428 128.827 514.283Z" fill="#FD8471"/>
<path d="M166.955 536.705C166.931 536.804 166.901 536.907 166.877 537.006C165.928 540.645 164.66 544.934 163.13 548.642C157.699 545.497 156.639 539.618 156.555 535.25V534.802L157.256 534.934L166.955 536.705Z" fill="white"/>
<path d="M139.284 603.024C139.284 603.024 133.784 621.963 97.134 620.888C64.4718 619.93 50.2853 599.873 45.5625 585.356C47.0444 576.461 46.7673 577.663 47.8968 572.073C49.0384 566.443 55.4509 559.817 61.9779 556.925C72.4597 566.356 114.134 602.388 139.284 603.024Z" fill="#076E94"/>
<path d="M99.2795 553.515C99.2795 553.515 88.5658 540.449 70.7257 545.97C58.9397 549.618 46.3646 577.229 56.3916 591.243C66.4185 605.258 99.3789 622.189 126.258 612.201C148.773 603.837 146.589 578.762 146.589 578.762C145.408 573.521 141.532 569.804 133.667 568.343C133.667 568.343 106.352 565.632 99.2795 553.515Z" fill="#004761"/>
<path d="M172.674 591.613C172.674 591.613 236.778 662.241 254.462 663.157L244.332 693.367C244.332 693.367 189.306 679.033 170.951 652.344C153.111 626.405 172.674 591.613 172.674 591.613Z" fill="#004761"/>
<path d="M299.12 608.866C299.12 608.866 283.846 677.106 267.705 689.064C251.563 701.022 239.428 690.642 239.428 690.642C239.428 690.642 236.675 675.368 246.612 661.191C247.199 660.357 247.826 659.519 248.515 658.694C249.576 657.396 250.765 656.11 252.082 654.857C268.401 639.342 276.94 608.529 276.94 608.529C283.457 609.987 292.09 611.077 299.12 608.866Z" fill="#004761"/>
<path d="M261.664 526.913L264.694 528.681L265.062 528.895L265.646 525.019L265.637 525.022H265.634L261.664 526.913Z" fill="#18285D"/>
<path d="M264.815 526.362L261.619 587.948C261.589 588.536 261.875 589.099 262.372 589.415L289.55 606.927C290.613 607.614 292.019 606.891 292.086 605.629L295.242 544.792C295.275 544.145 295.05 543.518 294.625 543.048C294.486 542.898 294.33 542.759 294.155 542.645L267.363 525.07C266.803 524.702 266.146 524.729 265.64 525.019L265.637 525.022C265.18 525.287 264.845 525.763 264.815 526.362Z" fill="#001350"/>
<path d="M290.773 607.159L286.352 608.141L286.559 604.123L290.773 607.159Z" fill="#18285D"/>
<path d="M261.664 526.913L264.694 528.681L264.601 530.476L288.582 546.042L294.621 543.048C294.483 542.898 294.326 542.759 294.151 542.645L267.36 525.07C266.799 524.702 266.143 524.729 265.637 525.019L265.634 525.022L261.664 526.913Z" fill="#26246C"/>
<path d="M260.424 528.76L257.292 589.126C257.253 589.903 257.629 590.644 258.286 591.066L284.442 607.921C285.846 608.825 287.701 607.876 287.788 606.207L290.906 546.136C290.945 545.365 290.574 544.633 289.927 544.208L263.786 527.058C262.382 526.136 260.512 527.085 260.424 528.76Z" fill="#076E94"/>
<path d="M263.577 533.006L260.728 587.942C260.707 588.354 260.909 588.746 261.255 588.972L282.875 602.902C283.146 603.077 283.451 603.122 283.731 603.062C284.216 602.96 284.622 602.553 284.652 601.993L287.49 547.301C287.511 546.891 287.312 546.503 286.972 546.277L275.541 538.777L265.367 532.102C265.3 532.06 265.231 532.021 265.162 531.994C264.448 531.708 263.62 532.196 263.577 533.006Z" fill="white"/>
<path d="M281.972 542.968L281.818 545.925C281.797 546.356 281.315 546.6 280.954 546.362L269.61 538.928C269.445 538.82 269.348 538.63 269.36 538.431L269.547 534.838L281.972 542.968Z" fill="#076E94"/>
<path d="M276.014 607.532C276.014 607.532 271.315 602.132 270.577 595.572C269.839 589.011 266.544 577.084 270.577 575.593C274.61 574.102 274.056 584.837 278.806 588.117C283.556 591.397 293.932 578.743 293.785 572.867C293.664 568.003 294.45 560.024 294.45 560.024C294.45 560.024 306.815 563.961 309.197 577.677C311.583 591.394 299.122 608.863 299.122 608.863C299.122 608.863 282.966 616.038 276.014 607.532Z" fill="#FCB38F"/>
<path d="M254.45 668.163C254.164 668.38 253.839 668.479 253.507 668.479C253.044 668.479 252.586 668.272 252.279 667.877C250.429 665.455 248.489 663.205 246.625 661.187C247.212 660.353 247.839 659.516 248.529 658.69C250.571 660.871 252.706 663.332 254.739 666.001C255.254 666.678 255.122 667.645 254.45 668.163Z" fill="#076E94"/>
<path d="M245.456 596.793C245.456 596.793 231.673 619.082 213.721 633.561C204.339 624.696 195.089 615.323 187.758 607.691C200.721 601.627 218.26 592.091 231.519 579.908L245.456 596.793Z" fill="#35C2C1"/>
<path d="M268.198 588.685C265.297 590.441 262.134 592.119 259.9 593.558C254.354 597.146 247.201 596.938 247.201 596.938C236.21 596.947 231.523 579.908 231.523 579.908C231.523 579.908 237.138 559.194 249.258 552.342C252.638 550.432 256.375 549.604 259.354 549.411L258.095 573.7C258.086 573.724 258.083 573.896 258.083 573.92C258.014 574.64 257.972 575.411 257.972 576.086C257.981 579.317 258.378 581.872 260.454 582.477C265.999 584.07 273.95 576.839 275.357 580.899C276.188 583.323 272.493 586.085 268.198 588.685Z" fill="#FCB38F"/>
<path d="M893.971 1046.2C920.438 1046.2 941.895 1040.1 941.895 1032.59C941.895 1025.07 920.438 1018.98 893.971 1018.98C867.503 1018.98 846.047 1025.07 846.047 1032.59C846.047 1040.1 867.503 1046.2 893.971 1046.2Z" fill="#E5E5E5"/>
<path d="M941.451 958.222L921.361 1025.43C920.533 1028.77 918.253 1031.56 915.168 1033.11C899.952 1040.71 884.741 1040.71 869.536 1033.11C866.452 1031.56 864.175 1028.78 863.347 1025.43L842.938 958.876L892.352 951.279L941.451 958.222Z" fill="#076E94"/>
<path d="M892.362 980.913C919.723 980.913 941.903 969.179 941.903 954.705C941.903 940.231 919.723 928.498 892.362 928.498C865.001 928.498 842.82 940.231 842.82 954.705C842.82 969.179 865.001 980.913 892.362 980.913Z" fill="#26246C"/>
<path d="M926.611 954.706C926.611 963.154 911.274 970.004 892.352 970.004C873.431 970.004 858.094 963.154 858.094 954.706C858.094 946.257 873.431 939.408 892.352 939.408C911.271 939.408 926.611 946.257 926.611 954.706Z" fill="#001350"/>
<path d="M958.086 848.527C937.312 843.054 905.569 886.177 895.927 928.219V866.964C900.774 858.37 910.012 845.44 926.788 831.78C952.875 810.534 976.89 783.269 956.077 777.787C936.574 772.649 907.403 810.344 895.93 849.765V771.101C899.292 765.884 904.798 759.038 913.599 751.869C930.038 738.481 945.174 721.294 932.056 717.839C920.674 714.843 904.066 734.99 895.927 757.715V732.219C897.274 724.33 899.174 713.068 904.391 701.554C916.484 674.87 923.014 647.38 907.072 649.425C891.114 651.473 880.768 698.993 889.494 735.478V748.598C883.599 721.9 863.377 694.249 850.175 697.725C837.058 701.18 852.193 718.364 868.633 731.755C881.148 741.948 887.003 751.487 889.494 756.619V818.585C880.039 776.333 848.073 732.719 827.188 738.222C806.375 743.704 830.389 770.968 856.476 792.215C876.19 808.269 885.497 823.314 889.497 831.497V905.806C879.392 864.325 848.241 822.464 827.754 827.862C806.941 833.344 824.79 853.271 854.106 877.37C874.03 893.749 884.702 911.032 889.497 920.43V955.432C891.822 956.083 894 956.08 895.927 955.432V941.505C900.006 933.258 909.325 918.384 928.797 902.526C954.884 881.274 978.899 854.009 958.086 848.527Z" fill="#076E94"/>
<path d="M862.784 296.268L852.242 319.336V302.355L862.784 296.268Z" fill="#35C2C1"/>
<path d="M852.241 319.337L847.016 316.319V305.367L852.232 302.355L852.241 319.337Z" fill="#0041C6"/>
<path d="M800.047 240.522V317.217L813.309 324.874L812.158 247.568L800.047 240.522Z" fill="#0041C6"/>
<path d="M880.838 207.917V285.888L813.315 324.872L812.164 247.566L880.838 207.917Z" fill="#35C2C1"/>
<path d="M864.308 250.757C864.357 254.061 863.369 258.009 861.33 261.808L847.414 287.726L832.996 279.38C830.884 278.157 829.8 275.494 829.752 272.187C829.703 268.883 830.691 264.934 832.728 261.142C836.529 254.061 842.438 251.251 846.959 256.428C851.248 245.787 857.134 241.287 861.07 243.567C863.176 244.79 864.26 247.452 864.308 250.757Z" fill="white"/>
<path d="M800.047 240.522L868.723 200.872L880.832 207.917L812.158 247.567L800.047 240.522Z" fill="#076E94"/>
<path d="M620.006 109.243C619.891 118.008 616.774 127.731 611.84 136.336C606.91 144.942 600.163 152.429 592.796 156.721L399.648 269.226C384.91 277.81 373.04 270.494 373.269 252.964C373.317 249.244 373.91 245.341 374.95 241.443C376.359 236.142 378.6 230.817 381.434 225.871C385.097 219.482 389.76 213.709 394.934 209.401C397.055 158.008 432.494 97.2254 475.346 72.265C503.381 55.9339 527.794 58.9007 541.543 76.8252C545.504 73.0421 549.712 69.8012 554.076 67.259C555.429 66.4729 556.754 65.7771 558.058 65.1627C578.97 55.3526 595.076 66.7952 594.744 92.3309C594.744 92.343 594.744 92.343 594.744 92.358C608.958 84.7738 620.229 92.1653 620.006 109.243Z" fill="#35C2C1"/>
<path d="M625.132 89.9311L611.238 88.6118L607.5 94.3135C607.5 94.3135 609.861 96.4099 614.75 94.5153C619.641 92.6178 625.132 89.9311 625.132 89.9311Z" fill="#35C2C1"/>
<path d="M573.969 61.7109L594.462 62.2772L584.981 69.3072C584.981 69.3072 576.433 67.1596 573.969 61.7109Z" fill="#35C2C1"/>
<path d="M386.641 272.788L405.869 273.264L399.174 267.436C399.174 267.436 387.198 270.035 386.641 272.788Z" fill="#35C2C1"/>
<path d="M639.592 109.783C639.477 118.548 636.36 128.271 631.426 136.876C626.496 145.482 619.749 152.969 612.381 157.261L419.234 269.766C404.496 278.35 392.626 271.031 392.855 253.504C392.903 249.784 393.496 245.881 394.536 241.983C395.945 236.682 398.186 231.357 401.02 226.411C404.683 220.023 409.346 214.249 414.52 209.941C416.641 158.548 452.08 97.7655 494.931 72.805C522.967 56.474 547.379 59.4408 561.129 77.3652C565.09 73.5821 569.298 70.3412 573.662 67.7991C575.015 67.0129 576.34 66.3172 577.644 65.7027C598.556 55.8926 614.662 67.3352 614.33 92.871C614.33 92.883 614.33 92.883 614.33 92.8981C628.544 85.3169 639.815 92.7083 639.592 109.783Z" fill="#076E94"/>
<path d="M550.84 109.033L537.53 100.828L526.94 94.2979L525.678 96.4876L519.319 107.581L516.015 113.355L502.278 137.315C499.266 142.58 499.19 148.3 502.112 150.11C505.04 151.905 509.856 149.101 512.868 143.845L518.883 133.351L518.307 177.408C518.241 182.405 521.597 184.471 525.795 182.025C529.994 179.58 533.455 173.544 533.518 168.55L534.093 124.505L539.916 128.096C541.379 128.987 543.313 128.74 545.265 127.605C547.208 126.472 549.162 124.457 550.674 121.831C553.686 116.563 553.762 110.843 550.84 109.033Z" fill="white"/>
<path d="M276.125 483.966L286.667 507.032V490.051L276.125 483.966Z" fill="#35C2C1"/>
<path d="M286.664 507.032L291.893 504.014V493.063L286.673 490.051L286.664 507.032Z" fill="#0041C6"/>
<path d="M335.645 426.447V503.142L322.383 510.798L323.536 433.495L335.645 426.447Z" fill="#0041C6"/>
<path d="M254.852 393.841V471.813L322.375 510.797L323.528 433.494L254.852 393.841Z" fill="#35C2C1"/>
<path d="M335.636 426.447L266.96 386.797L254.852 393.842L323.528 433.495L335.636 426.447Z" fill="#076E94"/>
<path d="M266.838 438.944C266.658 450.839 276.537 466.519 288.862 473.896C301.184 481.272 311.359 477.595 311.539 465.7C311.72 453.806 301.841 438.125 289.516 430.749C277.191 423.372 267.019 427.05 266.838 438.944ZM279.26 454.417C278.564 451.634 278.203 448.854 278.182 446.143L288.284 452.191L288.169 459.751L279.26 454.417ZM284.356 468.953C278.697 464.321 273.923 457.956 271.118 451.294L277.926 455.369C278.823 458.483 280.094 461.577 281.706 464.568C282.522 466.083 283.41 467.552 284.356 468.953ZM288.142 461.486L287.989 471.604C287.317 470.811 285.197 468.188 283.094 464.263C281.748 461.748 280.654 459.146 279.844 456.52L288.142 461.486ZM280.642 436.49C283.103 432.818 286.657 431.782 287.79 431.535C288.058 431.674 288.323 431.818 288.591 431.966L288.453 441.161L280.642 436.49ZM272.001 431.318C274.929 428.692 279.492 428.273 284.648 430.146C283.621 430.574 282.654 431.134 281.769 431.818C280.546 432.761 279.507 433.939 278.679 435.315L272.001 431.318ZM278.218 444.414C278.362 441.896 278.923 439.667 279.883 437.785L288.422 442.896L288.308 450.453L278.218 444.414ZM268.703 438.722C268.926 436.183 269.682 434.071 270.953 432.442L277.977 436.646C277.079 438.583 276.558 440.833 276.42 443.342L268.703 438.722ZM276.383 445.068C276.401 447.758 276.739 450.523 277.389 453.297L270.248 449.023C269.194 445.981 268.652 443.092 268.637 440.432L276.383 445.068ZM301.772 460.266L309.726 465.028C309.633 467.622 309.012 469.818 307.886 471.555L300.537 467.158C301.26 465.2 301.675 462.884 301.772 460.266ZM290.248 442.24L290.386 433.044C290.576 433.164 290.766 433.288 290.955 433.414C291.721 434.508 293.576 437.288 295.416 441.026C296.362 442.95 297.181 444.887 297.85 446.791L290.248 442.24ZM298.555 448.962C299.44 451.959 299.922 454.812 299.988 457.447L290.106 451.532L290.221 443.975L298.555 448.962ZM299.811 447.962C299.037 445.625 298.052 443.237 296.88 440.86C296.013 439.104 295.061 437.375 294.046 435.71C299.284 440.011 303.847 445.911 306.696 452.083L299.811 447.962ZM299.976 459.191C299.874 461.836 299.434 464.137 298.672 466.037L289.968 460.827L290.082 453.267L299.976 459.191ZM301.79 458.526C301.729 455.899 301.284 453.068 300.461 450.104L307.693 454.432C308.895 457.544 309.573 460.513 309.714 463.269L301.79 458.526ZM306.964 472.751C303.997 475.974 298.904 476.531 293.16 474.281C294.157 474.028 295.094 473.634 295.958 473.101C297.63 472.07 298.97 470.54 299.946 468.549L306.964 472.751ZM298.028 467.402C295.452 472.134 291.163 472.549 289.79 472.555L289.94 462.562L298.028 467.402Z" fill="white"/>
<path d="M756.996 1236.68C827.041 1210.33 874.131 1163.2 862.175 1131.43C850.22 1099.65 783.746 1095.25 713.701 1121.6C643.657 1147.95 596.567 1195.08 608.522 1226.85C620.478 1258.63 686.952 1263.03 756.996 1236.68Z" fill="#E5E5E5"/>
<path d="M834.279 1029.42L712.221 1099.9L630.852 1052.91L752.163 982.015L834.279 1029.42Z" fill="#586197"/>
<mask id="mask0_2440_458" style="mask-type:luminance" maskUnits="userSpaceOnUse" x="649" y="925" width="166" height="163">
<path d="M652.012 1052.86L712.228 1087.63L813.037 1029.42L814.856 955.913L757.119 925.034L649.211 981.753L652.012 1052.86Z" fill="white"/>
</mask>
<g mask="url(#mask0_2440_458)">
<path d="M813.032 1029.42L752.199 994.305L652.008 1052.86L712.224 1087.63L813.032 1029.42Z" fill="#001350"/>
</g>
<mask id="mask1_2440_458" style="mask-type:luminance" maskUnits="userSpaceOnUse" x="649" y="925" width="166" height="163">
<path d="M652.012 1052.86L712.228 1087.63L813.037 1029.42L814.856 955.913L757.119 925.034L649.211 981.753L652.012 1052.86Z" fill="white"/>
</mask>
<g mask="url(#mask1_2440_458)">
<path d="M764.912 946.001V1025C764.912 1026.1 764.328 1027.1 763.385 1027.65L717.356 1053.88L673.616 1078.81C673.001 1079.16 672.341 1079.27 671.718 1079.19C670.275 1079.01 669.031 1077.79 669.031 1076.15V997.801C669.031 996.705 669.616 995.693 670.564 995.144L760.313 943.344C762.358 942.163 764.912 943.639 764.912 946.001Z" fill="#35C2C1"/>
<path d="M741.253 1005.1C740.699 1014.68 732.988 1022.33 724.028 1022.2C715.067 1022.06 708.251 1014.19 708.805 1004.61C709.359 995.027 717.07 987.373 726.031 987.509C734.991 987.644 741.807 995.521 741.253 1005.1Z" fill="#6EB4FA"/>
<path d="M764.916 1003.99V1025C764.916 1026.1 764.331 1027.11 763.389 1027.65L717.359 1053.89L734.004 1003.52L741.479 981.94L757.244 996.844L764.916 1003.99Z" fill="#18285D"/>
<path d="M757.241 996.844L753.985 1002.79L745.473 1000.99L742.069 1006.84L734 1003.52L741.473 981.94L757.241 996.844Z" fill="white"/>
<path d="M747.854 1036.5L717.349 1053.88L673.609 1078.81C672.994 1079.16 672.334 1079.27 671.711 1079.19L692.602 1018.88L701.632 992.81L720.683 1010.82L747.854 1036.5Z" fill="#076E94"/>
<path d="M720.69 1010.82L716.76 1018L706.474 1015.83L702.362 1022.9L692.609 1018.88L701.642 992.81L720.69 1010.82Z" fill="white"/>
</g>
<mask id="mask2_2440_458" style="mask-type:luminance" maskUnits="userSpaceOnUse" x="649" y="925" width="166" height="163">
<path d="M652.012 1052.86L712.228 1087.63L813.037 1029.42L814.856 955.913L757.119 925.034L649.211 981.753L652.012 1052.86Z" fill="white"/>
</mask>
<g mask="url(#mask2_2440_458)">
<path d="M800.279 964.467V1043.47C800.279 1044.57 799.695 1045.57 798.752 1046.12L752.723 1072.35L708.983 1097.28C708.368 1097.63 707.709 1097.74 707.085 1097.66C705.642 1097.48 704.398 1096.26 704.398 1094.62V1016.27C704.398 1015.17 704.983 1014.16 705.932 1013.61L795.68 961.816C797.725 960.633 800.279 962.109 800.279 964.467Z" fill="#076E94"/>
<path d="M776.62 1023.57C776.066 1033.15 768.355 1040.8 759.395 1040.67C750.434 1040.53 743.621 1032.66 744.172 1023.08C744.726 1013.5 752.437 1005.84 761.398 1005.98C770.358 1006.11 777.174 1013.99 776.62 1023.57Z" fill="#6EB4FA"/>
<path d="M800.283 1022.46V1043.47C800.283 1044.57 799.699 1045.57 798.756 1046.12L752.727 1072.35L769.371 1021.99L776.847 1000.41L792.611 1015.31L800.283 1022.46Z" fill="#18285D"/>
<path d="M792.608 1015.31L789.352 1021.26L780.84 1019.46L777.436 1025.31L769.367 1021.99L776.84 1000.41L792.608 1015.31Z" fill="white"/>
<path d="M783.221 1054.97L752.716 1072.35L708.976 1097.28C708.361 1097.63 707.702 1097.74 707.078 1097.66L727.969 1037.35L736.999 1011.28L756.05 1029.29L783.221 1054.97Z" fill="#076E94"/>
<path d="M756.057 1029.29L752.127 1036.47L741.841 1034.3L737.729 1041.37L727.977 1037.35L737.01 1011.28L756.057 1029.29Z" fill="white"/>
</g>
<path d="M834.277 1029.43V1170.37L712.219 1240.84V1099.9L834.277 1029.43Z" fill="#076E94"/>
<path d="M778.245 1091.18C756.501 1104.2 739.071 1131.86 739.387 1152.85C739.703 1173.83 757.652 1180.32 779.395 1167.31C801.139 1154.29 818.573 1126.63 818.253 1105.64C817.937 1084.65 799.988 1078.17 778.245 1091.18ZM780.618 1142.35L780.416 1129.01L798.241 1118.34C798.202 1123.13 797.564 1128.03 796.338 1132.94L780.618 1142.35ZM792.019 1150.86C794.859 1145.58 797.103 1140.12 798.687 1134.62L810.699 1127.44C805.753 1139.19 797.329 1150.41 787.347 1158.59C789.016 1156.12 790.582 1153.52 792.019 1150.86ZM795.308 1136.65C793.877 1141.28 791.949 1145.87 789.573 1150.31C785.865 1157.23 782.118 1161.87 780.935 1163.26L780.663 1145.41L795.308 1136.65ZM780.121 1109.56L779.874 1093.33C780.344 1093.07 780.814 1092.82 781.287 1092.57C783.284 1093 789.552 1094.84 793.895 1101.31L780.121 1109.56ZM797.362 1099.24C795.901 1096.81 794.067 1094.73 791.907 1093.07C790.344 1091.86 788.639 1090.87 786.829 1090.12C795.931 1086.81 803.979 1087.55 809.145 1092.18L797.362 1099.24ZM780.371 1125.95L780.169 1112.62L795.239 1103.6C796.934 1106.92 797.922 1110.85 798.178 1115.29L780.371 1125.95ZM801.35 1113.4C801.109 1108.97 800.184 1105 798.603 1101.58L810.997 1094.16C813.238 1097.04 814.573 1100.76 814.964 1105.25L801.35 1113.4ZM815.082 1108.26C815.057 1112.96 814.1 1118.05 812.241 1123.42L799.642 1130.97C800.787 1126.07 801.383 1121.19 801.416 1116.45L815.082 1108.26ZM758.79 1155.42L745.824 1163.18C743.836 1160.11 742.745 1156.24 742.577 1151.66L756.613 1143.26C756.79 1147.88 757.522 1151.97 758.79 1155.42ZM763.534 1119.48C764.715 1116.13 766.158 1112.71 767.829 1109.31C771.073 1102.72 774.35 1097.81 775.7 1095.88C776.034 1095.66 776.365 1095.44 776.703 1095.23L776.947 1111.45L763.534 1119.48ZM776.998 1114.51L777.2 1127.85L759.763 1138.29C759.881 1133.63 760.733 1128.6 762.293 1123.31L776.998 1114.51ZM747.932 1128.82C752.962 1117.94 761.013 1107.52 770.254 1099.93C768.459 1102.87 766.781 1105.92 765.251 1109.02C763.182 1113.22 761.444 1117.43 760.079 1121.55L747.932 1128.82ZM777.245 1130.91L777.447 1144.25L762.091 1153.44C760.742 1150.09 759.968 1146.03 759.787 1141.36L777.245 1130.91ZM742.604 1148.56C742.854 1143.7 744.053 1138.46 746.17 1132.97L758.929 1125.33C757.477 1130.56 756.691 1135.56 756.586 1140.19L742.604 1148.56ZM759.838 1157.88C761.561 1161.39 763.926 1164.09 766.874 1165.9C768.399 1166.84 770.055 1167.54 771.811 1167.99C761.679 1171.96 752.694 1170.97 747.456 1165.29L759.838 1157.88ZM777.495 1147.31L777.763 1164.94C775.341 1164.93 767.772 1164.2 763.227 1155.85L777.495 1147.31Z" fill="#586197"/>
<path d="M712.221 1240.84L630.852 1192.89V1052.92L712.221 1099.9V1240.84Z" fill="#26246C"/>
</svg>
