<svg width="645" height="393" viewBox="0 0 645 393" fill="none" xmlns="http://www.w3.org/2000/svg">
<path d="M492.475 385.503C492.475 385.503 492.52 349.748 521.093 326.61C521.093 326.61 518.518 346.872 511.241 366.408C511.241 366.408 521.709 351.683 534.603 345.982C534.603 345.982 534.22 357.549 519.922 372.28C519.922 372.28 537.284 364.237 551.709 365.386C551.709 365.386 541.751 375.152 523.089 379.301C523.089 379.301 547.751 375.152 553.703 385.505L492.475 385.503Z" fill="url(#paint0_linear_2315_1669)"/>
<path d="M553.369 274.811H488.817C485.743 274.811 483.251 272.319 483.251 269.245V227.66C483.251 224.586 485.743 222.094 488.817 222.094H553.369C556.443 222.094 558.935 224.586 558.935 227.66V269.245C558.936 272.319 556.443 274.811 553.369 274.811Z" fill="#004761"/>
<path d="M558.939 227.656V230.186H483.249V227.656C483.249 224.586 485.739 222.096 488.819 222.096H553.369C556.439 222.096 558.939 224.586 558.939 227.656Z" fill="white"/>
<path d="M558.939 263.292V269.246C558.939 272.316 556.439 274.816 553.369 274.816H488.819C485.739 274.816 483.249 272.316 483.249 269.246V263.292H558.939Z" fill="white"/>
<path d="M528.888 244.94L514.695 236.745C513.31 235.945 511.578 236.945 511.578 238.544V254.933C511.578 256.532 513.31 257.532 514.695 256.732L528.888 248.537C530.273 247.739 530.273 245.739 528.888 244.94Z" fill="url(#paint1_linear_2315_1669)"/>
<path d="M552.203 270.746H489.986C489.158 270.746 488.486 270.075 488.486 269.246C488.486 268.418 489.158 267.746 489.986 267.746H552.203C553.031 267.746 553.703 268.418 553.703 269.246C553.703 270.075 553.031 270.746 552.203 270.746Z" fill="url(#paint2_linear_2315_1669)"/>
<path d="M553.699 269.246C553.699 270.076 553.029 270.746 552.199 270.746H509.409V267.746H552.199C553.029 267.746 553.699 268.416 553.699 269.246Z" fill="black"/>
<path d="M513.029 269.246C513.029 271.245 511.409 272.866 509.409 272.866C507.41 272.866 505.789 271.245 505.789 269.246C505.789 267.247 507.409 265.627 509.409 265.627C511.409 265.627 513.029 267.247 513.029 269.246Z" fill="url(#paint3_linear_2315_1669)"/>
<path d="M511.195 269.246C511.195 270.232 510.396 271.031 509.41 271.031C508.424 271.031 507.625 270.232 507.625 269.246C507.625 268.26 508.424 267.461 509.41 267.461C510.396 267.461 511.195 268.26 511.195 269.246Z" fill="white"/>
<path d="M374.324 311.411H270.94C261.067 311.411 253.064 303.408 253.064 293.535V59.1751C253.064 49.3022 261.067 41.2991 270.94 41.2991H374.324C384.197 41.2991 392.2 49.3022 392.2 59.1751V293.534C392.2 303.407 384.197 311.411 374.324 311.411Z" fill="black" stroke="url(#paint4_linear_2315_1669)"/>
<path d="M374.324 311.411H270.94C261.067 311.411 253.064 303.408 253.064 293.535V59.1751C253.064 49.3022 261.067 41.2991 270.94 41.2991H374.324C384.197 41.2991 392.2 49.3022 392.2 59.1751V293.534C392.2 303.407 384.197 311.411 374.324 311.411Z" fill="black" stroke="url(#paint5_linear_2315_1669)"/>
<path d="M270.939 305.222C264.495 305.222 259.252 299.979 259.252 293.535V59.1751C259.252 52.7312 264.496 47.4871 270.939 47.4871H374.324C380.768 47.4871 386.011 52.7312 386.011 59.1751V293.535C386.011 299.979 380.768 305.222 374.324 305.222H270.939Z" fill="white" stroke="url(#paint6_linear_2315_1669)"/>
<path d="M252.063 109.823C251.427 109.807 250.915 109.286 250.915 108.646V83.5571C250.915 82.917 251.427 82.3959 252.063 82.3805V109.823Z" fill="black" stroke="url(#paint7_linear_2315_1669)"/>
<path d="M393.2 82.3815C393.837 82.3969 394.348 82.9179 394.348 83.5581V114.208C394.348 114.848 393.837 115.369 393.2 115.385V82.3815Z" fill="black" stroke="url(#paint8_linear_2315_1669)"/>
<path d="M252.063 140.932C251.427 140.916 250.915 140.395 250.915 139.755V114.666C250.915 114.026 251.427 113.505 252.063 113.489V140.932Z" fill="black" stroke="url(#paint9_linear_2315_1669)"/>
<path opacity="0.4" d="M263.962 96.6021H381.302V235.523H263.962V96.6021Z" fill="url(#paint10_linear_2315_1669)" stroke="url(#paint11_linear_2315_1669)"/>
<path opacity="0.4" d="M284.209 78.3901C284.209 83.9814 279.676 88.5141 274.085 88.5141C268.494 88.5141 263.961 83.9814 263.961 78.3901C263.961 72.7988 268.494 68.2661 274.085 68.2661C279.676 68.2661 284.209 72.7988 284.209 78.3901Z" fill="url(#paint12_linear_2315_1669)" stroke="url(#paint13_linear_2315_1669)"/>
<path d="M292.443 78.3901C292.443 83.9814 287.91 88.5141 282.319 88.5141C276.728 88.5141 272.195 83.9814 272.195 78.3901C272.195 72.7988 276.728 68.2661 282.319 68.2661C287.91 68.2661 292.443 72.7988 292.443 78.3901Z" fill="url(#paint14_linear_2315_1669)" stroke="url(#paint15_linear_2315_1669)"/>
<path opacity="0.4" d="M321.706 76.497H299.769C299.447 76.497 299.187 76.2369 299.187 75.915C299.187 75.5932 299.447 75.333 299.769 75.333H321.706C322.028 75.333 322.288 75.5932 322.288 75.915C322.288 76.2362 322.028 76.497 321.706 76.497Z" fill="url(#paint16_linear_2315_1669)" stroke="url(#paint17_linear_2315_1669)"/>
<path opacity="0.4" d="M333.797 81.4472H299.77C299.448 81.4472 299.188 81.1871 299.188 80.8652C299.188 80.544 299.448 80.2832 299.77 80.2832H333.797C334.119 80.2832 334.379 80.5433 334.379 80.8652C334.379 81.1864 334.119 81.4472 333.797 81.4472Z" fill="url(#paint18_linear_2315_1669)" stroke="url(#paint19_linear_2315_1669)"/>
<path d="M370.944 78.39C370.944 78.9042 370.527 79.321 370.013 79.321C369.499 79.321 369.082 78.9042 369.082 78.39C369.082 77.8758 369.499 77.459 370.013 77.459C370.527 77.459 370.944 77.8758 370.944 78.39Z" fill="url(#paint20_linear_2315_1669)" stroke="url(#paint21_linear_2315_1669)"/>
<path d="M376.123 78.39C376.123 78.9042 375.706 79.321 375.192 79.321C374.678 79.321 374.261 78.9042 374.261 78.39C374.261 77.8758 374.678 77.459 375.192 77.459C375.706 77.459 376.123 77.8758 376.123 78.39Z" fill="url(#paint22_linear_2315_1669)" stroke="url(#paint23_linear_2315_1669)"/>
<path d="M380.371 77.459L380.372 77.459C380.885 77.4583 381.302 77.8748 381.302 78.39C381.302 78.9046 380.885 79.321 380.371 79.321C379.856 79.321 379.44 78.9041 379.44 78.39C379.44 77.8754 379.857 77.459 380.371 77.459Z" fill="url(#paint24_linear_2315_1669)" stroke="url(#paint25_linear_2315_1669)"/>
<path d="M317.203 188.464C305.964 202.238 337.808 212.875 336.698 190.007C336.01 175.835 315.484 172.943 305.225 179.672C290.361 189.422 294.474 208.238 307.208 216.112C316.683 221.971 330.326 222.631 340.151 214.21C362.019 195.468 349.857 162.852 317.548 163.557C282.41 164.323 268.68 199.199 287.703 224.481C301.328 242.588 328.219 240.68 341.557 235.48C372.793 223.302 376.954 179.475 352.878 160.294C319.729 133.885 261.538 153.688 261.545 200.976C263.46 269.156 359.707 274.562 381.801 222.624C392.699 197.004 390.887 151.262 347.927 133.43C298.687 112.991 255.289 143.996 245.07 182.451C233.632 225.495 257.126 279.718 322.632 280.07C409.796 280.539 442.113 169.301 378.939 122.706C319.05 78.5332 234.857 112.99 223.879 185.77" stroke="url(#paint26_linear_2315_1669)" stroke-width="2" stroke-miterlimit="10" stroke-linecap="round"/>
<path d="M256.895 242.594C256.895 242.594 242.645 259.046 238.943 265.429C235.241 271.812 225.961 314.297 224.964 331.5H240.778C240.778 331.5 258.187 282.854 261.634 277.11C266.23 272.419 281.122 257.961 281.122 257.961" fill="url(#paint27_linear_2315_1669)"/>
<path d="M481.79 329.621C481.101 327.702 478.62 322.746 475.279 318.472C471.154 313.194 465.916 309.234 460.725 305.964C460.725 305.964 419.667 258.529 414.538 255.28C409.409 252.031 388.204 238.646 388.204 238.646L376.954 264.541C376.954 264.541 397.315 274.088 400.527 276.467C403.739 278.846 449.247 317.183 449.247 317.183C449.247 317.183 449.804 324.919 450.474 327.026C451.068 328.894 453.175 332.217 454.056 336.535C454.25 337.485 454.495 339.859 456.091 339.824C458.668 339.767 459.881 337.507 460.176 335.771C461.261 329.388 458.772 323.739 458.772 323.739C458.772 323.739 461.932 328.132 463.176 330.005C463.176 330.005 466.686 336.41 467.772 338.708C468.857 341.006 468.793 347.836 470.198 350.134C471.602 352.432 475.107 351.987 475.28 350.046C475.329 349.49 475.385 348.702 475.437 347.785C477.035 348.6 479.106 347.996 479.238 346.514C479.367 345.066 479.535 342.071 479.585 339.208C480.728 335.457 482.25 330.902 481.79 329.621Z" fill="url(#paint28_linear_2315_1669)"/>
<path d="M476.751 348.133C476.311 348.113 475.861 348.003 475.441 347.783C475.441 347.783 475.361 342.503 474.981 339.343C474.693 336.944 469.231 327.033 468.881 326.413C469.241 326.913 474.191 333.943 476.071 339.093C476.681 340.753 476.761 345.303 476.751 348.133Z" fill="url(#paint29_linear_2315_1669)"/>
<path d="M480.211 337.153C480.211 337.153 480.221 337.153 480.211 337.163C480.001 337.853 479.781 338.543 479.581 339.203C479.581 339.203 479.369 336.508 479.202 336.017C478.747 334.677 474.939 327.94 474.139 326.61C474.469 327.06 478.4 332.067 479.86 335.586C480.057 336.059 480.148 336.531 480.211 337.153Z" fill="url(#paint30_linear_2315_1669)"/>
<path d="M398.071 244.206C398.071 244.206 374.194 229.119 366.603 225.6C359.012 222.081 349.021 226.978 349.021 226.978C346.078 228.116 340.126 229.694 338.667 229.872C328.838 231.074 320.715 229.045 308.494 225.986C301.944 224.346 290.424 217.721 281.619 220.385C269.526 224.043 246.715 253.473 246.715 253.473C246.715 253.473 258.495 270.75 277.866 275.855L292.981 258.251C281.118 303.005 282.146 335.389 282.146 335.389C316.305 339.538 364.869 324.41 373.802 317.953C373.802 317.953 363.852 282.125 362.827 259.751L377.454 273.857C392.198 262.684 398.071 244.206 398.071 244.206Z" fill="url(#paint31_linear_2315_1669)"/>
<path d="M333.539 264.463C333.539 264.463 333.437 279.402 334.765 281.288C336.093 283.174 344.135 286.325 346.433 287.047C348.731 287.769 356.192 280.11 356.866 278.706C357.54 277.302 355.88 262.749 355.625 262.238C355.368 261.727 333.538 262.732 333.539 264.463Z" fill="url(#paint32_linear_2315_1669)"/>
<path d="M373.801 317.953C368.061 322.093 345.961 329.823 321.841 333.713C335.837 312.918 360.347 294.44 367.351 290.943C370.381 305.643 373.801 317.953 373.801 317.953Z" fill="black"/>
<path d="M290.911 266.473C291.551 263.783 292.241 261.043 292.981 258.253C292.981 258.253 297.151 254.223 298.781 253.273C300.231 252.423 293.901 261.533 290.911 266.473Z" fill="black"/>
<path d="M363.161 264.463C359.901 259.613 356.221 254.363 356.961 254.573C358.051 254.893 362.831 259.753 362.831 259.753C362.901 261.263 363.011 262.843 363.161 264.463Z" fill="black"/>
<path d="M446.234 334.748L467.772 361.174C467.772 361.174 457.815 372.855 449.963 375.153L427.942 356.004" fill="url(#paint33_linear_2315_1669)"/>
<path d="M402.475 285.599C395.861 279.923 388.112 281.255 385.45 281.897C365.326 286.748 330.72 332.104 330.72 332.104L318.497 334.226C306.102 336.02 293.348 336.74 282.151 335.383C282.151 335.383 282.081 333.243 282.181 329.313C268.931 332.363 234.934 338.721 224.964 347.131C218.264 352.786 215.093 368.17 217.8 376.237C220.042 382.92 225.411 385.503 225.411 385.503H326.262V385.506H354.602C354.602 385.506 364.159 380.234 370.113 372.28C377.39 362.558 392.7 336.096 392.7 336.096L423.44 368.193C436.847 362.558 449.773 347.865 452.694 341.986C452.694 341.986 422.932 303.155 402.475 285.599Z" fill="url(#paint34_linear_2315_1669)"/>
<path d="M392.701 336.093C392.701 336.093 392.021 337.273 390.871 339.233C387.891 329.733 391.371 320.773 391.371 320.773C390.031 328.043 392.701 336.093 392.701 336.093Z" fill="url(#paint35_linear_2315_1669)"/>
<path d="M321.943 341.608C282.092 342.535 255.294 348.988 255.294 348.988C255.294 348.988 295.367 345.212 323.141 347.503L321.943 341.608Z" fill="black"/>
<path d="M351.341 374.833H326.621C325.751 363.683 324.421 354.773 323.411 348.993H342.311L351.341 374.833Z" fill="url(#paint36_linear_2315_1669)"/>
<path d="M340.624 348.988C340.624 348.988 347.043 340.045 364.943 339.233L416.166 373.716C416.166 373.716 413.326 386.705 395.709 385.173C385.998 384.329 366.474 379.037 358.097 377.019C350.389 377.466 343.368 377.641 343.368 377.641C342.155 372.662 343.815 365.05 346.496 362.56C346.496 362.56 342.028 352.301 340.624 348.988Z" fill="url(#paint37_linear_2315_1669)"/>
<path d="M417.602 374.53C417.602 374.53 417.267 377.69 413.66 378.703L356.51 340.333C357.155 339.233 360.155 336.599 362.325 337.142L417.602 374.53Z" fill="black"/>
<path d="M366.421 366.893C365.541 368.563 363.22 374.003 363.048 378.248C361.888 378.248 359.691 378.283 358.101 377.023C358.101 377.023 359.534 367.9 362.391 365.383L366.421 366.893Z" fill="black"/>
<path d="M439.74 366.262C439.74 366.262 435.665 375.456 438.921 385.294H512.901C512.901 385.294 511.624 372.116 500.135 366.262C488.646 360.408 470.263 357.727 470.263 357.727L463.242 353.131C458.467 354.275 453.923 359.131 453.285 363.825L439.74 366.262Z" fill="url(#paint38_linear_2315_1669)"/>
<path d="M470.262 357.727C470.262 357.727 467.454 360.99 466.305 366.99L470.693 367.78C470.693 367.78 472.122 362.014 474.639 358.482C474.639 358.482 472.799 357.44 470.262 357.727Z" fill="black"/>
<path d="M512.901 385.293H436.895C436.335 383.603 437.23 381.424 437.831 380.323H511.731C513.132 380.849 512.901 385.293 512.901 385.293Z" fill="black"/>
<path d="M321.943 341.608C321.943 341.608 326.135 359.156 327.284 385.505" stroke="black" stroke-width="0.5" stroke-miterlimit="10" stroke-linecap="round"/>
<path d="M392.701 336.093C392.701 336.093 392.021 337.273 390.871 339.233C387.891 329.733 391.371 320.773 391.371 320.773C390.031 328.043 392.701 336.093 392.701 336.093Z" fill="black"/>
<path d="M314.941 228.054C310.314 228.823 303.854 227.428 301.821 223.055C300.472 220.154 300.167 214.966 302.837 212.602C299.254 211.982 299.672 206.694 303.31 206.605C296.114 201.672 301.274 190.871 309.447 191.708C307.973 186.161 315.145 183.504 318.472 187.291C324.6 177.639 343.792 180.127 344.158 192.17C347.789 190.996 351.134 195.199 349.024 198.28C358.288 199.23 359.379 214.166 350.593 216.951C354.81 224.501 346.478 233.889 337.556 228.338" fill="black"/>
<path d="M318.575 221.156C318.575 221.156 318.055 226.297 316.846 231.357C315.431 237.279 319.388 243.256 325.431 244C326.093 244.081 326.778 244.126 327.485 244.126C327.564 244.126 327.643 244.126 327.722 244.125C334.374 244.049 339.112 237.669 337.487 231.219C336.671 227.98 335.987 224.302 336.018 221.157" fill="url(#paint39_linear_2315_1669)"/>
<path d="M337.791 234.383C336.124 237.281 331.761 241.133 326.631 240.723C320.811 240.263 317.406 235.987 316.551 233.953C316.541 233.093 316.631 232.223 316.841 231.353C318.051 226.293 318.571 221.153 318.571 221.153H336.021C335.991 224.303 336.671 227.983 337.491 231.223C337.761 232.283 337.851 233.353 337.791 234.383Z" fill="black"/>
<path d="M308.884 211.591C308.884 211.591 305.275 209.89 304.025 213.752C303.23 216.209 304.538 221.766 307.795 222.069C311.052 222.372 312.378 219.734 312.378 219.734" fill="url(#paint40_linear_2315_1669)"/>
<path d="M344.377 211.591C344.377 211.591 347.986 209.89 349.236 213.752C350.031 216.209 348.723 221.766 345.466 222.069C342.209 222.372 340.883 219.734 340.883 219.734" fill="url(#paint41_linear_2315_1669)"/>
<path d="M309.243 204.477C312.465 189.268 327.219 190.013 327.219 190.013C327.219 190.013 341.973 189.267 345.195 204.477C348.417 219.686 340.277 237.132 327.219 237.281C314.161 237.132 306.021 219.686 309.243 204.477Z" fill="url(#paint42_linear_2315_1669)"/>
<path d="M347.903 206.946C347.554 204.299 346.636 201.76 345.595 199.301C344.901 197.661 344.135 196.023 342.983 194.664C341.04 192.373 338.172 191.078 335.302 190.19C331.433 188.993 327.377 188.404 323.327 188.453C322.386 188.464 321.44 188.51 320.522 188.714C319.537 188.933 318.6 189.33 317.697 189.779C311.8 192.716 307.09 198.241 305.795 204.7C305.533 206.005 304.859 208.713 305.883 209.736C307.043 210.894 309.446 210.589 310.705 209.842C312.343 208.872 313.316 206.986 313.45 205.087C314.357 205.574 315.521 205.542 316.4 205.005C316.599 204.884 316.775 204.731 316.938 204.565C317.787 205.217 318.682 205.8 319.654 206.248C323.924 208.218 329.391 207.189 332.652 203.801C334.105 204.822 336.012 205.164 337.731 204.721C338.389 205.919 339.355 206.949 340.538 207.636C342.554 208.806 345.124 208.964 347.268 208.05C347.5 207.951 347.744 207.825 347.856 207.599C347.955 207.4 347.932 207.165 347.903 206.946Z" fill="black"/>
<path d="M247.177 347.291C246.363 341.307 241.875 333.372 240.778 331.501H224.964C224.964 331.501 218.789 345.999 219.674 360.744C219.95 365.335 220.464 367.47 221.062 368.308C221.689 369.185 223.191 368.919 224.126 367.853C224.419 369.435 224.918 371.891 225.267 372.377C226.161 373.622 228.577 372.664 229.247 370.271C229.4 369.723 229.496 368.923 229.554 368.025C229.873 370.098 230.303 371.763 230.724 372.35C231.618 373.595 234.011 372.877 234.681 370.483C234.815 370.003 234.906 369.32 234.967 368.543C235.219 369.681 235.503 370.54 235.782 370.928C236.676 372.173 239.069 371.455 239.739 369.061C240.409 366.667 240.026 359.343 240.026 359.343L241.085 353.682C241.559 355.721 242.604 356.925 243.473 357.49C244.43 358.112 246.266 358.016 246.745 357.298C247.321 356.433 247.512 349.758 247.177 347.291Z" fill="url(#paint43_linear_2315_1669)"/>
<path d="M241.091 353.683L240.571 356.443C240.061 354.223 239.541 349.983 239.421 346.193C239.611 347.943 241.091 353.683 241.091 353.683Z" fill="url(#paint44_linear_2315_1669)"/>
<path d="M234.971 368.543C234.911 369.323 234.821 370.003 234.681 370.483C234.651 370.603 234.611 370.713 234.551 370.833C234.061 367.983 233.291 363.273 233.201 360.933C232.981 355.543 234.251 350.363 234.431 349.703C234.361 350.503 233.661 358.123 233.921 360.883C234.081 362.653 234.971 368.543 234.971 368.543Z" fill="url(#paint45_linear_2315_1669)"/>
<path d="M229.551 368.023L229.501 368.673L229.471 368.983C229.421 369.483 229.341 369.933 229.251 370.273C229.191 370.503 229.111 370.713 229.021 370.913C228.741 368.113 228.201 362.443 228.101 360.143C227.881 355.023 229.221 349.633 229.221 349.633C229.221 349.633 228.731 357.153 228.841 360.123C228.921 362.323 229.551 368.023 229.551 368.023Z" fill="url(#paint46_linear_2315_1669)"/>
<path d="M223.581 359.833C223.561 362.663 224.131 367.853 224.131 367.853C223.911 368.103 223.651 368.313 223.391 368.473C223.191 366.523 222.761 362.003 222.811 359.883C222.921 355.103 224.041 350.323 224.191 349.703C224.131 350.443 223.601 356.403 223.581 359.833Z" fill="url(#paint47_linear_2315_1669)"/>
<path d="M249.294 285.262C251.451 283.827 248.076 283.509 241.592 282.216C238.273 280.173 235.164 277.157 235.081 276.439C234.995 275.755 239.815 275.226 244.752 276.226C247.092 276.7 250.1 276.805 252.887 276.887C257.114 277.023 260.646 277.061 260.775 276.538C261.476 273.692 252.924 272.66 246.951 271.836C242.215 269.264 237.89 267.853 238.42 266.483C238.622 265.961 243.127 266.502 248.871 268.322C251.212 269.064 253.583 268.515 255.843 268.352C259.456 268.097 262.484 267.83 262.484 267.83C264.093 264.852 254.824 264.217 250.564 263.935C248.422 263.148 246.475 262.099 244.942 261.088C243.171 259.971 244.252 256.717 246.793 255.631C248.995 254.69 250.477 255.15 252.33 255.136C254.516 255.12 256.591 254.322 255.825 253.588C255.168 252.958 248.381 249.478 245.644 249.152C240.282 248.514 232.75 250.556 228.857 247.301C223.786 243.061 206.243 221.313 217.208 206.546C221.133 201.26 241.204 192.524 269.158 191.068C271.485 190.947 274.651 189.904 275.769 187.859C279.936 180.237 276.347 165.742 266.705 166.987C251.241 168.983 227.099 174.732 210.598 194.225C186.473 222.726 222.098 256.391 222.606 261.783C223.116 267.185 223.934 270.808 225.25 275.195C226.878 280.621 238.239 285.887 242.514 286.221C244.524 286.378 248.658 285.685 249.294 285.262Z" fill="url(#paint48_linear_2315_1669)"/>
<path d="M367.976 164.89C380.234 173.721 380.04 167.571 418.71 196.23C435.928 208.99 436.553 223.454 431.734 233.454C427.075 243.119 417.453 246.973 416.406 248.056C415.374 249.135 409.793 251.661 407.933 253.091C406.72 254.131 403.032 260.645 404 260.866C404.959 261.085 407.485 260.035 410.44 257.287C413.236 256.237 417.612 257.469 417.474 258.79C417.331 260.121 414.004 264.948 412.99 266.101C404.968 268.029 401.066 271.167 401.289 271.792C401.427 272.164 405.316 271.277 408.89 270.599C411.363 270.144 413.755 269.903 414.302 269.746C415.658 269.353 422.838 265.671 422.688 266.621C422.528 267.565 418.709 271.771 417.794 272.369C409.056 275.33 404.979 279.459 405.582 280.077C405.915 280.417 407.965 280.013 411.701 278.945C414.713 278.077 420.089 276.765 420.618 276.534C421.791 276.029 425.505 270.516 425.663 271.164C425.812 271.807 424.57 276.665 422.629 278.497C417.941 280.135 413.239 283.299 414.347 284.098C414.973 284.554 416.172 284.28 419.852 283.428C423.718 282.533 425.572 282.04 426.252 281.273C427.819 279.54 431.256 274.248 431.242 269.684C431.223 265.13 430.522 260.821 431.964 253.427C433.406 246.034 456.055 223.477 442.274 200.314C420.061 162.978 380.04 142.112 380.04 142.112C366.061 137.316 360.09 159.209 367.976 164.89Z" fill="url(#paint49_linear_2315_1669)"/>
<path d="M213.218 13.437L226.655 9.837L216.818 0L213.218 13.437Z" fill="url(#paint50_linear_2315_1669)"/>
<path d="M115.434 124.277L126.049 126.638L122.787 116.265L115.434 124.277Z" fill="black"/>
<path d="M468.881 121.452C471.381 121.452 473.407 119.426 473.407 116.926C473.407 114.427 471.381 112.4 468.881 112.4C466.381 112.4 464.355 114.427 464.355 116.926C464.355 119.426 466.381 121.452 468.881 121.452Z" fill="url(#paint51_linear_2315_1669)"/>
<path d="M106.442 189.264C99.702 189.264 94.252 194.724 94.252 201.454C94.252 208.194 99.702 213.644 106.442 213.644C113.172 213.644 118.632 208.194 118.632 201.454C118.632 194.724 113.172 189.264 106.442 189.264ZM106.442 211.884C100.682 211.884 96.012 207.214 96.012 201.454C96.012 195.694 100.682 191.024 106.442 191.024C112.202 191.024 116.872 195.694 116.872 201.454C116.872 207.214 112.202 211.884 106.442 211.884Z" fill="url(#paint52_linear_2315_1669)"/>
<path d="M149.946 58.0661C151.522 58.0661 152.8 56.7884 152.8 55.2122C152.8 53.6359 151.522 52.3582 149.946 52.3582C148.37 52.3582 147.092 53.6359 147.092 55.2122C147.092 56.7884 148.37 58.0661 149.946 58.0661Z" fill="black"/>
<path d="M543.283 122.346C543.283 123.423 542.409 124.297 541.332 124.297C540.254 124.297 539.381 123.423 539.381 122.346C539.381 121.269 540.254 120.395 541.332 120.395C542.41 120.395 543.283 121.269 543.283 122.346Z" fill="black"/>
<path d="M545.977 166.911C545.977 171.605 542.172 175.41 537.479 175.41C532.786 175.41 528.981 171.605 528.981 166.911C528.981 162.218 532.786 158.413 537.479 158.413C542.172 158.413 545.977 162.218 545.977 166.911Z" fill="white"/>
<path d="M86.3848 154.79C86.3848 157.678 84.0438 160.02 81.1548 160.02C78.2668 160.02 75.9258 157.679 75.9258 154.79C75.9258 151.902 78.2668 149.561 81.1548 149.561C84.0438 149.56 86.3848 151.902 86.3848 154.79Z" fill="white"/>
<path d="M421.234 50.8151C421.234 52.8211 419.608 54.4471 417.602 54.4471C415.596 54.4471 413.97 52.8211 413.97 50.8151C413.97 48.8091 415.596 47.1831 417.602 47.1831C419.608 47.1831 421.234 48.8091 421.234 50.8151Z" fill="white"/>
<path d="M478.737 293.426C478.737 295.336 477.189 296.884 475.279 296.884C473.369 296.884 471.821 295.336 471.821 293.426C471.821 291.517 473.369 289.968 475.279 289.968C477.189 289.969 478.737 291.517 478.737 293.426Z" fill="white"/>
<path d="M61.9639 292.166C65.8299 292.166 68.9639 289.032 68.9639 285.166C68.9639 281.3 65.8299 278.166 61.9639 278.166C58.0979 278.166 54.9639 281.3 54.9639 285.166C54.9639 289.032 58.0979 292.166 61.9639 292.166Z" fill="black"/>
<path d="M448.414 147.687C446.907 143.657 443.062 142.508 440.046 142.582C437.1 142.654 434.809 143.965 434.809 143.965C434.809 143.965 434.634 141.331 433.064 138.837C431.457 136.284 428.373 133.717 424.182 134.69C414.264 136.995 416.742 156.614 423.815 164.462C434.266 166.013 451.981 157.225 448.414 147.687Z" fill="url(#paint53_linear_2315_1669)"/>
<path d="M229.86 132.205C228.39 129.611 225.634 129.243 223.578 129.622C221.57 129.992 220.144 131.139 220.144 131.139C220.144 131.139 219.738 129.356 218.392 127.82C217.015 126.248 214.624 124.827 211.862 125.949C205.325 128.606 209.157 141.762 214.852 146.363C222.173 146.286 233.339 138.343 229.86 132.205Z" fill="url(#paint54_linear_2315_1669)"/>
<path d="M180.242 159.953C178.598 160.133 177.806 161.457 177.548 162.587C177.296 163.692 177.568 164.669 177.568 164.669C177.568 164.669 176.57 164.485 175.492 164.834C174.389 165.191 173.14 166.097 173.106 167.751C173.026 171.665 180.57 172.598 184.163 170.706C185.731 166.959 184.133 159.527 180.242 159.953Z" fill="url(#paint55_linear_2315_1669)"/>
<path d="M1 385.506H644.264" stroke="black" stroke-miterlimit="10" stroke-linecap="round"/>
<path d="M446.234 391.91H570.702" stroke="black" stroke-miterlimit="10" stroke-linecap="round"/>
<path d="M332.149 391.91H438.921" stroke="black" stroke-miterlimit="10" stroke-linecap="round"/>
<path d="M165.157 391.91H206.37" stroke="black" stroke-miterlimit="10" stroke-linecap="round"/>
<path d="M41.6768 391.91H149.946" stroke="black" stroke-miterlimit="10" stroke-linecap="round"/>
<defs>
<linearGradient id="paint0_linear_2315_1669" x1="541.165" y1="408.201" x2="505.817" y2="347.494" gradientUnits="userSpaceOnUse">
<stop stop-color="#53B0B1"/>
<stop offset="1" stop-color="#6ACAD8"/>
</linearGradient>
<linearGradient id="paint1_linear_2315_1669" x1="520.753" y1="238.381" x2="520.753" y2="255.81" gradientUnits="userSpaceOnUse">
<stop stop-color="#076E94"/>
<stop offset="1" stop-color="#004761"/>
</linearGradient>
<linearGradient id="paint2_linear_2315_1669" x1="488.485" y1="269.246" x2="553.703" y2="269.246" gradientUnits="userSpaceOnUse">
<stop stop-color="#076E94"/>
<stop offset="1" stop-color="#004761"/>
</linearGradient>
<linearGradient id="paint3_linear_2315_1669" x1="505.79" y1="269.246" x2="513.029" y2="269.246" gradientUnits="userSpaceOnUse">
<stop stop-color="#076E94"/>
<stop offset="1" stop-color="#004761"/>
</linearGradient>
<linearGradient id="paint4_linear_2315_1669" x1="251.819" y1="176.355" x2="393.445" y2="176.355" gradientUnits="userSpaceOnUse">
<stop stop-color="#076E94"/>
<stop offset="1" stop-color="#004761"/>
</linearGradient>
<linearGradient id="paint5_linear_2315_1669" x1="251.819" y1="176.355" x2="393.445" y2="176.355" gradientUnits="userSpaceOnUse">
<stop stop-color="#076E94"/>
<stop offset="1" stop-color="#004761"/>
</linearGradient>
<linearGradient id="paint6_linear_2315_1669" x1="258.073" y1="176.354" x2="387.19" y2="176.354" gradientUnits="userSpaceOnUse">
<stop stop-color="#076E94"/>
<stop offset="1" stop-color="#004761"/>
</linearGradient>
<linearGradient id="paint7_linear_2315_1669" x1="250.404" y1="96.1016" x2="252.574" y2="96.1016" gradientUnits="userSpaceOnUse">
<stop stop-color="#076E94"/>
<stop offset="1" stop-color="#004761"/>
</linearGradient>
<linearGradient id="paint8_linear_2315_1669" x1="392.689" y1="98.8831" x2="394.86" y2="98.8831" gradientUnits="userSpaceOnUse">
<stop stop-color="#076E94"/>
<stop offset="1" stop-color="#004761"/>
</linearGradient>
<linearGradient id="paint9_linear_2315_1669" x1="250.404" y1="127.21" x2="252.574" y2="127.21" gradientUnits="userSpaceOnUse">
<stop stop-color="#076E94"/>
<stop offset="1" stop-color="#004761"/>
</linearGradient>
<linearGradient id="paint10_linear_2315_1669" x1="322.632" y1="112.949" x2="322.632" y2="258.127" gradientUnits="userSpaceOnUse">
<stop stop-color="#8AB9FD"/>
<stop offset="1" stop-color="#0056E9"/>
</linearGradient>
<linearGradient id="paint11_linear_2315_1669" x1="262.833" y1="166.062" x2="382.431" y2="166.062" gradientUnits="userSpaceOnUse">
<stop stop-color="#076E94"/>
<stop offset="1" stop-color="#004761"/>
</linearGradient>
<linearGradient id="paint12_linear_2315_1669" x1="263.669" y1="67.9731" x2="284.866" y2="89.1707" gradientUnits="userSpaceOnUse">
<stop stop-color="#8AB9FD"/>
<stop offset="1" stop-color="#0056E9"/>
</linearGradient>
<linearGradient id="paint13_linear_2315_1669" x1="263.348" y1="78.3901" x2="284.822" y2="78.3901" gradientUnits="userSpaceOnUse">
<stop stop-color="#076E94"/>
<stop offset="1" stop-color="#004761"/>
</linearGradient>
<linearGradient id="paint14_linear_2315_1669" x1="271.459" y1="67.5297" x2="295.14" y2="91.2106" gradientUnits="userSpaceOnUse">
<stop stop-color="#8AB9FD"/>
<stop offset="1" stop-color="#0056E9"/>
</linearGradient>
<linearGradient id="paint15_linear_2315_1669" x1="271.582" y1="78.3901" x2="293.056" y2="78.3901" gradientUnits="userSpaceOnUse">
<stop stop-color="#076E94"/>
<stop offset="1" stop-color="#004761"/>
</linearGradient>
<linearGradient id="paint16_linear_2315_1669" x1="298.688" y1="75.9147" x2="322.788" y2="75.9147" gradientUnits="userSpaceOnUse">
<stop stop-color="#8AB9FD"/>
<stop offset="1" stop-color="#0056E9"/>
</linearGradient>
<linearGradient id="paint17_linear_2315_1669" x1="298.559" y1="75.915" x2="322.916" y2="75.915" gradientUnits="userSpaceOnUse">
<stop stop-color="#076E94"/>
<stop offset="1" stop-color="#004761"/>
</linearGradient>
<linearGradient id="paint18_linear_2315_1669" x1="298.688" y1="80.8649" x2="334.879" y2="80.8649" gradientUnits="userSpaceOnUse">
<stop stop-color="#8AB9FD"/>
<stop offset="1" stop-color="#0056E9"/>
</linearGradient>
<linearGradient id="paint19_linear_2315_1669" x1="298.496" y1="80.8652" x2="335.071" y2="80.8652" gradientUnits="userSpaceOnUse">
<stop stop-color="#076E94"/>
<stop offset="1" stop-color="#004761"/>
</linearGradient>
<linearGradient id="paint20_linear_2315_1669" x1="367.993" y1="77.9107" x2="382.929" y2="81.4532" gradientUnits="userSpaceOnUse">
<stop stop-color="#8AB9FD"/>
<stop offset="1" stop-color="#0056E9"/>
</linearGradient>
<linearGradient id="paint21_linear_2315_1669" x1="368.567" y1="78.39" x2="371.459" y2="78.39" gradientUnits="userSpaceOnUse">
<stop stop-color="#076E94"/>
<stop offset="1" stop-color="#004761"/>
</linearGradient>
<linearGradient id="paint22_linear_2315_1669" x1="368.269" y1="76.7477" x2="383.205" y2="80.2902" gradientUnits="userSpaceOnUse">
<stop stop-color="#8AB9FD"/>
<stop offset="1" stop-color="#0056E9"/>
</linearGradient>
<linearGradient id="paint23_linear_2315_1669" x1="373.746" y1="78.39" x2="376.638" y2="78.39" gradientUnits="userSpaceOnUse">
<stop stop-color="#076E94"/>
<stop offset="1" stop-color="#004761"/>
</linearGradient>
<linearGradient id="paint24_linear_2315_1669" x1="368.545" y1="75.5848" x2="383.481" y2="79.1273" gradientUnits="userSpaceOnUse">
<stop stop-color="#8AB9FD"/>
<stop offset="1" stop-color="#0056E9"/>
</linearGradient>
<linearGradient id="paint25_linear_2315_1669" x1="378.925" y1="78.39" x2="381.817" y2="78.39" gradientUnits="userSpaceOnUse">
<stop stop-color="#076E94"/>
<stop offset="1" stop-color="#004761"/>
</linearGradient>
<linearGradient id="paint26_linear_2315_1669" x1="222.879" y1="191.58" x2="412.937" y2="191.58" gradientUnits="userSpaceOnUse">
<stop stop-color="#076E94"/>
<stop offset="1" stop-color="#004761"/>
</linearGradient>
<linearGradient id="paint27_linear_2315_1669" x1="262.006" y1="242.608" x2="240.943" y2="358.651" gradientUnits="userSpaceOnUse">
<stop stop-color="#914713"/>
<stop offset="1" stop-color="#AF6145"/>
</linearGradient>
<linearGradient id="paint28_linear_2315_1669" x1="383.167" y1="249.733" x2="471.24" y2="330.805" gradientUnits="userSpaceOnUse">
<stop stop-color="#914713"/>
<stop offset="1" stop-color="#AF6145"/>
</linearGradient>
<linearGradient id="paint29_linear_2315_1669" x1="465.469" y1="330.939" x2="478.334" y2="342.78" gradientUnits="userSpaceOnUse">
<stop stop-color="#914713"/>
<stop offset="1" stop-color="#AF6145"/>
</linearGradient>
<linearGradient id="paint30_linear_2315_1669" x1="472.499" y1="328.892" x2="480.364" y2="336.131" gradientUnits="userSpaceOnUse">
<stop stop-color="#914713"/>
<stop offset="1" stop-color="#AF6145"/>
</linearGradient>
<linearGradient id="paint31_linear_2315_1669" x1="322.392" y1="322.365" x2="322.392" y2="242.704" gradientUnits="userSpaceOnUse">
<stop stop-color="#E6832C"/>
<stop offset="1" stop-color="#E9A347"/>
</linearGradient>
<linearGradient id="paint32_linear_2315_1669" x1="344.406" y1="262.451" x2="346.449" y2="288.748" gradientUnits="userSpaceOnUse">
<stop stop-color="#076E94"/>
<stop offset="1" stop-color="#004761"/>
</linearGradient>
<linearGradient id="paint33_linear_2315_1669" x1="440.124" y1="370.188" x2="464.635" y2="333.422" gradientUnits="userSpaceOnUse">
<stop stop-color="#914713"/>
<stop offset="1" stop-color="#AF6145"/>
</linearGradient>
<linearGradient id="paint34_linear_2315_1669" x1="216.834" y1="333.397" x2="452.694" y2="333.397" gradientUnits="userSpaceOnUse">
<stop stop-color="#8AB9FD"/>
<stop offset="1" stop-color="#0056E9"/>
</linearGradient>
<linearGradient id="paint35_linear_2315_1669" x1="389.664" y1="330.003" x2="392.701" y2="330.003" gradientUnits="userSpaceOnUse">
<stop stop-color="#8AB9FD"/>
<stop offset="1" stop-color="#0056E9"/>
</linearGradient>
<linearGradient id="paint36_linear_2315_1669" x1="358.996" y1="381.125" x2="315.719" y2="347.231" gradientUnits="userSpaceOnUse">
<stop stop-color="#914713"/>
<stop offset="1" stop-color="#AF6145"/>
</linearGradient>
<linearGradient id="paint37_linear_2315_1669" x1="391.702" y1="343.264" x2="363.361" y2="383.349" gradientUnits="userSpaceOnUse">
<stop stop-color="#076E94"/>
<stop offset="1" stop-color="#004761"/>
</linearGradient>
<linearGradient id="paint38_linear_2315_1669" x1="475.28" y1="351.727" x2="475.28" y2="383.889" gradientUnits="userSpaceOnUse">
<stop stop-color="#076E94"/>
<stop offset="1" stop-color="#004761"/>
</linearGradient>
<linearGradient id="paint39_linear_2315_1669" x1="327.183" y1="223.751" x2="327.183" y2="245.211" gradientUnits="userSpaceOnUse">
<stop stop-color="#914713"/>
<stop offset="1" stop-color="#AF6145"/>
</linearGradient>
<linearGradient id="paint40_linear_2315_1669" x1="308.088" y1="220.103" x2="308.088" y2="179.456" gradientUnits="userSpaceOnUse">
<stop stop-color="#914713"/>
<stop offset="1" stop-color="#AF6145"/>
</linearGradient>
<linearGradient id="paint41_linear_2315_1669" x1="345.173" y1="220.103" x2="345.173" y2="179.456" gradientUnits="userSpaceOnUse">
<stop stop-color="#914713"/>
<stop offset="1" stop-color="#AF6145"/>
</linearGradient>
<linearGradient id="paint42_linear_2315_1669" x1="327.22" y1="202.007" x2="327.22" y2="236.858" gradientUnits="userSpaceOnUse">
<stop stop-color="#914713"/>
<stop offset="1" stop-color="#AF6145"/>
</linearGradient>
<linearGradient id="paint43_linear_2315_1669" x1="253.864" y1="241.13" x2="232.8" y2="357.173" gradientUnits="userSpaceOnUse">
<stop stop-color="#914713"/>
<stop offset="1" stop-color="#AF6145"/>
</linearGradient>
<linearGradient id="paint44_linear_2315_1669" x1="244.601" y1="325.997" x2="239.801" y2="352.443" gradientUnits="userSpaceOnUse">
<stop stop-color="#914713"/>
<stop offset="1" stop-color="#AF6145"/>
</linearGradient>
<linearGradient id="paint45_linear_2315_1669" x1="233.175" y1="360.268" x2="234.971" y2="360.268" gradientUnits="userSpaceOnUse">
<stop stop-color="#914713"/>
<stop offset="1" stop-color="#AF6145"/>
</linearGradient>
<linearGradient id="paint46_linear_2315_1669" x1="228.076" y1="360.273" x2="229.55" y2="360.273" gradientUnits="userSpaceOnUse">
<stop stop-color="#914713"/>
<stop offset="1" stop-color="#AF6145"/>
</linearGradient>
<linearGradient id="paint47_linear_2315_1669" x1="222.806" y1="359.088" x2="224.19" y2="359.088" gradientUnits="userSpaceOnUse">
<stop stop-color="#914713"/>
<stop offset="1" stop-color="#AF6145"/>
</linearGradient>
<linearGradient id="paint48_linear_2315_1669" x1="239.855" y1="278.706" x2="239.855" y2="175.819" gradientUnits="userSpaceOnUse">
<stop stop-color="#076E94"/>
<stop offset="1" stop-color="#004761"/>
</linearGradient>
<linearGradient id="paint49_linear_2315_1669" x1="435.763" y1="276.899" x2="389.311" y2="137.154" gradientUnits="userSpaceOnUse">
<stop stop-color="#076E94"/>
<stop offset="1" stop-color="#004761"/>
</linearGradient>
<linearGradient id="paint50_linear_2315_1669" x1="221.831" y1="0.5549" x2="219.116" y2="16.4358" gradientUnits="userSpaceOnUse">
<stop stop-color="#8AB9FD"/>
<stop offset="1" stop-color="#0056E9"/>
</linearGradient>
<linearGradient id="paint51_linear_2315_1669" x1="467.405" y1="115.45" x2="478.167" y2="126.212" gradientUnits="userSpaceOnUse">
<stop stop-color="#8AB9FD"/>
<stop offset="1" stop-color="#0056E9"/>
</linearGradient>
<linearGradient id="paint52_linear_2315_1669" x1="97.9313" y1="192.231" x2="114.932" y2="210.663" gradientUnits="userSpaceOnUse">
<stop stop-color="#076E94"/>
<stop offset="1" stop-color="#004761"/>
</linearGradient>
<linearGradient id="paint53_linear_2315_1669" x1="453.276" y1="109.527" x2="423.995" y2="164.13" gradientUnits="userSpaceOnUse">
<stop stop-color="#076E94"/>
<stop offset="1" stop-color="#004761"/>
</linearGradient>
<linearGradient id="paint54_linear_2315_1669" x1="229.037" y1="105.562" x2="214.938" y2="146.115" gradientUnits="userSpaceOnUse">
<stop stop-color="#076E94"/>
<stop offset="1" stop-color="#004761"/>
</linearGradient>
<linearGradient id="paint55_linear_2315_1669" x1="172.598" y1="160.121" x2="208.085" y2="192.596" gradientUnits="userSpaceOnUse">
<stop stop-color="#076E94"/>
<stop offset="1" stop-color="#004761"/>
</linearGradient>
</defs>
</svg>
