<svg width="470" height="455" viewBox="0 0 470 455" fill="none" xmlns="http://www.w3.org/2000/svg">
<path d="M372.858 349.422C426.471 295.81 426.471 208.887 372.858 155.274C319.246 101.661 232.322 101.661 178.71 155.274C125.097 208.887 125.097 295.81 178.71 349.422C232.322 403.035 319.246 403.035 372.858 349.422Z" fill="#F0F6FC"/>
<path d="M172.509 281.843C241.373 281.843 297.199 226.018 297.199 157.153C297.199 88.289 241.373 32.4634 172.509 32.4634C103.644 32.4634 47.8188 88.289 47.8188 157.153C47.8188 226.018 103.644 281.843 172.509 281.843Z" fill="#F0F6FC"/>
<path d="M124.577 412.262C174.143 412.262 214.325 372.081 214.325 322.514C214.325 272.948 174.143 232.766 124.577 232.766C75.0104 232.766 34.8289 272.948 34.8289 322.514C34.8289 372.081 75.0104 412.262 124.577 412.262Z" fill="#F0F6FC"/>
<path d="M226.326 240.273C226.326 238.168 228.032 236.462 230.137 236.462C232.242 236.462 233.948 238.168 233.948 240.273C233.948 242.378 232.242 244.084 230.137 244.084C228.032 244.083 226.326 242.377 226.326 240.273Z" fill="#31216D"/>
<path d="M228.347 243.354C228.347 242.366 229.148 241.564 230.137 241.564C231.126 241.564 231.927 242.365 231.927 243.354C231.927 244.342 231.126 245.144 230.137 245.144C229.148 245.144 228.347 244.343 228.347 243.354Z" fill="#5184AF"/>
<path d="M231.469 242.13H228.805C228.017 242.13 227.378 241.491 227.378 240.703V239.986C227.378 239.198 228.017 238.559 228.805 238.559H231.469C232.257 238.559 232.896 239.198 232.896 239.986V240.703C232.896 241.491 232.257 242.13 231.469 242.13Z" fill="#F75477"/>
<path d="M441.895 454.995H18.3787C15.7367 454.995 13.5947 452.853 13.5947 450.211V449.487C13.5947 446.845 15.7367 444.703 18.3787 444.703H441.895C444.537 444.703 446.679 446.845 446.679 449.487V450.211C446.679 452.853 444.537 454.995 441.895 454.995Z" fill="#001E32"/>
<path d="M387.517 429.062H72.7568V234.998C72.7568 232.913 74.4478 231.222 76.5328 231.222H383.74C385.826 231.222 387.516 232.913 387.516 234.998V429.062H387.517Z" fill="#35C2C1"/>
<path d="M365.466 405.949C366.636 405.949 367.585 405 367.585 403.83V320.689L270.453 405.949H365.466Z" fill="white"/>
<path d="M98.2777 248.326C97.1077 248.326 96.1587 249.275 96.1587 250.445V324.575L183.025 248.326H98.2777Z" fill="white"/>
<path d="M367.585 250.444C367.585 249.274 366.636 248.325 365.467 248.325H260.882L96.1587 392.916V403.831C96.1587 405.001 97.1067 405.95 98.2777 405.95H192.597L367.585 252.349V250.444Z" fill="white"/>
<path d="M192.596 405.949H270.453L367.585 320.689V252.348L192.596 405.949Z" fill="white"/>
<path d="M183.025 248.326L96.1587 324.575V392.916L260.882 248.326H183.025Z" fill="white"/>
<path d="M405.656 444.704H54.6177C50.8487 444.704 47.7937 441.649 47.7937 437.88V435.887C47.7937 432.118 50.8487 429.062 54.6177 429.062H405.657C409.426 429.062 412.481 432.118 412.481 435.887V437.88C412.48 441.648 409.425 444.704 405.656 444.704Z" fill="#8398A5"/>
<path d="M254.295 439.466H205.98C204.338 439.466 202.993 438.304 202.993 436.883C202.993 435.462 204.337 434.299 205.98 434.299H254.295C255.937 434.299 257.28 435.462 257.28 436.883C257.28 438.304 255.937 439.466 254.295 439.466Z" fill="#A0B3C1"/>
<path d="M286.669 290.324L246.343 290.117L245.976 361.571L296.887 361.832L297.199 300.963L286.669 290.324Z" fill="#A0B3C1"/>
<path d="M286.614 300.909L297.199 300.963L286.669 290.324L286.614 300.909Z" fill="#C0CFDD"/>
<path d="M258.435 297.656L258.416 301.285L285.048 301.421L285.067 297.792L258.435 297.656Z" fill="white"/>
<path d="M252.209 307.228L252.203 308.438L291.193 308.637L291.199 307.427L252.209 307.228Z" fill="white"/>
<path d="M252.178 313.31L252.172 314.521L291.162 314.719L291.168 313.509L252.178 313.31Z" fill="white"/>
<path d="M252.171 319.418L252.165 320.628L291.155 320.831L291.161 319.621L252.171 319.418Z" fill="white"/>
<path d="M252.117 325.473L252.11 326.683L291.1 326.882L291.107 325.672L252.117 325.473Z" fill="white"/>
<path d="M252.085 331.554L252.079 332.764L291.069 332.963L291.075 331.753L252.085 331.554Z" fill="white"/>
<path d="M252.053 337.635L252.047 338.845L291.037 339.044L291.043 337.834L252.053 337.635Z" fill="white"/>
<path d="M252.045 343.744L252.039 344.954L269.554 345.045L269.56 343.835L252.045 343.744Z" fill="white"/>
<path d="M291.426 351.154C291.402 355.806 287.612 359.558 282.96 359.534C278.308 359.51 274.556 355.72 274.58 351.068C274.604 346.416 278.394 342.664 283.046 342.688C287.698 342.712 291.45 346.502 291.426 351.154Z" fill="white"/>
<path d="M265.256 296.625L224.93 296.417L224.563 367.871L275.474 368.133L275.787 307.263L265.256 296.625Z" fill="#F0F6FC"/>
<path d="M265.203 307.21L275.788 307.263L265.257 296.625L265.203 307.21Z" fill="#C0CFDD"/>
<path d="M237.024 303.956L237.006 307.585L263.638 307.721L263.656 304.092L237.024 303.956Z" fill="#A0B3C1"/>
<path d="M230.798 313.528L230.792 314.738L269.782 314.937L269.788 313.727L230.798 313.528Z" fill="#A0B3C1"/>
<path d="M230.767 319.61L230.761 320.82L269.751 321.018L269.757 319.808L230.767 319.61Z" fill="#A0B3C1"/>
<path d="M230.759 325.717L230.752 326.927L269.742 327.13L269.749 325.92L230.759 325.717Z" fill="#A0B3C1"/>
<path d="M230.704 331.772L230.698 332.982L269.688 333.181L269.694 331.971L230.704 331.772Z" fill="#A0B3C1"/>
<path d="M230.674 337.854L230.668 339.064L269.658 339.263L269.664 338.053L230.674 337.854Z" fill="#A0B3C1"/>
<path d="M230.642 343.936L230.636 345.146L269.626 345.344L269.632 344.134L230.642 343.936Z" fill="#A0B3C1"/>
<path d="M230.631 350.042L230.625 351.252L248.139 351.344L248.146 350.134L230.631 350.042Z" fill="#A0B3C1"/>
<path d="M270.014 357.455C269.99 362.107 266.2 365.859 261.548 365.835C256.896 365.811 253.144 362.021 253.168 357.369C253.192 352.717 256.982 348.965 261.634 348.989C266.286 349.012 270.038 352.803 270.014 357.455Z" fill="#A0B3C1"/>
<path d="M243.557 281.664L217.072 281.692C215.102 281.694 213.503 280.099 213.501 278.129L213.496 273.945C213.494 271.975 215.089 270.376 217.06 270.374L243.546 270.346C245.516 270.344 247.115 271.939 247.117 273.91L247.121 278.094C247.123 280.063 245.528 281.662 243.557 281.664Z" fill="#004761"/>
<path d="M249.511 220.092C280.864 211.569 303.912 182.888 303.876 148.822C303.833 108.073 270.783 75.0735 230.058 75.1165C189.332 75.1595 156.353 108.228 156.396 148.977C156.432 183.042 179.541 211.675 210.912 220.132" fill="#004761"/>
<path d="M306.692 246.247L280.738 213.497C281.077 213.229 281.413 212.958 281.748 212.685L308.21 245.025C307.707 245.437 307.2 245.844 306.692 246.247ZM153.56 246.23C153.059 245.832 152.559 245.43 152.063 245.024L178.516 212.676C178.856 212.954 179.198 213.229 179.542 213.502L153.56 246.23ZM338.976 207.669L302.168 187.886C302.365 187.518 302.56 187.15 302.751 186.778L339.9 205.91C339.596 206.5 339.289 207.086 338.976 207.669ZM121.272 207.616C120.97 207.052 120.673 206.483 120.379 205.913L157.513 186.752C157.716 187.145 157.922 187.535 158.13 187.924L121.272 207.616ZM353.169 159.308L311.516 155.948C311.55 155.532 311.58 155.115 311.606 154.699L353.311 157.326C353.27 157.987 353.222 158.649 353.169 159.308ZM107.103 159.276C107.05 158.616 107.003 157.955 106.963 157.292L148.669 154.702C148.695 155.119 148.725 155.536 148.759 155.953L107.103 159.276ZM307.387 122.895C307.247 122.485 307.102 122.075 306.956 121.667L346.258 107.471C346.478 108.083 346.694 108.697 346.906 109.312L307.387 122.895ZM152.893 122.877L113.364 109.323C113.575 108.708 113.791 108.096 114.012 107.486L153.322 121.656C153.176 122.062 153.032 122.469 152.893 122.877ZM290.355 94.2384C290.072 93.9304 289.788 93.6234 289.5 93.3204L319.824 64.5695C320.281 65.0515 320.732 65.5365 321.179 66.0255L290.355 94.2384ZM169.935 94.2225L139.079 66.0425C139.515 65.5645 139.957 65.0915 140.401 64.6205L170.818 93.2725C170.521 93.5875 170.226 93.9035 169.935 94.2225ZM263.326 74.7325C262.933 74.5585 262.541 74.3855 262.146 74.2175L278.567 35.7925C279.162 36.0465 279.756 36.3055 280.346 36.5695L263.326 74.7325ZM196.968 74.7255L179.911 36.5775C180.509 36.3115 181.113 36.0475 181.719 35.7885L198.139 74.2135C197.746 74.3805 197.355 74.5515 196.968 74.7255ZM230.815 67.7075L230.051 67.7055L229.498 67.7075L229.168 25.9225L230.006 25.9185L231.09 25.9225L230.815 67.7075Z" fill="#004761"/>
<path d="M285.449 124.2C284.931 123.913 284.491 123.465 284.216 122.888C274.3 102.135 253.049 88.7425 230.074 88.7695C228.431 88.7675 227.108 87.4455 227.109 85.8105C227.107 84.1745 228.431 82.8485 230.066 82.8455C255.315 82.8205 278.667 97.5365 289.561 120.336C290.267 121.812 289.641 123.579 288.166 124.284C287.264 124.712 286.258 124.649 285.449 124.2Z" fill="white"/>
<path d="M291.57 151.235C290.66 150.73 290.042 149.762 290.041 148.648C290.039 146.356 289.907 144.06 289.652 141.824C289.465 140.199 290.632 138.732 292.257 138.545C293.877 138.36 295.348 139.526 295.535 141.151C295.817 143.607 295.961 146.126 295.966 148.64C295.968 150.276 294.643 151.603 293.009 151.606C292.486 151.606 291.995 151.471 291.57 151.235Z" fill="white"/>
<path d="M204.767 183.185L204.833 245.417L255.718 245.363L255.653 183.131" fill="#004761"/>
<path d="M255.675 252.189L204.892 252.242C202.975 252.244 201.42 250.693 201.418 248.776L201.414 244.396C201.412 242.479 202.964 240.924 204.881 240.922L255.664 240.87C257.581 240.868 259.136 242.419 259.138 244.336L259.143 248.715C259.143 250.631 257.591 252.187 255.675 252.189Z" fill="url(#paint0_linear_6487_4399)"/>
<path d="M255.699 274.826L204.916 274.88C202.999 274.882 201.444 273.33 201.442 271.413L201.437 267.035C201.435 265.118 202.987 263.563 204.904 263.561L255.687 263.507C257.604 263.505 259.159 265.057 259.161 266.973L259.166 271.351C259.168 273.269 257.616 274.824 255.699 274.826Z" fill="url(#paint1_linear_6487_4399)"/>
<path d="M255.686 263.507L204.904 263.561C202.987 263.563 201.432 262.011 201.43 260.095L201.425 255.717C201.423 253.8 202.975 252.245 204.891 252.243L255.675 252.189C257.592 252.187 259.147 253.739 259.149 255.656L259.153 260.034C259.155 261.95 257.603 263.505 255.686 263.507Z" fill="url(#paint2_linear_6487_4399)"/>
<path d="M231.807 173.078C226.341 173.078 221.461 171.939 217.167 169.662C212.938 167.319 209.619 164.131 207.212 160.097C204.805 156.063 203.601 151.476 203.601 146.336C203.601 141.13 204.805 136.543 207.212 132.574C209.619 128.54 212.938 125.384 217.167 123.107C221.461 120.83 226.341 119.691 231.807 119.691C236.882 119.691 241.339 120.732 245.178 122.814C249.082 124.831 252.042 127.824 254.059 131.793L244.69 137.259C243.128 134.786 241.209 132.965 238.932 131.793C236.719 130.622 234.312 130.037 231.709 130.037C228.716 130.037 226.016 130.687 223.609 131.989C221.201 133.29 219.314 135.177 217.948 137.649C216.581 140.057 215.898 142.952 215.898 146.336C215.898 149.719 216.581 152.647 217.948 155.119C219.314 157.527 221.201 159.381 223.609 160.683C226.016 161.984 228.716 162.635 231.709 162.635C234.312 162.635 236.719 162.049 238.932 160.878C241.209 159.707 243.128 157.885 244.69 155.412L254.059 160.878C252.042 164.782 249.082 167.807 245.178 169.954C241.339 172.037 236.882 173.078 231.807 173.078Z" fill="#35C2C1"/>
<path d="M230.13 192.904C254.183 192.904 273.683 173.405 273.683 149.351C273.683 125.298 254.183 105.798 230.13 105.798C206.076 105.798 186.577 125.298 186.577 149.351C186.577 173.405 206.076 192.904 230.13 192.904Z" stroke="white" stroke-width="8" stroke-miterlimit="10"/>
<path d="M151.055 254.75H122.211V289.808H124.386L126.685 411.863H161.319L151.055 254.75Z" fill="#001E32"/>
<path d="M93.4398 254.75H122.283V289.808H120.109L117.809 411.863H83.1758L93.4398 254.75Z" fill="#001E32"/>
<path d="M92.4488 265.757L92.0908 273.129L153.196 273.763L152.003 266.448L92.4488 265.757Z" fill="#004761"/>
<path d="M137.172 425.097H137.853H140.173H140.954H172.509L173.131 428.625H141.029C140.818 427.757 140.041 427.146 139.148 427.146H138.876C137.983 427.146 137.206 427.757 136.995 428.624H135.599H127.937V425.096H137.172V425.097Z" fill="#001E32"/>
<path d="M128.263 411.719L156.855 411.249C169.728 415.154 172.507 425.095 172.508 425.098H127.938L128.263 411.719Z" fill="#004761"/>
<path d="M160.194 406.001H127.456V406.559H160.194V406.001Z" fill="#004761"/>
<path d="M107.322 425.097H106.641H104.321H103.54H71.9858L71.3638 428.625H103.466C103.677 427.757 104.454 427.146 105.347 427.146H105.619C106.512 427.146 107.289 427.757 107.5 428.624H108.896H116.558V425.096H107.322V425.097Z" fill="#001E32"/>
<path d="M116.232 411.719L87.6388 411.249C74.7658 415.154 71.9868 425.095 71.9858 425.098H116.557L116.232 411.719Z" fill="#004761"/>
<path d="M117.039 406.001H84.3008V406.559H117.039V406.001Z" fill="#004761"/>
<path d="M140.505 168.251C139.712 170.476 137.613 171.703 135.815 170.993C134.017 170.283 133.203 167.904 133.995 165.68C134.788 163.455 136.887 162.228 138.685 162.938C140.483 163.648 141.298 166.027 140.505 168.251Z" fill="#FFCCC6"/>
<path d="M139.196 168.561L138.84 168.456C138.847 168.432 139.51 166.084 137.907 164.823L138.137 164.531C139.939 165.949 139.227 168.455 139.196 168.561Z" fill="#001E32"/>
<path d="M106.019 168.251C106.812 170.476 108.911 171.703 110.709 170.993C112.507 170.283 113.321 167.904 112.529 165.68C111.736 163.455 109.637 162.228 107.839 162.938C106.042 163.648 105.227 166.027 106.019 168.251Z" fill="#FFCCC6"/>
<path d="M107.05 168.561C107.019 168.455 106.307 165.95 108.109 164.531L108.339 164.823C106.736 166.084 107.4 168.433 107.406 168.456L107.05 168.561Z" fill="#001E32"/>
<path d="M132.324 189.325H122.82H113.315C97.7467 189.325 90.8637 202.948 92.7527 218.401L92.4477 265.757L122.819 266.609H152.002L151.641 235.481L150.405 219.351C152.294 203.897 147.893 189.325 132.324 189.325Z" fill="#004761"/>
<path d="M130.717 177.989L131.554 190.406H115.062L115.976 177.989H130.717Z" fill="#FFCCC6"/>
<path d="M111.158 189.451C111.158 189.451 112.566 197.717 123.441 197.717C134.316 197.717 135.367 189.524 135.367 189.524L123.441 187.907L111.158 189.451Z" fill="#FFCCC6"/>
<path d="M115.544 183.862C115.544 183.862 118.436 188.916 123.262 188.916C128.088 188.916 131.111 183.834 131.111 183.834V179.867H115.543L115.544 183.862Z" fill="#F6AFAA"/>
<path d="M137.71 162.318C137.717 162.255 137.726 162.193 137.733 162.13L137.735 162.116H137.734C137.781 161.641 137.806 161.159 137.806 160.671C137.806 152.665 131.315 146.174 123.309 146.174C115.303 146.174 108.812 152.664 108.812 160.671C108.812 161.159 108.837 161.64 108.884 162.116L108.886 162.13C108.892 162.191 108.901 162.251 108.908 162.313L110.409 174.793C110.412 174.819 110.415 174.844 110.418 174.87L110.454 175.169H110.456C111.286 181.53 116.722 186.444 123.31 186.444C129.828 186.444 135.22 181.635 136.138 175.373L136.157 175.22C136.178 175.061 136.199 174.902 136.215 174.741L137.71 162.318Z" fill="#FFCCC6"/>
<path d="M123.328 145.993C123.328 145.993 109.363 145.765 108.842 160.061C108.793 161.395 108.894 162.73 109.086 164.051L109.599 167.58C109.599 167.58 112.903 164.341 114.556 159.225H123.328H132.1C133.753 164.342 137.058 167.58 137.058 167.58L137.57 164.05C137.762 162.73 137.863 161.394 137.814 160.061C137.293 145.765 123.328 145.993 123.328 145.993Z" fill="#001E32"/>
<path d="M137.728 162.738C140.058 152.371 141.138 148.241 133.44 147.959C133.44 147.959 127.311 141.249 117.359 141.671C107.408 142.094 110.626 147.865 110.626 147.865C110.626 147.865 99.7827 147.865 109.594 158.379L124.568 152.23L134.942 156.079L137.728 162.738Z" fill="#001E32"/>
<path d="M108.927 162.737L108.091 154.249L111.095 156.432L108.927 162.737Z" fill="#001E32"/>
<path d="M123.511 174.584C122.641 174.521 122.071 174.209 121.817 173.655C121.202 172.311 122.787 170.122 122.969 169.877L123.416 170.21C122.974 170.803 121.917 172.537 122.323 173.423C122.485 173.778 122.898 173.981 123.55 174.028L123.511 174.584Z" fill="#001E32"/>
<path d="M128.085 164.573L127.751 166.022L132.71 167.162L133.043 165.712L128.085 164.573Z" fill="#001E32"/>
<path d="M118.617 164.581L113.659 165.721L113.992 167.17L118.95 166.03L118.617 164.581Z" fill="#001E32"/>
<path d="M118.058 169.135C118.058 169.621 117.664 170.015 117.178 170.015C116.692 170.015 116.298 169.621 116.298 169.135C116.298 168.649 116.692 168.255 117.178 168.255C117.664 168.255 118.058 168.649 118.058 169.135Z" fill="#001E32"/>
<path d="M130.397 169.135C130.397 169.621 130.003 170.015 129.517 170.015C129.031 170.015 128.637 169.621 128.637 169.135C128.637 168.649 129.031 168.255 129.517 168.255C130.003 168.255 130.397 168.649 130.397 169.135Z" fill="#001E32"/>
<path d="M123.264 178.651C122.446 178.651 121.906 178.456 121.857 178.438L122.052 177.916C122.151 177.952 124.502 178.781 126.917 176.529L127.297 176.937C125.798 178.336 124.305 178.651 123.264 178.651Z" fill="#001E32"/>
<path d="M140.086 264.476C142.503 261.988 144.691 259.994 144.691 259.994L166.602 271.119C166.602 271.119 163.185 277.785 154.998 285.302C149.867 290.014 148.027 290.833 147.378 288.299C147.378 288.299 144.667 288.571 144.538 285.854C144.538 285.854 142.57 286.338 141.629 284.912C140.93 283.852 141.421 282.515 141.421 282.515C141.421 282.515 132.788 288.593 131.502 287.117C129.97 285.36 135.751 278.242 141.381 272.703" fill="#FFCCC6"/>
<path d="M143.034 261.552L160.933 279.141C160.933 279.141 163.509 276.352 164.357 274.443L143.034 261.552Z" fill="#F6AFAA"/>
<path d="M141.382 272.703C141.382 272.703 135.585 276.002 133.938 273.648C132.983 272.283 136.751 267.91 140.086 264.476" fill="#FFCCC6"/>
<path d="M139.416 273.763C139.416 273.763 144.146 288.061 152.899 287.441L153.196 305.778L129.829 298.526L128.527 280.613L139.416 273.763Z" fill="#001E32"/>
<path d="M116.95 289.565L116.939 290.431L128.802 290.578L128.813 289.712L116.95 289.565Z" fill="#004761"/>
<path d="M141.013 259.844L162.716 278.186C162.716 278.186 180.523 255.162 180.337 248.375C180.151 241.588 161.811 195.613 138.858 190.362L151.067 232.969L156.722 241.449C157.449 242.539 157.253 244 156.265 244.86L141.013 259.844Z" fill="#004761"/>
<path d="M149.378 219.795L148.933 219.868L151.557 235.957L152.002 235.884L149.378 219.795Z" fill="#001E32"/>
<path d="M105.7 264.476C103.284 261.988 101.095 259.994 101.095 259.994L79.1836 271.119C79.1836 271.119 82.6006 277.785 90.7876 285.302C95.9186 290.014 97.7586 290.833 98.4076 288.299C98.4076 288.299 101.119 288.571 101.248 285.854C101.248 285.854 103.216 286.338 104.157 284.912C104.856 283.852 104.365 282.515 104.365 282.515C104.365 282.515 112.998 288.593 114.284 287.117C115.816 285.36 110.035 278.242 104.405 272.703" fill="#FFCCC6"/>
<path d="M102.752 261.552L84.8527 279.141C84.8527 279.141 82.2767 276.352 81.4287 274.443L102.752 261.552Z" fill="#F6AFAA"/>
<path d="M104.404 272.703C104.404 272.703 110.201 276.002 111.848 273.648C112.803 272.283 109.035 267.91 105.7 264.476" fill="#FFCCC6"/>
<path d="M106.37 273.763C106.37 273.763 101.64 288.061 92.8868 287.441L92.5898 305.778L115.957 298.526L117.259 280.613L106.37 273.763Z" fill="#001E32"/>
<path d="M104.773 259.844L83.0697 278.186C83.0697 278.186 65.2627 255.162 65.4487 248.375C65.6347 241.588 83.4177 195.658 106.371 190.407L94.7197 232.968L89.0647 241.448C88.3377 242.538 88.5337 243.999 89.5217 244.859L104.773 259.844Z" fill="#004761"/>
<path d="M95.1418 220.783L92.5173 236.873L92.9625 236.945L95.5869 220.856L95.1418 220.783Z" fill="#001E32"/>
<path d="M156.991 243.074C158.313 241.971 162.615 240.045 169.808 243.067" stroke="#001E32" stroke-width="0.5" stroke-miterlimit="10"/>
<path d="M156.867 244.092C158.648 243.275 162.157 242.985 165.602 245.145" stroke="#001E32" stroke-width="0.5" stroke-miterlimit="10"/>
<path d="M88.7018 243.074C87.3798 241.971 83.0768 240.045 75.8848 243.067" stroke="#001E32" stroke-width="0.5" stroke-miterlimit="10"/>
<path d="M88.8248 244.092C87.0438 243.275 83.5348 242.985 80.0898 245.145" stroke="#001E32" stroke-width="0.5" stroke-miterlimit="10"/>
<path d="M135.367 189.523L131.461 188.915L123.262 192.811L115.063 188.915L111.158 189.451L115.063 207.013L123.262 204.071L131.461 207.013L135.367 189.523Z" fill="#004761"/>
<path d="M113.699 211.36H101.601V215.041H113.699V211.36Z" fill="#004761"/>
<path d="M107.65 215.961H101.601V223.12L107.65 224.756L113.699 223.12V215.961H107.65Z" fill="#004761"/>
<path d="M123.262 193.668V266.609" stroke="#004761" stroke-width="0.5" stroke-miterlimit="10"/>
<path d="M118.47 197.964L123.261 193.668L128.052 197.964L128.85 193.668L123.261 192.811L117.396 195.969L118.47 197.964Z" fill="#0465A8"/>
<path d="M123.262 192.811L128.053 197.964L137.591 189.957L131.461 188.915L123.262 192.811Z" fill="#004761"/>
<path d="M123.262 192.811L118.471 197.964L109.274 189.656L115.063 188.915L123.262 192.811Z" fill="#004761"/>
<path d="M83.0687 278.185L78.2747 271.707L94.7457 257.736H97.4047V255.18L98.9627 254.136L104.773 259.844L83.0687 278.185Z" fill="#004761"/>
<path d="M162.744 278.185L167.539 271.707L151.068 257.736H148.409V255.18L146.85 254.136L141.041 259.844L162.744 278.185Z" fill="#004761"/>
<path d="M129.379 265.499H117.297V274.364H129.379V265.499Z" fill="white"/>
<path d="M123.55 137.446C108.902 137.446 94.0417 152.727 107.953 157.153H123.55H139.147C153.058 152.727 138.199 137.446 123.55 137.446Z" fill="#004761"/>
<path d="M107.954 157.153C107.954 157.153 111.39 152.384 123.551 152.384C135.712 152.384 139.148 157.153 139.148 157.153H107.954Z" fill="#004761"/>
<path d="M123.55 140.635C123.55 140.635 122.807 142.4 119.958 142.183V145.292C119.958 146.365 120.446 147.39 121.309 148.028C121.945 148.498 122.741 148.919 123.549 148.919C124.357 148.919 125.153 148.498 125.789 148.028C126.652 147.39 127.14 146.365 127.14 145.292V142.183C124.294 142.4 123.55 140.635 123.55 140.635Z" fill="#004761"/>
<path d="M197.439 312.374L168.311 312.812L168.143 301.658C168.022 293.627 174.457 286.995 182.487 286.874C190.518 286.753 197.15 293.188 197.271 301.219L197.439 312.374ZM172.817 308.169L192.796 307.868L192.697 301.288C192.614 295.78 188.065 291.365 182.557 291.448C177.049 291.531 172.635 296.081 172.718 301.59L172.817 308.169Z" fill="#C0CFDD"/>
<path d="M197.53 307.433L168.072 307.877C166.026 307.908 164.392 309.592 164.423 311.638L164.759 333.913C164.79 335.959 166.474 337.593 168.52 337.562L197.978 337.118C200.024 337.087 201.658 335.403 201.627 333.357L201.291 311.082C201.26 309.035 199.576 307.402 197.53 307.433ZM184.497 322.585L185.556 329.644L180.71 329.717L181.556 322.629C180.182 322.075 179.202 320.74 179.179 319.165C179.147 317.069 180.821 315.344 182.917 315.313C185.013 315.281 186.738 316.955 186.77 319.051C186.793 320.625 185.854 321.99 184.497 322.585Z" fill="#A0B3C1"/>
<path d="M354.559 281.753C345.258 281.169 341.303 276.959 339.729 274.343C339.279 273.595 338.203 273.564 337.709 274.284C335.985 276.803 331.791 280.776 322.471 280.816C321.572 280.82 320.763 281.359 320.439 282.198C318.164 288.084 311.333 310.878 337.368 320.552C363.924 312.413 358.434 289.26 356.507 283.251C356.233 282.395 355.457 281.809 354.559 281.753Z" fill="#A0B3C1"/>
<path d="M351.646 284.157C344.305 283.633 341.01 280.388 339.611 278.212C339.144 277.485 338.109 277.455 337.6 278.153C336.076 280.244 332.598 283.291 325.239 283.385C324.335 283.397 323.527 283.945 323.209 284.791C321.222 290.08 316.024 308.693 337.481 316.667C359.367 309.96 355.264 291.075 353.589 285.679C353.322 284.816 352.548 284.221 351.646 284.157Z" fill="#F0F6FC"/>
<path d="M347.67 289.213C346.919 288.584 345.801 288.683 345.172 289.433L335.698 300.74L330.725 297.676C330.006 297.232 329.05 297.352 328.467 298.004C327.811 298.736 327.873 299.86 328.605 300.516L334.734 306.006C334.798 306.063 334.877 306.126 334.949 306.177C335.991 306.907 337.427 306.655 338.157 305.613L338.219 305.524L347.984 291.591C348.502 290.845 348.379 289.808 347.67 289.213Z" fill="#A0B3C1"/>
<path d="M349.576 373.677V369.296H345.965C345.789 368.667 345.543 368.069 345.229 367.513L347.781 364.961L344.683 361.863L342.131 364.415C341.574 364.101 340.976 363.855 340.347 363.679V360.068H335.966V363.679C335.338 363.855 334.739 364.101 334.183 364.415L331.631 361.863L328.533 364.961L331.084 367.513C330.77 368.07 330.524 368.668 330.348 369.296H326.737V373.677H330.348C330.524 374.306 330.77 374.904 331.084 375.461L328.533 378.012L331.631 381.11L334.183 378.558C334.74 378.872 335.338 379.118 335.966 379.294V382.905H340.347V379.294C340.976 379.118 341.574 378.871 342.131 378.558L344.683 381.11L347.781 378.012L345.229 375.461C345.543 374.904 345.789 374.306 345.965 373.677H349.576ZM338.157 375.921C335.708 375.921 333.722 373.936 333.722 371.486C333.722 369.037 335.707 367.051 338.157 367.051C340.606 367.051 342.592 369.036 342.592 371.486C342.591 373.935 340.606 375.921 338.157 375.921Z" fill="#A0B3C1"/>
<path d="M326.714 392.695V388.314H323.103C322.927 387.686 322.681 387.087 322.367 386.531L324.919 383.979L321.821 380.881L319.269 383.432C318.712 383.118 318.114 382.872 317.485 382.696V379.085H313.104V382.696C312.475 382.872 311.877 383.118 311.32 383.432L308.769 380.881L305.671 383.979L308.223 386.531C307.909 387.088 307.663 387.686 307.487 388.314H303.876V392.695H307.487C307.663 393.324 307.909 393.922 308.223 394.479L305.671 397.031L308.769 400.129L311.32 397.577C311.877 397.891 312.475 398.137 313.104 398.313V401.924H317.485V398.313C318.114 398.137 318.712 397.891 319.269 397.577L321.821 400.129L324.919 397.031L322.367 394.479C322.681 393.922 322.927 393.324 323.103 392.695H326.714ZM315.295 394.939C312.846 394.939 310.86 392.953 310.86 390.504C310.86 388.055 312.845 386.069 315.295 386.069C317.744 386.069 319.73 388.054 319.73 390.504C319.73 392.954 317.745 394.939 315.295 394.939Z" fill="#A0B3C1"/>
<path d="M433.386 408.559L437.685 407.122L436.501 403.578C437.06 403.199 437.566 402.761 438.01 402.271L441.351 403.939L443.376 399.883L440.035 398.215C440.16 397.566 440.206 396.899 440.173 396.224L443.717 395.039L442.281 390.741L438.737 391.924C438.358 391.365 437.92 390.859 437.43 390.415L439.098 387.074L435.042 385.049L433.374 388.391C432.724 388.266 432.057 388.22 431.382 388.253L430.198 384.708L425.899 386.145L427.083 389.689C426.524 390.068 426.018 390.505 425.574 390.995L422.233 389.327L420.208 393.383L423.549 395.051C423.424 395.701 423.378 396.368 423.411 397.043L419.867 398.228L421.303 402.526L424.847 401.342C425.226 401.901 425.664 402.408 426.154 402.852L424.487 406.193L428.543 408.217L430.21 404.876C430.86 405.001 431.527 405.047 432.202 405.014L433.386 408.559ZM427.439 398.087C426.636 395.683 427.933 393.084 430.337 392.281C432.741 391.478 435.34 392.777 436.143 395.18C436.946 397.584 435.648 400.183 433.245 400.986C430.842 401.789 428.242 400.49 427.439 398.087Z" fill="#A0B3C1"/>
<path d="M413.731 390.208L416.309 389.347L415.599 387.222C415.934 386.995 416.238 386.732 416.504 386.438L418.507 387.438L419.721 385.006L417.718 384.006C417.793 383.617 417.821 383.216 417.801 382.812L419.926 382.102L419.065 379.524L416.94 380.234C416.713 379.899 416.45 379.595 416.156 379.329L417.156 377.326L414.724 376.112L413.724 378.115C413.335 378.04 412.934 378.012 412.53 378.033L411.82 375.908L409.242 376.769L409.952 378.894C409.617 379.121 409.313 379.384 409.047 379.678L407.044 378.678L405.83 381.11L407.833 382.11C407.758 382.499 407.73 382.9 407.75 383.304L405.625 384.014L406.486 386.592L408.611 385.882C408.838 386.217 409.101 386.521 409.395 386.787L408.395 388.79L410.827 390.004L411.827 388.001C412.216 388.076 412.617 388.104 413.021 388.084L413.731 390.208ZM410.165 383.93C409.684 382.489 410.462 380.93 411.903 380.448C413.344 379.966 414.903 380.745 415.384 382.186C415.866 383.627 415.088 385.186 413.646 385.668C412.205 386.149 410.647 385.371 410.165 383.93Z" fill="#A0B3C1"/>
<path d="M4.98779 284.954L6.42479 289.253L9.96879 288.069C10.3478 288.628 10.7858 289.134 11.2758 289.578L9.60779 292.919L13.6638 294.944L15.3308 291.603C15.9808 291.728 16.6478 291.774 17.3228 291.741L18.5068 295.285L22.8058 293.849L21.6218 290.305C22.1808 289.926 22.6868 289.488 23.1308 288.998L26.4718 290.666L28.4958 286.61L25.1548 284.942C25.2798 284.292 25.3258 283.625 25.2928 282.95L28.8368 281.766L27.3998 277.467L23.8558 278.651C23.4768 278.092 23.0388 277.586 22.5488 277.142L24.2158 273.801L20.1598 271.776L18.4918 275.117C17.8428 274.992 17.1748 274.946 16.4998 274.979L15.3158 271.435L11.0168 272.871L12.2008 276.415C11.6418 276.794 11.1358 277.232 10.6918 277.722L7.35079 276.054L5.32679 280.11L8.66779 281.777C8.54279 282.427 8.49679 283.094 8.52979 283.769L4.98779 284.954ZM15.4578 279.007C17.8618 278.204 20.4608 279.501 21.2638 281.905C22.0668 284.309 20.7688 286.908 18.3658 287.711C15.9618 288.514 13.3628 287.216 12.5598 284.813C11.7568 282.41 13.0548 279.81 15.4578 279.007Z" fill="#A0B3C1"/>
<path d="M23.3369 265.299L24.1979 267.877L26.3229 267.167C26.5499 267.502 26.8129 267.806 27.1069 268.072L26.1069 270.075L28.5389 271.289L29.5389 269.286C29.9279 269.361 30.3289 269.388 30.7329 269.368L31.4429 271.493L34.0209 270.632L33.3109 268.507C33.6459 268.28 33.9499 268.017 34.2159 267.723L36.2189 268.723L37.4329 266.291L35.4299 265.291C35.5049 264.902 35.5319 264.501 35.5129 264.097L37.6379 263.387L36.7769 260.809L34.6519 261.519C34.4249 261.184 34.1619 260.88 33.8679 260.614L34.8679 258.611L32.4359 257.397L31.4359 259.4C31.0469 259.325 30.6459 259.297 30.2419 259.317L29.5319 257.192L26.9539 258.053L27.6639 260.178C27.3289 260.405 27.0249 260.668 26.7589 260.962L24.7559 259.962L23.5419 262.394L25.5449 263.394C25.4699 263.783 25.4419 264.184 25.4619 264.588L23.3369 265.299ZM29.6149 261.734C31.0559 261.253 32.6149 262.031 33.0959 263.472C33.5779 264.913 32.7989 266.472 31.3579 266.953C29.9169 267.435 28.3579 266.657 27.8769 265.215C27.3959 263.774 28.1739 262.215 29.6149 261.734Z" fill="#A0B3C1"/>
<path d="M365.758 63.7404C362.768 63.7404 360.333 61.3064 360.333 58.3154C360.333 55.3244 362.768 52.8904 365.758 52.8904C368.749 52.8904 371.182 55.3244 371.182 58.3154C371.182 61.3074 368.749 63.7404 365.758 63.7404ZM365.758 54.8914C363.87 54.8914 362.333 56.4274 362.333 58.3164C362.333 60.2054 363.87 61.7414 365.758 61.7414C367.647 61.7414 369.182 60.2054 369.182 58.3164C369.182 56.4274 367.647 54.8914 365.758 54.8914Z" fill="#004761"/>
<path d="M347.519 30.3334C344.529 30.3334 342.095 27.8994 342.095 24.9084C342.095 21.9184 344.529 19.4844 347.519 19.4844C350.51 19.4844 352.944 21.9184 352.944 24.9084C352.944 27.8994 350.511 30.3334 347.519 30.3334ZM347.519 21.4844C345.631 21.4844 344.095 23.0204 344.095 24.9084C344.095 26.7974 345.631 28.3334 347.519 28.3334C349.408 28.3334 350.944 26.7974 350.944 24.9084C350.944 23.0204 349.408 21.4844 347.519 21.4844Z" fill="#004761"/>
<path d="M359.351 45.1474C358.798 45.1474 358.351 44.7004 358.351 44.1474V33.3334C358.351 32.7804 358.798 32.3334 359.351 32.3334C359.904 32.3334 360.351 32.7804 360.351 33.3334V44.1474C360.351 44.7004 359.904 45.1474 359.351 45.1474Z" fill="#004761"/>
<path d="M364.759 39.7404H353.944C353.391 39.7404 352.944 39.2934 352.944 38.7404C352.944 38.1874 353.391 37.7404 353.944 37.7404H364.759C365.312 37.7404 365.759 38.1874 365.759 38.7404C365.759 39.2934 365.311 39.7404 364.759 39.7404Z" fill="#004761"/>
<path d="M3.96069 192.696C3.96069 189.705 6.39469 187.271 9.38569 187.271C12.3757 187.271 14.8097 189.705 14.8097 192.696C14.8097 195.687 12.3757 198.121 9.38569 198.121C6.39469 198.121 3.96069 195.687 3.96069 192.696ZM5.96069 192.696C5.96069 194.585 7.49669 196.121 9.38569 196.121C11.2737 196.121 12.8097 194.585 12.8097 192.696C12.8097 190.807 11.2737 189.271 9.38569 189.271C7.49669 189.271 5.96069 190.807 5.96069 192.696Z" fill="#004761"/>
<path d="M22.1997 159.288C22.1997 156.298 24.6337 153.864 27.6247 153.864C30.6147 153.864 33.0487 156.298 33.0487 159.288C33.0487 162.279 30.6147 164.713 27.6247 164.713C24.6337 164.713 22.1997 162.28 22.1997 159.288ZM24.1997 159.288C24.1997 161.177 25.7357 162.713 27.6247 162.713C29.5127 162.713 31.0487 161.177 31.0487 159.288C31.0487 157.4 29.5127 155.864 27.6247 155.864C25.7357 155.864 24.1997 157.401 24.1997 159.288Z" fill="#004761"/>
<path d="M15.7927 179.528C16.3457 179.528 16.7927 179.081 16.7927 178.528V167.714C16.7927 167.161 16.3457 166.714 15.7927 166.714C15.2397 166.714 14.7927 167.161 14.7927 167.714V178.528C14.7927 179.08 15.2397 179.528 15.7927 179.528Z" fill="#004761"/>
<path d="M10.3857 174.12H21.1997C21.7527 174.12 22.1997 173.673 22.1997 173.12C22.1997 172.567 21.7527 172.12 21.1997 172.12H10.3857C9.83274 172.12 9.38574 172.567 9.38574 173.12C9.38574 173.673 9.83274 174.12 10.3857 174.12Z" fill="#004761"/>
<path d="M448.407 71.5554C448.407 67.6964 451.535 64.5684 455.394 64.5684C459.253 64.5684 462.381 67.6964 462.381 71.5554C462.381 75.4144 459.253 78.5424 455.394 78.5424C451.535 78.5414 448.407 75.4134 448.407 71.5554Z" fill="#F0F6FC"/>
<path d="M425.733 74.2985C427.801 74.2985 429.478 72.6218 429.478 70.5535C429.478 68.4852 427.801 66.8085 425.733 66.8085C423.664 66.8085 421.988 68.4852 421.988 70.5535C421.988 72.6218 423.664 74.2985 425.733 74.2985Z" fill="#F0F6FC"/>
<path d="M438.597 49.8864C442.095 49.8864 444.931 47.0506 444.931 43.5524C444.931 40.0542 442.095 37.2184 438.597 37.2184C435.099 37.2184 432.263 40.0542 432.263 43.5524C432.263 47.0506 435.099 49.8864 438.597 49.8864Z" fill="#F0F6FC"/>
<path d="M102.217 29.6852C109.208 27.2727 112.919 19.6497 110.507 12.6586C108.094 5.66745 100.471 1.95572 93.4803 4.36818C86.4892 6.78064 82.7775 14.4037 85.1899 21.3948C87.6024 28.3859 95.2255 32.0977 102.217 29.6852Z" fill="#F0F6FC"/>
<path d="M448.407 213.56C451.66 213.56 454.298 210.923 454.298 207.669C454.298 204.416 451.66 201.778 448.407 201.778C445.153 201.778 442.516 204.416 442.516 207.669C442.516 210.923 445.153 213.56 448.407 213.56Z" fill="#F0F6FC"/>
<path d="M11.2988 15.1754C9.83377 18.1234 6.25677 19.3254 3.30877 17.8604C0.360775 16.3954 -0.841225 12.8184 0.624775 9.87042C2.08978 6.92242 5.66677 5.72042 8.61477 7.18642C11.5618 8.65042 12.7638 12.2274 11.2988 15.1754Z" fill="#F0F6FC"/>
<path d="M440.372 299.321C438.019 304.055 432.273 305.986 427.539 303.633C422.805 301.28 420.874 295.534 423.227 290.8C425.58 286.066 431.326 284.135 436.06 286.488C440.795 288.841 442.725 294.587 440.372 299.321Z" fill="#F0F6FC"/>
<path d="M454.498 323.247C453.39 325.476 450.684 326.386 448.455 325.278C446.226 324.17 445.317 321.464 446.425 319.235C447.533 317.006 450.239 316.096 452.468 317.205C454.697 318.312 455.606 321.017 454.498 323.247Z" fill="#F0F6FC"/>
<path d="M432.006 331.468C430.903 333.688 428.209 334.593 425.989 333.489C423.769 332.386 422.864 329.692 423.968 327.472C425.071 325.252 427.765 324.347 429.985 325.451C432.204 326.554 433.109 329.248 432.006 331.468Z" fill="#F0F6FC"/>
<path d="M35.2327 403.879C37.9665 403.879 40.1827 401.663 40.1827 398.929C40.1827 396.196 37.9665 393.979 35.2327 393.979C32.4989 393.979 30.2827 396.196 30.2827 398.929C30.2827 401.663 32.4989 403.879 35.2327 403.879Z" fill="#F0F6FC"/>
<path d="M4.2168 383.791C4.2168 382.325 5.4048 381.137 6.8708 381.137C8.3358 381.137 9.5248 382.325 9.5248 383.791C9.5248 385.257 8.3368 386.445 6.8708 386.445C5.4048 386.445 4.2168 385.257 4.2168 383.791Z" fill="#F0F6FC"/>
<path d="M18.8447 366.418C18.8447 363.939 20.8537 361.93 23.3327 361.93C25.8117 361.93 27.8207 363.939 27.8207 366.418C27.8207 368.897 25.8117 370.906 23.3327 370.906C20.8537 370.907 18.8447 368.897 18.8447 366.418Z" fill="#F0F6FC"/>
<path d="M405.347 144.558C404.282 142.557 405.041 140.073 407.041 139.008C409.041 137.943 411.526 138.702 412.591 140.702C413.656 142.703 412.897 145.187 410.897 146.252C408.897 147.317 406.412 146.559 405.347 144.558Z" fill="#F0F6FC"/>
<path d="M27.2008 69.6864C30.9728 67.2624 35.9958 68.3564 38.4198 72.1284C40.8438 75.9004 39.7508 80.9234 35.9778 83.3474C32.2058 85.7714 27.1828 84.6774 24.7588 80.9054C22.3348 77.1334 23.4288 72.1104 27.2008 69.6864Z" fill="#F0F6FC"/>
<path d="M45.4397 48.2134C47.3467 46.9884 49.8847 47.5414 51.1097 49.4474C52.3347 51.3534 51.7817 53.8924 49.8757 55.1174C47.9687 56.3424 45.4307 55.7894 44.2057 53.8834C42.9807 51.9774 43.5337 49.4384 45.4397 48.2134Z" fill="#F0F6FC"/>
<defs>
<linearGradient id="paint0_linear_6487_4399" x1="230.278" y1="240.87" x2="230.278" y2="252.242" gradientUnits="userSpaceOnUse">
<stop stop-color="#35C2C1"/>
<stop offset="1" stop-color="#195C5C"/>
</linearGradient>
<linearGradient id="paint1_linear_6487_4399" x1="230.301" y1="263.507" x2="230.301" y2="274.88" gradientUnits="userSpaceOnUse">
<stop stop-color="#35C2C1"/>
<stop offset="1" stop-color="#195C5C"/>
</linearGradient>
<linearGradient id="paint2_linear_6487_4399" x1="230.289" y1="252.189" x2="230.289" y2="263.561" gradientUnits="userSpaceOnUse">
<stop stop-color="#35C2C1"/>
<stop offset="1" stop-color="#195C5C"/>
</linearGradient>
</defs>
</svg>
